<svg width="58" height="59" viewBox="0 0 58 59" fill="none" xmlns="http://www.w3.org/2000/svg">
<g filter="url(#filter0_d_17017_447)">
<path d="M26.0127 0.888847C26.9714 -0.296253 28.7785 -0.296252 29.7372 0.888847L32.0207 3.71166C32.7157 4.57079 33.9082 4.84297 34.9072 4.37047L38.1893 2.81799C39.5673 2.16622 41.1955 2.9503 41.545 4.434L42.3776 7.96805C42.631 9.04365 43.5874 9.8063 44.6924 9.81401L48.3231 9.83935C49.8474 9.84999 50.9741 11.2629 50.6453 12.7513L49.8621 16.2966C49.6237 17.3756 50.1544 18.4777 51.1467 18.9641L54.4069 20.5622C55.7756 21.2332 56.1777 22.995 55.2356 24.1934L52.9917 27.0478C52.3088 27.9165 52.3088 29.1397 52.9917 30.0085L55.2356 32.8629C56.1777 34.0612 55.7756 35.8231 54.4069 36.494L51.1467 38.0922C50.1544 38.5786 49.6237 39.6806 49.8621 40.7596L50.6453 44.305C50.9741 45.7934 49.8474 47.2063 48.3231 47.2169L44.6924 47.2423C43.5874 47.25 42.631 48.0126 42.3776 49.0882L41.545 52.6223C41.1955 54.106 39.5673 54.89 38.1893 54.2383L34.9072 52.6858C33.9082 52.2133 32.7157 52.4855 32.0207 53.3446L29.7372 56.1674C28.7785 57.3525 26.9714 57.3525 26.0127 56.1674L23.7292 53.3446C23.0342 52.4855 21.8416 52.2133 20.8427 52.6858L17.5605 54.2383C16.1826 54.89 14.5544 54.106 14.2049 52.6223L13.3722 49.0882C13.1188 48.0126 12.1625 47.25 11.0575 47.2423L7.42677 47.2169C5.90249 47.2063 4.77576 45.7934 5.10457 44.305L5.88778 40.7596C6.12615 39.6806 5.59543 38.5786 4.60318 38.0922L1.34301 36.494C-0.0257008 35.8231 -0.427825 34.0612 0.514233 32.8629L2.75814 30.0085C3.44107 29.1397 3.44108 27.9165 2.75814 27.0478L0.514233 24.1934C-0.427825 22.995 -0.0256999 21.2332 1.34302 20.5622L4.60318 18.9641C5.59542 18.4777 6.12615 17.3756 5.88778 16.2966L5.10457 12.7513C4.77576 11.2629 5.90249 9.84999 7.42677 9.83935L11.0575 9.81401C12.1625 9.8063 13.1188 9.04365 13.3722 7.96805L14.2049 4.434C14.5544 2.9503 16.1826 2.16622 17.5605 2.81799L20.8427 4.37047C21.8416 4.84297 23.0342 4.57079 23.7291 3.71166L26.0127 0.888847Z" fill="#74ACDE"/>
<path d="M26.5713 1.3407C27.2424 0.511154 28.5076 0.511137 29.1787 1.3407L31.4619 4.16394C32.3654 5.2807 33.9163 5.63461 35.2148 5.02039L38.4971 3.46765C39.4615 3.01175 40.6009 3.5602 40.8457 4.59851L41.6777 8.13269C42.0072 9.53097 43.251 10.5221 44.6875 10.5321L48.3184 10.5575C49.3852 10.5651 50.1735 11.5547 49.9434 12.5966L49.1602 16.1415C48.8503 17.5441 49.5403 18.9769 50.8301 19.6093L54.0908 21.2079C55.0485 21.6776 55.3299 22.9102 54.6709 23.7489L52.4268 26.6034C51.5389 27.7328 51.5389 29.3236 52.4268 30.453L54.6709 33.3065C55.3303 34.1453 55.0487 35.3787 54.0908 35.8485L50.8301 37.4471C49.5404 38.0795 48.8503 39.5123 49.1602 40.9149L49.9434 44.4598C50.1735 45.5017 49.3852 46.4903 48.3184 46.4979L44.6875 46.5233C43.251 46.5333 42.0072 47.5254 41.6777 48.9237L40.8457 52.4579C40.6009 53.4961 39.4614 54.0446 38.4971 53.5887L35.2148 52.036C33.9163 51.4218 32.3654 51.7756 31.4619 52.8925L29.1787 55.7157C28.5076 56.5452 27.2424 56.5451 26.5713 55.7157L24.2881 52.8925C23.3846 51.7756 21.8338 51.4218 20.5352 52.036L17.2529 53.5887C16.2886 54.0447 15.1492 53.4961 14.9043 52.4579L14.0713 48.9237C13.7419 47.5254 12.499 46.5333 11.0625 46.5233L7.43164 46.4979C6.36472 46.4904 5.57648 45.5017 5.80664 44.4598L6.58984 40.9149C6.89969 39.5123 6.20955 38.0796 4.91992 37.4471L1.65918 35.8485C0.70125 35.3788 0.41971 34.1453 1.0791 33.3065L3.32324 30.453C4.21106 29.3236 4.21106 27.7328 3.32324 26.6034L1.0791 23.7489C0.419987 22.9101 0.701393 21.6776 1.65918 21.2079L4.91992 19.6093C6.20958 18.9768 6.89969 17.5441 6.58984 16.1415L5.80664 12.5966C5.57648 11.5547 6.36471 10.565 7.43164 10.5575L11.0625 10.5321C12.499 10.5221 13.7419 9.53097 14.0713 8.13269L14.9043 4.59851C15.1491 3.56018 16.2885 3.01166 17.2529 3.46765L20.5352 5.02039C21.8337 5.63462 23.3846 5.28075 24.2881 4.16394L26.5713 1.3407Z" stroke="#191919" stroke-width="1.43718"/>
</g>
<defs>
<filter id="filter0_d_17017_447" x="0" y="0" width="57.1872" height="58.9725" filterUnits="userSpaceOnUse" color-interpolation-filters="sRGB">
<feFlood flood-opacity="0" result="BackgroundImageFix"/>
<feColorMatrix in="SourceAlpha" type="matrix" values="0 0 0 0 0 0 0 0 0 0 0 0 0 0 0 0 0 0 127 0" result="hardAlpha"/>
<feOffset dx="1.43718" dy="1.91625"/>
<feComposite in2="hardAlpha" operator="out"/>
<feColorMatrix type="matrix" values="0 0 0 0 0.0980392 0 0 0 0 0.0980392 0 0 0 0 0.0980392 0 0 0 1 0"/>
<feBlend mode="normal" in2="BackgroundImageFix" result="effect1_dropShadow_17017_447"/>
<feBlend mode="normal" in="SourceGraphic" in2="effect1_dropShadow_17017_447" result="shape"/>
</filter>
</defs>
</svg>
