<svg width="106" height="106" viewBox="0 0 106 106" fill="none" xmlns="http://www.w3.org/2000/svg">
<g filter="url(#filter0_d_17017_448)">
<path d="M48.5681 22.2125C49.425 17.6213 56.0023 17.6213 56.8591 22.2125L58.75 32.3443C59.2724 35.1433 62.3613 36.6308 64.8753 35.2941L73.9757 30.4554C78.0995 28.2627 82.2004 33.4051 79.1451 36.9376L72.4026 44.733C70.54 46.8866 71.3029 50.229 73.9155 51.3612L83.3725 55.4592C87.6579 57.3162 86.1943 63.7286 81.5276 63.5423L71.229 63.1313C68.384 63.0177 66.2464 65.6982 66.9902 68.4466L69.6825 78.3955C70.9026 82.9038 64.9766 85.7576 62.2126 81.9929L56.1129 73.6848C54.4278 71.3897 50.9994 71.3897 49.3143 73.6848L43.2147 81.9929C40.4506 85.7576 34.5246 82.9038 35.7447 78.3955L38.4371 68.4466C39.1809 65.6982 37.0433 63.0177 34.1982 63.1313L23.8997 63.5423C19.2329 63.7286 17.7693 57.3162 22.0548 55.4592L31.5118 51.3612C34.1244 50.229 34.8873 46.8866 33.0246 44.733L26.2822 36.9376C23.2269 33.4051 27.3278 28.2627 31.4516 30.4554L40.5519 35.2941C43.0659 36.6308 46.1548 35.1433 46.6772 32.3443L48.5681 22.2125Z" fill="#F7A73C"/>
<path d="M49.8115 22.4443C50.4115 19.2308 55.0152 19.2309 55.6152 22.4443L57.5068 32.5762C58.1859 36.2149 62.2015 38.1489 65.4697 36.4111L74.5693 31.5723C77.456 30.0374 80.3272 33.6376 78.1885 36.1104L71.4453 43.9053C69.0241 46.7049 70.0159 51.0507 73.4121 52.5225L82.8691 56.6201C85.8689 57.92 84.8448 62.4086 81.5781 62.2783L71.2793 61.8672C67.5808 61.7197 64.8016 65.2044 65.7686 68.7773L68.4609 78.7256C69.315 81.8814 65.1673 83.8794 63.2324 81.2441L57.1328 72.9365C54.9422 69.9528 50.4855 69.9528 48.2949 72.9365L42.1953 81.2441C40.2605 83.8795 36.1118 81.8814 36.9658 78.7256L39.6582 68.7773C40.6251 65.2044 37.846 61.7196 34.1475 61.8672L23.8496 62.2783C20.5829 62.4087 19.558 57.9201 22.5576 56.6201L32.0146 52.5225C35.411 51.0507 36.4029 46.7049 33.9814 43.9053L27.2393 36.1104C25.1006 33.6377 27.9708 30.0377 30.8574 31.5723L39.958 36.4111C43.2262 38.1489 47.2418 36.2148 47.9209 32.5762L49.8115 22.4443Z" stroke="#191919" stroke-width="2.53025"/>
</g>
<path d="M51.3149 60.0845C51.8464 60.2319 52.2094 60.324 52.4308 60.3772C52.69 60.0709 52.9752 59.5341 53.3797 59.0537C53.9797 58.6283 54.6928 58.114 55.6848 57.0468C56.4018 56.2755 57.503 55.0425 58.6014 53.5642C59.6997 52.086 60.7631 50.4132 61.2491 49.2114C61.7352 48.0095 61.6466 47.3 61.1476 46.5853C60.6486 45.8705 59.766 45.1716 58.91 44.8952C58.054 44.6188 57.2489 44.7606 56.5811 45.027C55.9133 45.2935 55.3983 45.6732 54.8894 46.1241C54.3805 46.5749 53.8924 47.0817 53.1622 48.218C52.432 49.3544 51.4883 51.0685 50.997 51.9741C50.5057 52.8796 50.4489 52.9794 50.3596 52.635C50.0775 51.5469 49.8354 50.5091 49.2957 49.4541C48.8836 48.6487 48.2721 47.2632 47.5472 46.485C46.3791 45.2309 45.5879 44.6644 45.0829 44.703C44.8267 44.7226 44.5692 44.8329 44.3232 45.0576C44.0773 45.2823 43.8497 45.6115 43.8597 46.809C43.8697 48.0064 44.1099 50.0114 44.5173 51.6528C44.9247 53.2941 45.4823 54.5342 46.1192 55.5897C46.7562 56.6452 47.4098 57.536 48.099 58.1295C49.3288 59.1884 50.3988 59.8305 51.3149 60.0845Z" fill="#191919"/>
<defs>
<filter id="filter0_d_17017_448" x="19.5078" y="18.769" width="67.2536" height="69.1847" filterUnits="userSpaceOnUse" color-interpolation-filters="sRGB">
<feFlood flood-opacity="0" result="BackgroundImageFix"/>
<feColorMatrix in="SourceAlpha" type="matrix" values="0 0 0 0 0 0 0 0 0 0 0 0 0 0 0 0 0 0 127 0" result="hardAlpha"/>
<feOffset dx="0.843418" dy="4.21709"/>
<feComposite in2="hardAlpha" operator="out"/>
<feColorMatrix type="matrix" values="0 0 0 0 0.0980392 0 0 0 0 0.0980392 0 0 0 0 0.0980392 0 0 0 1 0"/>
<feBlend mode="normal" in2="BackgroundImageFix" result="effect1_dropShadow_17017_448"/>
<feBlend mode="normal" in="SourceGraphic" in2="effect1_dropShadow_17017_448" result="shape"/>
</filter>
</defs>
</svg>
