<?xml version="1.0" encoding="UTF-8"?><svg id="Camada_2" xmlns="http://www.w3.org/2000/svg" viewBox="0 0 1325.32 722.53"><defs><style>.cls-1{fill:#6ec2a8;}.cls-2{fill:none;stroke:#f4b63e;stroke-width:5px;}.cls-3{fill:#f4b63e;}.cls-4{fill:#0f75b8;}</style></defs><g id="Layer_8"><path class="cls-3" d="M125.34,215.3c6.98,1.51,14.02,3.88,20.59,6.1,45.9,16.47,86.34,43.96,119.95,77.9,19.67,19.36,35.48,41.87,48.62,66.07,11.48,20.04,22.2,43.23,38.61,58.97,3.82,3.66,7.72,6.83,12.24,9.37,16.63,7.83,34.79,12.34,53.17,13.04,50.13,1.62,77.9-37.15,118.29-57.75,20.79-10.37,44-15.73,67.01-11.35,30.62,5.72,49.61,24.64,62.37,50.69,5.82,11.31,11.05,23.58,18.27,33.96,8.21,11.95,20.21,21.41,34.5,21.26,8.01-.22,15.26-2.54,21.39-7.11,19.91-15.45,35.89-35.67,49.19-57.72,21.97-35.88,38.86-76.07,70.03-105.11,12.37-11.64,26.24-21.63,41.39-29.36,12.67-6.56,26.16-11.43,40-15.61,25.28-7.52,53.66-13.91,77.75-24.46,20.6-9,40.13-20.83,56.11-36.63,18-18,29.8-40.85,44.83-61.15,14.67-20.75,27.99-42.46,39.61-65.08,11.61-22.68,21.74-46.35,28.73-70.9,1.02-3.43,1.83-7.03,2.58-10.41,0,0,9.95.96,9.95.96-.08,4.01-.5,7.74-.87,11.65-6.72,57.12-27.29,112-53.9,162.74-11.16,20.25-26.24,37.81-37.93,57.7-8.03,13.43-14.9,28.06-21.24,42.47-17.11,38.73-28.45,82.05-49.66,119.16-29.9,52.33-80.87,84.44-140.94,91.81-42.26,5.64-85.58,1.95-127.18,10.27-4.77.95-9.51,2.03-14.16,3.3-3.26.99-6.65,1.95-9.98,2.62-17.55,3.79-34.08.26-51.45-.16-12.86-.52-26.91.09-40.22,1.51-9,.79-19.11,2.18-27.98,3.27-10.77,1.47-25.43,3.09-34.24,4.69-2.65.49-4.79,1.04-6.01,1.64-1.18.6-1.44,1.36-.18,1.94,1.3.51,3.95.83,5.89.62.48-.03,1.07-.04,1.6-.11.59-.06,2.06-.29,2.64-.39,0,0,.46-.09.46-.09.08-.02.45-.1.3-.07-3.04.54-6.07,1.01-9.17,1.36-32.29,4.03-66.02-5.31-97.74-14.83-23.72-7.15-48.43-13.33-72.42-15.24-19.8-1.6-46.43-3.24-66.21-4.68-29.8-3.31-58.7-11.61-86.45-22.25-31.93-12.4-61.04-30.29-83.89-54.87-38.91-42.29-63.26-97.52-64.57-155.67.02-9.58.18-18.97,1.97-28.64,0,0,8.4-5.43,8.4-5.43h0Z"/><path class="cls-1" d="M80.92,326.65c-10.98,31.23,4.55,65.34,32.65,80.57,13.3,8.01,28.73,8.42,43.95,3.96,15.11-4.18,31-12.81,45.9-15.74,20.92-3.99,34.21,2.32,50.6,15.35,14.11,11.49,25.55,27.05,40.58,37.22,3.36,2.27,6.77,4.2,10.25,5.8,13.91,6.19,28,10.9,43.24,12.09,11.44,1,23.53.38,35.2-.16,12.55-.38,24.23-1.44,36.96-4.49,32.71-6.98,67.56-26.6,102.18-22.05,1.19.18,2.89.67,4.07.96,0,0,3.94.96,3.94.96,24.51,5.96,49.34,9.91,74.12,15.66,37.77,8.41,76.12,19.08,115.44,22.06,83.28,7.54,158.14-28.38,206.46-96.45,8.71-12.12,15.79-25.44,23.64-38.14,20.17-34.07,40.53-69.06,63.59-101.24,57.72-80.96,146.44-153.38,243.07-180.99,1.1-.3,2.25-.61,3.38-.88l3.55-.88,1.95-.46,1.04-.25c.14-.03.36-.08.68-.18l.85-.24,56.81,154.34h.2c.11,0,.11.02.03.08l-.25.25-.26.25c-4.34,3.31-8.82,6.07-13.5,9.04-28.17,17.33-57.48,33.03-87.02,48.37-37.25,19.32-73.61,37.42-112.68,55.06-31.98,14.72-69.02,30.98-99.36,48.08-12.94,7.09-26.07,15.52-38.46,23.61-32.29,20.95-63.29,43.18-93.82,66.36-37.04,27.8-73.59,59.72-111.44,88.82-74.23,57.69-155.37,90.27-250.43,69.98-17.7-3.66-35.27-8.86-52.14-15.5-15.11-7.62-26.75-21.8-36.45-35.76-17.45-26.05-32.08-51.63-57.64-69.55-22.95-18.13-41.55-28.69-71.5-29.61-16.25-.7-32.63,7.4-46.93,15.73-7.43,4.03-14.38,8.66-22.64,11.1-16.57,4.9-33.02,1.78-47.86-6.89-26.74-15.58-41.38-48.35-67.57-64.27-29.32-16.7-63.25-26.27-97.58-32.78-5.55-.92-11.18-1.98-17.76-2.56l80.92-66.64h0Z"/><path class="cls-4" d="M143.65,499.57c.98-1.31,2.15-2.48,3.28-3.59,11.52-10.98,24.89-19.8,39.06-26.84,41.99-21.05,89.88-19.53,132.5-2.7,6.39,2.46,12.71,5.2,18.9,8.12,16.83,7.79,34.95,16.65,51.78,23.73,34.3,14.82,69.89,24.41,106.74,27.77,18.15,1.54,36.73.54,54.71-2.77,16.42-2.87,33.03-7.76,49.01-12.46,15.48-4.79,31.35-9.35,47.21-12.73,25.63-5.15,51.79-8.06,77.92-5.28,22.96,4.23,44.59,15.7,67.41,21.38,37.37,9.53,59.8-.77,89.91-21.87,19.61-14.01,36.61-31.28,51.42-50.44,23.05-29.45,41.85-65.61,64.11-97.12,37.68-54.24,85.29-87.42,149.63-104.39,45.09-12.68,90.79-17.61,136.71-25.64,0,0-30.81,182.2-30.81,182.2-26.43-18.76-58.2-31.33-90.03-34.71-24.41-2.19-48.42.76-71.33,9.29-20.53,7.66-39.64,19.96-57.34,33.84-24.95,19.56-47.01,41.68-71.04,64.01-19.38,18.04-39.4,35.66-60.98,51.23-10.85,7.82-22.07,15.23-33.67,22.02-17.74,10.57-34.56,24.98-50.18,39.68-22.72,21.37-46.45,43.64-76,54.39-13.13,4.29-26.61,7.05-40.32,8.39-52.74,5.14-96.7-8.03-144.37-29.06-19.59-8.56-38.45-17.37-57.74-25.88-18.41-8.03-37.32-15.86-55.35-24.32-41.49-19.47-82.79-39.2-125.24-56.12-4.7-1.86-9.38-3.56-14.2-4.99-20.69-6.09-42.31-7.49-62.33.09-15.6,6-28.86,17.09-36.18,31.94-.69,1.53-1.38,2.98-1.47,4.56,0,.08.04.1.07.14.02,0,.06,0,.09-.01,1.65-.48-62.06-41.5-61.88-41.86h0Z"/><path class="cls-2" d="M193.14,533.8c52.04-29.03,125.22-30.61,237.45,70.47,447.32,402.89,574.47-375.32,782.81-373.79"/></g></svg>