<svg width="60" height="61" viewBox="0 0 60 61" fill="none" xmlns="http://www.w3.org/2000/svg">
<g filter="url(#filter0_d_17060_366)">
<path d="M28.0791 2.30205C29.0378 1.11696 30.8449 1.11696 31.8036 2.30205L34.0871 5.12487C34.7821 5.984 35.9746 6.25618 36.9736 5.78368L40.2557 4.2312C41.6337 3.57942 43.2619 4.36351 43.6114 5.84721L44.444 9.38126C44.6974 10.4569 45.6538 11.2195 46.7588 11.2272L50.3895 11.2526C51.9138 11.2632 53.0405 12.6761 52.7117 14.1645L51.9285 17.7098C51.6901 18.7889 52.2208 19.8909 53.2131 20.3773L56.4733 21.9755C57.842 22.6464 58.2441 24.4082 57.302 25.6066L55.0581 28.461C54.3752 29.3297 54.3752 30.5529 55.0581 31.4217L57.302 34.2761C58.2441 35.4745 57.842 37.2363 56.4733 37.9072L53.2131 39.5054C52.2208 39.9918 51.6901 41.0938 51.9285 42.1729L52.7117 45.7182C53.0405 47.2066 51.9138 48.6195 50.3895 48.6301L46.7588 48.6555C45.6538 48.6632 44.6974 49.4258 44.444 50.5014L43.6114 54.0355C43.2619 55.5192 41.6337 56.3033 40.2557 55.6515L36.9736 54.099C35.9747 53.6265 34.7821 53.8987 34.0871 54.7578L31.8036 57.5806C30.8449 58.7657 29.0378 58.7657 28.0791 57.5806L25.7956 54.7578C25.1006 53.8987 23.908 53.6265 22.9091 54.099L19.6269 55.6515C18.249 56.3033 16.6208 55.5192 16.2713 54.0355L15.4387 50.5014C15.1852 49.4258 14.2289 48.6632 13.1239 48.6555L9.49318 48.6301C7.96889 48.6195 6.84216 47.2066 7.17098 45.7182L7.95418 42.1729C8.19256 41.0938 7.66183 39.9918 6.66959 39.5054L3.40942 37.9072C2.04071 37.2363 1.63858 35.4745 2.58064 34.2761L4.82454 31.4217C5.50748 30.5529 5.50748 29.3297 4.82454 28.461L2.58064 25.6066C1.63858 24.4082 2.04071 22.6464 3.40942 21.9755L6.66959 20.3773C7.66183 19.8909 8.19256 18.7889 7.95418 17.7098L7.17098 14.1645C6.84216 12.6761 7.96889 11.2632 9.49318 11.2526L13.1239 11.2272C14.2289 11.2195 15.1852 10.4569 15.4387 9.38126L16.2713 5.84721C16.6208 4.36351 18.249 3.57942 19.6269 4.2312L22.9091 5.78368C23.908 6.25618 25.1006 5.984 25.7956 5.12487L28.0791 2.30205Z" fill="#74ACDE"/>
<path d="M28.6377 2.75391C29.3088 1.92436 30.574 1.92434 31.2451 2.75391L33.5283 5.57715C34.4318 6.6939 35.9827 7.04782 37.2812 6.43359L40.5635 4.88086C41.5279 4.42496 42.6673 4.97341 42.9121 6.01172L43.7441 9.5459C44.0736 10.9442 45.3174 11.9353 46.7539 11.9453L50.3848 11.9707C51.4516 11.9783 52.2399 12.968 52.0098 14.0098L51.2266 17.5547C50.9167 18.9573 51.6068 20.3901 52.8965 21.0225L56.1572 22.6211C57.1149 23.0908 57.3963 24.3234 56.7373 25.1621L54.4932 28.0166C53.6053 29.146 53.6053 30.7368 54.4932 31.8662L56.7373 34.7197C57.3967 35.5585 57.1151 36.7919 56.1572 37.2617L52.8965 38.8604C51.6068 39.4928 50.9167 40.9255 51.2266 42.3281L52.0098 45.873C52.2399 46.9149 51.4516 47.9035 50.3848 47.9111L46.7539 47.9365C45.3174 47.9466 44.0736 48.9386 43.7441 50.3369L42.9121 53.8711C42.6673 54.9093 41.5278 55.4578 40.5635 55.002L37.2812 53.4492C35.9827 52.835 34.4318 53.1888 33.5283 54.3057L31.2451 57.1289C30.5741 57.9584 29.3088 57.9584 28.6377 57.1289L26.3545 54.3057C25.451 53.1888 23.9002 52.835 22.6016 53.4492L19.3193 55.002C18.355 55.4579 17.2156 54.9093 16.9707 53.8711L16.1377 50.3369C15.8083 48.9386 14.5654 47.9466 13.1289 47.9365L9.49805 47.9111C8.43112 47.9036 7.64289 46.9149 7.87305 45.873L8.65625 42.3281C8.9661 40.9255 8.27595 39.4928 6.98633 38.8604L3.72559 37.2617C2.76766 36.792 2.48612 35.5585 3.14551 34.7197L5.38965 31.8662C6.27747 30.7368 6.27747 29.146 5.38965 28.0166L3.14551 25.1621C2.48639 24.3233 2.7678 23.0908 3.72559 22.6211L6.98633 21.0225C8.27599 20.39 8.9661 18.9573 8.65625 17.5547L7.87305 14.0098C7.64289 12.9679 8.43112 11.9782 9.49805 11.9707L13.1289 11.9453C14.5654 11.9353 15.8083 10.9442 16.1377 9.5459L16.9707 6.01172C17.2155 4.97339 18.3549 4.42487 19.3193 4.88086L22.6016 6.43359C23.9001 7.04783 25.451 6.69396 26.3545 5.57715L28.6377 2.75391Z" stroke="#191919" stroke-width="1.43718"/>
</g>
<path d="M13 42.0345C13.2443 42.152 14.124 42.1696 14.7794 42.1993C15.0695 42.2125 15.2887 42.1295 15.8508 41.969C16.2662 41.8505 16.6401 41.5219 16.8005 41.3729C16.9822 41.2041 17.3593 40.849 17.6993 40.4935C17.9505 40.2309 18.1236 39.9411 18.2692 39.725C18.3791 39.559 18.5185 39.4107 18.6385 39.2601C18.6685 39.2211 18.7014 39.1809 18.7452 39.1395" stroke="#191919" stroke-width="0.6" stroke-linecap="round"/>
<path d="M19.058 39.1674C19.0211 39.1036 18.96 38.8962 18.9723 38.6717C18.9829 38.4779 19.2202 38.124 19.4541 37.7814C19.6856 37.442 20.2757 36.8993 20.6271 36.423C20.6884 36.3399 20.735 36.2619 20.7443 36.2414C20.7966 36.1264 20.4967 36.4872 20.3451 36.6373C20.1729 36.8078 19.9709 37.0044 19.8087 37.1898C19.6576 37.3624 19.5875 37.5946 19.5222 37.7818C19.451 37.9859 19.2793 38.1428 19.1556 38.3162C19.048 38.4671 19.069 38.6794 19.1186 38.9635C19.1403 39.0876 19.2181 39.1823 19.3303 39.252C19.4508 39.327 19.5899 39.2814 19.6772 39.2387C19.9484 39.1062 20.2458 38.7171 20.4659 38.5694C20.7625 38.3704 20.9796 38.2188 21.1505 38.0748C21.194 38.0359 21.2435 37.989 21.292 37.9431C21.3406 37.8972 21.3869 37.8537 21.5242 37.7176" stroke="#191919" stroke-width="0.6" stroke-linecap="round"/>
<path d="M21.5115 34.1485C21.4747 34.2048 21.3264 34.3717 21.1942 34.5203C21.0629 34.6681 20.9747 34.925 20.905 35.1288C20.8414 35.3146 20.7952 35.5121 20.7343 35.7153C20.6791 35.8994 20.7497 36.1043 20.8395 36.3026C20.9188 36.4778 21.0387 36.6237 21.2065 36.8011C21.4018 37.0075 21.5465 37.1284 21.6665 37.265C21.7976 37.4142 21.9454 37.5377 22.1365 37.6028C22.4061 37.6947 22.6275 37.5843 22.8587 37.5691C23.1308 37.5512 23.4652 37.5269 23.6861 37.4914C23.902 37.4567 24.1077 37.3886 24.3067 37.3057C24.5192 37.2172 24.8578 37.1243 25.1432 37.019C25.5087 36.8841 25.888 36.6697 26.1567 36.5375C26.3631 36.4359 26.71 36.2337 26.9971 36.0828C27.2423 35.954 27.4946 35.7871 27.6994 35.6441C27.9969 35.4363 28.1617 35.2961 28.3747 35.1415C28.5623 35.0053 28.8494 34.7849 29.2246 34.5093C29.5239 34.2895 29.8622 34.0902 30.092 33.9277C30.4441 33.6787 30.8422 33.398 31.5426 33.019C32.1803 32.674 32.7801 32.2211 33.1888 31.9882C33.5665 31.773 33.853 31.6285 34.2407 31.2949C34.4803 31.0887 34.6992 30.8497 34.9503 30.7099C35.2262 30.5563 35.5674 30.3217 35.7589 30.2215C35.8018 30.1943 35.8415 30.1608 35.8784 30.1268C35.9153 30.0929 35.9483 30.0594 35.9822 29.9945" stroke="#191919" stroke-width="0.6" stroke-linecap="round"/>
<path d="M21.5801 34.1548C21.6216 34.0513 21.7583 33.8503 21.9621 33.627C22.1386 33.4337 22.4584 33.2204 22.7133 33.0304C22.8863 32.9015 23.032 32.7679 23.2026 32.6073C23.3549 32.464 23.6149 32.1971 24.1984 31.6331C24.4435 31.3962 24.6634 31.2048 24.8729 31.0149C25.0629 30.8428 25.2515 30.6905 25.7498 30.2616C26.0885 29.9701 26.246 29.8019 26.5043 29.5553C26.8292 29.245 27.0952 28.9763 27.2623 28.8359C27.4548 28.6741 27.8522 28.3138 28.2504 27.9256C28.4148 27.7653 28.5781 27.5714 28.7804 27.3495C28.95 27.1634 29.5291 26.6285 30.0192 26.1555C30.5989 25.5961 30.8443 25.3953 31.001 25.2511C31.2181 25.0513 31.5112 24.8431 31.8862 24.5756C32.0691 24.4577 32.3746 24.2671 32.635 24.0893C32.8953 23.9114 33.1011 23.7522 33.3025 23.5676" stroke="#191919" stroke-width="0.6" stroke-linecap="round"/>
<path d="M33.1602 23.7235C33.2097 23.743 33.3756 23.9288 33.5089 24.1376C33.6488 24.3566 33.7815 24.5022 33.883 24.6708C34.0053 24.874 34.0874 25.043 34.1838 25.2317C34.2797 25.4196 34.3838 25.5942 34.4884 25.774C34.5989 25.964 34.7759 26.1458 34.9092 26.3226C35.0644 26.5282 35.2028 26.6966 35.3323 26.8599C35.46 27.021 35.5957 27.2048 35.7322 27.3523C35.8692 27.5003 35.987 27.6852 36.1197 27.8735C36.2613 28.0746 36.3886 28.2539 36.5205 28.4239C36.6611 28.6053 36.8089 28.7923 36.9182 29.0001C36.9753 29.1086 37.0004 29.2132 37.0038 29.2994C37.0111 29.4906 36.7543 29.592 36.592 29.6819C36.3999 29.7793 36.249 29.8508 36.1647 29.9089C36.1239 29.9373 36.0871 29.9636 36.0289 30.0105" stroke="#191919" stroke-width="0.6" stroke-linecap="round"/>
<path d="M31.8516 33.0049C31.8581 33.0049 31.9044 33.0378 31.9875 33.1059C32.064 33.1775 32.1441 33.261 32.2271 33.3473C32.2672 33.3875 32.3034 33.4204 32.3802 33.5038" stroke="#191919" stroke-width="0.6" stroke-linecap="round"/>
<path d="M34.9355 31.1157C35.0046 31.1397 35.2102 31.2542 35.3439 31.3992C35.374 31.4378 35.4036 31.4774 35.4337 31.5143C35.4638 31.5511 35.4934 31.584 35.573 31.7077" stroke="#191919" stroke-width="0.6" stroke-linecap="round"/>
<path d="M35.59 31.7277C35.4563 31.7757 35.2008 31.9256 35.0366 32.0473C34.8486 32.1867 34.5645 32.3646 34.3356 32.4903C34.1637 32.5848 34.0049 32.6757 33.7953 32.7705C33.5883 32.8642 33.4013 32.9269 33.221 33.0055C33.0373 33.1027 32.8618 33.242 32.6943 33.3602C32.6518 33.3854 32.6117 33.4051 32.5703 33.4254" stroke="#191919" stroke-width="0.6" stroke-linecap="round"/>
<path d="M21.2344 36.7064C21.2861 36.7347 21.7889 36.8641 22.2785 36.9485C22.4361 36.9757 22.6925 37.0178 22.7576 37.0255C22.8293 37.034 22.0761 36.8098 21.3952 36.5769C21.1887 36.5063 22.5159 36.8715 22.9087 36.9506C23.0065 36.9704 23.0814 36.8728 23.1199 36.8116C23.3015 36.5238 22.2192 36.5493 22.0835 36.4875C22.0329 36.4645 22.0503 36.4087 22.0859 36.3775C22.2803 36.207 23.2344 36.699 23.8579 36.9067C24.2046 37.0221 24.4961 36.9697 24.543 36.9368C24.7095 36.8202 23.1454 36.4835 22.4533 36.337C22.2607 36.2963 22.1027 36.2352 22.0396 36.1711C22.0129 36.144 22.0576 36.0914 22.0974 36.0573C22.3084 35.8764 22.7233 36.0208 23.1282 36.0651C23.6239 36.1193 23.8435 36.1764 24.362 36.3012C24.747 36.3938 25.0291 36.4005 25.2273 36.363C25.2854 36.352 25.3479 36.3144 25.3614 36.2884C25.3869 36.2391 24.9874 36.177 24.4931 36.1094C23.6748 35.9976 22.577 35.7031 22.3986 35.6324C22.3265 35.6039 22.948 35.5872 23.6364 35.5946C24.0674 35.5993 24.3226 35.6461 24.7244 35.6669C26.1269 35.7395 26.4573 35.7521 26.562 35.7416C26.6719 35.7305 26.0706 35.6049 25.433 35.4951C24.6983 35.3687 24.2662 35.2051 24.2195 35.1401C24.199 35.1117 24.2546 35.0667 24.7885 35.0351C25.3224 35.0036 26.3508 34.9803 26.9081 34.9645C27.5206 34.9471 27.8399 34.9332 28.2081 34.9269C28.5287 34.9214 27.0743 34.8587 26.739 34.9181C26.3932 34.9794 26.2508 34.992 26.198 34.9942C26.0531 35 26.4395 35.2858 26.6363 35.4278C26.8267 35.565 27.113 35.494 27.3356 35.4562C27.3859 35.4477 27.4388 35.4476 27.4332 35.4116C27.4135 35.2838 26.6618 34.9729 25.6112 34.5621C25.0208 34.3312 24.7392 34.3181 24.6438 34.3181C24.6288 34.3181 24.6815 34.3181 25.4309 34.3726C26.1803 34.427 27.6249 34.536 28.4103 34.6022C29.1956 34.6684 29.278 34.6886 29.253 34.6932C29.228 34.6977 29.093 34.686 28.6124 34.5977C28.1318 34.5095 27.3097 34.3451 26.8632 34.2516C26.4166 34.1581 26.3704 34.1405 26.3641 34.1142C26.3484 34.049 26.8137 33.9952 27.4756 33.9472C27.9118 33.9156 28.5006 33.8598 29.1156 33.836C29.3026 33.8287 29.2337 33.8009 28.7174 33.7227C28.2011 33.6446 27.2392 33.5093 26.7136 33.4315C26.1881 33.3537 26.1281 33.3375 26.1169 33.3192C26.0411 33.1942 26.5207 33.221 27.1084 33.2806C27.5394 33.3243 28.2323 33.4593 28.6903 33.5251C29.6059 33.5985 29.9001 33.578 30.1405 33.5763C30.1915 33.5746 30.0985 33.5713 30.0027 33.5679" stroke="#191919" stroke-width="0.6" stroke-linecap="round"/>
<path d="M30.2239 33.3038C29.9642 33.2628 29.0797 33.0065 27.9616 32.6401C27.591 32.5186 27.6332 32.4888 28.0552 32.5262C28.4771 32.5636 29.2809 32.659 29.7577 32.7082C30.5909 32.7941 30.9076 32.7311 31.2358 32.621C31.5493 32.5158 29.9889 32.3113 29.485 32.2032C28.9356 32.0854 28.8392 32.0582 28.7481 32.0008C28.7042 31.9731 28.6638 31.9502 28.7127 31.9415C28.8982 31.9087 29.3066 31.9835 29.8453 32.0434C30.4033 32.1054 30.7472 32.0929 31.015 32.1227C32.0627 32.2393 32.2411 32.2192 32.3854 32.1769C32.5273 32.1354 31.5713 31.9195 30.5474 31.6926C30.1 31.5935 29.7912 31.5654 29.9499 31.5663C30.7434 31.5706 31.568 31.6837 31.8546 31.7406C32.1167 31.7926 32.4269 31.8305 32.8018 31.8464C32.8747 31.8495 32.9209 31.8363 32.9214 31.8127C32.922 31.7891 32.8754 31.7488 32.3446 31.5993C31.8139 31.4498 30.8003 31.1923 30.3393 31.0399C29.8782 30.8874 30.0004 30.8478 30.7284 30.8816C31.4565 30.9153 32.7867 31.0237 34.1572 31.1454" stroke="#191919" stroke-width="0.6" stroke-linecap="round"/>
<path d="M33.444 31.1578C33.2879 31.1857 32.7086 30.9029 32.281 30.6971C31.5268 30.3342 30.7876 30.013 30.6702 29.9361C30.6653 29.9329 30.7254 29.9624 31.1798 30.0643C31.6342 30.1663 32.4887 30.3487 32.9517 30.4503C33.5808 30.5882 33.878 30.6338 34.2186 30.7207C34.2926 30.7395 34.3457 30.7359 34.3659 30.7125C34.386 30.689 34.3725 30.6422 34.3237 30.595C34.2072 30.4825 33.8895 30.3677 33.3551 30.1879C32.6357 29.9457 31.929 29.866 32.233 29.9047C32.7996 29.9766 34.2046 30.1457 34.9033 30.2121C35.602 30.2785 35.5522 30.2347 35.136 30.0894C34.7198 29.9442 33.9386 29.699 33.4187 29.551C32.8989 29.403 32.6641 29.3596 32.7477 29.3415C33.7538 29.1239 34.1288 29.471 34.4017 29.5262C34.6981 29.5861 35.1513 29.5583 35.5156 29.5729C35.6231 29.5772 35.5736 29.5722 35.1225 29.442C34.6714 29.3117 33.8203 29.0557 33.2685 28.9035C32.7168 28.7513 32.4903 28.7107 32.688 28.7019C33.5137 28.6654 34.264 28.7349 34.4386 28.7104C34.558 28.6936 34.6189 28.6038 34.6719 28.5246C34.6998 28.4829 34.725 28.4353 34.7153 28.4027C34.6941 28.331 34.0688 28.2292 33.2913 28.0461C33.051 27.9895 33.1463 27.9266 33.2319 27.8957C33.3174 27.8647 33.3961 27.8472 33.829 27.8382C35.0463 27.8128 35.9004 27.8215 35.9449 27.8248C36.0089 27.8296 35.7302 27.8958 35.0057 27.8013C34.3937 27.7215 33.294 27.5179 32.7843 27.4028C32.2746 27.2876 32.3903 27.2521 32.6883 27.2222C34.0066 27.0897 34.2155 27.09 34.3953 27.0313C34.4378 27.0175 34.4502 26.9567 34.4333 26.9182C34.1802 26.3429 32.8094 26.5771 32.7223 26.5442C32.6883 26.5156 32.6749 26.4627 32.6762 26.4121C32.6775 26.3614 32.694 26.3146 32.8104 26.3057" stroke="#191919" stroke-width="0.6" stroke-linecap="round"/>
<path d="M33.9375 28.7501C34.0529 28.798 34.4667 28.8623 35.0376 28.9224C35.3223 28.9428 35.4386 28.9527 35.5415 28.9659C35.5982 28.9694 35.664 28.966 35.7418 28.9017" stroke="#191919" stroke-width="0.6" stroke-linecap="round"/>
<path d="M34.0977 28.0839C34.384 28.1113 34.6172 28.1365 34.7703 28.1566C34.8838 28.1721 34.9775 28.1855 35.072 28.2004C35.1204 28.2087 35.1699 28.2186 35.3106 28.2587" stroke="#191919" stroke-width="0.6" stroke-linecap="round"/>
<path d="M35.5449 29.532C35.7007 29.4727 36.0175 29.3685 36.2196 29.3314C36.2664 29.3313 36.3125 29.3378 36.3692 29.3412C36.426 29.3446 36.492 29.3446 36.4992 29.3345" stroke="#191919" stroke-width="0.6" stroke-linecap="round"/>
<path d="M34.6992 28.7781C34.7124 28.7781 35.1647 28.7747 35.8775 28.7749C36.1449 28.7786 36.2205 28.7894 36.281 28.8049C36.3415 28.8203 36.3846 28.8401 36.4279 28.8093" stroke="#191919" stroke-width="0.6" stroke-linecap="round"/>
<path d="M33.8984 27.0819C33.97 27.0819 34.124 27.0819 34.3339 27.084C34.4916 27.0903 34.6013 27.0846 34.6892 27.0661C34.7343 27.0575 34.7803 27.0508 34.8776 27.0338" stroke="#191919" stroke-width="0.6" stroke-linecap="round"/>
<path d="M32.9678 23.9868C32.9242 23.9466 32.8429 23.7513 32.8341 23.3882C32.8283 23.1454 33.0048 22.9971 33.1764 22.8747C33.3496 22.7512 33.544 22.7012 33.7258 22.5864C33.9692 22.4327 34.342 22.364 34.7231 22.3398C34.8451 22.3335 34.9322 22.2956 35.0068 22.2232C35.0452 22.1842 35.0846 22.1407 35.0949 22.0756" stroke="#191919" stroke-width="0.6" stroke-linecap="round"/>
<path d="M36.9844 29.5646C37.0671 29.6406 37.2129 29.7667 37.4009 29.797C37.6422 29.8359 37.7858 29.5745 37.9339 29.4408C38.0117 29.3783 38.0987 29.3172 38.1869 29.2532C38.2288 29.2192 38.265 29.1824 38.3619 29.033" stroke="#191919" stroke-width="0.6" stroke-linecap="round"/>
<path d="M35.3796 24.5647C35.3796 24.558 35.3796 24.5513 35.3644 24.1082C35.3492 23.6651 35.3187 22.7858 35.3063 22.3038C35.2874 21.5679 35.3477 21.1757 35.39 20.9403C35.4395 20.6648 35.5163 20.3655 35.5752 20.1696C35.673 19.8445 35.8262 19.5214 35.9851 19.2153C36.1225 18.9503 36.2817 18.7138 36.4357 18.5393C36.5974 18.3561 36.7702 18.2536 36.9414 18.1261C37.1117 17.9993 37.9075 17.736 38.4124 17.5679C38.6715 17.4817 38.8426 17.3953 39.1162 17.3444C39.4233 17.2872 40.0037 17.1732 40.4266 17.1002C40.6833 17.0558 40.946 17.0235 41.5471 17.0017C41.8524 16.9907 42.1062 17.0355 42.3465 17.0618C42.6273 17.0926 42.8156 17.1863 43.3061 17.467C43.576 17.6215 43.7633 17.7315 43.9524 17.8443C44.1493 17.9617 44.3084 18.0756 44.6596 18.2549C44.8838 18.3693 45.0315 18.4866 45.2387 18.6702C45.446 18.8538 45.6935 19.1315 45.8669 19.3319C46.0314 19.522 46.1804 19.7767 46.2911 19.9909C46.418 20.2363 46.549 20.6309 46.6561 20.9076C46.742 21.1297 46.792 21.373 46.8496 21.6271C46.953 22.0832 47.0509 22.7778 47.0685 23.084C47.0859 23.3865 47.0395 23.665 46.9794 23.9872C46.8505 24.6791 46.522 25.2388 46.3623 25.5618C46.2314 25.8267 46.1192 26.0405 45.9702 26.291C45.8357 26.5173 45.6586 26.7049 45.4963 26.8927C45.3367 27.0772 44.9993 27.32 44.7473 27.5239C44.533 27.6974 44.3388 27.8716 44.1084 28.0343C43.8209 28.2372 43.5878 28.3993 43.4043 28.5398C43.2256 28.6766 43.0379 28.7682 42.6207 28.9308C42.3174 29.049 42.0782 29.108 41.8773 29.1553C41.6801 29.2017 41.4588 29.2679 41.2235 29.3065C40.8868 29.3617 40.6934 29.2665 40.4495 29.2436C40.1598 29.2164 39.9406 29.1866 39.7423 29.1608C39.501 29.1295 39.294 29.0813 39.0972 29.0209C38.8953 28.9589 38.7179 28.8953 38.5116 28.8186C38.2519 28.7221 37.9579 28.4618 37.7746 28.2803C37.6188 28.126 37.484 27.9848 37.3655 27.8324C37.2548 27.6901 37.1542 27.5231 36.9843 27.2883C36.8575 27.113 36.726 26.9571 36.6061 26.7963C36.462 26.6027 36.3436 26.447 36.2287 26.2679C36.1275 26.1101 36.0274 25.9376 35.8802 25.6782C35.757 25.4608 35.6958 25.188 35.6089 24.9909C35.563 24.8754 35.5275 24.7694 35.5109 24.6811C35.5053 24.6356 35.5053 24.5888 35.4951 24.4693" stroke="#191919" stroke-width="0.6" stroke-linecap="round"/>
<path d="M38.2732 17.5195C38.2798 17.5852 38.3301 17.8011 38.3918 18.2184C38.4718 18.7594 38.3221 19.133 38.2156 19.5185C38.0368 20.1652 38.0298 20.4591 37.9154 20.906C37.8372 21.2116 37.7377 21.4711 37.4425 22.5951C37.334 23.0082 37.2561 23.2679 37.1754 23.5303C37.1051 23.759 37.0187 24.0765 36.8622 24.3625C36.8311 24.4316 36.8144 24.4946 36.8058 24.5634C36.7971 24.6321 36.7971 24.7048 36.827 24.7588" stroke="#191919" stroke-width="0.6" stroke-linecap="round"/>
<path d="M39.7513 17.2048C39.7411 17.4745 39.7122 18.0893 39.6542 18.6726C39.6023 19.1954 39.6385 19.5668 39.6112 19.7993C39.5027 20.7235 39.4449 21.241 39.3983 21.7172C39.3652 22.0563 39.3146 22.2904 39.2697 22.6174C39.1597 23.4187 38.9651 24.0983 38.8209 24.3962C38.5766 24.9011 38.4753 25.1909 38.0499 25.8771C37.9015 26.078 37.7393 26.2536 37.6418 26.3664C37.5443 26.4791 37.5164 26.5236 37.5176 26.529" stroke="#191919" stroke-width="0.6" stroke-linecap="round"/>
<path d="M41.9727 17.35C41.9793 17.3831 42.0275 17.6544 42.1038 18.1483C42.1739 18.6023 42.1249 19.0872 41.9795 19.7644C41.8891 20.1857 41.7246 20.7554 41.5456 21.265C41.21 22.2206 40.9545 22.7154 40.9115 22.8861C40.7824 23.3985 40.546 23.8163 40.2363 24.5867C40.0838 24.966 39.8471 25.192 39.713 25.3845C39.6791 25.4342 39.6371 25.4899 39.605 25.5382C39.5729 25.5864 39.5519 25.6256 39.555 25.6468" stroke="#191919" stroke-width="0.6" stroke-linecap="round"/>
<path d="M39.1973 27.3711C39.358 27.2065 39.7656 26.8061 40.3657 26.1559C41.2377 25.2109 41.32 24.929 41.541 24.6262C41.6188 24.5196 41.7285 24.3694 42.1284 23.7644C42.5282 23.1594 43.2158 22.1049 43.6088 21.4919C44.0878 20.7447 44.2751 20.3552 44.4663 19.9341C44.6759 19.3855 44.848 18.9882 44.9418 18.7545C44.9636 18.7009 44.9786 18.6554 44.9837 18.6384" stroke="#191919" stroke-width="0.6" stroke-linecap="round"/>
<path d="M40.5137 27.4353C40.6008 27.3313 41.1797 27.027 41.5797 26.8133C41.9354 26.6233 42.3796 26.2371 42.6456 26.0046C43.0006 25.6943 43.2186 25.4242 43.4444 25.1504C43.6631 24.8852 43.9854 24.4819 44.2141 24.185C44.3755 23.9756 44.5397 23.7288 44.785 23.2804C44.941 22.9953 45.1056 22.7348 45.181 22.5662C45.261 22.3872 45.3084 22.2029 45.4755 21.9237C45.6535 21.6263 45.7904 21.3715 45.885 21.1899C45.9765 20.9815 46.0415 20.8053 46.1388 20.6323C46.1698 20.5848 46.2046 20.531 46.28 20.3842" stroke="#191919" stroke-width="0.6" stroke-linecap="round"/>
<path d="M40.5273 28.0713C40.6024 28.0536 40.8274 27.9978 41.1191 27.9087C41.3547 27.8368 41.6242 27.7709 42.1938 27.6614C42.6089 27.5816 43.0262 27.3496 43.4157 27.2158C43.744 27.1029 44.0352 26.9293 44.2844 26.7862C44.5404 26.6392 44.6611 26.4949 44.8806 26.3299C45.0871 26.1746 45.3036 25.9435 45.534 25.7349C45.715 25.571 45.8413 25.3682 45.9462 25.2107C46.0515 25.0525 46.1669 24.8881 46.2933 24.7223C46.4032 24.543 46.4829 24.4246 46.5343 24.3488C46.5594 24.3097 46.5824 24.2696 46.6361 24.1674" stroke="#191919" stroke-width="0.6" stroke-linecap="round"/>
<path d="M37.8184 18.1559C37.8801 18.1138 38.0592 18.0312 38.5716 17.979C39.009 17.9345 39.8102 17.8944 40.2743 17.8544C41.0277 17.7896 41.5441 17.7416 42.4288 17.8621C43.5039 18.0086 43.821 18.1243 44.2449 18.2647C44.4283 18.3307 44.5599 18.3831 44.6738 18.44C44.7382 18.474 44.8159 18.5181 44.8954 18.5935" stroke="#191919" stroke-width="0.6" stroke-linecap="round"/>
<path d="M37.7168 18.677C37.73 18.6703 38.3835 18.6669 39.4263 18.6703C39.9477 18.672 40.4752 18.7389 41.2588 18.843C41.6441 18.8941 42.0036 18.9484 42.4609 19.0439C43.467 19.2539 44.1644 19.4801 44.4138 19.5864C44.8178 19.7586 45.2647 19.9101 45.4628 20.0216C45.6851 20.1775 45.9491 20.3639 46.0433 20.4401C46.0873 20.4768 46.1236 20.5098 46.2106 20.6135" stroke="#191919" stroke-width="0.6" stroke-linecap="round"/>
<path d="M37.1152 20.0711C37.1808 20.0468 37.5313 19.9546 38.5853 20.0179C39.253 20.058 40.4428 20.2738 41.1994 20.3929C42.5871 20.6114 42.7683 20.714 43.1907 20.8361C43.9897 21.0671 44.4078 21.1121 44.6826 21.1919C44.9602 21.2725 45.2381 21.4236 45.5615 21.6034C45.927 21.811 46.3551 21.9952 46.5764 22.0978C46.624 22.1215 46.663 22.1422 46.7929 22.1934" stroke="#191919" stroke-width="0.6" stroke-linecap="round"/>
<path d="M36.7266 21.6126C36.7331 21.6059 36.8726 21.5882 37.4585 21.5662C37.9081 21.5494 38.6678 21.558 39.4594 21.6381C40.251 21.7182 41.0518 21.8789 41.7452 22.0413C43.0064 22.3365 43.6275 22.5349 43.7901 22.5757C44.3155 22.7079 44.5724 22.873 44.8177 23.0012C45.0393 23.117 45.4794 23.3937 45.8093 23.6068C46.0329 23.7513 46.2387 23.9362 46.4009 24.0665C46.4394 24.0933 46.4791 24.1163 46.5224 24.1439C46.5657 24.1715 46.6114 24.203 46.6882 24.2552" stroke="#191919" stroke-width="0.6" stroke-linecap="round"/>
<path d="M36.1699 22.7229C36.2989 22.6865 36.8333 22.6248 38.1355 22.7536C39.1495 22.8539 40.863 23.1744 41.8444 23.3511C43.0235 23.5636 43.2754 23.6784 43.4751 23.756C44.1444 24.016 44.4288 24.0931 44.7842 24.2352C45.0186 24.329 45.1891 24.5075 45.3473 24.6462C45.5814 24.8172 45.7412 24.9232 45.8896 25.0546C45.9347 25.0996 45.9909 25.1592 46.0184 25.1696" stroke="#191919" stroke-width="0.6" stroke-linecap="round"/>
<path d="M36.4082 23.8903C36.4279 23.8836 36.9752 24.0001 37.9772 24.2445C38.8295 24.4524 39.2966 24.6384 39.5624 24.696C40.3445 24.8653 40.6798 25.019 40.9562 25.1108C41.1978 25.191 41.4845 25.2724 41.9065 25.4753C42.4164 25.7203 42.6558 25.7961 43.0473 25.996C43.3195 26.1351 43.702 26.3127 43.9892 26.4266C44.2041 26.5119 44.493 26.6556 44.6761 26.7534C44.7657 26.7909 44.8563 26.8276 44.9474 26.8657C44.9956 26.8841 45.048 26.9005 45.1519 26.9171" stroke="#191919" stroke-width="0.6" stroke-linecap="round"/>
<defs>
<filter id="filter0_d_17060_366" x="2.06836" y="1.41321" width="57.1833" height="58.9725" filterUnits="userSpaceOnUse" color-interpolation-filters="sRGB">
<feFlood flood-opacity="0" result="BackgroundImageFix"/>
<feColorMatrix in="SourceAlpha" type="matrix" values="0 0 0 0 0 0 0 0 0 0 0 0 0 0 0 0 0 0 127 0" result="hardAlpha"/>
<feOffset dx="1.43718" dy="1.91625"/>
<feComposite in2="hardAlpha" operator="out"/>
<feColorMatrix type="matrix" values="0 0 0 0 0.0980392 0 0 0 0 0.0980392 0 0 0 0 0.0980392 0 0 0 1 0"/>
<feBlend mode="normal" in2="BackgroundImageFix" result="effect1_dropShadow_17060_366"/>
<feBlend mode="normal" in="SourceGraphic" in2="effect1_dropShadow_17060_366" result="shape"/>
</filter>
</defs>
</svg>
