<svg width="1273" height="1676" viewBox="0 0 1273 1676" fill="none" xmlns="http://www.w3.org/2000/svg">
<path d="M416.31 1601.96C569.643 1627.4 863.989 1622.21 814.709 1397.94C760.078 1149.31 40.5528 988.122 207.7 879.642C350.499 786.964 781.553 1130.04 1006.11 947.505C1246.5 752.093 416.933 175.522 405.359 138.091" stroke="#2260A1" stroke-width="91"/>
<path d="M440.866 1586.54C594.199 1611.98 888.545 1606.79 839.265 1382.51C784.634 1133.88 65.1094 972.695 232.257 864.214C375.055 771.536 806.11 1114.62 1030.66 932.078C1271.05 736.665 441.49 160.095 429.915 122.664" stroke="#EF7D25" stroke-width="61"/>
<path d="M471.839 1578.24C625.172 1603.68 919.518 1598.49 870.238 1374.21C815.607 1125.58 96.0821 964.396 263.23 855.915C406.028 763.237 837.083 1106.32 1061.64 923.779C1302.03 728.366 472.463 151.795 460.888 114.364" stroke="#F4B63E" stroke-width="31"/>
</svg>
