<svg width="1231" height="1362" viewBox="0 0 1231 1362" fill="none" xmlns="http://www.w3.org/2000/svg">
<path d="M328.895 1287.8C482.227 1313.24 776.573 1308.05 727.293 1083.77C672.662 835.144 -46.8625 673.959 120.285 565.478C263.083 472.8 694.138 815.879 918.69 633.342C1159.08 437.929 742.29 100.417 730.716 62.9865" stroke="#2260A1" stroke-width="91"/>
<path d="M353.451 1272.37C506.784 1297.81 801.13 1292.62 751.85 1068.35C697.219 819.717 -22.3059 658.531 144.842 550.051C287.64 457.373 718.695 800.452 943.247 617.915C1183.64 422.502 766.847 84.9901 755.272 47.5592" stroke="#EF7D25" stroke-width="61"/>
<path d="M384.424 1264.07C537.757 1289.51 832.103 1284.32 782.823 1060.05C728.192 811.418 8.66677 650.232 175.814 541.751C318.613 449.074 749.667 792.153 974.22 609.615C1214.61 414.202 797.819 76.6908 786.245 39.2599" stroke="#F4B63E" stroke-width="31"/>
</svg>
