<svg width="1420" height="1710" viewBox="0 0 1420 1710" fill="none" xmlns="http://www.w3.org/2000/svg">
<path d="M1131.04 220.089C1140.62 258.936 1347.7 973.045 1040.19 1010.63C752.941 1045.74 570.45 525.926 400.231 528.437C200.989 531.376 724.508 1050.63 638.504 1290.22C560.923 1506.35 192.617 1251.05 192.617 1251.05C130.936 1209.51 18.6718 1159.82 63.0718 1293.42C118.572 1460.42 263.069 1486.42 266.569 1486.42" stroke="#2260A1" stroke-width="91"/>
<path d="M1155.05 222.526C1165.11 264.936 1371.71 975.482 1064.2 1013.07C776.951 1048.18 594.459 528.362 424.241 530.873C224.998 533.813 748.517 1053.07 662.513 1292.66C584.933 1508.78 216.627 1253.48 216.627 1253.48C154.945 1211.94 42.6816 1162.26 87.0816 1295.86C142.582 1462.86 287.079 1488.86 290.579 1488.86" stroke="#EF7D25" stroke-width="61"/>
<path d="M1184.04 236.526C1188.61 270.936 1400.71 989.482 1093.2 1027.07C805.951 1062.18 623.459 542.362 453.241 544.873C253.998 547.813 777.517 1067.07 691.513 1306.66C613.933 1522.78 245.627 1267.48 245.627 1267.48C183.945 1225.94 71.6816 1176.26 116.082 1309.86C171.582 1476.86 316.079 1502.86 319.579 1502.86" stroke="#6FC4AB" stroke-width="31"/>
</svg>
