<svg width="1197" height="1259" viewBox="0 0 1197 1259" fill="none" xmlns="http://www.w3.org/2000/svg">
<path d="M111.259 1059.12C300.926 1145.29 683.759 1240.72 697.759 933.124C713.278 592.124 -162.242 133.624 91.7593 51.1243C308.759 -19.3577 701.5 599.124 1055.5 440.624C1434.47 270.944 410 113.124 408 60.6243" stroke="#F4B63E" stroke-width="91"/>
<path d="M122.259 1094.12C311.926 1180.29 694.759 1275.72 708.759 968.124C724.278 627.124 -151.242 168.624 102.759 86.1243C319.759 15.6423 712.5 634.124 1066.5 475.624C1445.47 305.944 421 148.124 419 95.6243" stroke="#EF7D25" stroke-width="91"/>
<path d="M122.259 1128.12C311.926 1214.29 694.759 1309.72 708.759 1002.12C724.278 661.124 -151.242 202.624 102.759 120.124C319.759 49.6423 712.5 668.124 1066.5 509.624C1445.47 339.944 421 182.124 419 129.624" stroke="#2260A1" stroke-width="91"/>
</svg>
