<svg width="1164" height="1282" viewBox="0 0 1164 1282" fill="none" xmlns="http://www.w3.org/2000/svg">
<path d="M58.1249 1073.99C188.23 1159.03 459.743 1272.81 504.955 1047.68C555.076 798.103 -38.611 360.802 158.07 328.82C326.1 301.497 582.492 789.118 861.541 712.468C1160.27 630.411 914.694 153.629 919.174 114.707" stroke="#2260A1" stroke-width="91"/>
<path d="M120.523 1083.59C250.628 1168.63 522.141 1282.41 567.353 1057.28C617.475 807.705 23.7874 370.404 220.468 338.422C388.498 311.098 644.89 798.72 923.939 722.069C1222.67 640.012 977.093 163.231 981.572 124.308" stroke="#2DAA96" stroke-width="61"/>
<path d="M152.215 1088.47C282.32 1173.5 553.832 1287.29 599.045 1062.16C649.166 812.582 55.4788 375.281 252.16 343.299C420.19 315.976 676.581 803.597 955.631 726.947C1254.36 644.89 1008.78 168.108 1013.26 129.186" stroke="#EF7D25" stroke-width="31"/>
</svg>
