<svg width="782" height="243" viewBox="0 0 782 243" fill="none" xmlns="http://www.w3.org/2000/svg">
<path d="M-102.498 234.024C-130.141 195.804 -198.153 118.273 -10.8569 94.8356C223.263 65.5385 293.165 211.253 461.495 140.323C629.825 69.3934 770.399 -67.0693 874.224 160.626" stroke="black" stroke-width="28.0548"/>
<path d="M-102.498 234.024C-130.141 195.804 -198.153 118.273 -10.8569 94.8356C223.263 65.5385 293.165 211.253 461.495 140.323C629.825 69.3934 770.399 -67.0693 874.224 160.626" stroke="#928FC8" stroke-width="28.0548"/>
<path d="M-97.3569 223.745C-125 185.524 -193.012 107.994 -5.71632 84.5563C228.403 55.2592 298.306 200.974 466.635 130.044C634.965 59.1141 775.54 -77.3486 879.364 150.346" stroke="black" stroke-width="28.0548"/>
<path d="M-97.3569 223.745C-125 185.524 -193.012 107.994 -5.71632 84.5563C228.403 55.2592 298.306 200.974 466.635 130.044C634.965 59.1141 775.54 -77.3486 879.364 150.346" stroke="#EF7D25" stroke-width="28.0548"/>
<path d="M-87.0776 213.465C-114.721 175.244 -182.733 97.7137 4.56297 74.2761C238.683 44.979 308.585 190.693 476.915 119.764C645.244 48.8339 785.819 -87.6289 889.644 140.066" stroke="black" stroke-width="28.0548"/>
<path d="M-87.0776 213.465C-114.721 175.244 -182.733 97.7137 4.56297 74.2761C238.683 44.979 308.585 190.693 476.915 119.764C645.244 48.8339 785.819 -87.6289 889.644 140.066" stroke="#2260A1" stroke-width="28.0548"/>
</svg>
