<svg width="701" height="273" viewBox="0 0 701 273" fill="none" xmlns="http://www.w3.org/2000/svg">
<g opacity="0.5">
<path d="M343.811 552.727C204.372 490.337 -54.5953 319.047 10.2324 138.442C55.3367 24.5718 173.177 29.3229 262.917 86.8676C296.175 108.091 326.619 134.785 347.562 168.199C348.406 169.575 347.968 171.387 346.592 172.231C345.53 172.888 344.186 172.763 343.248 172.013C328.307 160.354 312.678 150.258 296.55 141.318C244.881 112.936 159.361 79.8347 104.379 110.029C79.6549 123.908 65.0577 153.321 60.2129 180.827C48.5851 260.815 124.728 345.71 177.272 399.628C229.971 452.703 288.391 500.34 346.999 547.538C348.312 548.601 348.531 550.539 347.468 551.852C346.561 552.977 345.061 553.29 343.811 552.727Z" fill="#79C3AB"/>
<path d="M342.777 168.23C396.102 69.4567 525.976 -58.886 639.877 29.7286C682.669 64.0491 703.549 105.246 699.829 160.634C692.265 247.936 628 324.704 568.923 384.249C502.345 449.515 426.89 504.809 347.215 552.539C345.777 553.383 343.933 552.914 343.058 551.476C342.339 550.257 342.558 548.725 343.527 547.788C372.627 518.718 402.165 490.649 430.828 461.924C486.998 405.379 542.698 347.209 587.615 281.319C615.934 238.09 646.379 185.484 638.533 133.19C635.751 117.812 629.406 104.309 620.623 91.1805C571.08 21.9455 497.813 52.984 439.205 93.5873C406.948 116.093 376.597 143.005 347.965 172.012C345.527 174.7 340.932 171.512 342.745 168.23H342.777Z" fill="#79C3AB"/>
<path d="M345.441 235.649C345.441 235.649 423.647 141.752 470.689 189.919C558.053 279.378 345.441 425.068 345.441 425.068C345.441 425.068 133.579 278.94 220.912 189.919C268.235 141.658 345.441 235.649 345.441 235.649Z" fill="#79C3AB"/>
</g>
</svg>
