<?xml version="1.0" encoding="UTF-8"?><svg id="Camada_2" xmlns="http://www.w3.org/2000/svg" viewBox="0 0 1262.35 610.23"><defs><style>.cls-1{fill:#f58232;}.cls-2{fill:none;stroke:#f4b63e;stroke-width:5.15px;}.cls-3{fill:#f4b63e;}.cls-4{fill:#0f75b8;}</style></defs><g id="Layer_8"><path class="cls-3" d="M64.74,86.01c32.1,10.54,63.01,29.38,88.63,49.83,34.72,28.58,61.84,58.76,82.31,96.91,6.5,12.2,12.15,25.01,17.9,37.81,9.71,21.04,20.69,46.1,40.29,59.26,20.24,11.28,43.83,18.62,67.18,17.84,47.91-1.82,79.73-41.56,123.83-54.36,6.68-2.04,13.84-3.53,20.8-4.49,33.05-3.92,64.75,8.24,83.14,34.02,10.88,14.92,16.09,32.91,23.46,49.54,7.33,17.19,19.03,34.21,38.1,36.75,9.33,1.01,18.83-1.29,26.36-6.8,12.87-8.9,24.68-19.92,34.98-31.86,26.54-30.58,45.68-69.21,73.24-98.58,19.54-20.93,43.6-36.81,70.64-45.99,31.11-10.63,64.94-11.22,97.26-16.19,29.04-4.18,57.15-13.08,82.17-27.72,16.24-9.06,30.67-20.82,42.76-34.9,7.19-8.37,14.29-16.86,20.03-26.32,11.79-19.08,14.3-44.2,22.03-63.93,10.22-25.86,27.85-41.33,54.22-51.16,5.76-2.13,12-4.27,18.11-5.66,0,0,9.9,2.83,9.9,2.83,12.09,16.47,16.22,39.84,12.12,59.1-3.49,16.78-12.26,31.24-24.18,43.14-17.63,17.42-42.41,27.13-61.37,42.72-6.19,4.89-11.67,10.36-17.42,15.55-8.28,7.74-17.25,15.94-24.89,24.16-10.69,11.36-20.19,23.79-29.32,36.52-15.74,21.35-29.58,45.24-42.3,69.3-13.19,24.91-26.96,51.25-44.68,72.71-23.82,28.95-55.58,49.23-91.56,58.55-38.04,10.02-77.82,5.49-116.8,2.67-24.8-1.86-49.73-2.48-74.08,1.82-4.49.98-9.09,1.87-13.66,2.22-8.9.86-17.8.13-26.45-1.29-12.41-2.07-25.42-3.85-38.23-4.65-17.81-1.09-38.01-.13-56.19.73-5.94.18-29.17,1.45-34.77,2.01-14.19,1.39-5.43,5.42,4.23,4.06.08,0,.49-.07.26-.04l-.66.06-2.64.24c-1.75.12-3.55.24-5.37.32-3.66.13-7.4.17-11.13.02-33.42-.85-67.17-14.97-98.34-26.72-23.23-8.84-47.31-15.83-71.39-19.12-11.71-1.83-36-5.41-47.78-7.12-9-1.22-18.17-2.77-26.92-5.06-43.06-11.51-86.38-29.65-121.15-57.21-57.3-46.3-90.42-124.42-86.05-197.9.82-9.65,1.72-19.12,4.31-28.72,0,0,9.06-4.89,9.06-4.89h0Z"/><path class="cls-1" d="M1145.12,211.35s3.48.33,3.48.33c.35.02.62.04.69.07,0,0,.41.06.41.06.58.04,1,.14,1.53.24.13.01.11.05.17.08.09.05.17.1.26.14.02.37-.42.46-.66.61-5.63,2.08-10.54,3.1-17.23,4.87-9.71,2.45-20.79,4.98-32.57,7.48-2.94.68-5.93,1.3-9.16,1.55-14.49,1.61-29.74-1.89-44.35-1.78-19.36-.08-30.48,7.93-42.26,22.34-23.65,29.3-24.22,72.98-52.64,99.25-5.07,4.92-10.68,9.24-16.75,12.89-14.13,9.2-29.42,15.9-46.21,20.72-27.5,7.9-55.53,12.27-81.95,22.85-24.26,10.12-47.94,21.01-71.32,33.06-23.75,12.34-46.99,26.24-71.71,37.43-14.06,6.25-34.69,15.98-48.66,22.36-24.84,11.41-49.16,22.43-75.68,30.54-49.66,15.94-105.55,14.83-152.48-9-38.19-19.17-53.69-62.47-75.68-96.86-22.74-36.76-56.53-58.04-100.61-55.07-34.32,2.32-69.3,17.45-103.38,22.35-14.44,2.21-32.69,3.37-44.86,2.19-3.63-.4-6.66-.98-8.6-2.06-.97-.54-1.66-1.19-1.98-2.1-.33-.92-.27-2.01.14-3.77,0,0-36.74-163.14-36.74-163.14,44.17-20.06,96.77-10.53,134.71,15.39,19.58,13.22,35.26,31.41,49.73,49.95,9.76,12.55,19.16,24.87,29.13,35.19,23.89,25.28,55.14,39.27,89.81,38.09,22.86-.48,46.17-6.2,68.82-10.16,24.99-4.37,47.36-6.26,70.59-.32,22.09,6.41,41.44,16.74,61.26,29.37,20.16,12.93,39.86,26.88,61.74,36.98,29.92,14.18,59.07,18.3,91.82,16.4,18.95-.94,38.04-3.53,56.14-9.34,18.16-5.73,35.14-14.7,50.77-25.51,16.28-10.79,29.85-25,40.21-41.67,17.41-27.59,27.99-60.3,51.22-83.34,28.06-28.38,62.55-27.06,99.01-35.44,10.29-2.55,19.62-5.79,28.67-10.71,8.92-4.62,16.86-10.67,22.07-19.51,8.14-13.25,11.87-29.97,19.63-43.32,3.79-6.66,8.44-12.47,14-17.52,18.61-17.56,42.35-32.65,68.68-38.12,7.78-1.6,15.84-2.29,23.79-1.97,0,0,2.31.12,2.31.12,1.65.13,2.23.13,4.69.38,0,0-10.01,107.43-10.01,107.43h0Z"/><path class="cls-4" d="M0,399.64c2.89-1.91,7.93-4.55,11.05-6.28,69.7-36.41,156.02-67.32,232.91-34.9,6.9,2.89,13.91,6.64,20.4,10.39,24.25,13.81,47.98,27.66,72.74,38.66,30.59,13.55,62.89,23.17,96.02,27.23,18.23,1.85,36.74,1.3,54.89-1.18,7.6-1,17.15-2.65,24.75-4.05,3.34-.68,11.45-2.35,14.66-2.93,20.45-4.36,41.04-8.4,61.86-10.1,15.59-1.31,31.61-1.68,47.23-.52,7.95.73,16.09,1.39,23.86,3.44,17.74,5.01,34.62,13.93,51.96,20.89,22.46,9.34,47.28,14.32,70.36,7.04,43.86-15.14,80.43-45.56,110.15-80.78,23.05-27,43.28-56.84,67.49-83.64,71.32-79.8,150.43-91.41,251.94-99.11,16.66-1.29,33.21-2.18,50.07-3.92,0,0-46.35,184.47-46.35,184.47-9.93-8.42-20.38-15.21-30.94-21.12-39.72-22.37-83.16-30.09-127.72-20.09-23.67,5.47-44.64,15.6-65.84,28.59-62.28,39.48-116.38,94.01-184.29,126.03-10.1,4.79-19.63,9.99-29.17,16.15-30.37,19.31-59.09,48.29-92.95,63.45-24.57,11.57-52.12,13.78-78.97,12.7-30.78-1.27-61.13-9.02-89.41-21.11-28.53-12.02-56.15-27.8-83.14-42.34-13.33-7.12-26.43-14.12-39.46-20.82-50.57-26.66-98.25-56.63-148.74-81.42,0,0-4.57-2.3-4.57-2.3l-1.14-.58c-.4-.2-.68-.32-1.03-.49-48.36-23.94-104.94-6.1-148.01,22.51-13.05,8.71-25.52,18.56-36.57,29.67-1.97,2-3.86,3.94-5.53,6.13C48.79,459.66,0,399.6,0,399.64H0Z"/><path class="cls-2" d="M1183.23,148.64c-213.66-18.42-407.07,769.84-833.49,320.24-106.98-112.8-183.62-119.98-237.95-91.51-50.26,26.34-64.52,38.61-103.72,85.55"/></g></svg>