<svg width="1920" height="542" viewBox="0 0 1920 542" fill="none" xmlns="http://www.w3.org/2000/svg">
<path d="M-177.178 8.39594C-148.497 161.156 -42.6904 435.876 151.091 312.68C365.913 176.108 863.318 -37.5418 1022.54 82.2744C1158.56 184.636 1154.07 268.579 1402.54 416.926C1668.53 575.736 2022.95 79.733 2054.14 56.0253" stroke="#2260A1" stroke-width="91"/>
<path d="M-140.918 60.0771C-112.237 212.837 -6.43059 487.558 187.35 364.362C402.172 227.789 899.579 14.1394 1058.8 133.956C1194.82 236.318 1190.33 320.26 1438.8 468.607C1704.79 627.418 2059.21 131.414 2090.4 107.707" stroke="#F7A73C" stroke-width="61"/>
<path d="M-122.502 86.3262C-93.8213 239.086 11.9854 513.807 205.766 390.611C420.588 254.038 917.993 40.3885 1077.21 160.205C1213.24 262.567 1208.74 346.509 1457.21 494.856C1723.21 653.667 2077.62 157.663 2108.81 133.956" stroke="#EF7D25" stroke-width="31"/>
</svg>
