<svg width="1920" height="938" viewBox="0 0 1920 938" fill="none" xmlns="http://www.w3.org/2000/svg">
<path d="M-78.5566 14.2401C-196.725 233.356 -332.922 684.119 67.6428 734.245C568.348 796.902 717.847 485.266 1077.85 636.962C1437.85 788.657 1738.49 1080.51 1960.54 593.542" stroke="black" stroke-width="60"/>
<path d="M-78.5566 14.2401C-196.725 233.356 -332.922 684.119 67.6428 734.245C568.348 796.902 717.847 485.266 1077.85 636.962C1437.85 788.657 1738.49 1080.51 1960.54 593.542" stroke="#928FC8" stroke-width="60"/>
<path d="M-67.5645 36.225C-185.733 255.341 -321.929 706.104 78.635 756.23C579.34 818.887 728.839 507.251 1088.84 658.947C1448.84 810.642 1749.49 1102.49 1971.53 615.526" stroke="black" stroke-width="60"/>
<path d="M-67.5645 36.225C-185.733 255.341 -321.929 706.104 78.635 756.23C579.34 818.887 728.839 507.251 1088.84 658.947C1448.84 810.642 1749.49 1102.49 1971.53 615.526" stroke="#EF7D25" stroke-width="60"/>
<path d="M-45.5801 58.2098C-163.749 277.326 -299.945 728.089 100.619 778.215C601.325 840.871 750.824 529.236 1110.83 680.931C1470.83 832.627 1771.47 1124.48 1993.52 637.511" stroke="black" stroke-width="60"/>
<path d="M-45.5801 58.2098C-163.749 277.326 -299.945 728.089 100.619 778.215C601.325 840.871 750.824 529.236 1110.83 680.931C1470.83 832.627 1771.47 1124.48 1993.52 637.511" stroke="#2260A1" stroke-width="60"/>
</svg>
