<svg width="1384" height="1541" viewBox="0 0 1384 1541" fill="none" xmlns="http://www.w3.org/2000/svg">
<path d="M1184.43 253.153C1174.32 291.005 1347.69 798.519 1040.19 836.105C752.939 871.215 570.448 351.399 400.229 353.91C200.987 356.849 724.506 876.103 638.502 1115.69C560.921 1331.82 192.615 1076.52 192.615 1076.52C130.934 1034.98 18.6699 985.298 63.0699 1118.9C118.57 1285.9 263.067 1311.9 266.567 1311.9" stroke="#2260A1" stroke-width="91"/>
<path d="M1208.44 255.589C1198.33 293.442 1371.71 800.955 1064.2 838.541C776.951 873.651 594.459 353.836 424.241 356.347C224.998 359.286 748.517 878.54 662.513 1118.13C584.933 1334.25 216.627 1078.96 216.627 1078.96C154.945 1037.42 42.6816 987.734 87.0816 1121.33C142.582 1288.33 287.079 1314.33 290.579 1314.33" stroke="#EF7D25" stroke-width="61"/>
<path d="M1237.44 269.589C1227.33 307.442 1400.71 814.955 1093.2 852.541C805.951 887.651 623.459 367.836 453.241 370.347C253.998 373.286 777.517 892.54 691.513 1132.13C613.933 1348.25 245.627 1092.96 245.627 1092.96C183.945 1051.42 71.6816 1001.73 116.082 1135.33C171.582 1302.33 316.079 1328.33 319.579 1328.33" stroke="#6FC4AB" stroke-width="31"/>
</svg>
