<svg width="20" height="14" viewBox="0 0 20 14" fill="none" xmlns="http://www.w3.org/2000/svg">
<g clip-path="url(#clip0_16929_3008)">
<path d="M15.9999 11.2123C14.8145 11.2123 14.2026 11.6775 13.6629 12.0879C13.1888 12.4482 12.8143 12.7329 11.9996 12.7329C11.1852 12.7329 10.8107 12.4482 10.3368 12.0879C9.79707 11.6773 9.1852 11.2123 7.99973 11.2123C6.81441 11.2123 6.20254 11.6775 5.66285 12.0879C5.18891 12.4482 4.81445 12.7329 3.99996 12.7329C3.18543 12.7329 2.81098 12.4482 2.33707 12.0879C1.79715 11.6775 1.18527 11.2123 0 11.2123V12.4794C0.814648 12.4794 1.18895 12.7641 1.66289 13.1246C2.20273 13.5349 2.81445 14 3.99992 14C5.18523 14 5.79711 13.5349 6.33684 13.1246C6.81074 12.7641 7.1852 12.4794 7.99973 12.4794C8.81437 12.4794 9.18867 12.7641 9.66277 13.1246C10.2025 13.5349 10.8143 14 11.9996 14C13.1851 14 13.797 13.5349 14.3368 13.1246C14.8108 12.7642 15.1853 12.4794 15.9999 12.4794C16.8146 12.4794 17.1889 12.7641 17.663 13.1246C18.2027 13.5349 18.8145 14 20 14V12.7328C19.1854 12.7328 18.8109 12.4482 18.337 12.0878C17.7971 11.6775 17.1852 11.2122 15.9999 11.2122V11.2123ZM15.9999 3.73746C14.8145 3.73746 14.2026 4.20259 13.6629 4.61294C13.1888 4.97328 12.8143 5.25805 11.9996 5.25805C11.1852 5.25805 10.8107 4.97328 10.3368 4.61294C9.79707 4.20259 9.1852 3.73746 7.99973 3.73746C6.81441 3.73746 6.20254 4.20259 5.66285 4.61294C5.18891 4.97328 4.81445 5.25805 3.99996 5.25805C3.18543 5.25805 2.81098 4.97328 2.33707 4.61294C1.79715 4.20259 1.18527 3.73746 0 3.73746V5.00462C0.814648 5.00462 1.18895 5.28927 1.66289 5.64961C2.20273 6.06012 2.81445 6.52521 3.99992 6.52521C5.18523 6.52521 5.79711 6.05995 6.33684 5.64961C6.81074 5.28927 7.1852 5.00462 7.99973 5.00462C8.81437 5.00462 9.18867 5.28927 9.66277 5.64961C10.2025 6.06012 10.8143 6.52521 11.9996 6.52521C13.1851 6.52521 13.797 6.05995 14.3368 5.64961C14.8108 5.28927 15.1853 5.00462 15.9999 5.00462C16.8146 5.00462 17.1889 5.28927 17.663 5.64961C18.2027 6.06012 18.8145 6.52521 20 6.52521V5.25805C19.1854 5.25805 18.8109 4.97328 18.337 4.61294C17.7971 4.20259 17.1852 3.73746 15.9999 3.73746ZM15.9999 7.47495C14.8145 7.47495 14.2026 7.94005 13.6629 8.3504C13.1888 8.71078 12.8143 8.99555 11.9996 8.99555C11.1852 8.99555 10.8107 8.71078 10.3368 8.3504C9.79707 7.94005 9.1852 7.47495 7.99973 7.47495C6.81441 7.47495 6.20254 7.94005 5.66285 8.3504C5.18891 8.71078 4.81445 8.99555 3.99996 8.99555C3.18543 8.99555 2.81098 8.71078 2.33707 8.3504C1.79715 7.94005 1.18527 7.475 0 7.475V8.74216C0.814648 8.74216 1.18895 9.02676 1.66289 9.38715C2.20273 9.79745 2.81445 10.2628 3.99992 10.2628C5.18523 10.2628 5.79711 9.79745 6.33684 9.38715C6.81074 9.02676 7.1852 8.74216 7.99973 8.74216C8.81437 8.74216 9.18867 9.02676 9.66277 9.38715C10.2025 9.79745 10.8143 10.2628 11.9996 10.2628C13.1851 10.2628 13.797 9.79745 14.3368 9.38715C14.8108 9.02676 15.1853 8.74216 15.9999 8.74216C16.8146 8.74216 17.1889 9.02676 17.663 9.38715C18.2027 9.79745 18.8145 10.2628 20 10.2628V8.99559C19.1854 8.99559 18.8109 8.71082 18.337 8.35044C17.7971 7.94009 17.1852 7.475 15.9999 7.475V7.47495ZM18.337 0.87561C17.7971 0.465133 17.1852 0 15.9999 0C14.8145 0 14.2026 0.465133 13.6629 0.87561C13.1888 1.23599 12.8143 1.5206 11.9996 1.5206C11.1851 1.5206 10.8107 1.23599 10.3367 0.87561C9.79707 0.465133 9.1852 0 7.99973 0C6.81441 0 6.20254 0.465133 5.66285 0.87561C5.18891 1.23599 4.81445 1.5206 3.99996 1.5206C3.18543 1.5206 2.81098 1.23599 2.33707 0.87561C1.79715 0.465133 1.18527 0 0 0V1.26716C0.814648 1.26716 1.18895 1.55177 1.66289 1.91215C2.20273 2.32263 2.81445 2.78776 3.99992 2.78776C5.18523 2.78776 5.79711 2.32263 6.33684 1.91215C6.81074 1.55177 7.18516 1.26716 7.99973 1.26716C8.81437 1.26716 9.18867 1.55177 9.66277 1.91215C10.2025 2.32263 10.8143 2.78776 11.9996 2.78776C13.1851 2.78776 13.797 2.32263 14.3368 1.91215C14.8108 1.55177 15.1853 1.26716 15.9999 1.26716C16.8146 1.26716 17.1889 1.55177 17.663 1.91215C18.2027 2.32263 18.8145 2.78776 20 2.78776V1.5206C19.1854 1.5206 18.8109 1.23599 18.337 0.87561Z" fill="black"/>
</g>
<defs>
<clipPath id="clip0_16929_3008">
<rect width="20" height="14" fill="white"/>
</clipPath>
</defs>
</svg>
