<svg width="20" height="16" viewBox="0 0 20 16" fill="none" xmlns="http://www.w3.org/2000/svg">
<path d="M5.39445 15.54C5.99406 16.1533 6.9674 16.1533 7.56701 15.54L15.0047 7.93184C15.2182 7.71339 15.3825 7.45292 15.4893 7.17565C16.2367 7.3899 16.9637 7.50333 17.6043 7.49913C19.1896 7.49073 19.7153 6.78075 19.8878 6.35644C20.0603 5.93633 20.1835 5.05411 19.0705 3.89461L19.0336 3.8568C18.3436 3.15102 17.3415 2.49986 16.2039 2.01673C15.9944 1.92851 15.785 1.84869 15.5796 1.77307V1.76047C15.5673 0.827829 14.8322 0.0758369 13.9204 0.0632336L9.46441 0.000217556C8.87302 -0.00818459 8.30626 0.227075 7.89146 0.655585L0.449709 8.26373C-0.149903 8.87708 -0.149903 9.87274 0.449709 10.4861L5.39445 15.54ZM11.1277 2.72251C11.6247 2.21418 12.4296 2.21418 12.9266 2.72251C13.2223 3.02499 13.3414 3.4409 13.2839 3.8316C13.7726 4.18449 14.3558 4.51217 14.98 4.77684C15.2018 4.86926 15.4154 4.95328 15.6207 5.0247L15.5961 3.19303C15.633 3.20984 15.6659 3.22244 15.7028 3.23924C16.6762 3.65515 17.551 4.21809 18.1136 4.79364L18.1382 4.81885C18.6721 5.37759 18.7296 5.73468 18.6845 5.84391C18.5448 6.1842 17.0458 6.48667 14.7706 5.51623C14.1052 5.23055 13.481 4.87766 12.9758 4.49536C12.9594 4.51637 12.9389 4.53738 12.9224 4.55838C12.4255 5.06671 11.6206 5.06671 11.1236 4.55838C10.6308 4.05425 10.6308 3.23084 11.1277 2.72251Z" fill="#191919"/>
</svg>
