<svg width="20" height="20" viewBox="0 0 20 20" fill="none" xmlns="http://www.w3.org/2000/svg">
<g clip-path="url(#clip0_16929_2994)">
<path d="M5.07812 6.93359V8.10547C5.07812 8.26562 5.21094 8.39844 5.37109 8.39844H8.10547C8.26562 8.39844 8.39844 8.26562 8.39844 8.10547V5.66406H9.27734C10.0859 5.66406 10.7422 5.00781 10.7422 4.19922V4.15625C10.7187 3.37109 10.0508 2.73438 9.25391 2.73438H8.39844V0.292969C8.39844 0.132813 8.26562 0 8.10547 0H1.07422C0.480469 0 0 0.480469 0 1.07422V8.10547C0 8.26562 0.132813 8.39844 0.292969 8.39844H3.02734C3.1875 8.39844 3.32031 8.26562 3.32031 8.10547V6.93359C3.32031 6.44922 3.71484 6.05469 4.19922 6.05469C4.68359 6.05469 5.07812 6.44922 5.07812 6.93359ZM18.9258 3.78906H12.1875V6.52344H13.0664C13.8008 6.52344 14.4219 7.06641 14.5195 7.79688C14.5391 7.96094 14.5352 8.125 14.5039 8.28516C14.3633 8.96484 13.7656 9.45312 13.0703 9.45312H12.1875V11.6016H14.6289C14.7891 11.6016 14.9219 11.7344 14.9219 11.8945V13.0664C14.9219 13.5508 15.3164 13.9453 15.8008 13.9453C16.2852 13.9453 16.6797 13.5508 16.6797 13.0664V11.8945C16.6797 11.7344 16.8125 11.6016 16.9727 11.6016H20V4.86328C20 4.26953 19.5195 3.78906 18.9258 3.78906ZM9.25781 15.8008C9.25781 14.9922 9.91406 14.3359 10.7227 14.3359H11.6016V12.1875H9.16016C9 12.1875 8.86719 12.0547 8.86719 11.8945V10.7227C8.86719 10.2383 8.47266 9.84375 7.98828 9.84375C7.50391 9.84375 7.10938 10.2383 7.10938 10.7227V11.8945C7.10938 12.0547 6.97656 12.1875 6.81641 12.1875H3.78906V18.9258C3.78906 19.5195 4.26953 20 4.86328 20H11.6016V17.2656H10.7227C9.91406 17.2656 9.25781 16.6094 9.25781 15.8008Z" fill="#191919"/>
<path d="M17.2656 13.0664C17.2656 13.875 16.6094 14.5312 15.8008 14.5312C14.9922 14.5312 14.3359 13.875 14.3359 13.0664V12.1875H12.1875V14.6289C12.1875 14.7891 12.0547 14.9219 11.8945 14.9219H10.7227C10.2383 14.9219 9.84375 15.3164 9.84375 15.8008C9.84375 16.2852 10.2383 16.6797 10.7227 16.6797H11.8945C12.0547 16.6797 12.1875 16.8125 12.1875 16.9727V20H18.9258C19.5195 20 20 19.5195 20 18.9258V12.1875H17.2656V13.0664Z" fill="#191919"/>
</g>
<defs>
<clipPath id="clip0_16929_2994">
<rect width="20" height="20" fill="white"/>
</clipPath>
</defs>
</svg>
