<svg width="20" height="20" viewBox="0 0 20 20" fill="none" xmlns="http://www.w3.org/2000/svg">
<g clip-path="url(#clip0_16929_2988)">
<path d="M9.21875 8.98438H10.7812V10.5469H9.21875V8.98438Z" fill="#191919"/>
<path d="M17.6562 1.5625H16.7188V0H15.1562V1.5625H4.84375V0H3.28125V1.5625H2.34375C1.05141 1.5625 0 2.61391 0 3.90625V17.6562C0 18.9486 1.05141 20 2.34375 20H10.3813C9.8401 19.5532 9.37032 19.0262 8.98824 18.4375H2.34375C1.91297 18.4375 1.5625 18.087 1.5625 17.6562V7.34375H18.4375V8.98824C19.0262 9.37032 19.5532 9.8401 20 10.3813V3.90625C20 2.61391 18.9486 1.5625 17.6562 1.5625ZM18.4375 5.78125H1.5625V3.90625C1.5625 3.47547 1.91297 3.125 2.34375 3.125H3.28125V4.6875H4.84375V3.125H15.1562V4.6875H16.7188V3.125H17.6562C18.087 3.125 18.4375 3.47547 18.4375 3.90625V5.78125Z" fill="#191919"/>
<path d="M14.7266 9.45312C11.8188 9.45312 9.45312 11.8188 9.45312 14.7266C9.45312 17.6343 11.8188 20 14.7266 20C17.6343 20 20 17.6343 20 14.7266C20 11.8188 17.6343 9.45312 14.7266 9.45312ZM14.7266 18.4375C12.6804 18.4375 11.0156 16.7728 11.0156 14.7266C11.0156 12.6804 12.6804 11.0156 14.7266 11.0156C16.7728 11.0156 18.4375 12.6804 18.4375 14.7266C18.4375 16.7728 16.7728 18.4375 14.7266 18.4375Z" fill="#191919"/>
<path d="M15.4688 12.1094H13.9062V15.5078H16.7969V13.9453H15.4688V12.1094ZM6.09375 12.1094H7.65625V13.6719H6.09375V12.1094ZM2.96875 12.1094H4.53125V13.6719H2.96875V12.1094ZM2.96875 8.98438H4.53125V10.5469H2.96875V8.98438ZM2.96875 15.2344H4.53125V16.7969H2.96875V15.2344ZM6.09375 8.98438H7.65625V10.5469H6.09375V8.98438ZM6.09375 15.2344H7.65625V16.7969H6.09375V15.2344Z" fill="#191919"/>
</g>
<defs>
<clipPath id="clip0_16929_2988">
<rect width="20" height="20" fill="white"/>
</clipPath>
</defs>
</svg>
