<svg width="20" height="20" viewBox="0 0 20 20" fill="none" xmlns="http://www.w3.org/2000/svg">
<g clip-path="url(#clip0_16929_2980)">
<path d="M19.5175 5.08747L17.0813 4.65091C17.1117 4.46466 17.1289 4.28052 17.1289 4.10154C17.1289 1.83995 15.289 0 13.0274 0C11.6977 0 10.514 0.636207 9.76406 1.61999L8.69091 0.884018C8.59334 0.817094 8.47779 0.781279 8.35947 0.781284L5.50781 0.781402C5.18422 0.781402 4.92188 1.04378 4.92191 1.36737L4.92199 2.57827H2.2267C2.0713 2.57827 1.92227 2.64 1.81238 2.74988C1.7025 2.85977 1.64077 3.0088 1.64077 3.1642V5.01353L0.192967 6.32348C0.132249 6.37841 0.0837172 6.44545 0.0505008 6.52029C0.0172843 6.59512 0.000120844 6.67609 0.000117188 6.75797L1.30219e-09 9.7267C-5.12864e-06 9.80365 0.0151467 9.87985 0.0445903 9.95094C0.0740339 10.022 0.117193 10.0866 0.171602 10.141C0.226011 10.1955 0.290606 10.2386 0.361697 10.2681C0.432788 10.2975 0.508984 10.3127 0.585933 10.3127H4.3277L7.0769 13.0619L8.10794 15.7082L7.09698 17.6604C7.05979 17.7321 7.03786 17.8108 7.03256 17.8914C7.02725 17.9721 7.03869 18.0529 7.06615 18.1289C7.09361 18.205 7.1365 18.2745 7.19212 18.3331C7.24775 18.3917 7.3149 18.4382 7.38936 18.4696L10.905 19.9538C11.012 19.999 11.1302 20.0114 11.2443 19.9893C11.3584 19.9672 11.4634 19.9116 11.5458 19.8297L14.6708 16.7244C14.7256 16.6699 14.7691 16.6052 14.7988 16.5339C14.8285 16.4625 14.8438 16.386 14.8438 16.3088V15.2737L16.9531 15.2736C17.0957 15.2736 17.2334 15.2216 17.3404 15.1274C17.4474 15.0331 17.5164 14.9031 17.5344 14.7617L17.7893 12.7586L19.892 9.79221C19.9622 9.69317 20 9.57478 20 9.45338L20 5.66434C20 5.52685 19.9517 5.39373 19.8635 5.28827C19.7753 5.18281 19.6528 5.11173 19.5175 5.08747ZM13.0274 1.17187C14.6428 1.17187 15.957 2.48612 15.957 4.10154C15.957 4.82935 15.4878 5.99614 14.7325 7.14656C13.9486 8.3405 13.2505 8.91905 13.0274 8.98155C12.8042 8.91905 12.1061 8.3405 11.3222 7.14656C10.5669 5.99614 10.0977 4.82939 10.0977 4.10154C10.0977 2.48612 11.4119 1.17187 13.0274 1.17187ZM18.8281 9.26663L16.7486 12.2004C16.6929 12.2788 16.6575 12.3698 16.6453 12.4652L16.4371 14.1017L14.2578 14.1018C13.9342 14.1018 13.6719 14.3641 13.6719 14.6877V16.0649L10.9986 18.7213L8.42896 17.6365L9.27036 16.0117C9.30864 15.9378 9.33074 15.8566 9.33516 15.7734C9.33959 15.6903 9.32624 15.6072 9.29602 15.5296L8.12416 12.5218C8.0947 12.4462 8.04988 12.3776 7.99252 12.3202L4.98473 9.31241C4.87485 9.20252 4.72583 9.14078 4.57043 9.14077H1.1719L1.17198 7.01801L2.61982 5.70805C2.68054 5.65312 2.72907 5.58608 2.76229 5.51124C2.79551 5.43641 2.81267 5.35544 2.81267 5.27356V3.75013H5.50796C5.58491 3.75013 5.66111 3.73498 5.7322 3.70553C5.80329 3.67608 5.86789 3.63292 5.9223 3.5785C5.97671 3.52409 6.01986 3.45949 6.04931 3.3884C6.07875 3.31731 6.0939 3.24111 6.0939 3.16416L6.09386 1.95323L8.17794 1.95311L9.192 2.64858C9.01568 3.11269 8.92551 3.60507 8.92591 4.10154C8.92591 5.56524 10.0615 7.37164 10.4095 7.89046C10.8666 8.57171 12.0365 10.1562 13.0274 10.1562C14.0183 10.1562 15.1883 8.57171 15.6453 7.89046C15.8646 7.56355 16.3964 6.72535 16.76 5.78387L18.8283 6.1545L18.8281 9.26663Z" fill="#191919"/>
<path d="M13.0273 5.85935C13.9966 5.85935 14.7851 5.0708 14.7851 4.10155C14.7851 3.1323 13.9966 2.34375 13.0273 2.34375C12.0581 2.34375 11.2695 3.1323 11.2695 4.10155C11.2695 5.0708 12.0581 5.85935 13.0273 5.85935ZM13.0273 3.51558C13.3504 3.51558 13.6133 3.77843 13.6133 4.10151C13.6133 4.4246 13.3504 4.68745 13.0273 4.68745C12.7042 4.68745 12.4414 4.4246 12.4414 4.10151C12.4414 3.77843 12.7042 3.51558 13.0273 3.51558Z" fill="#191919"/>
</g>
<defs>
<clipPath id="clip0_16929_2980">
<rect width="20" height="20" fill="white"/>
</clipPath>
</defs>
</svg>
