<svg width="20" height="20" viewBox="0 0 20 20" fill="none" xmlns="http://www.w3.org/2000/svg">
<g clip-path="url(#clip0_16929_2977)">
<path d="M11.6467 5.33845C9.22224 4.83021 7.32728 2.93525 6.81912 0.510794C6.78882 0.366378 6.70976 0.236785 6.5952 0.143773C6.48065 0.050761 6.33758 -4.581e-06 6.19002 3.10051e-10C6.04246 4.58162e-06 5.8994 0.0507791 5.78485 0.143798C5.6703 0.236817 5.59124 0.366415 5.56095 0.510833C5.05275 2.93525 3.15779 4.83017 0.733376 5.33833C0.58898 5.36864 0.459408 5.44771 0.366412 5.56225C0.273415 5.6768 0.222656 5.81985 0.222656 5.9674C0.222656 6.11494 0.273415 6.25799 0.366412 6.37254C0.459408 6.48708 0.58898 6.56615 0.733376 6.59646C3.15775 7.1047 5.05263 8.99962 5.56084 11.424C5.59111 11.5685 5.67016 11.6981 5.78471 11.7911C5.89926 11.8841 6.04233 11.9349 6.1899 11.9349C6.33747 11.9349 6.48054 11.8841 6.59509 11.7911C6.70964 11.6981 6.78869 11.5685 6.81896 11.424C7.3272 8.99962 9.2222 7.1047 11.6466 6.59657C11.791 6.5663 11.9207 6.48726 12.0137 6.37271C12.1067 6.25816 12.1575 6.11509 12.1575 5.96753C12.1575 5.81996 12.1067 5.67689 12.0137 5.56234C11.9207 5.44778 11.7911 5.36873 11.6467 5.33845ZM10.5842 15.9564C9.44189 15.717 8.54908 14.8242 8.30959 13.6818C8.27932 13.5374 8.20027 13.4078 8.08572 13.3147C7.97118 13.2217 7.82811 13.1709 7.68054 13.1709C7.53297 13.1709 7.3899 13.2217 7.27535 13.3147C7.1608 13.4077 7.08174 13.5373 7.05146 13.6818C6.81197 14.8241 5.91912 15.7169 4.77685 15.9563C4.63246 15.9867 4.50288 16.0657 4.40989 16.1803C4.31689 16.2948 4.26613 16.4379 4.26613 16.5854C4.26613 16.7329 4.31689 16.876 4.40989 16.9905C4.50288 17.1051 4.63246 17.1842 4.77685 17.2145C5.91908 17.4539 6.81193 18.3468 7.05138 19.4891C7.08166 19.6335 7.16071 19.7631 7.27526 19.8561C7.38981 19.9492 7.53288 19.9999 7.68045 19.9999C7.82801 19.9999 7.97109 19.9492 8.08563 19.8561C8.20018 19.7631 8.27923 19.6335 8.30951 19.4891C8.549 18.3468 9.44185 17.454 10.5842 17.2145C10.7286 17.1842 10.8581 17.1051 10.9511 16.9906C11.0441 16.876 11.0949 16.733 11.0949 16.5854C11.0949 16.4379 11.0441 16.2948 10.9511 16.1803C10.8581 16.0658 10.7286 15.9867 10.5842 15.9564ZM19.2679 10.0052C17.724 9.68158 16.5172 8.47478 16.1936 6.93083C16.1633 6.7864 16.0843 6.65679 15.9697 6.56376C15.8552 6.47073 15.7121 6.41995 15.5645 6.41994C15.417 6.41994 15.2739 6.47071 15.1593 6.56373C15.0448 6.65676 14.9657 6.78637 14.9354 6.93079C14.6118 8.47478 13.405 9.68154 11.861 10.0052C11.7166 10.0355 11.5871 10.1145 11.4941 10.2291C11.4011 10.3436 11.3503 10.4867 11.3503 10.6342C11.3503 10.7818 11.4011 10.9248 11.4941 11.0394C11.5871 11.1539 11.7166 11.233 11.861 11.2633C13.405 11.587 14.6117 12.7937 14.9354 14.3377C14.9656 14.4821 15.0447 14.6117 15.1592 14.7048C15.2738 14.7978 15.4169 14.8486 15.5644 14.8486C15.712 14.8486 15.8551 14.7978 15.9696 14.7048C16.0842 14.6117 16.1632 14.4821 16.1935 14.3377C16.5172 12.7937 17.724 11.587 19.2679 11.2634C19.4123 11.2331 19.5419 11.1541 19.635 11.0395C19.728 10.925 19.7788 10.7819 19.7788 10.6343C19.7788 10.4868 19.728 10.3437 19.635 10.2291C19.542 10.1146 19.4124 10.0355 19.2679 10.0052Z" fill="#191919"/>
</g>
<defs>
<clipPath id="clip0_16929_2977">
<rect width="20" height="20" fill="white"/>
</clipPath>
</defs>
</svg>
