<svg width="20" height="20" viewBox="0 0 20 20" fill="none" xmlns="http://www.w3.org/2000/svg">
<g clip-path="url(#clip0_16929_2998)">
<path d="M18.0074 18.181L19.4625 20.0001H13.5559C10.0969 20.0001 7.3668 17.2938 7.125 14.0329C10.7848 13.7079 13.7094 10.7837 14.034 7.12354C17.3004 7.36494 20.0012 10.1032 20.0012 13.5548C20.0012 15.3071 19.2812 16.9634 18.0074 18.181Z" fill="#191919"/>
<path d="M6.44531 12.8906H0.538711L1.99395 11.0716C0.720117 9.85398 0 8.19773 0 6.44531C0 2.89137 2.89137 0 6.44531 0C9.99926 0 12.8906 2.89137 12.8906 6.44531C12.8906 9.99926 9.99926 12.8906 6.44531 12.8906Z" fill="#191919"/>
</g>
<defs>
<clipPath id="clip0_16929_2998">
<rect width="20" height="20" fill="white"/>
</clipPath>
</defs>
</svg>
