<svg width="20" height="18" viewBox="0 0 20 18" fill="none" xmlns="http://www.w3.org/2000/svg">
<g clip-path="url(#clip0_16929_3002)">
<path d="M9.18754 1.44114V1.90375C9.79145 1.86028 10.1148 1.91235 10.1484 1.91816C10.2441 1.93476 10.3346 1.97591 10.4119 2.03806C10.4893 2.10021 10.5513 2.18147 10.5924 2.27481L11.4411 4.19737C11.5472 4.22332 11.6445 4.27977 11.7225 4.36055C11.8248 4.46659 11.9474 4.54963 12.0863 4.58562C12.3635 4.65745 12.6386 4.57558 12.833 4.37462C13.0337 4.16736 13.3398 4.11467 13.5763 4.2736C13.9144 4.50063 13.9507 4.98168 13.6855 5.26355C13.3114 5.66139 12.8138 5.88053 12.2845 5.88053C12.2505 5.88049 12.2166 5.87957 12.1827 5.87775L13.3236 8.46251C13.3716 8.57112 13.4173 8.68084 13.4608 8.79159C14.7454 8.36099 16.2066 8.68082 17.2276 9.75368C17.4558 9.99337 17.4811 10.3849 17.2678 10.6399C17.2118 10.7071 17.143 10.7609 17.066 10.7978C16.9889 10.8346 16.9054 10.8536 16.8209 10.8535C16.6682 10.8535 16.5153 10.7915 16.3988 10.6676C15.7068 9.93226 14.7134 9.70859 13.8375 9.99549C14.1697 11.4033 14.1475 12.8561 13.8047 14.2185C13.9671 14.2756 14.1314 14.3261 14.2974 14.37C14.4912 14.4213 14.6938 14.4215 14.8876 14.3706C17.8733 13.5856 19.9995 10.7317 19.9995 7.42518V1.44114C19.9995 1.14482 19.8274 0.879176 19.5664 0.774879C18.7442 0.446501 17.1549 0 14.5938 0C12.0323 0 10.443 0.446667 9.62055 0.775086C9.35961 0.879217 9.1875 1.14486 9.1875 1.44118L9.18754 1.44114ZM15.788 4.36619C16.0212 4.11836 16.3992 4.11836 16.6325 4.36619C16.7054 4.44412 16.7921 4.5059 16.8876 4.54797C16.9831 4.59004 17.0856 4.61156 17.189 4.61128C17.2924 4.61158 17.3948 4.59007 17.4904 4.548C17.5859 4.50593 17.6727 4.44414 17.7456 4.36619C17.9788 4.11824 18.3569 4.11824 18.59 4.36619C18.8232 4.61402 18.8232 5.01577 18.59 5.26355C18.2157 5.66139 17.7183 5.88053 17.189 5.88053C16.6598 5.88053 16.1622 5.66139 15.7879 5.26355C15.5549 5.01577 15.5549 4.61402 15.788 4.36619Z" fill="#191919"/>
<path d="M12.2432 9.00179L9.83915 3.5556C9.72852 3.30482 9.48344 3.15385 9.2236 3.17478C8.35551 3.24453 6.72727 3.55053 4.38199 4.72009C2.06308 5.87645 0.802684 6.99827 0.189479 7.66682C-0.00505244 7.87898 -0.0548182 8.19719 0.0635805 8.46544L2.4548 13.8829C3.77605 16.8762 6.84168 18.5002 9.85852 17.8628C10.0535 17.8216 10.2361 17.7305 10.3904 17.5975C12.78 15.539 13.5644 11.9952 12.2432 9.00179ZM7.41192 8.59582C7.78317 7.50369 8.92118 6.93603 9.94868 7.3308C10.2588 7.44984 10.4193 7.81363 10.3073 8.14334C10.1953 8.47288 9.85301 8.64365 9.54282 8.52449C9.13461 8.36779 8.6825 8.59324 8.535 9.02708C8.44711 9.28562 8.21789 9.44634 7.97344 9.44634C7.90423 9.44636 7.83556 9.43352 7.77051 9.4084C7.46043 9.28919 7.29977 8.9254 7.41192 8.59586V8.59582ZM5.10281 10.7386C5.00562 10.701 4.90238 10.6842 4.79905 10.6893C4.69573 10.6943 4.59437 10.7211 4.50085 10.7681C4.40712 10.8145 4.32298 10.8802 4.2533 10.9614C4.18363 11.0427 4.12981 11.1378 4.09496 11.2412C4.00706 11.4998 3.77773 11.6605 3.53328 11.6605C3.46597 11.6605 3.39749 11.6482 3.3305 11.6225C3.02027 11.5035 2.85976 11.1397 2.97175 10.81C3.15167 10.2809 3.51452 9.85797 3.99363 9.61906C4.47293 9.38016 5.01082 9.35375 5.50855 9.54495C5.81871 9.66399 5.97926 10.0278 5.86726 10.3575C5.75512 10.6871 5.41285 10.8577 5.10281 10.7386ZM7.10766 14.887C6.67467 14.8869 6.24501 14.8066 5.83797 14.6497C5.52777 14.5307 5.36726 14.1669 5.47926 13.8372C5.59137 13.5076 5.93347 13.3368 6.24371 13.456C7.5677 13.9645 9.03407 13.2332 9.51247 11.8261C9.62446 11.4964 9.96669 11.3258 10.2769 11.4448C10.587 11.564 10.7475 11.9278 10.6355 12.2575C10.0848 13.8772 8.64192 14.887 7.10766 14.887Z" fill="#191919"/>
</g>
<defs>
<clipPath id="clip0_16929_3002">
<rect width="20" height="18" fill="white"/>
</clipPath>
</defs>
</svg>
