<svg width="158" height="41" viewBox="0 0 158 41" fill="none" xmlns="http://www.w3.org/2000/svg">
<path d="M57.1433 39.787V39.6855C57.1433 38.972 58.1612 38.6675 58.1612 37.4957V24.9723C58.1612 23.8266 57.1433 23.496 57.1433 22.7824V22.681C57.1433 22.3766 57.3724 22.1965 57.7554 22.1965H64.0924C68.6979 22.1965 72.21 23.9281 72.21 28.2291C72.21 32.0458 69.3329 34.54 64.9041 34.54H62.8158V37.4924C62.8158 38.6643 63.9614 38.9687 63.9614 39.6823V39.7837C63.9614 40.0881 63.7061 40.2682 63.3493 40.2682H57.7488C57.3658 40.2682 57.1367 40.0914 57.1367 39.7837L57.1433 39.787ZM63.9909 32.7626H64.9074C66.6128 32.7626 67.4278 31.1325 67.4278 29.3028C67.4278 25.9673 65.6701 23.9575 64.0924 23.9575H63.7356C63.1497 23.9575 62.8191 24.4158 62.8191 25.1785V31.5417C62.8191 32.3305 63.1497 32.7626 63.9909 32.7626Z" fill="#EF7D25"/>
<path d="M81.1662 39.1747C80.6327 39.9374 79.6147 40.5233 77.9323 40.5233C75.2089 40.5233 73.0977 39.2762 73.0977 36.6543C73.0977 34.0324 75.2613 32.7591 77.6802 32.7591C78.7506 32.7591 79.6147 33.0144 80.2497 33.3941V33.3189C79.9715 30.3173 79.7653 29.0178 78.4429 29.0178C76.6852 29.0178 77.3987 32.4285 75.1337 32.4285C74.0633 32.4285 73.353 31.7673 73.353 30.7755C73.353 28.6905 75.8472 27.7969 78.4429 27.7969C81.8536 27.7969 84.2464 29.7837 84.6261 32.9392L85.1858 37.4955C85.4149 39.3024 86.4853 38.8703 86.4853 39.5806C86.4853 40.2418 85.009 40.4218 83.6343 40.4218C82.0566 40.4218 81.3692 40.1174 81.1662 39.1747ZM79.3332 39.2271C80.1483 39.2271 80.6327 38.2615 80.6327 37.3941L80.5312 36.1993C80.3545 34.6707 79.69 34.111 78.9535 34.111C78.217 34.111 77.654 34.7984 77.654 35.8425C77.654 37.6494 78.2661 39.2271 79.3332 39.2271Z" fill="#EF7D25"/>
<path d="M87.4401 39.7871V39.6856C87.4401 38.972 88.4581 38.6676 88.4581 37.4958V32.4321C88.4581 31.2373 87.2109 31.1326 87.2109 30.3961V30.3208C87.2109 30.0164 87.4139 29.7873 87.7969 29.5811L91.4105 27.9019C92.0717 27.5975 92.3009 27.951 92.3009 28.4616V30.3699C92.8344 28.7169 94.0324 27.8004 95.8392 27.8004C97.3417 27.8004 98.2058 28.8937 98.2058 30.3208C98.2058 31.5941 97.7476 32.7136 96.2713 32.7136C93.9309 32.7136 94.9718 30.3208 93.7018 30.3208C92.8868 30.3208 92.7591 31.6432 92.7591 32.7627V37.4958C92.7591 38.6676 94.1077 38.972 94.1077 39.6856V39.7871C94.1077 40.0915 93.8786 40.2715 93.4956 40.2715H88.0227C87.6659 40.2715 87.4368 40.0948 87.4368 39.7871H87.4401Z" fill="#EF7D25"/>
<path d="M98.7891 34.0848C98.7891 30.3173 101.715 27.7969 105.051 27.7969C108.386 27.7969 109.912 29.679 109.912 31.2829C109.912 32.0456 109.506 32.5562 108.92 32.8606L103.856 35.7116C104.517 36.7558 105.509 37.3646 106.756 37.3646C107.849 37.3646 108.867 36.854 109.303 36.2451C109.66 35.8884 110.268 36.0422 110.245 36.6019C110.196 38.0029 108.439 40.52 105.08 40.52C101.414 40.52 98.7923 37.9505 98.7923 34.0815L98.7891 34.0848ZM103.27 34.3892L105.637 32.9653C106.069 32.6871 106.298 32.2027 106.298 31.6659C106.298 30.8508 105.889 29.044 104.619 29.044C103.548 29.044 102.887 30.2387 102.887 31.7182C102.887 32.71 103.015 33.6265 103.27 34.3892Z" fill="#EF7D25"/>
<path d="M119.783 39.8135V39.712C119.783 38.9755 120.775 38.6678 120.7 37.4993L120.445 32.9429C120.317 30.4225 119.833 29.4798 118.687 29.4798C117.541 29.4798 117.034 30.4716 117.034 31.9478V37.496C117.034 38.6678 118.18 38.9722 118.18 39.7087V39.8102C118.18 40.1146 117.924 40.2946 117.545 40.2946H112.046C111.689 40.2946 111.433 40.1146 111.433 39.8102V39.7087C111.433 38.9722 112.553 38.6646 112.553 37.496V32.4814C112.553 31.2605 111.23 31.1066 111.23 30.3701V30.2948C111.23 29.9904 111.46 29.8366 111.816 29.6598L115.381 27.9021C116.016 27.5715 116.347 28.0036 116.347 28.5142V29.7351C117.008 28.5142 118.307 27.8006 120.013 27.8006C122.229 27.8006 124.543 29.0477 124.847 33.0935L125.178 37.496C125.279 38.6678 126.094 38.9722 126.094 39.7087V39.8102C126.094 40.1146 125.839 40.2946 125.482 40.2946H120.392C120.036 40.2946 119.78 40.1146 119.78 39.8102L119.783 39.8135Z" fill="#EF7D25"/>
<path d="M127.837 35.8164V29.7838H126.894C126.564 29.7838 126.309 29.5285 126.309 29.1979V28.6381C126.309 28.2814 126.538 28.0522 126.894 28.0522H127.379C128.93 28.0522 130.128 27.0343 130.459 25.4827C130.561 25.0768 130.842 24.8215 131.146 24.8215H131.759C132.168 24.8215 132.42 25.0768 132.42 25.4827V28.0522H135.068C135.372 28.0522 135.654 28.3075 135.654 28.6381V29.1979C135.654 29.5285 135.372 29.7838 135.068 29.7838H132.42V35.8917C132.42 36.7558 132.93 37.2664 133.592 37.2664C134.557 37.2664 134.993 36.782 135.245 36.3237C135.601 35.8655 136.21 36.0193 136.21 36.5038C136.21 38.4645 134.786 40.5266 131.984 40.5266C129.49 40.5266 127.837 38.8965 127.837 35.8197V35.8164Z" fill="#EF7D25"/>
<path d="M145.166 39.1747C144.633 39.9374 143.615 40.5233 141.932 40.5233C139.209 40.5233 137.098 39.2762 137.098 36.6543C137.098 34.0324 139.261 32.7591 141.68 32.7591C142.751 32.7591 143.615 33.0144 144.25 33.3941V33.3189C143.971 30.3173 143.765 29.0178 142.443 29.0178C140.685 29.0178 141.399 32.4285 139.134 32.4285C138.063 32.4285 137.353 31.7673 137.353 30.7755C137.353 28.6905 139.847 27.7969 142.443 27.7969C145.854 27.7969 148.246 29.7837 148.626 32.9392L149.186 37.4955C149.415 39.3024 150.485 38.8703 150.485 39.5806C150.485 40.2418 149.009 40.4218 147.634 40.4218C146.057 40.4218 145.369 40.1174 145.166 39.1747ZM143.333 39.2271C144.148 39.2271 144.633 38.2615 144.633 37.3941L144.531 36.1993C144.354 34.6707 143.69 34.111 142.954 34.111C142.217 34.111 141.654 34.7984 141.654 35.8425C141.654 37.6494 142.266 39.2271 143.333 39.2271Z" fill="#EF7D25"/>
<path d="M151.305 39.7867V39.6853C151.305 38.9488 152.296 38.6673 152.296 37.4954V25.8656C152.296 24.6708 151.305 24.337 151.305 23.702V23.6005C151.305 23.319 151.534 23.1913 151.864 23.0146L155.707 21.1325C156.421 20.7757 156.879 21.2077 156.879 21.666V37.4954C156.879 38.6673 157.998 38.9455 157.998 39.6853V39.7867C157.998 40.0911 157.743 40.2712 157.386 40.2712H151.891C151.534 40.2712 151.305 40.0944 151.305 39.7867Z" fill="#EF7D25"/>
<path d="M57.0703 17.4633V17.3684C57.0703 16.7072 58.0163 16.4224 58.0163 15.3324V3.68943C58.0163 2.60271 57.0703 2.31794 57.0703 1.65347V1.55854C57.0703 1.27377 57.2831 1.11011 57.6137 1.11011H68.71C69.2534 1.11011 69.4432 1.34578 69.5381 1.86623L70.1077 4.84816C70.1797 5.27369 69.9178 5.53555 69.5152 5.53555H69.3974C68.0717 5.53555 67.3876 2.76638 65.7052 2.76638H63.4335C62.8411 2.76638 62.3468 3.05115 62.3468 3.90219V9.20159H64.9981C66.0848 9.20159 66.4187 7.28346 67.0799 7.28346H67.3156C67.5742 7.28346 67.764 7.49623 67.764 7.82682V12.0853C67.764 12.4159 67.5742 12.6287 67.3156 12.6287H67.0799C66.4187 12.6287 66.0848 10.8546 64.9981 10.8546H62.3468V15.3258C62.3468 16.4126 63.4106 16.6973 63.4106 17.3618V17.4567C63.4106 17.7415 63.1749 17.9052 62.8443 17.9052H57.6399C57.2863 17.9052 57.0703 17.7382 57.0703 17.4567V17.4633Z" fill="#0B6FB5"/>
<path d="M68.9648 12.164C68.9648 8.66167 71.6849 6.32129 74.7847 6.32129C77.8845 6.32129 79.3051 8.07248 79.3051 9.56181C79.3051 10.2721 78.9254 10.7435 78.382 11.0282L73.6751 13.6796C74.2904 14.6484 75.2135 15.218 76.3722 15.218C77.3902 15.218 78.3362 14.7434 78.7388 14.1771C79.0694 13.8465 79.6389 13.9873 79.616 14.5077C79.5702 15.8105 77.9368 18.1508 74.8141 18.1508C71.4067 18.1508 68.9714 15.7614 68.9714 12.164H68.9648ZM73.1285 12.4488L75.3281 11.1232C75.7307 10.8646 75.9434 10.4129 75.9434 9.91532C75.9434 9.1592 75.5637 7.48002 74.3821 7.48002C73.387 7.48002 72.7716 8.59293 72.7716 9.96442C72.7716 10.8875 72.8895 11.7385 73.1252 12.4488H73.1285Z" fill="#0B6FB5"/>
<path d="M80.0423 15.3585C80.0423 14.2946 80.7755 13.8429 81.7215 13.8429C84.111 13.8429 83.2828 17.0835 85.2468 17.0835C85.9571 17.0835 86.5234 16.7299 86.5234 15.7807C86.5234 12.6809 80.2518 14.5041 80.2518 9.91176C80.2518 7.80706 82.2878 6.31445 85.2435 6.31445C88.1993 6.31445 90.2352 7.61721 90.2352 9.15236C90.2352 9.9805 89.5249 10.5959 88.6248 10.5959C86.3532 10.5959 87.0864 7.40117 85.453 7.40117C84.7198 7.40117 84.3663 8.06237 84.3663 8.74975C84.3663 11.9903 90.4251 10.2882 90.4251 14.6416C90.4251 16.6056 88.5331 18.1211 85.2435 18.1211C82.2616 18.1211 80.0391 17.0082 80.0391 15.3519L80.0423 15.3585Z" fill="#0B6FB5"/>
<path d="M91.7057 13.7743V8.16719H90.8285C90.5208 8.16719 90.2852 7.93152 90.2852 7.62383V7.10338C90.2852 6.77279 90.4979 6.56002 90.8285 6.56002H91.277C92.7205 6.56002 93.8334 5.61405 94.1411 4.17055C94.236 3.79085 94.4946 3.55518 94.7793 3.55518H95.3489C95.7286 3.55518 95.9642 3.79085 95.9642 4.17055V6.56002H98.4257C98.7105 6.56002 98.9691 6.7957 98.9691 7.10338V7.62383C98.9691 7.93152 98.7072 8.16719 98.4257 8.16719H95.9642V13.8463C95.9642 14.6515 96.4389 15.1229 97.051 15.1229C97.9511 15.1229 98.3537 14.6744 98.5894 14.2456C98.92 13.8201 99.4895 13.9609 99.4895 14.4126C99.4895 16.2358 98.1639 18.1506 95.5616 18.1506C93.2442 18.1506 91.7057 16.6351 91.7057 13.7743Z" fill="#0B6FB5"/>
<path d="M99.6953 17.4632V17.3683C99.6953 16.6809 100.641 16.3994 100.641 15.3094V10.8152C100.641 9.72524 99.6953 9.39464 99.6953 8.82837V8.73344C99.6953 8.47158 99.9081 8.35375 100.239 8.19009L103.813 6.43889C104.474 6.10829 104.877 6.48472 104.877 6.93643V15.3127C104.877 16.3994 105.941 16.6842 105.941 17.3716V17.4665C105.941 17.7513 105.705 17.9149 105.374 17.9149H100.265C99.9343 17.9149 99.6986 17.748 99.6986 17.4665L99.6953 17.4632ZM102.795 0.429199C104.402 0.429199 105.492 1.44718 105.492 2.79576C105.492 4.14434 104.402 5.16233 102.795 5.16233C101.188 5.16233 100.075 4.12143 100.075 2.79576C100.075 1.47009 101.165 0.429199 102.795 0.429199Z" fill="#0B6FB5"/>
<path d="M110.074 17.2997L106.476 9.13621C106.051 8.16733 105.223 7.76472 105.223 7.10025V7.00532C105.223 6.72055 105.435 6.55688 105.766 6.55688H111.209C111.517 6.55688 111.73 6.74673 111.73 7.02823V7.12316C111.73 7.76144 110.879 7.9742 111.327 9.20495L113.363 14.5764L115.092 9.79741C115.753 7.92838 114.24 7.76144 114.24 7.12316V7.02823C114.24 6.74346 114.476 6.55688 114.784 6.55688H117.929C118.26 6.55688 118.473 6.72055 118.473 7.00532V7.10025C118.473 7.76144 117.291 8.09532 116.889 9.13621L113.838 17.2997C113.697 17.7252 113.435 17.9151 113.01 17.9151H110.928C110.48 17.9151 110.29 17.7252 110.077 17.2997H110.074Z" fill="#0B6FB5"/>
<path d="M125.644 16.8973C125.146 17.6076 124.2 18.1509 122.639 18.1509C120.105 18.1509 118.145 16.9922 118.145 14.5536C118.145 12.115 120.154 10.9334 122.403 10.9334C123.398 10.9334 124.2 11.1691 124.793 11.5259V11.4538C124.531 8.66176 124.344 7.45393 123.113 7.45393C121.48 7.45393 122.144 10.6257 120.036 10.6257C119.041 10.6257 118.38 10.0103 118.38 9.08729C118.38 7.14625 120.698 6.31812 123.113 6.31812C126.285 6.31812 128.508 8.16423 128.864 11.0971L129.385 15.3327C129.598 17.0118 130.593 16.6092 130.593 17.2737C130.593 17.8891 129.221 18.056 127.941 18.056C126.475 18.056 125.837 17.7712 125.647 16.8973H125.644ZM123.941 16.9431C124.698 16.9431 125.149 16.043 125.149 15.241L125.054 14.1281C124.887 12.7075 124.275 12.1871 123.588 12.1871C122.901 12.1871 122.38 12.8253 122.38 13.7975C122.38 15.4767 122.946 16.9431 123.941 16.9431Z" fill="#0B6FB5"/>
<path d="M130.535 17.4634V17.3684C130.535 16.6811 131.458 16.4225 131.458 15.3325V4.52092C131.458 3.40801 130.535 3.10033 130.535 2.51114V2.41622C130.535 2.15436 130.748 2.03652 131.056 1.87286L134.63 0.121666C135.291 -0.208933 135.717 0.193677 135.717 0.6192V15.3357C135.717 16.4225 136.758 16.6843 136.758 17.3717V17.4666C136.758 17.7514 136.522 17.9151 136.188 17.9151H131.079C130.748 17.9151 130.535 17.7481 130.535 17.4666V17.4634Z" fill="#0B6FB5"/>
<path d="M24.8204 39.9025C14.754 35.3984 -3.94135 23.0326 0.7387 9.99439C3.99488 1.77385 12.502 2.11684 18.9805 6.27111C21.3815 7.8033 23.5793 9.73038 25.0912 12.1426C25.1521 12.2419 25.1205 12.3728 25.0212 12.4337C24.9445 12.4811 24.8475 12.4721 24.7798 12.4179C23.7012 11.5762 22.5729 10.8474 21.4085 10.202C17.6785 8.15306 11.5046 5.76339 7.53537 7.9432C5.75046 8.9451 4.69666 11.0685 4.34689 13.0542C3.50746 18.8287 9.00438 24.9575 12.7976 28.85C16.6021 32.6816 20.8196 36.1205 25.0506 39.5279C25.1454 39.6046 25.1612 39.7445 25.0844 39.8393C25.019 39.9205 24.9107 39.9431 24.8204 39.9025Z" fill="#0B6FB5"/>
<path d="M24.7469 12.1451C28.5966 5.01447 37.9725 -4.25086 46.1953 2.14641C49.2845 4.62408 50.7918 7.59819 50.5233 11.5968C49.9772 17.8993 45.3378 23.4413 41.0729 27.74C36.2665 32.4516 30.8193 36.4434 25.0674 39.8892C24.9636 39.9501 24.8304 39.9163 24.7672 39.8125C24.7153 39.7244 24.7311 39.6139 24.8011 39.5462C26.9019 37.4476 29.0343 35.4212 31.1036 33.3475C35.1586 29.2654 39.1797 25.066 42.4224 20.3092C44.4668 17.1885 46.6646 13.3907 46.0982 9.61553C45.8974 8.50532 45.4393 7.5305 44.8053 6.58276C41.2286 1.58454 35.9393 3.82527 31.7083 6.75651C29.3796 8.38121 27.1885 10.3241 25.1215 12.4181C24.9455 12.6122 24.6138 12.382 24.7447 12.1451H24.7469Z" fill="#0B6FB5"/>
<path d="M24.9359 17.0125C24.9359 17.0125 30.5818 10.2339 33.9779 13.7112C40.2849 20.1694 24.9359 30.6871 24.9359 30.6871C24.9359 30.6871 9.64117 20.1378 15.9459 13.7112C19.3623 10.2272 24.9359 17.0125 24.9359 17.0125Z" fill="#EF7D25"/>
</svg>
