<svg width="315" height="32" viewBox="0 0 315 32" fill="none" xmlns="http://www.w3.org/2000/svg">
<path d="M0 29.9578V29.7964C0 28.661 1.62492 28.1715 1.62492 26.307V6.33401C1.62492 4.46952 0 3.97996 0 2.8446V2.68315C0 2.19359 0.364565 1.91235 0.932245 1.91235H19.9678C20.9 1.91235 21.2281 2.31858 21.3896 3.20916L22.3635 8.32349C22.4833 9.05262 22.0406 9.50052 21.3479 9.50052H21.1448C18.8741 9.50052 17.697 4.75075 14.8118 4.75075H10.9161C9.90055 4.75075 9.04643 5.24031 9.04643 6.69857V15.7919H13.5931C15.4628 15.7919 16.0305 12.5056 17.1658 12.5056H17.572C18.0199 12.5056 18.3428 12.8701 18.3428 13.4378V20.7448C18.3428 21.3124 18.0199 21.677 17.572 21.677H17.1658C16.0305 21.677 15.4628 18.6303 13.5931 18.6303H9.04643V26.3018C9.04643 28.1663 10.8745 28.6558 10.8745 29.7912V29.9526C10.8745 30.4422 10.4682 30.7234 9.90055 30.7234H0.97391C0.364565 30.7234 0 30.4422 0 29.9526V29.9578Z" fill="#0B6FB5"/>
<path d="M21.5449 20.8644C21.5449 14.8543 26.2114 10.8389 31.5288 10.8389C36.8462 10.8389 39.2836 13.8439 39.2836 16.4011C39.2836 17.6198 38.6326 18.4322 37.7004 18.9166L29.6226 23.4632C30.6799 25.1298 32.2631 26.1037 34.2526 26.1037C35.9973 26.1037 37.6222 25.2913 38.3097 24.3174C38.8774 23.7497 39.8513 23.9945 39.8096 24.885C39.7263 27.1193 36.9296 31.1347 31.5705 31.1347C25.727 31.1347 21.5449 27.036 21.5449 20.8644ZM28.6904 21.3488L32.4663 19.0728C33.1589 18.6249 33.5235 17.8541 33.5235 17.0052C33.5235 15.7084 32.8725 12.8231 30.8465 12.8231C29.1435 12.8231 28.0863 14.7293 28.0863 17.0833C28.0863 18.6666 28.2894 20.1301 28.6956 21.3436L28.6904 21.3488Z" fill="#0B6FB5"/>
<path d="M41.5703 26.3434C41.5703 24.5153 42.8307 23.7446 44.4504 23.7446C48.5491 23.7446 47.1273 29.3068 50.497 29.3068C51.7156 29.3068 52.6896 28.6974 52.6896 27.0725C52.6896 21.7551 41.9349 24.8799 41.9349 17.0053C41.9349 13.3909 45.4243 10.8337 50.5022 10.8337C55.58 10.8337 59.0694 13.068 59.0694 15.7033C59.0694 17.1251 57.8508 18.1771 56.3092 18.1771C52.4135 18.1771 53.6687 12.6982 50.8719 12.6982C49.6116 12.6982 49.0022 13.8336 49.0022 15.0106C49.0022 20.5728 59.3923 17.6511 59.3923 25.1195C59.3923 28.4891 56.1425 31.0879 50.5022 31.0879C45.3878 31.0879 41.5703 29.1818 41.5703 26.3382V26.3434Z" fill="#0B6FB5"/>
<path d="M62.7994 23.6246V14.0053H61.2994C60.7734 14.0053 60.3672 13.5991 60.3672 13.0731V12.1825C60.3672 11.6148 60.7317 11.2502 61.2994 11.2502H62.0702C64.5441 11.2502 66.4554 9.62531 66.9814 7.15148C67.1429 6.50047 67.5908 6.09424 68.0751 6.09424H69.049C69.7001 6.09424 70.1063 6.50047 70.1063 7.15148V11.2502H74.33C74.8196 11.2502 75.2623 11.6565 75.2623 12.1825V13.0731C75.2623 13.5991 74.8144 14.0053 74.33 14.0053H70.1063V23.7496C70.1063 25.1298 70.9187 25.9422 71.976 25.9422C73.5176 25.9422 74.2102 25.1714 74.6165 24.4423C75.1842 23.7132 76.1581 23.9579 76.1581 24.7287C76.1581 27.8536 73.8873 31.1399 69.4188 31.1399C65.4398 31.1399 62.8046 28.541 62.8046 23.6298L62.7994 23.6246Z" fill="#0B6FB5"/>
<path d="M77.0938 29.9579V29.7965C77.0938 28.6195 78.7187 28.1299 78.7187 26.2654V18.5523C78.7187 16.6826 77.0938 16.1149 77.0938 15.141V14.9795C77.0938 14.5316 77.4583 14.3285 78.026 14.0473L84.1559 11.0422C85.2913 10.4745 85.9839 11.1255 85.9839 11.8963V26.2654C85.9839 28.1299 87.812 28.6195 87.812 29.7965V29.9579C87.812 30.4475 87.4057 30.7287 86.8381 30.7287H78.0677C77.5 30.7287 77.0938 30.4475 77.0938 29.9579ZM82.4112 0.730225C85.1715 0.730225 87.0412 2.47493 87.0412 4.78732C87.0412 7.0997 85.1715 8.84441 82.4112 8.84441C79.6509 8.84441 77.7448 7.05804 77.7448 4.78732C77.7448 2.51659 79.6145 0.730225 82.4112 0.730225Z" fill="#0B6FB5"/>
<path d="M96.0999 29.6713L89.9283 15.6668C89.1992 14.0002 87.7773 13.3127 87.7773 12.1774V12.0159C87.7773 11.5264 88.1419 11.2451 88.7096 11.2451H98.0477C98.5737 11.2451 98.9383 11.568 98.9383 12.0576V12.219C98.9383 13.3127 97.4748 13.6825 98.2456 15.7918L101.735 25.0048L104.698 16.8073C105.834 13.5992 103.235 13.3179 103.235 12.219V12.0576C103.235 11.568 103.641 11.2451 104.167 11.2451H109.568C110.136 11.2451 110.5 11.5316 110.5 12.0159V12.1774C110.5 13.3127 108.469 13.8804 107.782 15.6668L102.547 29.6713C102.303 30.4004 101.86 30.7285 101.126 30.7285H97.5529C96.7821 30.7285 96.4592 30.4056 96.0894 29.6713H96.0999Z" fill="#0B6FB5"/>
<path d="M123.813 28.9838C122.958 30.2025 121.339 31.1347 118.657 31.1347C114.313 31.1347 110.943 29.1452 110.943 24.9632C110.943 20.7811 114.391 18.7551 118.25 18.7551C119.953 18.7551 121.333 19.1614 122.349 19.7707V19.6509C121.901 14.8595 121.578 12.7919 119.469 12.7919C116.667 12.7919 117.802 18.2291 114.193 18.2291C112.49 18.2291 111.35 17.1719 111.35 15.5886C111.35 12.2607 115.329 10.8389 119.469 10.8389C124.906 10.8389 128.724 14.0054 129.333 19.0364L130.224 26.3016C130.588 29.1817 132.296 28.4942 132.296 29.6296C132.296 30.6868 129.942 30.9681 127.75 30.9681C125.234 30.9681 124.135 30.4785 123.813 28.9786V28.9838ZM120.886 29.0619C122.182 29.0619 122.958 27.5203 122.958 26.1402L122.797 24.234C122.51 21.7967 121.458 20.9061 120.281 20.9061C119.104 20.9061 118.209 21.9998 118.209 23.6664C118.209 26.5464 119.183 29.0671 120.886 29.0671V29.0619Z" fill="#0B6FB5"/>
<path d="M133.43 29.958V29.7966C133.43 28.6195 135.013 28.1716 135.013 26.3072V7.75599C135.013 5.84984 133.43 5.31861 133.43 4.30825V4.1468C133.43 3.6989 133.794 3.49579 134.32 3.21455L140.45 0.209492C141.586 -0.358188 142.32 0.329279 142.32 1.06362V26.3124C142.32 28.1769 144.106 28.6247 144.106 29.8018V29.9632C144.106 30.4528 143.7 30.734 143.132 30.734H134.367C133.799 30.734 133.435 30.4528 133.435 29.9632L133.43 29.958Z" fill="#0B6FB5"/>
<path d="M155.387 29.9578V29.7964C155.387 28.661 157.012 28.1715 157.012 26.307V6.33401C157.012 4.50598 155.387 3.97996 155.387 2.8446V2.68315C155.387 2.19359 155.751 1.91235 156.361 1.91235H166.47C173.818 1.91235 179.417 4.67263 179.417 11.5317C179.417 17.6199 174.828 21.5989 167.766 21.5989H164.438V26.307C164.438 28.1715 166.266 28.661 166.266 29.7964V29.9578C166.266 30.4474 165.86 30.7286 165.292 30.7286H156.361C155.751 30.7286 155.387 30.4474 155.387 29.9578ZM166.308 18.7553H167.772C170.49 18.7553 171.792 16.1564 171.792 13.2347C171.792 7.91726 168.99 4.70909 166.475 4.70909H165.907C164.975 4.70909 164.444 5.43822 164.444 6.65691V16.8074C164.444 18.0678 164.97 18.7553 166.313 18.7553H166.308Z" fill="#EF7D25"/>
<path d="M193.512 28.9838C192.658 30.2025 191.038 31.1347 188.356 31.1347C184.012 31.1347 180.643 29.1452 180.643 24.9632C180.643 20.7811 184.09 18.7551 187.95 18.7551C189.653 18.7551 191.033 19.1614 192.048 19.7707V19.6509C191.6 14.8595 191.277 12.7919 189.168 12.7919C186.366 12.7919 187.502 18.2291 183.892 18.2291C182.189 18.2291 181.049 17.1719 181.049 15.5886C181.049 12.2607 185.028 10.8389 189.168 10.8389C194.605 10.8389 198.423 14.0054 199.032 19.0364L199.923 26.3016C200.287 29.1817 201.996 28.4942 201.996 29.6296C201.996 30.6868 199.642 30.9681 197.449 30.9681C194.934 30.9681 193.835 30.4785 193.512 28.9786V28.9838ZM190.59 29.0619C191.887 29.0619 192.663 27.5203 192.663 26.1402L192.501 24.234C192.215 21.7967 191.163 20.9061 189.986 20.9061C188.809 20.9061 187.913 21.9998 187.913 23.6664C187.913 26.5464 188.887 29.0671 190.59 29.0671V29.0619Z" fill="#EF7D25"/>
<path d="M203.355 29.9579V29.7964C203.355 28.6611 204.98 28.1715 204.98 26.307V18.2293C204.98 16.3231 202.99 16.1617 202.99 14.9794V14.8597C202.99 14.3701 203.313 14.0055 203.922 13.6826L209.688 11.0057C210.745 10.5213 211.11 11.089 211.11 11.8963V14.943C211.964 12.3025 213.87 10.8442 216.75 10.8442C219.146 10.8442 220.526 12.5889 220.526 14.8649C220.526 16.896 219.797 18.6824 217.443 18.6824C213.708 18.6824 215.375 14.8649 213.344 14.8649C212.047 14.8649 211.844 16.9741 211.844 18.7605V26.3122C211.844 28.1767 213.995 28.6663 213.995 29.8016V29.9631C213.995 30.4526 213.63 30.7339 213.021 30.7339H204.292C203.725 30.7339 203.36 30.4526 203.36 29.9631L203.355 29.9579Z" fill="#EF7D25"/>
<path d="M221.275 20.8644C221.275 14.8543 225.942 10.8389 231.259 10.8389C236.577 10.8389 239.014 13.8439 239.014 16.4011C239.014 17.6198 238.363 18.4322 237.431 18.9166L229.353 23.4632C230.41 25.1298 231.994 26.1037 233.983 26.1037C235.728 26.1037 237.353 25.2913 238.04 24.3174C238.608 23.7497 239.582 23.9945 239.54 24.885C239.457 27.1193 236.66 31.1347 231.301 31.1347C225.457 31.1347 221.275 27.036 221.275 20.8644ZM228.421 21.3488L232.197 19.0728C232.884 18.6249 233.254 17.8541 233.254 17.0052C233.254 15.7084 232.603 12.8231 230.577 12.8231C228.874 12.8231 227.817 14.7293 227.817 17.0833C227.817 18.6666 228.02 20.1301 228.426 21.3436L228.421 21.3488Z" fill="#EF7D25"/>
<path d="M254.575 29.9995V29.838C254.575 28.661 256.159 28.1715 256.039 26.307L255.633 19.0417C255.43 15.0211 254.659 13.5212 252.831 13.5212C251.003 13.5212 250.19 15.1044 250.19 17.4585V26.307C250.19 28.1715 252.018 28.661 252.018 29.838V29.9995C252.018 30.4839 251.612 30.7703 251.003 30.7703H242.232C241.665 30.7703 241.258 30.4839 241.258 29.9995V29.838C241.258 28.661 243.045 28.1715 243.045 26.307V18.3126C243.045 16.3648 240.936 16.12 240.936 14.943V14.8232C240.936 14.3336 241.3 14.094 241.868 13.8076L247.55 11.0057C248.565 10.4796 249.091 11.1671 249.091 11.9796V13.9274C250.149 11.9796 252.216 10.8442 254.935 10.8442C258.466 10.8442 262.158 12.8337 262.648 19.2865L263.174 26.307C263.335 28.1715 264.637 28.661 264.637 29.838V29.9995C264.637 30.4839 264.231 30.7703 263.664 30.7703H255.544C254.977 30.7703 254.57 30.4839 254.57 29.9995H254.575Z" fill="#EF7D25"/>
<path d="M267.231 23.6246V14.0053H265.731C265.205 14.0053 264.799 13.5991 264.799 13.0731V12.1825C264.799 11.6148 265.163 11.2502 265.731 11.2502H266.502C268.976 11.2502 270.887 9.62531 271.413 7.15148C271.575 6.50047 272.022 6.09424 272.507 6.09424H273.481C274.132 6.09424 274.538 6.50047 274.538 7.15148V11.2502H278.762C279.251 11.2502 279.694 11.6565 279.694 12.1825V13.0731C279.694 13.5991 279.246 14.0053 278.762 14.0053H274.538V23.7496C274.538 25.1298 275.35 25.9422 276.408 25.9422C277.949 25.9422 278.642 25.1714 279.048 24.4423C279.616 23.7132 280.59 23.9579 280.59 24.7287C280.59 27.8536 278.319 31.1399 273.85 31.1399C269.871 31.1399 267.236 28.541 267.236 23.6298L267.231 23.6246Z" fill="#EF7D25"/>
<path d="M294.699 28.9838C293.845 30.2025 292.225 31.1347 289.543 31.1347C285.2 31.1347 281.83 29.1452 281.83 24.9632C281.83 20.7811 285.278 18.7551 289.137 18.7551C290.84 18.7551 292.22 19.1614 293.236 19.7707V19.6509C292.788 14.8595 292.465 12.7919 290.356 12.7919C287.554 12.7919 288.689 18.2291 285.08 18.2291C283.377 18.2291 282.236 17.1719 282.236 15.5886C282.236 12.2607 286.215 10.8389 290.356 10.8389C295.793 10.8389 299.61 14.0054 300.22 19.0364L301.11 26.3016C301.475 29.1817 303.183 28.4942 303.183 29.6296C303.183 30.6868 300.829 30.9681 298.637 30.9681C296.121 30.9681 295.022 30.4785 294.699 28.9786V28.9838ZM291.777 29.0619C293.074 29.0619 293.85 27.5203 293.85 26.1402L293.689 24.234C293.402 21.7967 292.35 20.9061 291.173 20.9061C289.996 20.9061 289.101 21.9998 289.101 23.6664C289.101 26.5464 290.074 29.0671 291.777 29.0671V29.0619Z" fill="#EF7D25"/>
<path d="M304.324 29.958V29.7966C304.324 28.6195 305.907 28.1716 305.907 26.3072V7.75599C305.907 5.84984 304.324 5.31861 304.324 4.30825V4.1468C304.324 3.6989 304.689 3.49579 305.215 3.21455L311.345 0.209492C312.48 -0.358188 313.214 0.329279 313.214 1.06362V26.3124C313.214 28.1769 315.001 28.6247 315.001 29.8018V29.9632C315.001 30.4528 314.595 30.734 314.027 30.734H305.256C304.689 30.734 304.324 30.4528 304.324 29.9632V29.958Z" fill="#EF7D25"/>
</svg>
