<svg preserveAspectRatio="none" width="100%" height="100%" overflow="visible" style="display: block;" viewBox="0 0 241.022 350.291" fill="none" xmlns="http://www.w3.org/2000/svg">
<path id="Vector 28" d="M7.73975 323.91L2.49987 332.735C-1.85381 340.068 3.43066 349.351 11.9583 349.351H204.831C209.828 349.351 213.689 344.965 213.056 340.009L212.627 336.644C212.222 333.473 214.692 330.668 217.889 330.668C220.818 330.668 223.193 328.293 223.193 325.363V299.906C223.193 298.952 223.317 298.002 223.562 297.08L231.541 267.065L239.626 239.869C240.061 238.405 240.187 236.867 239.995 235.352L234.522 192.134L227.554 157.292C227.171 155.378 226.286 153.601 224.989 152.142L215.215 141.146C214.574 140.425 214.03 139.621 213.598 138.758L206.36 124.281C205.288 122.138 204.946 119.703 205.385 117.348L208.299 101.704C208.423 101.039 208.485 100.365 208.485 99.6892V77.8886C208.485 77.2004 208.42 76.5137 208.292 75.8376L203.58 51.0086C203.406 50.0894 203.115 49.1962 202.714 48.3507L188.962 19.3185C187.837 16.9428 185.898 15.0486 183.496 13.9791L164.71 5.61196C163.95 5.27338 163.153 5.02216 162.336 4.86313L143.227 1.14273C141.827 0.870035 140.386 0.872467 138.986 1.14989L122.934 4.3315C120.447 4.82446 117.866 4.29238 115.776 2.85589C113.791 1.4908 111.357 0.939776 108.977 1.31646L88.0381 4.63054C86.0864 4.93944 84.254 5.76833 82.7334 7.03012L67.4152 19.7409C66.7232 20.3152 66.1042 20.9721 65.5721 21.697L53.6883 37.8866C53.0063 38.8156 52.4746 39.846 52.1126 40.9402L44.1364 65.0459C43.8564 65.8921 43.6803 66.7691 43.612 67.6577L41.9261 89.5745V105.43C41.9261 108.265 43.0208 110.991 44.9819 113.038L53.1128 121.528C54.6306 123.113 55.6397 125.115 56.0105 127.278L56.5372 130.351C57.3127 134.874 55.198 139.404 51.2322 141.714L39.6298 148.473C38.1341 149.344 36.8652 150.556 35.9262 152.01L26.7912 166.154C25.6426 167.933 25.0317 170.005 25.0317 172.122V190.683C25.0317 191.383 24.9647 192.082 24.8318 192.77L20.4602 215.388L18.6714 246.593L15.6574 281.819C15.5475 283.104 15.6643 284.397 16.0023 285.641L19.2538 297.607C20.0257 300.447 19.6269 303.479 18.1466 306.023L7.73975 323.91Z" fill="var(--fill-0, #79C3AB)" stroke="var(--stroke-0, #191919)" stroke-width="1.88"/>
</svg>
