<svg preserveAspectRatio="none" width="100%" height="100%" overflow="visible" style="display: block;" viewBox="0 0 278.71 397.508" fill="none" xmlns="http://www.w3.org/2000/svg">
<path id="Vector 29" d="M18.6753 372.773C18.2541 373.998 17.8118 375.281 17.3595 376.59C14.2991 385.449 22.1952 396.645 31.567 396.567L124.834 395.792C126.236 395.78 127.625 395.523 128.939 395.031L159.136 383.734C160.176 383.346 161.264 383.103 162.37 383.013L216.434 378.623C217.155 378.565 217.87 378.441 218.569 378.254L258.882 367.448C262.499 366.479 265.456 363.876 266.877 360.412L271.932 348.091C272.237 347.346 272.467 346.573 272.618 345.782L277.558 319.847C277.989 317.583 277.759 315.242 276.895 313.104L269.867 295.719C269.289 294.29 268.992 292.763 268.992 291.221V283.034C268.992 281.171 268.558 279.333 267.725 277.667L259.708 261.632C259.423 261.063 259.093 260.517 258.722 260L240.44 234.535C239.416 233.109 238.717 231.475 238.393 229.748L236.177 217.926C236.04 217.197 235.971 216.457 235.971 215.715V199.925C235.971 198.897 235.839 197.874 235.578 196.88L228.201 168.755L221.96 150.765C220.695 147.121 217.756 144.306 214.06 143.201L197.372 138.212C196.722 138.018 196.089 137.768 195.48 137.466L172.946 126.295C170.056 124.863 168.567 121.601 169.376 118.48C169.581 117.688 169.642 116.865 169.556 116.051L168.458 105.696C168.154 102.832 168.89 99.9551 170.532 97.5893L173.695 93.0305C175.338 90.6626 176.074 87.7825 175.768 84.9167L174.469 72.7394C174.357 71.6841 174.385 70.6186 174.552 69.5707L175.929 60.9673C176.136 59.6709 176.13 58.3492 175.909 57.055L173.085 40.4895C172.766 38.6185 172.008 36.8499 170.873 35.3289L161.185 22.3465C160.703 21.7007 160.287 21.0081 159.944 20.279L158.652 17.5338C157.32 14.7038 154.936 12.5056 152.008 11.4074L144.921 8.74973L132.803 2.33457C129.991 0.845467 126.701 0.534713 123.66 1.47067L102.324 8.03545C100.792 8.50685 99.3699 9.28043 98.1418 10.3105L87.5768 19.1714C85.8593 20.6119 84.5797 22.5046 83.8828 24.635L77.0457 45.5371C76.6517 46.7415 76.451 48.0006 76.451 49.2678V73.5775L79.1218 94.4584V109.911C79.1218 111.881 79.6067 113.82 80.5336 115.558L84.3492 122.713C84.748 123.46 85.0664 124.248 85.2992 125.063L85.5939 126.094C86.7065 129.988 85.7798 134.181 83.1296 137.243L77.469 143.785C76.7932 144.566 76.0193 145.256 75.1667 145.839L60.7225 155.712C58.4866 157.24 56.8335 159.48 56.0319 162.067L52.3135 174.067C52.0574 174.894 51.8914 175.746 51.8185 176.609L49.344 205.891C49.1299 208.424 49.7259 210.959 51.046 213.132L59.7651 227.482C60.3645 228.469 60.8185 229.537 61.1129 230.653L64.5918 243.844C65.7577 248.265 64.3103 252.964 60.859 255.963L38.8938 275.047C37.5639 276.203 35.9959 277.051 34.3012 277.532L20.9136 281.334C18.5036 282.018 16.3681 283.44 14.8067 285.399L6.81497 295.428C5.51089 297.064 4.65746 299.009 4.34228 301.078C2.97808 310.032 0.94 323.741 0.94 325.119C0.94 326.673 7.09095 341.468 10.1664 348.671L17.9215 363.258C19.4798 366.189 19.7553 369.635 18.6753 372.773Z" fill="var(--fill-0, #F7A73C)" stroke="var(--stroke-0, #191919)" stroke-width="1.88"/>
</svg>
