<?xml version="1.0" encoding="UTF-8"?>
<svg id="Layer_1" data-name="Layer 1" xmlns="http://www.w3.org/2000/svg" version="1.1" viewBox="0 0 861.33 852">
  <defs>
    <style>
      .cls-1 {
        fill: #000;
        stroke-width: 0px;
      }

      .cls-2 {
        fill: #f2b53d;
        stroke: #000;
        stroke-miterlimit: 10;
        stroke-width: 7px;
      }
    </style>
  </defs>
  <g>
    <path class="cls-1" d="M135.43,212.68c1.88,1.95,4.67,2.76,8.37,2.44,3.7-.33,7.68-1.21,11.93-2.65,4.25-1.44,8.6-2.81,13.05-4.11,4.45-1.3,8.85-1.78,13.2-1.43,4.35.35,7.92,1.97,10.7,4.86,4.92,5.11,6.82,11.25,5.69,18.42-1.13,7.18-5.92,14.84-14.39,23-2.56,2.46-5.2,4.62-7.94,6.48-2.74,1.86-5.74,3.42-9,4.68-3.26,1.26-6.56,1.56-9.92.9-3.35-.66-6.42-2.43-9.21-5.32-3.43-3.56-4.98-7.96-4.65-13.21.33-5.24,1.95-9.98,4.87-14.22-12.01,3.14-20.92,1.69-26.75-4.37-5.05-5.24-6.92-11.25-5.6-18.03,1.32-6.77,5.54-13.59,12.66-20.46,6.66-6.41,12.56-9.99,17.73-10.76,5.16-.76,9.49.67,12.99,4.3,2.27,2.35,3.31,4.78,3.13,7.29-.18,2.51-1.24,4.7-3.19,6.57-1.75,1.68-3.83,2.59-6.24,2.71-2.41.12-4.62-.18-6.62-.92-2-.73-4.05-1.18-6.16-1.35-2.11-.17-3.74.29-4.88,1.39-2.15,2.07-3.17,4.35-3.05,6.82.12,2.48,1.21,4.79,3.29,6.94ZM176.41,244.74c3.03-2.91,4.83-5.95,5.42-9.11.59-3.16-.19-5.84-2.32-8.06-2.39-2.49-9.24-1.79-20.53,2.09-.93.25-1.63.47-2.09.65-1.4,4.33-1.64,8.02-.7,11.08.93,3.06,2.53,5.15,4.78,6.28,2.26,1.13,4.84,1.46,7.75.99,2.91-.47,5.48-1.78,7.7-3.91Z"/>
    <path class="cls-1" d="M184,173.91c1.72-7.83,6.75-14.4,15.11-19.7,8.35-5.3,16.46-7.07,24.32-5.32,7.86,1.76,14.86,7.48,21.01,17.18,6.2,9.77,8.41,18.57,6.63,26.39-1.78,7.82-6.85,14.38-15.2,19.68-8.35,5.3-16.43,7.08-24.22,5.34-7.79-1.74-14.79-7.5-20.99-17.27-6.15-9.69-8.37-18.46-6.65-26.29ZM217.6,201.91c4.37,2.37,8.33,2.42,11.88.17,3.55-2.25,5.19-5.89,4.93-10.92-.26-5.03-2.04-10.14-5.34-15.35-3.3-5.2-7.17-8.99-11.61-11.37-4.44-2.38-8.43-2.44-11.98-.19s-5.17,5.88-4.87,10.88c.3,5.01,2.1,10.11,5.4,15.31,3.35,5.28,7.21,9.1,11.59,11.47Z"/>
    <path class="cls-1" d="M265.38,190.03c-3.48,1.07-5.69.08-6.62-2.95-.22-.71-.48-2.68-.79-5.91-.31-3.22-.94-6.4-1.89-9.52l-6.73-21.95c-1.09-3.57-2.37-6.62-3.83-9.15-1.46-2.53-2.27-4.06-2.43-4.6-.57-1.87.3-3.8,2.62-5.78,4.46-3.61,8.11-5.85,10.97-6.73,1.87-.57,3.29-.5,4.25.24.96.73,1.78,2.21,2.46,4.44l2.75,8.97c.39-1.29.96-2.76,1.72-4.41.76-1.65,1.92-3.78,3.46-6.4,1.54-2.62,3.59-5,6.15-7.16,2.56-2.15,5.4-3.71,8.53-4.66,10.17-3.12,17.19.35,21.05,10.39.32-1.17.84-2.58,1.56-4.21.72-1.63,1.84-3.79,3.37-6.45,1.53-2.66,3.6-5.13,6.23-7.4,2.62-2.27,5.54-3.9,8.75-4.88,10.98-3.36,18.31.98,22,13.02l7.92,25.83c.96,3.12,2.24,6.1,3.83,8.93,1.6,2.83,2.51,4.6,2.73,5.31.93,3.03-.35,5.08-3.83,6.15l-12.31,3.77c-3.48,1.07-5.69.08-6.62-2.95-.22-.71-.48-2.68-.79-5.91-.31-3.22-.94-6.4-1.89-9.52l-5.91-19.27c-1.18-3.84-2.55-6.4-4.11-7.67-1.56-1.28-3.55-1.55-5.96-.81-3.93,1.2-7.82,6.64-11.69,16.32l5.58,18.21c.96,3.12,2.24,6.1,3.83,8.93,1.6,2.83,2.51,4.6,2.73,5.31.93,3.04-.35,5.08-3.83,6.15l-12.31,3.77c-3.48,1.07-5.69.08-6.62-2.95-.22-.71-.48-2.68-.79-5.91-.31-3.22-.94-6.4-1.89-9.52l-5.91-19.28c-1.18-3.84-2.55-6.39-4.11-7.67s-3.51-1.56-5.82-.85c-4.02,1.23-7.96,6.69-11.82,16.36l5.58,18.2c.96,3.12,2.24,6.1,3.83,8.93,1.6,2.83,2.51,4.6,2.73,5.31.93,3.04-.35,5.08-3.83,6.15l-12.31,3.77Z"/>
    <path class="cls-1" d="M405.24,141.53c3.34-3.12,6.36-4.73,9.06-4.83,2.7-.1,4.77.8,6.2,2.71,1.43,1.91,2.19,4.17,2.29,6.78.16,4.29-2.03,8.06-6.57,11.32-4.55,3.26-11.44,5.06-20.67,5.41-9.33.36-16.99-2.22-22.99-7.74-6-5.52-9.22-13.96-9.65-25.34-.43-11.28,2.2-19.91,7.91-25.87,5.7-5.96,12.89-9.11,21.57-9.44,7.74-.3,13.87,1.95,18.4,6.72,4.53,4.78,6.91,10.24,7.14,16.4.19,4.85-2.43,7.38-7.84,7.58l-29.52,1.13c.33,6.25,1.83,11.19,4.49,14.82,2.66,3.64,6.32,5.36,10.99,5.18,2.8-.11,5.86-1.72,9.2-4.83ZM400.1,109.58c-2.05-2.3-4.61-3.4-7.69-3.28-3.08.12-5.64,1.57-7.68,4.36-2.04,2.79-3.29,5.59-3.74,8.41l22.66-.87c-.32-3.44-1.5-6.32-3.55-8.62Z"/>
    <path class="cls-1" d="M494.47,123.66l-4.21,26.69c-.51,3.23-.66,6.46-.47,9.71.2,3.24.24,5.23.12,5.97-.49,3.14-2.54,4.42-6.13,3.85l-12.72-2c-3.6-.57-5.15-2.42-4.65-5.55.12-.74.74-2.62,1.88-5.66,1.14-3.03,1.96-6.16,2.47-9.39l3.14-19.91c.62-3.96.52-6.86-.33-8.7-.84-1.83-2.47-2.94-4.86-3.32-4.15-.65-10.08,2.52-17.8,9.52l-2.96,18.81c-.51,3.23-.66,6.46-.47,9.71.2,3.24.24,5.24.12,5.97-.49,3.14-2.54,4.42-6.13,3.85l-12.72-2.01c-3.6-.57-5.15-2.42-4.65-5.55.12-.74.74-2.62,1.88-5.66,1.14-3.03,1.96-6.16,2.47-9.39l3.57-22.68c.58-3.69.77-6.99.57-9.9-.2-2.91-.26-4.65-.17-5.2.31-1.94,1.94-3.29,4.89-4.05,5.59-1.29,9.86-1.71,12.81-1.24,1.94.31,3.17,1,3.71,2.07.54,1.08.63,2.77.26,5.07l-1.46,9.27c.91-.99,2.07-2.06,3.48-3.21,1.41-1.15,3.38-2.56,5.91-4.24,2.53-1.68,5.42-2.92,8.67-3.74,3.25-.81,6.48-.96,9.71-.45,11.34,1.79,16.03,8.9,14.07,21.35Z"/>
    <path class="cls-1" d="M532.25,126.09l-9.91,29.75c-.8,2.39-.8,4.46,0,6.2.8,1.74,1.88,3.06,3.26,3.96,1.37.9,2.49,2.13,3.34,3.7.86,1.56.96,3.32.31,5.27-.94,2.83-3.09,4.63-6.44,5.38-3.35.75-6.93.5-10.74-.77-5.05-1.68-8.53-4.44-10.45-8.28-1.92-3.83-2.31-8.51-1.15-14.03,1.06-4.96,3.46-10.68,7.19-17.16,3.73-6.48,8.21-12.39,13.43-17.74l-11.95-3.98c-1.42-.47-2.21-1.33-2.39-2.57-.18-1.24.28-2.32,1.37-3.23,1.09-.62,2.92-1.68,5.49-3.19,2.57-1.51,4.68-2.69,6.35-3.57,1.67-.87,3.56-1.82,5.67-2.83,2.11-1.02,3.96-1.71,5.56-2.06,1.59-.35,2.88-.37,3.85-.05,1.86.62,3.02,1.5,3.48,2.63.46,1.14.33,2.77-.37,4.89l-3.41,10.23,8.5,2.83c.88.29,1.56.94,2.02,1.93.46.99.52,1.97.2,2.94-.83,2.48-2.43,3.32-4.82,2.52l-8.37-2.79Z"/>
    <path class="cls-1" d="M572.01,184.76c4.44-1.08,7.86-.99,10.27.25,2.41,1.24,3.76,3.04,4.07,5.4.31,2.36-.14,4.71-1.33,7.03-1.96,3.82-5.73,6.03-11.28,6.63-5.56.6-12.45-1.21-20.66-5.44-8.3-4.27-13.71-10.28-16.23-18.03-2.52-7.75-1.17-16.69,4.04-26.81,5.17-10.04,11.7-16.26,19.6-18.65,7.9-2.39,15.7-1.6,23.42,2.37,6.89,3.54,11.13,8.51,12.73,14.89,1.59,6.39.98,12.32-1.83,17.79-2.22,4.32-5.74,5.23-10.55,2.76l-26.27-13.52c-2.78,5.6-3.9,10.64-3.37,15.11.53,4.47,2.87,7.78,7.02,9.91,2.49,1.28,5.95,1.39,10.39.31ZM583.23,154.39c-.65-3.01-2.35-5.22-5.09-6.63s-5.68-1.4-8.83.02c-3.15,1.42-5.61,3.25-7.39,5.49l20.17,10.38c1.41-3.16,1.79-6.24,1.14-9.25Z"/>
    <path class="cls-1" d="M689.61,246.32l-19.26,18.95c-2.33,2.29-4.4,4.78-6.2,7.47-1.81,2.69-2.97,4.3-3.5,4.82-2.26,2.23-4.67,2.04-7.22-.55l-9.03-9.18c-2.49-2.53-2.6-4.91-.34-7.13.53-.52,2.16-1.67,4.88-3.42,2.72-1.76,5.24-3.78,7.57-6.08l14.37-14.14c2.86-2.81,4.5-5.21,4.91-7.19.41-1.98-.27-3.86-2.03-5.66-3.14-3.19-9.9-4.27-20.27-3.24l-13.57,13.35c-2.33,2.29-4.38,4.8-6.15,7.52-1.77,2.72-2.92,4.35-3.46,4.87-2.26,2.23-4.67,2.04-7.22-.55l-9.03-9.18c-2.55-2.59-2.7-5-.44-7.23.53-.52,2.16-1.67,4.88-3.42,2.72-1.76,5.24-3.78,7.57-6.08l27.55-27.1c2.66-2.62,4.78-5.16,6.35-7.62,1.57-2.46,2.56-3.89,2.96-4.28,1.53-1.5,3.64-1.62,6.34-.34,5.26,2.29,8.94,4.49,11.03,6.62,1.37,1.4,1.96,2.69,1.75,3.88-.21,1.19-1.14,2.6-2.81,4.23l-17.96,17.67c1.52-.19,3.12-.32,4.8-.41,1.68-.09,4.12-.03,7.32.16,3.2.19,6.36.94,9.49,2.25,3.12,1.31,5.83,3.13,8.12,5.46,8.05,8.18,7.59,16.69-1.4,25.53Z"/>
    <path class="cls-1" d="M711.12,255.97c7.85,1.65,14.46,6.63,19.83,14.93,5.37,8.31,7.22,16.4,5.53,24.27-1.69,7.87-7.35,14.93-16.99,21.16-9.72,6.29-18.49,8.57-26.33,6.86-7.84-1.71-14.44-6.72-19.81-15.03-5.37-8.31-7.23-16.36-5.55-24.17,1.67-7.81,7.37-14.85,17.09-21.14,9.64-6.24,18.38-8.53,26.23-6.88ZM683.41,289.82c-2.33,4.39-2.35,8.36-.07,11.88s5.93,5.14,10.96,4.83c5.03-.31,10.13-2.13,15.3-5.48,5.17-3.35,8.93-7.25,11.27-11.71,2.34-4.46,2.37-8.45.09-11.98-2.28-3.53-5.92-5.12-10.92-4.77-5,.34-10.09,2.19-15.26,5.54-5.25,3.4-9.04,7.29-11.36,11.69Z"/>
    <path class="cls-1" d="M749.62,329.05c.79,1.69.88,3.09.26,4.2-.62,1.11-1.98,2.16-4.09,3.15l-45.29,21.15c-8.12,3.79-15.28,4.61-21.49,2.46-6.2-2.15-11.07-6.99-14.58-14.51-4.19-8.96-4.44-15.8-.77-20.5,2.47-3.11,5.46-4.2,8.98-3.27,2.11.56,3.65,1.85,4.59,3.88.91,1.95.94,4.33.09,7.14-.85,2.82-.96,4.9-.32,6.25.87,1.86,2.4,3,4.61,3.41,2.2.41,4.7-.03,7.49-1.33l33.36-15.58c3.38-1.58,6.24-3.3,8.56-5.16,2.32-1.86,3.74-2.91,4.25-3.14,2.11-.99,4.74.11,7.87,3.28,3.13,3.17,5.29,6.03,6.47,8.57ZM765.53,312.81c.73.9,1.35,1.89,1.86,2.99,1.03,2.2,1.41,4.39,1.14,6.58-.27,2.19-1.15,3.88-2.64,5.1-1.96,1.53-4.34,1.95-7.14,1.25-2.8-.7-5.21-2.33-7.23-4.89-.73-.9-1.35-1.9-1.86-2.99-1.03-2.2-1.41-4.39-1.14-6.58.27-2.19,1.19-3.9,2.77-5.16,1.96-1.53,4.34-1.95,7.14-1.25,2.8.7,5.17,2.35,7.1,4.95Z"/>
    <path class="cls-1" d="M734.12,393.5c3.86,2.43,6.19,4.94,6.98,7.53.79,2.59.44,4.82-1.04,6.68-1.48,1.86-3.47,3.18-5.97,3.94-4.11,1.25-8.31.1-12.62-3.47-4.31-3.57-7.81-9.77-10.5-18.61-2.72-8.93-2.18-17,1.62-24.21,3.8-7.21,11.15-12.47,22.04-15.8,10.8-3.29,19.81-2.95,27.03,1.05,7.22,3.99,12.09,10.14,14.63,18.45,2.26,7.41,1.66,13.91-1.81,19.51-3.47,5.59-8.14,9.29-14.04,11.09-4.64,1.42-7.75-.47-9.33-5.64l-8.62-28.25c-5.96,1.91-10.35,4.62-13.18,8.12-2.84,3.5-3.57,7.48-2.21,11.94.82,2.68,3.16,5.23,7.02,7.67ZM763.71,380.38c1.7-2.57,2.11-5.33,1.21-8.27-.9-2.95-2.96-5.05-6.17-6.31-3.22-1.26-6.24-1.75-9.08-1.47l6.62,21.69c3.25-1.19,5.73-3.06,7.43-5.63Z"/>
    <path class="cls-1" d="M740.34,429.96c.8,4.98-1.28,7.87-6.26,8.67l-3.59.58c-4.98.8-7.86-1.28-8.67-6.26l-1.09-6.77c-.8-4.98,1.28-7.86,6.26-8.67l3.59-.58c4.98-.8,7.86,1.28,8.67,6.26l1.09,6.77ZM803.19,423.08c.4,2.49.14,4.23-.79,5.23-.93,1-2.51,1.59-4.75,1.76l-44.99,3.29c-3.75.23-5.86-1.14-6.33-4.08l-1.18-7.33c-.48-2.95,1.1-4.91,4.72-5.87l43.74-11.03c2.17-.63,3.85-.6,5.05.11,1.2.7,2,2.3,2.4,4.79l2.12,13.13Z"/>
  </g>
  <circle class="cls-1" cx="415.76" cy="516.84" r="280"/>
  <circle class="cls-2" cx="403.16" cy="483.84" r="280"/>
  <g>
    <path class="cls-1" d="M281.65,384c1.96.51,3.34,1.6,4.15,3.29.8,1.68.91,3.69.3,6.01-1.05,4.04-3.81,7.17-8.27,9.38-4.47,2.21-9.95,2.47-16.44.78-7.72-2.01-13.3-6.02-16.74-12.05-3.44-6.03-4.01-13.45-1.72-22.28s6.39-15.28,12.15-18.82c5.76-3.54,12.65-4.27,20.68-2.18,5.39,1.4,9.39,3.57,12,6.5,2.61,2.93,3.51,5.93,2.72,9-.7,2.7-1.93,4.54-3.69,5.52-1.76.98-3.68,1.2-5.76.66-1.72-.45-3.04-1.38-3.98-2.8-.94-1.42-1.53-2.86-1.77-4.33-.24-1.47-.66-2.87-1.26-4.2-.6-1.33-1.45-2.14-2.56-2.43-2.33-.61-4.62.08-6.86,2.04-2.24,1.97-3.98,4.62-5.21,7.97-1.23,3.35-2.07,6.77-2.52,10.28-.46,3.51-.09,6.7,1.1,9.56,1.19,2.86,3.1,4.63,5.73,5.32,1.84.48,3.61.32,5.32-.48,1.71-.8,3.13-1.79,4.25-2.97,1.12-1.18,2.45-2.19,3.98-3.04,1.53-.85,3-1.09,4.41-.72Z"/>
    <path class="cls-1" d="M305.69,363.22c5.72-3.39,12.5-4.06,20.34-2.02s13.42,5.92,16.74,11.66c3.32,5.73,3.77,13.26,1.35,22.57s-6.47,15.67-12.16,19.06c-5.69,3.39-12.46,4.07-20.3,2.04s-13.44-5.93-16.79-11.67c-3.35-5.74-3.81-13.27-1.39-22.58s6.49-15.66,12.21-19.05ZM314,407.51c3.25.84,6.29-.31,9.14-3.46,2.85-3.15,4.94-7.3,6.28-12.45s1.52-9.77.57-13.88c-.96-4.11-3.06-6.61-6.29-7.52-3.31-.86-6.39.29-9.23,3.44-2.85,3.15-4.94,7.3-6.28,12.45-.78,3-1.18,5.94-1.21,8.81-.03,2.87.54,5.54,1.7,8,1.16,2.46,2.93,4,5.32,4.62Z"/>
    <path class="cls-1" d="M361.38,371.26l11.67,3.03c3.55.92,5.87,2.46,6.95,4.6,1.08,2.14,1.46,5.2,1.15,9.18l-.24,3.18c1.41-3.69,3.72-6.59,6.92-8.7,3.2-2.11,6.82-2.64,10.86-1.59,4.6,1.19,7.64,3.69,9.14,7.48,1.5,3.79,1.59,8.23.27,13.31-.7,2.7-1.85,4.74-3.45,6.12-1.6,1.38-3.4,2.01-5.39,1.88,1.8.86,3.06,2.3,3.78,4.32.72,2.02.73,4.37.03,7.07-.75,2.88-1.3,5.89-1.66,9.04-.36,3.14-.59,4.93-.71,5.36-.54,2.08-2.01,2.81-4.4,2.19l-9.74-2.53c-2.39-.62-3.31-1.97-2.77-4.06.11-.43.75-1.93,1.91-4.51,1.16-2.58,2.12-5.33,2.89-8.28l3.61-13.88c.81-3.12.91-5.65.3-7.57-.61-1.92-1.87-3.13-3.77-3.63-2.02-.53-3.94.27-5.77,2.38-1.82,2.11-2.86,4.51-3.09,7.19l-1.19,13.62c-.27,3.07-.31,5.95-.09,8.66.21,2.7.29,4.28.24,4.72-.07,1.03-.45,1.75-1.15,2.15-.69.41-1.59.47-2.7.18l-9.65-2.51c-2.39-.62-3.5-2.02-3.32-4.2.03-.38.5-1.82,1.41-4.29.9-2.48,1.49-5.22,1.75-8.23l1.75-20.34c.1-1.15-.02-2.12-.38-2.89-.35-.78-.81-1.24-1.36-1.38-1.29-.33-2.34.7-3.16,3.1l-5.55,17.2c-.87,2.59-1.21,4.95-1.01,7.1.19,2.14.51,3.89.94,5.25.43,1.36.52,2.39.27,3.11-.66,2.05-2.19,2.77-4.58,2.15l-7.81-2.03c-2.45-.64-3.31-1.97-2.59-4.01.14-.55.86-2.06,2.16-4.54,1.3-2.48,2.41-5.13,3.34-7.96l6.87-21.17c.89-2.91,1.54-5.73,1.96-8.47.42-2.74.67-4.29.77-4.66.72-2.03,2.25-2.75,4.58-2.15Z"/>
    <path class="cls-1" d="M441.06,391.96c5.94,1.54,10.03,4.36,12.28,8.44,2.24,4.08,2.78,8.36,1.62,12.83-.99,3.8-2.88,6.74-5.68,8.83-2.8,2.09-5.6,3.32-8.42,3.7-2.81.38-6,.75-9.56,1.1-3.56.35-6.03.8-7.42,1.36-.62,2.65-1.07,5.33-1.35,8.04-.28,2.71-.48,4.31-.61,4.8-.54,2.08-2.01,2.81-4.4,2.19l-9.74-2.53c-2.39-.62-3.31-1.97-2.77-4.06.11-.43.78-2.1,1.99-5.03,1.22-2.92,2.2-5.82,2.95-8.7.7-2.7,1.87-4.75,3.51-6.15,1.64-1.4,3.46-2.05,5.45-1.92-1.8-.86-3.08-2.29-3.84-4.28-.76-1.99-.79-4.34-.08-7.04.76-2.94,1.32-5.97,1.67-9.08.35-3.11.58-4.88.69-5.31.54-2.08,2.01-2.81,4.4-2.19l19.3,5.01ZM425.66,421.41c.34-.04,1.13-.2,2.38-.46,1.25-.26,2.08-.44,2.49-.53.42-.09,1.14-.29,2.17-.61,1.03-.32,1.76-.61,2.18-.86.42-.25,1.03-.63,1.82-1.15.79-.52,1.39-1.06,1.8-1.64.41-.58.84-1.29,1.29-2.12.44-.83.8-1.74,1.05-2.72.89-3.43.71-6.32-.54-8.68-1.25-2.35-4.05-4.1-8.4-5.23l-6.23,23.99Z"/>
    <path class="cls-1" d="M486.28,403.71c6,1.56,10.13,4.38,12.37,8.46,2.24,4.08,2.78,8.36,1.62,12.83-1.81,6.98-6.87,11.2-15.16,12.64.99,4.51,2.62,9.04,4.91,13.59,2.28,4.55,3.53,7.18,3.74,7.89.3,1.12.17,2.01-.39,2.65-.56.64-1.39.82-2.49.53l-12.41-3.22c-1.59-.41-2.65-1.18-3.18-2.3-.53-1.12-.68-2.73-.46-4.83.27-2.55,1.35-7.07,3.23-13.58-4.52.53-7.5,1.06-8.95,1.6-.62,2.39-1.05,4.93-1.29,7.61-.24,2.68-.46,4.43-.67,5.22-.54,2.08-1.98,2.82-4.3,2.22l-9.83-2.55c-2.33-.61-3.22-1.95-2.68-4.03.11-.43.78-2.1,1.99-5.03,1.22-2.92,2.2-5.82,2.95-8.7.7-2.7,1.86-4.75,3.47-6.16,1.61-1.41,3.41-2.06,5.41-1.93-1.8-.86-3.07-2.28-3.8-4.27-.73-1.99-.74-4.33-.04-7.02.76-2.94,1.32-5.97,1.67-9.08.35-3.11.58-4.88.69-5.31.54-2.08,1.97-2.82,4.3-2.22l19.3,5.01ZM477.11,409.17l-6.23,23.99c.42-.09,1.21-.26,2.39-.51,1.18-.25,1.99-.42,2.43-.5.45-.08,1.18-.28,2.22-.6,1.03-.32,1.78-.62,2.24-.89.46-.27,1.08-.65,1.86-1.13.78-.49,1.38-1.02,1.79-1.6.41-.58.84-1.29,1.29-2.12.44-.83.8-1.74,1.05-2.72.89-3.43.71-6.32-.54-8.68-1.25-2.35-4.08-4.1-8.5-5.25Z"/>
    <path class="cls-1" d="M529.14,422.99c-2.7-.7-5.23.24-7.6,2.83-2.37,2.59-4.29,6.18-5.74,10.77l.74.19c1.1.29,3.3.53,6.58.73,3.28.2,5.51.45,6.67.75,1.41.37,2.34.89,2.78,1.56.45.67.49,1.71.12,3.12l-.72,2.76c-.37,1.41-.91,2.3-1.63,2.67-.72.37-1.78.37-3.19,0-1.16-.3-3.23-1.17-6.19-2.59-2.97-1.42-5-2.28-6.1-2.57l-.74-.19c-.97,4.72-1.04,8.79-.23,12.2.81,3.42,2.57,5.47,5.26,6.17,1.04.27,2.18.04,3.41-.68,1.23-.72,2.36-1.59,3.37-2.61,1.01-1.01,2.29-1.84,3.83-2.49,1.54-.65,3.11-.76,4.7-.35,2.02.53,3.5,1.64,4.43,3.36s1.08,3.76.46,6.15c-.81,3.13-2.91,5.23-6.3,6.31-3.39,1.08-7.81.91-13.26-.5-8.21-2.13-14.06-6.07-17.53-11.81-3.48-5.74-4-13.3-1.56-22.68s6.57-15.72,12.4-19.05c5.83-3.32,12.86-3.92,21.07-1.79,5.45,1.42,9.4,3.42,11.83,6.02,2.43,2.59,3.24,5.45,2.43,8.58-.62,2.39-1.75,4.11-3.4,5.15s-3.48,1.3-5.5.78c-1.59-.41-2.91-1.28-3.94-2.59-1.03-1.31-1.75-2.66-2.14-4.04-.39-1.38-.96-2.68-1.68-3.92-.73-1.23-1.61-1.99-2.65-2.26Z"/>
    <path class="cls-1" d="M599.51,436.47c-.11.43-.7,1.83-1.78,4.2-1.07,2.37-1.98,5-2.73,7.87l-5.87,22.61c-.76,2.94-1.25,5.71-1.47,8.3-.22,2.59-.38,4.1-.49,4.53-.54,2.08-2.01,2.81-4.4,2.19l-9.74-2.53c-2.39-.62-3.31-1.97-2.77-4.06.11-.43.7-1.83,1.78-4.2,1.07-2.37,1.99-5.03,2.76-7.97l4.04-15.53c.54-2.08.6-3.9.19-5.44-.42-1.55-.73-2.94-.93-4.17-.2-1.23.16-2.64,1.1-4.23l2.62-4.42c1.99-2.88,4.43-3.95,7.31-3.2l7.63,1.98c2.39.62,3.31,1.97,2.77,4.06Z"/>
    <path class="cls-1" d="M229.97,478.4c4.18,1.09,7.13,3.53,8.86,7.32,1.72,3.8,1.91,8.28.57,13.46-1.66,6.37-6.16,10.3-13.51,11.79-7.35,1.49-16.8.74-28.35-2.26-10.95-2.85-18.94-6.99-23.95-12.44-5.02-5.45-6.49-12.15-4.42-20.12,1.34-5.18,3.55-9.25,6.61-12.23,3.06-2.98,6.78-4.53,11.18-4.67-4.03-1.68-6.61-4.64-7.74-8.87-1.13-4.23-1-9.03.39-14.4,1.24-4.78,1.96-8.98,2.16-12.59.19-3.62.38-5.77.56-6.47.88-3.38,3.26-4.57,7.14-3.56l24.04,6.25c3.88,1.01,5.38,3.21,4.51,6.59-.18.7-1.09,2.67-2.73,5.91-1.64,3.24-3.08,7.25-4.32,12.03l-5.94,22.85c-.54,2.09-.96,3.79-1.24,5.1-.29,1.31-.65,2.91-1.09,4.82-.44,1.91-.69,3.46-.74,4.67-.05,1.21-.05,2.43,0,3.67.05,1.24.3,2.21.76,2.91.45.7,1.08,1.16,1.88,1.36,1.29.34,2.84-.19,4.64-1.58,1.8-1.39,3.51-2.97,5.13-4.72,1.62-1.76,3.86-3.19,6.7-4.32,2.84-1.12,5.81-1.28,8.89-.48Z"/>
    <path class="cls-1" d="M294.96,460.21c-2.29-.6-4.59.59-6.9,3.55-2.31,2.96-4.42,7.28-6.31,12.95l1.05.27c1.79.47,4.52.62,8.17.45,3.66-.17,6.38-.02,8.17.45,2.29.59,3.76,1.59,4.41,2.98.65,1.39.61,3.48-.11,6.27l-1.16,4.48c-.72,2.79-1.7,4.61-2.93,5.45-1.23.85-2.99.98-5.28.38-1.79-.47-4.25-1.64-7.38-3.51-3.13-1.87-5.59-3.05-7.38-3.51l-1.05-.27c-1.1,5.88-1.36,10.65-.77,14.31.59,3.66,2.03,5.79,4.32,6.38,1.29.34,2.83-.17,4.62-1.51,1.78-1.34,3.49-2.92,5.13-4.72,1.64-1.81,3.87-3.24,6.7-4.32,2.83-1.07,5.79-1.21,8.87-.4,4.18,1.09,7.16,3.51,8.95,7.27,1.79,3.76,2.01,8.23.66,13.4-3.31,12.75-15.22,16.45-35.73,11.12-13.94-3.62-23.94-9.81-30.01-18.56-6.07-8.75-6.96-21.39-2.66-37.92,4.29-16.53,11.22-27.14,20.78-31.83,9.56-4.69,21.31-5.22,35.25-1.6,9.86,2.56,17.07,5.98,21.65,10.25,4.57,4.27,5.96,9.89,4.15,16.86-1.35,5.18-3.71,8.97-7.1,11.39-3.39,2.41-7.18,3.08-11.36,1.99-3.09-.8-5.6-2.38-7.53-4.75-1.94-2.36-3.19-4.71-3.75-7.03-.57-2.32-1.29-4.53-2.18-6.63-.89-2.09-1.99-3.31-3.28-3.64Z"/>
    <path class="cls-1" d="M373.91,461.28c4.78,1.24,6.93,3.61,6.45,7.1-.16,1.02-.92,2.39-2.26,4.11-1.35,1.72-2.49,3.53-3.4,5.41-.92,1.89-1.52,5.24-1.81,10.05l-.35,33.87c-.08,2.74.68,4.32,2.28,4.74,1.09.28,2.3-.04,3.6-.98,1.3-.94,2.48-2.38,3.52-4.35,1.87-3.13,3.12-7.42,3.75-12.9.62-5.47.22-10.36-1.21-14.66-2.67-8.13-1.98-14.76,2.05-19.87,4.04-5.11,10.09-6.62,18.16-4.53,6.67,1.73,10.99,4.42,12.97,8.07,1.97,3.65,2.56,8.66,1.75,15.04-.67,5.04-2.89,11.23-6.66,18.59-3.77,7.36-8.25,14.36-13.42,20.98-5.18,6.63-11.05,11.95-17.62,15.99-6.57,4.03-12.55,5.35-17.93,3.95l-11.2-2.91c-8.46-2.2-12.63-7.64-12.5-16.32l.11-12.09c0-2.02.16-4,.5-5.93.34-1.93.94-3.92,1.8-5.99.85-2.06,2.18-3.68,3.97-4.87,1.79-1.18,3.94-1.66,6.43-1.44-3.06-1.33-5.48-2.75-7.26-4.28-1.78-1.52-3.02-3.41-3.71-5.67-.69-2.25-1.08-4.11-1.18-5.57s-.13-3.89-.1-7.28c.07-5.19-.64-10.02-2.13-14.5-1.49-4.48-2.25-6.88-2.27-7.21-.46-4.37,1.25-6.05,5.14-5.04l32.56,8.46Z"/>
    <path class="cls-1" d="M464.16,504.17c-2.29-.6-4.59.59-6.9,3.55-2.31,2.96-4.42,7.28-6.31,12.95l1.05.27c1.79.47,4.52.62,8.17.45,3.66-.17,6.38-.02,8.17.45,2.29.59,3.76,1.59,4.41,2.98.65,1.39.61,3.48-.11,6.27l-1.16,4.48c-.72,2.79-1.7,4.61-2.93,5.45-1.23.85-2.99.98-5.28.38-1.79-.47-4.25-1.64-7.38-3.51-3.13-1.87-5.59-3.05-7.38-3.51l-1.05-.27c-1.1,5.88-1.36,10.65-.77,14.31.59,3.66,2.03,5.79,4.32,6.38,1.29.34,2.83-.17,4.62-1.51,1.78-1.34,3.49-2.92,5.13-4.72,1.64-1.81,3.87-3.24,6.7-4.32,2.83-1.07,5.79-1.21,8.87-.4,4.18,1.09,7.16,3.51,8.95,7.27,1.79,3.76,2.01,8.23.66,13.4-3.31,12.75-15.22,16.45-35.73,11.12-13.94-3.62-23.94-9.81-30.01-18.56-6.07-8.75-6.96-21.39-2.66-37.92,4.29-16.53,11.22-27.14,20.78-31.83,9.56-4.69,21.31-5.22,35.25-1.6,9.86,2.56,17.07,5.98,21.65,10.25,4.57,4.27,5.96,9.89,4.15,16.86-1.35,5.18-3.71,8.97-7.1,11.39-3.39,2.41-7.18,3.08-11.36,1.99-3.09-.8-5.6-2.38-7.53-4.75-1.94-2.36-3.19-4.71-3.75-7.03-.57-2.32-1.29-4.53-2.18-6.63-.89-2.09-1.99-3.31-3.28-3.64Z"/>
    <path class="cls-1" d="M617.64,552.18c-.98,3.78-2.97,7.23-5.95,10.33-2.99,3.11-6.4,5.72-10.25,7.86-3.85,2.14-7.73,4.08-11.64,5.82-3.91,1.75-7.64,3.54-11.2,5.38-3.56,1.84-6.16,3.66-7.8,5.47,3.38.88,8.91.08,16.56-2.39,7.66-2.47,12.88-3.35,15.67-2.62,4.28,1.11,5.68,4.51,4.21,10.18l-3.3,12.69c-.72,2.79-2.26,4.7-4.6,5.74-2.34,1.04-5.26,1.1-8.74.2l-52.12-13.54c-3.39-.88-5.83-2.39-7.35-4.54-1.51-2.15-1.88-4.71-1.11-7.7,1.24-4.78,3.87-8.98,7.9-12.61,4.02-3.63,8.48-6.48,13.38-8.56,4.9-2.08,9.76-4.03,14.59-5.85,4.83-1.83,9.08-3.86,12.74-6.09,3.66-2.24,5.86-4.75,6.58-7.54.57-2.19.49-4.23-.24-6.12-.73-1.89-1.94-3.05-3.64-3.49s-3.51.2-5.44,1.93c-1.94,1.73-3.69,3.77-5.26,6.13-1.57,2.36-3.67,4.31-6.3,5.85-2.63,1.55-5.5,1.92-8.58,1.12-4.38-1.14-7.66-3.64-9.85-7.5-2.19-3.86-2.48-8.88-.87-15.05,1.76-6.77,6.69-11.12,14.79-13.06,8.1-1.93,18.17-1.34,30.22,1.79,10.45,2.72,18.23,7.24,23.34,13.56,5.1,6.32,6.52,13.87,4.24,22.63Z"/>
  </g>
</svg>