<svg width="126" height="20" viewBox="0 0 126 20" fill="none" xmlns="http://www.w3.org/2000/svg">
<mask id="path-1-outside-1_17103_394" maskUnits="userSpaceOnUse" x="-0.0117188" y="-0.834351" width="126" height="20" fill="black">
<rect fill="white" x="-0.0117188" y="-0.834351" width="126" height="20"/>
<path d="M15.4774 2.69691C15.7831 2.69691 15.9869 2.85993 15.9869 3.12485V3.20637C15.9869 3.8381 15.0495 4.14378 15.0495 5.14233V16.106C15.0495 16.7785 14.6623 17.1656 13.9898 17.1656H12.6652C12.1149 17.1656 11.8093 16.8804 11.4832 16.4524L4.59528 7.40434V14.7202C4.59528 15.7188 5.57345 16.0245 5.57345 16.6562V16.7377C5.57345 17.0026 5.36966 17.1656 5.06398 17.1656H2.23137C1.92569 17.1656 1.72191 17.0026 1.72191 16.7377V16.6562C1.72191 16.0245 2.55743 15.7188 2.55743 14.7202V5.14233C2.55743 4.14378 1.72191 3.8381 1.72191 3.20637V3.12485C1.72191 2.85993 1.92569 2.69691 2.23137 2.69691H5.69572C6.24594 2.69691 6.53124 2.94145 6.87767 3.41015L13.0116 11.9284V5.14233C13.0116 4.14378 12.0946 3.8381 12.0946 3.20637V3.12485C12.0946 2.85993 12.2984 2.69691 12.604 2.69691H15.4774ZM26.4633 14.7814C26.6671 16.2894 27.4619 15.9633 27.4619 16.5543C27.4619 17.1453 26.1169 17.2879 24.9146 17.2879C23.6103 17.2879 22.999 17.0434 22.8156 16.3913C22.3876 16.9211 21.6132 17.3694 20.309 17.3694C18.1489 17.3694 16.4371 16.3913 16.4371 14.2719C16.4371 12.1933 18.1897 11.1336 20.0849 11.1336C20.8796 11.1336 21.5317 11.2966 22.0412 11.5819C21.7967 9.21803 21.7763 8.23986 20.8592 8.23986C19.6569 8.23986 20.2886 11.0725 18.2712 11.0725C17.3134 11.0725 16.6613 10.4815 16.6613 9.60522C16.6613 7.79153 18.8214 7.18018 20.8592 7.18018C23.6511 7.18018 25.6686 8.7697 25.9946 11.2559L26.4633 14.7814ZM21.6132 16.2282C22.1227 16.2282 22.3876 15.4742 22.3469 14.9036L22.2654 13.9458C22.1023 12.6824 21.654 12.3156 21.2668 12.3156C20.8592 12.3156 20.5739 12.7843 20.5739 13.4771C20.5739 14.9444 20.9408 16.2282 21.6132 16.2282ZM39.1281 14.7406C39.2096 15.7392 39.8617 16.0448 39.8617 16.6766V16.7581C39.8617 17.023 39.6579 17.186 39.3523 17.186H34.8486C34.5429 17.186 34.3391 17.023 34.3391 16.7581V16.6766C34.3391 16.0448 35.1339 15.7392 35.0728 14.7406L34.869 11.2151C34.7671 9.31992 34.5429 8.66781 33.7482 8.66781C33.0145 8.66781 32.7496 9.36068 32.7496 10.4204V14.7406C32.7496 15.7392 33.687 16.0448 33.687 16.6766V16.7581C33.687 17.023 33.4833 17.186 33.1776 17.186H28.2664C27.9607 17.186 27.7569 17.023 27.7569 16.7581V16.6766C27.7569 16.0448 28.6943 15.7392 28.6943 14.7406V11.2966C28.6943 10.2981 27.5531 10.1147 27.5531 9.48295V9.40144C27.5531 9.13652 27.7773 9.01424 28.0829 8.85122L31.2824 7.26169C31.8326 6.97639 32.1179 7.36358 32.1179 7.79153V8.62705C32.6477 7.68964 33.6463 7.18018 34.9709 7.18018C36.6827 7.18018 38.5983 8.07683 38.8632 11.3578L39.1281 14.7406ZM50.8652 14.7202C50.8652 15.7188 51.7007 16.0245 51.7007 16.6562V16.7377C51.7007 17.0026 51.4969 17.1656 51.1912 17.1656H47.951C47.625 17.1656 47.3804 16.9619 47.3601 16.6358C46.7895 17.1045 45.9743 17.3694 45.0573 17.3694C42.6119 17.3694 40.2276 15.6984 40.2276 12.2748C40.2276 9.21803 42.5507 7.18018 45.0573 7.18018C45.8317 7.18018 46.443 7.32283 46.9321 7.60813V5.30536C46.9321 4.30681 45.7909 4.14378 45.7909 3.51205V3.45091C45.7909 3.18599 45.9947 2.94145 46.3004 2.85993L49.887 1.80025C50.5391 1.61684 50.8652 1.73912 50.8652 2.33009V14.7202ZM45.9743 16.2894C46.5449 16.3098 46.9321 15.7799 46.9321 14.9444V10.7464C46.9321 9.44219 46.1577 8.26024 45.4037 8.26024C44.609 8.26024 44.2421 8.97349 44.181 10.3796C44.0995 11.6838 44.5886 16.2079 45.9743 16.2894ZM62.2507 14.7814C62.4545 16.2894 63.2493 15.9633 63.2493 16.5543C63.2493 17.1453 61.9043 17.2879 60.7019 17.2879C59.3977 17.2879 58.7864 17.0434 58.603 16.3913C58.175 16.9211 57.4006 17.3694 56.0964 17.3694C53.9363 17.3694 52.2245 16.3913 52.2245 14.2719C52.2245 12.1933 53.977 11.1336 55.8722 11.1336C56.667 11.1336 57.3191 11.2966 57.8286 11.5819C57.584 9.21803 57.5636 8.23986 56.6466 8.23986C55.4443 8.23986 56.076 11.0725 54.0585 11.0725C53.1008 11.0725 52.4486 10.4815 52.4486 9.60522C52.4486 7.79153 54.6088 7.18018 56.6466 7.18018C59.4385 7.18018 61.4559 8.7697 61.782 11.2559L62.2507 14.7814ZM57.4006 16.2282C57.9101 16.2282 58.175 15.4742 58.1342 14.9036L58.0527 13.9458C57.8897 12.6824 57.4414 12.3156 57.0542 12.3156C56.6466 12.3156 56.3613 12.7843 56.3613 13.4771C56.3613 14.9444 56.7281 16.2282 57.4006 16.2282ZM67.9354 17.1656C67.6297 17.1656 67.4259 17.0026 67.4259 16.7377V16.6562C67.4259 16.0245 68.2614 15.7188 68.2614 14.7202V5.14233C68.2614 4.14378 67.4259 3.8381 67.4259 3.20637V3.12485C67.4259 2.85993 67.6297 2.69691 67.9354 2.69691H73.356C77.1261 2.69691 79.8772 4.1234 79.8772 7.56737C79.8772 10.6038 77.554 12.662 74.0693 12.662H72.5001V14.7202C72.5001 15.7188 73.4375 16.0245 73.4375 16.6562V16.7377C73.4375 17.0026 73.2338 17.1656 72.9281 17.1656H67.9354ZM73.4987 11.0929H74.0693C75.1086 11.0929 75.5162 9.80901 75.5162 8.54554C75.5162 5.95747 74.3342 4.26605 73.356 4.26605H73.2949C72.7854 4.26605 72.5001 4.65324 72.5001 5.32573V10.0332C72.5001 10.7057 72.7651 11.0929 73.4987 11.0929ZM88.2086 13.8643C88.5143 13.5587 89.0034 13.7013 89.0034 14.17C89.0034 15.2704 87.5769 17.3694 84.8666 17.3694C81.8302 17.3694 79.7515 15.2908 79.7515 12.2137C79.7515 9.15689 82.1562 7.18018 84.8054 7.18018C87.5158 7.18018 88.7385 8.66781 88.7385 9.89052C88.7385 10.4407 88.4532 10.8279 88.0456 11.0929L84.3571 13.4975C84.8666 14.1496 85.5594 14.5164 86.3949 14.5164C87.1082 14.5164 87.8622 14.2108 88.2086 13.8643ZM84.4794 8.28062C83.8069 8.28062 83.3993 9.07538 83.3993 9.93128C83.3993 10.8483 83.5216 11.6635 83.7661 12.3563L85.0703 11.3985C85.3964 11.154 85.6002 10.726 85.6002 10.2777C85.6002 9.70711 85.4372 8.28062 84.4794 8.28062ZM96.8349 7.18018C98.0373 7.18018 98.7505 8.09721 98.7505 9.31992C98.7505 10.4611 98.343 11.48 96.998 11.48C94.9194 11.48 95.8364 9.44219 94.8786 9.44219C94.4507 9.44219 94.3895 10.0739 94.3895 10.7057V14.7202C94.3895 15.7188 95.5307 16.0245 95.5307 16.6562V16.7377C95.5307 17.0026 95.3269 17.1656 95.0213 17.1656H90.1508C89.8451 17.1656 89.6413 17.0026 89.6413 16.7377V16.6562C89.6413 16.0245 90.4768 15.7188 90.4768 14.7202V11.2355C90.4768 10.237 89.4375 10.1351 89.4375 9.50333V9.42181C89.4375 9.15689 89.621 8.95311 89.947 8.79008L93.1872 7.26169C93.7578 6.99677 93.9616 7.32283 93.9616 7.75078V9.23841C94.3895 7.9138 95.3473 7.18018 96.8349 7.18018ZM101.963 6.38542C100.415 6.38542 99.3753 5.38687 99.3753 4.1234C99.3753 2.85993 100.415 1.88176 101.963 1.88176C103.512 1.88176 104.551 2.85993 104.551 4.1234C104.551 5.38687 103.512 6.38542 101.963 6.38542ZM99.5179 17.1656C99.2122 17.1656 99.0084 17.0026 99.0084 16.7377V16.6562C99.0084 16.0245 99.844 15.7188 99.844 14.7202V11.4393C99.844 10.4407 99.0084 10.1351 99.0084 9.58484V9.50333C99.0084 9.25879 99.2122 9.13652 99.5179 8.99387L103.003 7.28207C103.614 6.97639 104.001 7.34321 104.001 7.75078V14.7202C104.001 15.7188 104.939 16.0245 104.939 16.6562V16.7377C104.939 17.0026 104.735 17.1656 104.429 17.1656H99.5179ZM122.935 14.7406C123.017 15.7392 123.669 16.0448 123.669 16.6766V16.7581C123.669 17.023 123.465 17.186 123.16 17.186H118.656C118.35 17.186 118.146 17.023 118.146 16.7581V16.6766C118.146 16.0448 118.941 15.7392 118.88 14.7406L118.676 11.2151C118.574 9.3403 118.289 8.66781 117.576 8.66781C116.883 8.66781 116.618 9.40144 116.618 10.4C116.659 10.6649 116.679 10.9298 116.679 11.2355V14.7406C116.679 15.7392 117.413 16.0448 117.413 16.6766V16.7581C117.413 17.023 117.209 17.186 116.903 17.186H112.4C112.094 17.186 111.89 17.023 111.89 16.7581V16.6766C111.89 16.0448 112.624 15.7392 112.624 14.7406V10.9502C112.624 9.36068 112.237 8.66781 111.523 8.66781C110.729 8.66781 110.464 9.38106 110.464 10.3592V14.7406C110.464 15.7392 111.401 16.0448 111.401 16.6766V16.7581C111.401 17.023 111.197 17.186 110.892 17.186H105.98C105.675 17.186 105.471 17.023 105.471 16.7581V16.6766C105.471 16.0448 106.408 15.7392 106.408 14.7406V11.2966C106.408 10.2981 105.267 10.1147 105.267 9.48295V9.40144C105.267 9.13652 105.491 8.99387 105.797 8.85122L109.241 7.26169C109.791 6.99677 110.077 7.36358 110.077 7.79153V8.34175C110.668 7.62851 111.585 7.18018 112.685 7.18018C114.071 7.18018 115.273 7.68964 115.986 8.72894C116.557 7.7304 117.637 7.18018 118.941 7.18018C120.612 7.18018 122.406 8.07683 122.67 11.3578L122.935 14.7406Z"/>
</mask>
<path d="M15.4774 2.69691C15.7831 2.69691 15.9869 2.85993 15.9869 3.12485V3.20637C15.9869 3.8381 15.0495 4.14378 15.0495 5.14233V16.106C15.0495 16.7785 14.6623 17.1656 13.9898 17.1656H12.6652C12.1149 17.1656 11.8093 16.8804 11.4832 16.4524L4.59528 7.40434V14.7202C4.59528 15.7188 5.57345 16.0245 5.57345 16.6562V16.7377C5.57345 17.0026 5.36966 17.1656 5.06398 17.1656H2.23137C1.92569 17.1656 1.72191 17.0026 1.72191 16.7377V16.6562C1.72191 16.0245 2.55743 15.7188 2.55743 14.7202V5.14233C2.55743 4.14378 1.72191 3.8381 1.72191 3.20637V3.12485C1.72191 2.85993 1.92569 2.69691 2.23137 2.69691H5.69572C6.24594 2.69691 6.53124 2.94145 6.87767 3.41015L13.0116 11.9284V5.14233C13.0116 4.14378 12.0946 3.8381 12.0946 3.20637V3.12485C12.0946 2.85993 12.2984 2.69691 12.604 2.69691H15.4774ZM26.4633 14.7814C26.6671 16.2894 27.4619 15.9633 27.4619 16.5543C27.4619 17.1453 26.1169 17.2879 24.9146 17.2879C23.6103 17.2879 22.999 17.0434 22.8156 16.3913C22.3876 16.9211 21.6132 17.3694 20.309 17.3694C18.1489 17.3694 16.4371 16.3913 16.4371 14.2719C16.4371 12.1933 18.1897 11.1336 20.0849 11.1336C20.8796 11.1336 21.5317 11.2966 22.0412 11.5819C21.7967 9.21803 21.7763 8.23986 20.8592 8.23986C19.6569 8.23986 20.2886 11.0725 18.2712 11.0725C17.3134 11.0725 16.6613 10.4815 16.6613 9.60522C16.6613 7.79153 18.8214 7.18018 20.8592 7.18018C23.6511 7.18018 25.6686 8.7697 25.9946 11.2559L26.4633 14.7814ZM21.6132 16.2282C22.1227 16.2282 22.3876 15.4742 22.3469 14.9036L22.2654 13.9458C22.1023 12.6824 21.654 12.3156 21.2668 12.3156C20.8592 12.3156 20.5739 12.7843 20.5739 13.4771C20.5739 14.9444 20.9408 16.2282 21.6132 16.2282ZM39.1281 14.7406C39.2096 15.7392 39.8617 16.0448 39.8617 16.6766V16.7581C39.8617 17.023 39.6579 17.186 39.3523 17.186H34.8486C34.5429 17.186 34.3391 17.023 34.3391 16.7581V16.6766C34.3391 16.0448 35.1339 15.7392 35.0728 14.7406L34.869 11.2151C34.7671 9.31992 34.5429 8.66781 33.7482 8.66781C33.0145 8.66781 32.7496 9.36068 32.7496 10.4204V14.7406C32.7496 15.7392 33.687 16.0448 33.687 16.6766V16.7581C33.687 17.023 33.4833 17.186 33.1776 17.186H28.2664C27.9607 17.186 27.7569 17.023 27.7569 16.7581V16.6766C27.7569 16.0448 28.6943 15.7392 28.6943 14.7406V11.2966C28.6943 10.2981 27.5531 10.1147 27.5531 9.48295V9.40144C27.5531 9.13652 27.7773 9.01424 28.0829 8.85122L31.2824 7.26169C31.8326 6.97639 32.1179 7.36358 32.1179 7.79153V8.62705C32.6477 7.68964 33.6463 7.18018 34.9709 7.18018C36.6827 7.18018 38.5983 8.07683 38.8632 11.3578L39.1281 14.7406ZM50.8652 14.7202C50.8652 15.7188 51.7007 16.0245 51.7007 16.6562V16.7377C51.7007 17.0026 51.4969 17.1656 51.1912 17.1656H47.951C47.625 17.1656 47.3804 16.9619 47.3601 16.6358C46.7895 17.1045 45.9743 17.3694 45.0573 17.3694C42.6119 17.3694 40.2276 15.6984 40.2276 12.2748C40.2276 9.21803 42.5507 7.18018 45.0573 7.18018C45.8317 7.18018 46.443 7.32283 46.9321 7.60813V5.30536C46.9321 4.30681 45.7909 4.14378 45.7909 3.51205V3.45091C45.7909 3.18599 45.9947 2.94145 46.3004 2.85993L49.887 1.80025C50.5391 1.61684 50.8652 1.73912 50.8652 2.33009V14.7202ZM45.9743 16.2894C46.5449 16.3098 46.9321 15.7799 46.9321 14.9444V10.7464C46.9321 9.44219 46.1577 8.26024 45.4037 8.26024C44.609 8.26024 44.2421 8.97349 44.181 10.3796C44.0995 11.6838 44.5886 16.2079 45.9743 16.2894ZM62.2507 14.7814C62.4545 16.2894 63.2493 15.9633 63.2493 16.5543C63.2493 17.1453 61.9043 17.2879 60.7019 17.2879C59.3977 17.2879 58.7864 17.0434 58.603 16.3913C58.175 16.9211 57.4006 17.3694 56.0964 17.3694C53.9363 17.3694 52.2245 16.3913 52.2245 14.2719C52.2245 12.1933 53.977 11.1336 55.8722 11.1336C56.667 11.1336 57.3191 11.2966 57.8286 11.5819C57.584 9.21803 57.5636 8.23986 56.6466 8.23986C55.4443 8.23986 56.076 11.0725 54.0585 11.0725C53.1008 11.0725 52.4486 10.4815 52.4486 9.60522C52.4486 7.79153 54.6088 7.18018 56.6466 7.18018C59.4385 7.18018 61.4559 8.7697 61.782 11.2559L62.2507 14.7814ZM57.4006 16.2282C57.9101 16.2282 58.175 15.4742 58.1342 14.9036L58.0527 13.9458C57.8897 12.6824 57.4414 12.3156 57.0542 12.3156C56.6466 12.3156 56.3613 12.7843 56.3613 13.4771C56.3613 14.9444 56.7281 16.2282 57.4006 16.2282ZM67.9354 17.1656C67.6297 17.1656 67.4259 17.0026 67.4259 16.7377V16.6562C67.4259 16.0245 68.2614 15.7188 68.2614 14.7202V5.14233C68.2614 4.14378 67.4259 3.8381 67.4259 3.20637V3.12485C67.4259 2.85993 67.6297 2.69691 67.9354 2.69691H73.356C77.1261 2.69691 79.8772 4.1234 79.8772 7.56737C79.8772 10.6038 77.554 12.662 74.0693 12.662H72.5001V14.7202C72.5001 15.7188 73.4375 16.0245 73.4375 16.6562V16.7377C73.4375 17.0026 73.2338 17.1656 72.9281 17.1656H67.9354ZM73.4987 11.0929H74.0693C75.1086 11.0929 75.5162 9.80901 75.5162 8.54554C75.5162 5.95747 74.3342 4.26605 73.356 4.26605H73.2949C72.7854 4.26605 72.5001 4.65324 72.5001 5.32573V10.0332C72.5001 10.7057 72.7651 11.0929 73.4987 11.0929ZM88.2086 13.8643C88.5143 13.5587 89.0034 13.7013 89.0034 14.17C89.0034 15.2704 87.5769 17.3694 84.8666 17.3694C81.8302 17.3694 79.7515 15.2908 79.7515 12.2137C79.7515 9.15689 82.1562 7.18018 84.8054 7.18018C87.5158 7.18018 88.7385 8.66781 88.7385 9.89052C88.7385 10.4407 88.4532 10.8279 88.0456 11.0929L84.3571 13.4975C84.8666 14.1496 85.5594 14.5164 86.3949 14.5164C87.1082 14.5164 87.8622 14.2108 88.2086 13.8643ZM84.4794 8.28062C83.8069 8.28062 83.3993 9.07538 83.3993 9.93128C83.3993 10.8483 83.5216 11.6635 83.7661 12.3563L85.0703 11.3985C85.3964 11.154 85.6002 10.726 85.6002 10.2777C85.6002 9.70711 85.4372 8.28062 84.4794 8.28062ZM96.8349 7.18018C98.0373 7.18018 98.7505 8.09721 98.7505 9.31992C98.7505 10.4611 98.343 11.48 96.998 11.48C94.9194 11.48 95.8364 9.44219 94.8786 9.44219C94.4507 9.44219 94.3895 10.0739 94.3895 10.7057V14.7202C94.3895 15.7188 95.5307 16.0245 95.5307 16.6562V16.7377C95.5307 17.0026 95.3269 17.1656 95.0213 17.1656H90.1508C89.8451 17.1656 89.6413 17.0026 89.6413 16.7377V16.6562C89.6413 16.0245 90.4768 15.7188 90.4768 14.7202V11.2355C90.4768 10.237 89.4375 10.1351 89.4375 9.50333V9.42181C89.4375 9.15689 89.621 8.95311 89.947 8.79008L93.1872 7.26169C93.7578 6.99677 93.9616 7.32283 93.9616 7.75078V9.23841C94.3895 7.9138 95.3473 7.18018 96.8349 7.18018ZM101.963 6.38542C100.415 6.38542 99.3753 5.38687 99.3753 4.1234C99.3753 2.85993 100.415 1.88176 101.963 1.88176C103.512 1.88176 104.551 2.85993 104.551 4.1234C104.551 5.38687 103.512 6.38542 101.963 6.38542ZM99.5179 17.1656C99.2122 17.1656 99.0084 17.0026 99.0084 16.7377V16.6562C99.0084 16.0245 99.844 15.7188 99.844 14.7202V11.4393C99.844 10.4407 99.0084 10.1351 99.0084 9.58484V9.50333C99.0084 9.25879 99.2122 9.13652 99.5179 8.99387L103.003 7.28207C103.614 6.97639 104.001 7.34321 104.001 7.75078V14.7202C104.001 15.7188 104.939 16.0245 104.939 16.6562V16.7377C104.939 17.0026 104.735 17.1656 104.429 17.1656H99.5179ZM122.935 14.7406C123.017 15.7392 123.669 16.0448 123.669 16.6766V16.7581C123.669 17.023 123.465 17.186 123.16 17.186H118.656C118.35 17.186 118.146 17.023 118.146 16.7581V16.6766C118.146 16.0448 118.941 15.7392 118.88 14.7406L118.676 11.2151C118.574 9.3403 118.289 8.66781 117.576 8.66781C116.883 8.66781 116.618 9.40144 116.618 10.4C116.659 10.6649 116.679 10.9298 116.679 11.2355V14.7406C116.679 15.7392 117.413 16.0448 117.413 16.6766V16.7581C117.413 17.023 117.209 17.186 116.903 17.186H112.4C112.094 17.186 111.89 17.023 111.89 16.7581V16.6766C111.89 16.0448 112.624 15.7392 112.624 14.7406V10.9502C112.624 9.36068 112.237 8.66781 111.523 8.66781C110.729 8.66781 110.464 9.38106 110.464 10.3592V14.7406C110.464 15.7392 111.401 16.0448 111.401 16.6766V16.7581C111.401 17.023 111.197 17.186 110.892 17.186H105.98C105.675 17.186 105.471 17.023 105.471 16.7581V16.6766C105.471 16.0448 106.408 15.7392 106.408 14.7406V11.2966C106.408 10.2981 105.267 10.1147 105.267 9.48295V9.40144C105.267 9.13652 105.491 8.99387 105.797 8.85122L109.241 7.26169C109.791 6.99677 110.077 7.36358 110.077 7.79153V8.34175C110.668 7.62851 111.585 7.18018 112.685 7.18018C114.071 7.18018 115.273 7.68964 115.986 8.72894C116.557 7.7304 117.637 7.18018 118.941 7.18018C120.612 7.18018 122.406 8.07683 122.67 11.3578L122.935 14.7406Z" fill="#2260A1"/>
<path d="M11.4832 16.4524L10.1132 17.4953L10.1136 17.4959L11.4832 16.4524ZM4.59528 7.40434L5.9653 6.3614L2.87345 2.29991V7.40434H4.59528ZM6.87767 3.41015L8.27493 2.40399L8.26868 2.39531L8.26233 2.38671L6.87767 3.41015ZM13.0116 11.9284L11.6143 12.9345L14.7334 17.266V11.9284H13.0116ZM15.4774 2.69691V4.41874C15.3397 4.41874 15.0435 4.38208 14.7482 4.13738C14.4179 3.86369 14.265 3.47216 14.265 3.12486H15.9869H17.7087C17.7087 2.51263 17.454 1.90712 16.9453 1.48569C16.4717 1.09324 15.9208 0.975075 15.4774 0.975075V2.69691ZM15.9869 3.12486H14.265V3.20637H15.9869H17.7087V3.12486H15.9869ZM15.9869 3.20637H14.265C14.265 2.90586 14.3859 2.71288 14.4035 2.68621C14.4097 2.67681 14.4037 2.68727 14.3643 2.73488C14.2867 2.82845 14.3127 2.79421 14.1974 2.93214C13.8985 3.28954 13.3276 4.01471 13.3276 5.14233H15.0495H16.7713C16.7713 5.27139 16.6691 5.34446 16.8389 5.14144C16.8865 5.08454 17.1181 4.82473 17.2773 4.5837C17.4706 4.29083 17.7087 3.82275 17.7087 3.20637H15.9869ZM15.0495 5.14233H13.3276V16.106H15.0495H16.7713V5.14233H15.0495ZM15.0495 16.106H13.3276C13.3276 16.1151 13.3309 15.8938 13.5543 15.6705C13.7776 15.4471 13.9989 15.4438 13.9898 15.4438V17.1656V18.8875C14.6532 18.8875 15.4042 18.6906 15.9893 18.1055C16.5744 17.5204 16.7713 16.7694 16.7713 16.106H15.0495ZM13.9898 17.1656V15.4438H12.6652V17.1656V18.8875H13.9898V17.1656ZM12.6652 17.1656V15.4438C12.6792 15.4438 12.7254 15.4461 12.7903 15.4656C12.8563 15.4854 12.9113 15.5141 12.9497 15.5399C12.9842 15.563 12.9924 15.5752 12.9726 15.5545C12.9512 15.5321 12.9142 15.4895 12.8528 15.4089L11.4832 16.4524L10.1136 17.4959C10.3056 17.7479 10.6024 18.1118 11.0305 18.3991C11.5069 18.7189 12.0563 18.8875 12.6652 18.8875V17.1656ZM11.4832 16.4524L12.8532 15.4095L5.9653 6.3614L4.59528 7.40434L3.22525 8.44729L10.1132 17.4953L11.4832 16.4524ZM4.59528 7.40434H2.87345V14.7202H4.59528H6.31711V7.40434H4.59528ZM4.59528 14.7202H2.87345C2.87345 15.8736 3.48177 16.6081 3.78709 16.9579C3.90677 17.0951 3.88069 17.062 3.96128 17.1553C4.00274 17.2032 4.00923 17.2139 4.00274 17.2045C3.98569 17.1798 3.85162 16.9769 3.85162 16.6562H5.57345H7.29528C7.29528 16.0196 7.03893 15.5416 6.83848 15.2507C6.67255 15.0099 6.43171 14.751 6.38163 14.6936C6.19787 14.483 6.31711 14.5654 6.31711 14.7202H4.59528ZM5.57345 16.6562H3.85162V16.7377H5.57345H7.29528V16.6562H5.57345ZM5.57345 16.7377H3.85162C3.85162 16.3904 4.00447 15.9989 4.33479 15.7252C4.63011 15.4805 4.92626 15.4438 5.06398 15.4438V17.1656V18.8875C5.50738 18.8875 6.05826 18.7693 6.5319 18.3769C7.04053 17.9554 7.29528 17.3499 7.29528 16.7377H5.57345ZM5.06398 17.1656V15.4438H2.23137V17.1656V18.8875H5.06398V17.1656ZM2.23137 17.1656V15.4438C2.36909 15.4438 2.66524 15.4805 2.96057 15.7252C3.29089 15.9989 3.44374 16.3904 3.44374 16.7377H1.72191H7.66516e-05C7.66516e-05 17.3499 0.254822 17.9554 0.763451 18.3769C1.23709 18.7693 1.78797 18.8875 2.23137 18.8875V17.1656ZM1.72191 16.7377H3.44374V16.6562H1.72191H7.66516e-05V16.7377H1.72191ZM1.72191 16.6562H3.44374C3.44374 16.9061 3.3532 17.0723 3.33638 17.1009C3.33141 17.1094 3.33688 17.0989 3.37148 17.052C3.44098 16.9579 3.41633 16.9941 3.52014 16.8548C3.79885 16.481 4.27926 15.7822 4.27926 14.7202H2.55743H0.835596C0.835596 14.7232 0.835469 14.7146 0.838947 14.6986C0.842382 14.6828 0.846994 14.6705 0.849538 14.6647C0.851345 14.6606 0.84146 14.6863 0.759196 14.7967C0.716967 14.8533 0.509957 15.114 0.368535 15.3543C0.19505 15.6491 7.66516e-05 16.0904 7.66516e-05 16.6562H1.72191ZM2.55743 14.7202H4.27926V5.14233H2.55743H0.835596V14.7202H2.55743ZM2.55743 5.14233H4.27926C4.27926 4.08031 3.79885 3.3816 3.52014 3.00771C3.41633 2.86847 3.44098 2.90469 3.37148 2.81055C3.33688 2.76369 3.33141 2.75319 3.33638 2.76164C3.3532 2.79023 3.44374 2.95641 3.44374 3.20637H1.72191H7.66516e-05C7.66516e-05 3.77219 0.19505 4.21348 0.368535 4.50827C0.509957 4.74857 0.716967 5.00922 0.759196 5.06587C0.84146 5.17622 0.851345 5.20197 0.849538 5.19785C0.846994 5.19203 0.842382 5.17973 0.838947 5.16392C0.835469 5.14791 0.835596 5.13932 0.835596 5.14233H2.55743ZM1.72191 3.20637H3.44374V3.12486H1.72191H7.66516e-05V3.20637H1.72191ZM1.72191 3.12486H3.44374C3.44374 3.47216 3.29089 3.86369 2.96057 4.13738C2.66524 4.38208 2.36909 4.41874 2.23137 4.41874V2.69691V0.975075C1.78797 0.975075 1.23709 1.09324 0.76345 1.48569C0.254822 1.90712 7.66516e-05 2.51263 7.66516e-05 3.12486H1.72191ZM2.23137 2.69691V4.41874H5.69572V2.69691V0.975075H2.23137V2.69691ZM5.69572 2.69691V4.41874C5.70493 4.41874 5.6688 4.41964 5.60546 4.40214C5.53808 4.38354 5.47394 4.35355 5.42192 4.31959C5.3748 4.28883 5.35817 4.26817 5.37354 4.28441C5.39132 4.3032 5.42802 4.34566 5.49302 4.43359L6.87767 3.41015L8.26233 2.38671C8.05833 2.11071 7.7525 1.72851 7.30431 1.43594C6.80277 1.10855 6.2563 0.975075 5.69572 0.975075V2.69691ZM6.87767 3.41015L5.48041 4.41632L11.6143 12.9345L13.0116 11.9284L14.4089 10.9222L8.27493 2.40399L6.87767 3.41015ZM13.0116 11.9284H14.7334V5.14233H13.0116H11.2898V11.9284H13.0116ZM13.0116 5.14233H14.7334C14.7334 4.0277 14.1811 3.30745 13.8857 2.94646C13.7726 2.80818 13.7984 2.84295 13.7225 2.74923C13.6841 2.70179 13.6782 2.6914 13.6842 2.70072C13.7019 2.72811 13.8164 2.91595 13.8164 3.20637H12.0946H10.3727C10.3727 3.81265 10.6019 4.2756 10.7915 4.56919C10.9472 4.81022 11.174 5.07038 11.2205 5.12712C11.3836 5.32655 11.2898 5.2584 11.2898 5.14233H13.0116ZM12.0946 3.20637H13.8164V3.12486H12.0946H10.3727V3.20637H12.0946ZM12.0946 3.12486H13.8164C13.8164 3.47216 13.6635 3.86369 13.3332 4.13738C13.0379 4.38208 12.7418 4.41874 12.604 4.41874V2.69691V0.975075C12.1606 0.975075 11.6098 1.09324 11.1361 1.48569C10.6275 1.90712 10.3727 2.51263 10.3727 3.12486H12.0946ZM12.604 2.69691V4.41874H15.4774V2.69691V0.975075H12.604V2.69691ZM26.4633 14.7814L24.7565 15.0083L24.757 15.0119L26.4633 14.7814ZM22.8156 16.3913L24.4731 15.9251L23.5706 12.7162L21.4761 15.3094L22.8156 16.3913ZM22.0412 11.5819L21.1999 13.0842L24.0954 14.7057L23.7539 11.4048L22.0412 11.5819ZM25.9946 11.2559L24.2874 11.4798L24.2878 11.4828L25.9946 11.2559ZM22.3469 14.9036L24.0643 14.781L24.0635 14.7693L24.0625 14.7576L22.3469 14.9036ZM22.2654 13.9458L23.981 13.7998L23.9778 13.7626L23.973 13.7255L22.2654 13.9458ZM26.4633 14.7814L24.757 15.0119C24.8286 15.5416 24.9659 16.0148 25.1908 16.4307C25.4262 16.8657 25.7115 17.153 25.9578 17.3518C26.0598 17.434 26.1679 17.51 26.1908 17.5266C26.2394 17.5617 26.1916 17.5307 26.1297 17.4701C26.0522 17.3942 25.9367 17.259 25.8498 17.0604C25.7626 16.8609 25.74 16.6798 25.74 16.5543H27.4619H29.1837C29.1837 16.2811 29.1363 15.9808 29.0048 15.6802C28.8737 15.3804 28.6945 15.1619 28.5394 15.01C28.3997 14.8732 28.2602 14.7733 28.2085 14.7359C28.1663 14.7054 28.1621 14.7027 28.1391 14.6859C28.1321 14.6807 28.1274 14.6772 28.1243 14.6748C28.1213 14.6725 28.12 14.6715 28.1202 14.6717C28.1424 14.6895 28.1908 14.7387 28.2198 14.7923C28.2384 14.8267 28.2 14.7751 28.1697 14.5508L26.4633 14.7814ZM27.4619 16.5543H25.74C25.74 16.2802 25.8239 16.0244 25.9562 15.82C26.0776 15.6324 26.212 15.5294 26.2786 15.4851C26.3902 15.4108 26.4221 15.4266 26.2609 15.4629C25.9638 15.5298 25.4799 15.5661 24.9146 15.5661V17.2879V19.0098C25.5516 19.0098 26.3413 18.9747 27.0173 18.8225C27.3426 18.7493 27.7859 18.6187 28.1873 18.3514C28.6187 18.0641 29.1837 17.4766 29.1837 16.5543H27.4619ZM24.9146 17.2879V15.5661C24.6373 15.5661 24.4368 15.5528 24.2941 15.5334C24.149 15.5137 24.1018 15.4926 24.1129 15.4972C24.1332 15.5058 24.2213 15.5483 24.3156 15.6527C24.4123 15.7599 24.4568 15.8671 24.4731 15.9251L22.8156 16.3913L21.1581 16.8574C21.3993 17.7152 21.981 18.3361 22.7766 18.671C23.4433 18.9517 24.2069 19.0098 24.9146 19.0098V17.2879ZM22.8156 16.3913L21.4761 15.3094C21.437 15.3578 21.3606 15.4321 21.2044 15.5C21.0436 15.5699 20.7635 15.6476 20.309 15.6476V17.3694V19.0913C22.0397 19.0913 23.3455 18.4755 24.1551 17.4732L22.8156 16.3913ZM20.309 17.3694V15.6476C19.4566 15.6476 18.8871 15.4502 18.5782 15.2247C18.3404 15.0511 18.1589 14.802 18.1589 14.2719H16.4371H14.7153C14.7153 15.8612 15.3897 17.1608 16.5479 18.0062C17.6349 18.7996 19.0013 19.0913 20.309 19.0913V17.3694ZM16.4371 14.2719H18.1589C18.1589 13.7761 18.342 13.4887 18.607 13.2827C18.9189 13.0402 19.4349 12.8554 20.0849 12.8554V11.1336V9.41178C18.8396 9.41178 17.5317 9.75683 16.4935 10.5639C15.4085 11.4074 14.7153 12.6891 14.7153 14.2719H16.4371ZM20.0849 11.1336V12.8554C20.6472 12.8554 20.9968 12.9705 21.1999 13.0842L22.0412 11.5819L22.8825 10.0796C22.0667 9.62277 21.112 9.41178 20.0849 9.41178V11.1336ZM22.0412 11.5819L23.7539 11.4048C23.6445 10.347 23.5625 9.28617 23.3612 8.56279C23.2529 8.17355 23.049 7.62704 22.5856 7.18447C22.0599 6.6824 21.423 6.51803 20.8592 6.51803V8.23986V9.96169C20.754 9.96169 20.4635 9.9196 20.2072 9.6748C20.0132 9.48951 20.0016 9.33528 20.0436 9.48608C20.0814 9.62184 20.1236 9.85572 20.1726 10.2665C20.2211 10.6731 20.2647 11.1423 20.3285 11.7591L22.0412 11.5819ZM20.8592 8.23986V6.51803C20.3371 6.51803 19.848 6.68294 19.4426 6.99161C19.0709 7.27456 18.8467 7.61921 18.7115 7.87332C18.4854 8.29798 18.3055 8.91418 18.2434 9.09414C18.1301 9.42202 18.0747 9.48128 18.088 9.46681C18.1784 9.3681 18.304 9.35064 18.2712 9.35064V11.0725V12.7943C19.2471 12.7943 20.0503 12.4228 20.6272 11.7929C21.127 11.2474 21.3671 10.5985 21.4984 10.2182C21.5343 10.1142 21.5675 10.0126 21.5955 9.92689C21.6251 9.83648 21.6486 9.76441 21.6719 9.69674C21.6948 9.63024 21.7129 9.58145 21.7281 9.54422C21.7354 9.52622 21.7411 9.51305 21.7453 9.50389C21.7495 9.49471 21.7515 9.49095 21.7512 9.49159C21.7509 9.49222 21.7474 9.49875 21.7403 9.50984C21.7333 9.52093 21.7218 9.538 21.7053 9.55926C21.6724 9.60147 21.6153 9.6655 21.5286 9.73154C21.3266 9.8853 21.0808 9.96169 20.8592 9.96169V8.23986ZM18.2712 11.0725V9.35064C18.1444 9.35064 18.1792 9.3151 18.2658 9.39392C18.3068 9.43119 18.3408 9.4791 18.3622 9.52931C18.3832 9.57864 18.3831 9.60876 18.3831 9.60522H16.6613H14.9394C14.9394 10.4937 15.2822 11.3349 15.9482 11.941C16.6004 12.5344 17.4402 12.7943 18.2712 12.7943V11.0725ZM16.6613 9.60522H18.3831C18.3831 9.51983 18.4 9.50509 18.4079 9.49448C18.4323 9.46202 18.5169 9.37193 18.7381 9.26631C19.2077 9.04204 19.9682 8.90201 20.8592 8.90201V7.18018V5.45835C19.7124 5.45835 18.374 5.62399 17.254 6.15882C16.0716 6.72351 14.9394 7.82937 14.9394 9.60522H16.6613ZM20.8592 7.18018V8.90201C22.9448 8.90201 24.0932 9.99866 24.2874 11.4798L25.9946 11.2559L27.7018 11.032C27.244 7.54075 24.3574 5.45835 20.8592 5.45835V7.18018ZM25.9946 11.2559L24.2878 11.4828L24.7565 15.0083L26.4633 14.7814L28.1701 14.5544L27.7014 11.029L25.9946 11.2559ZM21.6132 16.2282V17.9501C22.8486 17.9501 23.4972 17.0276 23.7384 16.5255C24.0039 15.9729 24.1042 15.339 24.0643 14.781L22.3469 14.9036L20.6294 15.0263C20.6287 15.0161 20.63 15.0267 20.6263 15.0474C20.6224 15.0692 20.6197 15.0648 20.6344 15.0343C20.6456 15.011 20.7019 14.8987 20.8484 14.777C21.0149 14.6387 21.2819 14.5064 21.6132 14.5064V16.2282ZM22.3469 14.9036L24.0625 14.7576L23.981 13.7998L22.2654 13.9458L20.5497 14.0919L20.6312 15.0496L22.3469 14.9036ZM22.2654 13.9458L23.973 13.7255C23.873 12.9503 23.6618 12.2227 23.2445 11.6467C22.7838 11.0109 22.0834 10.5937 21.2668 10.5937V12.3156V14.0374C21.0832 14.0374 20.8987 13.9917 20.7374 13.9035C20.58 13.8174 20.4923 13.7175 20.4558 13.6671C20.4221 13.6206 20.4337 13.6195 20.4623 13.7048C20.4904 13.7889 20.528 13.9358 20.5577 14.1662L22.2654 13.9458ZM21.2668 12.3156V10.5937C20.3031 10.5937 19.6354 11.1767 19.2911 11.7507C18.9626 12.298 18.8521 12.9211 18.8521 13.4771H20.5739H22.2958C22.2958 13.3403 22.3279 13.3826 22.244 13.5224C22.1976 13.5997 22.101 13.7286 21.9265 13.8423C21.7415 13.9628 21.5111 14.0374 21.2668 14.0374V12.3156ZM20.5739 13.4771H18.8521C18.8521 14.3246 18.9546 15.2209 19.2155 15.9695C19.3442 16.339 19.548 16.7796 19.8873 17.1566C20.2485 17.5579 20.8319 17.9501 21.6132 17.9501V16.2282V14.5064C22.0584 14.5064 22.3437 14.7381 22.447 14.8529C22.5283 14.9433 22.5144 14.9712 22.4673 14.8363C22.3767 14.5762 22.2958 14.0969 22.2958 13.4771H20.5739ZM39.1281 14.7406L37.4115 14.875L37.412 14.8807L39.1281 14.7406ZM35.0728 14.7406L33.3538 14.84L33.3542 14.8458L35.0728 14.7406ZM34.869 11.2151L33.1496 11.3076L33.15 11.3145L34.869 11.2151ZM28.0829 8.85122L27.3169 7.3092L27.2946 7.32026L27.2727 7.33195L28.0829 8.85122ZM31.2824 7.26169L32.0485 8.8037L32.0618 8.79709L32.075 8.79026L31.2824 7.26169ZM32.1179 8.62705H30.3961V15.1726L33.6169 9.47429L32.1179 8.62705ZM38.8632 11.3578L40.5798 11.2233L40.5794 11.2192L38.8632 11.3578ZM39.1281 14.7406L37.412 14.8807C37.4861 15.7884 37.8405 16.395 38.0609 16.7515C38.1196 16.8465 38.1419 16.8807 38.1732 16.9332C38.1982 16.9751 38.2027 16.9856 38.1996 16.979C38.1864 16.9508 38.1399 16.8365 38.1399 16.6766H39.8617H41.5836C41.5836 15.7663 41.0719 15.0732 40.9901 14.9408C40.864 14.7368 40.8516 14.6914 40.8442 14.6005L39.1281 14.7406ZM39.8617 16.6766H38.1399V16.7581H39.8617H41.5836V16.6766H39.8617ZM39.8617 16.7581H38.1399C38.1399 16.4108 38.2927 16.0192 38.6231 15.7456C38.9184 15.5009 39.2145 15.4642 39.3523 15.4642V17.186V18.9079C39.7957 18.9079 40.3465 18.7897 40.8202 18.3972C41.3288 17.9758 41.5836 17.3703 41.5836 16.7581H39.8617ZM39.3523 17.186V15.4642H34.8486V17.186V18.9079H39.3523V17.186ZM34.8486 17.186V15.4642C34.9863 15.4642 35.2825 15.5009 35.5778 15.7456C35.9081 16.0192 36.061 16.4108 36.061 16.7581H34.3391H32.6173C32.6173 17.3703 32.8721 17.9758 33.3807 18.3972C33.8543 18.7897 34.4052 18.9079 34.8486 18.9079V17.186ZM34.3391 16.7581H36.061V16.6766H34.3391H32.6173V16.7581H34.3391ZM34.3391 16.6766H36.061C36.061 16.9053 35.982 17.0579 35.9694 17.0808C35.9665 17.086 35.9731 17.0735 36.0072 17.0238C36.024 16.9993 36.0418 16.9739 36.0673 16.9375C36.0909 16.9039 36.1207 16.8613 36.1515 16.8161C36.4285 16.4098 36.8562 15.6947 36.7914 14.6354L35.0728 14.7406L33.3542 14.8458C33.3543 14.8481 33.355 14.8164 33.3682 14.7804C33.3751 14.7616 33.3746 14.776 33.3063 14.8762C33.2789 14.9163 33.0808 15.1882 32.9554 15.4152C32.7956 15.7042 32.6173 16.132 32.6173 16.6766H34.3391ZM35.0728 14.7406L36.7917 14.6412L36.588 11.1158L34.869 11.2151L33.15 11.3145L33.3538 14.84L35.0728 14.7406ZM34.869 11.2151L36.5883 11.1227C36.5393 10.2097 36.4566 9.2794 36.1557 8.5635C35.9848 8.15709 35.6989 7.70396 35.2079 7.37241C34.7122 7.03764 34.1843 6.94598 33.7482 6.94598V8.66781V10.3896C33.7094 10.3896 33.5076 10.3795 33.2806 10.2262C33.0584 10.0762 32.9839 9.90452 32.9811 9.89803C32.9802 9.8958 32.9908 9.9211 33.0069 9.98658C33.0228 10.0513 33.0408 10.142 33.0588 10.2659C33.0956 10.5183 33.1253 10.8549 33.1496 11.3076L34.869 11.2151ZM33.7482 8.66781V6.94598C33.283 6.94598 32.7984 7.05967 32.3578 7.34028C31.9235 7.61686 31.6328 7.99104 31.4441 8.35635C31.0947 9.03262 31.0278 9.80578 31.0278 10.4204H32.7496H34.4715C34.4715 10.2222 34.4842 10.0809 34.5001 9.98745C34.5167 9.88963 34.5296 9.88654 34.5035 9.93706C34.4727 9.99669 34.3858 10.1314 34.2075 10.245C34.0229 10.3626 33.8466 10.3896 33.7482 10.3896V8.66781ZM32.7496 10.4204H31.0278V14.7406H32.7496H34.4715V10.4204H32.7496ZM32.7496 14.7406H31.0278C31.0278 15.8682 31.5986 16.5934 31.8976 16.9508C32.0129 17.0887 31.9869 17.0545 32.0644 17.1481C32.1039 17.1957 32.1099 17.2061 32.1037 17.1967C32.0861 17.1701 31.9652 16.9771 31.9652 16.6766H33.687H35.4089C35.4089 16.0602 35.1708 15.5921 34.9774 15.2992C34.8183 15.0582 34.5867 14.7984 34.5391 14.7415C34.3693 14.5385 34.4715 14.6115 34.4715 14.7406H32.7496ZM33.687 16.6766H31.9652V16.7581H33.687H35.4089V16.6766H33.687ZM33.687 16.7581H31.9652C31.9652 16.4108 32.1181 16.0192 32.4484 15.7456C32.7437 15.5009 33.0399 15.4642 33.1776 15.4642V17.186V18.9079C33.621 18.9079 34.1719 18.7897 34.6455 18.3972C35.1541 17.9758 35.4089 17.3703 35.4089 16.7581H33.687ZM33.1776 17.186V15.4642H28.2664V17.186V18.9079H33.1776V17.186ZM28.2664 17.186V15.4642C28.4041 15.4642 28.7002 15.5009 28.9956 15.7456C29.3259 16.0192 29.4787 16.4108 29.4787 16.7581H27.7569H26.0351C26.0351 17.3703 26.2898 17.9758 26.7984 18.3972C27.2721 18.7897 27.823 18.9079 28.2664 18.9079V17.186ZM27.7569 16.7581H29.4787V16.6766H27.7569H26.0351V16.7581H27.7569ZM27.7569 16.6766H29.4787C29.4787 16.9771 29.3578 17.1701 29.3402 17.1967C29.334 17.2061 29.3401 17.1957 29.3795 17.1481C29.457 17.0545 29.431 17.0887 29.5464 16.9508C29.8453 16.5934 30.4161 15.8682 30.4161 14.7406H28.6943H26.9725C26.9725 14.6115 27.0746 14.5385 26.9048 14.7415C26.8572 14.7984 26.6256 15.0582 26.4665 15.2992C26.2731 15.5921 26.0351 16.0602 26.0351 16.6766H27.7569ZM28.6943 14.7406H30.4161V11.2966H28.6943H26.9725V14.7406H28.6943ZM28.6943 11.2966H30.4161C30.4161 9.99919 29.6047 9.26024 29.2575 8.95643C29.1112 8.82835 29.1516 8.86695 29.055 8.78144C29.0078 8.73973 29.0076 8.73624 29.0243 8.75525C29.0646 8.8011 29.2749 9.06115 29.2749 9.48295H27.5531H25.8313C25.8313 10.2206 26.1842 10.7405 26.4385 11.0296C26.6443 11.2635 26.942 11.5062 26.9899 11.548C27.2133 11.7435 26.9725 11.5955 26.9725 11.2966H28.6943ZM27.5531 9.48295H29.2749V9.40144H27.5531H25.8313V9.48295H27.5531ZM27.5531 9.40144H29.2749C29.2749 9.5914 29.2316 9.80069 29.131 10.0005C29.0358 10.1897 28.9195 10.3107 28.8495 10.3731C28.7845 10.431 28.7407 10.455 28.7592 10.4439C28.7785 10.4323 28.8101 10.4148 28.8932 10.3705L28.0829 8.85122L27.2727 7.33195C27.1746 7.38426 26.8372 7.55352 26.5573 7.80312C26.1852 8.13497 25.8313 8.67093 25.8313 9.40144H27.5531ZM28.0829 8.85122L28.849 10.3932L32.0485 8.8037L31.2824 7.26169L30.5163 5.71968L27.3169 7.3092L28.0829 8.85122ZM31.2824 7.26169L32.075 8.79026C32.0236 8.81688 31.8553 8.89221 31.5977 8.88512C31.3187 8.87744 31.0395 8.77456 30.8161 8.59177C30.4195 8.26726 30.3961 7.88614 30.3961 7.79153H32.1179H33.8397C33.8397 7.26897 33.6736 6.48029 32.9968 5.92652C32.172 5.25168 31.1789 5.37579 30.4898 5.73313L31.2824 7.26169ZM32.1179 7.79153H30.3961V8.62705H32.1179H33.8397V7.79153H32.1179ZM32.1179 8.62705L33.6169 9.47429C33.769 9.20518 34.1048 8.90201 34.9709 8.90201V7.18018V5.45835C33.1878 5.45835 31.5265 6.1741 30.6189 7.77981L32.1179 8.62705ZM34.9709 7.18018V8.90201C35.542 8.90201 36.0013 9.05094 36.3267 9.33528C36.6328 9.60266 37.0408 10.1814 37.1469 11.4964L38.8632 11.3578L40.5794 11.2192C40.4207 9.25318 39.7384 7.74315 38.5925 6.74197C37.466 5.75775 36.1116 5.45835 34.9709 5.45835V7.18018ZM38.8632 11.3578L37.1466 11.4922L37.4115 14.875L39.1281 14.7406L40.8447 14.6062L40.5798 11.2233L38.8632 11.3578ZM47.3601 16.6358L49.0785 16.5284L48.8685 13.1684L46.2671 15.3053L47.3601 16.6358ZM46.9321 7.60813L46.0645 9.09541L48.6539 10.6059V7.60813H46.9321ZM46.3004 2.85993L46.744 4.52363L46.7662 4.51771L46.7882 4.5112L46.3004 2.85993ZM49.887 1.80025L49.4208 0.142729L49.41 0.145786L49.3991 0.148985L49.887 1.80025ZM45.9743 16.2894L45.8732 18.0082L45.893 18.0094L45.9129 18.0101L45.9743 16.2894ZM44.181 10.3796L45.8995 10.487L45.9005 10.4707L45.9012 10.4544L44.181 10.3796ZM50.8652 14.7202H49.1433C49.1433 15.7822 49.6237 16.481 49.9025 16.8548C50.0063 16.9941 49.9816 16.9579 50.0511 17.052C50.0857 17.0989 50.0912 17.1094 50.0862 17.1009C50.0694 17.0723 49.9789 16.9061 49.9789 16.6562H51.7007H53.4225C53.4225 16.0904 53.2275 15.6491 53.0541 15.3543C52.9126 15.114 52.7056 14.8533 52.6634 14.7967C52.5811 14.6863 52.5712 14.6606 52.5731 14.6647C52.5756 14.6705 52.5802 14.6828 52.5836 14.6986C52.5871 14.7146 52.587 14.7232 52.587 14.7202H50.8652ZM51.7007 16.6562H49.9789V16.7377H51.7007H53.4225V16.6562H51.7007ZM51.7007 16.7377H49.9789C49.9789 16.3904 50.1317 15.9989 50.462 15.7252C50.7573 15.4805 51.0535 15.4438 51.1912 15.4438V17.1656V18.8875C51.6346 18.8875 52.1855 18.7693 52.6591 18.3769C53.1678 17.9554 53.4225 17.3499 53.4225 16.7377H51.7007ZM51.1912 17.1656V15.4438H47.951V17.1656V18.8875H51.1912V17.1656ZM47.951 17.1656V15.4438C48.1469 15.4438 48.4255 15.5083 48.677 15.7291C48.9398 15.9599 49.0621 16.2657 49.0785 16.5284L47.3601 16.6358L45.6416 16.7432C45.6784 17.332 45.9332 17.9027 46.4049 18.3169C46.8653 18.7211 47.4291 18.8875 47.951 18.8875V17.1656ZM47.3601 16.6358L46.2671 15.3053C46.0654 15.471 45.6623 15.6476 45.0573 15.6476V17.3694V19.0913C46.2864 19.0913 47.5135 18.738 48.453 17.9663L47.3601 16.6358ZM45.0573 17.3694V15.6476C44.2164 15.6476 43.4474 15.3604 42.9033 14.85C42.3833 14.3624 41.9494 13.5606 41.9494 12.2748H40.2276H38.5057C38.5057 14.4126 39.264 16.1581 40.5475 17.3619C41.8069 18.543 43.4527 19.0913 45.0573 19.0913V17.3694ZM40.2276 12.2748H41.9494C41.9494 10.1736 43.497 8.90201 45.0573 8.90201V7.18018V5.45835C41.6044 5.45835 38.5057 8.26246 38.5057 12.2748H40.2276ZM45.0573 7.18018V8.90201C45.6247 8.90201 45.9121 9.00649 46.0645 9.09541L46.9321 7.60813L47.7997 6.12085C46.974 5.63916 46.0386 5.45835 45.0573 5.45835V7.18018ZM46.9321 7.60813H48.6539V5.30536H46.9321H45.2103V7.60813H46.9321ZM46.9321 5.30536H48.6539C48.6539 4.00011 47.834 3.26553 47.4821 2.96383C47.3337 2.83664 47.3772 2.8771 47.2797 2.79262C47.2331 2.75222 47.2345 2.75019 47.2531 2.77103C47.2993 2.82269 47.5127 3.08664 47.5127 3.51205H45.7909H44.0691C44.0691 4.25332 44.4252 4.77454 44.6853 5.06565C44.8938 5.2989 45.1956 5.53961 45.241 5.57846C45.4596 5.76585 45.2103 5.61205 45.2103 5.30536H46.9321ZM45.7909 3.51205H47.5127V3.45091H45.7909H44.0691V3.51205H45.7909ZM45.7909 3.45091H47.5127C47.5127 4.11015 47.0432 4.44385 46.744 4.52363L46.3004 2.85993L45.8567 1.19624C44.9462 1.43905 44.0691 2.26183 44.0691 3.45091H45.7909ZM46.3004 2.85993L46.7882 4.5112L50.3749 3.45152L49.887 1.80025L49.3991 0.148985L45.8125 1.20867L46.3004 2.85993ZM49.887 1.80025L50.3532 3.45777C50.4441 3.43219 50.446 3.44042 50.3866 3.4429C50.3302 3.44525 50.1149 3.44698 49.8506 3.31483C49.5482 3.16364 49.3395 2.9165 49.2306 2.6715C49.1829 2.56417 49.1621 2.47532 49.1527 2.42055C49.1434 2.36597 49.1433 2.33318 49.1433 2.33009H50.8652H52.587C52.587 1.78654 52.427 0.752907 51.3906 0.234726C50.5981 -0.161566 49.7801 0.0416679 49.4208 0.142729L49.887 1.80025ZM50.8652 2.33009H49.1433V14.7202H50.8652H52.587V2.33009H50.8652ZM45.9743 16.2894L45.9129 18.0101C46.8207 18.0425 47.59 17.6053 48.0662 16.9415C48.5049 16.3301 48.6539 15.602 48.6539 14.9444H46.9321H45.2103C45.2103 15.1223 45.1657 15.0769 45.2681 14.9342C45.325 14.8549 45.4249 14.7524 45.578 14.6737C45.7346 14.5933 45.8971 14.5637 46.0358 14.5686L45.9743 16.2894ZM46.9321 14.9444H48.6539V10.7464H46.9321H45.2103V14.9444H46.9321ZM46.9321 10.7464H48.6539C48.6539 9.77282 48.3703 8.8336 47.909 8.09876C47.5054 7.4559 46.6699 6.53841 45.4037 6.53841V8.26024V9.98207C45.1332 9.98207 44.974 9.87698 44.9414 9.85308C44.9082 9.82868 44.9365 9.84072 44.9924 9.92972C45.1068 10.1119 45.2103 10.4158 45.2103 10.7464H46.9321ZM45.4037 8.26024V6.53841C44.9383 6.53841 44.4491 6.64602 43.9959 6.91974C43.5469 7.19088 43.2314 7.56553 43.0157 7.95002C42.6152 8.66363 42.4947 9.52442 42.4608 10.3048L44.181 10.3796L45.9012 10.4544C45.9138 10.166 45.9405 9.95557 45.9714 9.80812C46.0031 9.65662 46.0303 9.6147 46.0188 9.63524C46.0018 9.66565 45.9308 9.77411 45.7761 9.86757C45.617 9.96361 45.4718 9.98207 45.4037 9.98207V8.26024ZM44.181 10.3796L42.4625 10.2722C42.4097 11.1172 42.534 12.7373 42.8454 14.161C43.0013 14.8735 43.2295 15.6602 43.5736 16.3155C43.8545 16.8504 44.5454 17.9301 45.8732 18.0082L45.9743 16.2894L46.0754 14.5705C46.7104 14.6079 46.8205 15.0915 46.6225 14.7145C46.4877 14.4578 46.3389 14.0167 46.2095 13.4251C45.9503 12.2402 45.8708 10.9462 45.8995 10.487L44.181 10.3796ZM62.2507 14.7814L60.5439 15.0083L60.5444 15.0119L62.2507 14.7814ZM58.603 16.3913L60.2605 15.9251L59.358 12.7162L57.2635 15.3094L58.603 16.3913ZM57.8286 11.5819L56.9873 13.0842L59.8827 14.7057L59.5413 11.4048L57.8286 11.5819ZM61.782 11.2559L60.0748 11.4798L60.0752 11.4828L61.782 11.2559ZM58.1342 14.9036L59.8517 14.781L59.8509 14.7693L59.8499 14.7576L58.1342 14.9036ZM58.0527 13.9458L59.7684 13.7998L59.7652 13.7626L59.7604 13.7255L58.0527 13.9458ZM62.2507 14.7814L60.5444 15.0119C60.616 15.5416 60.7533 16.0148 60.9782 16.4307C61.2135 16.8657 61.4989 17.153 61.7452 17.3518C61.8472 17.434 61.9553 17.51 61.9782 17.5266C62.0268 17.5617 61.979 17.5307 61.917 17.4701C61.8396 17.3942 61.7241 17.259 61.6372 17.0604C61.55 16.8609 61.5274 16.6798 61.5274 16.5543H63.2493H64.9711C64.9711 16.2811 64.9237 15.9808 64.7922 15.6802C64.661 15.3804 64.4819 15.1619 64.3267 15.01C64.1871 14.8732 64.0476 14.7733 63.9959 14.7359C63.9537 14.7054 63.9495 14.7027 63.9265 14.6859C63.9195 14.6807 63.9148 14.6772 63.9117 14.6748C63.9086 14.6725 63.9074 14.6715 63.9076 14.6717C63.9297 14.6895 63.9782 14.7387 64.0072 14.7923C64.0258 14.8267 63.9873 14.7751 63.957 14.5508L62.2507 14.7814ZM63.2493 16.5543H61.5274C61.5274 16.2802 61.6113 16.0244 61.7436 15.82C61.865 15.6324 61.9994 15.5294 62.0659 15.4851C62.1776 15.4108 62.2095 15.4266 62.0483 15.4629C61.7512 15.5298 61.2673 15.5661 60.7019 15.5661V17.2879V19.0098C61.339 19.0098 62.1287 18.9747 62.8046 18.8225C63.13 18.7493 63.5733 18.6187 63.9747 18.3514C64.4061 18.0641 64.9711 17.4766 64.9711 16.5543H63.2493ZM60.7019 17.2879V15.5661C60.4247 15.5661 60.2242 15.5528 60.0815 15.5334C59.9363 15.5137 59.8892 15.4926 59.9003 15.4972C59.9206 15.5058 60.0087 15.5483 60.1029 15.6527C60.1997 15.7599 60.2442 15.8671 60.2605 15.9251L58.603 16.3913L56.9454 16.8574C57.1867 17.7152 57.7684 18.3361 58.564 18.671C59.2306 18.9517 59.9943 19.0098 60.7019 19.0098V17.2879ZM58.603 16.3913L57.2635 15.3094C57.2243 15.3578 57.148 15.4321 56.9917 15.5C56.831 15.5699 56.5508 15.6476 56.0964 15.6476V17.3694V19.0913C57.827 19.0913 59.1329 18.4755 59.9424 17.4732L58.603 16.3913ZM56.0964 17.3694V15.6476C55.244 15.6476 54.6744 15.4502 54.3655 15.2247C54.1278 15.0511 53.9463 14.802 53.9463 14.2719H52.2245H50.5026C50.5026 15.8612 51.1771 17.1608 52.3352 18.0062C53.4223 18.7996 54.7887 19.0913 56.0964 19.0913V17.3694ZM52.2245 14.2719H53.9463C53.9463 13.7761 54.1294 13.4887 54.3944 13.2827C54.7063 13.0402 55.2222 12.8554 55.8722 12.8554V11.1336V9.41178C54.627 9.41178 53.3191 9.75683 52.2809 10.5639C51.1958 11.4074 50.5026 12.6891 50.5026 14.2719H52.2245ZM55.8722 11.1336V12.8554C56.4346 12.8554 56.7842 12.9705 56.9873 13.0842L57.8286 11.5819L58.6699 10.0796C57.854 9.62277 56.8994 9.41178 55.8722 9.41178V11.1336ZM57.8286 11.5819L59.5413 11.4048C59.4318 10.347 59.3499 9.28617 59.1486 8.56279C59.0402 8.17355 58.8364 7.62704 58.373 7.18447C57.8473 6.6824 57.2104 6.51803 56.6466 6.51803V8.23986V9.96169C56.5413 9.96169 56.2509 9.9196 55.9945 9.6748C55.8005 9.48951 55.789 9.33528 55.831 9.48608C55.8688 9.62184 55.9109 9.85572 55.96 10.2665C56.0085 10.6731 56.0521 11.1423 56.1159 11.7591L57.8286 11.5819ZM56.6466 8.23986V6.51803C56.1244 6.51803 55.6354 6.68294 55.2299 6.99161C54.8583 7.27456 54.6341 7.61921 54.4988 7.87332C54.2728 8.29798 54.0929 8.91418 54.0307 9.09414C53.9175 9.42202 53.8621 9.48128 53.8753 9.46681C53.9658 9.3681 54.0914 9.35064 54.0585 9.35064V11.0725V12.7943C55.0345 12.7943 55.8376 12.4228 56.4146 11.7929C56.9144 11.2474 57.1545 10.5985 57.2858 10.2182C57.3217 10.1142 57.3549 10.0126 57.3829 9.92689C57.4125 9.83648 57.436 9.76441 57.4593 9.69674C57.4822 9.63024 57.5003 9.58145 57.5154 9.54422C57.5227 9.52622 57.5285 9.51305 57.5327 9.50389C57.5369 9.49471 57.5389 9.49095 57.5386 9.49159C57.5382 9.49222 57.5347 9.49875 57.5277 9.50984C57.5207 9.52093 57.5092 9.538 57.4926 9.55926C57.4598 9.60147 57.4027 9.6655 57.316 9.73154C57.114 9.8853 56.8682 9.96169 56.6466 9.96169V8.23986ZM54.0585 11.0725V9.35064C53.9317 9.35064 53.9666 9.3151 54.0532 9.39392C54.0942 9.43119 54.1282 9.4791 54.1496 9.52931C54.1706 9.57864 54.1705 9.60876 54.1705 9.60522H52.4486H50.7268C50.7268 10.4937 51.0695 11.3349 51.7356 11.941C52.3877 12.5344 53.2275 12.7943 54.0585 12.7943V11.0725ZM52.4486 9.60522H54.1705C54.1705 9.51983 54.1873 9.50509 54.1953 9.49448C54.2197 9.46202 54.3043 9.37193 54.5254 9.26631C54.9951 9.04204 55.7556 8.90201 56.6466 8.90201V7.18018V5.45835C55.4998 5.45835 54.1613 5.62399 53.0414 6.15882C51.859 6.72351 50.7268 7.82937 50.7268 9.60522H52.4486ZM56.6466 7.18018V8.90201C58.7322 8.90201 59.8805 9.99866 60.0748 11.4798L61.782 11.2559L63.4892 11.032C63.0313 7.54075 60.1448 5.45835 56.6466 5.45835V7.18018ZM61.782 11.2559L60.0752 11.4828L60.5439 15.0083L62.2507 14.7814L63.9575 14.5544L63.4888 11.029L61.782 11.2559ZM57.4006 16.2282V17.9501C58.636 17.9501 59.2846 17.0276 59.5258 16.5255C59.7913 15.9729 59.8916 15.339 59.8517 14.781L58.1342 14.9036L56.4168 15.0263C56.4161 15.0161 56.4174 15.0267 56.4137 15.0474C56.4098 15.0692 56.4071 15.0648 56.4217 15.0343C56.4329 15.011 56.4892 14.8987 56.6358 14.777C56.8023 14.6387 57.0693 14.5064 57.4006 14.5064V16.2282ZM58.1342 14.9036L59.8499 14.7576L59.7684 13.7998L58.0527 13.9458L56.3371 14.0919L56.4186 15.0496L58.1342 14.9036ZM58.0527 13.9458L59.7604 13.7255C59.6604 12.9503 59.4492 12.2227 59.0319 11.6467C58.5712 11.0109 57.8708 10.5937 57.0542 10.5937V12.3156V14.0374C56.8706 14.0374 56.6861 13.9917 56.5248 13.9035C56.3674 13.8174 56.2797 13.7175 56.2432 13.6671C56.2095 13.6206 56.2211 13.6195 56.2496 13.7048C56.2778 13.7889 56.3153 13.9358 56.3451 14.1662L58.0527 13.9458ZM57.0542 12.3156V10.5937C56.0905 10.5937 55.4228 11.1767 55.0785 11.7507C54.75 12.298 54.6395 12.9211 54.6395 13.4771H56.3613H58.0831C58.0831 13.3403 58.1153 13.3826 58.0314 13.5224C57.985 13.5997 57.8884 13.7286 57.7139 13.8423C57.5289 13.9628 57.2985 14.0374 57.0542 14.0374V12.3156ZM56.3613 13.4771H54.6395C54.6395 14.3246 54.742 15.2209 55.0029 15.9695C55.1316 16.339 55.3354 16.7796 55.6747 17.1566C56.0359 17.5579 56.6192 17.9501 57.4006 17.9501V16.2282V14.5064C57.8458 14.5064 58.1311 14.7381 58.2343 14.8529C58.3157 14.9433 58.3017 14.9712 58.2547 14.8363C58.1641 14.5762 58.0831 14.0969 58.0831 13.4771H56.3613ZM72.5001 12.662V10.9402H70.7783V12.662H72.5001ZM67.9353 17.1656V15.4438C68.0731 15.4438 68.3692 15.4805 68.6646 15.7252C68.9949 15.9989 69.1477 16.3904 69.1477 16.7377H67.4259H65.7041C65.7041 17.3499 65.9588 17.9554 66.4674 18.3769C66.9411 18.7693 67.492 18.8875 67.9353 18.8875V17.1656ZM67.4259 16.7377H69.1477V16.6562H67.4259H65.7041V16.7377H67.4259ZM67.4259 16.6562H69.1477C69.1477 16.9061 69.0572 17.0723 69.0404 17.1009C69.0354 17.1094 69.0409 17.0989 69.0755 17.052C69.145 16.9579 69.1203 16.9941 69.2241 16.8548C69.5028 16.481 69.9832 15.7822 69.9832 14.7202H68.2614H66.5396C66.5396 14.7232 66.5395 14.7146 66.5429 14.6986C66.5464 14.6828 66.551 14.6705 66.5535 14.6647C66.5553 14.6606 66.5454 14.6863 66.4632 14.7967C66.4209 14.8533 66.2139 15.114 66.0725 15.3543C65.899 15.6491 65.7041 16.0904 65.7041 16.6562H67.4259ZM68.2614 14.7202H69.9832V5.14233H68.2614H66.5396V14.7202H68.2614ZM68.2614 5.14233H69.9832C69.9832 4.08031 69.5028 3.3816 69.2241 3.00771C69.1203 2.86847 69.145 2.90469 69.0755 2.81055C69.0409 2.76369 69.0354 2.75319 69.0404 2.76164C69.0572 2.79023 69.1477 2.95641 69.1477 3.20637H67.4259H65.7041C65.7041 3.77219 65.899 4.21348 66.0725 4.50827C66.2139 4.74857 66.4209 5.00922 66.4632 5.06587C66.5454 5.17622 66.5553 5.20197 66.5535 5.19785C66.551 5.19203 66.5464 5.17973 66.5429 5.16392C66.5395 5.14791 66.5396 5.13932 66.5396 5.14233H68.2614ZM67.4259 3.20637H69.1477V3.12486H67.4259H65.7041V3.20637H67.4259ZM67.4259 3.12486H69.1477C69.1477 3.47216 68.9949 3.86369 68.6646 4.13738C68.3692 4.38208 68.0731 4.41874 67.9353 4.41874V2.69691V0.975075C67.492 0.975075 66.9411 1.09324 66.4674 1.48569C65.9588 1.90712 65.7041 2.51263 65.7041 3.12486H67.4259ZM67.9353 2.69691V4.41874H73.356V2.69691V0.975075H67.9353V2.69691ZM73.356 2.69691V4.41874C75.0676 4.41874 76.3042 4.74976 77.063 5.26506C77.7216 5.71235 78.1553 6.38056 78.1553 7.56737H79.8772H81.599C81.599 5.31021 80.6571 3.54319 78.9977 2.41624C77.4384 1.3573 75.4145 0.975075 73.356 0.975075V2.69691ZM79.8772 7.56737H78.1553C78.1553 8.61837 77.7672 9.4112 77.1427 9.96054C76.4994 10.5265 75.4784 10.9402 74.0693 10.9402V12.662V14.3838C76.1449 14.3838 78.0279 13.7684 79.4173 12.5461C80.8256 11.3073 81.599 9.55276 81.599 7.56737H79.8772ZM74.0693 12.662V10.9402H72.5001V12.662V14.3838H74.0693V12.662ZM72.5001 12.662H70.7783V14.7202H72.5001H74.222V12.662H72.5001ZM72.5001 14.7202H70.7783C70.7783 15.8478 71.3492 16.573 71.6481 16.9304C71.7634 17.0683 71.7374 17.0341 71.8149 17.1277C71.8544 17.1753 71.8604 17.1857 71.8542 17.1763C71.8366 17.1497 71.7157 16.9567 71.7157 16.6562H73.4375H75.1594C75.1594 16.0398 74.9213 15.5717 74.7279 15.2789C74.5688 15.0378 74.3372 14.778 74.2896 14.7211C74.1198 14.5181 74.222 14.5912 74.222 14.7202H72.5001ZM73.4375 16.6562H71.7157V16.7377H73.4375H75.1594V16.6562H73.4375ZM73.4375 16.7377H71.7157C71.7157 16.3904 71.8686 15.9989 72.1989 15.7252C72.4942 15.4805 72.7904 15.4438 72.9281 15.4438V17.1656V18.8875C73.3715 18.8875 73.9224 18.7693 74.396 18.3769C74.9046 17.9554 75.1594 17.3499 75.1594 16.7377H73.4375ZM72.9281 17.1656V15.4438H67.9353V17.1656V18.8875H72.9281V17.1656ZM73.4987 11.0929V12.8147H74.0693V11.0929V9.37102H73.4987V11.0929ZM74.0693 11.0929V12.8147C75.4747 12.8147 76.3263 11.8818 76.7323 11.0432C77.1187 10.2449 77.238 9.3216 77.238 8.54554H75.5162H73.7943C73.7943 8.77219 73.7758 8.98458 73.7424 9.16714C73.7083 9.35389 73.6647 9.47655 73.6326 9.54282C73.5994 9.61141 73.604 9.56851 73.692 9.50161C73.8023 9.41779 73.9467 9.37102 74.0693 9.37102V11.0929ZM75.5162 8.54554H77.238C77.238 7.0021 76.8875 5.63426 76.3054 4.59429C75.7947 3.68185 74.8059 2.54422 73.356 2.54422V4.26605V5.98788C73.0981 5.98788 72.9869 5.88031 73.0295 5.91446C73.0664 5.94396 73.1727 6.04809 73.3004 6.27625C73.5538 6.729 73.7943 7.50091 73.7943 8.54554H75.5162ZM73.356 4.26605V2.54422H73.2949V4.26605V5.98788H73.356V4.26605ZM73.2949 4.26605V2.54422C72.5512 2.54422 71.8179 2.85568 71.3267 3.51372C70.889 4.09999 70.7783 4.78038 70.7783 5.32573H72.5001H74.222C74.222 5.1986 74.2539 5.34915 74.0863 5.5737C73.9945 5.6966 73.8621 5.81262 73.6955 5.89191C73.5327 5.96935 73.3879 5.98788 73.2949 5.98788V4.26605ZM72.5001 5.32573H70.7783V10.0332H72.5001H74.222V5.32573H72.5001ZM72.5001 10.0332H70.7783C70.7783 10.5441 70.8699 11.3094 71.4274 11.9477C72.0275 12.635 72.842 12.8147 73.4987 12.8147V11.0929V9.37102C73.4218 9.37102 73.7369 9.35706 74.0212 9.68266C74.2628 9.95926 74.222 10.1948 74.222 10.0332H72.5001ZM88.2086 13.8643L86.9911 12.6468V12.6468L88.2086 13.8643ZM88.0456 11.0929L87.1072 9.64919L87.1053 9.65047L88.0456 11.0929ZM84.3571 13.4975L83.4168 12.0551L81.8455 13.0795L83.0002 14.5576L84.3571 13.4975ZM83.7661 12.3563L82.1424 12.9294L82.9148 15.1178L84.7853 13.7441L83.7661 12.3563ZM85.0703 11.3985L86.0895 12.7863L86.0965 12.7812L86.1034 12.776L85.0703 11.3985ZM88.2086 13.8643L89.4261 15.0819C89.1527 15.3553 88.6697 15.5328 88.153 15.3523C87.5683 15.1482 87.2816 14.609 87.2816 14.17H89.0034H90.7252C90.7252 13.2623 90.1939 12.4175 89.2883 12.1012C88.4507 11.8087 87.5702 12.0677 86.9911 12.6468L88.2086 13.8643ZM89.0034 14.17H87.2816C87.2816 14.1108 87.233 14.4887 86.7639 14.9355C86.3643 15.3161 85.7471 15.6476 84.8666 15.6476V17.3694V19.0913C86.6963 19.0913 88.1476 18.3733 89.1388 17.4292C90.0605 16.5515 90.7252 15.3296 90.7252 14.17H89.0034ZM84.8666 17.3694V15.6476C83.7514 15.6476 82.9304 15.2735 82.3914 14.7314C81.8518 14.1888 81.4734 13.3555 81.4734 12.2137H79.7515H78.0297C78.0297 14.149 78.6906 15.8936 79.9494 17.1596C81.2088 18.4261 82.9453 19.0913 84.8666 19.0913V17.3694ZM79.7515 12.2137H81.4734C81.4734 10.2068 83.005 8.90201 84.8054 8.90201V7.18018V5.45835C81.3074 5.45835 78.0297 8.10696 78.0297 12.2137H79.7515ZM84.8054 7.18018V8.90201C85.8463 8.90201 86.4218 9.18454 86.7012 9.41204C86.9909 9.64794 87.0166 9.85455 87.0166 9.89052H88.7385H90.4603C90.4603 7.40303 88.1191 5.45835 84.8054 5.45835V7.18018ZM88.7385 9.89052H87.0166C87.0166 9.87755 87.0186 9.84774 87.0299 9.80734C87.0413 9.76681 87.0585 9.72864 87.0785 9.69627C87.1178 9.63238 87.1466 9.62359 87.1072 9.64919L88.0456 11.0929L88.984 12.5365C89.755 12.0353 90.4603 11.1585 90.4603 9.89052H88.7385ZM88.0456 11.0929L87.1053 9.65047L83.4168 12.0551L84.3571 13.4975L85.2974 14.9399L88.9859 12.5352L88.0456 11.0929ZM84.3571 13.4975L83.0002 14.5576C83.8108 15.595 84.9897 16.2383 86.3949 16.2383V14.5164V12.7946C86.1292 12.7946 85.9223 12.7042 85.7139 12.4375L84.3571 13.4975ZM86.3949 14.5164V16.2383C86.9847 16.2383 87.5554 16.1147 88.0411 15.9335C88.507 15.7598 89.0233 15.4847 89.4261 15.0818L88.2086 13.8643L86.9911 12.6468C87.0295 12.6085 87.0401 12.6083 87.0015 12.6312C86.9671 12.6516 86.9116 12.6794 86.8376 12.707C86.6814 12.7653 86.5184 12.7946 86.3949 12.7946V14.5164ZM84.4794 8.28062V6.55879C83.3635 6.55879 82.6089 7.24452 82.2161 7.89011C81.8329 8.52015 81.6775 9.25852 81.6775 9.93128H83.3993H85.1211C85.1211 9.85138 85.1309 9.78183 85.1439 9.72989C85.1575 9.67573 85.169 9.66214 85.1582 9.67986C85.1481 9.69645 85.0972 9.77458 84.9772 9.85399C84.8448 9.94161 84.6687 10.0024 84.4794 10.0024V8.28062ZM83.3993 9.93128H81.6775C81.6775 10.9946 81.8185 12.0114 82.1424 12.9294L83.7661 12.3563L85.3898 11.7833C85.2247 11.3155 85.1211 10.702 85.1211 9.93128H83.3993ZM83.7661 12.3563L84.7853 13.7441L86.0895 12.7863L85.0703 11.3985L84.0512 10.0107L82.7469 10.9685L83.7661 12.3563ZM85.0703 11.3985L86.1034 12.776C86.9058 12.1742 87.322 11.2122 87.322 10.2777H85.6002H83.8783C83.8783 10.244 83.8853 10.2116 83.9015 10.1774C83.917 10.1446 83.9544 10.0832 84.0372 10.0211L85.0703 11.3985ZM85.6002 10.2777H87.322C87.322 9.88655 87.2726 9.15781 87.0111 8.46062C86.7663 7.80761 86.0575 6.55879 84.4794 6.55879V8.28062V10.0024C84.3795 10.0024 84.2606 9.98264 84.1393 9.932C84.0203 9.88232 83.9314 9.81666 83.8719 9.76002C83.7667 9.66002 83.759 9.59589 83.7867 9.66977C83.8102 9.7322 83.8362 9.83403 83.8549 9.96596C83.873 10.094 83.8783 10.2093 83.8783 10.2777H85.6002ZM89.947 8.79008L89.2124 7.2328L89.1946 7.24121L89.177 7.25003L89.947 8.79008ZM93.1872 7.26169L92.4621 5.69995L92.4526 5.70441L93.1872 7.26169ZM93.9616 9.23841H92.2397L95.6 9.76775L93.9616 9.23841ZM96.8349 7.18018V8.90201C96.8755 8.90201 96.9026 8.90585 96.9182 8.90903C96.9335 8.91217 96.9403 8.91518 96.941 8.91547C96.9416 8.91575 96.9399 8.915 96.9376 8.91326C96.9354 8.9116 96.9356 8.91129 96.9381 8.91424C96.9456 8.92291 97.0287 9.03218 97.0287 9.31992H98.7505H100.472C100.472 8.38495 100.199 7.42435 99.5491 6.66883C98.875 5.88504 97.9089 5.45835 96.8349 5.45835V7.18018ZM98.7505 9.31992H97.0287C97.0287 9.50775 97.0115 9.65074 96.9883 9.7508C96.965 9.85137 96.9433 9.8766 96.9545 9.86023C96.9726 9.83355 97.0146 9.79019 97.0709 9.76209C97.1214 9.73693 97.1151 9.75821 96.998 9.75821V11.48V13.2019C98.1758 13.2019 99.1774 12.7161 99.8028 11.7956C100.352 10.988 100.472 10.0454 100.472 9.31992H98.7505ZM96.998 11.48V9.75821C96.7635 9.75821 96.8735 9.70613 97.0498 9.8583C97.1994 9.9875 97.2099 10.111 97.1695 9.97394C97.1462 9.89505 97.1339 9.83684 97.0934 9.67305C97.0631 9.5507 97.0055 9.32088 96.9062 9.08713C96.8046 8.84813 96.609 8.48011 96.2257 8.17783C95.8094 7.84944 95.3282 7.72036 94.8786 7.72036V9.44219V11.164C94.6684 11.164 94.3682 11.0986 94.0931 10.8817C93.8512 10.6908 93.7572 10.482 93.7369 10.4341C93.7187 10.3914 93.7218 10.3845 93.7507 10.5009C93.7693 10.5759 93.8146 10.7725 93.8665 10.9483C93.9764 11.3207 94.2072 11.9537 94.7994 12.465C95.4183 12.9992 96.1931 13.2019 96.998 13.2019V11.48ZM94.8786 9.44219V7.72036C94.2882 7.72036 93.7577 7.9619 93.3758 8.3623C93.0438 8.71029 92.8939 9.10254 92.82 9.35696C92.6763 9.8521 92.6677 10.3879 92.6677 10.7057H94.3895H96.1114C96.1114 10.5712 96.1148 10.4664 96.1216 10.3856C96.1289 10.2983 96.1366 10.2843 96.1271 10.3171C96.1221 10.3346 96.0677 10.5294 95.8675 10.7392C95.7584 10.8536 95.6098 10.9677 95.4205 11.05C95.2302 11.1326 95.0424 11.164 94.8786 11.164V9.44219ZM94.3895 10.7057H92.6677V14.7202H94.3895H96.1114V10.7057H94.3895ZM94.3895 14.7202H92.6677C92.6677 15.9736 93.4318 16.7382 93.7536 17.0542C93.8889 17.1871 93.865 17.1604 93.9572 17.2519C94.0073 17.3016 94.0168 17.3143 94.0104 17.3063C94.0013 17.295 93.8089 17.0569 93.8089 16.6562H95.5307H97.2525C97.2525 15.9396 96.9175 15.4264 96.6944 15.1489C96.5032 14.911 96.2285 14.6581 96.1666 14.5973C95.9178 14.353 96.1114 14.4654 96.1114 14.7202H94.3895ZM95.5307 16.6562H93.8089V16.7377H95.5307H97.2525V16.6562H95.5307ZM95.5307 16.7377H93.8089C93.8089 16.3904 93.9617 15.9989 94.2921 15.7252C94.5874 15.4805 94.8835 15.4438 95.0213 15.4438V17.1656V18.8875C95.4647 18.8875 96.0155 18.7693 96.4892 18.3769C96.9978 17.9554 97.2525 17.3499 97.2525 16.7377H95.5307ZM95.0213 17.1656V15.4438H90.1508V17.1656V18.8875H95.0213V17.1656ZM90.1508 17.1656V15.4438C90.2885 15.4438 90.5847 15.4805 90.88 15.7252C91.2103 15.9989 91.3632 16.3904 91.3632 16.7377H89.6413H87.9195C87.9195 17.3499 88.1742 17.9554 88.6829 18.3769C89.1565 18.7693 89.7074 18.8875 90.1508 18.8875V17.1656ZM89.6413 16.7377H91.3632V16.6562H89.6413H87.9195V16.7377H89.6413ZM89.6413 16.6562H91.3632C91.3632 16.9061 91.2726 17.0723 91.2558 17.1009C91.2508 17.1094 91.2563 17.0989 91.2909 17.052C91.3604 16.9579 91.3358 16.9941 91.4396 16.8548C91.7183 16.481 92.1987 15.7822 92.1987 14.7202H90.4769H88.755C88.755 14.7232 88.7549 14.7146 88.7584 14.6986C88.7618 14.6828 88.7664 14.6705 88.769 14.6647C88.7708 14.6606 88.7609 14.6863 88.6786 14.7967C88.6364 14.8533 88.4294 15.114 88.288 15.3543C88.1145 15.6491 87.9195 16.0904 87.9195 16.6562H89.6413ZM90.4769 14.7202H92.1987V11.2355H90.4769H88.755V14.7202H90.4769ZM90.4769 11.2355H92.1987C92.1987 10.6596 92.0413 10.1573 91.7847 9.73624C91.5478 9.34771 91.2571 9.08255 91.0964 8.94077C91.055 8.9042 91.014 8.86895 90.9848 8.84379C90.9524 8.81584 90.9312 8.79748 90.9131 8.78132C90.8742 8.74655 90.8836 8.75181 90.9088 8.78133C90.9795 8.86404 91.1594 9.1215 91.1594 9.50333H89.4375H87.7157C87.7157 10.201 88.0255 10.7081 88.2911 11.0188C88.4137 11.1623 88.5368 11.2762 88.6197 11.3501C88.6625 11.3883 88.7042 11.4244 88.7357 11.4516C88.7705 11.4816 88.7945 11.5022 88.818 11.523C88.9171 11.6104 88.8862 11.5975 88.8442 11.5286C88.7825 11.4273 88.755 11.3121 88.755 11.2355H90.4769ZM89.4375 9.50333H91.1594V9.42181H89.4375H87.7157V9.50333H89.4375ZM89.4375 9.42181H91.1594C91.1594 9.72789 91.0402 9.99219 90.8954 10.1668C90.7766 10.3102 90.6784 10.3494 90.717 10.3301L89.947 8.79008L89.177 7.25003C88.639 7.51901 87.7157 8.17339 87.7157 9.42181H89.4375ZM89.947 8.79008L90.6816 10.3474L93.9218 8.81897L93.1872 7.26169L92.4526 5.70441L89.2124 7.2328L89.947 8.79008ZM93.1872 7.26169L93.9123 8.82341C93.9116 8.82372 93.7784 8.888 93.5489 8.888C93.2855 8.888 92.9638 8.8006 92.6861 8.56916C92.4316 8.35708 92.3247 8.11668 92.2826 7.98658C92.2407 7.85712 92.2397 7.76962 92.2397 7.75078H93.9616H95.6834C95.6834 7.3845 95.616 6.52815 94.8906 5.92366C94.0138 5.19298 92.999 5.4507 92.4621 5.69998L93.1872 7.26169ZM93.9616 7.75078H92.2397V9.23841H93.9616H95.6834V7.75078H93.9616ZM93.9616 9.23841L95.6 9.76775C95.7256 9.37907 95.8861 9.19796 96.0149 9.10411C96.1432 9.01061 96.3795 8.90201 96.8349 8.90201V7.18018V5.45835C95.8027 5.45835 94.8163 5.71656 93.9868 6.32102C93.1578 6.92514 92.6255 7.77315 92.3231 8.70906L93.9616 9.23841ZM99.5179 8.99387L100.246 10.5542L100.262 10.5469L100.277 10.5393L99.5179 8.99387ZM103.003 7.28207L103.762 8.82755L103.773 8.82212L103.003 7.28207ZM101.963 6.38542V4.66358C101.561 4.66358 101.34 4.53771 101.24 4.44767C101.145 4.36297 101.097 4.26117 101.097 4.1234H99.3753H97.6534C97.6534 6.50587 99.6409 8.10725 101.963 8.10725V6.38542ZM99.3753 4.1234H101.097C101.097 3.98819 101.143 3.89505 101.232 3.81649C101.329 3.73027 101.552 3.6036 101.963 3.6036V1.88176V0.159933C99.6623 0.159933 97.6534 1.72181 97.6534 4.1234H99.3753ZM101.963 1.88176V3.6036C102.375 3.6036 102.598 3.73027 102.695 3.81649C102.784 3.89505 102.83 3.98819 102.83 4.1234H104.551H106.273C106.273 1.72181 104.264 0.159933 101.963 0.159933V1.88176ZM104.551 4.1234H102.83C102.83 4.26117 102.781 4.36297 102.687 4.44767C102.587 4.53771 102.365 4.66358 101.963 4.66358V6.38542V8.10725C104.286 8.10725 106.273 6.50587 106.273 4.1234H104.551ZM99.5179 17.1656V15.4438C99.6556 15.4438 99.9518 15.4805 100.247 15.7252C100.577 15.9989 100.73 16.3904 100.73 16.7377H99.0084H97.2866C97.2866 17.3499 97.5414 17.9554 98.05 18.3769C98.5236 18.7693 99.0745 18.8875 99.5179 18.8875V17.1656ZM99.0084 16.7377H100.73V16.6562H99.0084H97.2866V16.7377H99.0084ZM99.0084 16.6562H100.73C100.73 16.9061 100.64 17.0723 100.623 17.1009C100.618 17.1094 100.623 17.0989 100.658 17.052C100.728 16.9579 100.703 16.9941 100.807 16.8548C101.085 16.481 101.566 15.7822 101.566 14.7202H99.844H98.1221C98.1221 14.7232 98.122 14.7146 98.1255 14.6986C98.1289 14.6828 98.1335 14.6705 98.1361 14.6647C98.1379 14.6606 98.128 14.6863 98.0457 14.7967C98.0035 14.8533 97.7965 15.114 97.6551 15.3543C97.4816 15.6491 97.2866 16.0904 97.2866 16.6562H99.0084ZM99.844 14.7202H101.566V11.4393H99.844H98.1221V14.7202H99.844ZM99.844 11.4393H101.566C101.566 10.3765 101.087 9.67643 100.788 9.2904C100.741 9.22967 100.639 9.10213 100.627 9.08655C100.588 9.03648 100.581 9.02612 100.587 9.03406C100.599 9.05261 100.73 9.25914 100.73 9.58484H99.0084H97.2866C97.2866 10.1857 97.5228 10.6367 97.6914 10.8985C97.8226 11.1023 98.0421 11.3688 98.0643 11.3975C98.137 11.4914 98.1428 11.5114 98.1379 11.5002C98.1342 11.4919 98.1292 11.478 98.1256 11.4616C98.122 11.445 98.1221 11.4362 98.1221 11.4393H99.844ZM99.0084 9.58484H100.73V9.50333H99.0084H97.2866V9.58484H99.0084ZM99.0084 9.50333H100.73C100.73 9.69347 100.688 9.90397 100.587 10.1066C100.491 10.3003 100.371 10.4278 100.29 10.4993C100.25 10.5347 100.217 10.559 100.196 10.5732C100.176 10.5874 100.163 10.5948 100.161 10.5956C100.16 10.5965 100.165 10.5934 100.18 10.5857C100.196 10.578 100.217 10.5679 100.246 10.5542L99.5179 8.99387L98.7898 7.43357C98.6486 7.49944 98.306 7.65656 98.0069 7.92145C97.6235 8.26106 97.2866 8.79649 97.2866 9.50333H99.0084ZM99.5179 8.99387L100.277 10.5393L103.762 8.82751L103.003 7.28207L102.243 5.73663L98.7587 7.44843L99.5179 8.99387ZM103.003 7.28207L103.773 8.82212C103.693 8.86203 103.297 8.99764 102.842 8.7235C102.435 8.47822 102.279 8.07283 102.279 7.75078H104.001H105.723C105.723 7.02115 105.373 6.22857 104.62 5.77441C103.819 5.29139 102.924 5.39643 102.233 5.74202L103.003 7.28207ZM104.001 7.75078H102.279V14.7202H104.001H105.723V7.75078H104.001ZM104.001 14.7202H102.279C102.279 15.8478 102.85 16.573 103.149 16.9304C103.264 17.0683 103.238 17.0341 103.316 17.1277C103.355 17.1753 103.361 17.1857 103.355 17.1763C103.338 17.1497 103.217 16.9567 103.217 16.6562H104.939H106.66C106.66 16.0398 106.422 15.5717 106.229 15.2789C106.07 15.0378 105.838 14.778 105.791 14.7211C105.621 14.5181 105.723 14.5912 105.723 14.7202H104.001ZM104.939 16.6562H103.217V16.7377H104.939H106.66V16.6562H104.939ZM104.939 16.7377H103.217C103.217 16.3904 103.37 15.9989 103.7 15.7252C103.995 15.4805 104.291 15.4438 104.429 15.4438V17.1656V18.8875C104.873 18.8875 105.423 18.7693 105.897 18.3769C106.406 17.9554 106.66 17.3499 106.66 16.7377H104.939ZM104.429 17.1656V15.4438H99.5179V17.1656V18.8875H104.429V17.1656ZM122.935 14.7406L121.219 14.875L121.219 14.8807L122.935 14.7406ZM118.88 14.7406L117.161 14.84L117.161 14.8458L118.88 14.7406ZM118.676 11.2151L116.957 11.3086L116.957 11.3145L118.676 11.2151ZM116.618 10.4H114.896V10.5317L114.916 10.6618L116.618 10.4ZM105.797 8.85122L105.075 7.28785L105.069 7.29092L105.797 8.85122ZM109.241 7.26169L109.963 8.82504L109.975 8.81916L109.988 8.81307L109.241 7.26169ZM110.077 8.34175H108.355V13.1185L111.402 9.44031L110.077 8.34175ZM115.986 8.72894L114.567 9.70323L116.12 11.9661L117.481 9.58321L115.986 8.72894ZM122.67 11.3578L124.387 11.2233L124.387 11.2192L122.67 11.3578ZM122.935 14.7406L121.219 14.8807C121.293 15.7884 121.648 16.395 121.868 16.7515C121.927 16.8465 121.949 16.8807 121.98 16.9332C122.006 16.9751 122.01 16.9856 122.007 16.979C121.994 16.9508 121.947 16.8365 121.947 16.6766H123.669H125.391C125.391 15.7663 124.879 15.0732 124.797 14.9408C124.671 14.7368 124.659 14.6914 124.651 14.6005L122.935 14.7406ZM123.669 16.6766H121.947V16.7581H123.669H125.391V16.6766H123.669ZM123.669 16.7581H121.947C121.947 16.4108 122.1 16.0192 122.43 15.7456C122.726 15.5009 123.022 15.4642 123.16 15.4642V17.186V18.9079C123.603 18.9079 124.154 18.7897 124.627 18.3972C125.136 17.9758 125.391 17.3703 125.391 16.7581H123.669ZM123.16 17.186V15.4642H118.656V17.186V18.9079H123.16V17.186ZM118.656 17.186V15.4642C118.794 15.4642 119.09 15.5009 119.385 15.7456C119.715 16.0192 119.868 16.4108 119.868 16.7581H118.146H116.425C116.425 17.3703 116.679 17.9758 117.188 18.3972C117.662 18.7897 118.212 18.9079 118.656 18.9079V17.186ZM118.146 16.7581H119.868V16.6766H118.146H116.425V16.7581H118.146ZM118.146 16.6766H119.868C119.868 16.9053 119.789 17.0579 119.777 17.0808C119.774 17.086 119.78 17.0735 119.814 17.0238C119.831 16.9993 119.849 16.9739 119.875 16.9375C119.898 16.9039 119.928 16.8613 119.959 16.8161C120.236 16.4098 120.664 15.6947 120.599 14.6354L118.88 14.7406L117.161 14.8458C117.162 14.8481 117.162 14.8164 117.175 14.7804C117.182 14.7616 117.182 14.776 117.114 14.8762C117.086 14.9163 116.888 15.1882 116.763 15.4152C116.603 15.7042 116.425 16.132 116.425 16.6766H118.146ZM118.88 14.7406L120.599 14.6412L120.395 11.1158L118.676 11.2151L116.957 11.3145L117.161 14.84L118.88 14.7406ZM118.676 11.2151L120.396 11.1217C120.345 10.1829 120.243 9.26903 119.937 8.55773C119.769 8.16829 119.497 7.73229 119.038 7.40341C118.561 7.061 118.039 6.94598 117.576 6.94598V8.66781V10.3896C117.469 10.3896 117.25 10.3587 117.03 10.2009C116.829 10.0568 116.768 9.90605 116.774 9.91909C116.782 9.93866 116.821 10.0442 116.861 10.2979C116.901 10.5434 116.933 10.8719 116.957 11.3086L118.676 11.2151ZM117.576 8.66781V6.94598C117.081 6.94598 116.588 7.08299 116.156 7.38091C115.739 7.6688 115.468 8.04501 115.295 8.39452C114.968 9.05301 114.896 9.79874 114.896 10.4H116.618H118.34C118.34 10.2224 118.352 10.0892 118.368 9.99742C118.384 9.90106 118.398 9.88718 118.38 9.92436C118.359 9.96565 118.284 10.096 118.112 10.2152C117.925 10.3443 117.724 10.3896 117.576 10.3896V8.66781ZM116.618 10.4L114.916 10.6618C114.943 10.8347 114.957 11.0119 114.957 11.2355H116.679H118.401C118.401 10.8477 118.375 10.4951 118.32 10.1382L116.618 10.4ZM116.679 11.2355H114.957V14.7406H116.679H118.401V11.2355H116.679ZM116.679 14.7406H114.957C114.957 15.7356 115.353 16.4031 115.605 16.7891C115.696 16.9283 115.675 16.8921 115.736 16.9863C115.766 17.0328 115.772 17.0444 115.768 17.0384C115.755 17.0125 115.691 16.8759 115.691 16.6766H117.413H119.135C119.135 16.1614 118.979 15.7496 118.828 15.4575C118.705 15.2201 118.525 14.9612 118.487 14.9032C118.372 14.7287 118.401 14.7441 118.401 14.7406H116.679ZM117.413 16.6766H115.691V16.7581H117.413H119.135V16.6766H117.413ZM117.413 16.7581H115.691C115.691 16.4108 115.844 16.0192 116.174 15.7456C116.469 15.5009 116.766 15.4642 116.903 15.4642V17.186V18.9079C117.347 18.9079 117.898 18.7897 118.371 18.3972C118.88 17.9758 119.135 17.3703 119.135 16.7581H117.413ZM116.903 17.186V15.4642H112.4V17.186V18.9079H116.903V17.186ZM112.4 17.186V15.4642C112.537 15.4642 112.834 15.5009 113.129 15.7456C113.459 16.0192 113.612 16.4108 113.612 16.7581H111.89H110.168C110.168 17.3703 110.423 17.9758 110.932 18.3972C111.405 18.7897 111.956 18.9079 112.4 18.9079V17.186ZM111.89 16.7581H113.612V16.6766H111.89H110.168V16.7581H111.89ZM111.89 16.6766H113.612C113.612 16.8759 113.548 17.0125 113.535 17.0384C113.531 17.0444 113.537 17.0328 113.567 16.9863C113.628 16.8921 113.607 16.9283 113.698 16.7891C113.95 16.4031 114.346 15.7356 114.346 14.7406H112.624H110.902C110.902 14.7441 110.931 14.7287 110.816 14.9032C110.778 14.9612 110.598 15.2201 110.475 15.4575C110.324 15.7496 110.168 16.1614 110.168 16.6766H111.89ZM112.624 14.7406H114.346V10.9502H112.624H110.902V14.7406H112.624ZM112.624 10.9502H114.346C114.346 10.074 114.249 9.17784 113.881 8.44291C113.684 8.04891 113.385 7.65358 112.942 7.36209C112.489 7.0646 111.993 6.94598 111.523 6.94598V8.66781V10.3896C111.41 10.3896 111.23 10.3576 111.05 10.2397C110.88 10.1278 110.812 10.0051 110.801 9.98296C110.794 9.96888 110.824 10.0259 110.853 10.2024C110.881 10.3741 110.902 10.6179 110.902 10.9502H112.624ZM111.523 8.66781V6.94598C111.059 6.94598 110.577 7.05303 110.135 7.31899C109.695 7.58355 109.39 7.94766 109.187 8.31594C108.811 8.99866 108.742 9.77247 108.742 10.3592H110.464H112.186C112.186 10.1873 112.198 10.0671 112.211 9.99098C112.226 9.91121 112.235 9.92008 112.204 9.97747C112.166 10.0452 112.077 10.1698 111.91 10.2701C111.741 10.3717 111.59 10.3896 111.523 10.3896V8.66781ZM110.464 10.3592H108.742V14.7406H110.464H112.186V10.3592H110.464ZM110.464 14.7406H108.742C108.742 15.8682 109.313 16.5934 109.612 16.9508C109.727 17.0887 109.701 17.0545 109.779 17.1481C109.818 17.1957 109.824 17.2061 109.818 17.1967C109.8 17.1701 109.679 16.9771 109.679 16.6766H111.401H113.123C113.123 16.0602 112.885 15.5921 112.692 15.2992C112.532 15.0582 112.301 14.7984 112.253 14.7415C112.083 14.5385 112.186 14.6115 112.186 14.7406H110.464ZM111.401 16.6766H109.679V16.7581H111.401H113.123V16.6766H111.401ZM111.401 16.7581H109.679C109.679 16.4108 109.832 16.0192 110.162 15.7456C110.458 15.5009 110.754 15.4642 110.892 15.4642V17.186V18.9079C111.335 18.9079 111.886 18.7897 112.36 18.3972C112.868 17.9758 113.123 17.3703 113.123 16.7581H111.401ZM110.892 17.186V15.4642H105.98V17.186V18.9079H110.892V17.186ZM105.98 17.186V15.4642C106.118 15.4642 106.414 15.5009 106.71 15.7456C107.04 16.0192 107.193 16.4108 107.193 16.7581H105.471H103.749C103.749 17.3703 104.004 17.9758 104.513 18.3972C104.986 18.7897 105.537 18.9079 105.98 18.9079V17.186ZM105.471 16.7581H107.193V16.6766H105.471H103.749V16.7581H105.471ZM105.471 16.6766H107.193C107.193 16.9771 107.072 17.1701 107.054 17.1967C107.048 17.2061 107.054 17.1957 107.094 17.1481C107.171 17.0545 107.145 17.0887 107.26 16.9508C107.559 16.5934 108.13 15.8682 108.13 14.7406H106.408H104.687C104.687 14.6115 104.789 14.5385 104.619 14.7415C104.571 14.7984 104.34 15.0582 104.181 15.2992C103.987 15.5921 103.749 16.0602 103.749 16.6766H105.471ZM106.408 14.7406H108.13V11.2966H106.408H104.687V14.7406H106.408ZM106.408 11.2966H108.13C108.13 9.99919 107.319 9.26024 106.972 8.95643C106.825 8.82835 106.866 8.86695 106.769 8.78144C106.722 8.73973 106.722 8.73623 106.738 8.75525C106.779 8.8011 106.989 9.06115 106.989 9.48295H105.267H103.545C103.545 10.2206 103.898 10.7405 104.153 11.0296C104.358 11.2635 104.656 11.5062 104.704 11.548C104.927 11.7435 104.687 11.5955 104.687 11.2966H106.408ZM105.267 9.48295H106.989V9.40144H105.267H103.545V9.48295H105.267ZM105.267 9.40144H106.989C106.989 9.58967 106.947 9.79013 106.854 9.97884C106.766 10.1593 106.657 10.2796 106.583 10.3483C106.511 10.4136 106.459 10.4439 106.457 10.445C106.454 10.4466 106.471 10.4369 106.525 10.4115L105.797 8.85122L105.069 7.29092C104.904 7.36774 104.558 7.53173 104.252 7.81264C103.881 8.15411 103.545 8.69103 103.545 9.40144H105.267ZM105.797 8.85122L106.519 10.4146L109.963 8.82504L109.241 7.26169L108.519 5.69834L105.075 7.28786L105.797 8.85122ZM109.241 7.26169L109.988 8.81307C109.939 8.8366 109.781 8.90204 109.541 8.89321C109.281 8.88369 109.012 8.7894 108.789 8.61131C108.383 8.28613 108.355 7.89358 108.355 7.79153H110.077H111.798C111.798 7.26154 111.627 6.47161 110.941 5.92226C110.132 5.27506 109.168 5.38572 108.494 5.71032L109.241 7.26169ZM110.077 7.79153H108.355V8.34175H110.077H111.798V7.79153H110.077ZM110.077 8.34175L111.402 9.44031C111.649 9.14322 112.069 8.90201 112.685 8.90201V7.18018V5.45835C111.1 5.45835 109.686 6.11379 108.751 7.24319L110.077 8.34175ZM112.685 7.18018V8.90201C113.656 8.90201 114.252 9.24521 114.567 9.70323L115.986 8.72894L117.406 7.75466C116.294 6.13408 114.485 5.45835 112.685 5.45835V7.18018ZM115.986 8.72894L117.481 9.58321C117.687 9.22323 118.128 8.90201 118.941 8.90201V7.18018V5.45835C117.146 5.45835 115.427 6.23757 114.491 7.87468L115.986 8.72894ZM118.941 7.18018V8.90201C119.478 8.90201 119.882 9.04322 120.168 9.30652C120.45 9.5652 120.845 10.15 120.954 11.4964L122.67 11.3578L124.387 11.2192C124.23 9.28462 123.597 7.78061 122.498 6.77073C121.404 5.76546 120.075 5.45835 118.941 5.45835V7.18018ZM122.67 11.3578L120.954 11.4922L121.219 14.875L122.935 14.7406L124.652 14.6062L124.387 11.2233L122.67 11.3578Z" fill="#FFF6EF" mask="url(#path-1-outside-1_17103_394)"/>
</svg>
