<svg width="149" height="20" viewBox="0 0 149 20" fill="none" xmlns="http://www.w3.org/2000/svg">
<mask id="path-1-outside-1_17104_402" maskUnits="userSpaceOnUse" x="-0.0117188" y="-0.819824" width="149" height="20" fill="black">
<rect fill="white" x="-0.0117188" y="-0.819824" width="149" height="20"/>
<path d="M2.23137 17.1802C1.92569 17.1802 1.72191 17.0171 1.72191 16.7522V16.6707C1.72191 16.039 2.55743 15.7333 2.55743 14.7348V5.15685C2.55743 4.15831 1.72191 3.85263 1.72191 3.22089V3.13938C1.72191 2.87446 1.92569 2.71143 2.23137 2.71143H11.7278C12.2168 2.71143 12.4002 2.89484 12.4818 3.38392L12.9708 6.11464C13.032 6.50183 12.7874 6.74638 12.4002 6.74638H12.278C11.0145 6.74638 10.4235 4.28058 8.87477 4.28058H7.73357C7.20373 4.28058 6.71464 4.52512 6.71464 5.34026V9.04915H8.44682C9.62877 9.04915 9.75104 7.2966 10.3828 7.2966H10.5866C10.8515 7.2966 11.0145 7.50038 11.0145 7.80606V11.7799C11.0145 12.0855 10.8515 12.2893 10.5866 12.2893H10.3828C9.75104 12.2893 9.62877 10.6387 8.44682 10.6387H6.71464V13.9807C6.71464 14.7144 7.02032 15.611 8.05962 15.611H9.52688C11.0756 15.611 11.3813 12.9822 12.7467 12.9822H12.9505C13.3173 12.9822 13.4803 13.3694 13.4396 13.6547L12.9912 16.4669C12.9097 16.956 12.7263 17.1802 12.2372 17.1802H2.23137ZM14.4163 17.1802C14.1106 17.1802 13.9068 17.0171 13.9068 16.7522V16.6707C13.9068 16.039 14.7423 15.7333 14.7423 14.7348V5.99237C14.7423 4.99382 13.9068 4.68815 13.9068 4.13793V4.05641C13.9068 3.81187 14.1106 3.6896 14.4163 3.54695L17.901 1.83516C18.5124 1.52948 18.8996 1.89629 18.8996 2.30386V14.7348C18.8996 15.7333 19.837 16.039 19.837 16.6707V16.7522C19.837 17.0171 19.6332 17.1802 19.3275 17.1802H14.4163ZM23.3683 6.39994C21.8196 6.39994 20.7803 5.4014 20.7803 4.13793C20.7803 2.87446 21.8196 1.89629 23.3683 1.89629C24.9171 1.89629 25.9564 2.87446 25.9564 4.13793C25.9564 5.4014 24.9171 6.39994 23.3683 6.39994ZM20.9229 17.1802C20.6172 17.1802 20.4135 17.0171 20.4135 16.7522V16.6707C20.4135 16.039 21.249 15.7333 21.249 14.7348V11.4538C21.249 10.4553 20.4135 10.1496 20.4135 9.59937V9.51786C20.4135 9.27331 20.6172 9.15104 20.9229 9.00839L24.4076 7.2966C25.019 6.99092 25.4062 7.35773 25.4062 7.7653V14.7348C25.4062 15.7333 26.3436 16.039 26.3436 16.6707V16.7522C26.3436 17.0171 26.1398 17.1802 25.8341 17.1802H20.9229ZM31.4 17.3636C28.8731 17.3636 26.8352 16.5077 26.8352 14.9589C26.8352 13.94 27.5485 13.512 28.4451 13.512C30.7072 13.512 29.9939 16.3854 31.4 16.3854C31.828 16.3854 32.1948 16.1613 32.1948 15.448C32.1948 12.7988 26.9983 14.266 26.9983 10.3738C26.9983 8.49893 28.7916 7.1947 31.4204 7.1947C34.0289 7.1947 35.8018 8.25439 35.8018 9.6605C35.8018 10.4349 35.1089 11.0462 34.253 11.0462C32.0725 11.0462 32.745 8.21363 31.6446 8.21363C31.1555 8.21363 30.9925 8.72309 30.9925 9.21218C30.9925 12.0244 35.9241 10.6794 35.9241 14.3068C35.9241 16.039 34.3142 17.3636 31.4 17.3636ZM46.6484 14.7959C46.8522 16.3039 47.647 15.9778 47.647 16.5688C47.647 17.1598 46.302 17.3024 45.0996 17.3024C43.7954 17.3024 43.1841 17.0579 43.0007 16.4058C42.5727 16.9356 41.7983 17.384 40.4941 17.384C38.334 17.384 36.6222 16.4058 36.6222 14.2864C36.6222 12.2078 38.3747 11.1481 40.2699 11.1481C41.0647 11.1481 41.7168 11.3112 42.2263 11.5965C41.9817 9.23256 41.9613 8.25439 41.0443 8.25439C39.842 8.25439 40.4737 11.087 38.4562 11.087C37.4985 11.087 36.8463 10.496 36.8463 9.61975C36.8463 7.80606 39.0065 7.1947 41.0443 7.1947C43.8362 7.1947 45.8536 8.78423 46.1797 11.2704L46.6484 14.7959ZM41.7983 16.2428C42.3078 16.2428 42.5727 15.4888 42.5319 14.9182L42.4504 13.9604C42.2874 12.6969 41.8391 12.3301 41.4519 12.3301C41.0443 12.3301 40.759 12.7988 40.759 13.4917C40.759 14.9589 41.1258 16.2428 41.7983 16.2428ZM65.386 14.7551C65.4675 15.7537 66.1196 16.0594 66.1196 16.6911V16.7726C66.1196 17.0375 65.9158 17.2006 65.6101 17.2006H61.1065C60.8008 17.2006 60.597 17.0375 60.597 16.7726V16.6911C60.597 16.0594 61.3918 15.7537 61.3306 14.7551L61.1269 11.2296C61.025 9.35483 60.7397 8.68234 60.0264 8.68234C59.3336 8.68234 59.0686 9.41596 59.0686 10.4145C59.1094 10.6794 59.1298 10.9444 59.1298 11.25V14.7551C59.1298 15.7537 59.8634 16.0594 59.8634 16.6911V16.7726C59.8634 17.0375 59.6596 17.2006 59.3539 17.2006H54.8503C54.5446 17.2006 54.3408 17.0375 54.3408 16.7726V16.6911C54.3408 16.0594 55.0744 15.7537 55.0744 14.7551V10.9647C55.0744 9.37521 54.6873 8.68234 53.974 8.68234C53.1792 8.68234 52.9143 9.39558 52.9143 10.3738V14.7551C52.9143 15.7537 53.8517 16.0594 53.8517 16.6911V16.7726C53.8517 17.0375 53.6479 17.2006 53.3423 17.2006H48.431C48.1254 17.2006 47.9216 17.0375 47.9216 16.7726V16.6911C47.9216 16.0594 48.859 15.7537 48.859 14.7551V11.3112C48.859 10.3126 47.7178 10.1292 47.7178 9.49748V9.41596C47.7178 9.15104 47.942 9.00839 48.2476 8.86574L51.6916 7.27622C52.2418 7.0113 52.5271 7.37811 52.5271 7.80606V8.35628C53.1181 7.64303 54.0351 7.1947 55.1356 7.1947C56.5213 7.1947 57.7237 7.70417 58.4369 8.74347C59.0075 7.74492 60.0876 7.1947 61.3918 7.1947C63.0628 7.1947 64.8561 8.09136 65.1211 11.3723L65.386 14.7551ZM76.5698 14.7959C76.7736 16.3039 77.5683 15.9778 77.5683 16.5688C77.5683 17.1598 76.2234 17.3024 75.021 17.3024C73.7168 17.3024 73.1054 17.0579 72.922 16.4058C72.4941 16.9356 71.7197 17.384 70.4155 17.384C68.2554 17.384 66.5436 16.4058 66.5436 14.2864C66.5436 12.2078 68.2961 11.1481 70.1913 11.1481C70.9861 11.1481 71.6382 11.3112 72.1477 11.5965C71.9031 9.23256 71.8827 8.25439 70.9657 8.25439C69.7634 8.25439 70.3951 11.087 68.3776 11.087C67.4198 11.087 66.7677 10.496 66.7677 9.61975C66.7677 7.80606 68.9279 7.1947 70.9657 7.1947C73.7576 7.1947 75.775 8.78423 76.1011 11.2704L76.5698 14.7959ZM71.7197 16.2428C72.2292 16.2428 72.4941 15.4888 72.4533 14.9182L72.3718 13.9604C72.2088 12.6969 71.7605 12.3301 71.3733 12.3301C70.9657 12.3301 70.6804 12.7988 70.6804 13.4917C70.6804 14.9589 71.0472 16.2428 71.7197 16.2428ZM87.8178 17.384C84.1904 17.384 81.5412 15.611 81.5412 13.6547C81.5412 12.6765 82.0099 12.0244 83.1715 12.0244C85.515 12.0244 85.2093 15.8963 87.9808 15.8963C88.9794 15.8963 89.5703 15.3869 89.5703 14.5106C89.5703 10.8221 81.7654 12.9618 81.745 7.05206C81.745 4.34171 84.007 2.52803 87.3898 2.52803C90.7115 2.52803 93.4015 4.28058 93.3811 6.25729C93.3811 7.25584 92.8105 7.92833 91.6489 7.92833C88.9386 7.92833 89.4888 3.99528 87.3083 3.99528C86.2283 3.99528 85.7595 4.64739 85.7595 5.52367C85.7595 9.86429 93.5238 7.52076 93.5238 13.1045C93.5238 15.8556 90.8949 17.384 87.8178 17.384ZM104.238 14.7959C104.441 16.3039 105.236 15.9778 105.236 16.5688C105.236 17.1598 103.891 17.3024 102.689 17.3024C101.385 17.3024 100.773 17.0579 100.59 16.4058C100.162 16.9356 99.3875 17.384 98.0833 17.384C95.9232 17.384 94.2114 16.4058 94.2114 14.2864C94.2114 12.2078 95.9639 11.1481 97.8591 11.1481C98.6539 11.1481 99.306 11.3112 99.8155 11.5965C99.5709 9.23256 99.5505 8.25439 98.6335 8.25439C97.4312 8.25439 98.0629 11.087 96.0454 11.087C95.0876 11.087 94.4355 10.496 94.4355 9.61975C94.4355 7.80606 96.5957 7.1947 98.6335 7.1947C101.425 7.1947 103.443 8.78423 103.769 11.2704L104.238 14.7959ZM99.3875 16.2428C99.897 16.2428 100.162 15.4888 100.121 14.9182L100.04 13.9604C99.8766 12.6969 99.4283 12.3301 99.0411 12.3301C98.6335 12.3301 98.3482 12.7988 98.3482 13.4917C98.3482 14.9589 98.715 16.2428 99.3875 16.2428ZM116.902 14.7551C116.984 15.7537 117.636 16.0594 117.636 16.6911V16.7726C117.636 17.0375 117.432 17.2006 117.127 17.2006H112.623C112.317 17.2006 112.113 17.0375 112.113 16.7726V16.6911C112.113 16.0594 112.908 15.7537 112.847 14.7551L112.643 11.2296C112.541 9.33445 112.317 8.68234 111.522 8.68234C110.789 8.68234 110.524 9.37521 110.524 10.4349V14.7551C110.524 15.7537 111.461 16.0594 111.461 16.6911V16.7726C111.461 17.0375 111.258 17.2006 110.952 17.2006H106.041C105.735 17.2006 105.531 17.0375 105.531 16.7726V16.6911C105.531 16.0594 106.469 15.7537 106.469 14.7551V11.3112C106.469 10.3126 105.327 10.1292 105.327 9.49748V9.41596C105.327 9.15104 105.552 9.02877 105.857 8.86574L109.057 7.27622C109.607 6.99092 109.892 7.37811 109.892 7.80606V8.64158C110.422 7.70417 111.421 7.1947 112.745 7.1947C114.457 7.1947 116.373 8.09136 116.637 11.3723L116.902 14.7551ZM122.444 17.384C120.325 17.384 118.939 15.9982 118.939 13.4305V8.92688H118.328C118.043 8.92688 117.818 8.70271 117.818 8.41742V7.90795C117.818 7.60227 118.022 7.39849 118.328 7.39849H118.613C119.938 7.39849 121.038 6.56297 121.344 5.31988C121.425 4.97345 121.67 4.74928 121.955 4.74928H122.506C122.852 4.74928 123.096 4.97345 123.096 5.31988V7.39849H125.012C125.297 7.39849 125.522 7.62265 125.522 7.90795V8.41742C125.522 8.70271 125.297 8.92688 125.012 8.92688H123.096V13.512C123.096 14.0826 123.463 14.4495 123.932 14.4495C124.686 14.4495 124.971 14.0826 125.216 13.7973C125.542 13.4305 126.031 13.5732 126.031 13.9807C126.031 15.611 124.829 17.384 122.444 17.384ZM131.861 17.384C128.886 17.384 126.176 15.3461 126.176 12.2893C126.176 9.23256 128.886 7.1947 131.861 7.1947C134.857 7.1947 137.527 9.23256 137.527 12.2893C137.527 15.3461 134.857 17.384 131.861 17.384ZM132.351 16.2835C133.166 16.2835 133.288 15.4276 133.288 14.1438C133.288 13.0637 132.677 8.29514 131.169 8.29514C130.374 8.29514 130.252 9.06953 130.252 10.4756C130.252 11.7799 130.863 16.2835 132.351 16.2835ZM142.678 17.3636C140.151 17.3636 138.113 16.5077 138.113 14.9589C138.113 13.94 138.826 13.512 139.723 13.512C141.985 13.512 141.272 16.3854 142.678 16.3854C143.106 16.3854 143.473 16.1613 143.473 15.448C143.473 12.7988 138.276 14.266 138.276 10.3738C138.276 8.49893 140.069 7.1947 142.698 7.1947C145.307 7.1947 147.08 8.25439 147.08 9.6605C147.08 10.4349 146.387 11.0462 145.531 11.0462C143.35 11.0462 144.023 8.21363 142.922 8.21363C142.433 8.21363 142.27 8.72309 142.27 9.21218C142.27 12.0244 147.202 10.6794 147.202 14.3068C147.202 16.039 145.592 17.3636 142.678 17.3636Z"/>
</mask>
<path d="M2.23137 17.1802C1.92569 17.1802 1.72191 17.0171 1.72191 16.7522V16.6707C1.72191 16.039 2.55743 15.7333 2.55743 14.7348V5.15685C2.55743 4.15831 1.72191 3.85263 1.72191 3.22089V3.13938C1.72191 2.87446 1.92569 2.71143 2.23137 2.71143H11.7278C12.2168 2.71143 12.4002 2.89484 12.4818 3.38392L12.9708 6.11464C13.032 6.50183 12.7874 6.74638 12.4002 6.74638H12.278C11.0145 6.74638 10.4235 4.28058 8.87477 4.28058H7.73357C7.20373 4.28058 6.71464 4.52512 6.71464 5.34026V9.04915H8.44682C9.62877 9.04915 9.75104 7.2966 10.3828 7.2966H10.5866C10.8515 7.2966 11.0145 7.50038 11.0145 7.80606V11.7799C11.0145 12.0855 10.8515 12.2893 10.5866 12.2893H10.3828C9.75104 12.2893 9.62877 10.6387 8.44682 10.6387H6.71464V13.9807C6.71464 14.7144 7.02032 15.611 8.05962 15.611H9.52688C11.0756 15.611 11.3813 12.9822 12.7467 12.9822H12.9505C13.3173 12.9822 13.4803 13.3694 13.4396 13.6547L12.9912 16.4669C12.9097 16.956 12.7263 17.1802 12.2372 17.1802H2.23137ZM14.4163 17.1802C14.1106 17.1802 13.9068 17.0171 13.9068 16.7522V16.6707C13.9068 16.039 14.7423 15.7333 14.7423 14.7348V5.99237C14.7423 4.99382 13.9068 4.68815 13.9068 4.13793V4.05641C13.9068 3.81187 14.1106 3.6896 14.4163 3.54695L17.901 1.83516C18.5124 1.52948 18.8996 1.89629 18.8996 2.30386V14.7348C18.8996 15.7333 19.837 16.039 19.837 16.6707V16.7522C19.837 17.0171 19.6332 17.1802 19.3275 17.1802H14.4163ZM23.3683 6.39994C21.8196 6.39994 20.7803 5.4014 20.7803 4.13793C20.7803 2.87446 21.8196 1.89629 23.3683 1.89629C24.9171 1.89629 25.9564 2.87446 25.9564 4.13793C25.9564 5.4014 24.9171 6.39994 23.3683 6.39994ZM20.9229 17.1802C20.6172 17.1802 20.4135 17.0171 20.4135 16.7522V16.6707C20.4135 16.039 21.249 15.7333 21.249 14.7348V11.4538C21.249 10.4553 20.4135 10.1496 20.4135 9.59937V9.51786C20.4135 9.27331 20.6172 9.15104 20.9229 9.00839L24.4076 7.2966C25.019 6.99092 25.4062 7.35773 25.4062 7.7653V14.7348C25.4062 15.7333 26.3436 16.039 26.3436 16.6707V16.7522C26.3436 17.0171 26.1398 17.1802 25.8341 17.1802H20.9229ZM31.4 17.3636C28.8731 17.3636 26.8352 16.5077 26.8352 14.9589C26.8352 13.94 27.5485 13.512 28.4451 13.512C30.7072 13.512 29.9939 16.3854 31.4 16.3854C31.828 16.3854 32.1948 16.1613 32.1948 15.448C32.1948 12.7988 26.9983 14.266 26.9983 10.3738C26.9983 8.49893 28.7916 7.1947 31.4204 7.1947C34.0289 7.1947 35.8018 8.25439 35.8018 9.6605C35.8018 10.4349 35.1089 11.0462 34.253 11.0462C32.0725 11.0462 32.745 8.21363 31.6446 8.21363C31.1555 8.21363 30.9925 8.72309 30.9925 9.21218C30.9925 12.0244 35.9241 10.6794 35.9241 14.3068C35.9241 16.039 34.3142 17.3636 31.4 17.3636ZM46.6484 14.7959C46.8522 16.3039 47.647 15.9778 47.647 16.5688C47.647 17.1598 46.302 17.3024 45.0996 17.3024C43.7954 17.3024 43.1841 17.0579 43.0007 16.4058C42.5727 16.9356 41.7983 17.384 40.4941 17.384C38.334 17.384 36.6222 16.4058 36.6222 14.2864C36.6222 12.2078 38.3747 11.1481 40.2699 11.1481C41.0647 11.1481 41.7168 11.3112 42.2263 11.5965C41.9817 9.23256 41.9613 8.25439 41.0443 8.25439C39.842 8.25439 40.4737 11.087 38.4562 11.087C37.4985 11.087 36.8463 10.496 36.8463 9.61975C36.8463 7.80606 39.0065 7.1947 41.0443 7.1947C43.8362 7.1947 45.8536 8.78423 46.1797 11.2704L46.6484 14.7959ZM41.7983 16.2428C42.3078 16.2428 42.5727 15.4888 42.5319 14.9182L42.4504 13.9604C42.2874 12.6969 41.8391 12.3301 41.4519 12.3301C41.0443 12.3301 40.759 12.7988 40.759 13.4917C40.759 14.9589 41.1258 16.2428 41.7983 16.2428ZM65.386 14.7551C65.4675 15.7537 66.1196 16.0594 66.1196 16.6911V16.7726C66.1196 17.0375 65.9158 17.2006 65.6101 17.2006H61.1065C60.8008 17.2006 60.597 17.0375 60.597 16.7726V16.6911C60.597 16.0594 61.3918 15.7537 61.3306 14.7551L61.1269 11.2296C61.025 9.35483 60.7397 8.68234 60.0264 8.68234C59.3336 8.68234 59.0686 9.41596 59.0686 10.4145C59.1094 10.6794 59.1298 10.9444 59.1298 11.25V14.7551C59.1298 15.7537 59.8634 16.0594 59.8634 16.6911V16.7726C59.8634 17.0375 59.6596 17.2006 59.3539 17.2006H54.8503C54.5446 17.2006 54.3408 17.0375 54.3408 16.7726V16.6911C54.3408 16.0594 55.0744 15.7537 55.0744 14.7551V10.9647C55.0744 9.37521 54.6873 8.68234 53.974 8.68234C53.1792 8.68234 52.9143 9.39558 52.9143 10.3738V14.7551C52.9143 15.7537 53.8517 16.0594 53.8517 16.6911V16.7726C53.8517 17.0375 53.6479 17.2006 53.3423 17.2006H48.431C48.1254 17.2006 47.9216 17.0375 47.9216 16.7726V16.6911C47.9216 16.0594 48.859 15.7537 48.859 14.7551V11.3112C48.859 10.3126 47.7178 10.1292 47.7178 9.49748V9.41596C47.7178 9.15104 47.942 9.00839 48.2476 8.86574L51.6916 7.27622C52.2418 7.0113 52.5271 7.37811 52.5271 7.80606V8.35628C53.1181 7.64303 54.0351 7.1947 55.1356 7.1947C56.5213 7.1947 57.7237 7.70417 58.4369 8.74347C59.0075 7.74492 60.0876 7.1947 61.3918 7.1947C63.0628 7.1947 64.8561 8.09136 65.1211 11.3723L65.386 14.7551ZM76.5698 14.7959C76.7736 16.3039 77.5683 15.9778 77.5683 16.5688C77.5683 17.1598 76.2234 17.3024 75.021 17.3024C73.7168 17.3024 73.1054 17.0579 72.922 16.4058C72.4941 16.9356 71.7197 17.384 70.4155 17.384C68.2554 17.384 66.5436 16.4058 66.5436 14.2864C66.5436 12.2078 68.2961 11.1481 70.1913 11.1481C70.9861 11.1481 71.6382 11.3112 72.1477 11.5965C71.9031 9.23256 71.8827 8.25439 70.9657 8.25439C69.7634 8.25439 70.3951 11.087 68.3776 11.087C67.4198 11.087 66.7677 10.496 66.7677 9.61975C66.7677 7.80606 68.9279 7.1947 70.9657 7.1947C73.7576 7.1947 75.775 8.78423 76.1011 11.2704L76.5698 14.7959ZM71.7197 16.2428C72.2292 16.2428 72.4941 15.4888 72.4533 14.9182L72.3718 13.9604C72.2088 12.6969 71.7605 12.3301 71.3733 12.3301C70.9657 12.3301 70.6804 12.7988 70.6804 13.4917C70.6804 14.9589 71.0472 16.2428 71.7197 16.2428ZM87.8178 17.384C84.1904 17.384 81.5412 15.611 81.5412 13.6547C81.5412 12.6765 82.0099 12.0244 83.1715 12.0244C85.515 12.0244 85.2093 15.8963 87.9808 15.8963C88.9794 15.8963 89.5703 15.3869 89.5703 14.5106C89.5703 10.8221 81.7654 12.9618 81.745 7.05206C81.745 4.34171 84.007 2.52803 87.3898 2.52803C90.7115 2.52803 93.4015 4.28058 93.3811 6.25729C93.3811 7.25584 92.8105 7.92833 91.6489 7.92833C88.9386 7.92833 89.4888 3.99528 87.3083 3.99528C86.2283 3.99528 85.7595 4.64739 85.7595 5.52367C85.7595 9.86429 93.5238 7.52076 93.5238 13.1045C93.5238 15.8556 90.8949 17.384 87.8178 17.384ZM104.238 14.7959C104.441 16.3039 105.236 15.9778 105.236 16.5688C105.236 17.1598 103.891 17.3024 102.689 17.3024C101.385 17.3024 100.773 17.0579 100.59 16.4058C100.162 16.9356 99.3875 17.384 98.0833 17.384C95.9232 17.384 94.2114 16.4058 94.2114 14.2864C94.2114 12.2078 95.9639 11.1481 97.8591 11.1481C98.6539 11.1481 99.306 11.3112 99.8155 11.5965C99.5709 9.23256 99.5505 8.25439 98.6335 8.25439C97.4312 8.25439 98.0629 11.087 96.0454 11.087C95.0876 11.087 94.4355 10.496 94.4355 9.61975C94.4355 7.80606 96.5957 7.1947 98.6335 7.1947C101.425 7.1947 103.443 8.78423 103.769 11.2704L104.238 14.7959ZM99.3875 16.2428C99.897 16.2428 100.162 15.4888 100.121 14.9182L100.04 13.9604C99.8766 12.6969 99.4283 12.3301 99.0411 12.3301C98.6335 12.3301 98.3482 12.7988 98.3482 13.4917C98.3482 14.9589 98.715 16.2428 99.3875 16.2428ZM116.902 14.7551C116.984 15.7537 117.636 16.0594 117.636 16.6911V16.7726C117.636 17.0375 117.432 17.2006 117.127 17.2006H112.623C112.317 17.2006 112.113 17.0375 112.113 16.7726V16.6911C112.113 16.0594 112.908 15.7537 112.847 14.7551L112.643 11.2296C112.541 9.33445 112.317 8.68234 111.522 8.68234C110.789 8.68234 110.524 9.37521 110.524 10.4349V14.7551C110.524 15.7537 111.461 16.0594 111.461 16.6911V16.7726C111.461 17.0375 111.258 17.2006 110.952 17.2006H106.041C105.735 17.2006 105.531 17.0375 105.531 16.7726V16.6911C105.531 16.0594 106.469 15.7537 106.469 14.7551V11.3112C106.469 10.3126 105.327 10.1292 105.327 9.49748V9.41596C105.327 9.15104 105.552 9.02877 105.857 8.86574L109.057 7.27622C109.607 6.99092 109.892 7.37811 109.892 7.80606V8.64158C110.422 7.70417 111.421 7.1947 112.745 7.1947C114.457 7.1947 116.373 8.09136 116.637 11.3723L116.902 14.7551ZM122.444 17.384C120.325 17.384 118.939 15.9982 118.939 13.4305V8.92688H118.328C118.043 8.92688 117.818 8.70271 117.818 8.41742V7.90795C117.818 7.60227 118.022 7.39849 118.328 7.39849H118.613C119.938 7.39849 121.038 6.56297 121.344 5.31988C121.425 4.97345 121.67 4.74928 121.955 4.74928H122.506C122.852 4.74928 123.096 4.97345 123.096 5.31988V7.39849H125.012C125.297 7.39849 125.522 7.62265 125.522 7.90795V8.41742C125.522 8.70271 125.297 8.92688 125.012 8.92688H123.096V13.512C123.096 14.0826 123.463 14.4495 123.932 14.4495C124.686 14.4495 124.971 14.0826 125.216 13.7973C125.542 13.4305 126.031 13.5732 126.031 13.9807C126.031 15.611 124.829 17.384 122.444 17.384ZM131.861 17.384C128.886 17.384 126.176 15.3461 126.176 12.2893C126.176 9.23256 128.886 7.1947 131.861 7.1947C134.857 7.1947 137.527 9.23256 137.527 12.2893C137.527 15.3461 134.857 17.384 131.861 17.384ZM132.351 16.2835C133.166 16.2835 133.288 15.4276 133.288 14.1438C133.288 13.0637 132.677 8.29514 131.169 8.29514C130.374 8.29514 130.252 9.06953 130.252 10.4756C130.252 11.7799 130.863 16.2835 132.351 16.2835ZM142.678 17.3636C140.151 17.3636 138.113 16.5077 138.113 14.9589C138.113 13.94 138.826 13.512 139.723 13.512C141.985 13.512 141.272 16.3854 142.678 16.3854C143.106 16.3854 143.473 16.1613 143.473 15.448C143.473 12.7988 138.276 14.266 138.276 10.3738C138.276 8.49893 140.069 7.1947 142.698 7.1947C145.307 7.1947 147.08 8.25439 147.08 9.6605C147.08 10.4349 146.387 11.0462 145.531 11.0462C143.35 11.0462 144.023 8.21363 142.922 8.21363C142.433 8.21363 142.27 8.72309 142.27 9.21218C142.27 12.0244 147.202 10.6794 147.202 14.3068C147.202 16.039 145.592 17.3636 142.678 17.3636Z" fill="#2260A1"/>
<path d="M12.4818 3.38392L10.7834 3.66699L10.7851 3.67725L10.7869 3.68748L12.4818 3.38392ZM12.9708 6.11464L14.6716 5.8461L14.6688 5.82856L14.6657 5.81109L12.9708 6.11464ZM6.71464 9.04915H4.99281V10.771H6.71464V9.04915ZM6.71464 10.6387V8.91684H4.99281V10.6387H6.71464ZM13.4396 13.6547L15.1399 13.9258L15.1421 13.912L15.1441 13.8982L13.4396 13.6547ZM12.9912 16.4669L14.6897 16.75L14.6916 16.738L12.9912 16.4669ZM2.23137 17.1802V15.4583C2.36909 15.4583 2.66524 15.495 2.96057 15.7397C3.29089 16.0134 3.44374 16.4049 3.44374 16.7522H1.72191H7.66516e-05C7.66516e-05 17.3645 0.254822 17.97 0.763451 18.3914C1.23709 18.7838 1.78797 18.902 2.23137 18.902V17.1802ZM1.72191 16.7522H3.44374V16.6707H1.72191H7.66516e-05V16.7522H1.72191ZM1.72191 16.6707H3.44374C3.44374 16.9207 3.3532 17.0869 3.33638 17.1154C3.33141 17.1239 3.33688 17.1134 3.37148 17.0665C3.44098 16.9724 3.41633 17.0086 3.52014 16.8694C3.79885 16.4955 4.27926 15.7968 4.27926 14.7348H2.55743H0.835596C0.835596 14.7378 0.835469 14.7292 0.838947 14.7132C0.842382 14.6974 0.846994 14.685 0.849538 14.6792C0.851345 14.6751 0.84146 14.7009 0.759196 14.8112C0.716967 14.8679 0.509957 15.1285 0.368535 15.3688C0.19505 15.6636 7.66516e-05 16.1049 7.66516e-05 16.6707H1.72191ZM2.55743 14.7348H4.27926V5.15685H2.55743H0.835596V14.7348H2.55743ZM2.55743 5.15685H4.27926C4.27926 4.09484 3.79885 3.39613 3.52014 3.02224C3.41633 2.88299 3.44098 2.91921 3.37148 2.82508C3.33688 2.77821 3.33141 2.76771 3.33638 2.77617C3.3532 2.80476 3.44374 2.97094 3.44374 3.22089H1.72191H7.66516e-05C7.66516e-05 3.78672 0.19505 4.22801 0.368535 4.52279C0.509957 4.76309 0.716967 5.02375 0.759196 5.0804C0.84146 5.19075 0.851345 5.2165 0.849538 5.21237C0.846994 5.20656 0.842382 5.19425 0.838947 5.17844C0.835469 5.16244 0.835596 5.15385 0.835596 5.15685H2.55743ZM1.72191 3.22089H3.44374V3.13938H1.72191H7.66516e-05V3.22089H1.72191ZM1.72191 3.13938H3.44374C3.44374 3.48668 3.29089 3.87822 2.96057 4.15191C2.66524 4.39661 2.36909 4.43326 2.23137 4.43326V2.71143V0.989601C1.78797 0.989601 1.23709 1.10777 0.76345 1.50021C0.254822 1.92165 7.66516e-05 2.52716 7.66516e-05 3.13938H1.72191ZM2.23137 2.71143V4.43326H11.7278V2.71143V0.989601H2.23137V2.71143ZM11.7278 2.71143V4.43326C11.7977 4.43326 11.4448 4.45376 11.0966 4.13582C10.7778 3.84472 10.7611 3.5337 10.7834 3.66699L12.4818 3.38392L14.1802 3.10085C14.1209 2.74506 13.9717 2.09779 13.4186 1.59272C12.836 1.06081 12.1469 0.989601 11.7278 0.989601V2.71143ZM12.4818 3.38392L10.7869 3.68748L11.276 6.4182L12.9708 6.11464L14.6657 5.81109L14.1766 3.08037L12.4818 3.38392ZM12.9708 6.11464L11.2701 6.38319C11.2342 6.15601 11.2698 5.75039 11.593 5.40296C11.8947 5.07864 12.2433 5.02455 12.4002 5.02455V6.74638V8.46821C12.9444 8.46821 13.6089 8.29184 14.1144 7.74845C14.6413 7.18196 14.7686 6.46047 14.6716 5.8461L12.9708 6.11464ZM12.4002 6.74638V5.02455H12.278V6.74638V8.46821H12.4002V6.74638ZM12.278 6.74638V5.02455C12.5678 5.02455 12.69 5.1776 12.5818 5.08032C12.452 4.96372 12.3148 4.79205 12.0214 4.42979C11.7799 4.13158 11.4119 3.67961 10.9489 3.3142C10.4543 2.92392 9.7617 2.55875 8.87477 2.55875V4.28058V6.00241C8.76221 6.00241 8.72427 5.94546 8.81559 6.01752C8.93841 6.11444 9.08758 6.27893 9.34533 6.59717C9.5512 6.85136 9.89542 7.29614 10.2802 7.64187C10.6865 8.00693 11.3564 8.46821 12.278 8.46821V6.74638ZM8.87477 4.28058V2.55875H7.73357V4.28058V6.00241H8.87477V4.28058ZM7.73357 4.28058V2.55875C7.23804 2.55875 6.51557 2.66923 5.89908 3.20241C5.23551 3.77631 4.99281 4.5769 4.99281 5.34026H6.71464H8.43647C8.43647 5.30578 8.44188 5.35889 8.40158 5.46131C8.35776 5.57265 8.27629 5.69936 8.15175 5.80707C7.91226 6.0142 7.69926 6.00241 7.73357 6.00241V4.28058ZM6.71464 5.34026H4.99281V9.04915H6.71464H8.43647V5.34026H6.71464ZM6.71464 9.04915V10.771H8.44682V9.04915V7.32732H6.71464V9.04915ZM8.44682 9.04915V10.771C10.081 10.771 10.8513 9.47829 11.1059 9.04474C11.1721 8.93209 11.2656 8.76419 11.2985 8.70657C11.323 8.66384 11.3411 8.63324 11.3556 8.60991C11.3701 8.58646 11.3763 8.57793 11.3754 8.57914C11.3748 8.57996 11.3606 8.59976 11.3325 8.62997C11.3047 8.65999 11.2536 8.71067 11.1772 8.766C11.0106 8.88681 10.7356 9.01843 10.3828 9.01843V7.2966V5.57477C9.33507 5.57477 8.7589 6.32054 8.58456 6.56173C8.40361 6.81204 8.18266 7.22216 8.13636 7.301C7.87638 7.74373 7.99455 7.32732 8.44682 7.32732V9.04915ZM10.3828 7.2966V9.01843H10.5866V7.2966V5.57477H10.3828V7.2966ZM10.5866 7.2966V9.01843C10.2393 9.01843 9.84772 8.86558 9.57403 8.53526C9.32933 8.23993 9.29268 7.94378 9.29268 7.80606H11.0145H12.7363C12.7363 7.36266 12.6182 6.81178 12.2257 6.33814C11.8043 5.82951 11.1988 5.57477 10.5866 5.57477V7.2966ZM11.0145 7.80606H9.29268V11.7799H11.0145H12.7363V7.80606H11.0145ZM11.0145 11.7799H9.29268C9.29268 11.6421 9.32933 11.346 9.57403 11.0507C9.84772 10.7204 10.2393 10.5675 10.5866 10.5675V12.2893V14.0112C11.1988 14.0112 11.8043 13.7564 12.2257 13.2478C12.6182 12.7742 12.7363 12.2233 12.7363 11.7799H11.0145ZM10.5866 12.2893V10.5675H10.3828V12.2893V14.0112H10.5866V12.2893ZM10.3828 12.2893V10.5675C10.7088 10.5675 10.9701 10.6821 11.1375 10.7964C11.2141 10.8487 11.2667 10.8975 11.2969 10.9282C11.3272 10.9588 11.3435 10.9799 11.3459 10.9831C11.3459 10.9831 11.328 10.9589 11.2756 10.8727C11.2446 10.8217 11.1485 10.6594 11.0823 10.5531C10.8055 10.1092 10.0313 8.91684 8.44682 8.91684V10.6387V12.3605C8.04425 12.3605 7.92218 11.9935 8.16001 12.375C8.22237 12.475 8.24634 12.519 8.3329 12.6614C8.39811 12.7687 8.49526 12.9249 8.61407 13.0797C8.80846 13.333 9.38151 14.0112 10.3828 14.0112V12.2893ZM8.44682 10.6387V8.91684H6.71464V10.6387V12.3605H8.44682V10.6387ZM6.71464 10.6387H4.99281V13.9807H6.71464H8.43647V10.6387H6.71464ZM6.71464 13.9807H4.99281C4.99281 14.5411 5.10238 15.3184 5.55587 16.0126C6.07438 16.8064 6.94807 17.3329 8.05962 17.3329V15.611V13.8892C8.05459 13.8892 8.13023 13.8903 8.23667 13.9485C8.34161 14.0058 8.40717 14.0807 8.43892 14.1294C8.46593 14.1707 8.46235 14.1824 8.45301 14.1435C8.44404 14.1061 8.43647 14.0492 8.43647 13.9807H6.71464ZM8.05962 15.611V17.3329H9.52688V15.611V13.8892H8.05962V15.611ZM9.52688 15.611V17.3329C10.4657 17.3329 11.1723 16.9136 11.6574 16.4672C12.0986 16.0611 12.4306 15.5613 12.6356 15.2556C12.8928 14.872 13.0056 14.7084 13.1068 14.6065C13.1698 14.5431 13.0317 14.704 12.7467 14.704V12.9822V11.2604C11.779 11.2604 11.0906 11.7499 10.6639 12.1794C10.2754 12.5704 9.95896 13.064 9.77547 13.3377C9.53979 13.6892 9.41968 13.8465 9.32535 13.9333C9.2748 13.9799 9.36247 13.8892 9.52688 13.8892V15.611ZM12.7467 12.9822V14.704H12.9505V12.9822V11.2604H12.7467V12.9822ZM12.9505 12.9822V14.704C12.4295 14.704 12.0531 14.3929 11.8814 14.1139C11.7427 13.8885 11.7011 13.6483 11.735 13.4112L13.4396 13.6547L15.1441 13.8982C15.2187 13.3758 15.116 12.7994 14.8143 12.3091C14.4795 11.7651 13.8383 11.2604 12.9505 11.2604V12.9822ZM13.4396 13.6547L11.7392 13.3836L11.2909 16.1959L12.9912 16.4669L14.6916 16.738L15.1399 13.9258L13.4396 13.6547ZM12.9912 16.4669L11.2928 16.1839C11.2699 16.3215 11.2799 16.059 11.5495 15.7894C11.8755 15.4635 12.2291 15.4583 12.2372 15.4583V17.1802V18.902C12.7344 18.902 13.4243 18.7848 13.9846 18.2245C14.4885 17.7205 14.6311 17.1014 14.6896 16.75L12.9912 16.4669ZM12.2372 17.1802V15.4583H2.23137V17.1802V18.902H12.2372V17.1802ZM14.4163 3.54695L15.1444 5.10725L15.16 5.09997L15.1754 5.09239L14.4163 3.54695ZM17.901 1.83516L18.6602 3.38063L18.671 3.37521L17.901 1.83516ZM14.4163 17.1802V15.4583C14.554 15.4583 14.8502 15.495 15.1455 15.7397C15.4758 16.0134 15.6287 16.4049 15.6287 16.7522H13.9068H12.185C12.185 17.3645 12.4397 17.97 12.9484 18.3914C13.422 18.7838 13.9729 18.902 14.4163 18.902V17.1802ZM13.9068 16.7522H15.6287V16.6707H13.9068H12.185V16.7522H13.9068ZM13.9068 16.6707H15.6287C15.6287 16.9207 15.5381 17.0869 15.5213 17.1154C15.5163 17.1239 15.5218 17.1134 15.5564 17.0665C15.6259 16.9724 15.6013 17.0086 15.7051 16.8694C15.9838 16.4955 16.4642 15.7968 16.4642 14.7348H14.7423H13.0205C13.0205 14.7378 13.0204 14.7292 13.0239 14.7132C13.0273 14.6974 13.0319 14.685 13.0345 14.6792C13.0363 14.6751 13.0264 14.7009 12.9441 14.8112C12.9019 14.8679 12.6949 15.1285 12.5535 15.3688C12.38 15.6636 12.185 16.1049 12.185 16.6707H13.9068ZM14.7423 14.7348H16.4642V5.99237H14.7423H13.0205V14.7348H14.7423ZM14.7423 5.99237H16.4642C16.4642 4.92958 15.9851 4.22952 15.6865 3.84349C15.6395 3.78275 15.5375 3.65522 15.5253 3.63964C15.4859 3.58956 15.4799 3.5792 15.485 3.58715C15.4969 3.6057 15.6287 3.81222 15.6287 4.13793H13.9068H12.185C12.185 4.73874 12.4211 5.18981 12.5897 5.45163C12.721 5.65538 12.9405 5.92188 12.9627 5.95057C13.0353 6.04448 13.0412 6.06453 13.0363 6.05331C13.0326 6.04494 13.0276 6.03111 13.024 6.01465C13.0204 5.99804 13.0205 5.98927 13.0205 5.99237H14.7423ZM13.9068 4.13793H15.6287V4.05641H13.9068H12.185V4.13793H13.9068ZM13.9068 4.05641H15.6287C15.6287 4.24655 15.5862 4.45706 15.4855 4.65964C15.3893 4.85343 15.2693 4.98092 15.1886 5.05241C15.1486 5.0878 15.1154 5.11205 15.0947 5.12626C15.074 5.14047 15.0609 5.14793 15.0595 5.14873C15.058 5.14958 15.0634 5.14647 15.0788 5.13876C15.0941 5.13106 15.115 5.12099 15.1444 5.10725L14.4163 3.54695L13.6882 1.98666C13.547 2.05252 13.2044 2.20965 12.9053 2.47453C12.5219 2.81415 12.185 3.34958 12.185 4.05641H13.9068ZM14.4163 3.54695L15.1754 5.09239L18.6602 3.38059L17.901 1.83516L17.1419 0.289719L13.6571 2.00151L14.4163 3.54695ZM17.901 1.83516L18.671 3.37521C18.5912 3.41512 18.1952 3.55072 17.7405 3.27658C17.3337 3.03131 17.1777 2.62591 17.1777 2.30386H18.8996H20.6214C20.6214 1.57424 20.2718 0.781656 19.5186 0.327499C18.7175 -0.155523 17.8222 -0.0504799 17.131 0.295103L17.901 1.83516ZM18.8996 2.30386H17.1777V14.7348H18.8996H20.6214V2.30386H18.8996ZM18.8996 14.7348H17.1777C17.1777 15.8624 17.7486 16.5875 18.0475 16.9449C18.1629 17.0829 18.1369 17.0486 18.2144 17.1422C18.2538 17.1898 18.2598 17.2003 18.2536 17.1909C18.236 17.1642 18.1151 16.9712 18.1151 16.6707H19.837H21.5588C21.5588 16.0543 21.3207 15.5862 21.1274 15.2934C20.9682 15.0524 20.7366 14.7925 20.689 14.7356C20.5192 14.5326 20.6214 14.6057 20.6214 14.7348H18.8996ZM19.837 16.6707H18.1151V16.7522H19.837H21.5588V16.6707H19.837ZM19.837 16.7522H18.1151C18.1151 16.4049 18.268 16.0134 18.5983 15.7397C18.8936 15.495 19.1898 15.4583 19.3275 15.4583V17.1802V18.902C19.7709 18.902 20.3218 18.7838 20.7954 18.3914C21.3041 17.97 21.5588 17.3645 21.5588 16.7522H19.837ZM19.3275 17.1802V15.4583H14.4163V17.1802V18.902H19.3275V17.1802ZM20.9229 9.00839L21.6511 10.5687L21.6666 10.5614L21.6821 10.5538L20.9229 9.00839ZM24.4076 7.2966L25.1668 8.84207L25.1777 8.83665L24.4076 7.2966ZM23.3683 6.39994V4.67811C22.9662 4.67811 22.7447 4.55224 22.6446 4.46219C22.5503 4.3775 22.5021 4.27569 22.5021 4.13793H20.7803H19.0584C19.0584 6.5204 21.0459 8.12177 23.3683 8.12177V6.39994ZM20.7803 4.13793H22.5021C22.5021 4.00272 22.548 3.90958 22.6365 3.83102C22.7337 3.7448 22.9567 3.61812 23.3683 3.61812V1.89629V0.174459C21.0673 0.174459 19.0584 1.73634 19.0584 4.13793H20.7803ZM23.3683 1.89629V3.61812C23.78 3.61812 24.003 3.7448 24.1001 3.83102C24.1886 3.90958 24.2346 4.00272 24.2346 4.13793H25.9564H27.6782C27.6782 1.73634 25.6694 0.174459 23.3683 0.174459V1.89629ZM25.9564 4.13793H24.2346C24.2346 4.27569 24.1863 4.3775 24.0921 4.46219C23.9919 4.55224 23.7705 4.67811 23.3683 4.67811V6.39994V8.12177C25.6908 8.12177 27.6782 6.5204 27.6782 4.13793H25.9564ZM20.9229 17.1802V15.4583C21.0606 15.4583 21.3568 15.495 21.6521 15.7397C21.9824 16.0134 22.1353 16.4049 22.1353 16.7522H20.4135H18.6916C18.6916 17.3645 18.9464 17.97 19.455 18.3914C19.9286 18.7838 20.4795 18.902 20.9229 18.902V17.1802ZM20.4135 16.7522H22.1353V16.6707H20.4135H18.6916V16.7522H20.4135ZM20.4135 16.6707H22.1353C22.1353 16.9207 22.0448 17.0869 22.0279 17.1154C22.023 17.1239 22.0284 17.1134 22.063 17.0665C22.1325 16.9724 22.1079 17.0086 22.2117 16.8694C22.4904 16.4955 22.9708 15.7968 22.9708 14.7348H21.249H19.5271C19.5271 14.7378 19.527 14.7292 19.5305 14.7132C19.5339 14.6974 19.5385 14.685 19.5411 14.6792C19.5429 14.6751 19.533 14.7009 19.4507 14.8112C19.4085 14.8679 19.2015 15.1285 19.0601 15.3688C18.8866 15.6636 18.6916 16.1049 18.6916 16.6707H20.4135ZM21.249 14.7348H22.9708V11.4538H21.249H19.5271V14.7348H21.249ZM21.249 11.4538H22.9708C22.9708 10.391 22.4917 9.69096 22.1931 9.30493C22.1461 9.24419 22.0441 9.11666 22.0319 9.10108C21.9926 9.051 21.9865 9.04064 21.9916 9.04859C22.0036 9.06714 22.1353 9.27366 22.1353 9.59937H20.4135H18.6916C18.6916 10.2002 18.9278 10.6513 19.0964 10.9131C19.2276 11.1168 19.4471 11.3833 19.4693 11.412C19.542 11.5059 19.5479 11.526 19.5429 11.5148C19.5392 11.5064 19.5342 11.4926 19.5306 11.4761C19.527 11.4595 19.5271 11.4507 19.5271 11.4538H21.249ZM20.4135 9.59937H22.1353V9.51785H20.4135H18.6916V9.59937H20.4135ZM20.4135 9.51785H22.1353C22.1353 9.70799 22.0928 9.9185 21.9922 10.1211C21.8959 10.3149 21.7759 10.4424 21.6952 10.5139C21.6552 10.5492 21.6221 10.5735 21.6013 10.5877C21.5806 10.6019 21.5676 10.6094 21.5661 10.6102C21.5647 10.611 21.57 10.6079 21.5854 10.6002C21.6008 10.5925 21.6216 10.5824 21.6511 10.5687L20.9229 9.00839L20.1948 7.4481C20.0536 7.51397 19.711 7.67109 19.4119 7.93597C19.0285 8.27559 18.6916 8.81102 18.6916 9.51785H20.4135ZM20.9229 9.00839L21.6821 10.5538L25.1668 8.84203L24.4076 7.2966L23.6485 5.75116L20.1638 7.46296L20.9229 9.00839ZM24.4076 7.2966L25.1777 8.83665C25.0979 8.87656 24.7018 9.01217 24.2471 8.73802C23.8403 8.49275 23.6844 8.08736 23.6844 7.7653H25.4062H27.128C27.128 7.03568 26.7785 6.2431 26.0252 5.78894C25.2241 5.30592 24.3288 5.41096 23.6376 5.75655L24.4076 7.2966ZM25.4062 7.7653H23.6844V14.7348H25.4062H27.128V7.7653H25.4062ZM25.4062 14.7348H23.6844C23.6844 15.8624 24.2552 16.5875 24.5541 16.9449C24.6695 17.0829 24.6435 17.0486 24.721 17.1422C24.7604 17.1898 24.7665 17.2003 24.7603 17.1909C24.7427 17.1642 24.6218 16.9712 24.6218 16.6707H26.3436H28.0654C28.0654 16.0543 27.8274 15.5862 27.634 15.2934C27.4749 15.0524 27.2433 14.7925 27.1957 14.7356C27.0259 14.5326 27.128 14.6057 27.128 14.7348H25.4062ZM26.3436 16.6707H24.6218V16.7522H26.3436H28.0654V16.6707H26.3436ZM26.3436 16.7522H24.6218C24.6218 16.4049 24.7746 16.0134 25.1049 15.7397C25.4003 15.495 25.6964 15.4583 25.8341 15.4583V17.1802V18.902C26.2775 18.902 26.8284 18.7838 27.3021 18.3914C27.8107 17.97 28.0654 17.3645 28.0654 16.7522H26.3436ZM25.8341 17.1802V15.4583H20.9229V17.1802V18.902H25.8341V17.1802ZM31.4 17.3636V15.6418C30.2973 15.6418 29.4425 15.4501 28.9324 15.1982C28.6849 15.0759 28.5842 14.9722 28.5551 14.9346C28.543 14.9189 28.5461 14.9187 28.5512 14.9331C28.5567 14.9487 28.5571 14.9602 28.5571 14.9589H26.8352H25.1134C25.1134 16.6419 26.2627 17.7205 27.4076 18.2859C28.5482 18.8491 29.9758 19.0854 31.4 19.0854V17.3636ZM26.8352 14.9589H28.5571C28.5571 14.9058 28.5659 14.9303 28.5361 14.9977C28.5042 15.0702 28.4501 15.141 28.3853 15.1933C28.326 15.2411 28.286 15.2511 28.2955 15.2483C28.3068 15.2451 28.3544 15.2339 28.4451 15.2339V13.512V11.7902C27.7528 11.7902 26.9182 11.9521 26.2226 12.5135C25.4686 13.122 25.1134 14.0092 25.1134 14.9589H26.8352ZM28.4451 13.512V15.2339C28.5945 15.2339 28.5284 15.26 28.4545 15.1871C28.4511 15.1837 28.5113 15.2459 28.6394 15.5744C28.7119 15.7603 28.9225 16.3943 29.1979 16.8406C29.3641 17.11 29.6207 17.4406 30.0161 17.7006C30.4334 17.975 30.9089 18.1072 31.4 18.1072V16.3854V14.6636C31.5396 14.6636 31.7298 14.706 31.9081 14.8233C32.0646 14.9262 32.1285 15.0323 32.1286 15.0323C32.1299 15.0345 32.1222 15.0222 32.1061 14.9879C32.0901 14.9536 32.0702 14.9073 32.0446 14.8427C32.0186 14.777 31.9919 14.7056 31.9584 14.6157C31.9267 14.5307 31.8885 14.4276 31.8477 14.323C31.6956 13.9332 31.4221 13.2771 30.8723 12.7349C30.252 12.1233 29.4268 11.7902 28.4451 11.7902V13.512ZM31.4 16.3854V18.1072C31.8969 18.1072 32.6023 17.9748 33.1754 17.4017C33.7505 16.8266 33.9166 16.0837 33.9166 15.448H32.1948H30.473C30.473 15.5256 30.4557 15.2514 30.7404 14.9667C31.0231 14.6839 31.3311 14.6636 31.4 14.6636V16.3854ZM32.1948 15.448H33.9166C33.9166 14.8167 33.7561 14.2208 33.4198 13.6979C33.0951 13.1928 32.6678 12.8507 32.2765 12.6131C31.5838 12.1925 30.6545 11.9216 30.1611 11.7504C29.5219 11.5286 29.1804 11.3583 28.9802 11.1728C28.8692 11.07 28.7201 10.9014 28.7201 10.3738H26.9983H25.2764C25.2764 11.7922 25.7769 12.8998 26.6402 13.6994C27.4144 14.4164 28.372 14.7746 29.032 15.0037C29.8377 15.2833 30.2075 15.3856 30.4892 15.5566C30.585 15.6148 30.5637 15.6232 30.5232 15.5601C30.4711 15.4792 30.473 15.417 30.473 15.448H32.1948ZM26.9983 10.3738H28.7201C28.7201 10.0495 28.8517 9.7511 29.2308 9.47763C29.6449 9.1789 30.3712 8.91654 31.4204 8.91654V7.19471V5.47287C29.8408 5.47287 28.356 5.86262 27.2162 6.68471C26.0415 7.53206 25.2764 8.82318 25.2764 10.3738H26.9983ZM31.4204 7.19471V8.91654C32.5165 8.91654 33.2944 9.14289 33.7334 9.39437C34.1722 9.64573 34.08 9.77937 34.08 9.66051H35.8018H37.5236C37.5236 8.13553 36.5449 7.03626 35.4451 6.40626C34.3455 5.77636 32.9327 5.47287 31.4204 5.47287V7.19471ZM35.8018 9.66051H34.08C34.08 9.51005 34.1527 9.40295 34.203 9.35814C34.2481 9.31791 34.2722 9.32441 34.253 9.32441V11.0462V12.7681C35.8675 12.7681 37.5236 11.5674 37.5236 9.66051H35.8018ZM34.253 11.0462V9.32441C34.133 9.32441 34.2208 9.30763 34.3088 9.39723C34.3293 9.4181 34.275 9.37141 34.1731 9.07315C34.1199 8.91755 34.0879 8.80405 34.0198 8.58919C33.9642 8.41394 33.882 8.16435 33.7659 7.91921C33.6524 7.67967 33.4522 7.32401 33.0979 7.02303C32.6999 6.68501 32.1963 6.4918 31.6446 6.4918V8.21363V9.93546C31.3679 9.93546 31.084 9.83077 30.8685 9.64766C30.6965 9.50159 30.6413 9.36722 30.6536 9.39324C30.6633 9.41366 30.6876 9.47388 30.7373 9.63059C30.7745 9.74767 30.8466 9.98825 30.9144 10.1867C31.0545 10.5966 31.3097 11.2581 31.8518 11.8101C32.4613 12.4308 33.2828 12.7681 34.253 12.7681V11.0462ZM31.6446 8.21363V6.4918C30.6516 6.4918 29.9635 7.07594 29.6204 7.71074C29.3287 8.25041 29.2706 8.82188 29.2706 9.21218H30.9925H32.7143C32.7143 9.11339 32.7377 9.18559 32.6498 9.34826C32.5965 9.44686 32.4859 9.6054 32.2839 9.73853C32.0694 9.8799 31.8378 9.93546 31.6446 9.93546V8.21363ZM30.9925 9.21218H29.2706C29.2706 10.5615 29.9265 11.4963 30.7707 12.0916C31.4593 12.5773 32.3533 12.8758 32.8464 13.0633C33.4746 13.3021 33.7948 13.4646 33.9839 13.6395C34.0786 13.7273 34.2022 13.8582 34.2022 14.3068H35.9241H37.6459C37.6459 12.9418 37.153 11.8805 36.3231 11.1123C35.5875 10.4314 34.6748 10.0742 34.0701 9.84436C33.3303 9.56311 32.9914 9.44388 32.7554 9.27741C32.6749 9.22065 32.7143 9.26901 32.7143 9.21218H30.9925ZM35.9241 14.3068H34.2022C34.2022 14.5778 34.101 14.8358 33.754 15.0836C33.3642 15.3621 32.6189 15.6418 31.4 15.6418V17.3636V19.0854C33.0953 19.0854 34.612 18.7027 35.7556 17.8859C36.9421 17.0384 37.6459 15.768 37.6459 14.3068H35.9241ZM46.6484 14.7959L44.9416 15.0228L44.9421 15.0265L46.6484 14.7959ZM43.0007 16.4058L44.6582 15.9396L43.7557 12.7307L41.6612 15.3239L43.0007 16.4058ZM42.2263 11.5965L41.385 13.0988L44.2804 14.7202L43.939 11.4193L42.2263 11.5965ZM46.1797 11.2704L44.4725 11.4943L44.4729 11.4973L46.1797 11.2704ZM42.5319 14.9182L44.2494 14.7955L44.2486 14.7838L44.2476 14.7722L42.5319 14.9182ZM42.4504 13.9604L44.1661 13.8144L44.1629 13.7771L44.1581 13.74L42.4504 13.9604ZM46.6484 14.7959L44.9421 15.0265C45.0137 15.5562 45.151 16.0293 45.3759 16.4452C45.6112 16.8802 45.8966 17.1676 46.1429 17.3663C46.2449 17.4486 46.353 17.5245 46.3759 17.5411C46.4245 17.5762 46.3767 17.5453 46.3147 17.4846C46.2373 17.4087 46.1218 17.2736 46.0349 17.0749C45.9477 16.8754 45.9251 16.6943 45.9251 16.5688H47.647H49.3688C49.3688 16.2956 49.3214 15.9954 49.1899 15.6947C49.0587 15.3949 48.8796 15.1765 48.7244 15.0245C48.5848 14.8877 48.4453 14.7878 48.3936 14.7504C48.3514 14.7199 48.3472 14.7172 48.3242 14.7004C48.3172 14.6952 48.3125 14.6918 48.3094 14.6894C48.3063 14.687 48.3051 14.6861 48.3053 14.6862C48.3274 14.7041 48.3759 14.7532 48.4049 14.8068C48.4235 14.8412 48.385 14.7896 48.3547 14.5653L46.6484 14.7959ZM47.647 16.5688H45.9251C45.9251 16.2947 46.009 16.039 46.1413 15.8346C46.2627 15.6469 46.3971 15.544 46.4636 15.4996C46.5753 15.4253 46.6072 15.4412 46.446 15.4775C46.1489 15.5443 45.665 15.5806 45.0996 15.5806V17.3024V19.0243C45.7367 19.0243 46.5264 18.9892 47.2023 18.837C47.5277 18.7638 47.971 18.6332 48.3724 18.3659C48.8038 18.0786 49.3688 17.4911 49.3688 16.5688H47.647ZM45.0996 17.3024V15.5806C44.8224 15.5806 44.6219 15.5673 44.4792 15.5479C44.334 15.5282 44.2869 15.5071 44.298 15.5118C44.3183 15.5203 44.4064 15.5628 44.5006 15.6672C44.5974 15.7744 44.6419 15.8816 44.6582 15.9396L43.0007 16.4058L41.3431 16.872C41.5844 17.7297 42.1661 18.3506 42.9617 18.6856C43.6283 18.9663 44.392 19.0243 45.0996 19.0243V17.3024ZM43.0007 16.4058L41.6612 15.3239C41.622 15.3723 41.5457 15.4466 41.3894 15.5145C41.2287 15.5844 40.9485 15.6621 40.4941 15.6621V17.384V19.1058C42.2247 19.1058 43.5306 18.49 44.3401 17.4877L43.0007 16.4058ZM40.4941 17.384V15.6621C39.6417 15.6621 39.0722 15.4647 38.7632 15.2392C38.5255 15.0656 38.344 14.8165 38.344 14.2864H36.6222H34.9003C34.9003 15.8757 35.5748 17.1753 36.7329 18.0207C37.82 18.8141 39.1864 19.1058 40.4941 19.1058V17.384ZM36.6222 14.2864H38.344C38.344 13.7907 38.5271 13.5032 38.7921 13.2972C39.104 13.0548 39.6199 12.87 40.2699 12.87V11.1481V9.42631C39.0247 9.42631 37.7168 9.77136 36.6786 10.5784C35.5935 11.4219 34.9003 12.7036 34.9003 14.2864H36.6222ZM40.2699 11.1481V12.87C40.8323 12.87 41.1819 12.985 41.385 13.0988L42.2263 11.5965L43.0676 10.0942C42.2518 9.6373 41.2971 9.42631 40.2699 9.42631V11.1481ZM42.2263 11.5965L43.939 11.4193C43.8295 10.3615 43.7476 9.3007 43.5463 8.57732C43.4379 8.18808 43.2341 7.64156 42.7707 7.199C42.245 6.69692 41.6081 6.53256 41.0443 6.53256V8.25439V9.97622C40.939 9.97622 40.6486 9.93412 40.3922 9.68932C40.1982 9.50404 40.1867 9.34981 40.2287 9.5006C40.2665 9.63637 40.3086 9.87024 40.3577 10.2811C40.4062 10.6877 40.4498 11.1568 40.5136 11.7736L42.2263 11.5965ZM41.0443 8.25439V6.53256C40.5221 6.53256 40.0331 6.69747 39.6276 7.00613C39.256 7.28909 39.0318 7.63374 38.8965 7.88785C38.6705 8.3125 38.4906 8.9287 38.4284 9.10867C38.3152 9.43654 38.2598 9.4958 38.273 9.48133C38.3635 9.38262 38.4891 9.36517 38.4562 9.36517V11.087V12.8088C39.4322 12.8088 40.2353 12.4373 40.8123 11.8075C41.3121 11.2619 41.5522 10.613 41.6835 10.2327C41.7194 10.1287 41.7526 10.0271 41.7806 9.94141C41.8102 9.85101 41.8337 9.77894 41.857 9.71127C41.8799 9.64476 41.898 9.59597 41.9131 9.55875C41.9204 9.54074 41.9262 9.52758 41.9304 9.51842C41.9346 9.50923 41.9366 9.50548 41.9363 9.50612C41.9359 9.50674 41.9324 9.51328 41.9254 9.52436C41.9184 9.53545 41.9069 9.55253 41.8903 9.57378C41.8575 9.616 41.8004 9.68003 41.7137 9.74607C41.5117 9.89983 41.2659 9.97622 41.0443 9.97622V8.25439ZM38.4562 11.087V9.36517C38.3294 9.36517 38.3643 9.32963 38.4509 9.40845C38.4919 9.44572 38.5259 9.49363 38.5473 9.54383C38.5683 9.59317 38.5682 9.62328 38.5682 9.61975H36.8463H35.1245C35.1245 10.5083 35.4672 11.3494 36.1333 11.9555C36.7854 12.5489 37.6252 12.8088 38.4562 12.8088V11.087ZM36.8463 9.61975H38.5682C38.5682 9.53436 38.585 9.51962 38.593 9.50901C38.6174 9.47655 38.702 9.38646 38.9231 9.28084C39.3928 9.05657 40.1533 8.91654 41.0443 8.91654V7.19471V5.47287C39.8975 5.47287 38.559 5.63852 37.4391 6.17335C36.2567 6.73803 35.1245 7.8439 35.1245 9.61975H36.8463ZM41.0443 7.19471V8.91654C43.1299 8.91654 44.2782 10.0132 44.4725 11.4943L46.1797 11.2704L47.8869 11.0465C47.429 7.55527 44.5425 5.47287 41.0443 5.47287V7.19471ZM46.1797 11.2704L44.4729 11.4973L44.9416 15.0228L46.6484 14.7959L48.3552 14.569L47.8865 11.0435L46.1797 11.2704ZM41.7983 16.2428V17.9646C43.0337 17.9646 43.6823 17.0421 43.9235 16.54C44.189 15.9874 44.2893 15.3535 44.2494 14.7955L42.5319 14.9182L40.8145 15.0408C40.8138 15.0306 40.8151 15.0412 40.8114 15.0619C40.8075 15.0837 40.8048 15.0793 40.8194 15.0489C40.8306 15.0255 40.8869 14.9132 41.0335 14.7915C41.2 14.6532 41.467 14.5209 41.7983 14.5209V16.2428ZM42.5319 14.9182L44.2476 14.7722L44.1661 13.8144L42.4504 13.9604L40.7348 14.1064L40.8163 15.0642L42.5319 14.9182ZM42.4504 13.9604L44.1581 13.74C44.0581 12.9648 43.8469 12.2372 43.4296 11.6612C42.9689 11.0254 42.2685 10.6083 41.4519 10.6083V12.3301V14.0519C41.2683 14.0519 41.0838 14.0062 40.9225 13.918C40.7651 13.832 40.6774 13.732 40.6409 13.6816C40.6072 13.6351 40.6188 13.634 40.6473 13.7193C40.6755 13.8034 40.713 13.9504 40.7428 14.1807L42.4504 13.9604ZM41.4519 12.3301V10.6083C40.4882 10.6083 39.8205 11.1912 39.4762 11.7652C39.1477 12.3126 39.0372 12.9356 39.0372 13.4917H40.759H42.4808C42.4808 13.3548 42.513 13.3971 42.4291 13.5369C42.3827 13.6143 42.2861 13.7431 42.1116 13.8568C41.9266 13.9773 41.6962 14.0519 41.4519 14.0519V12.3301ZM40.759 13.4917H39.0372C39.0372 14.3392 39.1397 15.2354 39.4006 15.984C39.5293 16.3535 39.7331 16.7941 40.0724 17.1711C40.4336 17.5724 41.0169 17.9646 41.7983 17.9646V16.2428V14.5209C42.2435 14.5209 42.5288 14.7526 42.632 14.8674C42.7134 14.9578 42.6994 14.9857 42.6524 14.8508C42.5618 14.5907 42.4808 14.1114 42.4808 13.4917H40.759ZM65.386 14.7551L63.6694 14.8896L63.6698 14.8952L65.386 14.7551ZM61.3307 14.7551L59.6117 14.8545L59.612 14.8604L61.3307 14.7551ZM61.1269 11.2297L59.4076 11.3231L59.4079 11.329L61.1269 11.2297ZM59.0686 10.4145H57.3468V10.5462L57.3668 10.6763L59.0686 10.4145ZM48.2476 8.86574L47.5261 7.30238L47.5195 7.30545L48.2476 8.86574ZM51.6916 7.27622L52.4132 8.83957L52.4259 8.83368L52.4386 8.82759L51.6916 7.27622ZM52.5271 8.35628H50.8053V13.1331L53.853 9.45484L52.5271 8.35628ZM58.4369 8.74347L57.0172 9.71776L58.5702 11.9807L59.9319 9.59774L58.4369 8.74347ZM65.121 11.3723L66.8376 11.2379L66.8373 11.2337L65.121 11.3723ZM65.386 14.7551L63.6698 14.8952C63.7439 15.8029 64.0984 16.4096 64.3188 16.766C64.3775 16.861 64.3997 16.8953 64.4311 16.9477C64.4561 16.9896 64.4606 17.0001 64.4575 16.9935C64.4443 16.9653 64.3978 16.851 64.3978 16.6911H66.1196H67.8414C67.8414 15.7808 67.3298 15.0878 67.2479 14.9553C67.1219 14.7514 67.1095 14.7059 67.1021 14.615L65.386 14.7551ZM66.1196 16.6911H64.3978V16.7726H66.1196H67.8414V16.6911H66.1196ZM66.1196 16.7726H64.3978C64.3978 16.4253 64.5506 16.0338 64.8809 15.7601C65.1763 15.5154 65.4724 15.4787 65.6101 15.4787V17.2006V18.9224C66.0535 18.9224 66.6044 18.8042 67.078 18.4118C67.5867 17.9903 67.8414 17.3848 67.8414 16.7726H66.1196ZM65.6101 17.2006V15.4787H61.1065V17.2006V18.9224H65.6101V17.2006ZM61.1065 17.2006V15.4787C61.2442 15.4787 61.5404 15.5154 61.8357 15.7601C62.166 16.0338 62.3189 16.4253 62.3189 16.7726H60.597H58.8752C58.8752 17.3848 59.1299 17.9903 59.6386 18.4118C60.1122 18.8042 60.6631 18.9224 61.1065 18.9224V17.2006ZM60.597 16.7726H62.3189V16.6911H60.597H58.8752V16.7726H60.597ZM60.597 16.6911H62.3189C62.3189 16.9198 62.2399 17.0725 62.2273 17.0953C62.2244 17.1006 62.2309 17.0881 62.2651 17.0383C62.2819 17.0138 62.2997 16.9884 62.3252 16.952C62.3488 16.9184 62.3786 16.8759 62.4094 16.8306C62.6864 16.4243 63.1141 15.7092 63.0493 14.6499L61.3307 14.7551L59.612 14.8604C59.6122 14.8626 59.6129 14.8309 59.6261 14.7949C59.633 14.7761 59.6325 14.7905 59.5641 14.8907C59.5368 14.9308 59.3387 15.2027 59.2132 15.4297C59.0535 15.7188 58.8752 16.1465 58.8752 16.6911H60.597ZM61.3307 14.7551L63.0496 14.6558L62.8458 11.1303L61.1269 11.2297L59.4079 11.329L59.6117 14.8545L61.3307 14.7551ZM61.1269 11.2297L62.8462 11.1362C62.7951 10.1974 62.6936 9.28355 62.3875 8.57226C62.2199 8.18282 61.9472 7.74682 61.489 7.41794C61.012 7.07553 60.4897 6.9605 60.0264 6.9605V8.68234V10.4042C59.9197 10.4042 59.7006 10.3732 59.4809 10.2155C59.28 10.0713 59.2187 9.92057 59.2243 9.93361C59.2327 9.95319 59.2714 10.0587 59.312 10.3125C59.3512 10.5579 59.3838 10.8864 59.4076 11.3231L61.1269 11.2297ZM60.0264 8.68234V6.9605C59.5314 6.9605 59.0382 7.09752 58.6065 7.39543C58.1893 7.68333 57.9184 8.05954 57.7451 8.40905C57.4186 9.06754 57.3468 9.81327 57.3468 10.4145H59.0686H60.7905C60.7905 10.2369 60.8025 10.1038 60.8182 10.0119C60.8346 9.91558 60.8487 9.90171 60.8303 9.93889C60.8098 9.98018 60.7351 10.1106 60.5624 10.2297C60.3753 10.3589 60.175 10.4042 60.0264 10.4042V8.68234ZM59.0686 10.4145L57.3668 10.6763C57.3934 10.8493 57.4079 11.0264 57.4079 11.25H59.1298H60.8516C60.8516 10.8623 60.8253 10.5096 60.7704 10.1527L59.0686 10.4145ZM59.1298 11.25H57.4079V14.7551H59.1298H60.8516V11.25H59.1298ZM59.1298 14.7551H57.4079C57.4079 15.7501 57.8033 16.4177 58.0559 16.8036C58.1471 16.9429 58.1254 16.9067 58.1865 17.0008C58.2166 17.0473 58.2222 17.059 58.2191 17.053C58.2057 17.027 58.1416 16.8904 58.1416 16.6911H59.8634H61.5852C61.5852 16.1759 61.4294 15.7642 61.2784 15.4721C61.1557 15.2346 60.9752 14.9757 60.9372 14.9177C60.8231 14.7433 60.8516 14.7587 60.8516 14.7551H59.1298ZM59.8634 16.6911H58.1416V16.7726H59.8634H61.5852V16.6911H59.8634ZM59.8634 16.7726H58.1416C58.1416 16.4253 58.2944 16.0338 58.6247 15.7601C58.9201 15.5154 59.2162 15.4787 59.3539 15.4787V17.2006V18.9224C59.7973 18.9224 60.3482 18.8042 60.8219 18.4118C61.3305 17.9903 61.5852 17.3848 61.5852 16.7726H59.8634ZM59.3539 17.2006V15.4787H54.8503V17.2006V18.9224H59.3539V17.2006ZM54.8503 17.2006V15.4787C54.988 15.4787 55.2842 15.5154 55.5795 15.7601C55.9098 16.0338 56.0626 16.4253 56.0626 16.7726H54.3408H52.619C52.619 17.3848 52.8737 17.9903 53.3824 18.4118C53.856 18.8042 54.4069 18.9224 54.8503 18.9224V17.2006ZM54.3408 16.7726H56.0626V16.6911H54.3408H52.619V16.7726H54.3408ZM54.3408 16.6911H56.0626C56.0626 16.8904 55.9985 17.027 55.9851 17.053C55.982 17.059 55.9876 17.0473 56.0177 17.0008C56.0788 16.9067 56.0572 16.9429 56.1483 16.8036C56.4009 16.4177 56.7963 15.7501 56.7963 14.7551H55.0744H53.3526C53.3526 14.7587 53.3811 14.7433 53.267 14.9177C53.229 14.9757 53.0485 15.2346 52.9258 15.4721C52.7748 15.7642 52.619 16.1759 52.619 16.6911H54.3408ZM55.0744 14.7551H56.7963V10.9647H55.0744H53.3526V14.7551H55.0744ZM55.0744 10.9647H56.7963C56.7963 10.0885 56.6992 9.19236 56.3317 8.45744C56.1347 8.06343 55.8361 7.6681 55.3926 7.37662C54.9401 7.07913 54.4438 6.9605 53.974 6.9605V8.68234V10.4042C53.8608 10.4042 53.6804 10.3722 53.5011 10.2542C53.3308 10.1423 53.2627 10.0196 53.2516 9.99749C53.2446 9.98341 53.2748 10.0404 53.3038 10.2169C53.332 10.3886 53.3526 10.6324 53.3526 10.9647H55.0744ZM53.974 8.68234V6.9605C53.5098 6.9605 53.028 7.06755 52.5857 7.33352C52.1458 7.59808 51.8408 7.96218 51.638 8.33047C51.2619 9.01319 51.1925 9.78699 51.1925 10.3738H52.9143H54.6362C54.6362 10.2019 54.6482 10.0816 54.6621 10.0055C54.6766 9.92574 54.6859 9.93461 54.6543 9.99199C54.617 10.0597 54.5272 10.1844 54.3605 10.2846C54.1915 10.3863 54.0409 10.4042 53.974 10.4042V8.68234ZM52.9143 10.3738H51.1925V14.7551H52.9143H54.6362V10.3738H52.9143ZM52.9143 14.7551H51.1925C51.1925 15.8827 51.7633 16.6079 52.0623 16.9653C52.1776 17.1033 52.1516 17.069 52.2291 17.1626C52.2686 17.2102 52.2746 17.2206 52.2684 17.2113C52.2508 17.1846 52.1299 16.9916 52.1299 16.6911H53.8517H55.5736C55.5736 16.0747 55.3355 15.6066 55.1421 15.3138C54.983 15.0727 54.7514 14.8129 54.7038 14.756C54.534 14.553 54.6362 14.6261 54.6362 14.7551H52.9143ZM53.8517 16.6911H52.1299V16.7726H53.8517H55.5736V16.6911H53.8517ZM53.8517 16.7726H52.1299C52.1299 16.4253 52.2828 16.0338 52.6131 15.7601C52.9084 15.5154 53.2045 15.4787 53.3423 15.4787V17.2006V18.9224C53.7857 18.9224 54.3366 18.8042 54.8102 18.4118C55.3188 17.9903 55.5736 17.3848 55.5736 16.7726H53.8517ZM53.3423 17.2006V15.4787H48.431V17.2006V18.9224H53.3423V17.2006ZM48.431 17.2006V15.4787C48.5688 15.4787 48.8649 15.5154 49.1602 15.7601C49.4906 16.0338 49.6434 16.4253 49.6434 16.7726H47.9216H46.1998C46.1998 17.3848 46.4545 17.9903 46.9631 18.4118C47.4368 18.8042 47.9876 18.9224 48.431 18.9224V17.2006ZM47.9216 16.7726H49.6434V16.6911H47.9216H46.1998V16.7726H47.9216ZM47.9216 16.6911H49.6434C49.6434 16.9916 49.5225 17.1846 49.5049 17.2113C49.4987 17.2206 49.5048 17.2102 49.5442 17.1626C49.6217 17.069 49.5957 17.1033 49.7111 16.9653C50.01 16.6079 50.5808 15.8827 50.5808 14.7551H48.859H47.1372C47.1372 14.6261 47.2393 14.553 47.0695 14.756C47.0219 14.8129 46.7903 15.0727 46.6312 15.3138C46.4378 15.6066 46.1998 16.0747 46.1998 16.6911H47.9216ZM48.859 14.7551H50.5808V11.3112H48.859H47.1372V14.7551H48.859ZM48.859 11.3112H50.5808C50.5808 10.0137 49.7694 9.27477 49.4222 8.97096C49.2759 8.84288 49.3163 8.88148 49.2197 8.79596C49.1725 8.75426 49.1723 8.75076 49.189 8.76977C49.2293 8.81563 49.4396 9.07567 49.4396 9.49748H47.7178H45.996C45.996 10.2351 46.3489 10.755 46.6032 11.0441C46.809 11.2781 47.1067 11.5207 47.1546 11.5626C47.378 11.758 47.1372 11.6101 47.1372 11.3112H48.859ZM47.7178 9.49748H49.4396V9.41596H47.7178H45.996V9.49748H47.7178ZM47.7178 9.41596H49.4396C49.4396 9.6042 49.3971 9.80466 49.305 9.99336C49.217 10.1738 49.1079 10.2941 49.0331 10.3628C48.9621 10.4281 48.9094 10.4585 48.9076 10.4595C48.9048 10.4611 48.9213 10.4515 48.9758 10.426L48.2476 8.86574L47.5195 7.30545C47.3549 7.38227 47.0088 7.54626 46.7031 7.82717C46.3315 8.16864 45.996 8.70555 45.996 9.41596H47.7178ZM48.2476 8.86574L48.9692 10.4291L52.4132 8.83957L51.6916 7.27622L50.9701 5.71287L47.5261 7.30239L48.2476 8.86574ZM51.6916 7.27622L52.4386 8.82759C52.3897 8.85112 52.2317 8.91656 51.9911 8.90774C51.7316 8.89821 51.4627 8.80392 51.2401 8.62584C50.8336 8.30066 50.8053 7.9081 50.8053 7.80606H52.5271H54.249C54.249 7.27607 54.078 6.48613 53.3913 5.93679C52.5823 5.28959 51.6188 5.40024 50.9447 5.72484L51.6916 7.27622ZM52.5271 7.80606H50.8053V8.35628H52.5271H54.249V7.80606H52.5271ZM52.5271 8.35628L53.853 9.45484C54.0991 9.15775 54.5194 8.91654 55.1356 8.91654V7.19471V5.47287C53.5508 5.47287 52.1371 6.12831 51.2013 7.25772L52.5271 8.35628ZM55.1356 7.19471V8.91654C56.1068 8.91654 56.7029 9.25973 57.0172 9.71776L58.4369 8.74347L59.8566 7.76919C58.7444 6.1486 56.9359 5.47287 55.1356 5.47287V7.19471ZM58.4369 8.74347L59.9319 9.59774C60.1376 9.23776 60.5781 8.91654 61.3918 8.91654V7.19471V5.47287C59.597 5.47287 57.8774 6.25209 56.9419 7.8892L58.4369 8.74347ZM61.3918 7.19471V8.91654C61.9289 8.91654 62.3322 9.05775 62.6187 9.32104C62.9003 9.57972 63.2961 10.1645 63.4048 11.5109L65.121 11.3723L66.8373 11.2337C66.6811 9.29915 66.0478 7.79514 64.9487 6.78526C63.8546 5.77999 62.5257 5.47287 61.3918 5.47287V7.19471ZM65.121 11.3723L63.4045 11.5067L63.6694 14.8896L65.386 14.7551L67.1025 14.6207L66.8376 11.2379L65.121 11.3723ZM76.5698 14.7959L74.863 15.0228L74.8635 15.0265L76.5698 14.7959ZM72.922 16.4058L74.5796 15.9396L73.6771 12.7307L71.5826 15.3239L72.922 16.4058ZM72.1477 11.5965L71.3064 13.0988L74.2018 14.7202L73.8603 11.4193L72.1477 11.5965ZM76.1011 11.2704L74.3939 11.4943L74.3943 11.4973L76.1011 11.2704ZM72.4533 14.9182L74.1708 14.7955L74.17 14.7838L74.169 14.7722L72.4533 14.9182ZM72.3718 13.9604L74.0874 13.8144L74.0843 13.7771L74.0795 13.74L72.3718 13.9604ZM76.5698 14.7959L74.8635 15.0265C74.9351 15.5562 75.0724 16.0293 75.2973 16.4452C75.5326 16.8802 75.818 17.1676 76.0643 17.3663C76.1663 17.4486 76.2744 17.5245 76.2973 17.5411C76.3459 17.5762 76.2981 17.5453 76.2361 17.4846C76.1587 17.4087 76.0432 17.2736 75.9563 17.0749C75.869 16.8754 75.8465 16.6943 75.8465 16.5688H77.5683H79.2902C79.2902 16.2956 79.2428 15.9954 79.1113 15.6947C78.9801 15.3949 78.801 15.1765 78.6458 15.0245C78.5062 14.8877 78.3667 14.7878 78.315 14.7504C78.2728 14.7199 78.2686 14.7172 78.2456 14.7004C78.2385 14.6952 78.2339 14.6918 78.2308 14.6894C78.2277 14.687 78.2265 14.6861 78.2267 14.6862C78.2488 14.7041 78.2973 14.7532 78.3263 14.8068C78.3449 14.8412 78.3064 14.7896 78.2761 14.5653L76.5698 14.7959ZM77.5683 16.5688H75.8465C75.8465 16.2947 75.9304 16.039 76.0627 15.8346C76.1841 15.6469 76.3185 15.544 76.385 15.4996C76.4967 15.4253 76.5286 15.4412 76.3674 15.4775C76.0703 15.5443 75.5863 15.5806 75.021 15.5806V17.3024V19.0243C75.6581 19.0243 76.4478 18.9892 77.1237 18.837C77.449 18.7638 77.8924 18.6332 78.2938 18.3659C78.7252 18.0786 79.2902 17.4911 79.2902 16.5688H77.5683ZM75.021 17.3024V15.5806C74.7438 15.5806 74.5433 15.5673 74.4006 15.5479C74.2554 15.5282 74.2083 15.5071 74.2194 15.5118C74.2397 15.5203 74.3278 15.5628 74.422 15.6672C74.5188 15.7744 74.5633 15.8816 74.5796 15.9396L72.922 16.4058L71.2645 16.872C71.5058 17.7297 72.0875 18.3506 72.8831 18.6856C73.5497 18.9663 74.3134 19.0243 75.021 19.0243V17.3024ZM72.922 16.4058L71.5826 15.3239C71.5434 15.3723 71.4671 15.4466 71.3108 15.5145C71.1501 15.5844 70.8699 15.6621 70.4155 15.6621V17.384V19.1058C72.1461 19.1058 73.452 18.49 74.2615 17.4877L72.922 16.4058ZM70.4155 17.384V15.6621C69.5631 15.6621 68.9935 15.4647 68.6846 15.2392C68.4468 15.0656 68.2654 14.8165 68.2654 14.2864H66.5436H64.8217C64.8217 15.8757 65.4962 17.1753 66.6543 18.0207C67.7413 18.8141 69.1077 19.1058 70.4155 19.1058V17.384ZM66.5436 14.2864H68.2654C68.2654 13.7907 68.4485 13.5032 68.7135 13.2972C69.0254 13.0548 69.5413 12.87 70.1913 12.87V11.1481V9.42631C68.9461 9.42631 67.6382 9.77136 66.6 10.5784C65.5149 11.4219 64.8217 12.7036 64.8217 14.2864H66.5436ZM70.1913 11.1481V12.87C70.7537 12.87 71.1032 12.985 71.3064 13.0988L72.1477 11.5965L72.9889 10.0942C72.1731 9.6373 71.2185 9.42631 70.1913 9.42631V11.1481ZM72.1477 11.5965L73.8603 11.4193C73.7509 10.3615 73.669 9.3007 73.4677 8.57732C73.3593 8.18808 73.1555 7.64156 72.6921 7.199C72.1664 6.69692 71.5295 6.53256 70.9657 6.53256V8.25439V9.97622C70.8604 9.97622 70.5699 9.93412 70.3136 9.68932C70.1196 9.50404 70.1081 9.34981 70.1501 9.5006C70.1879 9.63637 70.23 9.87024 70.2791 10.2811C70.3276 10.6877 70.3712 11.1568 70.435 11.7736L72.1477 11.5965ZM70.9657 8.25439V6.53256C70.4435 6.53256 69.9544 6.69747 69.549 7.00613C69.1774 7.28909 68.9532 7.63374 68.8179 7.88785C68.5918 8.3125 68.412 8.9287 68.3498 9.10867C68.2366 9.43654 68.1812 9.4958 68.1944 9.48133C68.2849 9.38262 68.4104 9.36517 68.3776 9.36517V11.087V12.8088C69.3535 12.8088 70.1567 12.4373 70.7337 11.8075C71.2335 11.2619 71.4735 10.613 71.6049 10.2327C71.6408 10.1287 71.674 10.0271 71.702 9.94141C71.7316 9.85101 71.7551 9.77894 71.7784 9.71127C71.8013 9.64476 71.8194 9.59597 71.8345 9.55875C71.8418 9.54074 71.8476 9.52758 71.8518 9.51842C71.856 9.50923 71.858 9.50548 71.8577 9.50612C71.8573 9.50674 71.8538 9.51328 71.8468 9.52436C71.8398 9.53545 71.8283 9.55253 71.8117 9.57378C71.7788 9.616 71.7218 9.68003 71.6351 9.74607C71.4331 9.89983 71.1873 9.97622 70.9657 9.97622V8.25439ZM68.3776 11.087V9.36517C68.2508 9.36517 68.2857 9.32963 68.3723 9.40845C68.4133 9.44572 68.4473 9.49363 68.4687 9.54383C68.4897 9.59317 68.4896 9.62328 68.4896 9.61975H66.7677H65.0459C65.0459 10.5083 65.3886 11.3494 66.0547 11.9555C66.7068 12.5489 67.5466 12.8088 68.3776 12.8088V11.087ZM66.7677 9.61975H68.4896C68.4896 9.53436 68.5064 9.51962 68.5144 9.50901C68.5387 9.47655 68.6234 9.38646 68.8445 9.28084C69.3141 9.05657 70.0746 8.91654 70.9657 8.91654V7.19471V5.47287C69.8189 5.47287 68.4804 5.63852 67.3605 6.17335C66.1781 6.73803 65.0459 7.8439 65.0459 9.61975H66.7677ZM70.9657 7.19471V8.91654C73.0513 8.91654 74.1996 10.0132 74.3939 11.4943L76.1011 11.2704L77.8083 11.0465C77.3504 7.55527 74.4639 5.47287 70.9657 5.47287V7.19471ZM76.1011 11.2704L74.3943 11.4973L74.863 15.0228L76.5698 14.7959L78.2766 14.569L77.8079 11.0435L76.1011 11.2704ZM71.7197 16.2428V17.9646C72.9551 17.9646 73.6037 17.0421 73.8449 16.54C74.1104 15.9874 74.2106 15.3535 74.1708 14.7955L72.4533 14.9182L70.7359 15.0408C70.7351 15.0306 70.7365 15.0412 70.7327 15.0619C70.7288 15.0837 70.7262 15.0793 70.7408 15.0489C70.752 15.0255 70.8083 14.9132 70.9549 14.7915C71.1214 14.6532 71.3884 14.5209 71.7197 14.5209V16.2428ZM72.4533 14.9182L74.169 14.7722L74.0874 13.8144L72.3718 13.9604L70.6562 14.1064L70.7377 15.0642L72.4533 14.9182ZM72.3718 13.9604L74.0795 13.74C73.9795 12.9648 73.7683 12.2372 73.351 11.6612C72.8903 11.0254 72.1898 10.6083 71.3733 10.6083V12.3301V14.0519C71.1897 14.0519 71.0052 14.0062 70.8439 13.918C70.6865 13.832 70.5988 13.732 70.5623 13.6816C70.5286 13.6351 70.5402 13.634 70.5687 13.7193C70.5969 13.8034 70.6344 13.9504 70.6641 14.1807L72.3718 13.9604ZM71.3733 12.3301V10.6083C70.4096 10.6083 69.7419 11.1912 69.3975 11.7652C69.0691 12.3126 68.9586 12.9356 68.9586 13.4917H70.6804H72.4022C72.4022 13.3548 72.4343 13.3971 72.3505 13.5369C72.3041 13.6143 72.2075 13.7431 72.033 13.8568C71.848 13.9773 71.6175 14.0519 71.3733 14.0519V12.3301ZM70.6804 13.4917H68.9586C68.9586 14.3392 69.0611 15.2354 69.3219 15.984C69.4507 16.3535 69.6545 16.7941 69.9938 17.1711C70.355 17.5724 70.9383 17.9646 71.7197 17.9646V16.2428V14.5209C72.1648 14.5209 72.4502 14.7526 72.5534 14.8674C72.6348 14.9578 72.6208 14.9857 72.5738 14.8508C72.4832 14.5907 72.4022 14.1114 72.4022 13.4917H70.6804ZM81.745 7.05206H80.0231L80.0232 7.05799L81.745 7.05206ZM93.3811 6.25729L91.6594 6.23954L91.6593 6.24842V6.25729H93.3811ZM87.8178 17.384V15.6621C86.2677 15.6621 85.0232 15.2807 84.2227 14.7872C83.3836 14.27 83.263 13.8059 83.263 13.6547H81.5412H79.8194C79.8194 15.4598 81.0233 16.8604 82.4157 17.7187C83.8467 18.6008 85.7405 19.1058 87.8178 19.1058V17.384ZM81.5412 13.6547H83.263C83.263 13.5429 83.277 13.4979 83.276 13.5009C83.2751 13.5039 83.2695 13.5209 83.255 13.5468C83.2402 13.5733 83.2184 13.6053 83.1881 13.6383C83.1576 13.6714 83.1244 13.6991 83.0918 13.7206C83.0596 13.7418 83.0345 13.7526 83.0223 13.7571C83.0001 13.7653 83.0384 13.7462 83.1715 13.7462V12.0244V10.3026C82.2708 10.3026 81.3372 10.5636 80.6534 11.3072C79.9941 12.0241 79.8194 12.9185 79.8194 13.6547H81.5412ZM83.1715 12.0244V13.7462C83.1891 13.7462 83.1811 13.7178 83.2724 13.8142C83.445 13.9962 83.6008 14.2647 83.9272 14.826C84.4561 15.7354 85.5184 17.6182 87.9808 17.6182V15.8963V14.1745C87.6718 14.1745 87.5011 14.1213 86.9041 13.0947C86.6675 12.688 86.2871 11.9886 85.7713 11.4446C85.1743 10.815 84.3256 10.3026 83.1715 10.3026V12.0244ZM87.9808 15.8963V17.6182C88.7543 17.6182 89.6016 17.4209 90.2795 16.8316C90.9908 16.2135 91.2922 15.3582 91.2922 14.5106H89.5703H87.8485C87.8485 14.5362 87.8444 14.5033 87.8722 14.4364C87.9019 14.3649 87.9532 14.291 88.0205 14.2325C88.1533 14.117 88.2059 14.1745 87.9808 14.1745V15.8963ZM89.5703 14.5106H91.2922C91.2922 13.7214 91.0755 13.0026 90.6472 12.3885C90.2364 11.7996 89.697 11.4011 89.1926 11.1183C88.2771 10.605 87.0214 10.257 86.22 9.98425C85.268 9.66032 84.5992 9.35294 84.1534 8.93531C83.7903 8.59516 83.4704 8.08545 83.4668 7.04612L81.745 7.05206L80.0232 7.05799C80.0298 8.97354 80.6931 10.4125 81.7992 11.4486C82.8225 12.4071 84.1088 12.9034 85.1106 13.2443C86.2629 13.6365 86.9598 13.8144 87.5084 14.122C87.736 14.2497 87.8065 14.3354 87.8227 14.3585C87.8289 14.3675 87.8319 14.3735 87.835 14.3839C87.8386 14.3957 87.8485 14.4336 87.8485 14.5106H89.5703ZM81.745 7.05206H83.4668C83.4668 6.22062 83.7941 5.58338 84.3757 5.11717C84.9898 4.62498 85.9916 4.24986 87.3898 4.24986V2.52803V0.806194C85.4052 0.806194 83.5846 1.33792 82.222 2.43015C80.8269 3.54837 80.0231 5.17314 80.0231 7.05206H81.745ZM87.3898 2.52803V4.24986C88.7659 4.24986 89.9419 4.61626 90.7194 5.10726C91.5396 5.62516 91.661 6.08565 91.6594 6.23954L93.3811 6.25729L95.1029 6.27504C95.1216 4.45222 93.9082 3.04807 92.5581 2.19552C91.1653 1.31607 89.3355 0.806194 87.3898 0.806194V2.52803ZM93.3811 6.25729H91.6593C91.6593 6.34538 91.6465 6.37697 91.6497 6.36779C91.6516 6.36256 91.6573 6.34787 91.6699 6.32728C91.6827 6.30638 91.7002 6.28316 91.7225 6.26048C91.7448 6.23774 91.7676 6.22001 91.7878 6.20724C91.8078 6.19463 91.8208 6.18964 91.8225 6.189C91.8251 6.18805 91.7753 6.2065 91.6489 6.2065V7.92833V9.65016C92.5622 9.65016 93.4865 9.37857 94.1788 8.67406C94.8642 7.97648 95.1029 7.07712 95.1029 6.25729H93.3811ZM91.6489 7.92833V6.2065C91.4619 6.2065 91.4214 6.16716 91.3599 6.10477C91.2221 5.9651 91.0753 5.72123 90.8311 5.21436C90.6405 4.81895 90.3203 4.09271 89.8655 3.52884C89.3245 2.85811 88.4937 2.27345 87.3083 2.27345V3.99528V5.71711C87.3139 5.71711 87.3001 5.71757 87.273 5.71087C87.2454 5.70403 87.2167 5.69291 87.1908 5.67894C87.1391 5.65096 87.1392 5.63394 87.1851 5.69079C87.3251 5.86437 87.4455 6.1214 87.7288 6.70925C87.9584 7.18564 88.3185 7.92504 88.908 8.52281C89.5737 9.19787 90.4808 9.65016 91.6489 9.65016V7.92833ZM87.3083 3.99528V2.27345C86.4128 2.27345 85.519 2.55478 84.8651 3.26151C84.2334 3.94426 84.0377 4.79607 84.0377 5.52367H85.7595H87.4814C87.4814 5.45493 87.4909 5.43616 87.4848 5.45458C87.4774 5.47702 87.4526 5.53552 87.3928 5.60022C87.3306 5.6674 87.2648 5.70415 87.2253 5.71927C87.1918 5.73206 87.2098 5.71711 87.3083 5.71711V3.99528ZM85.7595 5.52367H84.0377C84.0377 6.33567 84.2231 7.08106 84.6077 7.73725C84.9866 8.38385 85.5034 8.84924 86.0277 9.19346C86.9915 9.82632 88.2485 10.1952 89.0914 10.4794C90.0783 10.8123 90.7402 11.0907 91.1804 11.4737C91.5136 11.7636 91.8019 12.1812 91.8019 13.1045H93.5238H95.2456C95.2456 11.2359 94.5634 9.85249 93.4408 8.87577C92.4252 7.99215 91.1461 7.53819 90.1919 7.21638C89.0938 6.84601 88.4097 6.63788 87.9178 6.31486C87.7141 6.18114 87.6243 6.07385 87.5787 5.99599C87.5386 5.9277 87.4814 5.79682 87.4814 5.52367H85.7595ZM93.5238 13.1045H91.8019C91.8019 13.8512 91.4767 14.4197 90.8403 14.8632C90.1553 15.3405 89.0976 15.6621 87.8178 15.6621V17.384V19.1058C89.6151 19.1058 91.4104 18.6632 92.8091 17.6886C94.2564 16.6801 95.2456 15.1088 95.2456 13.1045H93.5238ZM104.238 14.7959L102.531 15.0228L102.531 15.0265L104.238 14.7959ZM100.59 16.4058L102.247 15.9396L101.345 12.7307L99.2504 15.3239L100.59 16.4058ZM99.8155 11.5965L98.9742 13.0988L101.87 14.7202L101.528 11.4193L99.8155 11.5965ZM103.769 11.2704L102.062 11.4943L102.062 11.4973L103.769 11.2704ZM100.121 14.9182L101.839 14.7955L101.838 14.7838L101.837 14.7722L100.121 14.9182ZM100.04 13.9604L101.755 13.8144L101.752 13.7771L101.747 13.74L100.04 13.9604ZM104.238 14.7959L102.531 15.0265C102.603 15.5562 102.74 16.0293 102.965 16.4452C103.2 16.8802 103.486 17.1676 103.732 17.3663C103.834 17.4486 103.942 17.5245 103.965 17.5411C104.014 17.5762 103.966 17.5453 103.904 17.4846C103.826 17.4087 103.711 17.2736 103.624 17.0749C103.537 16.8754 103.514 16.6943 103.514 16.5688H105.236H106.958C106.958 16.2956 106.911 15.9954 106.779 15.6947C106.648 15.3949 106.469 15.1765 106.314 15.0245C106.174 14.8877 106.034 14.7878 105.983 14.7504C105.941 14.7199 105.936 14.7172 105.913 14.7004C105.906 14.6952 105.902 14.6918 105.899 14.6894C105.896 14.687 105.894 14.6861 105.894 14.6862C105.917 14.7041 105.965 14.7532 105.994 14.8068C106.013 14.8412 105.974 14.7896 105.944 14.5653L104.238 14.7959ZM105.236 16.5688H103.514C103.514 16.2947 103.598 16.039 103.73 15.8346C103.852 15.6469 103.986 15.544 104.053 15.4996C104.164 15.4253 104.196 15.4412 104.035 15.4775C103.738 15.5443 103.254 15.5806 102.689 15.5806V17.3024V19.0243C103.326 19.0243 104.116 18.9892 104.792 18.837C105.117 18.7638 105.56 18.6332 105.962 18.3659C106.393 18.0786 106.958 17.4911 106.958 16.5688H105.236ZM102.689 17.3024V15.5806C102.412 15.5806 102.211 15.5673 102.068 15.5479C101.923 15.5282 101.876 15.5071 101.887 15.5118C101.908 15.5203 101.996 15.5628 102.09 15.6672C102.187 15.7744 102.231 15.8816 102.247 15.9396L100.59 16.4058L98.9323 16.872C99.1736 17.7297 99.7553 18.3506 100.551 18.6856C101.218 18.9663 101.981 19.0243 102.689 19.0243V17.3024ZM100.59 16.4058L99.2504 15.3239C99.2112 15.3723 99.1349 15.4466 98.9786 15.5145C98.8179 15.5844 98.5377 15.6621 98.0833 15.6621V17.384V19.1058C99.8139 19.1058 101.12 18.49 101.929 17.4877L100.59 16.4058ZM98.0833 17.384V15.6621C97.2309 15.6621 96.6613 15.4647 96.3524 15.2392C96.1147 15.0656 95.9332 14.8165 95.9332 14.2864H94.2114H92.4895C92.4895 15.8757 93.164 17.1753 94.3221 18.0207C95.4092 18.8141 96.7756 19.1058 98.0833 19.1058V17.384ZM94.2114 14.2864H95.9332C95.9332 13.7907 96.1163 13.5032 96.3813 13.2972C96.6932 13.0548 97.2091 12.87 97.8591 12.87V11.1481V9.42631C96.6139 9.42631 95.306 9.77136 94.2678 10.5784C93.1827 11.4219 92.4895 12.7036 92.4895 14.2864H94.2114ZM97.8591 11.1481V12.87C98.4215 12.87 98.7711 12.985 98.9742 13.0988L99.8155 11.5965L100.657 10.0942C99.8409 9.6373 98.8863 9.42631 97.8591 9.42631V11.1481ZM99.8155 11.5965L101.528 11.4193C101.419 10.3615 101.337 9.3007 101.135 8.57732C101.027 8.18808 100.823 7.64156 100.36 7.199C99.8342 6.69692 99.1973 6.53256 98.6335 6.53256V8.25439V9.97622C98.5282 9.97622 98.2378 9.93412 97.9814 9.68932C97.7874 9.50404 97.7759 9.34981 97.8179 9.5006C97.8557 9.63637 97.8978 9.87024 97.9469 10.2811C97.9954 10.6877 98.039 11.1568 98.1028 11.7736L99.8155 11.5965ZM98.6335 8.25439V6.53256C98.1113 6.53256 97.6223 6.69747 97.2168 7.00613C96.8452 7.28909 96.621 7.63374 96.4857 7.88785C96.2597 8.3125 96.0798 8.9287 96.0176 9.10867C95.9044 9.43654 95.849 9.4958 95.8622 9.48133C95.9527 9.38262 96.0783 9.36517 96.0454 9.36517V11.087V12.8088C97.0214 12.8088 97.8245 12.4373 98.4015 11.8075C98.9013 11.2619 99.1414 10.613 99.2727 10.2327C99.3086 10.1287 99.3418 10.0271 99.3698 9.94141C99.3994 9.85101 99.4229 9.77894 99.4462 9.71127C99.4691 9.64476 99.4872 9.59597 99.5023 9.55875C99.5096 9.54074 99.5154 9.52758 99.5196 9.51842C99.5238 9.50923 99.5258 9.50548 99.5255 9.50612C99.5251 9.50674 99.5216 9.51328 99.5146 9.52436C99.5076 9.53545 99.4961 9.55253 99.4795 9.57378C99.4466 9.616 99.3896 9.68003 99.3029 9.74607C99.1009 9.89983 98.8551 9.97622 98.6335 9.97622V8.25439ZM96.0454 11.087V9.36517C95.9186 9.36517 95.9535 9.32963 96.0401 9.40845C96.0811 9.44572 96.1151 9.49363 96.1365 9.54383C96.1575 9.59317 96.1574 9.62328 96.1574 9.61975H94.4355H92.7137C92.7137 10.5083 93.0564 11.3494 93.7225 11.9555C94.3746 12.5489 95.2144 12.8088 96.0454 12.8088V11.087ZM94.4355 9.61975H96.1574C96.1574 9.53436 96.1742 9.51962 96.1822 9.50901C96.2065 9.47655 96.2912 9.38646 96.5123 9.28084C96.9819 9.05657 97.7425 8.91654 98.6335 8.91654V7.19471V5.47287C97.4867 5.47287 96.1482 5.63852 95.0283 6.17335C93.8459 6.73803 92.7137 7.8439 92.7137 9.61975H94.4355ZM98.6335 7.19471V8.91654C100.719 8.91654 101.867 10.0132 102.062 11.4943L103.769 11.2704L105.476 11.0465C105.018 7.55527 102.132 5.47287 98.6335 5.47287V7.19471ZM103.769 11.2704L102.062 11.4973L102.531 15.0228L104.238 14.7959L105.944 14.569L105.476 11.0435L103.769 11.2704ZM99.3875 16.2428V17.9646C100.623 17.9646 101.272 17.0421 101.513 16.54C101.778 15.9874 101.878 15.3535 101.839 14.7955L100.121 14.9182L98.4037 15.0408C98.403 15.0306 98.4043 15.0412 98.4006 15.0619C98.3967 15.0837 98.394 15.0793 98.4086 15.0489C98.4198 15.0255 98.4761 14.9132 98.6227 14.7915C98.7892 14.6532 99.0562 14.5209 99.3875 14.5209V16.2428ZM100.121 14.9182L101.837 14.7722L101.755 13.8144L100.04 13.9604L98.324 14.1064L98.4055 15.0642L100.121 14.9182ZM100.04 13.9604L101.747 13.74C101.647 12.9648 101.436 12.2372 101.019 11.6612C100.558 11.0254 99.8577 10.6083 99.0411 10.6083V12.3301V14.0519C98.8575 14.0519 98.673 14.0062 98.5117 13.918C98.3543 13.832 98.2666 13.732 98.2301 13.6816C98.1964 13.6351 98.208 13.634 98.2365 13.7193C98.2647 13.8034 98.3022 13.9504 98.332 14.1807L100.04 13.9604ZM99.0411 12.3301V10.6083C98.0774 10.6083 97.4097 11.1912 97.0653 11.7652C96.7369 12.3126 96.6264 12.9356 96.6264 13.4917H98.3482H100.07C100.07 13.3548 100.102 13.3971 100.018 13.5369C99.9719 13.6143 99.8753 13.7431 99.7008 13.8568C99.5158 13.9773 99.2853 14.0519 99.0411 14.0519V12.3301ZM98.3482 13.4917H96.6264C96.6264 14.3392 96.7289 15.2354 96.9897 15.984C97.1185 16.3535 97.3223 16.7941 97.6616 17.1711C98.0228 17.5724 98.6061 17.9646 99.3875 17.9646V16.2428V14.5209C99.8326 14.5209 100.118 14.7526 100.221 14.8674C100.303 14.9578 100.289 14.9857 100.242 14.8508C100.151 14.5907 100.07 14.1114 100.07 13.4917H98.3482ZM116.902 14.7551L115.186 14.8896L115.186 14.8952L116.902 14.7551ZM112.847 14.7551L111.128 14.8545L111.128 14.8604L112.847 14.7551ZM112.643 11.2297L110.924 11.3221L110.924 11.329L112.643 11.2297ZM105.857 8.86574L105.091 7.32373L105.069 7.33479L105.047 7.34648L105.857 8.86574ZM109.057 7.27622L109.823 8.81823L109.836 8.81162L109.849 8.80478L109.057 7.27622ZM109.892 8.64158H108.17V15.1871L111.391 9.48882L109.892 8.64158ZM116.637 11.3723L118.354 11.2379L118.354 11.2337L116.637 11.3723ZM116.902 14.7551L115.186 14.8952C115.26 15.8029 115.615 16.4096 115.835 16.766C115.894 16.861 115.916 16.8953 115.948 16.9477C115.973 16.9896 115.977 17.0001 115.974 16.9935C115.961 16.9653 115.914 16.851 115.914 16.6911H117.636H119.358C119.358 15.7808 118.846 15.0878 118.764 14.9553C118.638 14.7514 118.626 14.7059 118.618 14.615L116.902 14.7551ZM117.636 16.6911H115.914V16.7726H117.636H119.358V16.6911H117.636ZM117.636 16.7726H115.914C115.914 16.4253 116.067 16.0338 116.397 15.7601C116.693 15.5154 116.989 15.4787 117.127 15.4787V17.2006V18.9224C117.57 18.9224 118.121 18.8042 118.594 18.4118C119.103 17.9903 119.358 17.3848 119.358 16.7726H117.636ZM117.127 17.2006V15.4787H112.623V17.2006V18.9224H117.127V17.2006ZM112.623 17.2006V15.4787C112.761 15.4787 113.057 15.5154 113.352 15.7601C113.682 16.0338 113.835 16.4253 113.835 16.7726H112.113H110.392C110.392 17.3848 110.646 17.9903 111.155 18.4118C111.629 18.8042 112.179 18.9224 112.623 18.9224V17.2006ZM112.113 16.7726H113.835V16.6911H112.113H110.392V16.7726H112.113ZM112.113 16.6911H113.835C113.835 16.9198 113.756 17.0725 113.744 17.0953C113.741 17.1006 113.747 17.0881 113.781 17.0383C113.798 17.0138 113.816 16.9884 113.842 16.952C113.865 16.9184 113.895 16.8759 113.926 16.8306C114.203 16.4243 114.631 15.7092 114.566 14.6499L112.847 14.7551L111.128 14.8604C111.129 14.8626 111.129 14.8309 111.142 14.7949C111.149 14.7761 111.149 14.7905 111.081 14.8907C111.053 14.9308 110.855 15.2027 110.73 15.4297C110.57 15.7188 110.392 16.1465 110.392 16.6911H112.113ZM112.847 14.7551L114.566 14.6558L114.362 11.1303L112.643 11.2297L110.924 11.329L111.128 14.8545L112.847 14.7551ZM112.643 11.2297L114.363 11.1372C114.314 10.2243 114.231 9.29393 113.93 8.57803C113.759 8.17161 113.473 7.71849 112.982 7.38694C112.486 7.05216 111.959 6.9605 111.522 6.9605V8.68234V10.4042C111.484 10.4042 111.282 10.394 111.055 10.2407C110.833 10.0907 110.758 9.91904 110.755 9.91256C110.754 9.91033 110.765 9.93563 110.781 10.0011C110.797 10.0658 110.815 10.1565 110.833 10.2805C110.87 10.5328 110.9 10.8695 110.924 11.3221L112.643 11.2297ZM111.522 8.68234V6.9605C111.057 6.9605 110.573 7.0742 110.132 7.35481C109.698 7.63138 109.407 8.00557 109.218 8.37088C108.869 9.04715 108.802 9.82031 108.802 10.4349H110.524H112.246C112.246 10.2367 112.258 10.0954 112.274 10.002C112.291 9.90415 112.304 9.90107 112.278 9.95159C112.247 10.0112 112.16 10.146 111.982 10.2595C111.797 10.3771 111.621 10.4042 111.522 10.4042V8.68234ZM110.524 10.4349H108.802V14.7551H110.524H112.246V10.4349H110.524ZM110.524 14.7551H108.802C108.802 15.8827 109.373 16.6079 109.672 16.9653C109.787 17.1033 109.761 17.069 109.839 17.1626C109.878 17.2102 109.884 17.2206 109.878 17.2113C109.86 17.1846 109.739 16.9916 109.739 16.6911H111.461H113.183C113.183 16.0747 112.945 15.6066 112.752 15.3138C112.593 15.0727 112.361 14.8129 112.313 14.756C112.144 14.553 112.246 14.6261 112.246 14.7551H110.524ZM111.461 16.6911H109.739V16.7726H111.461H113.183V16.6911H111.461ZM111.461 16.7726H109.739C109.739 16.4253 109.892 16.0338 110.223 15.7601C110.518 15.5154 110.814 15.4787 110.952 15.4787V17.2006V18.9224C111.395 18.9224 111.946 18.8042 112.42 18.4118C112.928 17.9903 113.183 17.3848 113.183 16.7726H111.461ZM110.952 17.2006V15.4787H106.041V17.2006V18.9224H110.952V17.2006ZM106.041 17.2006V15.4787C106.178 15.4787 106.474 15.5154 106.77 15.7601C107.1 16.0338 107.253 16.4253 107.253 16.7726H105.531H103.809C103.809 17.3848 104.064 17.9903 104.573 18.4118C105.046 18.8042 105.597 18.9224 106.041 18.9224V17.2006ZM105.531 16.7726H107.253V16.6911H105.531H103.809V16.7726H105.531ZM105.531 16.6911H107.253C107.253 16.9916 107.132 17.1846 107.114 17.2113C107.108 17.2206 107.114 17.2102 107.154 17.1626C107.231 17.069 107.205 17.1033 107.321 16.9653C107.62 16.6079 108.19 15.8827 108.19 14.7551H106.469H104.747C104.747 14.6261 104.849 14.553 104.679 14.756C104.632 14.8129 104.4 15.0727 104.241 15.3138C104.047 15.6066 103.809 16.0747 103.809 16.6911H105.531ZM106.469 14.7551H108.19V11.3112H106.469H104.747V14.7551H106.469ZM106.469 11.3112H108.19C108.19 10.0137 107.379 9.27477 107.032 8.97096C106.885 8.84288 106.926 8.88148 106.829 8.79596C106.782 8.75426 106.782 8.75076 106.799 8.76977C106.839 8.81563 107.049 9.07567 107.049 9.49748H105.327H103.606C103.606 10.2351 103.959 10.755 104.213 11.0441C104.419 11.2781 104.716 11.5207 104.764 11.5626C104.988 11.758 104.747 11.6101 104.747 11.3112H106.469ZM105.327 9.49748H107.049V9.41596H105.327H103.606V9.49748H105.327ZM105.327 9.41596H107.049C107.049 9.60592 107.006 9.81521 106.905 10.015C106.81 10.2042 106.694 10.3252 106.624 10.3876C106.559 10.4455 106.515 10.4695 106.534 10.4584C106.553 10.4468 106.584 10.4294 106.667 10.385L105.857 8.86574L105.047 7.34648C104.949 7.39878 104.611 7.56805 104.332 7.81765C103.96 8.1495 103.606 8.68545 103.606 9.41596H105.327ZM105.857 8.86574L106.623 10.4078L109.823 8.81823L109.057 7.27622L108.291 5.73421L105.091 7.32373L105.857 8.86574ZM109.057 7.27622L109.849 8.80478C109.798 8.83141 109.63 8.90674 109.372 8.89964C109.093 8.89197 108.814 8.78909 108.59 8.6063C108.194 8.28179 108.17 7.90067 108.17 7.80606H109.892H111.614C111.614 7.2835 111.448 6.49481 110.771 5.94105C109.946 5.26621 108.953 5.39032 108.264 5.74765L109.057 7.27622ZM109.892 7.80606H108.17V8.64158H109.892H111.614V7.80606H109.892ZM109.892 8.64158L111.391 9.48882C111.543 9.21971 111.879 8.91654 112.745 8.91654V7.19471V5.47287C110.962 5.47287 109.301 6.18863 108.393 7.79434L109.892 8.64158ZM112.745 7.19471V8.91654C113.316 8.91654 113.776 9.06546 114.101 9.3498C114.407 9.61719 114.815 10.196 114.921 11.5109L116.637 11.3723L118.354 11.2337C118.195 9.2677 117.513 7.75767 116.367 6.75649C115.24 5.77227 113.886 5.47287 112.745 5.47287V7.19471ZM116.637 11.3723L114.921 11.5067L115.186 14.8896L116.902 14.7551L118.619 14.6207L118.354 11.2379L116.637 11.3723ZM118.939 8.92688H120.661V7.20505H118.939V8.92688ZM121.344 5.31988L123.016 5.73103L123.018 5.72265L123.02 5.71425L121.344 5.31988ZM123.096 7.39849H121.375V9.12032H123.096V7.39849ZM123.096 8.92688V7.20505H121.375V8.92688H123.096ZM125.216 13.7973L123.929 12.6534L123.919 12.665L123.909 12.6768L125.216 13.7973ZM122.444 17.384V15.6621C121.772 15.6621 121.393 15.4539 121.167 15.2071C120.924 14.9425 120.661 14.4154 120.661 13.4305H118.939H117.217C117.217 15.0133 117.647 16.463 118.627 17.5332C119.624 18.6211 120.997 19.1058 122.444 19.1058V17.384ZM118.939 13.4305H120.661V8.92688H118.939H117.217V13.4305H118.939ZM118.939 8.92688V7.20505H118.328V8.92688V10.6487H118.939V8.92688ZM118.328 8.92688V7.20505C118.994 7.20505 119.54 7.75177 119.54 8.41742H117.818H116.097C116.097 9.65366 117.092 10.6487 118.328 10.6487V8.92688ZM117.818 8.41742H119.54V7.90795H117.818H116.097V8.41742H117.818ZM117.818 7.90795H119.54C119.54 8.1464 119.453 8.4789 119.176 8.75611C118.899 9.03333 118.566 9.12032 118.328 9.12032V7.39849V5.67666C117.784 5.67666 117.197 5.86555 116.741 6.32107C116.286 6.7766 116.097 7.36383 116.097 7.90795H117.818ZM118.328 7.39849V9.12032H118.613V7.39849V5.67666H118.328V7.39849ZM118.613 7.39849V9.12032C120.688 9.12032 122.511 7.78464 123.016 5.73103L121.344 5.31988L119.672 4.90873C119.566 5.3413 119.188 5.67666 118.613 5.67666V7.39849ZM121.344 5.31988L123.02 5.71425C122.974 5.91088 122.687 6.47111 121.955 6.47111V4.74928V3.02745C120.653 3.02745 119.877 4.03602 119.668 4.92552L121.344 5.31988ZM121.955 4.74928V6.47111H122.506V4.74928V3.02745H121.955V4.74928ZM122.506 4.74928V6.47111C122.305 6.47111 122.006 6.40149 121.744 6.15224C121.473 5.89426 121.375 5.56924 121.375 5.31988H123.096H124.818C124.818 4.72408 124.598 4.11377 124.118 3.6571C123.647 3.20916 123.052 3.02745 122.506 3.02745V4.74928ZM123.096 5.31988H121.375V7.39849H123.096H124.818V5.31988H123.096ZM123.096 7.39849V9.12032H125.012V7.39849V5.67666H123.096V7.39849ZM125.012 7.39849V9.12032C124.346 9.12032 123.8 8.5736 123.8 7.90795H125.522H127.243C127.243 6.67171 126.248 5.67666 125.012 5.67666V7.39849ZM125.522 7.90795H123.8V8.41742H125.522H127.243V7.90795H125.522ZM125.522 8.41742H123.8C123.8 7.75177 124.346 7.20505 125.012 7.20505V8.92688V10.6487C126.248 10.6487 127.243 9.65366 127.243 8.41742H125.522ZM125.012 8.92688V7.20505H123.096V8.92688V10.6487H125.012V8.92688ZM123.096 8.92688H121.375V13.512H123.096H124.818V8.92688H123.096ZM123.096 13.512H121.375C121.375 14.899 122.383 16.1713 123.932 16.1713V14.4495V12.7276C124.165 12.7276 124.42 12.8271 124.604 13.0277C124.785 13.2237 124.818 13.4243 124.818 13.512H123.096ZM123.932 14.4495V16.1713C124.615 16.1713 125.206 15.9971 125.703 15.6745C126.147 15.3862 126.441 15.0134 126.523 14.9179L125.216 13.7973L123.909 12.6768C123.9 12.6872 123.891 12.6973 123.883 12.7064C123.875 12.7159 123.868 12.7241 123.861 12.7323C123.847 12.7487 123.836 12.7616 123.826 12.7732C123.805 12.7965 123.794 12.8087 123.788 12.8153C123.776 12.827 123.791 12.8098 123.827 12.7863C123.845 12.7746 123.866 12.7632 123.888 12.7531C123.91 12.743 123.929 12.736 123.945 12.7315C123.979 12.7221 123.979 12.7276 123.932 12.7276V14.4495ZM125.216 13.7973L126.503 14.9413C126.303 15.1656 125.874 15.4057 125.328 15.2691C125.062 15.2027 124.795 15.0464 124.595 14.7912C124.39 14.5306 124.309 14.2347 124.309 13.9807H126.031H127.753C127.753 12.9805 127.087 12.1591 126.163 11.9282C125.291 11.7101 124.454 12.0623 123.929 12.6534L125.216 13.7973ZM126.031 13.9807H124.309C124.309 14.3894 124.154 14.8149 123.868 15.1244C123.608 15.4049 123.176 15.6621 122.444 15.6621V17.384V19.1058C125.903 19.1058 127.753 16.4335 127.753 13.9807H126.031ZM131.861 17.384V15.6621C129.563 15.6621 127.898 14.1426 127.898 12.2893H126.176H124.454C124.454 16.5497 128.209 19.1058 131.861 19.1058V17.384ZM126.176 12.2893H127.898C127.898 10.4361 129.563 8.91654 131.861 8.91654V7.19471V5.47287C128.209 5.47287 124.454 8.02901 124.454 12.2893H126.176ZM131.861 7.19471V8.91654C134.168 8.91654 135.805 10.4254 135.805 12.2893H137.527H139.249C139.249 8.03976 135.547 5.47287 131.861 5.47287V7.19471ZM137.527 12.2893H135.805C135.805 14.1533 134.168 15.6621 131.861 15.6621V17.384V19.1058C135.547 19.1058 139.249 16.5389 139.249 12.2893H137.527ZM132.351 16.2835V18.0054C132.874 18.0054 133.431 17.8601 133.913 17.4772C134.371 17.1131 134.614 16.6492 134.748 16.2693C134.992 15.5788 135.01 14.7603 135.01 14.1438H133.288H131.566C131.566 14.4443 131.559 14.6776 131.542 14.8606C131.524 15.0517 131.501 15.122 131.502 15.1209C131.504 15.1155 131.563 14.9457 131.769 14.7822C131.998 14.6 132.235 14.5617 132.351 14.5617V16.2835ZM133.288 14.1438H135.01C135.01 13.4404 134.834 11.8335 134.461 10.3855C134.276 9.66434 134.011 8.8575 133.625 8.19252C133.299 7.63151 132.534 6.57331 131.169 6.57331V8.29514V10.017C130.557 10.017 130.434 9.55485 130.647 9.9217C130.8 10.1846 130.97 10.6374 131.126 11.2433C131.437 12.4497 131.566 13.7671 131.566 14.1438H133.288ZM131.169 8.29514V6.57331C130.679 6.57331 130.129 6.69825 129.642 7.07217C129.172 7.43288 128.924 7.90079 128.788 8.2868C128.546 8.97528 128.53 9.81116 128.53 10.4756H130.252H131.973C131.973 10.1415 131.981 9.88843 131.998 9.69325C132.016 9.48899 132.039 9.421 132.036 9.4294C132.03 9.44605 131.962 9.63248 131.738 9.80406C131.498 9.98884 131.261 10.017 131.169 10.017V8.29514ZM130.252 10.4756H128.53C128.53 11.284 128.704 12.883 129.078 14.3064C129.264 15.0128 129.529 15.7993 129.92 16.4477C130.26 17.0129 131.025 18.0054 132.351 18.0054V16.2835V14.5617C132.932 14.5617 133.063 14.9911 132.87 14.6712C132.727 14.4345 132.562 14.0134 132.408 13.431C132.105 12.2764 131.973 10.9715 131.973 10.4756H130.252ZM142.678 17.3636V15.6418C141.575 15.6418 140.72 15.4501 140.21 15.1982C139.963 15.0759 139.862 14.9722 139.833 14.9346C139.821 14.9189 139.824 14.9187 139.829 14.9331C139.834 14.9487 139.835 14.9602 139.835 14.9589H138.113H136.391C136.391 16.6419 137.541 17.7205 138.685 18.2859C139.826 18.8491 141.254 19.0854 142.678 19.0854V17.3636ZM138.113 14.9589H139.835C139.835 14.9058 139.844 14.9303 139.814 14.9977C139.782 15.0702 139.728 15.141 139.663 15.1933C139.604 15.2411 139.564 15.2511 139.573 15.2483C139.585 15.2451 139.632 15.2339 139.723 15.2339V13.512V11.7902C139.031 11.7902 138.196 11.9521 137.5 12.5135C136.746 13.122 136.391 14.0092 136.391 14.9589H138.113ZM139.723 13.512V15.2339C139.872 15.2339 139.806 15.26 139.732 15.1871C139.729 15.1837 139.789 15.2459 139.917 15.5744C139.99 15.7603 140.2 16.3943 140.476 16.8406C140.642 17.11 140.898 17.4406 141.294 17.7006C141.711 17.975 142.187 18.1072 142.678 18.1072V16.3854V14.6636C142.817 14.6636 143.008 14.706 143.186 14.8233C143.342 14.9262 143.406 15.0323 143.406 15.0323C143.408 15.0345 143.4 15.0222 143.384 14.9879C143.368 14.9536 143.348 14.9073 143.322 14.8427C143.296 14.777 143.27 14.7056 143.236 14.6157C143.205 14.5307 143.166 14.4276 143.125 14.323C142.973 13.9332 142.7 13.2771 142.15 12.7349C141.53 12.1233 140.705 11.7902 139.723 11.7902V13.512ZM142.678 16.3854V18.1072C143.175 18.1072 143.88 17.9748 144.453 17.4017C145.028 16.8266 145.194 16.0837 145.194 15.448H143.473H141.751C141.751 15.5256 141.733 15.2514 142.018 14.9667C142.301 14.6839 142.609 14.6636 142.678 14.6636V16.3854ZM143.473 15.448H145.194C145.194 14.8167 145.034 14.2208 144.698 13.6979C144.373 13.1928 143.946 12.8507 143.554 12.6131C142.862 12.1925 141.932 11.9216 141.439 11.7504C140.8 11.5286 140.458 11.3583 140.258 11.1728C140.147 11.07 139.998 10.9014 139.998 10.3738H138.276H136.554C136.554 11.7922 137.055 12.8998 137.918 13.6994C138.692 14.4164 139.65 14.7746 140.31 15.0037C141.116 15.2833 141.485 15.3856 141.767 15.5566C141.863 15.6148 141.842 15.6232 141.801 15.5601C141.749 15.4792 141.751 15.417 141.751 15.448H143.473ZM138.276 10.3738H139.998C139.998 10.0495 140.129 9.7511 140.509 9.47763C140.923 9.1789 141.649 8.91654 142.698 8.91654V7.19471V5.47287C141.119 5.47287 139.634 5.86262 138.494 6.68471C137.319 7.53206 136.554 8.82318 136.554 10.3738H138.276ZM142.698 7.19471V8.91654C143.794 8.91654 144.572 9.14289 145.011 9.39437C145.45 9.64573 145.358 9.77937 145.358 9.66051H147.08H148.801C148.801 8.13553 147.823 7.03626 146.723 6.40626C145.623 5.77636 144.211 5.47287 142.698 5.47287V7.19471ZM147.08 9.66051H145.358C145.358 9.51005 145.431 9.40295 145.481 9.35814C145.526 9.31791 145.55 9.32441 145.531 9.32441V11.0462V12.7681C147.145 12.7681 148.801 11.5674 148.801 9.66051H147.08ZM145.531 11.0462V9.32441C145.411 9.32441 145.499 9.30763 145.587 9.39723C145.607 9.4181 145.553 9.37141 145.451 9.07315C145.398 8.91755 145.366 8.80405 145.298 8.58919C145.242 8.41394 145.16 8.16435 145.044 7.91921C144.93 7.67967 144.73 7.32401 144.376 7.02303C143.978 6.68501 143.474 6.4918 142.922 6.4918V8.21363V9.93546C142.646 9.93546 142.362 9.83077 142.146 9.64766C141.974 9.50159 141.919 9.36722 141.931 9.39324C141.941 9.41366 141.965 9.47388 142.015 9.63059C142.052 9.74767 142.124 9.98825 142.192 10.1867C142.332 10.5966 142.588 11.2581 143.13 11.8101C143.739 12.4308 144.561 12.7681 145.531 12.7681V11.0462ZM142.922 8.21363V6.4918C141.929 6.4918 141.241 7.07594 140.898 7.71074C140.607 8.25041 140.548 8.82188 140.548 9.21218H142.27H143.992C143.992 9.11339 144.016 9.18559 143.928 9.34826C143.874 9.44686 143.764 9.6054 143.562 9.73853C143.347 9.8799 143.116 9.93546 142.922 9.93546V8.21363ZM142.27 9.21218H140.548C140.548 10.5615 141.204 11.4963 142.048 12.0916C142.737 12.5773 143.631 12.8758 144.124 13.0633C144.752 13.3021 145.073 13.4646 145.262 13.6395C145.356 13.7273 145.48 13.8582 145.48 14.3068H147.202H148.924C148.924 12.9418 148.431 11.8805 147.601 11.1123C146.865 10.4314 145.953 10.0742 145.348 9.84436C144.608 9.56311 144.269 9.44388 144.033 9.27741C143.953 9.22065 143.992 9.26901 143.992 9.21218H142.27ZM147.202 14.3068H145.48C145.48 14.5778 145.379 14.8358 145.032 15.0836C144.642 15.3621 143.897 15.6418 142.678 15.6418V17.3636V19.0854C144.373 19.0854 145.89 18.7027 147.033 17.8859C148.22 17.0384 148.924 15.768 148.924 14.3068H147.202Z" fill="#FFF6EF" mask="url(#path-1-outside-1_17104_402)"/>
</svg>
