<svg width="161" height="22" viewBox="0 0 161 22" fill="none" xmlns="http://www.w3.org/2000/svg">
<mask id="path-1-outside-1_17103_392" maskUnits="userSpaceOnUse" x="-0.523438" y="-0.994263" width="162" height="23" fill="black">
<rect fill="white" x="-0.523438" y="-0.994263" width="162" height="23"/>
<path d="M18.8798 14.5603C19.0632 15.5589 19.7153 15.8645 19.7153 16.4963V16.5778C19.7153 16.8427 19.5115 17.0057 19.2059 17.0057H14.4984C14.1928 17.0057 13.989 16.8427 13.989 16.5778V16.4963C13.989 15.8645 14.8856 15.5385 14.7226 14.5603L13.6425 8.30411L10.7895 16.3536C10.6469 16.7816 10.4431 16.9854 9.99478 16.9854C9.54645 16.9854 9.26115 16.802 9.07775 16.374L5.65416 7.89654L4.71675 14.5603C4.5741 15.5589 5.45037 15.8645 5.45037 16.4963V16.5778C5.45037 16.8427 5.24659 17.0057 4.94091 17.0057H2.23057C1.92489 17.0057 1.7211 16.8427 1.7211 16.5778V16.4963C1.7211 15.8645 2.41397 15.5589 2.55662 14.5603L4.0035 4.98241C4.14615 3.98387 3.16798 3.67819 3.16798 3.04646V2.96494C3.16798 2.70002 3.37176 2.53699 3.67744 2.53699H6.73422C7.30482 2.53699 7.71239 2.80191 7.89579 3.33176L10.5858 11.1979L13.1127 3.37251C13.2961 2.82229 13.6833 2.53699 14.2539 2.53699H17.3922C17.6979 2.53699 17.9016 2.70002 17.9016 2.96494V3.04646C17.9016 3.67819 16.8827 3.98387 17.0661 4.98241L18.8798 14.5603ZM30.0163 14.6215C30.2201 16.1295 31.0149 15.8034 31.0149 16.3944C31.0149 16.9854 29.6699 17.128 28.4676 17.128C27.1634 17.128 26.552 16.8835 26.3686 16.2314C25.9406 16.7612 25.1663 17.2095 23.862 17.2095C21.7019 17.2095 19.9901 16.2314 19.9901 14.112C19.9901 12.0334 21.7427 10.9737 23.6379 10.9737C24.4326 10.9737 25.0847 11.1367 25.5942 11.422C25.3497 9.05812 25.3293 8.07995 24.4123 8.07995C23.2099 8.07995 23.8417 10.9126 21.8242 10.9126C20.8664 10.9126 20.2143 10.3216 20.2143 9.44531C20.2143 7.63162 22.3744 7.02027 24.4123 7.02027C27.2041 7.02027 29.2216 8.60979 29.5476 11.096L30.0163 14.6215ZM25.1663 16.0683C25.6757 16.0683 25.9406 15.3143 25.8999 14.7437L25.8184 13.7859C25.6553 12.5225 25.207 12.1557 24.8198 12.1557C24.4123 12.1557 24.127 12.6244 24.127 13.3172C24.127 14.7845 24.4938 16.0683 25.1663 16.0683ZM38.5647 7.02027C39.767 7.02027 40.4802 7.9373 40.4802 9.16001C40.4802 10.3012 40.0727 11.3201 38.7277 11.3201C36.6491 11.3201 37.5661 9.28228 36.6083 9.28228C36.1804 9.28228 36.1192 9.91401 36.1192 10.5457V14.5603C36.1192 15.5589 37.2604 15.8645 37.2604 16.4963V16.5778C37.2604 16.8427 37.0566 17.0057 36.751 17.0057H31.8805C31.5748 17.0057 31.371 16.8427 31.371 16.5778V16.4963C31.371 15.8645 32.2066 15.5589 32.2066 14.5603V11.0756C32.2066 10.077 31.1673 9.97515 31.1673 9.34342V9.2619C31.1673 8.99698 31.3507 8.7932 31.6767 8.63017L34.9169 7.10178C35.4875 6.83686 35.6913 7.16292 35.6913 7.59086V9.0785C36.1192 7.75389 37.077 7.02027 38.5647 7.02027ZM45.8352 17.2095C42.5338 17.2095 40.5164 14.703 40.5164 12.1149C40.5164 8.89509 42.9414 7.04064 45.6925 7.02027C48.1379 6.99989 50.135 8.16146 50.135 10.1789C50.135 10.831 49.7071 11.5239 48.464 11.4628C46.1612 11.3201 46.3854 8.07995 45.1015 8.12071C44.4494 8.14108 44.0419 8.99698 44.0419 10.0567C44.0419 12.6447 45.2849 14.3769 47.2209 14.3769C48.301 14.3769 48.9327 13.8471 49.3403 13.3784C49.6256 13.0523 50.1554 13.1746 50.1554 13.6433C50.1554 15.4773 48.7493 17.2095 45.8352 17.2095ZM56.3666 17.2095C53.3913 17.2095 50.681 15.1717 50.681 12.1149C50.681 9.05812 53.3913 7.02027 56.3666 7.02027C59.3622 7.02027 62.0318 9.05812 62.0318 12.1149C62.0318 15.1717 59.3622 17.2095 56.3666 17.2095ZM56.8556 16.1091C57.6708 16.1091 57.7931 15.2532 57.7931 13.9693C57.7931 12.8893 57.1817 8.12071 55.6737 8.12071C54.8789 8.12071 54.7567 8.89509 54.7567 10.3012C54.7567 11.6054 55.368 16.1091 56.8556 16.1091ZM67.1829 17.1891C64.656 17.1891 62.6181 16.3332 62.6181 14.7845C62.6181 13.7656 63.3314 13.3376 64.228 13.3376C66.4901 13.3376 65.7768 16.211 67.1829 16.211C67.6109 16.211 67.9777 15.9868 67.9777 15.2736C67.9777 12.6244 62.7812 14.0916 62.7812 10.1993C62.7812 8.32449 64.5745 7.02027 67.2033 7.02027C69.8118 7.02027 71.5847 8.07995 71.5847 9.48607C71.5847 10.2604 70.8918 10.8718 70.0359 10.8718C67.8554 10.8718 68.5279 8.03919 67.4275 8.03919C66.9384 8.03919 66.7754 8.54865 66.7754 9.03774C66.7754 11.85 71.707 10.505 71.707 14.1324C71.707 15.8645 70.0971 17.1891 67.1829 17.1891ZM76.8369 17.0057C76.5313 17.0057 76.3275 16.8427 76.3275 16.5778V16.4963C76.3275 15.8645 77.163 15.5589 77.163 14.5603V4.98241C77.163 3.98387 76.3275 3.67819 76.3275 3.04646V2.96494C76.3275 2.70002 76.5313 2.53699 76.8369 2.53699H82.2576C86.0276 2.53699 88.7787 3.96349 88.7787 7.40746C88.7787 10.4439 86.4556 12.5021 82.9709 12.5021H81.4017V14.5603C81.4017 15.5589 82.3391 15.8645 82.3391 16.4963V16.5778C82.3391 16.8427 82.1353 17.0057 81.8297 17.0057H76.8369ZM82.4003 10.9329H82.9709C84.0102 10.9329 84.4177 9.64909 84.4177 8.38563C84.4177 5.79756 83.2358 4.10614 82.2576 4.10614H82.1965C81.687 4.10614 81.4017 4.49333 81.4017 5.16582V9.87326C81.4017 10.5457 81.6666 10.9329 82.4003 10.9329ZM92.1875 6.2255C90.6388 6.2255 89.5995 5.22696 89.5995 3.96349C89.5995 2.70002 90.6388 1.72185 92.1875 1.72185C93.7363 1.72185 94.7756 2.70002 94.7756 3.96349C94.7756 5.22696 93.7363 6.2255 92.1875 6.2255ZM89.7421 17.0057C89.4364 17.0057 89.2326 16.8427 89.2326 16.5778V16.4963C89.2326 15.8645 90.0682 15.5589 90.0682 14.5603V11.2794C90.0682 10.2808 89.2326 9.97515 89.2326 9.42493V9.34342C89.2326 9.09887 89.4364 8.9766 89.7421 8.83395L93.2268 7.12216C93.8382 6.81648 94.2254 7.18329 94.2254 7.59086V14.5603C94.2254 15.5589 95.1628 15.8645 95.1628 16.4963V16.5778C95.1628 16.8427 94.959 17.0057 94.6533 17.0057H89.7421ZM105.701 14.6215C105.905 16.1295 106.7 15.8034 106.7 16.3944C106.7 16.9854 105.355 17.128 104.152 17.128C102.848 17.128 102.237 16.8835 102.053 16.2314C101.625 16.7612 100.851 17.2095 99.5467 17.2095C97.3866 17.2095 95.6748 16.2314 95.6748 14.112C95.6748 12.0334 97.4274 10.9737 99.3226 10.9737C100.117 10.9737 100.769 11.1367 101.279 11.422C101.034 9.05812 101.014 8.07995 100.097 8.07995C98.8946 8.07995 99.5263 10.9126 97.5089 10.9126C96.5511 10.9126 95.899 10.3216 95.899 9.44531C95.899 7.63162 98.0591 7.02027 100.097 7.02027C102.889 7.02027 104.906 8.60979 105.232 11.096L105.701 14.6215ZM100.851 16.0683C101.36 16.0683 101.625 15.3143 101.585 14.7437L101.503 13.7859C101.34 12.5225 100.892 12.1557 100.505 12.1557C100.097 12.1557 99.8116 12.6244 99.8116 13.3172C99.8116 14.7845 100.178 16.0683 100.851 16.0683ZM118.366 14.5807C118.447 15.5792 119.099 15.8849 119.099 16.5167V16.5982C119.099 16.8631 118.896 17.0261 118.59 17.0261H114.086C113.781 17.0261 113.577 16.8631 113.577 16.5982V16.5167C113.577 15.8849 114.372 15.5792 114.31 14.5807L114.107 11.0552C114.005 9.16001 113.781 8.5079 112.986 8.5079C112.252 8.5079 111.987 9.20077 111.987 10.2604V14.5807C111.987 15.5792 112.925 15.8849 112.925 16.5167V16.5982C112.925 16.8631 112.721 17.0261 112.415 17.0261H107.504C107.198 17.0261 106.995 16.8631 106.995 16.5982V16.5167C106.995 15.8849 107.932 15.5792 107.932 14.5807V11.1367C107.932 10.1382 106.791 9.95477 106.791 9.32304V9.24152C106.791 8.9766 107.015 8.85433 107.321 8.6913L110.52 7.10178C111.07 6.81648 111.356 7.20367 111.356 7.63162V8.46714C111.885 7.52973 112.884 7.02027 114.209 7.02027C115.92 7.02027 117.836 7.91692 118.101 11.1979L118.366 14.5807ZM130.266 7.9373C130.266 8.83395 129.41 8.75244 128.758 8.9766C129.267 9.64909 129.655 10.4846 129.655 11.422C129.655 12.9504 128.839 14.1731 127.535 14.8864C129.369 15.2736 129.858 15.9868 129.858 16.965C129.858 18.5137 127.413 19.6142 124.377 19.6142C121.524 19.6142 119.547 18.9009 119.547 17.0669C119.547 16.3536 120.036 15.5589 121.116 15.5589C123.113 15.5589 122.909 18.5137 124.377 18.5545C125.294 18.5749 125.783 17.9228 125.783 16.9854C125.783 16.2517 125.62 15.7015 125.294 15.5181C125.049 15.5385 124.825 15.5589 124.58 15.5589C121.605 15.5589 119.486 13.9082 119.486 11.422C119.486 8.77282 121.605 7.02027 124.58 7.02027C125.844 7.02027 126.903 7.22405 128.534 7.22405C130.021 7.22405 130.266 7.40746 130.266 7.9373ZM123.296 9.5472C123.296 11.4832 124.152 14.438 125.131 14.438C125.599 14.438 125.844 13.9286 125.844 13.0115C125.844 11.5443 125.069 8.12071 124.01 8.12071C123.561 8.12071 123.296 8.58941 123.296 9.5472ZM139.142 13.7044C139.447 13.3987 139.936 13.5414 139.936 14.0101C139.936 15.1105 138.51 17.2095 135.8 17.2095C132.763 17.2095 130.685 15.1309 130.685 12.0538C130.685 8.99698 133.089 7.02027 135.738 7.02027C138.449 7.02027 139.672 8.5079 139.672 9.73061C139.672 10.2808 139.386 10.668 138.979 10.9329L135.29 13.3376C135.8 13.9897 136.492 14.3565 137.328 14.3565C138.041 14.3565 138.795 14.0509 139.142 13.7044ZM135.412 8.12071C134.74 8.12071 134.332 8.91547 134.332 9.77137C134.332 10.6884 134.455 11.5035 134.699 12.1964L136.003 11.2386C136.329 10.9941 136.533 10.5661 136.533 10.1178C136.533 9.5472 136.37 8.12071 135.412 8.12071ZM147.768 7.02027C148.97 7.02027 149.684 7.9373 149.684 9.16001C149.684 10.3012 149.276 11.3201 147.931 11.3201C145.852 11.3201 146.769 9.28228 145.812 9.28228C145.384 9.28228 145.323 9.91401 145.323 10.5457V14.5603C145.323 15.5589 146.464 15.8645 146.464 16.4963V16.5778C146.464 16.8427 146.26 17.0057 145.954 17.0057H141.084C140.778 17.0057 140.574 16.8427 140.574 16.5778V16.4963C140.574 15.8645 141.41 15.5589 141.41 14.5603V11.0756C141.41 10.077 140.371 9.97515 140.371 9.34342V9.2619C140.371 8.99698 140.554 8.7932 140.88 8.63017L144.12 7.10178C144.691 6.83686 144.895 7.16292 144.895 7.59086V9.0785C145.323 7.75389 146.28 7.02027 147.768 7.02027ZM154.366 17.1891C151.839 17.1891 149.801 16.3332 149.801 14.7845C149.801 13.7656 150.514 13.3376 151.411 13.3376C153.673 13.3376 152.959 16.211 154.366 16.211C154.794 16.211 155.16 15.9868 155.16 15.2736C155.16 12.6244 149.964 14.0916 149.964 10.1993C149.964 8.32449 151.757 7.02027 154.386 7.02027C156.994 7.02027 158.767 8.07995 158.767 9.48607C158.767 10.2604 158.074 10.8718 157.219 10.8718C155.038 10.8718 155.711 8.03919 154.61 8.03919C154.121 8.03919 153.958 8.54865 153.958 9.03774C153.958 11.85 158.89 10.505 158.89 14.1324C158.89 15.8645 157.28 17.1891 154.366 17.1891Z"/>
</mask>
<path d="M18.8798 14.5603C19.0632 15.5589 19.7153 15.8645 19.7153 16.4963V16.5778C19.7153 16.8427 19.5115 17.0057 19.2059 17.0057H14.4984C14.1928 17.0057 13.989 16.8427 13.989 16.5778V16.4963C13.989 15.8645 14.8856 15.5385 14.7226 14.5603L13.6425 8.30411L10.7895 16.3536C10.6469 16.7816 10.4431 16.9854 9.99478 16.9854C9.54645 16.9854 9.26115 16.802 9.07775 16.374L5.65416 7.89654L4.71675 14.5603C4.5741 15.5589 5.45037 15.8645 5.45037 16.4963V16.5778C5.45037 16.8427 5.24659 17.0057 4.94091 17.0057H2.23057C1.92489 17.0057 1.7211 16.8427 1.7211 16.5778V16.4963C1.7211 15.8645 2.41397 15.5589 2.55662 14.5603L4.0035 4.98241C4.14615 3.98387 3.16798 3.67819 3.16798 3.04646V2.96494C3.16798 2.70002 3.37176 2.53699 3.67744 2.53699H6.73422C7.30482 2.53699 7.71239 2.80191 7.89579 3.33176L10.5858 11.1979L13.1127 3.37251C13.2961 2.82229 13.6833 2.53699 14.2539 2.53699H17.3922C17.6979 2.53699 17.9016 2.70002 17.9016 2.96494V3.04646C17.9016 3.67819 16.8827 3.98387 17.0661 4.98241L18.8798 14.5603ZM30.0163 14.6215C30.2201 16.1295 31.0149 15.8034 31.0149 16.3944C31.0149 16.9854 29.6699 17.128 28.4676 17.128C27.1634 17.128 26.552 16.8835 26.3686 16.2314C25.9406 16.7612 25.1663 17.2095 23.862 17.2095C21.7019 17.2095 19.9901 16.2314 19.9901 14.112C19.9901 12.0334 21.7427 10.9737 23.6379 10.9737C24.4326 10.9737 25.0847 11.1367 25.5942 11.422C25.3497 9.05812 25.3293 8.07995 24.4123 8.07995C23.2099 8.07995 23.8417 10.9126 21.8242 10.9126C20.8664 10.9126 20.2143 10.3216 20.2143 9.44531C20.2143 7.63162 22.3744 7.02027 24.4123 7.02027C27.2041 7.02027 29.2216 8.60979 29.5476 11.096L30.0163 14.6215ZM25.1663 16.0683C25.6757 16.0683 25.9406 15.3143 25.8999 14.7437L25.8184 13.7859C25.6553 12.5225 25.207 12.1557 24.8198 12.1557C24.4123 12.1557 24.127 12.6244 24.127 13.3172C24.127 14.7845 24.4938 16.0683 25.1663 16.0683ZM38.5647 7.02027C39.767 7.02027 40.4802 7.9373 40.4802 9.16001C40.4802 10.3012 40.0727 11.3201 38.7277 11.3201C36.6491 11.3201 37.5661 9.28228 36.6083 9.28228C36.1804 9.28228 36.1192 9.91401 36.1192 10.5457V14.5603C36.1192 15.5589 37.2604 15.8645 37.2604 16.4963V16.5778C37.2604 16.8427 37.0566 17.0057 36.751 17.0057H31.8805C31.5748 17.0057 31.371 16.8427 31.371 16.5778V16.4963C31.371 15.8645 32.2066 15.5589 32.2066 14.5603V11.0756C32.2066 10.077 31.1673 9.97515 31.1673 9.34342V9.2619C31.1673 8.99698 31.3507 8.7932 31.6767 8.63017L34.9169 7.10178C35.4875 6.83686 35.6913 7.16292 35.6913 7.59086V9.0785C36.1192 7.75389 37.077 7.02027 38.5647 7.02027ZM45.8352 17.2095C42.5338 17.2095 40.5164 14.703 40.5164 12.1149C40.5164 8.89509 42.9414 7.04064 45.6925 7.02027C48.1379 6.99989 50.135 8.16146 50.135 10.1789C50.135 10.831 49.7071 11.5239 48.464 11.4628C46.1612 11.3201 46.3854 8.07995 45.1015 8.12071C44.4494 8.14108 44.0419 8.99698 44.0419 10.0567C44.0419 12.6447 45.2849 14.3769 47.2209 14.3769C48.301 14.3769 48.9327 13.8471 49.3403 13.3784C49.6256 13.0523 50.1554 13.1746 50.1554 13.6433C50.1554 15.4773 48.7493 17.2095 45.8352 17.2095ZM56.3666 17.2095C53.3913 17.2095 50.681 15.1717 50.681 12.1149C50.681 9.05812 53.3913 7.02027 56.3666 7.02027C59.3622 7.02027 62.0318 9.05812 62.0318 12.1149C62.0318 15.1717 59.3622 17.2095 56.3666 17.2095ZM56.8556 16.1091C57.6708 16.1091 57.7931 15.2532 57.7931 13.9693C57.7931 12.8893 57.1817 8.12071 55.6737 8.12071C54.8789 8.12071 54.7567 8.89509 54.7567 10.3012C54.7567 11.6054 55.368 16.1091 56.8556 16.1091ZM67.1829 17.1891C64.656 17.1891 62.6181 16.3332 62.6181 14.7845C62.6181 13.7656 63.3314 13.3376 64.228 13.3376C66.4901 13.3376 65.7768 16.211 67.1829 16.211C67.6109 16.211 67.9777 15.9868 67.9777 15.2736C67.9777 12.6244 62.7812 14.0916 62.7812 10.1993C62.7812 8.32449 64.5745 7.02027 67.2033 7.02027C69.8118 7.02027 71.5847 8.07995 71.5847 9.48607C71.5847 10.2604 70.8918 10.8718 70.0359 10.8718C67.8554 10.8718 68.5279 8.03919 67.4275 8.03919C66.9384 8.03919 66.7754 8.54865 66.7754 9.03774C66.7754 11.85 71.707 10.505 71.707 14.1324C71.707 15.8645 70.0971 17.1891 67.1829 17.1891ZM76.8369 17.0057C76.5313 17.0057 76.3275 16.8427 76.3275 16.5778V16.4963C76.3275 15.8645 77.163 15.5589 77.163 14.5603V4.98241C77.163 3.98387 76.3275 3.67819 76.3275 3.04646V2.96494C76.3275 2.70002 76.5313 2.53699 76.8369 2.53699H82.2576C86.0276 2.53699 88.7787 3.96349 88.7787 7.40746C88.7787 10.4439 86.4556 12.5021 82.9709 12.5021H81.4017V14.5603C81.4017 15.5589 82.3391 15.8645 82.3391 16.4963V16.5778C82.3391 16.8427 82.1353 17.0057 81.8297 17.0057H76.8369ZM82.4003 10.9329H82.9709C84.0102 10.9329 84.4177 9.64909 84.4177 8.38563C84.4177 5.79756 83.2358 4.10614 82.2576 4.10614H82.1965C81.687 4.10614 81.4017 4.49333 81.4017 5.16582V9.87326C81.4017 10.5457 81.6666 10.9329 82.4003 10.9329ZM92.1875 6.2255C90.6388 6.2255 89.5995 5.22696 89.5995 3.96349C89.5995 2.70002 90.6388 1.72185 92.1875 1.72185C93.7363 1.72185 94.7756 2.70002 94.7756 3.96349C94.7756 5.22696 93.7363 6.2255 92.1875 6.2255ZM89.7421 17.0057C89.4364 17.0057 89.2326 16.8427 89.2326 16.5778V16.4963C89.2326 15.8645 90.0682 15.5589 90.0682 14.5603V11.2794C90.0682 10.2808 89.2326 9.97515 89.2326 9.42493V9.34342C89.2326 9.09887 89.4364 8.9766 89.7421 8.83395L93.2268 7.12216C93.8382 6.81648 94.2254 7.18329 94.2254 7.59086V14.5603C94.2254 15.5589 95.1628 15.8645 95.1628 16.4963V16.5778C95.1628 16.8427 94.959 17.0057 94.6533 17.0057H89.7421ZM105.701 14.6215C105.905 16.1295 106.7 15.8034 106.7 16.3944C106.7 16.9854 105.355 17.128 104.152 17.128C102.848 17.128 102.237 16.8835 102.053 16.2314C101.625 16.7612 100.851 17.2095 99.5467 17.2095C97.3866 17.2095 95.6748 16.2314 95.6748 14.112C95.6748 12.0334 97.4274 10.9737 99.3226 10.9737C100.117 10.9737 100.769 11.1367 101.279 11.422C101.034 9.05812 101.014 8.07995 100.097 8.07995C98.8946 8.07995 99.5263 10.9126 97.5089 10.9126C96.5511 10.9126 95.899 10.3216 95.899 9.44531C95.899 7.63162 98.0591 7.02027 100.097 7.02027C102.889 7.02027 104.906 8.60979 105.232 11.096L105.701 14.6215ZM100.851 16.0683C101.36 16.0683 101.625 15.3143 101.585 14.7437L101.503 13.7859C101.34 12.5225 100.892 12.1557 100.505 12.1557C100.097 12.1557 99.8116 12.6244 99.8116 13.3172C99.8116 14.7845 100.178 16.0683 100.851 16.0683ZM118.366 14.5807C118.447 15.5792 119.099 15.8849 119.099 16.5167V16.5982C119.099 16.8631 118.896 17.0261 118.59 17.0261H114.086C113.781 17.0261 113.577 16.8631 113.577 16.5982V16.5167C113.577 15.8849 114.372 15.5792 114.31 14.5807L114.107 11.0552C114.005 9.16001 113.781 8.5079 112.986 8.5079C112.252 8.5079 111.987 9.20077 111.987 10.2604V14.5807C111.987 15.5792 112.925 15.8849 112.925 16.5167V16.5982C112.925 16.8631 112.721 17.0261 112.415 17.0261H107.504C107.198 17.0261 106.995 16.8631 106.995 16.5982V16.5167C106.995 15.8849 107.932 15.5792 107.932 14.5807V11.1367C107.932 10.1382 106.791 9.95477 106.791 9.32304V9.24152C106.791 8.9766 107.015 8.85433 107.321 8.6913L110.52 7.10178C111.07 6.81648 111.356 7.20367 111.356 7.63162V8.46714C111.885 7.52973 112.884 7.02027 114.209 7.02027C115.92 7.02027 117.836 7.91692 118.101 11.1979L118.366 14.5807ZM130.266 7.9373C130.266 8.83395 129.41 8.75244 128.758 8.9766C129.267 9.64909 129.655 10.4846 129.655 11.422C129.655 12.9504 128.839 14.1731 127.535 14.8864C129.369 15.2736 129.858 15.9868 129.858 16.965C129.858 18.5137 127.413 19.6142 124.377 19.6142C121.524 19.6142 119.547 18.9009 119.547 17.0669C119.547 16.3536 120.036 15.5589 121.116 15.5589C123.113 15.5589 122.909 18.5137 124.377 18.5545C125.294 18.5749 125.783 17.9228 125.783 16.9854C125.783 16.2517 125.62 15.7015 125.294 15.5181C125.049 15.5385 124.825 15.5589 124.58 15.5589C121.605 15.5589 119.486 13.9082 119.486 11.422C119.486 8.77282 121.605 7.02027 124.58 7.02027C125.844 7.02027 126.903 7.22405 128.534 7.22405C130.021 7.22405 130.266 7.40746 130.266 7.9373ZM123.296 9.5472C123.296 11.4832 124.152 14.438 125.131 14.438C125.599 14.438 125.844 13.9286 125.844 13.0115C125.844 11.5443 125.069 8.12071 124.01 8.12071C123.561 8.12071 123.296 8.58941 123.296 9.5472ZM139.142 13.7044C139.447 13.3987 139.936 13.5414 139.936 14.0101C139.936 15.1105 138.51 17.2095 135.8 17.2095C132.763 17.2095 130.685 15.1309 130.685 12.0538C130.685 8.99698 133.089 7.02027 135.738 7.02027C138.449 7.02027 139.672 8.5079 139.672 9.73061C139.672 10.2808 139.386 10.668 138.979 10.9329L135.29 13.3376C135.8 13.9897 136.492 14.3565 137.328 14.3565C138.041 14.3565 138.795 14.0509 139.142 13.7044ZM135.412 8.12071C134.74 8.12071 134.332 8.91547 134.332 9.77137C134.332 10.6884 134.455 11.5035 134.699 12.1964L136.003 11.2386C136.329 10.9941 136.533 10.5661 136.533 10.1178C136.533 9.5472 136.37 8.12071 135.412 8.12071ZM147.768 7.02027C148.97 7.02027 149.684 7.9373 149.684 9.16001C149.684 10.3012 149.276 11.3201 147.931 11.3201C145.852 11.3201 146.769 9.28228 145.812 9.28228C145.384 9.28228 145.323 9.91401 145.323 10.5457V14.5603C145.323 15.5589 146.464 15.8645 146.464 16.4963V16.5778C146.464 16.8427 146.26 17.0057 145.954 17.0057H141.084C140.778 17.0057 140.574 16.8427 140.574 16.5778V16.4963C140.574 15.8645 141.41 15.5589 141.41 14.5603V11.0756C141.41 10.077 140.371 9.97515 140.371 9.34342V9.2619C140.371 8.99698 140.554 8.7932 140.88 8.63017L144.12 7.10178C144.691 6.83686 144.895 7.16292 144.895 7.59086V9.0785C145.323 7.75389 146.28 7.02027 147.768 7.02027ZM154.366 17.1891C151.839 17.1891 149.801 16.3332 149.801 14.7845C149.801 13.7656 150.514 13.3376 151.411 13.3376C153.673 13.3376 152.959 16.211 154.366 16.211C154.794 16.211 155.16 15.9868 155.16 15.2736C155.16 12.6244 149.964 14.0916 149.964 10.1993C149.964 8.32449 151.757 7.02027 154.386 7.02027C156.994 7.02027 158.767 8.07995 158.767 9.48607C158.767 10.2604 158.074 10.8718 157.219 10.8718C155.038 10.8718 155.711 8.03919 154.61 8.03919C154.121 8.03919 153.958 8.54865 153.958 9.03774C153.958 11.85 158.89 10.505 158.89 14.1324C158.89 15.8645 157.28 17.1891 154.366 17.1891Z" fill="#2260A1"/>
<path d="M18.8798 14.5603L20.5733 14.2493L20.5716 14.24L18.8798 14.5603ZM14.7226 14.5603L16.421 14.2772L16.4193 14.2674L14.7226 14.5603ZM13.6425 8.30411L15.3393 8.01119L14.2192 1.52306L12.0196 7.7289L13.6425 8.30411ZM10.7895 16.3536L9.16663 15.7784L9.16121 15.7937L9.15607 15.8091L10.7895 16.3536ZM9.07775 16.374L7.48119 17.0188L7.48799 17.0356L7.49514 17.0523L9.07775 16.374ZM5.65416 7.89654L7.25071 7.25178L4.8443 1.29306L3.94911 7.65669L5.65416 7.89654ZM4.71675 14.5603L6.42128 14.8038L6.42179 14.8002L4.71675 14.5603ZM2.55662 14.5603L0.854054 14.3031L0.852098 14.3168L2.55662 14.5603ZM4.0035 4.98242L5.70607 5.23961L5.70802 5.22592L4.0035 4.98242ZM7.89579 3.33176L9.52501 2.77462L9.5229 2.76853L7.89579 3.33176ZM10.5858 11.1979L8.95655 11.755L10.6326 16.6561L12.2243 11.727L10.5858 11.1979ZM13.1127 3.37251L11.4792 2.82802L11.4767 2.8357L11.4742 2.84341L13.1127 3.37251ZM17.0661 4.98242L15.3726 5.29347L15.3744 5.30277L17.0661 4.98242ZM18.8798 14.5603L17.1863 14.8714C17.3442 15.7309 17.7204 16.2995 17.9317 16.6179C18.1883 17.0046 17.9935 16.7943 17.9935 16.4963H19.7153H21.4372C21.4372 15.5665 20.9163 14.8875 20.801 14.7138C20.6404 14.4718 20.5989 14.3883 20.5733 14.2493L18.8798 14.5603ZM19.7153 16.4963H17.9935V16.5778H19.7153H21.4372V16.4963H19.7153ZM19.7153 16.5778H17.9935C17.9935 16.2305 18.1464 15.839 18.4767 15.5653C18.772 15.3206 19.0681 15.2839 19.2059 15.2839V17.0057V18.7276C19.6493 18.7276 20.2001 18.6094 20.6738 18.217C21.1824 17.7955 21.4372 17.19 21.4372 16.5778H19.7153ZM19.2059 17.0057V15.2839H14.4984V17.0057V18.7276H19.2059V17.0057ZM14.4984 17.0057V15.2839C14.6362 15.2839 14.9323 15.3206 15.2276 15.5653C15.5579 15.839 15.7108 16.2305 15.7108 16.5778H13.989H12.2671C12.2671 17.19 12.5219 17.7955 13.0305 18.217C13.5042 18.6094 14.055 18.7276 14.4984 18.7276V17.0057ZM13.989 16.5778H15.7108V16.4963H13.989H12.2671V16.5778H13.989ZM13.989 16.4963H15.7108C15.7108 16.771 15.6061 16.9456 15.5996 16.9563C15.5984 16.9584 15.6076 16.943 15.6483 16.888C15.6696 16.8593 15.7582 16.742 15.8138 16.6649C15.9498 16.4761 16.1622 16.1622 16.3052 15.746C16.4571 15.3038 16.5099 14.8107 16.421 14.2772L14.7226 14.5603L13.0242 14.8434C13.0168 14.799 13.0187 14.7135 13.0483 14.6273C13.069 14.567 13.0878 14.5575 13.0201 14.6515C12.9737 14.7158 12.9579 14.7344 12.8799 14.84C12.8212 14.9193 12.7362 15.0366 12.6535 15.1733C12.484 15.4534 12.2671 15.9056 12.2671 16.4963H13.989ZM14.7226 14.5603L16.4193 14.2674L15.3393 8.01119L13.6425 8.30411L11.9458 8.59703L13.0259 14.8532L14.7226 14.5603ZM13.6425 8.30411L12.0196 7.7289L9.16663 15.7784L10.7895 16.3536L12.4125 16.9288L15.2654 8.87932L13.6425 8.30411ZM10.7895 16.3536L9.15607 15.8091C9.12579 15.9 9.16903 15.7043 9.40185 15.5094C9.67682 15.2794 9.95025 15.2635 9.99478 15.2635V16.9854V18.7072C10.4876 18.7072 11.0871 18.5895 11.6117 18.1505C12.0942 17.7468 12.3106 17.2352 12.423 16.8981L10.7895 16.3536ZM9.99478 16.9854V15.2635C10.0066 15.2635 10.1807 15.2678 10.3864 15.4038C10.5911 15.5391 10.6598 15.6943 10.6604 15.6957L9.07775 16.374L7.49514 17.0523C7.67914 17.4816 7.98215 17.9425 8.48744 18.2765C8.9937 18.6112 9.53468 18.7072 9.99478 18.7072V16.9854ZM9.07775 16.374L10.6743 15.7292L7.25071 7.25178L5.65416 7.89654L4.0576 8.5413L7.48119 17.0188L9.07775 16.374ZM5.65416 7.89654L3.94911 7.65669L3.0117 14.3205L4.71675 14.5603L6.42179 14.8002L7.3592 8.1364L5.65416 7.89654ZM4.71675 14.5603L3.01222 14.3168C2.93719 14.842 2.99376 15.3252 3.1445 15.7597C3.28734 16.1713 3.49584 16.4813 3.63154 16.6702C3.68556 16.7455 3.77481 16.8641 3.79424 16.8905C3.8338 16.9442 3.84184 16.9579 3.83954 16.9541C3.82922 16.9369 3.72854 16.7639 3.72854 16.4963H5.45037H7.1722C7.1722 15.9128 6.96199 15.4647 6.79183 15.1813C6.7096 15.0444 6.62514 14.9272 6.56704 14.8483C6.48879 14.7421 6.47519 14.7263 6.4286 14.6615C6.36305 14.5702 6.37924 14.5771 6.39789 14.6308C6.42445 14.7074 6.42498 14.7779 6.42127 14.8038L4.71675 14.5603ZM5.45037 16.4963H3.72854V16.5778H5.45037H7.1722V16.4963H5.45037ZM5.45037 16.5778H3.72854C3.72854 16.2305 3.88139 15.839 4.21171 15.5653C4.50704 15.3206 4.80319 15.2839 4.94091 15.2839V17.0057V18.7276C5.38431 18.7276 5.93519 18.6094 6.40883 18.217C6.91746 17.7955 7.1722 17.19 7.1722 16.5778H5.45037ZM4.94091 17.0057V15.2839H2.23057V17.0057V18.7276H4.94091V17.0057ZM2.23057 17.0057V15.2839C2.36829 15.2839 2.66444 15.3206 2.95977 15.5653C3.29008 15.839 3.44294 16.2305 3.44294 16.5778H1.7211H-0.000726461C-0.000726461 17.19 0.254019 17.7955 0.762648 18.217C1.23629 18.6094 1.78717 18.7276 2.23057 18.7276V17.0057ZM1.7211 16.5778H3.44294V16.4963H1.7211H-0.000726461V16.5778H1.7211ZM1.7211 16.4963H3.44294C3.44294 16.6773 3.38723 16.8069 3.36869 16.8436C3.36326 16.8544 3.36619 16.8467 3.39147 16.8078C3.42088 16.7626 3.44872 16.7228 3.50799 16.6358C3.7346 16.3035 4.13204 15.7076 4.26115 14.8038L2.55662 14.5603L0.852098 14.3168C0.838562 14.4116 0.818239 14.4678 0.662747 14.6959C0.565373 14.8387 -0.000726461 15.542 -0.000726461 16.4963H1.7211ZM2.55662 14.5603L4.25914 14.8175L5.70601 5.2396L4.0035 4.98242L2.30098 4.72523L0.854109 14.3031L2.55662 14.5603ZM4.0035 4.98242L5.70802 5.22592C5.78783 4.66725 5.71145 4.15674 5.53161 3.70753C5.36355 3.28775 5.12585 2.97684 4.9778 2.79386C4.92074 2.72334 4.81597 2.59918 4.79713 2.57638C4.75284 2.5228 4.74415 2.50937 4.74755 2.51443C4.75761 2.5294 4.88981 2.72865 4.88981 3.04646H3.16798H1.44615C1.44615 3.68013 1.70062 4.15449 1.88963 4.43566C1.9825 4.57381 2.07745 4.69125 2.14278 4.77029C2.23355 4.88011 2.24437 4.89032 2.30066 4.9599C2.37932 5.05712 2.35942 5.04934 2.33464 4.98746C2.29809 4.89615 2.29049 4.79831 2.29897 4.73891L4.0035 4.98242ZM3.16798 3.04646H4.88981V2.96494H3.16798H1.44615V3.04646H3.16798ZM3.16798 2.96494H4.88981C4.88981 3.31225 4.73696 3.70378 4.40664 3.97747C4.11131 4.22217 3.81516 4.25882 3.67744 4.25882V2.53699V0.815163C3.23404 0.815163 2.68316 0.933332 2.20952 1.32578C1.70089 1.74721 1.44615 2.35272 1.44615 2.96494H3.16798ZM3.67744 2.53699V4.25882H6.73422V2.53699V0.815163H3.67744V2.53699ZM6.73422 2.53699V4.25882C6.75298 4.25882 6.64271 4.2613 6.49657 4.16261C6.34151 4.05789 6.28099 3.93052 6.26869 3.89499L7.89579 3.33176L9.5229 2.76853C9.32719 2.20315 8.97118 1.67839 8.42384 1.30876C7.88541 0.945147 7.28606 0.815163 6.73422 0.815163V2.53699ZM7.89579 3.33176L6.26659 3.88889L8.95655 11.755L10.5858 11.1979L12.215 10.6407L9.525 2.77462L7.89579 3.33176ZM10.5858 11.1979L12.2243 11.727L14.7512 3.90162L13.1127 3.37251L11.4742 2.84341L8.94724 10.6688L10.5858 11.1979ZM13.1127 3.37251L14.7462 3.917C14.7502 3.90488 14.7108 4.02366 14.5563 4.13691C14.3988 4.25244 14.2627 4.25882 14.2539 4.25882V2.53699V0.815163C13.6744 0.815163 13.0595 0.964199 12.5199 1.35993C11.9833 1.75338 11.6586 2.28992 11.4792 2.82802L13.1127 3.37251ZM14.2539 2.53699V4.25882H17.3922V2.53699V0.815163H14.2539V2.53699ZM17.3922 2.53699V4.25882C17.2545 4.25882 16.9583 4.22217 16.663 3.97747C16.3327 3.70378 16.1798 3.31225 16.1798 2.96494H17.9016H19.6235C19.6235 2.35272 19.3687 1.74721 18.8601 1.32578C18.3865 0.933332 17.8356 0.815163 17.3922 0.815163V2.53699ZM17.9016 2.96494H16.1798V3.04646H17.9016H19.6235V2.96494H17.9016ZM17.9016 3.04646H16.1798C16.1798 2.7095 16.3251 2.5015 16.3322 2.49127C16.3349 2.48732 16.3252 2.50159 16.2781 2.55687C16.252 2.58748 16.1537 2.70039 16.0884 2.77934C15.9347 2.96514 15.6852 3.28551 15.515 3.72232C15.3316 4.19287 15.2679 4.72309 15.3726 5.29347L17.0661 4.98242L18.7596 4.67136C18.7727 4.74247 18.7675 4.86002 18.7236 4.97267C18.6929 5.05159 18.6637 5.06882 18.7418 4.97442C18.7924 4.91326 18.8128 4.89181 18.8997 4.7898C18.9656 4.71246 19.063 4.59586 19.1584 4.45881C19.3509 4.18239 19.6235 3.69928 19.6235 3.04646H17.9016ZM17.0661 4.98242L15.3744 5.30277L17.188 14.8807L18.8798 14.5603L20.5716 14.24L18.7579 4.66206L17.0661 4.98242ZM30.0163 14.6215L28.3095 14.8484L28.31 14.852L30.0163 14.6215ZM26.3686 16.2314L28.0261 15.7652L27.1236 12.5563L25.0291 15.1495L26.3686 16.2314ZM25.5942 11.422L24.7529 12.9243L27.6484 14.5458L27.3069 11.2449L25.5942 11.422ZM29.5476 11.096L27.8404 11.3199L27.8408 11.3229L29.5476 11.096ZM25.8999 14.7437L27.6173 14.621L27.6165 14.6094L27.6155 14.5977L25.8999 14.7437ZM25.8184 13.7859L27.534 13.6399L27.5308 13.6027L27.5261 13.5656L25.8184 13.7859ZM30.0163 14.6215L28.31 14.852C28.3816 15.3817 28.5189 15.8549 28.7439 16.2707C28.9792 16.7058 29.2645 16.9931 29.5109 17.1919C29.6128 17.2741 29.7209 17.3501 29.7438 17.3667C29.7925 17.4018 29.7446 17.3708 29.6827 17.3102C29.6052 17.2343 29.4898 17.0991 29.4029 16.9005C29.3156 16.701 29.2931 16.5199 29.2931 16.3944H31.0149H32.7367C32.7367 16.1211 32.6894 15.8209 32.5578 15.5203C32.4267 15.2205 32.2475 15.002 32.0924 14.8501C31.9527 14.7133 31.8132 14.6134 31.7615 14.576C31.7193 14.5455 31.7151 14.5428 31.6921 14.5259C31.6851 14.5208 31.6805 14.5173 31.6773 14.5149C31.6743 14.5126 31.6731 14.5116 31.6732 14.5117C31.6954 14.5296 31.7438 14.5788 31.7728 14.6324C31.7914 14.6668 31.753 14.6152 31.7227 14.3909L30.0163 14.6215ZM31.0149 16.3944H29.2931C29.2931 16.1202 29.3769 15.8645 29.5092 15.6601C29.6307 15.4724 29.765 15.3695 29.8316 15.3252C29.9432 15.2508 29.9752 15.2667 29.8139 15.303C29.5168 15.3699 29.0329 15.4062 28.4676 15.4062V17.128V18.8498C29.1046 18.8498 29.8943 18.8148 30.5703 18.6626C30.8956 18.5894 31.3389 18.4588 31.7403 18.1915C32.1717 17.9042 32.7367 17.3167 32.7367 16.3944H31.0149ZM28.4676 17.128V15.4062C28.1903 15.4062 27.9898 15.3929 27.8471 15.3735C27.702 15.3537 27.6548 15.3326 27.666 15.3373C27.6862 15.3459 27.7743 15.3884 27.8686 15.4928C27.9654 15.5999 28.0098 15.7072 28.0261 15.7652L26.3686 16.2314L24.7111 16.6975C24.9523 17.5553 25.534 18.1761 26.3296 18.5111C26.9963 18.7918 27.76 18.8498 28.4676 18.8498V17.128ZM26.3686 16.2314L25.0291 15.1495C24.99 15.1979 24.9136 15.2722 24.7574 15.3401C24.5967 15.41 24.3165 15.4877 23.862 15.4877V17.2095V18.9314C25.5927 18.9314 26.8985 18.3156 27.7081 17.3132L26.3686 16.2314ZM23.862 17.2095V15.4877C23.0097 15.4877 22.4401 15.2903 22.1312 15.0648C21.8934 14.8912 21.712 14.6421 21.712 14.112H19.9901H18.2683C18.2683 15.7013 18.9427 17.0009 20.1009 17.8463C21.1879 18.6397 22.5543 18.9314 23.862 18.9314V17.2095ZM19.9901 14.112H21.712C21.712 13.6162 21.895 13.3288 22.16 13.1228C22.4719 12.8803 22.9879 12.6955 23.6379 12.6955V10.9737V9.25187C22.3927 9.25187 21.0847 9.59692 20.0466 10.404C18.9615 11.2474 18.2683 12.5292 18.2683 14.112H19.9901ZM23.6379 10.9737V12.6955C24.2003 12.6955 24.5498 12.8106 24.7529 12.9243L25.5942 11.422L26.4355 9.91972C25.6197 9.46286 24.665 9.25187 23.6379 9.25187V10.9737ZM25.5942 11.422L27.3069 11.2449C27.1975 10.1871 27.1155 9.12626 26.9142 8.40288C26.8059 8.01364 26.602 7.46712 26.1387 7.02456C25.613 6.52248 24.976 6.35812 24.4123 6.35812V8.07995V9.80178C24.307 9.80178 24.0165 9.75968 23.7602 9.51489C23.5662 9.3296 23.5547 9.17537 23.5966 9.32617C23.6344 9.46193 23.6766 9.69581 23.7256 10.1066C23.7742 10.5132 23.8177 10.9824 23.8815 11.5992L25.5942 11.422ZM24.4123 8.07995V6.35812C23.8901 6.35812 23.401 6.52303 22.9956 6.83169C22.6239 7.11465 22.3998 7.4593 22.2645 7.71341C22.0384 8.13806 21.8585 8.75427 21.7964 8.93423C21.6832 9.2621 21.6277 9.32136 21.641 9.3069C21.7314 9.20819 21.857 9.19073 21.8242 9.19073V10.9126V12.6344C22.8001 12.6344 23.6033 12.2629 24.1803 11.633C24.68 11.0875 24.9201 10.4386 25.0514 10.0583C25.0873 9.95428 25.1205 9.85271 25.1486 9.76698C25.1781 9.67657 25.2017 9.6045 25.225 9.53683C25.2479 9.47033 25.266 9.42153 25.2811 9.38431C25.2884 9.36631 25.2941 9.35314 25.2983 9.34398C25.3025 9.33479 25.3046 9.33104 25.3042 9.33168C25.3039 9.33231 25.3004 9.33884 25.2934 9.34992C25.2863 9.36101 25.2748 9.37809 25.2583 9.39934C25.2254 9.44156 25.1684 9.50559 25.0816 9.57163C24.8797 9.72539 24.6339 9.80178 24.4123 9.80178V8.07995ZM21.8242 10.9126V9.19073C21.6974 9.19073 21.7322 9.15519 21.8189 9.23401C21.8598 9.27128 21.8938 9.31919 21.9152 9.36939C21.9362 9.41873 21.9361 9.44884 21.9361 9.44531H20.2143H18.4925C18.4925 10.3338 18.8352 11.175 19.5013 11.7811C20.1534 12.3744 20.9932 12.6344 21.8242 12.6344V10.9126ZM20.2143 9.44531H21.9361C21.9361 9.35992 21.953 9.34518 21.9609 9.33457C21.9853 9.30211 22.0699 9.21202 22.2911 9.1064C22.7607 8.88213 23.5212 8.7421 24.4123 8.7421V7.02027V5.29844C23.2655 5.29844 21.927 5.46408 20.8071 5.99891C19.6246 6.5636 18.4925 7.66946 18.4925 9.44531H20.2143ZM24.4123 7.02027V8.7421C26.4978 8.7421 27.6462 9.83875 27.8404 11.3199L29.5476 11.096L31.2549 10.8721C30.797 7.38084 27.9104 5.29844 24.4123 5.29844V7.02027ZM29.5476 11.096L27.8408 11.3229L28.3095 14.8484L30.0163 14.6215L31.7232 14.3945L31.2545 10.8691L29.5476 11.096ZM25.1663 16.0683V17.7902C26.4017 17.7902 27.0503 16.8677 27.2914 16.3656C27.5569 15.813 27.6572 15.1791 27.6173 14.621L25.8999 14.7437L24.1824 14.8664C24.1817 14.8562 24.183 14.8667 24.1793 14.8875C24.1754 14.9092 24.1728 14.9049 24.1874 14.8744C24.1986 14.8511 24.2549 14.7388 24.4014 14.617C24.5679 14.4787 24.8349 14.3465 25.1663 14.3465V16.0683ZM25.8999 14.7437L27.6155 14.5977L27.534 13.6399L25.8184 13.7859L24.1027 13.9319L24.1843 14.8897L25.8999 14.7437ZM25.8184 13.7859L27.5261 13.5656C27.426 12.7904 27.2148 12.0628 26.7975 11.4868C26.3368 10.8509 25.6364 10.4338 24.8198 10.4338V12.1557V13.8775C24.6362 13.8775 24.4518 13.8317 24.2904 13.7436C24.133 13.6575 24.0453 13.5576 24.0088 13.5072C23.9751 13.4607 23.9867 13.4596 24.0153 13.5449C24.0435 13.629 24.081 13.7759 24.1107 14.0063L25.8184 13.7859ZM24.8198 12.1557V10.4338C23.8561 10.4338 23.1885 11.0168 22.8441 11.5907C22.5157 12.1381 22.4051 12.7612 22.4051 13.3172H24.127H25.8488C25.8488 13.1804 25.8809 13.2227 25.797 13.3625C25.7506 13.4398 25.654 13.5687 25.4795 13.6824C25.2946 13.8029 25.0641 13.8775 24.8198 13.8775V12.1557ZM24.127 13.3172H22.4051C22.4051 14.1647 22.5076 15.061 22.7685 15.8096C22.8972 16.1791 23.1011 16.6197 23.4403 16.9966C23.8015 17.398 24.3849 17.7902 25.1663 17.7902V16.0683V14.3465C25.6114 14.3465 25.8967 14.5782 26 14.693C26.0814 14.7834 26.0674 14.8113 26.0204 14.6764C25.9297 14.4163 25.8488 13.937 25.8488 13.3172H24.127ZM31.6767 8.63017L30.9422 7.07289L30.9243 7.0813L30.9067 7.09012L31.6767 8.63017ZM34.9169 7.10178L34.1918 5.54003L34.1823 5.5445L34.9169 7.10178ZM35.6913 9.0785H33.9695L37.3297 9.60784L35.6913 9.0785ZM38.5647 7.02027V8.7421C38.6053 8.7421 38.6323 8.74594 38.6479 8.74911C38.6633 8.75226 38.67 8.75526 38.6707 8.75556C38.6713 8.75584 38.6697 8.75509 38.6673 8.75335C38.6651 8.75168 38.6653 8.75138 38.6679 8.75432C38.6753 8.763 38.7584 8.87227 38.7584 9.16001H40.4802H42.2021C42.2021 8.22504 41.9285 7.26444 41.2788 6.50892C40.6047 5.72512 39.6386 5.29844 38.5647 5.29844V7.02027ZM40.4802 9.16001H38.7584C38.7584 9.34784 38.7412 9.49082 38.718 9.59089C38.6947 9.69146 38.673 9.71669 38.6842 9.70032C38.7023 9.67363 38.7443 9.63028 38.8006 9.60218C38.8511 9.57702 38.8448 9.5983 38.7277 9.5983V11.3201V13.042C39.9055 13.042 40.9071 12.5562 41.5325 11.6357C42.0812 10.8281 42.2021 9.88545 42.2021 9.16001H40.4802ZM38.7277 11.3201V9.5983C38.4932 9.5983 38.6032 9.54622 38.7795 9.69839C38.9292 9.82759 38.9396 9.95106 38.8992 9.81402C38.8759 9.73514 38.8636 9.67693 38.8231 9.51314C38.7928 9.39079 38.7352 9.16096 38.6359 8.92722C38.5343 8.68822 38.3387 8.3202 37.9554 8.01792C37.5391 7.68953 37.0579 7.56045 36.6083 7.56045V9.28228V11.0041C36.3982 11.0041 36.0979 10.9387 35.8228 10.7218C35.5809 10.5309 35.487 10.3221 35.4666 10.2742C35.4484 10.2315 35.4516 10.2245 35.4804 10.341C35.499 10.416 35.5443 10.6125 35.5962 10.7884C35.7061 11.1608 35.9369 11.7937 36.5291 12.305C37.148 12.8393 37.9228 13.042 38.7277 13.042V11.3201ZM36.6083 9.28228V7.56045C36.0179 7.56045 35.4874 7.80199 35.1055 8.20239C34.7735 8.55038 34.6236 8.94263 34.5497 9.19705C34.406 9.69219 34.3974 10.228 34.3974 10.5457H36.1192H37.8411C37.8411 10.4113 37.8445 10.3065 37.8513 10.2257C37.8586 10.1384 37.8664 10.1244 37.8568 10.1572C37.8518 10.1747 37.7974 10.3695 37.5972 10.5793C37.4881 10.6937 37.3396 10.8078 37.1502 10.8901C36.9599 10.9727 36.7721 11.0041 36.6083 11.0041V9.28228ZM36.1192 10.5457H34.3974V14.5603H36.1192H37.8411V10.5457H36.1192ZM36.1192 14.5603H34.3974C34.3974 15.8137 35.1615 16.5782 35.4833 16.8943C35.6186 17.0271 35.5947 17.0005 35.6869 17.092C35.737 17.1417 35.7465 17.1544 35.7401 17.1464C35.731 17.1351 35.5386 16.897 35.5386 16.4963H37.2604H38.9823C38.9823 15.7797 38.6472 15.2665 38.4241 14.9889C38.233 14.7511 37.9583 14.4982 37.8963 14.4374C37.6475 14.193 37.8411 14.3055 37.8411 14.5603H36.1192ZM37.2604 16.4963H35.5386V16.5778H37.2604H38.9823V16.4963H37.2604ZM37.2604 16.5778H35.5386C35.5386 16.2305 35.6915 15.839 36.0218 15.5653C36.3171 15.3206 36.6132 15.2839 36.751 15.2839V17.0057V18.7276C37.1944 18.7276 37.7453 18.6094 38.2189 18.217C38.7275 17.7955 38.9823 17.19 38.9823 16.5778H37.2604ZM36.751 17.0057V15.2839H31.8805V17.0057V18.7276H36.751V17.0057ZM31.8805 17.0057V15.2839C32.0182 15.2839 32.3144 15.3206 32.6097 15.5653C32.94 15.839 33.0929 16.2305 33.0929 16.5778H31.371H29.6492C29.6492 17.19 29.904 17.7955 30.4126 18.217C30.8862 18.6094 31.4371 18.7276 31.8805 18.7276V17.0057ZM31.371 16.5778H33.0929V16.4963H31.371H29.6492V16.5778H31.371ZM31.371 16.4963H33.0929C33.0929 16.7462 33.0023 16.9124 32.9855 16.941C32.9805 16.9495 32.986 16.939 33.0206 16.8921C33.0901 16.798 33.0655 16.8342 33.1693 16.6949C33.448 16.321 33.9284 15.6223 33.9284 14.5603H32.2066H30.4847C30.4847 14.5633 30.4846 14.5547 30.4881 14.5387C30.4915 14.5229 30.4961 14.5106 30.4987 14.5048C30.5005 14.5007 30.4906 14.5264 30.4083 14.6368C30.3661 14.6934 30.1591 14.9541 30.0177 15.1944C29.8442 15.4892 29.6492 15.9305 29.6492 16.4963H31.371ZM32.2066 14.5603H33.9284V11.0756H32.2066H30.4847V14.5603H32.2066ZM32.2066 11.0756H33.9284C33.9284 10.4997 33.771 9.99737 33.5144 9.57632C33.2776 9.1878 32.9868 8.92264 32.8261 8.78085C32.7847 8.74428 32.7437 8.70904 32.7145 8.68388C32.6821 8.65593 32.6609 8.63757 32.6428 8.62141C32.6039 8.58664 32.6133 8.5919 32.6385 8.62142C32.7092 8.70413 32.8891 8.96159 32.8891 9.34342H31.1673H29.4454C29.4454 10.0411 29.7552 10.5482 30.0208 10.8589C30.1435 11.0024 30.2665 11.1163 30.3494 11.1902C30.3922 11.2284 30.4339 11.2645 30.4655 11.2917C30.5002 11.3217 30.5242 11.3423 30.5477 11.363C30.6468 11.4505 30.6159 11.4375 30.5739 11.3687C30.5122 11.2673 30.4847 11.1522 30.4847 11.0756H32.2066ZM31.1673 9.34342H32.8891V9.2619H31.1673H29.4454V9.34342H31.1673ZM31.1673 9.2619H32.8891C32.8891 9.56798 32.7699 9.83227 32.6251 10.0069C32.5063 10.1502 32.4081 10.1895 32.4467 10.1702L31.6767 8.63017L30.9067 7.09012C30.3687 7.3591 29.4454 8.01348 29.4454 9.2619H31.1673ZM31.6767 8.63017L32.4113 10.1874L35.6515 8.65906L34.9169 7.10178L34.1823 5.5445L30.9422 7.07289L31.6767 8.63017ZM34.9169 7.10178L35.642 8.6635C35.6413 8.66381 35.5081 8.72809 35.2786 8.72809C35.0152 8.72809 34.6935 8.64069 34.4158 8.40924C34.1613 8.19717 34.0544 7.95676 34.0123 7.82666C33.9704 7.69721 33.9695 7.6097 33.9695 7.59087H35.6913H37.4131C37.4131 7.22459 37.3457 6.36823 36.6204 5.76375C35.7435 5.03307 34.7287 5.29079 34.1918 5.54006L34.9169 7.10178ZM35.6913 7.59087H33.9695V9.0785H35.6913H37.4131V7.59087H35.6913ZM35.6913 9.0785L37.3297 9.60784C37.4553 9.21915 37.6159 9.03805 37.7446 8.9442C37.8729 8.8507 38.1092 8.7421 38.5647 8.7421V7.02027V5.29844C37.5325 5.29844 36.546 5.55664 35.7165 6.16111C34.8875 6.76522 34.3552 7.61323 34.0528 8.54915L35.6913 9.0785ZM45.6925 7.02027L45.7053 8.74205L45.7069 8.74204L45.6925 7.02027ZM48.464 11.4628L48.3575 13.1813L48.3685 13.182L48.3794 13.1825L48.464 11.4628ZM45.1015 8.12071L45.1553 9.8417L45.1562 9.84167L45.1015 8.12071ZM49.3403 13.3784L48.0445 12.2445L48.041 12.2485L49.3403 13.3784ZM45.8352 17.2095V15.4877C43.5419 15.4877 42.2382 13.8101 42.2382 12.1149H40.5164H38.7945C38.7945 15.5958 41.5258 18.9314 45.8352 18.9314V17.2095ZM40.5164 12.1149H42.2382C42.2382 10.9682 42.6559 10.1676 43.2346 9.63861C43.8353 9.0894 44.7049 8.74946 45.7053 8.74205L45.6925 7.02027L45.6798 5.29848C43.929 5.31145 42.2105 5.90893 40.911 7.09699C39.5894 8.30523 38.7945 10.0418 38.7945 12.1149H40.5164ZM45.6925 7.02027L45.7069 8.74204C46.6796 8.73393 47.4253 8.96587 47.8715 9.26527C48.2703 9.53279 48.4132 9.82401 48.4132 10.1789H50.135H51.8569C51.8569 8.51638 51.0012 7.21809 49.7901 6.40555C48.6264 5.62488 47.1509 5.28622 45.6782 5.2985L45.6925 7.02027ZM50.135 10.1789H48.4132C48.4132 10.1417 48.4286 9.98229 48.5852 9.83485C48.6587 9.7656 48.7232 9.74016 48.7402 9.73488C48.7515 9.73141 48.6976 9.75036 48.5486 9.74303L48.464 11.4628L48.3794 13.1825C49.3286 13.2292 50.253 12.9946 50.9461 12.3418C51.6274 11.7002 51.8569 10.8683 51.8569 10.1789H50.135ZM48.464 11.4628L48.5705 9.74425C48.4678 9.73788 48.3326 9.77406 47.9549 8.98195C47.8305 8.72099 47.566 8.09367 47.2876 7.66614C46.9724 7.18196 46.272 6.36085 45.0469 6.39974L45.1015 8.12071L45.1562 9.84167C44.573 9.86018 44.326 9.42882 44.4018 9.54516C44.5144 9.71816 44.5786 9.90216 44.8465 10.464C45.2534 11.3174 46.1574 13.045 48.3575 13.1813L48.464 11.4628ZM45.1015 8.12071L45.0478 6.39971C43.8695 6.43653 43.1477 7.24197 42.803 7.89793C42.4548 8.56049 42.32 9.3341 42.32 10.0567H44.0419H45.7637C45.7637 9.89988 45.779 9.76746 45.8005 9.66517C45.8227 9.55998 45.8468 9.50849 45.8513 9.49997C45.8575 9.48824 45.8227 9.56159 45.7089 9.64891C45.5802 9.74764 45.3858 9.83449 45.1553 9.8417L45.1015 8.12071ZM44.0419 10.0567H42.32C42.32 11.6038 42.6891 13.0725 43.5151 14.2031C44.3753 15.3804 45.6755 16.0987 47.2209 16.0987V14.3769V12.6551C46.8304 12.6551 46.5411 12.5074 46.2957 12.1715C46.0162 11.789 45.7637 11.0976 45.7637 10.0567H44.0419ZM47.2209 14.3769V16.0987C48.9823 16.0987 50.0481 15.1884 50.6396 14.5082L49.3403 13.3784L48.041 12.2485C47.9137 12.3949 47.8048 12.4881 47.6966 12.5482C47.6027 12.6004 47.4618 12.6551 47.2209 12.6551V14.3769ZM49.3403 13.3784L50.6361 14.5122C50.3515 14.8375 49.8701 15.0089 49.3785 14.8674C49.1277 14.7952 48.8761 14.639 48.69 14.3904C48.4997 14.1364 48.4336 13.861 48.4336 13.6433H50.1554H51.8772C51.8772 12.6485 51.2436 11.8208 50.3312 11.5582C49.5033 11.3198 48.6144 11.5932 48.0445 12.2445L49.3403 13.3784ZM50.1554 13.6433H48.4336C48.4336 14.113 48.2591 14.5354 47.9187 14.8503C47.5803 15.1635 46.9466 15.4877 45.8352 15.4877V17.2095V18.9314C47.6378 18.9314 49.1643 18.3895 50.2575 17.378C51.3487 16.3684 51.8772 15.0076 51.8772 13.6433H50.1554ZM56.3666 17.2095V15.4877C54.0682 15.4877 52.4028 13.9681 52.4028 12.1149H50.681H48.9591C48.9591 16.3752 52.7143 18.9314 56.3666 18.9314V17.2095ZM50.681 12.1149H52.4028C52.4028 10.2617 54.0682 8.7421 56.3666 8.7421V7.02027V5.29844C52.7143 5.29844 48.9591 7.85457 48.9591 12.1149H50.681ZM56.3666 7.02027V8.7421C58.6726 8.7421 60.31 10.2509 60.31 12.1149H62.0318H63.7536C63.7536 7.86532 60.0518 5.29844 56.3666 5.29844V7.02027ZM62.0318 12.1149H60.31C60.31 13.9789 58.6726 15.4877 56.3666 15.4877V17.2095V18.9314C60.0518 18.9314 63.7536 16.3645 63.7536 12.1149H62.0318ZM56.8556 16.1091V17.8309C57.3789 17.8309 57.9366 17.6857 58.4179 17.3028C58.8756 16.9387 59.1189 16.4747 59.2533 16.0949C59.4975 15.4044 59.5149 14.5859 59.5149 13.9693H57.7931H56.0712C56.0712 14.2699 56.0637 14.5031 56.0467 14.6862C56.029 14.8773 56.0064 14.9476 56.0068 14.9464C56.0087 14.941 56.0686 14.7713 56.2741 14.6078C56.5033 14.4255 56.74 14.3873 56.8556 14.3873V16.1091ZM57.7931 13.9693H59.5149C59.5149 13.2659 59.3388 11.659 58.9664 10.2111C58.7809 9.4899 58.5162 8.68306 58.1301 8.01808C57.8043 7.45707 57.039 6.39888 55.6737 6.39888V8.12071V9.84254C55.0624 9.84254 54.939 9.38041 55.152 9.74726C55.3046 10.0101 55.4755 10.4629 55.6313 11.0689C55.9416 12.2753 56.0712 13.5927 56.0712 13.9693H57.7931ZM55.6737 8.12071V6.39888C55.1843 6.39888 54.6341 6.52381 54.1468 6.89773C53.6768 7.25844 53.4286 7.72635 53.2928 8.11236C53.0507 8.80085 53.0348 9.63672 53.0348 10.3012H54.7567H56.4785C56.4785 9.96707 56.4861 9.71399 56.5033 9.51881C56.5214 9.31455 56.5444 9.24656 56.5414 9.25496C56.5356 9.27162 56.467 9.45804 56.2434 9.62962C56.0026 9.8144 55.7657 9.84254 55.6737 9.84254V8.12071ZM54.7567 10.3012H53.0348C53.0348 11.1095 53.2089 12.7086 53.583 14.1319C53.7687 14.8384 54.0346 15.6248 54.425 16.2732C54.7654 16.8385 55.5301 17.8309 56.8556 17.8309V16.1091V14.3873C57.4374 14.3873 57.5678 14.8167 57.3751 14.4968C57.2326 14.26 57.0667 13.839 56.9136 13.2565C56.6101 12.102 56.4785 10.7971 56.4785 10.3012H54.7567ZM67.1829 17.1891V15.4673C66.0802 15.4673 65.2254 15.2757 64.7153 15.0238C64.4678 14.9015 64.3671 14.7977 64.338 14.7601C64.3259 14.7445 64.329 14.7443 64.3341 14.7587C64.3396 14.7743 64.34 14.7857 64.34 14.7845H62.6181H60.8963C60.8963 16.4675 62.0457 17.5461 63.1905 18.1114C64.3311 18.6747 65.7587 18.911 67.1829 18.911V17.1891ZM62.6181 14.7845H64.34C64.34 14.7314 64.3488 14.7558 64.3191 14.8233C64.2871 14.8958 64.233 14.9666 64.1682 15.0189C64.1089 15.0667 64.0689 15.0767 64.0785 15.0739C64.0897 15.0706 64.1373 15.0594 64.228 15.0594V13.3376V11.6158C63.5357 11.6158 62.7011 11.7777 62.0055 12.339C61.2515 12.9475 60.8963 13.8348 60.8963 14.7845H62.6181ZM64.228 13.3376V15.0594C64.3774 15.0594 64.3113 15.0856 64.2374 15.0126C64.234 15.0093 64.2942 15.0715 64.4223 15.4C64.4949 15.5859 64.7054 16.2198 64.9808 16.6662C65.147 16.9356 65.4036 17.2661 65.799 17.5262C66.2164 17.8006 66.6918 17.9328 67.1829 17.9328V16.211V14.4891C67.3225 14.4891 67.5127 14.5316 67.691 14.6488C67.8475 14.7517 67.9114 14.8578 67.9115 14.8579C67.9128 14.86 67.9051 14.8478 67.889 14.8134C67.873 14.7792 67.8531 14.7329 67.8275 14.6682C67.8015 14.6026 67.7748 14.5312 67.7413 14.4412C67.7096 14.3563 67.6714 14.2531 67.6306 14.1486C67.4785 13.7588 67.205 13.1026 66.6552 12.5605C66.0349 11.9488 65.2097 11.6158 64.228 11.6158V13.3376ZM67.1829 16.211V17.9328C67.6798 17.9328 68.3852 17.8004 68.9583 17.2273C69.5334 16.6522 69.6995 15.9092 69.6995 15.2736H67.9777H66.2559C66.2559 15.3511 66.2386 15.0769 66.5233 14.7922C66.806 14.5095 67.114 14.4891 67.1829 14.4891V16.211ZM67.9777 15.2736H69.6995C69.6995 14.6423 69.539 14.0464 69.2028 13.5234C68.878 13.0183 68.4507 12.6763 68.0594 12.4387C67.3668 12.0181 66.4374 11.7472 65.944 11.5759C65.3049 11.3541 64.9633 11.1838 64.7631 10.9984C64.6521 10.8956 64.503 10.727 64.503 10.1993H62.7812H61.0593C61.0593 11.6178 61.5598 12.7254 62.4232 13.525C63.1973 14.2419 64.1549 14.6002 64.8149 14.8292C65.6206 15.1089 65.9904 15.2111 66.2721 15.3822C66.3679 15.4404 66.3466 15.4488 66.3061 15.3857C66.254 15.3048 66.2559 15.2426 66.2559 15.2736H67.9777ZM62.7812 10.1993H64.503C64.503 9.87506 64.6346 9.57666 65.0137 9.30319C65.4279 9.00446 66.1541 8.7421 67.2033 8.7421V7.02027V5.29844C65.6237 5.29844 64.1389 5.68818 62.9992 6.51028C61.8244 7.35762 61.0593 8.64874 61.0593 10.1993H62.7812ZM67.2033 7.02027V8.7421C68.2994 8.7421 69.0773 8.96845 69.5163 9.21993C69.9551 9.47129 69.8629 9.60493 69.8629 9.48607H71.5847H73.3065C73.3065 7.96109 72.3278 6.86182 71.228 6.23182C70.1284 5.60192 68.7157 5.29844 67.2033 5.29844V7.02027ZM71.5847 9.48607H69.8629C69.8629 9.33561 69.9356 9.22851 69.9859 9.18371C70.0311 9.14347 70.0551 9.14997 70.0359 9.14997V10.8718V12.5936C71.6504 12.5936 73.3065 11.393 73.3065 9.48607H71.5847ZM70.0359 10.8718V9.14997C69.9159 9.14997 70.0037 9.13319 70.0917 9.22279C70.1122 9.24366 70.0579 9.19697 69.956 8.89872C69.9028 8.74311 69.8708 8.62961 69.8027 8.41475C69.7471 8.2395 69.6649 7.98991 69.5488 7.74477C69.4353 7.50523 69.2351 7.14957 68.8808 6.84859C68.4828 6.51057 67.9792 6.31736 67.4275 6.31736V8.03919V9.76102C67.1508 9.76102 66.867 9.65633 66.6514 9.47322C66.4794 9.32715 66.4242 9.19278 66.4365 9.2188C66.4462 9.23922 66.4705 9.29945 66.5202 9.45615C66.5574 9.57324 66.6295 9.81381 66.6974 10.0123C66.8374 10.4222 67.0926 11.0836 67.6347 11.6356C68.2442 12.2563 69.0657 12.5936 70.0359 12.5936V10.8718ZM67.4275 8.03919V6.31736C66.4345 6.31736 65.7464 6.9015 65.4033 7.5363C65.1116 8.07597 65.0535 8.64744 65.0535 9.03774H66.7754H68.4972C68.4972 8.93895 68.5206 9.01115 68.4327 9.17382C68.3794 9.27242 68.2688 9.43096 68.0668 9.56409C67.8523 9.70546 67.6207 9.76102 67.4275 9.76102V8.03919ZM66.7754 9.03774H65.0535C65.0535 10.387 65.7094 11.3218 66.5536 11.9172C67.2422 12.4028 68.1362 12.7014 68.6293 12.8888C69.2575 13.1276 69.5777 13.2901 69.7668 13.4651C69.8616 13.5528 69.9851 13.6837 69.9851 14.1324H71.707H73.4288C73.4288 12.7673 72.9359 11.7061 72.106 10.9379C71.3704 10.257 70.4577 9.89981 69.853 9.66992C69.1132 9.38868 68.7743 9.26944 68.5383 9.10298C68.4578 9.04621 68.4972 9.09457 68.4972 9.03774H66.7754ZM71.707 14.1324H69.9851C69.9851 14.4033 69.8839 14.6614 69.5369 14.9092C69.1471 15.1877 68.4018 15.4673 67.1829 15.4673V17.1891V18.911C68.8782 18.911 70.3949 18.5283 71.5385 17.7114C72.725 16.8639 73.4288 15.5936 73.4288 14.1324H71.707ZM81.4017 12.5021V10.7803H79.6799V12.5021H81.4017ZM76.8369 17.0057V15.2839C76.9747 15.2839 77.2708 15.3206 77.5661 15.5653C77.8964 15.839 78.0493 16.2305 78.0493 16.5778H76.3275H74.6056C74.6056 17.19 74.8604 17.7955 75.369 18.217C75.8427 18.6094 76.3935 18.7276 76.8369 18.7276V17.0057ZM76.3275 16.5778H78.0493V16.4963H76.3275H74.6056V16.5778H76.3275ZM76.3275 16.4963H78.0493C78.0493 16.7462 77.9588 16.9124 77.9419 16.941C77.937 16.9495 77.9424 16.939 77.977 16.8921C78.0465 16.798 78.0219 16.8342 78.1257 16.6949C78.4044 16.321 78.8848 15.6223 78.8848 14.5603H77.163H75.4412C75.4412 14.5633 75.441 14.5547 75.4445 14.5387C75.4479 14.5229 75.4526 14.5106 75.4551 14.5048C75.4569 14.5007 75.447 14.5264 75.3648 14.6368C75.3225 14.6934 75.1155 14.9541 74.9741 15.1944C74.8006 15.4892 74.6056 15.9304 74.6056 16.4963H76.3275ZM77.163 14.5603H78.8848V4.98242H77.163H75.4412V14.5603H77.163ZM77.163 4.98242H78.8848C78.8848 3.9204 78.4044 3.22169 78.1257 2.8478C78.0219 2.70855 78.0465 2.74477 77.977 2.65064C77.9424 2.60378 77.937 2.59328 77.9419 2.60173C77.9588 2.63032 78.0493 2.7965 78.0493 3.04646H76.3275H74.6056C74.6056 3.61228 74.8006 4.05357 74.9741 4.34835C75.1155 4.58866 75.3225 4.84931 75.3648 4.90596C75.447 5.01631 75.4569 5.04206 75.4551 5.03793C75.4526 5.03212 75.4479 5.01982 75.4445 5.004C75.441 4.988 75.4412 4.97941 75.4412 4.98242H77.163ZM76.3275 3.04646H78.0493V2.96494H76.3275H74.6056V3.04646H76.3275ZM76.3275 2.96494H78.0493C78.0493 3.31225 77.8964 3.70378 77.5661 3.97747C77.2708 4.22217 76.9747 4.25882 76.8369 4.25882V2.53699V0.815163C76.3935 0.815163 75.8427 0.933332 75.369 1.32578C74.8604 1.74721 74.6056 2.35272 74.6056 2.96494H76.3275ZM76.8369 2.53699V4.25882H82.2576V2.53699V0.815163H76.8369V2.53699ZM82.2576 2.53699V4.25882C83.9692 4.25882 85.2058 4.58984 85.9646 5.10515C86.6232 5.55243 87.0569 6.22065 87.0569 7.40746H88.7787H90.5006C90.5006 5.1503 89.5587 3.38328 87.8993 2.25633C86.34 1.19739 84.3161 0.815163 82.2576 0.815163V2.53699ZM88.7787 7.40746H87.0569C87.0569 8.45846 86.6688 9.25129 86.0443 9.80063C85.4009 10.3666 84.38 10.7803 82.9709 10.7803V12.5021V14.2239C85.0465 14.2239 86.9295 13.6085 88.3188 12.3862C89.7271 11.1473 90.5006 9.39285 90.5006 7.40746H88.7787ZM82.9709 12.5021V10.7803H81.4017V12.5021V14.2239H82.9709V12.5021ZM81.4017 12.5021H79.6799V14.5603H81.4017H83.1236V12.5021H81.4017ZM81.4017 14.5603H79.6799C79.6799 15.6879 80.2507 16.4131 80.5496 16.7705C80.665 16.9084 80.639 16.8742 80.7165 16.9678C80.756 17.0154 80.762 17.0258 80.7558 17.0164C80.7382 16.9898 80.6173 16.7968 80.6173 16.4963H82.3391H84.061C84.061 15.8799 83.8229 15.4118 83.6295 15.1189C83.4704 14.8779 83.2388 14.6181 83.1912 14.5612C83.0214 14.3582 83.1236 14.4312 83.1236 14.5603H81.4017ZM82.3391 16.4963H80.6173V16.5778H82.3391H84.061V16.4963H82.3391ZM82.3391 16.5778H80.6173C80.6173 16.2305 80.7701 15.839 81.1005 15.5653C81.3958 15.3206 81.6919 15.2839 81.8297 15.2839V17.0057V18.7276C82.2731 18.7276 82.8239 18.6094 83.2976 18.217C83.8062 17.7955 84.061 17.19 84.061 16.5778H82.3391ZM81.8297 17.0057V15.2839H76.8369V17.0057V18.7276H81.8297V17.0057ZM82.4003 10.9329V12.6548H82.9709V10.9329V9.21111H82.4003V10.9329ZM82.9709 10.9329V12.6548C84.3763 12.6548 85.2279 11.7219 85.6339 10.8833C86.0203 10.085 86.1396 9.16168 86.1396 8.38563H84.4177H82.6959C82.6959 8.61227 82.6774 8.82467 82.644 9.00723C82.6099 9.19398 82.5663 9.31664 82.5342 9.38291C82.501 9.4515 82.5056 9.4086 82.5936 9.3417C82.7039 9.25788 82.8483 9.21111 82.9709 9.21111V10.9329ZM84.4177 8.38563H86.1396C86.1396 6.84219 85.7891 5.47435 85.207 4.43438C84.6963 3.52194 83.7075 2.38431 82.2576 2.38431V4.10614V5.82797C81.9996 5.82797 81.8885 5.7204 81.9311 5.75455C81.9679 5.78405 82.0743 5.88818 82.202 6.11634C82.4554 6.56909 82.6959 7.34099 82.6959 8.38563H84.4177ZM82.2576 4.10614V2.38431H82.1965V4.10614V5.82797H82.2576V4.10614ZM82.1965 4.10614V2.38431C81.4528 2.38431 80.7195 2.69577 80.2283 3.35381C79.7906 3.94007 79.6799 4.62047 79.6799 5.16582H81.4017H83.1236C83.1236 5.03868 83.1555 5.18924 82.9878 5.41378C82.8961 5.53669 82.7637 5.65271 82.5971 5.732C82.4343 5.80944 82.2895 5.82797 82.1965 5.82797V4.10614ZM81.4017 5.16582H79.6799V9.87326H81.4017H83.1236V5.16582H81.4017ZM81.4017 9.87326H79.6799C79.6799 10.3841 79.7715 11.1495 80.3289 11.7878C80.9291 12.4751 81.7436 12.6548 82.4003 12.6548V10.9329V9.21111C82.3233 9.21111 82.6385 9.19715 82.9228 9.52274C83.1644 9.79935 83.1236 10.0349 83.1236 9.87326H81.4017ZM89.7421 8.83395L90.4702 10.3942L90.4858 10.387L90.5013 10.3794L89.7421 8.83395ZM93.2268 7.12216L93.986 8.66763L93.9968 8.66221L93.2268 7.12216ZM92.1875 6.2255V4.50367C91.7854 4.50367 91.5639 4.3778 91.4637 4.28776C91.3695 4.20306 91.3213 4.10126 91.3213 3.96349H89.5994H87.8776C87.8776 6.34596 89.8651 7.94734 92.1875 7.94734V6.2255ZM89.5994 3.96349H91.3213C91.3213 3.82828 91.3672 3.73514 91.4557 3.65658C91.5529 3.57036 91.7758 3.44368 92.1875 3.44368V1.72185V2.09808e-05C89.8865 2.09808e-05 87.8776 1.5619 87.8776 3.96349H89.5994ZM92.1875 1.72185V3.44368C92.5992 3.44368 92.8222 3.57036 92.9193 3.65658C93.0078 3.73514 93.0538 3.82828 93.0538 3.96349H94.7756H96.4974C96.4974 1.5619 94.4886 2.09808e-05 92.1875 2.09808e-05V1.72185ZM94.7756 3.96349H93.0538C93.0538 4.10126 93.0055 4.20306 92.9113 4.28776C92.8111 4.3778 92.5897 4.50367 92.1875 4.50367V6.2255V7.94734C94.51 7.94734 96.4974 6.34596 96.4974 3.96349H94.7756ZM89.7421 17.0057V15.2839C89.8798 15.2839 90.176 15.3206 90.4713 15.5653C90.8016 15.839 90.9545 16.2305 90.9545 16.5778H89.2326H87.5108C87.5108 17.19 87.7655 17.7955 88.2742 18.217C88.7478 18.6094 89.2987 18.7276 89.7421 18.7276V17.0057ZM89.2326 16.5778H90.9545V16.4963H89.2326H87.5108V16.5778H89.2326ZM89.2326 16.4963H90.9545C90.9545 16.7462 90.8639 16.9124 90.8471 16.941C90.8421 16.9495 90.8476 16.939 90.8822 16.8921C90.9517 16.798 90.9271 16.8342 91.0309 16.6949C91.3096 16.321 91.79 15.6223 91.79 14.5603H90.0682H88.3463C88.3463 14.5633 88.3462 14.5547 88.3497 14.5387C88.3531 14.5229 88.3577 14.5106 88.3603 14.5048C88.3621 14.5007 88.3522 14.5264 88.2699 14.6368C88.2277 14.6934 88.0207 14.9541 87.8793 15.1944C87.7058 15.4892 87.5108 15.9304 87.5108 16.4963H89.2326ZM90.0682 14.5603H91.79V11.2794H90.0682H88.3463V14.5603H90.0682ZM90.0682 11.2794H91.79C91.79 10.2166 91.3109 9.51652 91.0123 9.13049C90.9653 9.06976 90.8633 8.94222 90.8511 8.92664C90.8118 8.87656 90.8057 8.8662 90.8108 8.87415C90.8228 8.8927 90.9545 9.09923 90.9545 9.42493H89.2326H87.5108C87.5108 10.0257 87.747 10.4768 87.9156 10.7386C88.0468 10.9424 88.2663 11.2089 88.2885 11.2376C88.3612 11.3315 88.367 11.3515 88.3621 11.3403C88.3584 11.3319 88.3534 11.3181 88.3498 11.3017C88.3462 11.285 88.3463 11.2763 88.3463 11.2794H90.0682ZM89.2326 9.42493H90.9545V9.34342H89.2326H87.5108V9.42493H89.2326ZM89.2326 9.34342H90.9545C90.9545 9.53355 90.912 9.74406 90.8113 9.94665C90.7151 10.1404 90.5951 10.2679 90.5144 10.3394C90.4744 10.3748 90.4412 10.3991 90.4205 10.4133C90.3998 10.4275 90.3867 10.4349 90.3853 10.4357C90.3838 10.4366 90.3892 10.4335 90.4046 10.4258C90.4199 10.4181 90.4408 10.408 90.4702 10.3942L89.7421 8.83395L89.014 7.27366C88.8728 7.33953 88.5302 7.49665 88.2311 7.76153C87.8477 8.10115 87.5108 8.63658 87.5108 9.34342H89.2326ZM89.7421 8.83395L90.5013 10.3794L93.986 8.6676L93.2268 7.12216L92.4677 5.57672L88.9829 7.28852L89.7421 8.83395ZM93.2268 7.12216L93.9968 8.66221C93.917 8.70212 93.521 8.83773 93.0663 8.56359C92.6595 8.31831 92.5035 7.91292 92.5035 7.59087H94.2254H95.9472C95.9472 6.86124 95.5977 6.06866 94.8444 5.6145C94.0433 5.13148 93.148 5.23652 92.4568 5.58211L93.2268 7.12216ZM94.2254 7.59087H92.5035V14.5603H94.2254H95.9472V7.59087H94.2254ZM94.2254 14.5603H92.5035C92.5035 15.6879 93.0744 16.4131 93.3733 16.7705C93.4887 16.9084 93.4627 16.8742 93.5402 16.9678C93.5796 17.0154 93.5857 17.0258 93.5794 17.0164C93.5618 16.9898 93.441 16.7968 93.441 16.4963H95.1628H96.8846C96.8846 15.8799 96.6466 15.4118 96.4532 15.1189C96.294 14.8779 96.0624 14.6181 96.0149 14.5612C95.8451 14.3582 95.9472 14.4312 95.9472 14.5603H94.2254ZM95.1628 16.4963H93.441V16.5778H95.1628H96.8846V16.4963H95.1628ZM95.1628 16.5778H93.441C93.441 16.2305 93.5938 15.839 93.9241 15.5653C94.2195 15.3206 94.5156 15.2839 94.6533 15.2839V17.0057V18.7276C95.0967 18.7276 95.6476 18.6094 96.1212 18.217C96.6299 17.7955 96.8846 17.19 96.8846 16.5778H95.1628ZM94.6533 17.0057V15.2839H89.7421V17.0057V18.7276H94.6533V17.0057ZM105.701 14.6215L103.994 14.8484L103.995 14.852L105.701 14.6215ZM102.053 16.2314L103.711 15.7652L102.808 12.5563L100.714 15.1495L102.053 16.2314ZM101.279 11.422L100.438 12.9243L103.333 14.5458L102.992 11.2449L101.279 11.422ZM105.232 11.096L103.525 11.3199L103.526 11.3229L105.232 11.096ZM101.585 14.7437L103.302 14.621L103.301 14.6094L103.3 14.5977L101.585 14.7437ZM101.503 13.7859L103.219 13.6399L103.216 13.6027L103.211 13.5656L101.503 13.7859ZM105.701 14.6215L103.995 14.852C104.066 15.3817 104.204 15.8549 104.429 16.2707C104.664 16.7058 104.949 16.9931 105.196 17.1919C105.298 17.2741 105.406 17.3501 105.429 17.3667C105.477 17.4018 105.429 17.3708 105.367 17.3102C105.29 17.2343 105.174 17.0991 105.088 16.9005C105 16.701 104.978 16.5199 104.978 16.3944H106.7H108.421C108.421 16.1211 108.374 15.8209 108.243 15.5203C108.111 15.2205 107.932 15.002 107.777 14.8501C107.637 14.7133 107.498 14.6134 107.446 14.576C107.404 14.5455 107.4 14.5428 107.377 14.5259C107.37 14.5208 107.365 14.5173 107.362 14.5149C107.359 14.5126 107.358 14.5116 107.358 14.5117C107.38 14.5296 107.429 14.5788 107.457 14.6324C107.476 14.6668 107.438 14.6152 107.407 14.3909L105.701 14.6215ZM106.7 16.3944H104.978C104.978 16.1202 105.062 15.8645 105.194 15.6601C105.315 15.4724 105.45 15.3695 105.516 15.3252C105.628 15.2508 105.66 15.2667 105.499 15.303C105.202 15.3699 104.718 15.4062 104.152 15.4062V17.128V18.8498C104.789 18.8498 105.579 18.8148 106.255 18.6626C106.58 18.5894 107.024 18.4588 107.425 18.1915C107.856 17.9042 108.421 17.3167 108.421 16.3944H106.7ZM104.152 17.128V15.4062C103.875 15.4062 103.674 15.3929 103.532 15.3735C103.387 15.3537 103.34 15.3326 103.351 15.3373C103.371 15.3459 103.459 15.3884 103.553 15.4928C103.65 15.5999 103.694 15.7072 103.711 15.7652L102.053 16.2314L100.396 16.6975C100.637 17.5553 101.219 18.1761 102.014 18.5111C102.681 18.7918 103.445 18.8498 104.152 18.8498V17.128ZM102.053 16.2314L100.714 15.1495C100.675 15.1979 100.598 15.2722 100.442 15.3401C100.281 15.41 100.001 15.4877 99.5467 15.4877V17.2095V18.9314C101.277 18.9314 102.583 18.3156 103.393 17.3132L102.053 16.2314ZM99.5467 17.2095V15.4877C98.6943 15.4877 98.1248 15.2903 97.8159 15.0648C97.5781 14.8912 97.3966 14.6421 97.3966 14.112H95.6748H93.953C93.953 15.7013 94.6274 17.0009 95.7856 17.8463C96.8726 18.6397 98.239 18.9314 99.5467 18.9314V17.2095ZM95.6748 14.112H97.3966C97.3966 13.6162 97.5797 13.3288 97.8447 13.1228C98.1566 12.8803 98.6726 12.6955 99.3226 12.6955V10.9737V9.25187C98.0773 9.25187 96.7694 9.59692 95.7312 10.404C94.6462 11.2474 93.953 12.5292 93.953 14.112H95.6748ZM99.3226 10.9737V12.6955C99.8849 12.6955 100.234 12.8106 100.438 12.9243L101.279 11.422L102.12 9.91972C101.304 9.46286 100.35 9.25187 99.3226 9.25187V10.9737ZM101.279 11.422L102.992 11.2449C102.882 10.1871 102.8 9.12626 102.599 8.40288C102.491 8.01364 102.287 7.46712 101.823 7.02456C101.298 6.52248 100.661 6.35812 100.097 6.35812V8.07995V9.80178C99.9917 9.80178 99.7012 9.75968 99.4449 9.51489C99.2509 9.3296 99.2393 9.17537 99.2813 9.32617C99.3191 9.46193 99.3613 9.69581 99.4103 10.1066C99.4588 10.5132 99.5024 10.9824 99.5662 11.5992L101.279 11.422ZM100.097 8.07995V6.35812C99.5747 6.35812 99.0857 6.52303 98.6803 6.83169C98.3086 7.11465 98.0844 7.4593 97.9492 7.71341C97.7231 8.13806 97.5432 8.75427 97.4811 8.93423C97.3678 9.2621 97.3124 9.32136 97.3257 9.3069C97.4161 9.20819 97.5417 9.19073 97.5089 9.19073V10.9126V12.6344C98.4848 12.6344 99.288 12.2629 99.8649 11.633C100.365 11.0875 100.605 10.4386 100.736 10.0583C100.772 9.95428 100.805 9.85271 100.833 9.76698C100.863 9.67657 100.886 9.6045 100.91 9.53683C100.933 9.47033 100.951 9.42153 100.966 9.38431C100.973 9.36631 100.979 9.35314 100.983 9.34398C100.987 9.33479 100.989 9.33104 100.989 9.33168C100.989 9.33231 100.985 9.33884 100.978 9.34992C100.971 9.36101 100.96 9.37809 100.943 9.39934C100.91 9.44156 100.853 9.50559 100.766 9.57163C100.564 9.72539 100.319 9.80178 100.097 9.80178V8.07995ZM97.5089 10.9126V9.19073C97.3821 9.19073 97.4169 9.15519 97.5035 9.23401C97.5445 9.27128 97.5785 9.31919 97.5999 9.36939C97.6209 9.41873 97.6208 9.44884 97.6208 9.44531H95.899H94.1771C94.1771 10.3338 94.5198 11.175 95.1859 11.7811C95.8381 12.3744 96.6779 12.6344 97.5089 12.6344V10.9126ZM95.899 9.44531H97.6208C97.6208 9.35992 97.6377 9.34518 97.6456 9.33457C97.67 9.30211 97.7546 9.21202 97.9758 9.1064C98.4454 8.88213 99.2059 8.7421 100.097 8.7421V7.02027V5.29844C98.9501 5.29844 97.6117 5.46408 96.4917 5.99891C95.3093 6.5636 94.1771 7.66946 94.1771 9.44531H95.899ZM100.097 7.02027V8.7421C102.182 8.7421 103.331 9.83875 103.525 11.3199L105.232 11.096L106.94 10.8721C106.482 7.38084 103.595 5.29844 100.097 5.29844V7.02027ZM105.232 11.096L103.526 11.3229L103.994 14.8484L105.701 14.6215L107.408 14.3945L106.939 10.8691L105.232 11.096ZM100.851 16.0683V17.7902C102.086 17.7902 102.735 16.8677 102.976 16.3656C103.242 15.813 103.342 15.1791 103.302 14.621L101.585 14.7437L99.8671 14.8664C99.8664 14.8562 99.8677 14.8667 99.864 14.8875C99.8601 14.9092 99.8574 14.9049 99.8721 14.8744C99.8833 14.8511 99.9396 14.7388 100.086 14.617C100.253 14.4787 100.52 14.3465 100.851 14.3465V16.0683ZM101.585 14.7437L103.3 14.5977L103.219 13.6399L101.503 13.7859L99.7874 13.9319L99.8689 14.8897L101.585 14.7437ZM101.503 13.7859L103.211 13.5656C103.111 12.7904 102.899 12.0628 102.482 11.4868C102.022 10.8509 101.321 10.4338 100.505 10.4338V12.1557V13.8775C100.321 13.8775 100.136 13.8317 99.9751 13.7436C99.8177 13.6575 99.73 13.5576 99.6935 13.5072C99.6598 13.4607 99.6714 13.4596 99.7 13.5449C99.7281 13.629 99.7657 13.7759 99.7954 14.0063L101.503 13.7859ZM100.505 12.1557V10.4338C99.5408 10.4338 98.8731 11.0168 98.5288 11.5907C98.2003 12.1381 98.0898 12.7612 98.0898 13.3172H99.8116H101.533C101.533 13.1804 101.566 13.2227 101.482 13.3625C101.435 13.4398 101.339 13.5687 101.164 13.6824C100.979 13.8029 100.749 13.8775 100.505 13.8775V12.1557ZM99.8116 13.3172H98.0898C98.0898 14.1647 98.1923 15.061 98.4532 15.8096C98.5819 16.1791 98.7857 16.6197 99.125 16.9966C99.4862 17.398 100.07 17.7902 100.851 17.7902V16.0683V14.3465C101.296 14.3465 101.581 14.5782 101.685 14.693C101.766 14.7834 101.752 14.8113 101.705 14.6764C101.614 14.4163 101.533 13.937 101.533 13.3172H99.8116ZM118.366 14.5807L116.649 14.7151L116.65 14.7208L118.366 14.5807ZM114.31 14.5807L112.591 14.6801L112.592 14.6859L114.31 14.5807ZM114.107 11.0552L112.387 11.1476L112.388 11.1546L114.107 11.0552ZM107.321 8.6913L106.555 7.14929L106.532 7.16035L106.51 7.17204L107.321 8.6913ZM110.52 7.10178L111.286 8.64379L111.299 8.63718L111.313 8.63034L110.52 7.10178ZM111.356 8.46714H109.634V15.0127L112.855 9.31438L111.356 8.46714ZM118.101 11.1979L119.817 11.0634L119.817 11.0593L118.101 11.1979ZM118.366 14.5807L116.65 14.7208C116.724 15.6285 117.078 16.2351 117.299 16.5916C117.357 16.6865 117.38 16.7208 117.411 16.7733C117.436 16.8151 117.44 16.8257 117.437 16.8191C117.424 16.7909 117.378 16.6766 117.378 16.5167H119.099H120.821C120.821 15.6064 120.31 14.9133 120.228 14.7809C120.102 14.5769 120.089 14.5314 120.082 14.4406L118.366 14.5807ZM119.099 16.5167H117.378V16.5982H119.099H120.821V16.5167H119.099ZM119.099 16.5982H117.378C117.378 16.2509 117.53 15.8593 117.861 15.5856C118.156 15.3409 118.452 15.3043 118.59 15.3043V17.0261V18.7479C119.033 18.7479 119.584 18.6298 120.058 18.2373C120.567 17.8159 120.821 17.2104 120.821 16.5982H119.099ZM118.59 17.0261V15.3043H114.086V17.0261V18.7479H118.59V17.0261ZM114.086 17.0261V15.3043C114.224 15.3043 114.52 15.3409 114.816 15.5856C115.146 15.8593 115.299 16.2509 115.299 16.5982H113.577H111.855C111.855 17.2104 112.11 17.8159 112.618 18.2373C113.092 18.6298 113.643 18.7479 114.086 18.7479V17.0261ZM113.577 16.5982H115.299V16.5167H113.577H111.855V16.5982H113.577ZM113.577 16.5167H115.299C115.299 16.7454 115.22 16.898 115.207 16.9209C115.204 16.9261 115.211 16.9136 115.245 16.8639C115.262 16.8394 115.28 16.814 115.305 16.7776C115.329 16.744 115.358 16.7014 115.389 16.6562C115.666 16.2499 116.094 15.5348 116.029 14.4755L114.31 14.5807L112.592 14.6859C112.592 14.6882 112.593 14.6564 112.606 14.6205C112.613 14.6017 112.612 14.6161 112.544 14.7163C112.517 14.7564 112.318 15.0283 112.193 15.2552C112.033 15.5443 111.855 15.9721 111.855 16.5167H113.577ZM114.31 14.5807L116.029 14.4813L115.826 10.9558L114.107 11.0552L112.388 11.1546L112.592 14.6801L114.31 14.5807ZM114.107 11.0552L115.826 10.9628C115.777 10.0498 115.694 9.11949 115.393 8.40359C115.223 7.99717 114.937 7.54405 114.446 7.2125C113.95 6.87773 113.422 6.78607 112.986 6.78607V8.5079V10.2297C112.947 10.2297 112.745 10.2196 112.518 10.0663C112.296 9.91625 112.222 9.74461 112.219 9.73812C112.218 9.73589 112.229 9.76119 112.245 9.82667C112.26 9.89139 112.278 9.9821 112.297 10.106C112.333 10.3584 112.363 10.695 112.387 11.1476L114.107 11.0552ZM112.986 8.5079V6.78607C112.521 6.78607 112.036 6.89976 111.595 7.18037C111.161 7.45695 110.871 7.83113 110.682 8.19644C110.332 8.87271 110.265 9.64587 110.265 10.2604H111.987H113.709C113.709 10.0623 113.722 9.92095 113.738 9.82754C113.754 9.72971 113.767 9.72663 113.741 9.77715C113.71 9.83678 113.624 9.97151 113.445 10.0851C113.261 10.2026 113.084 10.2297 112.986 10.2297V8.5079ZM111.987 10.2604H110.265V14.5807H111.987H113.709V10.2604H111.987ZM111.987 14.5807H110.265C110.265 15.7083 110.836 16.4335 111.135 16.7909C111.251 16.9288 111.225 16.8946 111.302 16.9881C111.342 17.0357 111.348 17.0462 111.341 17.0368C111.324 17.0101 111.203 16.8172 111.203 16.5167H112.925H114.647C114.647 15.9003 114.409 15.4322 114.215 15.1393C114.056 14.8983 113.824 14.6385 113.777 14.5816C113.607 14.3786 113.709 14.4516 113.709 14.5807H111.987ZM112.925 16.5167H111.203V16.5982H112.925H114.647V16.5167H112.925ZM112.925 16.5982H111.203C111.203 16.2509 111.356 15.8593 111.686 15.5856C111.981 15.3409 112.278 15.3043 112.415 15.3043V17.0261V18.7479C112.859 18.7479 113.41 18.6298 113.883 18.2373C114.392 17.8159 114.647 17.2104 114.647 16.5982H112.925ZM112.415 17.0261V15.3043H107.504V17.0261V18.7479H112.415V17.0261ZM107.504 17.0261V15.3043C107.642 15.3043 107.938 15.3409 108.233 15.5856C108.564 15.8593 108.716 16.2509 108.716 16.5982H106.995H105.273C105.273 17.2104 105.527 17.8159 106.036 18.2373C106.51 18.6298 107.061 18.7479 107.504 18.7479V17.0261ZM106.995 16.5982H108.716V16.5167H106.995H105.273V16.5982H106.995ZM106.995 16.5167H108.716C108.716 16.8172 108.596 17.0101 108.578 17.0368C108.572 17.0462 108.578 17.0357 108.617 16.9881C108.695 16.8946 108.669 16.9288 108.784 16.7909C109.083 16.4335 109.654 15.7083 109.654 14.5807H107.932H106.21C106.21 14.4516 106.312 14.3786 106.143 14.5816C106.095 14.6385 105.863 14.8983 105.704 15.1393C105.511 15.4322 105.273 15.9003 105.273 16.5167H106.995ZM107.932 14.5807H109.654V11.1367H107.932H106.21V14.5807H107.932ZM107.932 11.1367H109.654C109.654 9.83927 108.842 9.10033 108.495 8.79652C108.349 8.66844 108.389 8.70704 108.293 8.62152C108.246 8.57982 108.245 8.57632 108.262 8.59533C108.302 8.64119 108.513 8.90124 108.513 9.32304H106.791H105.069C105.069 10.0607 105.422 10.5806 105.676 10.8697C105.882 11.1036 106.18 11.3462 106.228 11.3881C106.451 11.5836 106.21 11.4356 106.21 11.1367H107.932ZM106.791 9.32304H108.513V9.24152H106.791H105.069V9.32304H106.791ZM106.791 9.24152H108.513C108.513 9.43148 108.469 9.64077 108.369 9.84056C108.274 10.0298 108.157 10.1507 108.087 10.2132C108.022 10.2711 107.978 10.2951 107.997 10.284C108.016 10.2724 108.048 10.2549 108.131 10.2106L107.321 8.6913L106.51 7.17204C106.412 7.22434 106.075 7.39361 105.795 7.64321C105.423 7.97506 105.069 8.51101 105.069 9.24152H106.791ZM107.321 8.6913L108.087 10.2333L111.286 8.64379L110.52 7.10178L109.754 5.55977L106.555 7.14929L107.321 8.6913ZM110.52 7.10178L111.313 8.63034C111.261 8.65697 111.093 8.7323 110.835 8.72521C110.556 8.71753 110.277 8.61465 110.054 8.43186C109.657 8.10735 109.634 7.72623 109.634 7.63162H111.356H113.077C113.077 7.10906 112.911 6.32037 112.234 5.76661C111.41 5.09177 110.417 5.21588 109.727 5.57322L110.52 7.10178ZM111.356 7.63162H109.634V8.46714H111.356H113.077V7.63162H111.356ZM111.356 8.46714L112.855 9.31438C113.007 9.04527 113.342 8.7421 114.209 8.7421V7.02027V5.29844C112.426 5.29844 110.764 6.01419 109.857 7.6199L111.356 8.46714ZM114.209 7.02027V8.7421C114.78 8.7421 115.239 8.89102 115.564 9.17537C115.87 9.44275 116.278 10.0215 116.385 11.3364L118.101 11.1979L119.817 11.0593C119.658 9.09326 118.976 7.58324 117.83 6.58206C116.704 5.59784 115.349 5.29844 114.209 5.29844V7.02027ZM118.101 11.1979L116.384 11.3323L116.649 14.7151L118.366 14.5807L120.082 14.4463L119.817 11.0634L118.101 11.1979ZM128.758 8.9766L128.198 7.34829L125.95 8.12119L127.385 10.0163L128.758 8.9766ZM127.535 14.8864L126.709 13.3757L122.624 15.6094L127.18 16.5711L127.535 14.8864ZM124.377 18.5545L124.329 20.2757L124.338 20.2759L124.377 18.5545ZM125.294 15.5181L126.138 14.0174L125.677 13.7583L125.151 13.8022L125.294 15.5181ZM130.266 7.9373H128.544C128.544 7.87683 128.564 7.6571 128.739 7.42087C128.902 7.20128 129.085 7.12339 129.11 7.11332C129.123 7.10784 129.117 7.1115 129.077 7.12232C129.035 7.13345 128.983 7.14556 128.898 7.16425C128.762 7.19421 128.475 7.25301 128.198 7.34829L128.758 8.9766L129.318 10.6049C129.366 10.5881 129.431 10.573 129.639 10.5272C129.795 10.4928 130.101 10.4272 130.403 10.305C130.723 10.1752 131.161 9.93551 131.505 9.47202C131.861 8.99189 131.988 8.4461 131.988 7.9373H130.266ZM128.758 8.9766L127.385 10.0163C127.745 10.4907 127.933 10.9696 127.933 11.422H129.655H131.376C131.376 9.99961 130.79 8.80752 130.13 7.93686L128.758 8.9766ZM129.655 11.422H127.933C127.933 12.2577 127.519 12.9328 126.709 13.3757L127.535 14.8864L128.361 16.3971C130.16 15.4134 131.376 13.6431 131.376 11.422H129.655ZM127.535 14.8864L127.18 16.5711C127.554 16.6501 127.804 16.7346 127.966 16.8073C128.125 16.8789 128.173 16.9275 128.171 16.926C128.162 16.9165 128.141 16.8876 128.13 16.8566C128.123 16.8367 128.136 16.8609 128.136 16.965H129.858H131.58C131.58 16.1608 131.364 15.2432 130.598 14.4821C129.903 13.7926 128.942 13.4237 127.891 13.2017L127.535 14.8864ZM129.858 16.965H128.136C128.136 16.7219 128.311 16.9399 127.52 17.3139C126.817 17.6462 125.713 17.8924 124.377 17.8924V19.6142V21.336C126.076 21.336 127.713 21.0319 128.992 20.4269C130.183 19.8635 131.58 18.7568 131.58 16.965H129.858ZM124.377 19.6142V17.8924C123.042 17.8924 122.141 17.7174 121.636 17.4755C121.404 17.3643 121.326 17.2723 121.306 17.2438C121.297 17.2317 121.269 17.1967 121.269 17.0669H119.547H117.825C117.825 17.8541 118.044 18.596 118.495 19.2334C118.934 19.8545 119.529 20.2847 120.148 20.5812C121.344 21.1543 122.858 21.336 124.377 21.336V19.6142ZM119.547 17.0669H121.269C121.269 17.0824 121.266 17.096 121.261 17.1119C121.255 17.1291 121.24 17.1589 121.21 17.1928C121.177 17.2295 121.137 17.258 121.1 17.2742C121.063 17.2901 121.06 17.2807 121.116 17.2807V15.5589V13.837C120.116 13.837 119.246 14.2226 118.643 14.898C118.071 15.5374 117.825 16.3378 117.825 17.0669H119.547ZM121.116 15.5589V17.2807C121.146 17.2807 121.129 17.2847 121.09 17.2681C121.054 17.2528 121.043 17.2382 121.059 17.2538C121.123 17.3157 121.222 17.4562 121.413 17.8282C121.551 18.0957 121.823 18.6769 122.166 19.1219C122.57 19.6446 123.265 20.2461 124.329 20.2757L124.377 18.5545L124.424 16.8333C124.755 16.8425 124.924 17.0593 124.891 17.0166C124.798 16.8961 124.721 16.7309 124.476 16.2546C124.124 15.5687 123.249 13.837 121.116 13.837V15.5589ZM124.377 18.5545L124.338 20.2759C125.246 20.2961 126.119 19.9667 126.733 19.2467C127.311 18.57 127.504 17.7321 127.504 16.9854H125.783H124.061C124.061 17.176 124.01 17.1329 124.114 17.0115C124.168 16.9473 124.242 16.8932 124.32 16.8606C124.395 16.8295 124.435 16.8336 124.415 16.8331L124.377 18.5545ZM125.783 16.9854H127.504C127.504 16.5089 127.454 15.995 127.299 15.5158C127.153 15.066 126.837 14.4108 126.138 14.0174L125.294 15.5181L124.449 17.0188C124.259 16.9119 124.146 16.781 124.089 16.6977C124.034 16.6176 124.019 16.5665 124.022 16.575C124.024 16.5809 124.035 16.6178 124.044 16.6932C124.054 16.7669 124.061 16.8642 124.061 16.9854H125.783ZM125.294 15.5181L125.151 13.8022C124.884 13.8244 124.738 13.837 124.58 13.837V15.5589V17.2807C124.911 17.2807 125.214 17.2526 125.437 17.234L125.294 15.5181ZM124.58 15.5589V13.837C123.398 13.837 122.529 13.5086 121.995 13.0797C121.49 12.6749 121.207 12.1299 121.207 11.422H119.486H117.764C117.764 13.2004 118.541 14.7238 119.84 15.7658C121.109 16.7838 122.788 17.2807 124.58 17.2807V15.5589ZM119.486 11.422H121.207C121.207 10.5917 121.524 9.9735 122.035 9.53761C122.569 9.08192 123.422 8.7421 124.58 8.7421V7.02027V5.29844C122.763 5.29844 121.069 5.83489 119.8 6.91777C118.507 8.02047 117.764 9.60312 117.764 11.422H119.486ZM124.58 7.02027V8.7421C125.128 8.7421 125.634 8.7858 126.28 8.83833C126.915 8.88993 127.645 8.94588 128.534 8.94588V7.22405V5.50222C127.792 5.50222 127.177 5.45628 126.559 5.40599C125.952 5.35662 125.296 5.29844 124.58 5.29844V7.02027ZM128.534 7.22405V8.94588C128.879 8.94588 129.102 8.95699 129.244 8.97254C129.402 8.98985 129.364 9.00342 129.246 8.95004C129.176 8.91821 129.069 8.85883 128.955 8.75567C128.837 8.64854 128.738 8.5188 128.667 8.37662C128.534 8.11345 128.544 7.90627 128.544 7.9373H130.266H131.988C131.988 7.70341 131.967 7.27461 131.742 6.82803C131.488 6.32316 131.082 6.00123 130.669 5.81393C130.304 5.64846 129.926 5.58307 129.62 5.54943C129.297 5.51404 128.932 5.50222 128.534 5.50222V7.22405ZM123.296 9.5472H121.575C121.575 10.7212 121.825 12.1324 122.218 13.277C122.413 13.8453 122.675 14.4465 123.027 14.9418C123.314 15.347 124 16.1599 125.131 16.1599V14.438V12.7162C125.772 12.7162 125.984 13.1598 125.836 12.9504C125.752 12.8312 125.617 12.5727 125.475 12.1602C125.195 11.3434 125.018 10.3091 125.018 9.5472H123.296ZM125.131 14.438V16.1599C126.16 16.1599 126.864 15.5238 127.206 14.8322C127.498 14.2421 127.566 13.5748 127.566 13.0115H125.844H124.122C124.122 13.1682 124.111 13.2717 124.101 13.3308C124.09 13.3942 124.086 13.3738 124.12 13.3052C124.155 13.2334 124.251 13.0743 124.453 12.9328C124.671 12.7806 124.917 12.7162 125.131 12.7162V14.438ZM125.844 13.0115H127.566C127.566 12.0689 127.334 10.6705 126.967 9.50049C126.783 8.91545 126.532 8.27584 126.191 7.74585C125.925 7.33322 125.229 6.39888 124.01 6.39888V8.12071V9.84254C123.32 9.84254 123.119 9.33614 123.296 9.61129C123.398 9.76907 123.539 10.0771 123.681 10.5313C123.966 11.4399 124.122 12.4869 124.122 13.0115H125.844ZM124.01 8.12071V6.39888C123.029 6.39888 122.317 6.98288 121.955 7.68508C121.648 8.27935 121.575 8.95812 121.575 9.5472H123.296H125.018C125.018 9.38306 125.03 9.2786 125.04 9.2224C125.051 9.16226 125.054 9.18926 125.015 9.26449C124.974 9.3444 124.872 9.50239 124.668 9.63916C124.452 9.78395 124.214 9.84254 124.01 9.84254V8.12071ZM139.142 13.7044L137.924 12.4869V12.4869L139.142 13.7044ZM138.979 10.9329L138.04 9.48928L138.038 9.49056L138.979 10.9329ZM135.29 13.3376L134.35 11.8952L132.779 12.9196L133.933 14.3976L135.29 13.3376ZM134.699 12.1964L133.076 12.7695L133.848 14.9578L135.718 13.5842L134.699 12.1964ZM136.003 11.2386L137.023 12.6264L137.03 12.6213L137.036 12.6161L136.003 11.2386ZM139.142 13.7044L140.359 14.9219C140.086 15.1954 139.603 15.3729 139.086 15.1924C138.501 14.9883 138.215 14.4491 138.215 14.0101H139.936H141.658C141.658 13.1024 141.127 12.2575 140.221 11.9413C139.384 11.6488 138.503 11.9078 137.924 12.4869L139.142 13.7044ZM139.936 14.0101H138.215C138.215 13.9509 138.166 14.3288 137.697 14.7756C137.297 15.1562 136.68 15.4877 135.8 15.4877V17.2095V18.9314C137.629 18.9314 139.081 18.2134 140.072 17.2693C140.994 16.3915 141.658 15.1697 141.658 14.0101H139.936ZM135.8 17.2095V15.4877C134.684 15.4877 133.863 15.1136 133.324 14.5715C132.785 14.0289 132.406 13.1956 132.406 12.0538H130.685H128.963C128.963 13.9891 129.624 15.7337 130.883 16.9996C132.142 18.2662 133.878 18.9314 135.8 18.9314V17.2095ZM130.685 12.0538H132.406C132.406 10.0469 133.938 8.7421 135.738 8.7421V7.02027V5.29844C132.24 5.29844 128.963 7.94704 128.963 12.0538H130.685ZM135.738 7.02027V8.7421C136.779 8.7421 137.355 9.02463 137.634 9.25213C137.924 9.48803 137.95 9.69463 137.95 9.73061H139.672H141.393C141.393 7.24312 139.052 5.29844 135.738 5.29844V7.02027ZM139.672 9.73061H137.95C137.95 9.71764 137.952 9.68783 137.963 9.64742C137.974 9.6069 137.992 9.56873 138.012 9.53636C138.051 9.47246 138.08 9.46367 138.04 9.48928L138.979 10.9329L139.917 12.3766C140.688 11.8754 141.393 10.9986 141.393 9.73061H139.672ZM138.979 10.9329L138.038 9.49056L134.35 11.8952L135.29 13.3376L136.23 14.78L139.919 12.3753L138.979 10.9329ZM135.29 13.3376L133.933 14.3976C134.744 15.4351 135.923 16.0784 137.328 16.0784V14.3565V12.6347C137.062 12.6347 136.855 12.5443 136.647 12.2776L135.29 13.3376ZM137.328 14.3565V16.0784C137.918 16.0784 138.488 15.9548 138.974 15.7736C139.44 15.5998 139.956 15.3248 140.359 14.9219L139.142 13.7044L137.924 12.4869C137.963 12.4485 137.973 12.4484 137.935 12.4712C137.9 12.4916 137.845 12.5195 137.771 12.5471C137.614 12.6054 137.451 12.6347 137.328 12.6347V14.3565ZM135.412 8.12071V6.39888C134.297 6.39888 133.542 7.08461 133.149 7.7302C132.766 8.36024 132.611 9.0986 132.611 9.77137H134.332H136.054C136.054 9.69147 136.064 9.62192 136.077 9.56997C136.09 9.51582 136.102 9.50223 136.091 9.51995C136.081 9.53654 136.03 9.61467 135.91 9.69408C135.778 9.78169 135.602 9.84254 135.412 9.84254V8.12071ZM134.332 9.77137H132.611C132.611 10.8347 132.752 11.8515 133.076 12.7695L134.699 12.1964L136.323 11.6233C136.158 11.1556 136.054 10.5421 136.054 9.77137H134.332ZM134.699 12.1964L135.718 13.5842L137.023 12.6264L136.003 11.2386L134.984 9.85081L133.68 10.8086L134.699 12.1964ZM136.003 11.2386L137.036 12.6161C137.839 12.0143 138.255 11.0523 138.255 10.1178H136.533H134.811C134.811 10.0841 134.818 10.0516 134.835 10.0175C134.85 9.98464 134.887 9.92331 134.97 9.86115L136.003 11.2386ZM136.533 10.1178H138.255C138.255 9.72664 138.206 8.9979 137.944 8.3007C137.699 7.6477 136.991 6.39888 135.412 6.39888V8.12071V9.84254C135.313 9.84254 135.194 9.82273 135.072 9.77209C134.953 9.72241 134.864 9.65675 134.805 9.60011C134.7 9.5001 134.692 9.43598 134.72 9.50985C134.743 9.57229 134.769 9.67412 134.788 9.80605C134.806 9.9341 134.811 10.0494 134.811 10.1178H136.533ZM140.88 8.63017L140.146 7.07289L140.128 7.0813L140.11 7.09012L140.88 8.63017ZM144.12 7.10178L143.395 5.54003L143.386 5.5445L144.12 7.10178ZM144.895 9.0785H143.173L146.533 9.60784L144.895 9.0785ZM147.768 7.02027V8.7421C147.809 8.7421 147.836 8.74594 147.851 8.74911C147.867 8.75226 147.873 8.75526 147.874 8.75556C147.875 8.75584 147.873 8.75509 147.871 8.75335C147.868 8.75168 147.869 8.75138 147.871 8.75432C147.879 8.763 147.962 8.87227 147.962 9.16001H149.684H151.405C151.405 8.22504 151.132 7.26444 150.482 6.50892C149.808 5.72512 148.842 5.29844 147.768 5.29844V7.02027ZM149.684 9.16001H147.962C147.962 9.34784 147.945 9.49082 147.921 9.59089C147.898 9.69146 147.876 9.71669 147.888 9.70032C147.906 9.67363 147.948 9.63028 148.004 9.60218C148.054 9.57702 148.048 9.5983 147.931 9.5983V11.3201V13.042C149.109 13.042 150.11 12.5562 150.736 11.6357C151.285 10.8281 151.405 9.88545 151.405 9.16001H149.684ZM147.931 11.3201V9.5983C147.697 9.5983 147.807 9.54622 147.983 9.69839C148.133 9.82759 148.143 9.95106 148.103 9.81402C148.079 9.73514 148.067 9.67693 148.026 9.51314C147.996 9.39079 147.939 9.16096 147.839 8.92722C147.738 8.68822 147.542 8.3202 147.159 8.01792C146.742 7.68953 146.261 7.56045 145.812 7.56045V9.28228V11.0041C145.602 11.0041 145.301 10.9387 145.026 10.7218C144.784 10.5309 144.69 10.3221 144.67 10.2742C144.652 10.2315 144.655 10.2245 144.684 10.341C144.702 10.416 144.748 10.6125 144.8 10.7884C144.909 11.1608 145.14 11.7937 145.732 12.305C146.351 12.8393 147.126 13.042 147.931 13.042V11.3201ZM145.812 9.28228V7.56045C145.221 7.56045 144.691 7.80199 144.309 8.20239C143.977 8.55038 143.827 8.94263 143.753 9.19705C143.609 9.69219 143.601 10.228 143.601 10.5457H145.323H147.044C147.044 10.4113 147.048 10.3065 147.055 10.2257C147.062 10.1384 147.07 10.1244 147.06 10.1572C147.055 10.1747 147.001 10.3695 146.801 10.5793C146.691 10.6937 146.543 10.8078 146.354 10.8901C146.163 10.9727 145.975 11.0041 145.812 11.0041V9.28228ZM145.323 10.5457H143.601V14.5603H145.323H147.044V10.5457H145.323ZM145.323 14.5603H143.601C143.601 15.8137 144.365 16.5782 144.687 16.8943C144.822 17.0271 144.798 17.0005 144.89 17.092C144.94 17.1417 144.95 17.1544 144.943 17.1464C144.934 17.1351 144.742 16.897 144.742 16.4963H146.464H148.186C148.186 15.7797 147.851 15.2665 147.627 14.9889C147.436 14.7511 147.162 14.4982 147.1 14.4374C146.851 14.193 147.044 14.3055 147.044 14.5603H145.323ZM146.464 16.4963H144.742V16.5778H146.464H148.186V16.4963H146.464ZM146.464 16.5778H144.742C144.742 16.2305 144.895 15.839 145.225 15.5653C145.52 15.3206 145.817 15.2839 145.954 15.2839V17.0057V18.7276C146.398 18.7276 146.949 18.6094 147.422 18.217C147.931 17.7955 148.186 17.19 148.186 16.5778H146.464ZM145.954 17.0057V15.2839H141.084V17.0057V18.7276H145.954V17.0057ZM141.084 17.0057V15.2839C141.222 15.2839 141.518 15.3206 141.813 15.5653C142.143 15.839 142.296 16.2305 142.296 16.5778H140.574H138.853C138.853 17.19 139.107 17.7955 139.616 18.217C140.09 18.6094 140.64 18.7276 141.084 18.7276V17.0057ZM140.574 16.5778H142.296V16.4963H140.574H138.853V16.5778H140.574ZM140.574 16.4963H142.296C142.296 16.7462 142.206 16.9124 142.189 16.941C142.184 16.9495 142.189 16.939 142.224 16.8921C142.293 16.798 142.269 16.8342 142.373 16.6949C142.651 16.321 143.132 15.6223 143.132 14.5603H141.41H139.688C139.688 14.5633 139.688 14.5547 139.691 14.5387C139.695 14.5229 139.699 14.5106 139.702 14.5048C139.704 14.5007 139.694 14.5264 139.612 14.6368C139.569 14.6934 139.362 14.9541 139.221 15.1944C139.048 15.4892 138.853 15.9305 138.853 16.4963H140.574ZM141.41 14.5603H143.132V11.0756H141.41H139.688V14.5603H141.41ZM141.41 11.0756H143.132C143.132 10.4997 142.974 9.99737 142.718 9.57632C142.481 9.1878 142.19 8.92264 142.029 8.78085C141.988 8.74428 141.947 8.70904 141.918 8.68388C141.885 8.65593 141.864 8.63757 141.846 8.62141C141.807 8.58664 141.817 8.5919 141.842 8.62142C141.913 8.70413 142.092 8.96159 142.092 9.34342H140.371H138.649C138.649 10.0411 138.959 10.5482 139.224 10.8589C139.347 11.0024 139.47 11.1163 139.553 11.1902C139.596 11.2284 139.637 11.2645 139.669 11.2917C139.704 11.3217 139.728 11.3423 139.751 11.363C139.85 11.4505 139.819 11.4375 139.777 11.3687C139.716 11.2673 139.688 11.1522 139.688 11.0756H141.41ZM140.371 9.34342H142.092V9.2619H140.371H138.649V9.34342H140.371ZM140.371 9.2619H142.092C142.092 9.56798 141.973 9.83227 141.828 10.0069C141.71 10.1502 141.611 10.1895 141.65 10.1702L140.88 8.63017L140.11 7.09012C139.572 7.3591 138.649 8.01348 138.649 9.2619H140.371ZM140.88 8.63017L141.615 10.1874L144.855 8.65906L144.12 7.10178L143.386 5.5445L140.146 7.07289L140.88 8.63017ZM144.12 7.10178L144.845 8.6635C144.845 8.66381 144.711 8.72809 144.482 8.72809C144.219 8.72809 143.897 8.64069 143.619 8.40924C143.365 8.19717 143.258 7.95676 143.216 7.82666C143.174 7.69721 143.173 7.6097 143.173 7.59087H144.895H146.616C146.616 7.22459 146.549 6.36823 145.824 5.76375C144.947 5.03307 143.932 5.29079 143.395 5.54006L144.12 7.10178ZM144.895 7.59087H143.173V9.0785H144.895H146.616V7.59087H144.895ZM144.895 9.0785L146.533 9.60784C146.659 9.21915 146.819 9.03805 146.948 8.9442C147.076 8.8507 147.313 8.7421 147.768 8.7421V7.02027V5.29844C146.736 5.29844 145.749 5.55664 144.92 6.16111C144.091 6.76522 143.559 7.61323 143.256 8.54915L144.895 9.0785ZM154.366 17.1891V15.4673C153.263 15.4673 152.408 15.2757 151.898 15.0238C151.65 14.9015 151.55 14.7977 151.521 14.7601C151.509 14.7445 151.512 14.7443 151.517 14.7587C151.522 14.7743 151.523 14.7857 151.523 14.7845H149.801H148.079C148.079 16.4675 149.228 17.5461 150.373 18.1114C151.514 18.6747 152.941 18.911 154.366 18.911V17.1891ZM149.801 14.7845H151.523C151.523 14.7314 151.531 14.7558 151.502 14.8233C151.47 14.8958 151.416 14.9666 151.351 15.0189C151.292 15.0667 151.252 15.0767 151.261 15.0739C151.272 15.0706 151.32 15.0594 151.411 15.0594V13.3376V11.6158C150.718 11.6158 149.884 11.7777 149.188 12.339C148.434 12.9475 148.079 13.8348 148.079 14.7845H149.801ZM151.411 13.3376V15.0594C151.56 15.0594 151.494 15.0856 151.42 15.0126C151.417 15.0093 151.477 15.0715 151.605 15.4C151.677 15.5859 151.888 16.2198 152.163 16.6662C152.33 16.9356 152.586 17.2661 152.982 17.5262C153.399 17.8006 153.874 17.9328 154.366 17.9328V16.211V14.4891C154.505 14.4891 154.695 14.5316 154.874 14.6488C155.03 14.7517 155.094 14.8578 155.094 14.8579C155.095 14.86 155.088 14.8478 155.072 14.8134C155.056 14.7792 155.036 14.7329 155.01 14.6682C154.984 14.6026 154.957 14.5312 154.924 14.4412C154.892 14.3563 154.854 14.2531 154.813 14.1486C154.661 13.7588 154.388 13.1026 153.838 12.5605C153.217 11.9488 152.392 11.6158 151.411 11.6158V13.3376ZM154.366 16.211V17.9328C154.862 17.9328 155.568 17.8004 156.141 17.2273C156.716 16.6522 156.882 15.9092 156.882 15.2736H155.16H153.438C153.438 15.3511 153.421 15.0769 153.706 14.7922C153.989 14.5095 154.297 14.4891 154.366 14.4891V16.211ZM155.16 15.2736H156.882C156.882 14.6423 156.722 14.0464 156.385 13.5234C156.061 13.0183 155.633 12.6763 155.242 12.4387C154.549 12.0181 153.62 11.7472 153.127 11.5759C152.487 11.3541 152.146 11.1838 151.946 10.9984C151.835 10.8956 151.686 10.727 151.686 10.1993H149.964H148.242C148.242 11.6178 148.742 12.7254 149.606 13.525C150.38 14.2419 151.338 14.6002 151.998 14.8292C152.803 15.1089 153.173 15.2111 153.455 15.3822C153.551 15.4404 153.529 15.4488 153.489 15.3857C153.437 15.3048 153.438 15.2426 153.438 15.2736H155.16ZM149.964 10.1993H151.686C151.686 9.87506 151.817 9.57666 152.196 9.30319C152.61 9.00446 153.337 8.7421 154.386 8.7421V7.02027V5.29844C152.806 5.29844 151.321 5.68818 150.182 6.51028C149.007 7.35762 148.242 8.64874 148.242 10.1993H149.964ZM154.386 7.02027V8.7421C155.482 8.7421 156.26 8.96845 156.699 9.21993C157.138 9.47129 157.045 9.60493 157.045 9.48607H158.767H160.489C160.489 7.96109 159.51 6.86182 158.411 6.23182C157.311 5.60192 155.898 5.29844 154.386 5.29844V7.02027ZM158.767 9.48607H157.045C157.045 9.33561 157.118 9.22851 157.169 9.18371C157.214 9.14347 157.238 9.14997 157.219 9.14997V10.8718V12.5936C158.833 12.5936 160.489 11.393 160.489 9.48607H158.767ZM157.219 10.8718V9.14997C157.099 9.14997 157.186 9.13319 157.274 9.22279C157.295 9.24366 157.241 9.19697 157.139 8.89872C157.085 8.74311 157.053 8.62961 156.985 8.41475C156.93 8.2395 156.848 7.98991 156.731 7.74477C156.618 7.50523 156.418 7.14957 156.063 6.84859C155.665 6.51057 155.162 6.31736 154.61 6.31736V8.03919V9.76102C154.333 9.76102 154.05 9.65633 153.834 9.47322C153.662 9.32715 153.607 9.19278 153.619 9.2188C153.629 9.23922 153.653 9.29945 153.703 9.45615C153.74 9.57324 153.812 9.81381 153.88 10.0123C154.02 10.4222 154.275 11.0836 154.817 11.6356C155.427 12.2563 156.248 12.5936 157.219 12.5936V10.8718ZM154.61 8.03919V6.31736C153.617 6.31736 152.929 6.9015 152.586 7.5363C152.294 8.07597 152.236 8.64744 152.236 9.03774H153.958H155.68C155.68 8.93895 155.703 9.01115 155.615 9.17382C155.562 9.27242 155.451 9.43096 155.249 9.56409C155.035 9.70546 154.803 9.76102 154.61 9.76102V8.03919ZM153.958 9.03774H152.236C152.236 10.387 152.892 11.3218 153.736 11.9172C154.425 12.4028 155.319 12.7014 155.812 12.8888C156.44 13.1276 156.76 13.2901 156.949 13.4651C157.044 13.5528 157.168 13.6837 157.168 14.1324H158.89H160.611C160.611 12.7673 160.119 11.7061 159.289 10.9379C158.553 10.257 157.64 9.89981 157.036 9.66992C156.296 9.38868 155.957 9.26944 155.721 9.10298C155.64 9.04621 155.68 9.09457 155.68 9.03774H153.958ZM158.89 14.1324H157.168C157.168 14.4033 157.067 14.6614 156.72 14.9092C156.33 15.1877 155.584 15.4673 154.366 15.4673V17.1891V18.911C156.061 18.911 157.578 18.5283 158.721 17.7114C159.908 16.8639 160.611 15.5936 160.611 14.1324H158.89Z" fill="#FFF6EF" mask="url(#path-1-outside-1_17103_392)"/>
</svg>
