<svg width="134" height="20" viewBox="0 0 134 20" fill="none" xmlns="http://www.w3.org/2000/svg">
<mask id="path-1-outside-1_17103_393" maskUnits="userSpaceOnUse" x="-0.0117188" y="-0.819824" width="134" height="20" fill="black">
<rect fill="white" x="-0.0117188" y="-0.819824" width="134" height="20"/>
<path d="M2.23137 17.1802C1.92569 17.1802 1.72191 17.0171 1.72191 16.7522V16.6707C1.72191 16.039 2.55743 15.7333 2.55743 14.7348V5.15685C2.55743 4.15831 1.72191 3.85263 1.72191 3.22089V3.13938C1.72191 2.87446 1.92569 2.71143 2.23137 2.71143H7.16297C13.2561 2.71143 16.3537 5.72745 16.3537 10.0885C16.3537 14.2049 13.2561 17.1802 8.22265 17.1802H2.23137ZM8.69136 15.5907H9.30271C10.7903 15.5907 11.9519 14.5106 11.9519 12.1059C11.9519 8.17287 10.2197 4.30096 7.77433 4.30096H7.71319C7.18335 4.30096 6.69426 4.5455 6.69426 5.36064V13.2471C6.69426 14.7348 7.42789 15.5907 8.69136 15.5907ZM27.0007 14.7959C27.2044 16.3039 27.9992 15.9778 27.9992 16.5688C27.9992 17.1598 26.6542 17.3024 25.4519 17.3024C24.1477 17.3024 23.5363 17.0579 23.3529 16.4058C22.925 16.9356 22.1506 17.384 20.8463 17.384C18.6862 17.384 16.9744 16.4058 16.9744 14.2864C16.9744 12.2078 18.727 11.1481 20.6222 11.1481C21.4169 11.1481 22.0691 11.3112 22.5785 11.5965C22.334 9.23256 22.3136 8.25439 21.3966 8.25439C20.1942 8.25439 20.826 11.087 18.8085 11.087C17.8507 11.087 17.1986 10.496 17.1986 9.61975C17.1986 7.80606 19.3587 7.1947 21.3966 7.1947C24.1884 7.1947 26.2059 8.78423 26.5319 11.2704L27.0007 14.7959ZM22.1506 16.2428C22.66 16.2428 22.925 15.4888 22.8842 14.9182L22.8027 13.9604C22.6397 12.6969 22.1913 12.3301 21.8041 12.3301C21.3966 12.3301 21.1113 12.7988 21.1113 13.4917C21.1113 14.9589 21.4781 16.2428 22.1506 16.2428ZM39.6654 14.7551C39.7469 15.7537 40.399 16.0594 40.399 16.6911V16.7726C40.399 17.0375 40.1953 17.2006 39.8896 17.2006H35.3859C35.0803 17.2006 34.8765 17.0375 34.8765 16.7726V16.6911C34.8765 16.0594 35.6712 15.7537 35.6101 14.7551L35.4063 11.2296C35.3044 9.33445 35.0803 8.68234 34.2855 8.68234C33.5519 8.68234 33.2869 9.37521 33.2869 10.4349V14.7551C33.2869 15.7537 34.2244 16.0594 34.2244 16.6911V16.7726C34.2244 17.0375 34.0206 17.2006 33.7149 17.2006H28.8037C28.498 17.2006 28.2942 17.0375 28.2942 16.7726V16.6911C28.2942 16.0594 29.2316 15.7537 29.2316 14.7551V11.3112C29.2316 10.3126 28.0904 10.1292 28.0904 9.49748V9.41596C28.0904 9.15104 28.3146 9.02877 28.6203 8.86574L31.8197 7.27622C32.3699 6.99092 32.6552 7.37811 32.6552 7.80606V8.64158C33.1851 7.70417 34.1836 7.1947 35.5082 7.1947C37.22 7.1947 39.1356 8.09136 39.4005 11.3723L39.6654 14.7551ZM43.8217 6.39994C42.2729 6.39994 41.2336 5.4014 41.2336 4.13793C41.2336 2.87446 42.2729 1.89629 43.8217 1.89629C45.3705 1.89629 46.4098 2.87446 46.4098 4.13793C46.4098 5.4014 45.3705 6.39994 43.8217 6.39994ZM41.3763 17.1802C41.0706 17.1802 40.8668 17.0171 40.8668 16.7522V16.6707C40.8668 16.039 41.7023 15.7333 41.7023 14.7348V11.4538C41.7023 10.4553 40.8668 10.1496 40.8668 9.59937V9.51786C40.8668 9.27331 41.0706 9.15104 41.3763 9.00839L44.861 7.2966C45.4723 6.99092 45.8595 7.35773 45.8595 7.7653V14.7348C45.8595 15.7333 46.7969 16.039 46.7969 16.6707V16.7522C46.7969 17.0171 46.5932 17.1802 46.2875 17.1802H41.3763ZM55.7049 13.8789C56.0106 13.5732 56.4997 13.7158 56.4997 14.1845C56.4997 15.285 55.0732 17.384 52.3628 17.384C49.3264 17.384 47.2478 15.3054 47.2478 12.2282C47.2478 9.17142 49.6525 7.1947 52.3017 7.1947C55.012 7.1947 56.2347 8.68234 56.2347 9.90505C56.2347 10.4553 55.9494 10.8425 55.5419 11.1074L51.8534 13.512C52.3628 14.1642 53.0557 14.531 53.8912 14.531C54.6045 14.531 55.3585 14.2253 55.7049 13.8789ZM51.9756 8.29514C51.3031 8.29514 50.8956 9.08991 50.8956 9.9458C50.8956 10.8628 51.0178 11.678 51.2624 12.3708L52.5666 11.4131C52.8927 11.1685 53.0965 10.7406 53.0965 10.2922C53.0965 9.72164 52.9334 8.29514 51.9756 8.29514ZM57.4229 17.1802C57.1172 17.1802 56.9134 17.0171 56.9134 16.7522V16.6707C56.9134 16.039 57.749 15.7333 57.749 14.7348V5.99237C57.749 4.99382 56.9134 4.68815 56.9134 4.13793V4.05641C56.9134 3.81187 57.1172 3.6896 57.4229 3.54695L60.9076 1.83516C61.519 1.52948 61.9062 1.89629 61.9062 2.30386V14.7348C61.9062 15.7333 62.8436 16.039 62.8436 16.6707V16.7522C62.8436 17.0171 62.6398 17.1802 62.3341 17.1802H57.4229ZM76.8185 9.39558C79.0805 9.74202 80.5274 11.1481 80.5274 13.0841C80.5274 15.4684 78.5099 17.1802 73.3338 17.1802H67.8112C67.5055 17.1802 67.3017 17.0171 67.3017 16.7522V16.6707C67.3017 16.039 68.1372 15.7333 68.1372 14.7348V5.15685C68.1372 4.15831 67.3017 3.85263 67.3017 3.22089V3.13938C67.3017 2.87446 67.5055 2.71143 67.8112 2.71143H73.7413C77.5113 2.71143 79.0805 4.36209 79.0805 6.39994C79.0805 7.90795 78.1838 9.02877 76.8185 9.39558ZM72.2741 5.44215V7.62265C72.2741 8.3359 72.7632 8.76385 73.4764 8.76385H74.1693C74.9844 8.76385 75.5346 8.07098 75.5346 6.99092C75.5346 5.27912 74.7602 4.30096 73.5987 4.30096H73.3338C72.7632 4.30096 72.2741 4.5455 72.2741 5.44215ZM74.6787 15.5907C75.5346 15.5907 76.1256 14.7755 76.1256 13.6955C76.1256 12.2893 74.9844 10.333 72.702 10.333H72.2741V13.6547C72.2741 14.7348 72.9466 15.5907 73.9859 15.5907H74.6787ZM89.5173 13.8789C89.823 13.5732 90.3121 13.7158 90.3121 14.1845C90.3121 15.285 88.8856 17.384 86.1752 17.384C83.1388 17.384 81.0602 15.3054 81.0602 12.2282C81.0602 9.17142 83.4649 7.1947 86.1141 7.1947C88.8244 7.1947 90.0472 8.68234 90.0472 9.90505C90.0472 10.4553 89.7619 10.8425 89.3543 11.1074L85.6658 13.512C86.1752 14.1642 86.8681 14.531 87.7036 14.531C88.4169 14.531 89.1709 14.2253 89.5173 13.8789ZM85.788 8.29514C85.1156 8.29514 84.708 9.08991 84.708 9.9458C84.708 10.8628 84.8303 11.678 85.0748 12.3708L86.379 11.4131C86.7051 11.1685 86.9089 10.7406 86.9089 10.2922C86.9089 9.72164 86.7458 8.29514 85.788 8.29514ZM96.0854 17.384C92.7841 17.384 90.7666 14.8774 90.7666 12.2893C90.7666 9.06953 93.1917 7.21508 95.9428 7.1947C98.3882 7.17433 100.385 8.3359 100.385 10.3534C100.385 11.0055 99.9573 11.6984 98.7142 11.6372C96.4115 11.4946 96.6356 8.25439 95.3518 8.29514C94.6997 8.31552 94.2921 9.17142 94.2921 10.2311C94.2921 12.8192 95.5352 14.5513 97.4711 14.5513C98.5512 14.5513 99.1829 14.0215 99.5905 13.5528C99.8758 13.2267 100.406 13.349 100.406 13.8177C100.406 15.6518 98.9995 17.384 96.0854 17.384ZM112.282 15.3257C112.588 15.7741 113.484 16.039 113.484 16.6707V16.7522C113.484 17.0171 113.281 17.1802 112.975 17.1802H108.288C107.982 17.1802 107.778 16.9968 107.778 16.7318V16.6503C107.778 16.039 108.532 15.8352 108.206 15.3257L106.759 12.9618L105.883 13.777V14.7348C105.883 15.7333 106.821 16.039 106.821 16.6707V16.7522C106.821 17.0171 106.617 17.1802 106.311 17.1802H101.4C101.094 17.1802 100.89 17.0171 100.89 16.7522V16.6707C100.89 16.039 101.726 15.7333 101.726 14.7348V5.99237C101.726 4.99382 100.687 4.68815 100.687 4.13793V4.05641C100.687 3.81187 100.89 3.6896 101.196 3.54695L104.885 1.83516C105.496 1.54986 105.883 1.89629 105.883 2.30386V11.8206L108.267 9.80315C108.92 9.25293 107.738 8.53969 107.738 7.92833V7.84682C107.738 7.5819 107.941 7.39849 108.247 7.39849H111.711C112.017 7.39849 112.221 7.56152 112.221 7.82644V7.90795C112.221 8.53969 111.039 8.98801 110.183 9.78278L109.164 10.7406L112.282 15.3257ZM121.165 13.8789C121.471 13.5732 121.96 13.7158 121.96 14.1845C121.96 15.285 120.534 17.384 117.823 17.384C114.787 17.384 112.708 15.3054 112.708 12.2282C112.708 9.17142 115.113 7.1947 117.762 7.1947C120.472 7.1947 121.695 8.68234 121.695 9.90505C121.695 10.4553 121.41 10.8425 121.002 11.1074L117.314 13.512C117.823 14.1642 118.516 14.531 119.352 14.531C120.065 14.531 120.819 14.2253 121.165 13.8789ZM117.436 8.29514C116.764 8.29514 116.356 9.08991 116.356 9.9458C116.356 10.8628 116.478 11.678 116.723 12.3708L118.027 11.4131C118.353 11.1685 118.557 10.7406 118.557 10.2922C118.557 9.72164 118.394 8.29514 117.436 8.29514ZM129.792 7.1947C130.994 7.1947 131.707 8.11174 131.707 9.33445C131.707 10.4756 131.3 11.4946 129.955 11.4946C127.876 11.4946 128.793 9.45672 127.835 9.45672C127.407 9.45672 127.346 10.0885 127.346 10.7202V14.7348C127.346 15.7333 128.487 16.039 128.487 16.6707V16.7522C128.487 17.0171 128.284 17.1802 127.978 17.1802H123.107C122.802 17.1802 122.598 17.0171 122.598 16.7522V16.6707C122.598 16.039 123.434 15.7333 123.434 14.7348V11.25C123.434 10.2515 122.394 10.1496 122.394 9.51786V9.43634C122.394 9.17142 122.578 8.96764 122.904 8.80461L126.144 7.27622C126.714 7.0113 126.918 7.33735 126.918 7.7653V9.25293C127.346 7.92833 128.304 7.1947 129.792 7.1947Z"/>
</mask>
<path d="M2.23137 17.1802C1.92569 17.1802 1.72191 17.0171 1.72191 16.7522V16.6707C1.72191 16.039 2.55743 15.7333 2.55743 14.7348V5.15685C2.55743 4.15831 1.72191 3.85263 1.72191 3.22089V3.13938C1.72191 2.87446 1.92569 2.71143 2.23137 2.71143H7.16297C13.2561 2.71143 16.3537 5.72745 16.3537 10.0885C16.3537 14.2049 13.2561 17.1802 8.22265 17.1802H2.23137ZM8.69136 15.5907H9.30271C10.7903 15.5907 11.9519 14.5106 11.9519 12.1059C11.9519 8.17287 10.2197 4.30096 7.77433 4.30096H7.71319C7.18335 4.30096 6.69426 4.5455 6.69426 5.36064V13.2471C6.69426 14.7348 7.42789 15.5907 8.69136 15.5907ZM27.0007 14.7959C27.2044 16.3039 27.9992 15.9778 27.9992 16.5688C27.9992 17.1598 26.6542 17.3024 25.4519 17.3024C24.1477 17.3024 23.5363 17.0579 23.3529 16.4058C22.925 16.9356 22.1506 17.384 20.8463 17.384C18.6862 17.384 16.9744 16.4058 16.9744 14.2864C16.9744 12.2078 18.727 11.1481 20.6222 11.1481C21.4169 11.1481 22.0691 11.3112 22.5785 11.5965C22.334 9.23256 22.3136 8.25439 21.3966 8.25439C20.1942 8.25439 20.826 11.087 18.8085 11.087C17.8507 11.087 17.1986 10.496 17.1986 9.61975C17.1986 7.80606 19.3587 7.1947 21.3966 7.1947C24.1884 7.1947 26.2059 8.78423 26.5319 11.2704L27.0007 14.7959ZM22.1506 16.2428C22.66 16.2428 22.925 15.4888 22.8842 14.9182L22.8027 13.9604C22.6397 12.6969 22.1913 12.3301 21.8041 12.3301C21.3966 12.3301 21.1113 12.7988 21.1113 13.4917C21.1113 14.9589 21.4781 16.2428 22.1506 16.2428ZM39.6654 14.7551C39.7469 15.7537 40.399 16.0594 40.399 16.6911V16.7726C40.399 17.0375 40.1953 17.2006 39.8896 17.2006H35.3859C35.0803 17.2006 34.8765 17.0375 34.8765 16.7726V16.6911C34.8765 16.0594 35.6712 15.7537 35.6101 14.7551L35.4063 11.2296C35.3044 9.33445 35.0803 8.68234 34.2855 8.68234C33.5519 8.68234 33.2869 9.37521 33.2869 10.4349V14.7551C33.2869 15.7537 34.2244 16.0594 34.2244 16.6911V16.7726C34.2244 17.0375 34.0206 17.2006 33.7149 17.2006H28.8037C28.498 17.2006 28.2942 17.0375 28.2942 16.7726V16.6911C28.2942 16.0594 29.2316 15.7537 29.2316 14.7551V11.3112C29.2316 10.3126 28.0904 10.1292 28.0904 9.49748V9.41596C28.0904 9.15104 28.3146 9.02877 28.6203 8.86574L31.8197 7.27622C32.3699 6.99092 32.6552 7.37811 32.6552 7.80606V8.64158C33.1851 7.70417 34.1836 7.1947 35.5082 7.1947C37.22 7.1947 39.1356 8.09136 39.4005 11.3723L39.6654 14.7551ZM43.8217 6.39994C42.2729 6.39994 41.2336 5.4014 41.2336 4.13793C41.2336 2.87446 42.2729 1.89629 43.8217 1.89629C45.3705 1.89629 46.4098 2.87446 46.4098 4.13793C46.4098 5.4014 45.3705 6.39994 43.8217 6.39994ZM41.3763 17.1802C41.0706 17.1802 40.8668 17.0171 40.8668 16.7522V16.6707C40.8668 16.039 41.7023 15.7333 41.7023 14.7348V11.4538C41.7023 10.4553 40.8668 10.1496 40.8668 9.59937V9.51786C40.8668 9.27331 41.0706 9.15104 41.3763 9.00839L44.861 7.2966C45.4723 6.99092 45.8595 7.35773 45.8595 7.7653V14.7348C45.8595 15.7333 46.7969 16.039 46.7969 16.6707V16.7522C46.7969 17.0171 46.5932 17.1802 46.2875 17.1802H41.3763ZM55.7049 13.8789C56.0106 13.5732 56.4997 13.7158 56.4997 14.1845C56.4997 15.285 55.0732 17.384 52.3628 17.384C49.3264 17.384 47.2478 15.3054 47.2478 12.2282C47.2478 9.17142 49.6525 7.1947 52.3017 7.1947C55.012 7.1947 56.2347 8.68234 56.2347 9.90505C56.2347 10.4553 55.9494 10.8425 55.5419 11.1074L51.8534 13.512C52.3628 14.1642 53.0557 14.531 53.8912 14.531C54.6045 14.531 55.3585 14.2253 55.7049 13.8789ZM51.9756 8.29514C51.3031 8.29514 50.8956 9.08991 50.8956 9.9458C50.8956 10.8628 51.0178 11.678 51.2624 12.3708L52.5666 11.4131C52.8927 11.1685 53.0965 10.7406 53.0965 10.2922C53.0965 9.72164 52.9334 8.29514 51.9756 8.29514ZM57.4229 17.1802C57.1172 17.1802 56.9134 17.0171 56.9134 16.7522V16.6707C56.9134 16.039 57.749 15.7333 57.749 14.7348V5.99237C57.749 4.99382 56.9134 4.68815 56.9134 4.13793V4.05641C56.9134 3.81187 57.1172 3.6896 57.4229 3.54695L60.9076 1.83516C61.519 1.52948 61.9062 1.89629 61.9062 2.30386V14.7348C61.9062 15.7333 62.8436 16.039 62.8436 16.6707V16.7522C62.8436 17.0171 62.6398 17.1802 62.3341 17.1802H57.4229ZM76.8185 9.39558C79.0805 9.74202 80.5274 11.1481 80.5274 13.0841C80.5274 15.4684 78.5099 17.1802 73.3338 17.1802H67.8112C67.5055 17.1802 67.3017 17.0171 67.3017 16.7522V16.6707C67.3017 16.039 68.1372 15.7333 68.1372 14.7348V5.15685C68.1372 4.15831 67.3017 3.85263 67.3017 3.22089V3.13938C67.3017 2.87446 67.5055 2.71143 67.8112 2.71143H73.7413C77.5113 2.71143 79.0805 4.36209 79.0805 6.39994C79.0805 7.90795 78.1838 9.02877 76.8185 9.39558ZM72.2741 5.44215V7.62265C72.2741 8.3359 72.7632 8.76385 73.4764 8.76385H74.1693C74.9844 8.76385 75.5346 8.07098 75.5346 6.99092C75.5346 5.27912 74.7602 4.30096 73.5987 4.30096H73.3338C72.7632 4.30096 72.2741 4.5455 72.2741 5.44215ZM74.6787 15.5907C75.5346 15.5907 76.1256 14.7755 76.1256 13.6955C76.1256 12.2893 74.9844 10.333 72.702 10.333H72.2741V13.6547C72.2741 14.7348 72.9466 15.5907 73.9859 15.5907H74.6787ZM89.5173 13.8789C89.823 13.5732 90.3121 13.7158 90.3121 14.1845C90.3121 15.285 88.8856 17.384 86.1752 17.384C83.1388 17.384 81.0602 15.3054 81.0602 12.2282C81.0602 9.17142 83.4649 7.1947 86.1141 7.1947C88.8244 7.1947 90.0472 8.68234 90.0472 9.90505C90.0472 10.4553 89.7619 10.8425 89.3543 11.1074L85.6658 13.512C86.1752 14.1642 86.8681 14.531 87.7036 14.531C88.4169 14.531 89.1709 14.2253 89.5173 13.8789ZM85.788 8.29514C85.1156 8.29514 84.708 9.08991 84.708 9.9458C84.708 10.8628 84.8303 11.678 85.0748 12.3708L86.379 11.4131C86.7051 11.1685 86.9089 10.7406 86.9089 10.2922C86.9089 9.72164 86.7458 8.29514 85.788 8.29514ZM96.0854 17.384C92.7841 17.384 90.7666 14.8774 90.7666 12.2893C90.7666 9.06953 93.1917 7.21508 95.9428 7.1947C98.3882 7.17433 100.385 8.3359 100.385 10.3534C100.385 11.0055 99.9573 11.6984 98.7142 11.6372C96.4115 11.4946 96.6356 8.25439 95.3518 8.29514C94.6997 8.31552 94.2921 9.17142 94.2921 10.2311C94.2921 12.8192 95.5352 14.5513 97.4711 14.5513C98.5512 14.5513 99.1829 14.0215 99.5905 13.5528C99.8758 13.2267 100.406 13.349 100.406 13.8177C100.406 15.6518 98.9995 17.384 96.0854 17.384ZM112.282 15.3257C112.588 15.7741 113.484 16.039 113.484 16.6707V16.7522C113.484 17.0171 113.281 17.1802 112.975 17.1802H108.288C107.982 17.1802 107.778 16.9968 107.778 16.7318V16.6503C107.778 16.039 108.532 15.8352 108.206 15.3257L106.759 12.9618L105.883 13.777V14.7348C105.883 15.7333 106.821 16.039 106.821 16.6707V16.7522C106.821 17.0171 106.617 17.1802 106.311 17.1802H101.4C101.094 17.1802 100.89 17.0171 100.89 16.7522V16.6707C100.89 16.039 101.726 15.7333 101.726 14.7348V5.99237C101.726 4.99382 100.687 4.68815 100.687 4.13793V4.05641C100.687 3.81187 100.89 3.6896 101.196 3.54695L104.885 1.83516C105.496 1.54986 105.883 1.89629 105.883 2.30386V11.8206L108.267 9.80315C108.92 9.25293 107.738 8.53969 107.738 7.92833V7.84682C107.738 7.5819 107.941 7.39849 108.247 7.39849H111.711C112.017 7.39849 112.221 7.56152 112.221 7.82644V7.90795C112.221 8.53969 111.039 8.98801 110.183 9.78278L109.164 10.7406L112.282 15.3257ZM121.165 13.8789C121.471 13.5732 121.96 13.7158 121.96 14.1845C121.96 15.285 120.534 17.384 117.823 17.384C114.787 17.384 112.708 15.3054 112.708 12.2282C112.708 9.17142 115.113 7.1947 117.762 7.1947C120.472 7.1947 121.695 8.68234 121.695 9.90505C121.695 10.4553 121.41 10.8425 121.002 11.1074L117.314 13.512C117.823 14.1642 118.516 14.531 119.352 14.531C120.065 14.531 120.819 14.2253 121.165 13.8789ZM117.436 8.29514C116.764 8.29514 116.356 9.08991 116.356 9.9458C116.356 10.8628 116.478 11.678 116.723 12.3708L118.027 11.4131C118.353 11.1685 118.557 10.7406 118.557 10.2922C118.557 9.72164 118.394 8.29514 117.436 8.29514ZM129.792 7.1947C130.994 7.1947 131.707 8.11174 131.707 9.33445C131.707 10.4756 131.3 11.4946 129.955 11.4946C127.876 11.4946 128.793 9.45672 127.835 9.45672C127.407 9.45672 127.346 10.0885 127.346 10.7202V14.7348C127.346 15.7333 128.487 16.039 128.487 16.6707V16.7522C128.487 17.0171 128.284 17.1802 127.978 17.1802H123.107C122.802 17.1802 122.598 17.0171 122.598 16.7522V16.6707C122.598 16.039 123.434 15.7333 123.434 14.7348V11.25C123.434 10.2515 122.394 10.1496 122.394 9.51786V9.43634C122.394 9.17142 122.578 8.96764 122.904 8.80461L126.144 7.27622C126.714 7.0113 126.918 7.33735 126.918 7.7653V9.25293C127.346 7.92833 128.304 7.1947 129.792 7.1947Z" fill="#2260A1"/>
<path d="M2.23137 17.1802V15.4583C2.36909 15.4583 2.66524 15.495 2.96057 15.7397C3.29089 16.0134 3.44374 16.4049 3.44374 16.7522H1.72191H7.66516e-05C7.66516e-05 17.3645 0.254822 17.97 0.763451 18.3914C1.23709 18.7838 1.78797 18.902 2.23137 18.902V17.1802ZM1.72191 16.7522H3.44374V16.6707H1.72191H7.66516e-05V16.7522H1.72191ZM1.72191 16.6707H3.44374C3.44374 16.9207 3.3532 17.0869 3.33638 17.1154C3.33141 17.1239 3.33688 17.1134 3.37148 17.0665C3.44098 16.9724 3.41633 17.0086 3.52014 16.8694C3.79885 16.4955 4.27926 15.7968 4.27926 14.7348H2.55743H0.835596C0.835596 14.7378 0.835469 14.7292 0.838947 14.7132C0.842382 14.6974 0.846994 14.685 0.849538 14.6792C0.851345 14.6751 0.84146 14.7009 0.759196 14.8112C0.716967 14.8679 0.509957 15.1285 0.368535 15.3688C0.19505 15.6636 7.66516e-05 16.1049 7.66516e-05 16.6707H1.72191ZM2.55743 14.7348H4.27926V5.15685H2.55743H0.835596V14.7348H2.55743ZM2.55743 5.15685H4.27926C4.27926 4.09484 3.79885 3.39613 3.52014 3.02224C3.41633 2.88299 3.44098 2.91921 3.37148 2.82508C3.33688 2.77821 3.33141 2.76771 3.33638 2.77617C3.3532 2.80476 3.44374 2.97094 3.44374 3.22089H1.72191H7.66516e-05C7.66516e-05 3.78672 0.19505 4.22801 0.368535 4.52279C0.509957 4.76309 0.716967 5.02375 0.759196 5.0804C0.84146 5.19075 0.851345 5.2165 0.849538 5.21237C0.846994 5.20656 0.842382 5.19425 0.838947 5.17844C0.835469 5.16244 0.835596 5.15385 0.835596 5.15685H2.55743ZM1.72191 3.22089H3.44374V3.13938H1.72191H7.66516e-05V3.22089H1.72191ZM1.72191 3.13938H3.44374C3.44374 3.48668 3.29089 3.87822 2.96057 4.15191C2.66524 4.39661 2.36909 4.43326 2.23137 4.43326V2.71143V0.989601C1.78797 0.989601 1.23709 1.10777 0.76345 1.50021C0.254822 1.92165 7.66516e-05 2.52716 7.66516e-05 3.13938H1.72191ZM2.23137 2.71143V4.43326H7.16297V2.71143V0.989601H2.23137V2.71143ZM7.16297 2.71143V4.43326C9.94468 4.43326 11.7998 5.1222 12.9314 6.07924C14.0281 7.00685 14.6318 8.3416 14.6318 10.0885H16.3537H18.0755C18.0755 7.4743 17.1305 5.12054 15.1552 3.4499C13.2147 1.80867 10.4744 0.989601 7.16297 0.989601V2.71143ZM16.3537 10.0885H14.6318C14.6318 11.6923 14.0404 12.9868 13.0263 13.896C11.9985 14.8175 10.4031 15.4583 8.22265 15.4583V17.1802V18.902C11.0757 18.902 13.5458 18.0553 15.3251 16.46C17.1182 14.8524 18.0755 12.6011 18.0755 10.0885H16.3537ZM8.22265 17.1802V15.4583H2.23137V17.1802V18.902H8.22265V17.1802ZM8.69136 15.5907V17.3125H9.30271V15.5907V13.8688H8.69136V15.5907ZM9.30271 15.5907V17.3125C10.4891 17.3125 11.6623 16.8653 12.507 15.8535C13.3222 14.877 13.6738 13.5652 13.6738 12.1059H11.9519H10.2301C10.2301 13.0513 10.0009 13.4819 9.8634 13.6466C9.75536 13.776 9.60397 13.8688 9.30271 13.8688V15.5907ZM11.9519 12.1059H13.6738C13.6738 9.91508 13.1963 7.68947 12.3164 5.95102C11.4835 4.30528 9.99274 2.57912 7.77433 2.57912V4.30096V6.02279C8.00134 6.02279 8.59936 6.23259 9.24388 7.50607C9.84148 8.68684 10.2301 10.3637 10.2301 12.1059H11.9519ZM7.77433 4.30096V2.57912H7.71319V4.30096V6.02279H7.77433V4.30096ZM7.71319 4.30096V2.57912C7.21766 2.57912 6.49519 2.68961 5.8787 3.22279C5.21513 3.79669 4.97243 4.59728 4.97243 5.36064H6.69426H8.4161C8.4161 5.32616 8.4215 5.37927 8.3812 5.48169C8.33738 5.59303 8.25591 5.71974 8.13138 5.82745C7.89189 6.03458 7.67888 6.02279 7.71319 6.02279V4.30096ZM6.69426 5.36064H4.97243V13.2471H6.69426H8.4161V5.36064H6.69426ZM6.69426 13.2471H4.97243C4.97243 14.2521 5.2192 15.2859 5.90935 16.0946C6.63246 16.9418 7.64644 17.3125 8.69136 17.3125V15.5907V13.8688C8.5698 13.8688 8.51855 13.8485 8.5129 13.8461C8.51227 13.8459 8.52305 13.8524 8.52868 13.8589C8.53614 13.8677 8.4161 13.7298 8.4161 13.2471H6.69426ZM27.0007 14.7959L25.2938 15.0228L25.2943 15.0265L27.0007 14.7959ZM23.3529 16.4058L25.0104 15.9396L24.1079 12.7307L22.0134 15.3239L23.3529 16.4058ZM22.5785 11.5965L21.7372 13.0988L24.6327 14.7202L24.2912 11.4193L22.5785 11.5965ZM26.5319 11.2704L24.8247 11.4943L24.8251 11.4973L26.5319 11.2704ZM22.8842 14.9182L24.6017 14.7955L24.6008 14.7838L24.5998 14.7722L22.8842 14.9182ZM22.8027 13.9604L24.5183 13.8144L24.5151 13.7771L24.5104 13.74L22.8027 13.9604ZM27.0007 14.7959L25.2943 15.0265C25.3659 15.5562 25.5032 16.0293 25.7282 16.4452C25.9635 16.8802 26.2488 17.1676 26.4952 17.3663C26.5971 17.4486 26.7052 17.5245 26.7281 17.5411C26.7768 17.5762 26.7289 17.5453 26.667 17.4846C26.5895 17.4087 26.4741 17.2736 26.3872 17.0749C26.2999 16.8754 26.2774 16.6943 26.2774 16.5688H27.9992H29.721C29.721 16.2956 29.6737 15.9954 29.5422 15.6947C29.411 15.3949 29.2318 15.1765 29.0767 15.0245C28.9371 14.8877 28.7975 14.7878 28.7458 14.7504C28.7036 14.7199 28.6994 14.7172 28.6764 14.7004C28.6694 14.6952 28.6648 14.6918 28.6616 14.6894C28.6586 14.687 28.6574 14.6861 28.6575 14.6862C28.6797 14.7041 28.7281 14.7532 28.7571 14.8068C28.7757 14.8412 28.7373 14.7896 28.707 14.5653L27.0007 14.7959ZM27.9992 16.5688H26.2774C26.2774 16.2947 26.3612 16.039 26.4935 15.8346C26.615 15.6469 26.7493 15.544 26.8159 15.4996C26.9275 15.4253 26.9595 15.4412 26.7982 15.4775C26.5012 15.5443 26.0172 15.5806 25.4519 15.5806V17.3024V19.0243C26.0889 19.0243 26.8786 18.9892 27.5546 18.837C27.8799 18.7638 28.3232 18.6332 28.7246 18.3659C29.156 18.0786 29.721 17.4911 29.721 16.5688H27.9992ZM25.4519 17.3024V15.5806C25.1747 15.5806 24.9741 15.5673 24.8314 15.5479C24.6863 15.5282 24.6391 15.5071 24.6503 15.5118C24.6706 15.5203 24.7586 15.5628 24.8529 15.6672C24.9497 15.7744 24.9941 15.8816 25.0104 15.9396L23.3529 16.4058L21.6954 16.872C21.9366 17.7297 22.5183 18.3506 23.3139 18.6856C23.9806 18.9663 24.7443 19.0243 25.4519 19.0243V17.3024ZM23.3529 16.4058L22.0134 15.3239C21.9743 15.3723 21.8979 15.4466 21.7417 15.5145C21.581 15.5844 21.3008 15.6621 20.8463 15.6621V17.384V19.1058C22.577 19.1058 23.8828 18.49 24.6924 17.4877L23.3529 16.4058ZM20.8463 17.384V15.6621C19.994 15.6621 19.4244 15.4647 19.1155 15.2392C18.8777 15.0656 18.6963 14.8165 18.6963 14.2864H16.9744H15.2526C15.2526 15.8757 15.927 17.1753 17.0852 18.0207C18.1722 18.8141 19.5386 19.1058 20.8463 19.1058V17.384ZM16.9744 14.2864H18.6963C18.6963 13.7907 18.8793 13.5032 19.1444 13.2972C19.4563 13.0548 19.9722 12.87 20.6222 12.87V11.1481V9.42631C19.377 9.42631 18.069 9.77136 17.0309 10.5784C15.9458 11.4219 15.2526 12.7036 15.2526 14.2864H16.9744ZM20.6222 11.1481V12.87C21.1846 12.87 21.5341 12.985 21.7372 13.0988L22.5785 11.5965L23.4198 10.0942C22.604 9.6373 21.6493 9.42631 20.6222 9.42631V11.1481ZM22.5785 11.5965L24.2912 11.4193C24.1818 10.3615 24.0998 9.3007 23.8985 8.57732C23.7902 8.18808 23.5863 7.64156 23.123 7.199C22.5973 6.69692 21.9604 6.53256 21.3966 6.53256V8.25439V9.97622C21.2913 9.97622 21.0008 9.93412 20.7445 9.68932C20.5505 9.50404 20.539 9.34981 20.5809 9.5006C20.6187 9.63637 20.6609 9.87024 20.7099 10.2811C20.7585 10.6877 20.802 11.1568 20.8658 11.7736L22.5785 11.5965ZM21.3966 8.25439V6.53256C20.8744 6.53256 20.3853 6.69747 19.9799 7.00613C19.6082 7.28909 19.3841 7.63374 19.2488 7.88785C19.0227 8.3125 18.8428 8.9287 18.7807 9.10867C18.6675 9.43654 18.612 9.4958 18.6253 9.48133C18.7157 9.38262 18.8413 9.36517 18.8085 9.36517V11.087V12.8088C19.7844 12.8088 20.5876 12.4373 21.1646 11.8075C21.6643 11.2619 21.9044 10.613 22.0357 10.2327C22.0716 10.1287 22.1049 10.0271 22.1329 9.94141C22.1624 9.85101 22.186 9.77894 22.2093 9.71127C22.2322 9.64476 22.2503 9.59597 22.2654 9.55875C22.2727 9.54074 22.2784 9.52758 22.2826 9.51842C22.2868 9.50923 22.2889 9.50548 22.2885 9.50612C22.2882 9.50674 22.2847 9.51328 22.2777 9.52436C22.2706 9.53545 22.2591 9.55253 22.2426 9.57378C22.2097 9.616 22.1527 9.68003 22.0659 9.74607C21.864 9.89983 21.6182 9.97622 21.3966 9.97622V8.25439ZM18.8085 11.087V9.36517C18.6817 9.36517 18.7165 9.32963 18.8032 9.40845C18.8441 9.44572 18.8781 9.49363 18.8995 9.54383C18.9205 9.59317 18.9204 9.62328 18.9204 9.61975H17.1986H15.4768C15.4768 10.5083 15.8195 11.3494 16.4856 11.9555C17.1377 12.5489 17.9775 12.8088 18.8085 12.8088V11.087ZM17.1986 9.61975H18.9204C18.9204 9.53436 18.9373 9.51962 18.9452 9.50901C18.9696 9.47655 19.0542 9.38646 19.2754 9.28084C19.745 9.05657 20.5055 8.91654 21.3966 8.91654V7.19471V5.47287C20.2498 5.47287 18.9113 5.63852 17.7914 6.17335C16.6089 6.73803 15.4768 7.8439 15.4768 9.61975H17.1986ZM21.3966 7.19471V8.91654C23.4821 8.91654 24.6305 10.0132 24.8247 11.4943L26.5319 11.2704L28.2392 11.0465C27.7813 7.55527 24.8947 5.47287 21.3966 5.47287V7.19471ZM26.5319 11.2704L24.8251 11.4973L25.2938 15.0228L27.0007 14.7959L28.7075 14.569L28.2388 11.0435L26.5319 11.2704ZM22.1506 16.2428V17.9646C23.386 17.9646 24.0346 17.0421 24.2757 16.54C24.5412 15.9874 24.6415 15.3535 24.6017 14.7955L22.8842 14.9182L21.1667 15.0408C21.166 15.0306 21.1673 15.0412 21.1636 15.0619C21.1597 15.0837 21.1571 15.0793 21.1717 15.0489C21.1829 15.0255 21.2392 14.9132 21.3857 14.7915C21.5523 14.6532 21.8192 14.5209 22.1506 14.5209V16.2428ZM22.8842 14.9182L24.5998 14.7722L24.5183 13.8144L22.8027 13.9604L21.0871 14.1064L21.1686 15.0642L22.8842 14.9182ZM22.8027 13.9604L24.5104 13.74C24.4103 12.9648 24.1991 12.2372 23.7818 11.6612C23.3211 11.0254 22.6207 10.6083 21.8041 10.6083V12.3301V14.0519C21.6205 14.0519 21.4361 14.0062 21.2747 13.918C21.1174 13.832 21.0296 13.732 20.9931 13.6816C20.9594 13.6351 20.971 13.634 20.9996 13.7193C21.0278 13.8034 21.0653 13.9504 21.095 14.1807L22.8027 13.9604ZM21.8041 12.3301V10.6083C20.8404 10.6083 20.1728 11.1912 19.8284 11.7652C19.5 12.3126 19.3894 12.9356 19.3894 13.4917H21.1113H22.8331C22.8331 13.3548 22.8652 13.3971 22.7813 13.5369C22.7349 13.6143 22.6383 13.7431 22.4638 13.8568C22.2789 13.9773 22.0484 14.0519 21.8041 14.0519V12.3301ZM21.1113 13.4917H19.3894C19.3894 14.3392 19.4919 15.2354 19.7528 15.984C19.8816 16.3535 20.0854 16.7941 20.4246 17.1711C20.7858 17.5724 21.3692 17.9646 22.1506 17.9646V16.2428V14.5209C22.5957 14.5209 22.881 14.7526 22.9843 14.8674C23.0657 14.9578 23.0517 14.9857 23.0047 14.8508C22.914 14.5907 22.8331 14.1114 22.8331 13.4917H21.1113ZM39.6654 14.7551L37.9488 14.8896L37.9493 14.8952L39.6654 14.7551ZM35.6101 14.7551L33.8911 14.8545L33.8915 14.8604L35.6101 14.7551ZM35.4063 11.2297L33.687 11.3221L33.6874 11.329L35.4063 11.2297ZM28.6203 8.86574L27.8542 7.32373L27.8319 7.33479L27.81 7.34648L28.6203 8.86574ZM31.8197 7.27622L32.5858 8.81823L32.5991 8.81162L32.6123 8.80478L31.8197 7.27622ZM32.6552 8.64158H30.9334V15.1871L34.1542 9.48882L32.6552 8.64158ZM39.4005 11.3723L41.1171 11.2379L41.1167 11.2337L39.4005 11.3723ZM39.6654 14.7551L37.9493 14.8952C38.0234 15.8029 38.3779 16.4096 38.5982 16.766C38.6569 16.861 38.6792 16.8953 38.7106 16.9477C38.7356 16.9896 38.74 17.0001 38.7369 16.9935C38.7237 16.9653 38.6772 16.851 38.6772 16.6911H40.399H42.1209C42.1209 15.7808 41.6093 15.0878 41.5274 14.9553C41.4013 14.7514 41.389 14.7059 41.3815 14.615L39.6654 14.7551ZM40.399 16.6911H38.6772V16.7726H40.399H42.1209V16.6911H40.399ZM40.399 16.7726H38.6772C38.6772 16.4253 38.8301 16.0338 39.1604 15.7601C39.4557 15.5154 39.7519 15.4787 39.8896 15.4787V17.2006V18.9224C40.333 18.9224 40.8839 18.8042 41.3575 18.4118C41.8661 17.9903 42.1209 17.3848 42.1209 16.7726H40.399ZM39.8896 17.2006V15.4787H35.3859V17.2006V18.9224H39.8896V17.2006ZM35.3859 17.2006V15.4787C35.5237 15.4787 35.8198 15.5154 36.1151 15.7601C36.4454 16.0338 36.5983 16.4253 36.5983 16.7726H34.8765H33.1546C33.1546 17.3848 33.4094 17.9903 33.918 18.4118C34.3917 18.8042 34.9425 18.9224 35.3859 18.9224V17.2006ZM34.8765 16.7726H36.5983V16.6911H34.8765H33.1546V16.7726H34.8765ZM34.8765 16.6911H36.5983C36.5983 16.9198 36.5194 17.0725 36.5067 17.0953C36.5038 17.1006 36.5104 17.0881 36.5445 17.0383C36.5613 17.0138 36.5791 16.9884 36.6046 16.952C36.6282 16.9184 36.658 16.8759 36.6888 16.8306C36.9659 16.4243 37.3936 15.7092 37.3287 14.6499L35.6101 14.7551L33.8915 14.8604C33.8916 14.8626 33.8923 14.8309 33.9055 14.7949C33.9125 14.7761 33.9119 14.7905 33.8436 14.8907C33.8162 14.9308 33.6181 15.2027 33.4927 15.4297C33.3329 15.7188 33.1546 16.1465 33.1546 16.6911H34.8765ZM35.6101 14.7551L37.3291 14.6558L37.1253 11.1303L35.4063 11.2297L33.6874 11.329L33.8911 14.8545L35.6101 14.7551ZM35.4063 11.2297L37.1257 11.1372C37.0766 10.2243 36.994 9.29393 36.693 8.57803C36.5222 8.17161 36.2362 7.71849 35.7453 7.38694C35.2495 7.05216 34.7216 6.9605 34.2855 6.9605V8.68234V10.4042C34.2467 10.4042 34.0449 10.394 33.8179 10.2407C33.5957 10.0907 33.5212 9.91904 33.5184 9.91256C33.5175 9.91033 33.5282 9.93563 33.5442 10.0011C33.5601 10.0658 33.5781 10.1565 33.5961 10.2805C33.6329 10.5328 33.6626 10.8695 33.687 11.3221L35.4063 11.2297ZM34.2855 8.68234V6.9605C33.8203 6.9605 33.3357 7.0742 32.8951 7.35481C32.4608 7.63138 32.1701 8.00557 31.9814 8.37088C31.632 9.04715 31.5651 9.82031 31.5651 10.4349H33.2869H35.0088C35.0088 10.2367 35.0215 10.0954 35.0374 10.002C35.054 9.90415 35.0669 9.90107 35.0408 9.95159C35.01 10.0112 34.9232 10.146 34.7449 10.2595C34.5602 10.3771 34.3839 10.4042 34.2855 10.4042V8.68234ZM33.2869 10.4349H31.5651V14.7551H33.2869H35.0088V10.4349H33.2869ZM33.2869 14.7551H31.5651C31.5651 15.8827 32.136 16.6079 32.4349 16.9653C32.5502 17.1033 32.5242 17.069 32.6018 17.1626C32.6412 17.2102 32.6472 17.2206 32.641 17.2113C32.6234 17.1846 32.5025 16.9916 32.5025 16.6911H34.2244H35.9462C35.9462 16.0747 35.7081 15.6066 35.5148 15.3138C35.3556 15.0727 35.124 14.8129 35.0764 14.756C34.9066 14.553 35.0088 14.6261 35.0088 14.7551H33.2869ZM34.2244 16.6911H32.5025V16.7726H34.2244H35.9462V16.6911H34.2244ZM34.2244 16.7726H32.5025C32.5025 16.4253 32.6554 16.0338 32.9857 15.7601C33.281 15.5154 33.5772 15.4787 33.7149 15.4787V17.2006V18.9224C34.1583 18.9224 34.7092 18.8042 35.1828 18.4118C35.6914 17.9903 35.9462 17.3848 35.9462 16.7726H34.2244ZM33.7149 17.2006V15.4787H28.8037V17.2006V18.9224H33.7149V17.2006ZM28.8037 17.2006V15.4787C28.9414 15.4787 29.2375 15.5154 29.5329 15.7601C29.8632 16.0338 30.016 16.4253 30.016 16.7726H28.2942H26.5724C26.5724 17.3848 26.8271 17.9903 27.3358 18.4118C27.8094 18.8042 28.3603 18.9224 28.8037 18.9224V17.2006ZM28.2942 16.7726H30.016V16.6911H28.2942H26.5724V16.7726H28.2942ZM28.2942 16.6911H30.016C30.016 16.9916 29.8952 17.1846 29.8776 17.2113C29.8713 17.2206 29.8774 17.2102 29.9168 17.1626C29.9943 17.069 29.9683 17.1033 30.0837 16.9653C30.3826 16.6079 30.9535 15.8827 30.9535 14.7551H29.2316H27.5098C27.5098 14.6261 27.6119 14.553 27.4421 14.756C27.3945 14.8129 27.163 15.0727 27.0038 15.3138C26.8104 15.6066 26.5724 16.0747 26.5724 16.6911H28.2942ZM29.2316 14.7551H30.9535V11.3112H29.2316H27.5098V14.7551H29.2316ZM29.2316 11.3112H30.9535C30.9535 10.0137 30.1421 9.27477 29.7949 8.97096C29.6485 8.84288 29.689 8.88148 29.5923 8.79596C29.5451 8.75426 29.5449 8.75076 29.5616 8.76977C29.6019 8.81563 29.8123 9.07567 29.8123 9.49748H28.0904H26.3686C26.3686 10.2351 26.7216 10.755 26.9759 11.0441C27.1816 11.2781 27.4793 11.5207 27.5272 11.5626C27.7506 11.758 27.5098 11.6101 27.5098 11.3112H29.2316ZM28.0904 9.49748H29.8123V9.41596H28.0904H26.3686V9.49748H28.0904ZM28.0904 9.41596H29.8123C29.8123 9.60592 29.7689 9.81521 29.6684 10.015C29.5732 10.2042 29.4568 10.3252 29.3868 10.3876C29.3219 10.4455 29.278 10.4695 29.2966 10.4584C29.3158 10.4468 29.3474 10.4294 29.4305 10.385L28.6203 8.86574L27.81 7.34648C27.7119 7.39878 27.3745 7.56805 27.0946 7.81765C26.7226 8.1495 26.3686 8.68545 26.3686 9.41596H28.0904ZM28.6203 8.86574L29.3864 10.4078L32.5858 8.81823L31.8197 7.27622L31.0536 5.73421L27.8542 7.32373L28.6203 8.86574ZM31.8197 7.27622L32.6123 8.80478C32.5609 8.83141 32.3927 8.90674 32.135 8.89964C31.856 8.89197 31.5769 8.78909 31.3535 8.6063C30.9568 8.28179 30.9334 7.90067 30.9334 7.80606H32.6552H34.377C34.377 7.2835 34.2109 6.49481 33.5341 5.94105C32.7093 5.26621 31.7163 5.39032 31.0271 5.74765L31.8197 7.27622ZM32.6552 7.80606H30.9334V8.64158H32.6552H34.377V7.80606H32.6552ZM32.6552 8.64158L34.1542 9.48882C34.3063 9.21971 34.6421 8.91654 35.5082 8.91654V7.19471V5.47287C33.7251 5.47287 32.0638 6.18863 31.1563 7.79434L32.6552 8.64158ZM35.5082 7.19471V8.91654C36.0793 8.91654 36.5386 9.06546 36.8641 9.3498C37.1701 9.61719 37.5781 10.196 37.6843 11.5109L39.4005 11.3723L41.1167 11.2337C40.958 9.2677 40.2757 7.75767 39.1298 6.75649C38.0033 5.77227 36.6489 5.47287 35.5082 5.47287V7.19471ZM39.4005 11.3723L37.6839 11.5067L37.9488 14.8896L39.6654 14.7551L41.382 14.6207L41.1171 11.2379L39.4005 11.3723ZM41.3763 9.00839L42.1044 10.5687L42.12 10.5614L42.1354 10.5538L41.3763 9.00839ZM44.861 7.2966L45.6202 8.84207L45.631 8.83665L44.861 7.2966ZM43.8217 6.39994V4.67811C43.4195 4.67811 43.1981 4.55224 43.0979 4.46219C43.0037 4.3775 42.9554 4.27569 42.9554 4.13793H41.2336H39.5118C39.5118 6.5204 41.4992 8.12177 43.8217 8.12177V6.39994ZM41.2336 4.13793H42.9554C42.9554 4.00272 43.0014 3.90958 43.0899 3.83102C43.187 3.7448 43.41 3.61812 43.8217 3.61812V1.89629V0.174459C41.5206 0.174459 39.5118 1.73634 39.5118 4.13793H41.2336ZM43.8217 1.89629V3.61812C44.2334 3.61812 44.4564 3.7448 44.5535 3.83102C44.642 3.90958 44.6879 4.00272 44.6879 4.13793H46.4098H48.1316C48.1316 1.73634 46.1227 0.174459 43.8217 0.174459V1.89629ZM46.4098 4.13793H44.6879C44.6879 4.27569 44.6397 4.3775 44.5455 4.46219C44.4453 4.55224 44.2239 4.67811 43.8217 4.67811V6.39994V8.12177C46.1441 8.12177 48.1316 6.5204 48.1316 4.13793H46.4098ZM41.3763 17.1802V15.4583C41.514 15.4583 41.8101 15.495 42.1055 15.7397C42.4358 16.0134 42.5886 16.4049 42.5886 16.7522H40.8668H39.145C39.145 17.3645 39.3997 17.97 39.9083 18.3914C40.382 18.7838 40.9329 18.902 41.3763 18.902V17.1802ZM40.8668 16.7522H42.5886V16.6707H40.8668H39.145V16.7522H40.8668ZM40.8668 16.6707H42.5886C42.5886 16.9207 42.4981 17.0869 42.4813 17.1154C42.4763 17.1239 42.4818 17.1134 42.5164 17.0665C42.5859 16.9724 42.5612 17.0086 42.665 16.8694C42.9437 16.4955 43.4241 15.7968 43.4241 14.7348H41.7023H39.9805C39.9805 14.7378 39.9804 14.7292 39.9838 14.7132C39.9873 14.6974 39.9919 14.685 39.9944 14.6792C39.9962 14.6751 39.9864 14.7009 39.9041 14.8112C39.8619 14.8679 39.6549 15.1285 39.5134 15.3688C39.3399 15.6636 39.145 16.1049 39.145 16.6707H40.8668ZM41.7023 14.7348H43.4241V11.4538H41.7023H39.9805V14.7348H41.7023ZM41.7023 11.4538H43.4241C43.4241 10.391 42.9451 9.69096 42.6465 9.30493C42.5995 9.24419 42.4975 9.11666 42.4853 9.10108C42.4459 9.051 42.4399 9.04064 42.445 9.04859C42.4569 9.06714 42.5886 9.27366 42.5886 9.59937H40.8668H39.145C39.145 10.2002 39.3811 10.6513 39.5497 10.9131C39.6809 11.1168 39.9005 11.3833 39.9227 11.412C39.9953 11.5059 40.0012 11.526 39.9963 11.5148C39.9926 11.5064 39.9875 11.4926 39.984 11.4761C39.9803 11.4595 39.9805 11.4507 39.9805 11.4538H41.7023ZM40.8668 9.59937H42.5886V9.51785H40.8668H39.145V9.59937H40.8668ZM40.8668 9.51785H42.5886C42.5886 9.70799 42.5461 9.9185 42.4455 10.1211C42.3493 10.3149 42.2293 10.4424 42.1485 10.5139C42.1086 10.5492 42.0754 10.5735 42.0547 10.5877C42.034 10.6019 42.0209 10.6094 42.0195 10.6102C42.018 10.611 42.0234 10.6079 42.0387 10.6002C42.0541 10.5925 42.075 10.5824 42.1044 10.5687L41.3763 9.00839L40.6481 7.4481C40.507 7.51397 40.1643 7.67109 39.8653 7.93597C39.4818 8.27559 39.145 8.81102 39.145 9.51785H40.8668ZM41.3763 9.00839L42.1354 10.5538L45.6202 8.84203L44.861 7.2966L44.1018 5.75116L40.6171 7.46296L41.3763 9.00839ZM44.861 7.2966L45.631 8.83665C45.5512 8.87656 45.1551 9.01217 44.7005 8.73802C44.2937 8.49275 44.1377 8.08736 44.1377 7.7653H45.8595H47.5814C47.5814 7.03568 47.2318 6.2431 46.4786 5.78894C45.6775 5.30592 44.7821 5.41096 44.091 5.75655L44.861 7.2966ZM45.8595 7.7653H44.1377V14.7348H45.8595H47.5814V7.7653H45.8595ZM45.8595 14.7348H44.1377C44.1377 15.8624 44.7086 16.5875 45.0075 16.9449C45.1228 17.0829 45.0968 17.0486 45.1743 17.1422C45.2138 17.1898 45.2198 17.2003 45.2136 17.1909C45.196 17.1642 45.0751 16.9712 45.0751 16.6707H46.7969H48.5188C48.5188 16.0543 48.2807 15.5862 48.0873 15.2934C47.9282 15.0524 47.6966 14.7925 47.649 14.7356C47.4792 14.5326 47.5814 14.6057 47.5814 14.7348H45.8595ZM46.7969 16.6707H45.0751V16.7522H46.7969H48.5188V16.6707H46.7969ZM46.7969 16.7522H45.0751C45.0751 16.4049 45.228 16.0134 45.5583 15.7397C45.8536 15.495 46.1498 15.4583 46.2875 15.4583V17.1802V18.902C46.7309 18.902 47.2818 18.7838 47.7554 18.3914C48.264 17.97 48.5188 17.3645 48.5188 16.7522H46.7969ZM46.2875 17.1802V15.4583H41.3763V17.1802V18.902H46.2875V17.1802ZM55.7049 13.8789L54.4874 12.6613H54.4874L55.7049 13.8789ZM55.5419 11.1074L54.6035 9.66372L54.6015 9.665L55.5419 11.1074ZM51.8534 13.512L50.913 12.0697L49.3418 13.094L50.4965 14.5721L51.8534 13.512ZM51.2624 12.3708L49.6387 12.9439L50.4111 15.1323L52.2816 13.7586L51.2624 12.3708ZM52.5666 11.4131L53.5858 12.8009L53.5928 12.7957L53.5997 12.7905L52.5666 11.4131ZM55.7049 13.8789L56.9224 15.0964C56.649 15.3698 56.1659 15.5473 55.6493 15.3669C55.0646 15.1627 54.7778 14.6235 54.7778 14.1845H56.4997H58.2215C58.2215 13.2769 57.6902 12.432 56.7846 12.1157C55.9469 11.8232 55.0665 12.0822 54.4874 12.6613L55.7049 13.8789ZM56.4997 14.1845H54.7778C54.7778 14.1254 54.7293 14.5032 54.2602 14.9501C53.8606 15.3306 53.2434 15.6621 52.3628 15.6621V17.384V19.1058C54.1926 19.1058 55.6438 18.3878 56.6351 17.4438C57.5568 16.566 58.2215 15.3442 58.2215 14.1845H56.4997ZM52.3628 17.384V15.6621C51.2477 15.6621 50.4267 15.288 49.8876 14.7459C49.3481 14.2033 48.9697 13.37 48.9697 12.2282H47.2478H45.526C45.526 14.1635 46.1869 15.9081 47.4457 17.1741C48.7051 18.4406 50.4416 19.1058 52.3628 19.1058V17.384ZM47.2478 12.2282H48.9697C48.9697 10.2214 50.5013 8.91654 52.3017 8.91654V7.19471V5.47287C48.8037 5.47287 45.526 8.12148 45.526 12.2282H47.2478ZM52.3017 7.19471V8.91654C53.3426 8.91654 53.918 9.19907 54.1974 9.42657C54.4872 9.66246 54.5129 9.86907 54.5129 9.90505H56.2347H57.9566C57.9566 7.41756 55.6154 5.47287 52.3017 5.47287V7.19471ZM56.2347 9.90505H54.5129C54.5129 9.89207 54.5148 9.86227 54.5262 9.82186C54.5376 9.78133 54.5548 9.74317 54.5747 9.71079C54.6141 9.6469 54.6429 9.63811 54.6035 9.66372L55.5419 11.1074L56.4803 12.551C57.2513 12.0499 57.9566 11.1731 57.9566 9.90505H56.2347ZM55.5419 11.1074L54.6015 9.665L50.913 12.0697L51.8534 13.512L52.7937 14.9544L56.4822 12.5498L55.5419 11.1074ZM51.8534 13.512L50.4965 14.5721C51.307 15.6095 52.486 16.2528 53.8912 16.2528V14.531V12.8091C53.6254 12.8091 53.4186 12.7188 53.2102 12.452L51.8534 13.512ZM53.8912 14.531V16.2528C54.481 16.2528 55.0517 16.1293 55.5374 15.9481C56.0033 15.7743 56.5196 15.4992 56.9224 15.0964L55.7049 13.8789L54.4874 12.6613C54.5257 12.623 54.5364 12.6228 54.4978 12.6457C54.4634 12.6661 54.4079 12.694 54.3338 12.7216C54.1776 12.7798 54.0147 12.8091 53.8912 12.8091V14.531ZM51.9756 8.29514V6.57331C50.8598 6.57331 50.1051 7.25905 49.7124 7.90464C49.3291 8.53468 49.1737 9.27304 49.1737 9.9458H50.8956H52.6174C52.6174 9.86591 52.6272 9.79635 52.6402 9.74441C52.6537 9.69026 52.6652 9.67666 52.6544 9.69438C52.6443 9.71098 52.5935 9.78911 52.4735 9.86852C52.3411 9.95613 52.165 10.017 51.9756 10.017V8.29514ZM50.8956 9.9458H49.1737C49.1737 11.0092 49.3147 12.0259 49.6387 12.9439L51.2624 12.3708L52.8861 11.7978C52.721 11.33 52.6174 10.7165 52.6174 9.9458H50.8956ZM51.2624 12.3708L52.2816 13.7586L53.5858 12.8009L52.5666 11.4131L51.5474 10.0253L50.2432 10.983L51.2624 12.3708ZM52.5666 11.4131L53.5997 12.7905C54.4021 12.1887 54.8183 11.2268 54.8183 10.2922H53.0965H51.3746C51.3746 10.2585 51.3816 10.2261 51.3977 10.192C51.4133 10.1591 51.4506 10.0978 51.5335 10.0356L52.5666 11.4131ZM53.0965 10.2922H54.8183C54.8183 9.90108 54.7689 9.17234 54.5074 8.47514C54.2625 7.82214 53.5538 6.57331 51.9756 6.57331V8.29514V10.017C51.8758 10.017 51.7569 9.99717 51.6356 9.94653C51.5165 9.89685 51.4277 9.83119 51.3682 9.77455C51.263 9.67454 51.2553 9.61041 51.283 9.68429C51.3064 9.74673 51.3325 9.84856 51.3511 9.98049C51.3692 10.1085 51.3746 10.2238 51.3746 10.2922H53.0965ZM57.4229 3.54695L58.151 5.10725L58.1666 5.09997L58.1821 5.09239L57.4229 3.54695ZM60.9076 1.83516L61.6668 3.38063L61.6777 3.37521L60.9076 1.83516ZM57.4229 17.1802V15.4583C57.5606 15.4583 57.8568 15.495 58.1521 15.7397C58.4824 16.0134 58.6353 16.4049 58.6353 16.7522H56.9134H55.1916C55.1916 17.3645 55.4464 17.97 55.955 18.3914C56.4286 18.7838 56.9795 18.902 57.4229 18.902V17.1802ZM56.9134 16.7522H58.6353V16.6707H56.9134H55.1916V16.7522H56.9134ZM56.9134 16.6707H58.6353C58.6353 16.9207 58.5447 17.0869 58.5279 17.1154C58.5229 17.1239 58.5284 17.1134 58.563 17.0665C58.6325 16.9724 58.6079 17.0086 58.7117 16.8694C58.9904 16.4955 59.4708 15.7968 59.4708 14.7348H57.749H56.0271C56.0271 14.7378 56.027 14.7292 56.0305 14.7132C56.0339 14.6974 56.0385 14.685 56.0411 14.6792C56.0429 14.6751 56.033 14.7009 55.9507 14.8112C55.9085 14.8679 55.7015 15.1285 55.5601 15.3688C55.3866 15.6636 55.1916 16.1049 55.1916 16.6707H56.9134ZM57.749 14.7348H59.4708V5.99237H57.749H56.0271V14.7348H57.749ZM57.749 5.99237H59.4708C59.4708 4.92958 58.9917 4.22952 58.6931 3.84349C58.6461 3.78275 58.5441 3.65522 58.5319 3.63964C58.4926 3.58956 58.4865 3.5792 58.4916 3.58715C58.5036 3.6057 58.6353 3.81222 58.6353 4.13793H56.9134H55.1916C55.1916 4.73874 55.4278 5.18981 55.5964 5.45163C55.7276 5.65538 55.9471 5.92188 55.9693 5.95057C56.042 6.04448 56.0478 6.06453 56.0429 6.05331C56.0392 6.04494 56.0342 6.03111 56.0306 6.01465C56.027 5.99804 56.0271 5.98927 56.0271 5.99237H57.749ZM56.9134 4.13793H58.6353V4.05641H56.9134H55.1916V4.13793H56.9134ZM56.9134 4.05641H58.6353C58.6353 4.24655 58.5928 4.45706 58.4921 4.65964C58.3959 4.85343 58.2759 4.98092 58.1952 5.05241C58.1552 5.0878 58.122 5.11205 58.1013 5.12626C58.0806 5.14047 58.0675 5.14793 58.0661 5.14873C58.0646 5.14958 58.07 5.14647 58.0854 5.13876C58.1007 5.13106 58.1216 5.12099 58.151 5.10725L57.4229 3.54695L56.6948 1.98666C56.5536 2.05252 56.211 2.20965 55.9119 2.47453C55.5285 2.81415 55.1916 3.34958 55.1916 4.05641H56.9134ZM57.4229 3.54695L58.1821 5.09239L61.6668 3.38059L60.9076 1.83516L60.1485 0.289719L56.6637 2.00151L57.4229 3.54695ZM60.9076 1.83516L61.6777 3.37521C61.5978 3.41512 61.2018 3.55072 60.7471 3.27658C60.3403 3.03131 60.1843 2.62591 60.1843 2.30386H61.9062H63.628C63.628 1.57424 63.2785 0.781656 62.5252 0.327499C61.7241 -0.155523 60.8288 -0.0504799 60.1376 0.295103L60.9076 1.83516ZM61.9062 2.30386H60.1843V14.7348H61.9062H63.628V2.30386H61.9062ZM61.9062 14.7348H60.1843C60.1843 15.8624 60.7552 16.5875 61.0541 16.9449C61.1695 17.0829 61.1435 17.0486 61.221 17.1422C61.2604 17.1898 61.2665 17.2003 61.2603 17.1909C61.2426 17.1642 61.1218 16.9712 61.1218 16.6707H62.8436H64.5654C64.5654 16.0543 64.3274 15.5862 64.134 15.2934C63.9748 15.0524 63.7433 14.7925 63.6957 14.7356C63.5259 14.5326 63.628 14.6057 63.628 14.7348H61.9062ZM62.8436 16.6707H61.1218V16.7522H62.8436H64.5654V16.6707H62.8436ZM62.8436 16.7522H61.1218C61.1218 16.4049 61.2746 16.0134 61.6049 15.7397C61.9003 15.495 62.1964 15.4583 62.3341 15.4583V17.1802V18.902C62.7775 18.902 63.3284 18.7838 63.802 18.3914C64.3107 17.97 64.5654 17.3645 64.5654 16.7522H62.8436ZM62.3341 17.1802V15.4583H57.4229V17.1802V18.902H62.3341V17.1802ZM76.8185 9.39558L76.3717 7.73272L76.5578 11.0976L76.8185 9.39558ZM72.2741 10.333V8.61116H70.5522V10.333H72.2741ZM76.8185 9.39558L76.5578 11.0976C78.2359 11.3546 78.8055 12.2343 78.8055 13.0841H80.5274H82.2492C82.2492 10.062 79.9251 8.12947 77.0791 7.6936L76.8185 9.39558ZM80.5274 13.0841H78.8055C78.8055 13.6992 78.5926 14.1666 77.9533 14.5698C77.1994 15.0451 75.781 15.4583 73.3337 15.4583V17.1802V18.902C76.0627 18.902 78.2411 18.4594 79.79 17.4827C81.4534 16.4339 82.2492 14.8533 82.2492 13.0841H80.5274ZM73.3337 17.1802V15.4583H67.8112V17.1802V18.902H73.3337V17.1802ZM67.8112 17.1802V15.4583C67.9489 15.4583 68.245 15.495 68.5404 15.7397C68.8707 16.0134 69.0235 16.4049 69.0235 16.7522H67.3017H65.5799C65.5799 17.3645 65.8346 17.97 66.3433 18.3914C66.8169 18.7838 67.3678 18.902 67.8112 18.902V17.1802ZM67.3017 16.7522H69.0235V16.6707H67.3017H65.5799V16.7522H67.3017ZM67.3017 16.6707H69.0235C69.0235 16.9207 68.933 17.0869 68.9162 17.1154C68.9112 17.1239 68.9167 17.1134 68.9513 17.0665C69.0208 16.9724 68.9961 17.0086 69.0999 16.8694C69.3787 16.4955 69.8591 15.7968 69.8591 14.7348H68.1372H66.4154C66.4154 14.7378 66.4153 14.7292 66.4187 14.7132C66.4222 14.6974 66.4268 14.685 66.4293 14.6792C66.4312 14.6751 66.4213 14.7009 66.339 14.8112C66.2968 14.8679 66.0898 15.1285 65.9483 15.3688C65.7749 15.6636 65.5799 16.1049 65.5799 16.6707H67.3017ZM68.1372 14.7348H69.8591V5.15685H68.1372H66.4154V14.7348H68.1372ZM68.1372 5.15685H69.8591C69.8591 4.09484 69.3787 3.39613 69.0999 3.02224C68.9961 2.88299 69.0208 2.91921 68.9513 2.82508C68.9167 2.77821 68.9112 2.76771 68.9162 2.77617C68.933 2.80476 69.0235 2.97094 69.0235 3.22089H67.3017H65.5799C65.5799 3.78672 65.7749 4.22801 65.9483 4.52279C66.0898 4.76309 66.2968 5.02375 66.339 5.0804C66.4213 5.19075 66.4311 5.2165 66.4293 5.21237C66.4268 5.20656 66.4222 5.19425 66.4187 5.17844C66.4153 5.16244 66.4154 5.15385 66.4154 5.15685H68.1372ZM67.3017 3.22089H69.0235V3.13938H67.3017H65.5799V3.22089H67.3017ZM67.3017 3.13938H69.0235C69.0235 3.48668 68.8707 3.87822 68.5404 4.15191C68.245 4.39661 67.9489 4.43326 67.8112 4.43326V2.71143V0.989601C67.3678 0.989601 66.8169 1.10777 66.3433 1.50021C65.8346 1.92165 65.5799 2.52716 65.5799 3.13938H67.3017ZM67.8112 2.71143V4.43326H73.7413V2.71143V0.989601H67.8112V2.71143ZM73.7413 2.71143V4.43326C75.4039 4.43326 76.3149 4.80082 76.7717 5.15386C77.1744 5.46506 77.3587 5.86291 77.3587 6.39994H79.0805H80.8023C80.8023 4.89912 80.202 3.45272 78.8776 2.42912C77.6073 1.44737 75.8487 0.989601 73.7413 0.989601V2.71143ZM79.0805 6.39994H77.3587C77.3587 7.12811 76.9858 7.56774 76.3717 7.73272L76.8185 9.39558L77.2652 11.0585C79.3819 10.4898 80.8023 8.68779 80.8023 6.39994H79.0805ZM72.2741 5.44215H70.5522V7.62265H72.2741H73.9959V5.44215H72.2741ZM72.2741 7.62265H70.5522C70.5522 8.39165 70.828 9.1583 71.4367 9.72301C72.0296 10.2731 72.7799 10.4857 73.4764 10.4857V8.76385V7.04202C73.4596 7.04202 73.6087 7.04066 73.7788 7.19843C73.8609 7.27461 73.9209 7.36516 73.957 7.45429C73.9923 7.54105 73.9959 7.6034 73.9959 7.62265H72.2741ZM73.4764 8.76385V10.4857H74.1693V8.76385V7.04202H73.4764V8.76385ZM74.1693 8.76385V10.4857C75.1145 10.4857 75.9554 10.0621 76.5174 9.33873C77.05 8.65306 77.2565 7.80569 77.2565 6.99092H75.5346H73.8128C73.8128 7.25621 73.7441 7.2953 73.7979 7.22608C73.8279 7.18752 73.8832 7.13471 73.966 7.09396C74.0494 7.05289 74.1242 7.04202 74.1693 7.04202V8.76385ZM75.5346 6.99092H77.2565C77.2565 5.90134 77.0131 4.8281 76.3871 3.98079C75.7206 3.07887 74.7207 2.57912 73.5987 2.57912V4.30096V6.02279C73.6426 6.02279 73.6412 6.03066 73.6187 6.01935C73.5959 6.0079 73.5971 5.99973 73.6174 6.02724C73.6689 6.09697 73.8128 6.3687 73.8128 6.99092H75.5346ZM73.5987 4.30096V2.57912H73.3337V4.30096V6.02279H73.5987V4.30096ZM73.3337 4.30096V2.57912C72.8418 2.57912 72.0822 2.6792 71.4418 3.25213C70.7651 3.85761 70.5522 4.68856 70.5522 5.44215H72.2741H73.9959C73.9959 5.36949 74.0064 5.39559 73.9755 5.47953C73.9407 5.57434 73.8672 5.70292 73.738 5.81849C73.4849 6.04498 73.2551 6.02279 73.3337 6.02279V4.30096ZM74.6787 15.5907V17.3125C76.9088 17.3125 77.8474 15.2391 77.8474 13.6954H76.1256H74.4038C74.4038 13.8098 74.388 13.895 74.3712 13.9506C74.3543 14.0069 74.3394 14.0233 74.3469 14.0133C74.3555 14.0019 74.3893 13.9624 74.4586 13.9255C74.5318 13.8867 74.6116 13.8688 74.6787 13.8688V15.5907ZM76.1256 13.6954H77.8474C77.8474 11.5948 76.1729 8.61116 72.702 8.61116V10.333V12.0548C73.2996 12.0548 73.6917 12.292 73.9631 12.6083C74.2714 12.9675 74.4038 13.4123 74.4038 13.6954H76.1256ZM72.702 10.333V8.61116H72.2741V10.333V12.0548H72.702V10.333ZM72.2741 10.333H70.5522V13.6547H72.2741H73.9959V10.333H72.2741ZM72.2741 13.6547H70.5522C70.5522 15.4208 71.7508 17.3125 73.9859 17.3125V15.5907V13.8688C73.9667 13.8688 73.9783 13.8659 74.005 13.8783C74.0305 13.8902 74.0455 13.9048 74.0496 13.9095C74.0551 13.9159 73.9959 13.8461 73.9959 13.6547H72.2741ZM73.9859 15.5907V17.3125H74.6787V15.5907V13.8688H73.9859V15.5907ZM89.5173 13.8789L88.2998 12.6613V12.6613L89.5173 13.8789ZM89.3543 11.1074L88.4159 9.66372L88.4139 9.665L89.3543 11.1074ZM85.6658 13.512L84.7254 12.0697L83.1542 13.094L84.3089 14.5721L85.6658 13.512ZM85.0748 12.3708L83.4511 12.9439L84.2235 15.1323L86.094 13.7586L85.0748 12.3708ZM86.379 11.4131L87.3982 12.8009L87.4052 12.7957L87.4121 12.7905L86.379 11.4131ZM89.5173 13.8789L90.7348 15.0964C90.4614 15.3698 89.9783 15.5473 89.4617 15.3669C88.877 15.1627 88.5902 14.6235 88.5902 14.1845H90.3121H92.0339C92.0339 13.2769 91.5026 12.432 90.597 12.1157C89.7593 11.8232 88.8789 12.0822 88.2998 12.6613L89.5173 13.8789ZM90.3121 14.1845H88.5902C88.5902 14.1254 88.5417 14.5032 88.0726 14.9501C87.673 15.3306 87.0558 15.6621 86.1752 15.6621V17.384V19.1058C88.005 19.1058 89.4562 18.3878 90.4475 17.4438C91.3692 16.566 92.0339 15.3442 92.0339 14.1845H90.3121ZM86.1752 17.384V15.6621C85.0601 15.6621 84.2391 15.288 83.7 14.7459C83.1605 14.2033 82.7821 13.37 82.7821 12.2282H81.0602H79.3384C79.3384 14.1635 79.9993 15.9081 81.2581 17.1741C82.5175 18.4406 84.254 19.1058 86.1752 19.1058V17.384ZM81.0602 12.2282H82.7821C82.7821 10.2214 84.3137 8.91654 86.1141 8.91654V7.19471V5.47287C82.6161 5.47287 79.3384 8.12148 79.3384 12.2282H81.0602ZM86.1141 7.19471V8.91654C87.155 8.91654 87.7304 9.19907 88.0098 9.42657C88.2996 9.66246 88.3253 9.86907 88.3253 9.90505H90.0471H91.769C91.769 7.41756 89.4278 5.47287 86.1141 5.47287V7.19471ZM90.0471 9.90505H88.3253C88.3253 9.89207 88.3273 9.86227 88.3386 9.82186C88.35 9.78133 88.3672 9.74317 88.3871 9.71079C88.4265 9.6469 88.4553 9.63811 88.4159 9.66372L89.3543 11.1074L90.2927 12.551C91.0637 12.0499 91.769 11.1731 91.769 9.90505H90.0471ZM89.3543 11.1074L88.4139 9.665L84.7254 12.0697L85.6658 13.512L86.6061 14.9544L90.2946 12.5498L89.3543 11.1074ZM85.6658 13.512L84.3089 14.5721C85.1194 15.6095 86.2984 16.2528 87.7036 16.2528V14.531V12.8091C87.4379 12.8091 87.231 12.7188 87.0226 12.452L85.6658 13.512ZM87.7036 14.531V16.2528C88.2934 16.2528 88.8641 16.1293 89.3498 15.9481C89.8157 15.7743 90.332 15.4992 90.7348 15.0964L89.5173 13.8789L88.2998 12.6613C88.3381 12.623 88.3488 12.6228 88.3102 12.6457C88.2758 12.6661 88.2203 12.694 88.1463 12.7216C87.9901 12.7798 87.8271 12.8091 87.7036 12.8091V14.531ZM85.788 8.29514V6.57331C84.6722 6.57331 83.9175 7.25905 83.5248 7.90464C83.1415 8.53468 82.9862 9.27304 82.9862 9.9458H84.708H86.4298C86.4298 9.86591 86.4396 9.79635 86.4526 9.74441C86.4661 9.69026 86.4776 9.67666 86.4669 9.69438C86.4568 9.71098 86.4059 9.78911 86.2859 9.86852C86.1535 9.95613 85.9774 10.017 85.788 10.017V8.29514ZM84.708 9.9458H82.9862C82.9862 11.0092 83.1271 12.0259 83.4511 12.9439L85.0748 12.3708L86.6985 11.7978C86.5334 11.33 86.4298 10.7165 86.4298 9.9458H84.708ZM85.0748 12.3708L86.094 13.7586L87.3982 12.8009L86.379 11.4131L85.3598 10.0253L84.0556 10.983L85.0748 12.3708ZM86.379 11.4131L87.4121 12.7905C88.2145 12.1887 88.6307 11.2268 88.6307 10.2922H86.9089H85.187C85.187 10.2585 85.194 10.2261 85.2101 10.192C85.2257 10.1591 85.263 10.0978 85.3459 10.0356L86.379 11.4131ZM86.9089 10.2922H88.6307C88.6307 9.90108 88.5813 9.17234 88.3198 8.47514C88.0749 7.82214 87.3662 6.57331 85.788 6.57331V8.29514V10.017C85.6882 10.017 85.5693 9.99717 85.448 9.94653C85.3289 9.89685 85.2401 9.83119 85.1806 9.77455C85.0754 9.67454 85.0677 9.61041 85.0954 9.68429C85.1188 9.74673 85.1449 9.84856 85.1635 9.98049C85.1816 10.1085 85.187 10.2238 85.187 10.2922H86.9089ZM95.9427 7.19471L95.9555 8.91649L95.9571 8.91648L95.9427 7.19471ZM98.7142 11.6372L98.6078 13.3558L98.6187 13.3564L98.6297 13.357L98.7142 11.6372ZM95.3518 8.29514L95.4056 10.0161L95.4064 10.0161L95.3518 8.29514ZM99.5905 13.5528L98.2947 12.419L98.2912 12.423L99.5905 13.5528ZM96.0854 17.384V15.6621C93.7921 15.6621 92.4884 13.9845 92.4884 12.2893H90.7666H89.0448C89.0448 15.7703 91.7761 19.1058 96.0854 19.1058V17.384ZM90.7666 12.2893H92.4884C92.4884 11.1426 92.9061 10.3421 93.4848 9.81304C94.0855 9.26383 94.9552 8.9239 95.9555 8.91649L95.9427 7.19471L95.93 5.47292C94.1792 5.48589 92.4608 6.08337 91.1612 7.27142C89.8396 8.47967 89.0448 10.2162 89.0448 12.2893H90.7666ZM95.9427 7.19471L95.9571 8.91648C96.9298 8.90837 97.6755 9.14031 98.1218 9.4397C98.5205 9.70722 98.6634 9.99845 98.6634 10.3534H100.385H102.107C102.107 8.69082 101.251 7.39253 100.04 6.57999C98.8767 5.79932 97.4011 5.46066 95.9284 5.47293L95.9427 7.19471ZM100.385 10.3534H98.6634C98.6634 10.3162 98.6789 10.1567 98.8354 10.0093C98.909 9.94004 98.9734 9.9146 98.9905 9.90932C99.0017 9.90585 98.9478 9.9248 98.7988 9.91747L98.7142 11.6372L98.6297 13.357C99.5789 13.4037 100.503 13.169 101.196 12.5162C101.878 11.8746 102.107 11.0427 102.107 10.3534H100.385ZM98.7142 11.6372L98.8207 9.91868C98.718 9.91232 98.5828 9.9485 98.2051 9.15638C98.0807 8.89542 97.8162 8.26811 97.5379 7.84058C97.2226 7.35639 96.5222 6.53529 95.2971 6.57418L95.3518 8.29514L95.4064 10.0161C94.8233 10.0346 94.5763 9.60325 94.652 9.7196C94.7647 9.89259 94.8288 10.0766 95.0967 10.6384C95.5036 11.4919 96.4077 13.2195 98.6078 13.3558L98.7142 11.6372ZM95.3518 8.29514L95.298 6.57415C94.1198 6.61097 93.398 7.41641 93.0532 8.07237C92.705 8.73493 92.5703 9.50854 92.5703 10.2311H94.2921H96.0139C96.0139 10.0743 96.0292 9.9419 96.0508 9.83961C96.0729 9.73442 96.0971 9.68293 96.1016 9.6744C96.1077 9.66268 96.073 9.73603 95.9591 9.82335C95.8304 9.92208 95.6361 10.0089 95.4056 10.0161L95.3518 8.29514ZM94.2921 10.2311H92.5703C92.5703 11.7783 92.9393 13.2469 93.7654 14.3775C94.6255 15.5548 95.9257 16.2732 97.4711 16.2732V14.5513V12.8295C97.0806 12.8295 96.7913 12.6818 96.5459 12.346C96.2664 11.9635 96.0139 11.272 96.0139 10.2311H94.2921ZM97.4711 14.5513V16.2732C99.2326 16.2732 100.298 15.3629 100.89 14.6826L99.5905 13.5528L98.2912 12.423C98.1639 12.5694 98.055 12.6626 97.9468 12.7227C97.853 12.7748 97.712 12.8295 97.4711 12.8295V14.5513ZM99.5905 13.5528L100.886 14.6866C100.602 15.0119 100.12 15.1834 99.6287 15.0419C99.378 14.9697 99.1263 14.8134 98.9402 14.5649C98.7499 14.3108 98.6838 14.0355 98.6838 13.8177H100.406H102.127C102.127 12.8229 101.494 11.9953 100.581 11.7326C99.7535 11.4943 98.8646 11.7676 98.2947 12.419L99.5905 13.5528ZM100.406 13.8177H98.6838C98.6838 14.2874 98.5093 14.7098 98.1689 15.0248C97.8305 15.3379 97.1969 15.6621 96.0854 15.6621V17.384V19.1058C97.8881 19.1058 99.4145 18.5639 100.508 17.5524C101.599 16.5428 102.127 15.1821 102.127 13.8177H100.406ZM112.282 15.3257L110.858 16.2939L110.859 16.2957L112.282 15.3257ZM108.206 15.3257L106.738 16.2246L106.747 16.2393L106.756 16.2539L108.206 15.3257ZM106.759 12.9618L108.228 12.063L107.129 10.2668L105.587 11.7011L106.759 12.9618ZM105.883 13.777L104.71 12.5163L104.161 13.027V13.777H105.883ZM101.196 3.54695L100.471 1.98511L100.468 1.98666L101.196 3.54695ZM104.885 1.83516L105.609 3.39699L105.613 3.39545L104.885 1.83516ZM105.883 11.8206H104.161V15.5331L106.995 13.135L105.883 11.8206ZM108.267 9.80315L107.157 8.48717L107.155 8.48873L108.267 9.80315ZM110.183 9.78278L109.011 8.52101L109.004 8.5282L110.183 9.78278ZM109.164 10.7406L107.985 9.48599L106.914 10.493L107.74 11.7088L109.164 10.7406ZM112.282 15.3257L110.859 16.2957C111.095 16.641 111.387 16.8766 111.549 17.0008C111.638 17.0696 111.728 17.134 111.791 17.1796C111.863 17.231 111.909 17.2643 111.95 17.2957C112.042 17.3666 112.01 17.3552 111.953 17.2779C111.875 17.1718 111.763 16.9575 111.763 16.6707H113.484H115.206C115.206 15.4509 114.313 14.7681 114.046 14.5632C113.955 14.494 113.866 14.4295 113.802 14.3839C113.731 14.3324 113.687 14.3005 113.649 14.2715C113.556 14.2002 113.622 14.2346 113.705 14.3558L112.282 15.3257ZM113.484 16.6707H111.763V16.7522H113.484H115.206V16.6707H113.484ZM113.484 16.7522H111.763C111.763 16.4049 111.915 16.0134 112.246 15.7397C112.541 15.495 112.837 15.4583 112.975 15.4583V17.1802V18.902C113.418 18.902 113.969 18.7838 114.443 18.3914C114.951 17.97 115.206 17.3645 115.206 16.7522H113.484ZM112.975 17.1802V15.4583H108.288V17.1802V18.902H112.975V17.1802ZM108.288 17.1802V15.4583C108.475 15.4583 108.779 15.5174 109.06 15.7664C109.358 16.0302 109.5 16.3959 109.5 16.7318H107.778H106.057C106.057 17.3327 106.301 17.9226 106.777 18.3443C107.236 18.7513 107.795 18.902 108.288 18.902V17.1802ZM107.778 16.7318H109.5V16.6503H107.778H106.057V16.7318H107.778ZM107.778 16.6503H109.5C109.5 17.063 109.188 17.3759 109.477 17.0031C109.549 16.9092 109.828 16.5633 109.948 16.0755C110.101 15.4573 109.958 14.8685 109.657 14.3976L108.206 15.3257L106.756 16.2539C106.701 16.1682 106.628 16.0239 106.59 15.8264C106.551 15.6212 106.563 15.4218 106.606 15.2478C106.646 15.0861 106.706 14.9756 106.734 14.928C106.76 14.8838 106.777 14.8647 106.753 14.8965C106.741 14.9117 106.729 14.926 106.706 14.9557C106.686 14.9814 106.657 15.0174 106.627 15.0571C106.568 15.1359 106.484 15.2513 106.402 15.3929C106.228 15.6918 106.057 16.1162 106.057 16.6503H107.778ZM108.206 15.3257L109.675 14.4269L108.228 12.063L106.759 12.9618L105.291 13.8607L106.738 16.2246L108.206 15.3257ZM106.759 12.9618L105.587 11.7011L104.71 12.5163L105.883 13.777L107.056 15.0377L107.932 14.2225L106.759 12.9618ZM105.883 13.777H104.161V14.7348H105.883H107.605V13.777H105.883ZM105.883 14.7348H104.161C104.161 15.8624 104.732 16.5875 105.031 16.9449C105.146 17.0829 105.12 17.0486 105.198 17.1422C105.237 17.1898 105.243 17.2003 105.237 17.1909C105.22 17.1642 105.099 16.9712 105.099 16.6707H106.821H108.542C108.542 16.0543 108.304 15.5862 108.111 15.2934C107.952 15.0524 107.72 14.7925 107.673 14.7356C107.503 14.5326 107.605 14.6057 107.605 14.7348H105.883ZM106.821 16.6707H105.099V16.7522H106.821H108.542V16.6707H106.821ZM106.821 16.7522H105.099C105.099 16.4049 105.252 16.0134 105.582 15.7397C105.877 15.495 106.173 15.4583 106.311 15.4583V17.1802V18.902C106.755 18.902 107.305 18.7838 107.779 18.3914C108.288 17.97 108.542 17.3645 108.542 16.7522H106.821ZM106.311 17.1802V15.4583H101.4V17.1802V18.902H106.311V17.1802ZM101.4 17.1802V15.4583C101.538 15.4583 101.834 15.495 102.129 15.7397C102.459 16.0134 102.612 16.4049 102.612 16.7522H100.89H99.1686C99.1686 17.3645 99.4233 17.97 99.932 18.3914C100.406 18.7838 100.956 18.902 101.4 18.902V17.1802ZM100.89 16.7522H102.612V16.6707H100.89H99.1686V16.7522H100.89ZM100.89 16.6707H102.612C102.612 16.9207 102.522 17.0869 102.505 17.1154C102.5 17.1239 102.505 17.1134 102.54 17.0665C102.61 16.9724 102.585 17.0086 102.689 16.8694C102.967 16.4955 103.448 15.7968 103.448 14.7348H101.726H100.004C100.004 14.7378 100.004 14.7292 100.007 14.7132C100.011 14.6974 100.016 14.685 100.018 14.6792C100.02 14.6751 100.01 14.7009 99.9277 14.8112C99.8855 14.8679 99.6785 15.1285 99.5371 15.3688C99.3636 15.6636 99.1686 16.1049 99.1686 16.6707H100.89ZM101.726 14.7348H103.448V5.99237H101.726H100.004V14.7348H101.726ZM101.726 5.99237H103.448C103.448 4.79832 102.783 4.05202 102.447 3.70314C102.388 3.64192 102.265 3.51858 102.247 3.49991C102.197 3.44831 102.187 3.43611 102.193 3.44291C102.193 3.44298 102.408 3.70025 102.408 4.13793H100.687H98.9648C98.9648 4.85072 99.3103 5.35252 99.5052 5.59587C99.6081 5.7243 99.7125 5.83342 99.7839 5.90647C99.8875 6.01247 99.8946 6.01713 99.9656 6.09091C100.15 6.28207 100.004 6.18788 100.004 5.99237H101.726ZM100.687 4.13793H102.408V4.05641H100.687H98.9648V4.13793H100.687ZM100.687 4.05641H102.408C102.408 4.24655 102.366 4.45706 102.265 4.65964C102.169 4.85343 102.049 4.98092 101.968 5.05241C101.928 5.0878 101.895 5.11205 101.875 5.12626C101.854 5.14047 101.841 5.14793 101.839 5.14873C101.838 5.14958 101.843 5.14647 101.859 5.13876C101.874 5.13106 101.895 5.12099 101.924 5.10725L101.196 3.54695L100.468 1.98666C100.327 2.05252 99.9842 2.20965 99.6851 2.47453C99.3017 2.81415 98.9648 3.34958 98.9648 4.05641H100.687ZM101.196 3.54695L101.921 5.10878L105.609 3.39699L104.885 1.83516L104.16 0.273323L100.471 1.98512L101.196 3.54695ZM104.885 1.83516L105.613 3.39545C105.548 3.42548 105.178 3.55132 104.74 3.29379C104.328 3.05163 104.161 2.63857 104.161 2.30386H105.883H107.605C107.605 1.56158 107.244 0.771521 106.486 0.325577C105.702 -0.135735 104.832 -0.0404682 104.156 0.274862L104.885 1.83516ZM105.883 2.30386H104.161V11.8206H105.883H107.605V2.30386H105.883ZM105.883 11.8206L106.995 13.135L109.38 11.1176L108.267 9.80315L107.155 8.48873L104.771 10.5062L105.883 11.8206ZM108.267 9.80315L109.378 11.1191C109.629 10.907 109.871 10.6194 110.025 10.2432C110.182 9.86091 110.21 9.48238 110.168 9.1518C110.096 8.56976 109.804 8.12124 109.683 7.93879C109.609 7.82726 109.529 7.71501 109.481 7.64764C109.423 7.56654 109.393 7.52301 109.373 7.49106C109.303 7.37766 109.459 7.5697 109.459 7.92833H107.738H106.016C106.016 8.28028 106.1 8.57643 106.184 8.79102C106.268 9.00472 106.37 9.18362 106.451 9.31257C106.532 9.44205 106.616 9.56107 106.674 9.6426C106.741 9.73786 106.778 9.78832 106.811 9.83854C106.842 9.88616 106.841 9.88938 106.829 9.86325C106.817 9.8386 106.771 9.73656 106.751 9.57632C106.729 9.39954 106.742 9.17177 106.839 8.93624C106.933 8.70672 107.069 8.56175 107.157 8.48717L108.267 9.80315ZM107.738 7.92833H109.459V7.84682H107.738H106.016V7.92833H107.738ZM107.738 7.84682H109.459C109.459 8.18273 109.317 8.54851 109.019 8.81225C108.738 9.0613 108.434 9.12032 108.247 9.12032V7.39849V5.67666C107.754 5.67666 107.196 5.82738 106.736 6.23437C106.26 6.65604 106.016 7.24599 106.016 7.84682H107.738ZM108.247 7.39849V9.12032H111.711V7.39849V5.67666H108.247V7.39849ZM111.711 7.39849V9.12032C111.574 9.12032 111.278 9.08366 110.982 8.83897C110.652 8.56527 110.499 8.17374 110.499 7.82644H112.221H113.943C113.943 7.21422 113.688 6.60871 113.179 6.18727C112.706 5.79483 112.155 5.67666 111.711 5.67666V7.39849ZM112.221 7.82644H110.499V7.90795H112.221H113.943V7.82644H112.221ZM112.221 7.90795H110.499C110.499 7.49205 110.701 7.2513 110.722 7.22796C110.735 7.21247 110.697 7.25668 110.515 7.38791C110.434 7.44695 110.342 7.51 110.23 7.58704C110.123 7.66064 109.996 7.74727 109.868 7.8381C109.611 8.0196 109.306 8.24706 109.011 8.52103L110.183 9.78278L111.355 11.0445C111.68 10.7426 111.978 10.5788 112.53 10.1805C112.751 10.0214 113.062 9.78539 113.324 9.48332C113.593 9.17341 113.943 8.63972 113.943 7.90795H112.221ZM110.183 9.78278L109.004 8.5282L107.985 9.48599L109.164 10.7406L110.343 11.9951L111.362 11.0373L110.183 9.78278ZM109.164 10.7406L107.74 11.7088L110.858 16.2939L112.282 15.3257L113.706 14.3575L110.588 9.77236L109.164 10.7406ZM121.165 13.8789L119.948 12.6613V12.6613L121.165 13.8789ZM121.002 11.1074L120.064 9.66372L120.062 9.665L121.002 11.1074ZM117.314 13.512L116.373 12.0697L114.802 13.094L115.957 14.5721L117.314 13.512ZM116.723 12.3708L115.099 12.9439L115.871 15.1323L117.742 13.7586L116.723 12.3708ZM118.027 11.4131L119.046 12.8009L119.053 12.7957L119.06 12.7905L118.027 11.4131ZM121.165 13.8789L122.383 15.0964C122.109 15.3698 121.626 15.5473 121.11 15.3669C120.525 15.1627 120.238 14.6235 120.238 14.1845H121.96H123.682C123.682 13.2769 123.151 12.432 122.245 12.1157C121.407 11.8232 120.527 12.0822 119.948 12.6613L121.165 13.8789ZM121.96 14.1845H120.238C120.238 14.1254 120.19 14.5032 119.721 14.9501C119.321 15.3306 118.704 15.6621 117.823 15.6621V17.384V19.1058C119.653 19.1058 121.104 18.3878 122.095 17.4438C123.017 16.566 123.682 15.3442 123.682 14.1845H121.96ZM117.823 17.384V15.6621C116.708 15.6621 115.887 15.288 115.348 14.7459C114.808 14.2033 114.43 13.37 114.43 12.2282H112.708H110.986C110.986 14.1635 111.647 15.9081 112.906 17.1741C114.165 18.4406 115.902 19.1058 117.823 19.1058V17.384ZM112.708 12.2282H114.43C114.43 10.2214 115.962 8.91654 117.762 8.91654V7.19471V5.47287C114.264 5.47287 110.986 8.12148 110.986 12.2282H112.708ZM117.762 7.19471V8.91654C118.803 8.91654 119.378 9.19907 119.658 9.42657C119.948 9.66246 119.973 9.86907 119.973 9.90505H121.695H123.417C123.417 7.41756 121.076 5.47287 117.762 5.47287V7.19471ZM121.695 9.90505H119.973C119.973 9.89207 119.975 9.86227 119.987 9.82186C119.998 9.78133 120.015 9.74317 120.035 9.71079C120.074 9.6469 120.103 9.63811 120.064 9.66372L121.002 11.1074L121.941 12.551C122.712 12.0499 123.417 11.1731 123.417 9.90505H121.695ZM121.002 11.1074L120.062 9.665L116.373 12.0697L117.314 13.512L118.254 14.9544L121.943 12.5498L121.002 11.1074ZM117.314 13.512L115.957 14.5721C116.767 15.6095 117.946 16.2528 119.352 16.2528V14.531V12.8091C119.086 12.8091 118.879 12.7188 118.671 12.452L117.314 13.512ZM119.352 14.531V16.2528C119.941 16.2528 120.512 16.1293 120.998 15.9481C121.464 15.7743 121.98 15.4992 122.383 15.0964L121.165 13.8789L119.948 12.6613C119.986 12.623 119.997 12.6228 119.958 12.6457C119.924 12.6661 119.868 12.694 119.794 12.7216C119.638 12.7798 119.475 12.8091 119.352 12.8091V14.531ZM117.436 8.29514V6.57331C116.32 6.57331 115.566 7.25905 115.173 7.90464C114.79 8.53468 114.634 9.27304 114.634 9.9458H116.356H118.078C118.078 9.86591 118.088 9.79635 118.101 9.74441C118.114 9.69026 118.126 9.67666 118.115 9.69438C118.105 9.71098 118.054 9.78911 117.934 9.86852C117.802 9.95613 117.625 10.017 117.436 10.017V8.29514ZM116.356 9.9458H114.634C114.634 11.0092 114.775 12.0259 115.099 12.9439L116.723 12.3708L118.346 11.7978C118.181 11.33 118.078 10.7165 118.078 9.9458H116.356ZM116.723 12.3708L117.742 13.7586L119.046 12.8009L118.027 11.4131L117.008 10.0253L115.704 10.983L116.723 12.3708ZM118.027 11.4131L119.06 12.7905C119.862 12.1887 120.279 11.2268 120.279 10.2922H118.557H116.835C116.835 10.2585 116.842 10.2261 116.858 10.192C116.874 10.1591 116.911 10.0978 116.994 10.0356L118.027 11.4131ZM118.557 10.2922H120.279C120.279 9.90108 120.229 9.17234 119.968 8.47514C119.723 7.82214 119.014 6.57331 117.436 6.57331V8.29514V10.017C117.336 10.017 117.217 9.99717 117.096 9.94653C116.977 9.89685 116.888 9.83119 116.829 9.77455C116.723 9.67454 116.716 9.61041 116.743 9.68429C116.767 9.74673 116.793 9.84856 116.812 9.98049C116.83 10.1085 116.835 10.2238 116.835 10.2922H118.557ZM122.904 8.80461L122.169 7.24733L122.151 7.25574L122.134 7.26455L122.904 8.80461ZM126.144 7.27622L125.419 5.71447L125.409 5.71894L126.144 7.27622ZM126.918 9.25293H125.196L128.557 9.78228L126.918 9.25293ZM129.792 7.19471V8.91654C129.832 8.91654 129.859 8.92037 129.875 8.92355C129.89 8.92669 129.897 8.9297 129.898 8.93C129.898 8.93027 129.897 8.92953 129.894 8.92779C129.892 8.92612 129.892 8.92582 129.895 8.92876C129.902 8.93744 129.985 9.04671 129.985 9.33445H131.707H133.429C133.429 8.39948 133.155 7.43887 132.506 6.68336C131.832 5.89956 130.866 5.47287 129.792 5.47287V7.19471ZM131.707 9.33445H129.985C129.985 9.52227 129.968 9.66526 129.945 9.76533C129.922 9.8659 129.9 9.89113 129.911 9.87475C129.929 9.84807 129.971 9.80472 130.028 9.77662C130.078 9.75146 130.072 9.77274 129.955 9.77274V11.4946V13.2164C131.132 13.2164 132.134 12.7306 132.759 11.8102C133.308 11.0026 133.429 10.0599 133.429 9.33445H131.707ZM129.955 11.4946V9.77274C129.72 9.77274 129.83 9.72065 130.006 9.87282C130.156 10.002 130.167 10.1255 130.126 9.98846C130.103 9.90958 130.091 9.85137 130.05 9.68757C130.02 9.56523 129.962 9.3354 129.863 9.10166C129.761 8.86266 129.566 8.49464 129.182 8.19236C128.766 7.86397 128.285 7.73489 127.835 7.73489V9.45672V11.1786C127.625 11.1786 127.325 11.1132 127.05 10.8962C126.808 10.7054 126.714 10.4966 126.694 10.4486C126.675 10.4059 126.679 10.399 126.707 10.5154C126.726 10.5905 126.771 10.787 126.823 10.9628C126.933 11.3353 127.164 11.9682 127.756 12.4795C128.375 13.0138 129.15 13.2164 129.955 13.2164V11.4946ZM127.835 9.45672V7.73489C127.245 7.73489 126.714 7.97643 126.332 8.37683C126 8.72482 125.851 9.11707 125.777 9.37149C125.633 9.86662 125.624 10.4024 125.624 10.7202H127.346H129.068C129.068 10.5857 129.071 10.4809 129.078 10.4002C129.086 10.3128 129.093 10.2989 129.084 10.3316C129.079 10.3491 129.024 10.544 128.824 10.7538C128.715 10.8682 128.567 10.9823 128.377 11.0645C128.187 11.1471 127.999 11.1786 127.835 11.1786V9.45672ZM127.346 10.7202H125.624V14.7348H127.346H129.068V10.7202H127.346ZM127.346 14.7348H125.624C125.624 15.9881 126.389 16.7527 126.71 17.0687C126.846 17.2016 126.822 17.1749 126.914 17.2664C126.964 17.3161 126.973 17.3288 126.967 17.3209C126.958 17.3095 126.766 17.0714 126.766 16.6707H128.487H130.209C130.209 15.9541 129.874 15.4409 129.651 15.1634C129.46 14.9255 129.185 14.6727 129.123 14.6119C128.874 14.3675 129.068 14.48 129.068 14.7348H127.346ZM128.487 16.6707H126.766V16.7522H128.487H130.209V16.6707H128.487ZM128.487 16.7522H126.766C126.766 16.4049 126.918 16.0134 127.249 15.7397C127.544 15.495 127.84 15.4583 127.978 15.4583V17.1802V18.902C128.421 18.902 128.972 18.7838 129.446 18.3914C129.954 17.97 130.209 17.3645 130.209 16.7522H128.487ZM127.978 17.1802V15.4583H123.107V17.1802V18.902H127.978V17.1802ZM123.107 17.1802V15.4583C123.245 15.4583 123.541 15.495 123.837 15.7397C124.167 16.0134 124.32 16.4049 124.32 16.7522H122.598H120.876C120.876 17.3645 121.131 17.97 121.64 18.3914C122.113 18.7838 122.664 18.902 123.107 18.902V17.1802ZM122.598 16.7522H124.32V16.6707H122.598H120.876V16.7522H122.598ZM122.598 16.6707H124.32C124.32 16.9207 124.229 17.0869 124.212 17.1154C124.208 17.1239 124.213 17.1134 124.248 17.0665C124.317 16.9724 124.292 17.0086 124.396 16.8694C124.675 16.4955 125.155 15.7968 125.155 14.7348H123.434H121.712C121.712 14.7378 121.712 14.7292 121.715 14.7132C121.718 14.6974 121.723 14.685 121.726 14.6792C121.727 14.6751 121.718 14.7009 121.635 14.8112C121.593 14.8679 121.386 15.1285 121.245 15.3688C121.071 15.6636 120.876 16.1049 120.876 16.6707H122.598ZM123.434 14.7348H125.155V11.25H123.434H121.712V14.7348H123.434ZM123.434 11.25H125.155C125.155 10.6741 124.998 10.1718 124.741 9.75076C124.505 9.36224 124.214 9.09707 124.053 8.95529C124.012 8.91872 123.971 8.88348 123.941 8.85832C123.909 8.83036 123.888 8.81201 123.87 8.79585C123.831 8.76108 123.84 8.76634 123.865 8.79585C123.936 8.87857 124.116 9.13603 124.116 9.51785H122.394H120.672C120.672 10.2156 120.982 10.7226 121.248 11.0333C121.37 11.1769 121.493 11.2907 121.576 11.3647C121.619 11.4029 121.661 11.4389 121.692 11.4661C121.727 11.4961 121.751 11.5167 121.775 11.5375C121.874 11.625 121.843 11.612 121.801 11.5431C121.739 11.4418 121.712 11.3267 121.712 11.25H123.434ZM122.394 9.51785H124.116V9.43634H122.394H120.672V9.51785H122.394ZM122.394 9.43634H124.116C124.116 9.74242 123.997 10.0067 123.852 10.1814C123.733 10.3247 123.635 10.364 123.674 10.3447L122.904 8.80461L122.134 7.26455C121.596 7.53354 120.672 8.18792 120.672 9.43634H122.394ZM122.904 8.80461L123.638 10.3619L126.878 8.8335L126.144 7.27622L125.409 5.71894L122.169 7.24733L122.904 8.80461ZM126.144 7.27622L126.869 8.83794C126.868 8.83825 126.735 8.90253 126.506 8.90253C126.242 8.90253 125.92 8.81513 125.643 8.58368C125.388 8.37161 125.281 8.1312 125.239 8.0011C125.197 7.87165 125.196 7.78414 125.196 7.7653H126.918H128.64C128.64 7.39903 128.573 6.54267 127.847 5.93819C126.971 5.20751 125.956 5.46523 125.419 5.7145L126.144 7.27622ZM126.918 7.7653H125.196V9.25293H126.918H128.64V7.7653H126.918ZM126.918 9.25293L128.557 9.78228C128.682 9.39359 128.843 9.21249 128.972 9.11864C129.1 9.02514 129.336 8.91654 129.792 8.91654V7.19471V5.47287C128.759 5.47287 127.773 5.73108 126.943 6.33555C126.114 6.93966 125.582 7.78767 125.28 8.72359L126.918 9.25293Z" fill="#FFF6EF" mask="url(#path-1-outside-1_17103_393)"/>
</svg>
