<svg width="111" height="20" viewBox="0 0 111 20" fill="none" xmlns="http://www.w3.org/2000/svg">
<mask id="path-1-outside-1_17104_401" maskUnits="userSpaceOnUse" x="-0.523438" y="-0.819824" width="111" height="20" fill="black">
<rect fill="white" x="-0.523438" y="-0.819824" width="111" height="20"/>
<path d="M18.8798 14.7348C19.0632 15.7333 19.7153 16.039 19.7153 16.6707V16.7522C19.7153 17.0171 19.5115 17.1802 19.2059 17.1802H14.4984C14.1928 17.1802 13.989 17.0171 13.989 16.7522V16.6707C13.989 16.039 14.8856 15.7129 14.7226 14.7348L13.6425 8.47855L10.7895 16.5281C10.6469 16.956 10.4431 17.1598 9.99478 17.1598C9.54645 17.1598 9.26115 16.9764 9.07775 16.5484L5.65416 8.07098L4.71675 14.7348C4.5741 15.7333 5.45037 16.039 5.45037 16.6707V16.7522C5.45037 17.0171 5.24659 17.1802 4.94091 17.1802H2.23057C1.92489 17.1802 1.7211 17.0171 1.7211 16.7522V16.6707C1.7211 16.039 2.41397 15.7333 2.55662 14.7348L4.0035 5.15685C4.14615 4.15831 3.16798 3.85263 3.16798 3.22089V3.13938C3.16798 2.87446 3.37176 2.71143 3.67744 2.71143H6.73422C7.30482 2.71143 7.71239 2.97635 7.89579 3.50619L10.5858 11.3723L13.1127 3.54695C13.2961 2.99673 13.6833 2.71143 14.2539 2.71143H17.3922C17.6979 2.71143 17.9016 2.87446 17.9016 3.13938V3.22089C17.9016 3.85263 16.8827 4.15831 17.0661 5.15685L18.8798 14.7348ZM30.65 14.7959C30.65 16.5077 31.4651 15.6722 31.4651 16.5688C31.4651 17.1598 30.5685 17.3024 29.142 17.3024C27.8174 17.3024 27.2468 17.0171 27.1041 16.2428C26.5947 16.9764 25.6776 17.384 24.3123 17.384C22.3152 17.384 20.5015 15.9982 20.5015 13.5324V10.1903C20.5015 9.1918 19.666 8.88612 19.666 8.3359V8.25439C19.666 8.00985 19.8698 7.78568 20.1754 7.74492L23.5583 7.2966C24.2308 7.21508 24.6383 7.35773 24.6383 7.7653L24.5568 13.9604C24.5364 15.448 24.8625 15.8963 25.5757 15.8963C26.1463 15.8963 26.5947 15.2035 26.5947 14.1438V10.1903C26.5947 9.1918 25.7592 8.88612 25.7592 8.3359V8.25439C25.7592 8.00985 25.9629 7.78568 26.2686 7.74492L29.6514 7.2966C30.3239 7.21508 30.65 7.35773 30.65 7.7653V14.7959ZM39.301 7.1947C40.5033 7.1947 41.2166 8.11174 41.2166 9.33445C41.2166 10.4756 40.809 11.4946 39.464 11.4946C37.3854 11.4946 38.3024 9.45672 37.3447 9.45672C36.9167 9.45672 36.8556 10.0885 36.8556 10.7202V14.7348C36.8556 15.7333 37.9968 16.039 37.9968 16.6707V16.7522C37.9968 17.0171 37.793 17.1802 37.4873 17.1802H32.6168C32.3112 17.1802 32.1074 17.0171 32.1074 16.7522V16.6707C32.1074 16.039 32.9429 15.7333 32.9429 14.7348V11.25C32.9429 10.2515 31.9036 10.1496 31.9036 9.51786V9.43634C31.9036 9.17142 32.087 8.96764 32.4131 8.80461L35.6532 7.27622C36.2238 7.0113 36.4276 7.33735 36.4276 7.7653V9.25293C36.8556 7.92833 37.8134 7.1947 39.301 7.1947ZM44.4294 6.39994C42.8806 6.39994 41.8413 5.4014 41.8413 4.13793C41.8413 2.87446 42.8806 1.89629 44.4294 1.89629C45.9781 1.89629 47.0174 2.87446 47.0174 4.13793C47.0174 5.4014 45.9781 6.39994 44.4294 6.39994ZM41.9839 17.1802C41.6783 17.1802 41.4745 17.0171 41.4745 16.7522V16.6707C41.4745 16.039 42.31 15.7333 42.31 14.7348V11.4538C42.31 10.4553 41.4745 10.1496 41.4745 9.59937V9.51786C41.4745 9.27331 41.6783 9.15104 41.9839 9.00839L45.4687 7.2966C46.08 6.99092 46.4672 7.35773 46.4672 7.7653V14.7348C46.4672 15.7333 47.4046 16.039 47.4046 16.6707V16.7522C47.4046 17.0171 47.2008 17.1802 46.8952 17.1802H41.9839ZM48.3038 17.1802C47.9982 17.1802 47.7944 17.0171 47.7944 16.7522V16.6707C47.7944 16.039 48.6299 15.7333 48.6299 14.7348V5.99237C48.6299 4.99382 47.7944 4.68815 47.7944 4.13793V4.05641C47.7944 3.81187 47.9982 3.6896 48.3038 3.54695L51.7886 1.83516C52.3999 1.52948 52.7871 1.89629 52.7871 2.30386V14.7348C52.7871 15.7333 53.7245 16.039 53.7245 16.6707V16.7522C53.7245 17.0171 53.5207 17.1802 53.2151 17.1802H48.3038ZM59.8643 17.384C56.8891 17.384 54.1787 15.3461 54.1787 12.2893C54.1787 9.23256 56.8891 7.1947 59.8643 7.1947C62.86 7.1947 65.5296 9.23256 65.5296 12.2893C65.5296 15.3461 62.86 17.384 59.8643 17.384ZM60.3534 16.2835C61.1686 16.2835 61.2908 15.4276 61.2908 14.1438C61.2908 13.0637 60.6795 8.29514 59.1715 8.29514C58.3767 8.29514 58.2544 9.06953 58.2544 10.4756C58.2544 11.7799 58.8658 16.2835 60.3534 16.2835ZM77.2523 17.384C72.7079 17.384 69.7734 13.7362 69.7734 9.9458C69.7734 5.25875 73.3193 2.52803 76.6613 2.52803C80.1257 2.52803 82.7545 4.05641 82.7545 6.29805C82.7545 7.41887 82.0209 8.15249 80.9204 8.15249C78.0063 8.15249 77.5784 4.13793 75.6424 4.13793C74.4808 4.13793 73.8083 5.42177 73.8083 7.17433C73.8083 11.1481 75.7443 14.531 78.1693 14.531C78.4546 14.531 78.6177 14.5106 78.7807 14.4698V12.0855C78.7807 11.087 77.7006 10.7813 77.7006 10.1496V10.0681C77.7006 9.80315 77.9656 9.64013 78.2712 9.64013L83.1009 9.6605C83.4066 9.6605 83.6104 9.82353 83.6104 10.0885V10.17C83.6104 10.8017 82.673 11.1074 82.673 12.1059V14.2457C82.673 14.8774 82.51 15.3054 81.7356 15.9167C80.8797 16.5892 79.3513 17.384 77.2523 17.384ZM94.8367 14.7959C94.8367 16.5077 95.6519 15.6722 95.6519 16.5688C95.6519 17.1598 94.7552 17.3024 93.3287 17.3024C92.0041 17.3024 91.4335 17.0171 91.2909 16.2428C90.7814 16.9764 89.8644 17.384 88.499 17.384C86.5019 17.384 84.6882 15.9982 84.6882 13.5324V10.1903C84.6882 9.1918 83.8527 8.88612 83.8527 8.3359V8.25439C83.8527 8.00985 84.0565 7.78568 84.3622 7.74492L87.745 7.2966C88.4175 7.21508 88.8251 7.35773 88.8251 7.7653L88.7436 13.9604C88.7232 15.448 89.0492 15.8963 89.7625 15.8963C90.3331 15.8963 90.7814 15.2035 90.7814 14.1438V10.1903C90.7814 9.1918 89.9459 8.88612 89.9459 8.3359V8.25439C89.9459 8.00985 90.1497 7.78568 90.4553 7.74492L93.8382 7.2966C94.5107 7.21508 94.8367 7.35773 94.8367 7.7653V14.7959ZM107.604 14.7551C107.686 15.7537 108.338 16.0594 108.338 16.6911V16.7726C108.338 17.0375 108.134 17.2006 107.828 17.2006H103.325C103.019 17.2006 102.815 17.0375 102.815 16.7726V16.6911C102.815 16.0594 103.61 15.7537 103.549 14.7551L103.345 11.2296C103.243 9.33445 103.019 8.68234 102.224 8.68234C101.491 8.68234 101.226 9.37521 101.226 10.4349V14.7551C101.226 15.7537 102.163 16.0594 102.163 16.6911V16.7726C102.163 17.0375 101.959 17.2006 101.654 17.2006H96.7424C96.4368 17.2006 96.233 17.0375 96.233 16.7726V16.6911C96.233 16.0594 97.1704 15.7537 97.1704 14.7551V11.3112C97.1704 10.3126 96.0292 10.1292 96.0292 9.49748V9.41596C96.0292 9.15104 96.2534 9.02877 96.559 8.86574L99.7585 7.27622C100.309 6.99092 100.594 7.37811 100.594 7.80606V8.64158C101.124 7.70417 102.122 7.1947 103.447 7.1947C105.159 7.1947 107.074 8.09136 107.339 11.3723L107.604 14.7551Z"/>
</mask>
<path d="M18.8798 14.7348C19.0632 15.7333 19.7153 16.039 19.7153 16.6707V16.7522C19.7153 17.0171 19.5115 17.1802 19.2059 17.1802H14.4984C14.1928 17.1802 13.989 17.0171 13.989 16.7522V16.6707C13.989 16.039 14.8856 15.7129 14.7226 14.7348L13.6425 8.47855L10.7895 16.5281C10.6469 16.956 10.4431 17.1598 9.99478 17.1598C9.54645 17.1598 9.26115 16.9764 9.07775 16.5484L5.65416 8.07098L4.71675 14.7348C4.5741 15.7333 5.45037 16.039 5.45037 16.6707V16.7522C5.45037 17.0171 5.24659 17.1802 4.94091 17.1802H2.23057C1.92489 17.1802 1.7211 17.0171 1.7211 16.7522V16.6707C1.7211 16.039 2.41397 15.7333 2.55662 14.7348L4.0035 5.15685C4.14615 4.15831 3.16798 3.85263 3.16798 3.22089V3.13938C3.16798 2.87446 3.37176 2.71143 3.67744 2.71143H6.73422C7.30482 2.71143 7.71239 2.97635 7.89579 3.50619L10.5858 11.3723L13.1127 3.54695C13.2961 2.99673 13.6833 2.71143 14.2539 2.71143H17.3922C17.6979 2.71143 17.9016 2.87446 17.9016 3.13938V3.22089C17.9016 3.85263 16.8827 4.15831 17.0661 5.15685L18.8798 14.7348ZM30.65 14.7959C30.65 16.5077 31.4651 15.6722 31.4651 16.5688C31.4651 17.1598 30.5685 17.3024 29.142 17.3024C27.8174 17.3024 27.2468 17.0171 27.1041 16.2428C26.5947 16.9764 25.6776 17.384 24.3123 17.384C22.3152 17.384 20.5015 15.9982 20.5015 13.5324V10.1903C20.5015 9.1918 19.666 8.88612 19.666 8.3359V8.25439C19.666 8.00985 19.8698 7.78568 20.1754 7.74492L23.5583 7.2966C24.2308 7.21508 24.6383 7.35773 24.6383 7.7653L24.5568 13.9604C24.5364 15.448 24.8625 15.8963 25.5757 15.8963C26.1463 15.8963 26.5947 15.2035 26.5947 14.1438V10.1903C26.5947 9.1918 25.7592 8.88612 25.7592 8.3359V8.25439C25.7592 8.00985 25.9629 7.78568 26.2686 7.74492L29.6514 7.2966C30.3239 7.21508 30.65 7.35773 30.65 7.7653V14.7959ZM39.301 7.1947C40.5033 7.1947 41.2166 8.11174 41.2166 9.33445C41.2166 10.4756 40.809 11.4946 39.464 11.4946C37.3854 11.4946 38.3024 9.45672 37.3447 9.45672C36.9167 9.45672 36.8556 10.0885 36.8556 10.7202V14.7348C36.8556 15.7333 37.9968 16.039 37.9968 16.6707V16.7522C37.9968 17.0171 37.793 17.1802 37.4873 17.1802H32.6168C32.3112 17.1802 32.1074 17.0171 32.1074 16.7522V16.6707C32.1074 16.039 32.9429 15.7333 32.9429 14.7348V11.25C32.9429 10.2515 31.9036 10.1496 31.9036 9.51786V9.43634C31.9036 9.17142 32.087 8.96764 32.4131 8.80461L35.6532 7.27622C36.2238 7.0113 36.4276 7.33735 36.4276 7.7653V9.25293C36.8556 7.92833 37.8134 7.1947 39.301 7.1947ZM44.4294 6.39994C42.8806 6.39994 41.8413 5.4014 41.8413 4.13793C41.8413 2.87446 42.8806 1.89629 44.4294 1.89629C45.9781 1.89629 47.0174 2.87446 47.0174 4.13793C47.0174 5.4014 45.9781 6.39994 44.4294 6.39994ZM41.9839 17.1802C41.6783 17.1802 41.4745 17.0171 41.4745 16.7522V16.6707C41.4745 16.039 42.31 15.7333 42.31 14.7348V11.4538C42.31 10.4553 41.4745 10.1496 41.4745 9.59937V9.51786C41.4745 9.27331 41.6783 9.15104 41.9839 9.00839L45.4687 7.2966C46.08 6.99092 46.4672 7.35773 46.4672 7.7653V14.7348C46.4672 15.7333 47.4046 16.039 47.4046 16.6707V16.7522C47.4046 17.0171 47.2008 17.1802 46.8952 17.1802H41.9839ZM48.3038 17.1802C47.9982 17.1802 47.7944 17.0171 47.7944 16.7522V16.6707C47.7944 16.039 48.6299 15.7333 48.6299 14.7348V5.99237C48.6299 4.99382 47.7944 4.68815 47.7944 4.13793V4.05641C47.7944 3.81187 47.9982 3.6896 48.3038 3.54695L51.7886 1.83516C52.3999 1.52948 52.7871 1.89629 52.7871 2.30386V14.7348C52.7871 15.7333 53.7245 16.039 53.7245 16.6707V16.7522C53.7245 17.0171 53.5207 17.1802 53.2151 17.1802H48.3038ZM59.8643 17.384C56.8891 17.384 54.1787 15.3461 54.1787 12.2893C54.1787 9.23256 56.8891 7.1947 59.8643 7.1947C62.86 7.1947 65.5296 9.23256 65.5296 12.2893C65.5296 15.3461 62.86 17.384 59.8643 17.384ZM60.3534 16.2835C61.1686 16.2835 61.2908 15.4276 61.2908 14.1438C61.2908 13.0637 60.6795 8.29514 59.1715 8.29514C58.3767 8.29514 58.2544 9.06953 58.2544 10.4756C58.2544 11.7799 58.8658 16.2835 60.3534 16.2835ZM77.2523 17.384C72.7079 17.384 69.7734 13.7362 69.7734 9.9458C69.7734 5.25875 73.3193 2.52803 76.6613 2.52803C80.1257 2.52803 82.7545 4.05641 82.7545 6.29805C82.7545 7.41887 82.0209 8.15249 80.9204 8.15249C78.0063 8.15249 77.5784 4.13793 75.6424 4.13793C74.4808 4.13793 73.8083 5.42177 73.8083 7.17433C73.8083 11.1481 75.7443 14.531 78.1693 14.531C78.4546 14.531 78.6177 14.5106 78.7807 14.4698V12.0855C78.7807 11.087 77.7006 10.7813 77.7006 10.1496V10.0681C77.7006 9.80315 77.9656 9.64013 78.2712 9.64013L83.1009 9.6605C83.4066 9.6605 83.6104 9.82353 83.6104 10.0885V10.17C83.6104 10.8017 82.673 11.1074 82.673 12.1059V14.2457C82.673 14.8774 82.51 15.3054 81.7356 15.9167C80.8797 16.5892 79.3513 17.384 77.2523 17.384ZM94.8367 14.7959C94.8367 16.5077 95.6519 15.6722 95.6519 16.5688C95.6519 17.1598 94.7552 17.3024 93.3287 17.3024C92.0041 17.3024 91.4335 17.0171 91.2909 16.2428C90.7814 16.9764 89.8644 17.384 88.499 17.384C86.5019 17.384 84.6882 15.9982 84.6882 13.5324V10.1903C84.6882 9.1918 83.8527 8.88612 83.8527 8.3359V8.25439C83.8527 8.00985 84.0565 7.78568 84.3622 7.74492L87.745 7.2966C88.4175 7.21508 88.8251 7.35773 88.8251 7.7653L88.7436 13.9604C88.7232 15.448 89.0492 15.8963 89.7625 15.8963C90.3331 15.8963 90.7814 15.2035 90.7814 14.1438V10.1903C90.7814 9.1918 89.9459 8.88612 89.9459 8.3359V8.25439C89.9459 8.00985 90.1497 7.78568 90.4553 7.74492L93.8382 7.2966C94.5107 7.21508 94.8367 7.35773 94.8367 7.7653V14.7959ZM107.604 14.7551C107.686 15.7537 108.338 16.0594 108.338 16.6911V16.7726C108.338 17.0375 108.134 17.2006 107.828 17.2006H103.325C103.019 17.2006 102.815 17.0375 102.815 16.7726V16.6911C102.815 16.0594 103.61 15.7537 103.549 14.7551L103.345 11.2296C103.243 9.33445 103.019 8.68234 102.224 8.68234C101.491 8.68234 101.226 9.37521 101.226 10.4349V14.7551C101.226 15.7537 102.163 16.0594 102.163 16.6911V16.7726C102.163 17.0375 101.959 17.2006 101.654 17.2006H96.7424C96.4368 17.2006 96.233 17.0375 96.233 16.7726V16.6911C96.233 16.0594 97.1704 15.7537 97.1704 14.7551V11.3112C97.1704 10.3126 96.0292 10.1292 96.0292 9.49748V9.41596C96.0292 9.15104 96.2534 9.02877 96.559 8.86574L99.7585 7.27622C100.309 6.99092 100.594 7.37811 100.594 7.80606V8.64158C101.124 7.70417 102.122 7.1947 103.447 7.1947C105.159 7.1947 107.074 8.09136 107.339 11.3723L107.604 14.7551Z" fill="#2260A1"/>
<path d="M18.8798 14.7348L20.5733 14.4237L20.5716 14.4144L18.8798 14.7348ZM14.7226 14.7348L16.421 14.4517L16.4193 14.4418L14.7226 14.7348ZM13.6425 8.47855L15.3393 8.18563L14.2192 1.6975L12.0196 7.90334L13.6425 8.47855ZM10.7895 16.5281L9.16663 15.9529L9.16121 15.9682L9.15607 15.9836L10.7895 16.5281ZM9.07775 16.5484L7.48119 17.1932L7.48799 17.21L7.49514 17.2267L9.07775 16.5484ZM5.65416 8.07098L7.25071 7.42622L4.8443 1.4675L3.94911 7.83113L5.65416 8.07098ZM4.71675 14.7348L6.42128 14.9783L6.42179 14.9746L4.71675 14.7348ZM2.55662 14.7348L0.854054 14.4776L0.852098 14.4913L2.55662 14.7348ZM4.0035 5.15685L5.70607 5.41405L5.70802 5.40036L4.0035 5.15685ZM7.89579 3.50619L9.52501 2.94905L9.5229 2.94297L7.89579 3.50619ZM10.5858 11.3723L8.95655 11.9294L10.6326 16.8305L12.2243 11.9014L10.5858 11.3723ZM13.1127 3.54695L11.4792 3.00246L11.4767 3.01014L11.4742 3.01785L13.1127 3.54695ZM17.0661 5.15685L15.3726 5.46791L15.3744 5.47721L17.0661 5.15685ZM18.8798 14.7348L17.1863 15.0458C17.3442 15.9053 17.7204 16.474 17.9317 16.7924C18.1883 17.179 17.9935 16.9687 17.9935 16.6707H19.7153H21.4372C21.4372 15.741 20.9163 15.0619 20.801 14.8882C20.6404 14.6462 20.5989 14.5627 20.5733 14.4237L18.8798 14.7348ZM19.7153 16.6707H17.9935V16.7522H19.7153H21.4372V16.6707H19.7153ZM19.7153 16.7522H17.9935C17.9935 16.4049 18.1464 16.0134 18.4767 15.7397C18.772 15.495 19.0681 15.4583 19.2059 15.4583V17.1802V18.902C19.6493 18.902 20.2001 18.7838 20.6738 18.3914C21.1824 17.97 21.4372 17.3645 21.4372 16.7522H19.7153ZM19.2059 17.1802V15.4583H14.4984V17.1802V18.902H19.2059V17.1802ZM14.4984 17.1802V15.4583C14.6362 15.4583 14.9323 15.495 15.2276 15.7397C15.5579 16.0134 15.7108 16.4049 15.7108 16.7522H13.989H12.2671C12.2671 17.3645 12.5219 17.97 13.0305 18.3914C13.5042 18.7838 14.055 18.902 14.4984 18.902V17.1802ZM13.989 16.7522H15.7108V16.6707H13.989H12.2671V16.7522H13.989ZM13.989 16.6707H15.7108C15.7108 16.9455 15.6061 17.1201 15.5996 17.1308C15.5984 17.1328 15.6076 17.1175 15.6483 17.0625C15.6696 17.0338 15.7582 16.9164 15.8138 16.8394C15.9498 16.6506 16.1622 16.3367 16.3052 15.9204C16.4571 15.4782 16.5099 14.9851 16.421 14.4517L14.7226 14.7348L13.0242 15.0178C13.0168 14.9735 13.0187 14.8879 13.0483 14.8018C13.069 14.7415 13.0878 14.732 13.0201 14.8259C12.9737 14.8902 12.9579 14.9089 12.8799 15.0144C12.8212 15.0937 12.7362 15.211 12.6535 15.3478C12.484 15.6278 12.2671 16.0801 12.2671 16.6707H13.989ZM14.7226 14.7348L16.4193 14.4418L15.3393 8.18563L13.6425 8.47855L11.9458 8.77147L13.0259 15.0277L14.7226 14.7348ZM13.6425 8.47855L12.0196 7.90334L9.16663 15.9529L10.7895 16.5281L12.4125 17.1033L15.2654 9.05376L13.6425 8.47855ZM10.7895 16.5281L9.15607 15.9836C9.12579 16.0744 9.16903 15.8787 9.40185 15.6839C9.67682 15.4538 9.95025 15.438 9.99478 15.438V17.1598V18.8816C10.4876 18.8816 11.0871 18.7639 11.6117 18.3249C12.0942 17.9213 12.3106 17.4097 12.423 17.0726L10.7895 16.5281ZM9.99478 17.1598V15.438C10.0066 15.438 10.1807 15.4423 10.3864 15.5782C10.5911 15.7135 10.6598 15.8688 10.6604 15.8702L9.07775 16.5484L7.49514 17.2267C7.67914 17.6561 7.98215 18.117 8.48744 18.451C8.9937 18.7856 9.53468 18.8816 9.99478 18.8816V17.1598ZM9.07775 16.5484L10.6743 15.9037L7.25071 7.42622L5.65416 8.07098L4.0576 8.71574L7.48119 17.1932L9.07775 16.5484ZM5.65416 8.07098L3.94911 7.83113L3.0117 14.4949L4.71675 14.7348L6.42179 14.9746L7.3592 8.31083L5.65416 8.07098ZM4.71675 14.7348L3.01222 14.4913C2.93719 15.0165 2.99376 15.4996 3.1445 15.9341C3.28734 16.3457 3.49584 16.6557 3.63154 16.8447C3.68556 16.9199 3.77481 17.0385 3.79424 17.0649C3.8338 17.1186 3.84184 17.1324 3.83954 17.1285C3.82922 17.1113 3.72854 16.9383 3.72854 16.6707H5.45037H7.1722C7.1722 16.0872 6.96199 15.6391 6.79183 15.3557C6.7096 15.2188 6.62514 15.1017 6.56704 15.0228C6.48879 14.9165 6.47519 14.9008 6.4286 14.8359C6.36305 14.7446 6.37924 14.7515 6.39789 14.8053C6.42445 14.8818 6.42498 14.9523 6.42127 14.9783L4.71675 14.7348ZM5.45037 16.6707H3.72854V16.7522H5.45037H7.1722V16.6707H5.45037ZM5.45037 16.7522H3.72854C3.72854 16.4049 3.88139 16.0134 4.21171 15.7397C4.50704 15.495 4.80319 15.4583 4.94091 15.4583V17.1802V18.902C5.38431 18.902 5.93519 18.7838 6.40883 18.3914C6.91746 17.97 7.1722 17.3645 7.1722 16.7522H5.45037ZM4.94091 17.1802V15.4583H2.23057V17.1802V18.902H4.94091V17.1802ZM2.23057 17.1802V15.4583C2.36829 15.4583 2.66444 15.495 2.95977 15.7397C3.29008 16.0134 3.44294 16.4049 3.44294 16.7522H1.7211H-0.000726461C-0.000726461 17.3645 0.254019 17.97 0.762648 18.3914C1.23629 18.7838 1.78717 18.902 2.23057 18.902V17.1802ZM1.7211 16.7522H3.44294V16.6707H1.7211H-0.000726461V16.7522H1.7211ZM1.7211 16.6707H3.44294C3.44294 16.8518 3.38723 16.9813 3.36869 17.018C3.36326 17.0288 3.36619 17.0212 3.39147 16.9823C3.42088 16.937 3.44872 16.8972 3.50799 16.8103C3.7346 16.4779 4.13204 15.8821 4.26115 14.9783L2.55662 14.7348L0.852098 14.4913C0.838562 14.586 0.818239 14.6423 0.662747 14.8703C0.565373 15.0131 -0.000726461 15.7165 -0.000726461 16.6707H1.7211ZM2.55662 14.7348L4.25914 14.9919L5.70601 5.41404L4.0035 5.15685L2.30098 4.89966L0.854109 14.4776L2.55662 14.7348ZM4.0035 5.15685L5.70802 5.40036C5.78783 4.84169 5.71145 4.33118 5.53161 3.88197C5.36355 3.46219 5.12585 3.15128 4.9778 2.9683C4.92074 2.89777 4.81597 2.77362 4.79713 2.75082C4.75284 2.69724 4.74415 2.68381 4.74755 2.68886C4.75761 2.70384 4.88981 2.90309 4.88981 3.22089H3.16798H1.44615C1.44615 3.85457 1.70062 4.32893 1.88963 4.6101C1.9825 4.74825 2.07745 4.86569 2.14278 4.94473C2.23355 5.05455 2.24437 5.06476 2.30066 5.13434C2.37932 5.23156 2.35942 5.22378 2.33464 5.1619C2.29809 5.07059 2.29049 4.97274 2.29897 4.91335L4.0035 5.15685ZM3.16798 3.22089H4.88981V3.13938H3.16798H1.44615V3.22089H3.16798ZM3.16798 3.13938H4.88981C4.88981 3.48668 4.73696 3.87822 4.40664 4.15191C4.11131 4.39661 3.81516 4.43326 3.67744 4.43326V2.71143V0.989601C3.23404 0.989601 2.68316 1.10777 2.20952 1.50021C1.70089 1.92165 1.44615 2.52716 1.44615 3.13938H3.16798ZM3.67744 2.71143V4.43326H6.73422V2.71143V0.989601H3.67744V2.71143ZM6.73422 2.71143V4.43326C6.75298 4.43326 6.64271 4.43574 6.49657 4.33704C6.34151 4.23233 6.28099 4.10496 6.26869 4.06942L7.89579 3.50619L9.5229 2.94297C9.32719 2.37759 8.97118 1.85283 8.42384 1.4832C7.88541 1.11959 7.28606 0.989601 6.73422 0.989601V2.71143ZM7.89579 3.50619L6.26659 4.06333L8.95655 11.9294L10.5858 11.3723L12.215 10.8152L9.525 2.94906L7.89579 3.50619ZM10.5858 11.3723L12.2243 11.9014L14.7512 4.07606L13.1127 3.54695L11.4742 3.01785L8.94724 10.8432L10.5858 11.3723ZM13.1127 3.54695L14.7462 4.09144C14.7502 4.07932 14.7108 4.1981 14.5563 4.31135C14.3988 4.42688 14.2627 4.43326 14.2539 4.43326V2.71143V0.989601C13.6744 0.989601 13.0595 1.13864 12.5199 1.53437C11.9833 1.92782 11.6586 2.46436 11.4792 3.00246L13.1127 3.54695ZM14.2539 2.71143V4.43326H17.3922V2.71143V0.989601H14.2539V2.71143ZM17.3922 2.71143V4.43326C17.2545 4.43326 16.9583 4.39661 16.663 4.15191C16.3327 3.87822 16.1798 3.48668 16.1798 3.13938H17.9016H19.6235C19.6235 2.52716 19.3687 1.92165 18.8601 1.50021C18.3865 1.10777 17.8356 0.989601 17.3922 0.989601V2.71143ZM17.9016 3.13938H16.1798V3.22089H17.9016H19.6235V3.13938H17.9016ZM17.9016 3.22089H16.1798C16.1798 2.88394 16.3251 2.67593 16.3322 2.66571C16.3349 2.66176 16.3252 2.67603 16.2781 2.73131C16.252 2.76192 16.1537 2.87483 16.0884 2.95378C15.9347 3.13958 15.6852 3.45995 15.515 3.89676C15.3316 4.36731 15.2679 4.89753 15.3726 5.46791L17.0661 5.15685L18.7596 4.8458C18.7727 4.9169 18.7675 5.03446 18.7236 5.14711C18.6929 5.22602 18.6637 5.24326 18.7418 5.14886C18.7924 5.0877 18.8128 5.06625 18.8997 4.96424C18.9656 4.8869 19.063 4.7703 19.1584 4.63325C19.3509 4.35683 19.6235 3.87372 19.6235 3.22089H17.9016ZM17.0661 5.15685L15.3744 5.47721L17.188 15.0551L18.8798 14.7348L20.5716 14.4144L18.7579 4.8365L17.0661 5.15685ZM27.1041 16.2428L28.7975 15.9308L28.0484 11.8644L25.6899 15.2606L27.1041 16.2428ZM20.1754 7.74492L19.9492 6.03802L19.9479 6.0382L20.1754 7.74492ZM23.5583 7.2966L23.3511 5.58728L23.3416 5.58843L23.3321 5.58969L23.5583 7.2966ZM24.6383 7.7653L26.36 7.78796L26.3602 7.77663V7.7653H24.6383ZM24.5568 13.9604L26.2785 13.984L26.2785 13.983L24.5568 13.9604ZM26.2686 7.74492L26.0424 6.03802L26.041 6.0382L26.2686 7.74492ZM29.6514 7.2966L29.4443 5.58728L29.4347 5.58843L29.4252 5.58969L29.6514 7.2966ZM30.65 14.7959H28.9282C28.9282 15.3295 28.9868 15.8673 29.1974 16.3534C29.3097 16.6126 29.4621 16.8502 29.6583 17.0572C29.8529 17.2626 30.0506 17.3952 30.1993 17.4807C30.2693 17.521 30.3308 17.552 30.365 17.569C30.3739 17.5735 30.3823 17.5776 30.3886 17.5807C30.3956 17.5842 30.3999 17.5863 30.4042 17.5885C30.4127 17.5927 30.4134 17.5931 30.4108 17.5918C30.4081 17.5903 30.2773 17.5251 30.1358 17.3871C29.7584 17.0191 29.7433 16.6063 29.7433 16.5688H31.4651H33.187C33.187 16.083 33.07 15.4384 32.5398 14.9214C32.3218 14.7089 32.1019 14.5898 32.0036 14.5386C31.9614 14.5166 31.9033 14.4881 31.9021 14.4875C31.8862 14.4795 31.8967 14.4844 31.9158 14.4954C31.9627 14.5223 32.0584 14.5836 32.1576 14.6882C32.2582 14.7944 32.3215 14.9018 32.3573 14.9845C32.4151 15.1179 32.3718 15.1182 32.3718 14.7959H30.65ZM31.4651 16.5688H29.7433C29.7433 16.4188 29.7732 16.2416 29.8546 16.0613C29.9354 15.8825 30.045 15.749 30.1458 15.6575C30.3246 15.4953 30.4627 15.4751 30.3863 15.4958C30.3286 15.5116 30.1999 15.5363 29.9705 15.5545C29.7481 15.5722 29.474 15.5806 29.142 15.5806V17.3024V19.0243C29.859 19.0243 30.6451 18.9943 31.2906 18.8187C31.6168 18.7299 32.0682 18.5632 32.4596 18.208C32.9123 17.7974 33.187 17.2202 33.187 16.5688H31.4651ZM29.142 17.3024V15.5806C28.8661 15.5806 28.6797 15.5653 28.5577 15.5457C28.4342 15.5259 28.4226 15.5087 28.4689 15.5326C28.5306 15.5645 28.6288 15.6351 28.7105 15.7525C28.7863 15.8616 28.7995 15.942 28.7975 15.9308L27.1041 16.2428L25.4108 16.5547C25.5638 17.3852 26.0223 18.1456 26.8907 18.5934C27.5993 18.9587 28.4215 19.0243 29.142 19.0243V17.3024ZM27.1041 16.2428L25.6899 15.2606C25.6191 15.3626 25.3554 15.6621 24.3123 15.6621V17.384V19.1058C25.9999 19.1058 27.5703 18.5902 28.5184 17.2249L27.1041 16.2428ZM24.3123 17.384V15.6621C23.7054 15.6621 23.1851 15.4521 22.8313 15.1227C22.498 14.8124 22.2233 14.3154 22.2233 13.5324H20.5015H18.7797C18.7797 15.2153 19.4118 16.644 20.4846 17.643C21.537 18.6229 22.922 19.1058 24.3123 19.1058V17.384ZM20.5015 13.5324H22.2233V10.1903H20.5015H18.7797V13.5324H20.5015ZM20.5015 10.1903H22.2233C22.2233 9.12756 21.7443 8.42749 21.4456 8.04146C21.3986 7.98073 21.2967 7.85319 21.2844 7.83761C21.2451 7.78753 21.239 7.77717 21.2442 7.78512C21.2561 7.80367 21.3878 8.0102 21.3878 8.3359H19.666H17.9441C17.9441 8.93672 18.1803 9.38778 18.3489 9.6496C18.4801 9.85335 18.6996 10.1199 18.7218 10.1485C18.7945 10.2425 18.8004 10.2625 18.7954 10.2513C18.7917 10.2429 18.7867 10.2291 18.7831 10.2126C18.7795 10.196 18.7797 10.1872 18.7797 10.1903H20.5015ZM19.666 8.3359H21.3878V8.25439H19.666H17.9441V8.3359H19.666ZM19.666 8.25439H21.3878C21.3878 9.02727 20.7902 9.40002 20.403 9.45165L20.1754 7.74492L19.9479 6.0382C18.9493 6.17134 17.9441 6.99242 17.9441 8.25439H19.666ZM20.1754 7.74492L20.4017 9.45183L23.7845 9.0035L23.5583 7.2966L23.3321 5.58969L19.9492 6.03802L20.1754 7.74492ZM23.5583 7.2966L23.7655 9.00592C23.8099 9.00053 23.844 8.998 23.8685 8.99699C23.8932 8.99598 23.9044 8.99667 23.9036 8.99662C23.9032 8.9966 23.8848 8.9955 23.8522 8.98886C23.8198 8.98227 23.7652 8.96856 23.696 8.94013C23.5546 8.88204 23.334 8.75317 23.1548 8.4978C22.9703 8.23489 22.9165 7.96157 22.9165 7.7653H24.6383H26.3602C26.3602 7.36525 26.2555 6.92126 25.9735 6.51952C25.6968 6.12533 25.3323 5.88947 25.005 5.75495C24.4098 5.51037 23.7858 5.53458 23.3511 5.58728L23.5583 7.2966ZM24.6383 7.7653L22.9167 7.74265L22.8351 13.9377L24.5568 13.9604L26.2785 13.983L26.36 7.78796L24.6383 7.7653ZM24.5568 13.9604L22.8351 13.9368C22.8245 14.7148 22.8813 15.6051 23.2915 16.3322C23.5272 16.75 23.8757 17.1096 24.3427 17.3431C24.7856 17.5645 25.2261 17.6182 25.5757 17.6182V15.8963V14.1745C25.576 14.1745 25.5835 14.1745 25.597 14.1757C25.6107 14.1769 25.6316 14.1794 25.6585 14.1847C25.7132 14.1954 25.7922 14.2177 25.8828 14.263C26.0888 14.366 26.2233 14.5205 26.2908 14.6402C26.3431 14.7328 26.3288 14.7568 26.3087 14.6273C26.2896 14.5036 26.2742 14.2999 26.2785 13.984L24.5568 13.9604ZM25.5757 15.8963V17.6182C26.6454 17.6182 27.3862 16.9524 27.7756 16.3033C28.1613 15.6605 28.3165 14.8931 28.3165 14.1438H26.5947H24.8728C24.8728 14.4541 24.8038 14.5631 24.8227 14.5316C24.8354 14.5104 24.8913 14.425 25.0206 14.3389C25.1598 14.246 25.3537 14.1745 25.5757 14.1745V15.8963ZM26.5947 14.1438H28.3165V10.1903H26.5947H24.8728V14.1438H26.5947ZM26.5947 10.1903H28.3165C28.3165 9.12756 27.8374 8.42749 27.5388 8.04146C27.4918 7.98073 27.3898 7.85319 27.3776 7.83761C27.3383 7.78753 27.3322 7.77717 27.3373 7.78512C27.3493 7.80367 27.481 8.0102 27.481 8.3359H25.7592H24.0373C24.0373 8.93672 24.2735 9.38778 24.4421 9.6496C24.5733 9.85335 24.7928 10.1199 24.815 10.1485C24.8877 10.2425 24.8936 10.2625 24.8886 10.2513C24.8849 10.2429 24.8799 10.2291 24.8763 10.2126C24.8727 10.196 24.8728 10.1872 24.8728 10.1903H26.5947ZM25.7592 8.3359H27.481V8.25439H25.7592H24.0373V8.3359H25.7592ZM25.7592 8.25439H27.481C27.481 9.02727 26.8834 9.40002 26.4962 9.45165L26.2686 7.74492L26.041 6.0382C25.0424 6.17134 24.0373 6.99242 24.0373 8.25439H25.7592ZM26.2686 7.74492L26.4948 9.45183L29.8777 9.0035L29.6514 7.2966L29.4252 5.58969L26.0424 6.03802L26.2686 7.74492ZM29.6514 7.2966L29.8586 9.00592C29.9576 8.99393 29.9912 8.99711 29.9775 8.9962C29.9693 8.99566 29.8495 8.98848 29.6814 8.9109C29.4918 8.8234 29.2671 8.65665 29.1067 8.38552C28.9539 8.1272 28.9282 7.89055 28.9282 7.7653H30.65H32.3718C32.3718 7.43627 32.3054 7.02895 32.0704 6.6318C31.8278 6.22185 31.4796 5.9481 31.1245 5.78419C30.5052 5.4984 29.8514 5.53792 29.4443 5.58728L29.6514 7.2966ZM30.65 7.7653H28.9282V14.7959H30.65H32.3718V7.7653H30.65ZM32.4131 8.80461L31.6785 7.24733L31.6607 7.25574L31.643 7.26455L32.4131 8.80461ZM35.6532 7.27622L34.9281 5.71447L34.9187 5.71894L35.6532 7.27622ZM36.4276 9.25293H34.7058L38.0661 9.78228L36.4276 9.25293ZM39.301 7.19471V8.91654C39.3416 8.91654 39.3686 8.92037 39.3842 8.92355C39.3996 8.92669 39.4064 8.9297 39.4071 8.93C39.4077 8.93027 39.406 8.92953 39.4037 8.92779C39.4015 8.92612 39.4017 8.92582 39.4042 8.92876C39.4117 8.93744 39.4947 9.04671 39.4947 9.33445H41.2166H42.9384C42.9384 8.39948 42.6649 7.43887 42.0151 6.68336C41.3411 5.89956 40.375 5.47287 39.301 5.47287V7.19471ZM41.2166 9.33445H39.4947C39.4947 9.52227 39.4775 9.66526 39.4543 9.76533C39.4311 9.8659 39.4094 9.89113 39.4205 9.87475C39.4386 9.84807 39.4806 9.80472 39.537 9.77662C39.5874 9.75146 39.5811 9.77274 39.464 9.77274V11.4946V13.2164C40.6418 13.2164 41.6434 12.7306 42.2688 11.8102C42.8176 11.0026 42.9384 10.0599 42.9384 9.33445H41.2166ZM39.464 11.4946V9.77274C39.2296 9.77274 39.3396 9.72065 39.5158 9.87282C39.6655 10.002 39.6759 10.1255 39.6355 9.98846C39.6122 9.90958 39.6 9.85137 39.5594 9.68757C39.5291 9.56523 39.4716 9.3354 39.3722 9.10166C39.2706 8.86266 39.075 8.49464 38.6918 8.19236C38.2754 7.86397 37.7943 7.73489 37.3447 7.73489V9.45672V11.1786C37.1345 11.1786 36.8342 11.1132 36.5592 10.8962C36.3172 10.7054 36.2233 10.4966 36.2029 10.4486C36.1848 10.4059 36.1879 10.399 36.2167 10.5154C36.2353 10.5905 36.2807 10.787 36.3326 10.9628C36.4424 11.3353 36.6732 11.9682 37.2655 12.4795C37.8843 13.0138 38.6592 13.2164 39.464 13.2164V11.4946ZM37.3447 9.45672V7.73489C36.7542 7.73489 36.2238 7.97643 35.8418 8.37683C35.5098 8.72482 35.3599 9.11707 35.2861 9.37149C35.1423 9.86662 35.1337 10.4024 35.1337 10.7202H36.8556H38.5774C38.5774 10.5857 38.5808 10.4809 38.5876 10.4002C38.5949 10.3128 38.6027 10.2989 38.5932 10.3316C38.5881 10.3491 38.5337 10.544 38.3336 10.7538C38.2245 10.8682 38.0759 10.9823 37.8865 11.0645C37.6962 11.1471 37.5084 11.1786 37.3447 11.1786V9.45672ZM36.8556 10.7202H35.1337V14.7348H36.8556H38.5774V10.7202H36.8556ZM36.8556 14.7348H35.1337C35.1337 15.9881 35.8979 16.7527 36.2197 17.0687C36.3549 17.2016 36.331 17.1749 36.4233 17.2664C36.4734 17.3161 36.4828 17.3288 36.4764 17.3209C36.4673 17.3095 36.2749 17.0714 36.2749 16.6707H37.9968H39.7186C39.7186 15.9541 39.3836 15.4409 39.1605 15.1634C38.9693 14.9255 38.6946 14.6727 38.6327 14.6119C38.3839 14.3675 38.5774 14.48 38.5774 14.7348H36.8556ZM37.9968 16.6707H36.2749V16.7522H37.9968H39.7186V16.6707H37.9968ZM37.9968 16.7522H36.2749C36.2749 16.4049 36.4278 16.0134 36.7581 15.7397C37.0534 15.495 37.3496 15.4583 37.4873 15.4583V17.1802V18.902C37.9307 18.902 38.4816 18.7838 38.9552 18.3914C39.4639 17.97 39.7186 17.3645 39.7186 16.7522H37.9968ZM37.4873 17.1802V15.4583H32.6168V17.1802V18.902H37.4873V17.1802ZM32.6168 17.1802V15.4583C32.7546 15.4583 33.0507 15.495 33.346 15.7397C33.6764 16.0134 33.8292 16.4049 33.8292 16.7522H32.1074H30.3855C30.3855 17.3645 30.6403 17.97 31.1489 18.3914C31.6226 18.7838 32.1734 18.902 32.6168 18.902V17.1802ZM32.1074 16.7522H33.8292V16.6707H32.1074H30.3855V16.7522H32.1074ZM32.1074 16.6707H33.8292C33.8292 16.9207 33.7387 17.0869 33.7218 17.1154C33.7169 17.1239 33.7223 17.1134 33.7569 17.0665C33.8264 16.9724 33.8018 17.0086 33.9056 16.8694C34.1843 16.4955 34.6647 15.7968 34.6647 14.7348H32.9429H31.2211C31.2211 14.7378 31.2209 14.7292 31.2244 14.7132C31.2278 14.6974 31.2325 14.685 31.235 14.6792C31.2368 14.6751 31.2269 14.7009 31.1447 14.8112C31.1024 14.8679 30.8954 15.1285 30.754 15.3688C30.5805 15.6636 30.3855 16.1049 30.3855 16.6707H32.1074ZM32.9429 14.7348H34.6647V11.25H32.9429H31.2211V14.7348H32.9429ZM32.9429 11.25H34.6647C34.6647 10.6741 34.5074 10.1718 34.2507 9.75076C34.0139 9.36224 33.7231 9.09707 33.5624 8.95529C33.521 8.91872 33.48 8.88348 33.4508 8.85832C33.4184 8.83036 33.3973 8.81201 33.3792 8.79585C33.3402 8.76108 33.3496 8.76634 33.3748 8.79585C33.4455 8.87857 33.6254 9.13603 33.6254 9.51785H31.9036H30.1818C30.1818 10.2156 30.4916 10.7226 30.7571 11.0333C30.8798 11.1769 31.0028 11.2907 31.0857 11.3647C31.1285 11.4029 31.1703 11.4389 31.2018 11.4661C31.2366 11.4961 31.2605 11.5167 31.284 11.5375C31.3832 11.625 31.3522 11.612 31.3103 11.5431C31.2485 11.4418 31.2211 11.3267 31.2211 11.25H32.9429ZM31.9036 9.51785H33.6254V9.43634H31.9036H30.1818V9.51785H31.9036ZM31.9036 9.43634H33.6254C33.6254 9.74242 33.5063 10.0067 33.3614 10.1814C33.2426 10.3247 33.1445 10.364 33.1831 10.3447L32.4131 8.80461L31.643 7.26455C31.1051 7.53354 30.1818 8.18792 30.1818 9.43634H31.9036ZM32.4131 8.80461L33.1476 10.3619L36.3878 8.8335L35.6532 7.27622L34.9187 5.71894L31.6785 7.24733L32.4131 8.80461ZM35.6532 7.27622L36.3783 8.83794C36.3776 8.83825 36.2445 8.90253 36.015 8.90253C35.7516 8.90253 35.4299 8.81513 35.1521 8.58368C34.8976 8.37161 34.7907 8.1312 34.7486 8.0011C34.7068 7.87165 34.7058 7.78414 34.7058 7.7653H36.4276H38.1495C38.1495 7.39903 38.0821 6.54267 37.3567 5.93819C36.4799 5.20751 35.4651 5.46523 34.9282 5.7145L35.6532 7.27622ZM36.4276 7.7653H34.7058V9.25293H36.4276H38.1495V7.7653H36.4276ZM36.4276 9.25293L38.0661 9.78228C38.1916 9.39359 38.3522 9.21249 38.481 9.11864C38.6093 9.02514 38.8456 8.91654 39.301 8.91654V7.19471V5.47287C38.2688 5.47287 37.2824 5.73108 36.4529 6.33555C35.6239 6.93966 35.0915 7.78767 34.7892 8.72359L36.4276 9.25293ZM41.9839 9.00839L42.7121 10.5687L42.7277 10.5614L42.7431 10.5538L41.9839 9.00839ZM45.4687 7.2966L46.2279 8.84207L46.2387 8.83665L45.4687 7.2966ZM44.4294 6.39994V4.67811C44.0272 4.67811 43.8058 4.55224 43.7056 4.46219C43.6114 4.3775 43.5631 4.27569 43.5631 4.13793H41.8413H40.1195C40.1195 6.5204 42.1069 8.12177 44.4294 8.12177V6.39994ZM41.8413 4.13793H43.5631C43.5631 4.00272 43.6091 3.90958 43.6976 3.83102C43.7947 3.7448 44.0177 3.61812 44.4294 3.61812V1.89629V0.174459C42.1283 0.174459 40.1195 1.73634 40.1195 4.13793H41.8413ZM44.4294 1.89629V3.61812C44.841 3.61812 45.064 3.7448 45.1612 3.83102C45.2497 3.90958 45.2956 4.00272 45.2956 4.13793H47.0174H48.7393C48.7393 1.73634 46.7304 0.174459 44.4294 0.174459V1.89629ZM47.0174 4.13793H45.2956C45.2956 4.27569 45.2474 4.3775 45.1531 4.46219C45.053 4.55224 44.8315 4.67811 44.4294 4.67811V6.39994V8.12177C46.7518 8.12177 48.7393 6.5204 48.7393 4.13793H47.0174ZM41.9839 17.1802V15.4583C42.1217 15.4583 42.4178 15.495 42.7131 15.7397C43.0435 16.0134 43.1963 16.4049 43.1963 16.7522H41.4745H39.7527C39.7527 17.3645 40.0074 17.97 40.516 18.3914C40.9897 18.7838 41.5406 18.902 41.9839 18.902V17.1802ZM41.4745 16.7522H43.1963V16.6707H41.4745H39.7527V16.7522H41.4745ZM41.4745 16.6707H43.1963C43.1963 16.9207 43.1058 17.0869 43.089 17.1154C43.084 17.1239 43.0895 17.1134 43.1241 17.0665C43.1936 16.9724 43.1689 17.0086 43.2727 16.8694C43.5514 16.4955 44.0318 15.7968 44.0318 14.7348H42.31H40.5882C40.5882 14.7378 40.588 14.7292 40.5915 14.7132C40.595 14.6974 40.5996 14.685 40.6021 14.6792C40.6039 14.6751 40.594 14.7009 40.5118 14.8112C40.4695 14.8679 40.2625 15.1285 40.1211 15.3688C39.9476 15.6636 39.7527 16.1049 39.7527 16.6707H41.4745ZM42.31 14.7348H44.0318V11.4538H42.31H40.5882V14.7348H42.31ZM42.31 11.4538H44.0318C44.0318 10.391 43.5528 9.69096 43.2541 9.30493C43.2072 9.24419 43.1052 9.11666 43.0929 9.10108C43.0536 9.051 43.0475 9.04064 43.0527 9.04859C43.0646 9.06714 43.1963 9.27366 43.1963 9.59937H41.4745H39.7527C39.7527 10.2002 39.9888 10.6513 40.1574 10.9131C40.2886 11.1168 40.5082 11.3833 40.5303 11.412C40.603 11.5059 40.6089 11.526 40.6039 11.5148C40.6002 11.5064 40.5952 11.4926 40.5916 11.4761C40.588 11.4595 40.5882 11.4507 40.5882 11.4538H42.31ZM41.4745 9.59937H43.1963V9.51785H41.4745H39.7527V9.59937H41.4745ZM41.4745 9.51785H43.1963C43.1963 9.70799 43.1538 9.9185 43.0532 10.1211C42.9569 10.3149 42.8369 10.4424 42.7562 10.5139C42.7163 10.5492 42.6831 10.5735 42.6624 10.5877C42.6416 10.6019 42.6286 10.6094 42.6272 10.6102C42.6257 10.611 42.6311 10.6079 42.6464 10.6002C42.6618 10.5925 42.6826 10.5824 42.7121 10.5687L41.9839 9.00839L41.2558 7.4481C41.1147 7.51397 40.772 7.67109 40.473 7.93597C40.0895 8.27559 39.7527 8.81102 39.7527 9.51785H41.4745ZM41.9839 9.00839L42.7431 10.5538L46.2278 8.84203L45.4687 7.2966L44.7095 5.75116L41.2248 7.46296L41.9839 9.00839ZM45.4687 7.2966L46.2387 8.83665C46.1589 8.87656 45.7628 9.01217 45.3081 8.73802C44.9013 8.49275 44.7454 8.08736 44.7454 7.7653H46.4672H48.1891C48.1891 7.03568 47.8395 6.2431 47.0863 5.78894C46.2852 5.30592 45.3898 5.41096 44.6986 5.75655L45.4687 7.2966ZM46.4672 7.7653H44.7454V14.7348H46.4672H48.1891V7.7653H46.4672ZM46.4672 14.7348H44.7454C44.7454 15.8624 45.3162 16.5875 45.6152 16.9449C45.7305 17.0829 45.7045 17.0486 45.782 17.1422C45.8215 17.1898 45.8275 17.2003 45.8213 17.1909C45.8037 17.1642 45.6828 16.9712 45.6828 16.6707H47.4046H49.1265C49.1265 16.0543 48.8884 15.5862 48.695 15.2934C48.5359 15.0524 48.3043 14.7925 48.2567 14.7356C48.0869 14.5326 48.1891 14.6057 48.1891 14.7348H46.4672ZM47.4046 16.6707H45.6828V16.7522H47.4046H49.1265V16.6707H47.4046ZM47.4046 16.7522H45.6828C45.6828 16.4049 45.8357 16.0134 46.166 15.7397C46.4613 15.495 46.7574 15.4583 46.8952 15.4583V17.1802V18.902C47.3386 18.902 47.8895 18.7838 48.3631 18.3914C48.8717 17.97 49.1265 17.3645 49.1265 16.7522H47.4046ZM46.8952 17.1802V15.4583H41.9839V17.1802V18.902H46.8952V17.1802ZM48.3038 3.54695L49.032 5.10725L49.0476 5.09997L49.063 5.09239L48.3038 3.54695ZM51.7886 1.83516L52.5477 3.38063L52.5586 3.37521L51.7886 1.83516ZM48.3038 17.1802V15.4583C48.4416 15.4583 48.7377 15.495 49.033 15.7397C49.3633 16.0134 49.5162 16.4049 49.5162 16.7522H47.7944H46.0725C46.0725 17.3645 46.3273 17.97 46.8359 18.3914C47.3096 18.7838 47.8604 18.902 48.3038 18.902V17.1802ZM47.7944 16.7522H49.5162V16.6707H47.7944H46.0725V16.7522H47.7944ZM47.7944 16.6707H49.5162C49.5162 16.9207 49.4257 17.0869 49.4088 17.1154C49.4039 17.1239 49.4093 17.1134 49.4439 17.0665C49.5134 16.9724 49.4888 17.0086 49.5926 16.8694C49.8713 16.4955 50.3517 15.7968 50.3517 14.7348H48.6299H46.9081C46.9081 14.7378 46.9079 14.7292 46.9114 14.7132C46.9148 14.6974 46.9195 14.685 46.922 14.6792C46.9238 14.6751 46.9139 14.7009 46.8317 14.8112C46.7894 14.8679 46.5824 15.1285 46.441 15.3688C46.2675 15.6636 46.0725 16.1049 46.0725 16.6707H47.7944ZM48.6299 14.7348H50.3517V5.99237H48.6299H46.9081V14.7348H48.6299ZM48.6299 5.99237H50.3517C50.3517 4.92958 49.8727 4.22952 49.574 3.84349C49.527 3.78275 49.4251 3.65522 49.4128 3.63964C49.3735 3.58956 49.3674 3.5792 49.3726 3.58715C49.3845 3.6057 49.5162 3.81222 49.5162 4.13793H47.7944H46.0725C46.0725 4.73874 46.3087 5.18981 46.4773 5.45163C46.6085 5.65538 46.828 5.92188 46.8502 5.95057C46.9229 6.04448 46.9288 6.06453 46.9238 6.05331C46.9201 6.04494 46.9151 6.03111 46.9115 6.01465C46.9079 5.99804 46.9081 5.98927 46.9081 5.99237H48.6299ZM47.7944 4.13793H49.5162V4.05641H47.7944H46.0725V4.13793H47.7944ZM47.7944 4.05641H49.5162C49.5162 4.24655 49.4737 4.45706 49.3731 4.65964C49.2768 4.85343 49.1568 4.98092 49.0761 5.05241C49.0362 5.0878 49.003 5.11205 48.9823 5.12626C48.9615 5.14047 48.9485 5.14793 48.9471 5.14873C48.9456 5.14958 48.951 5.14647 48.9663 5.13876C48.9817 5.13106 49.0025 5.12099 49.032 5.10725L48.3038 3.54695L47.5757 1.98666C47.4346 2.05252 47.0919 2.20965 46.7928 2.47453C46.4094 2.81415 46.0725 3.34958 46.0725 4.05641H47.7944ZM48.3038 3.54695L49.063 5.09239L52.5477 3.38059L51.7886 1.83516L51.0294 0.289719L47.5447 2.00151L48.3038 3.54695ZM51.7886 1.83516L52.5586 3.37521C52.4788 3.41512 52.0827 3.55072 51.628 3.27658C51.2212 3.03131 51.0653 2.62591 51.0653 2.30386H52.7871H54.5089C54.5089 1.57424 54.1594 0.781656 53.4062 0.327499C52.605 -0.155523 51.7097 -0.0504799 51.0185 0.295103L51.7886 1.83516ZM52.7871 2.30386H51.0653V14.7348H52.7871H54.5089V2.30386H52.7871ZM52.7871 14.7348H51.0653C51.0653 15.8624 51.6361 16.5875 51.935 16.9449C52.0504 17.0829 52.0244 17.0486 52.1019 17.1422C52.1413 17.1898 52.1474 17.2003 52.1412 17.1909C52.1236 17.1642 52.0027 16.9712 52.0027 16.6707H53.7245H55.4464C55.4464 16.0543 55.2083 15.5862 55.0149 15.2934C54.8558 15.0524 54.6242 14.7925 54.5766 14.7356C54.4068 14.5326 54.5089 14.6057 54.5089 14.7348H52.7871ZM53.7245 16.6707H52.0027V16.7522H53.7245H55.4464V16.6707H53.7245ZM53.7245 16.7522H52.0027C52.0027 16.4049 52.1555 16.0134 52.4859 15.7397C52.7812 15.495 53.0773 15.4583 53.2151 15.4583V17.1802V18.902C53.6585 18.902 54.2093 18.7838 54.683 18.3914C55.1916 17.97 55.4464 17.3645 55.4464 16.7522H53.7245ZM53.2151 17.1802V15.4583H48.3038V17.1802V18.902H53.2151V17.1802ZM59.8643 17.384V15.6621C57.566 15.6621 55.9006 14.1426 55.9006 12.2893H54.1787H52.4569C52.4569 16.5497 56.2121 19.1058 59.8643 19.1058V17.384ZM54.1787 12.2893H55.9006C55.9006 10.4361 57.566 8.91654 59.8643 8.91654V7.19471V5.47287C56.2121 5.47287 52.4569 8.02901 52.4569 12.2893H54.1787ZM59.8643 7.19471V8.91654C62.1704 8.91654 63.8077 10.4254 63.8077 12.2893H65.5296H67.2514C67.2514 8.03976 63.5495 5.47287 59.8643 5.47287V7.19471ZM65.5296 12.2893H63.8077C63.8077 14.1533 62.1704 15.6621 59.8643 15.6621V17.384V19.1058C63.5495 19.1058 67.2514 16.5389 67.2514 12.2893H65.5296ZM60.3534 16.2835V18.0054C60.8767 18.0054 61.4344 17.8601 61.9157 17.4772C62.3734 17.1131 62.6167 16.6492 62.7511 16.2693C62.9953 15.5788 63.0127 14.7603 63.0127 14.1438H61.2908H59.569C59.569 14.4443 59.5615 14.6776 59.5445 14.8606C59.5268 15.0517 59.5042 15.122 59.5045 15.1209C59.5065 15.1155 59.5664 14.9457 59.7719 14.7822C60.001 14.6 60.2378 14.5617 60.3534 14.5617V16.2835ZM61.2908 14.1438H63.0127C63.0127 13.4404 62.8366 11.8335 62.4642 10.3855C62.2787 9.66434 62.014 8.8575 61.6278 8.19252C61.3021 7.63151 60.5368 6.57331 59.1715 6.57331V8.29514V10.017C58.5602 10.017 58.4368 9.55485 58.6498 9.9217C58.8024 10.1846 58.9733 10.6374 59.1291 11.2433C59.4394 12.4497 59.569 13.7671 59.569 14.1438H61.2908ZM59.1715 8.29514V6.57331C58.6821 6.57331 58.1318 6.69825 57.6446 7.07217C57.1746 7.43288 56.9264 7.90079 56.7906 8.2868C56.5485 8.97528 56.5326 9.81116 56.5326 10.4756H58.2544H59.9763C59.9763 10.1415 59.9839 9.88843 60.0011 9.69325C60.0192 9.48899 60.0422 9.421 60.0392 9.4294C60.0334 9.44605 59.9647 9.63248 59.7412 9.80406C59.5004 9.98884 59.2635 10.017 59.1715 10.017V8.29514ZM58.2544 10.4756H56.5326C56.5326 11.284 56.7067 12.883 57.0808 14.3064C57.2665 15.0128 57.5324 15.7993 57.9228 16.4477C58.2632 17.0129 59.0279 18.0054 60.3534 18.0054V16.2835V14.5617C60.9352 14.5617 61.0656 14.9911 60.8729 14.6712C60.7303 14.4345 60.5644 14.0134 60.4113 13.431C60.1079 12.2764 59.9763 10.9715 59.9763 10.4756H58.2544ZM78.7807 14.4698L79.1983 16.1403L80.5025 15.8142V14.4698H78.7807ZM78.2712 9.64013L78.2785 7.91829H78.2712V9.64013ZM83.1009 9.66051L83.0937 11.3823H83.1009V9.66051ZM81.7356 15.9167L82.7994 17.2706L82.8025 17.2681L81.7356 15.9167ZM77.2523 17.384V15.6621C73.7588 15.6621 71.4952 12.8884 71.4952 9.9458H69.7734H68.0516C68.0516 14.5841 71.657 19.1058 77.2523 19.1058V17.384ZM69.7734 9.9458H71.4952C71.4952 6.25437 74.2249 4.24986 76.6613 4.24986V2.52803V0.806194C72.4136 0.806194 68.0516 4.26312 68.0516 9.9458H69.7734ZM76.6613 2.52803V4.24986C78.1656 4.24986 79.3583 4.58547 80.1131 5.04401C80.8511 5.49231 81.0327 5.94644 81.0327 6.29805H82.7545H84.4763C84.4763 4.40803 83.3435 2.97714 81.901 2.10084C80.4753 1.23477 78.6214 0.806194 76.6613 0.806194V2.52803ZM82.7545 6.29805H81.0327C81.0327 6.39034 81.0177 6.43694 81.013 6.44938C81.0089 6.46009 81.0113 6.44949 81.0278 6.43288C81.0444 6.4162 81.0569 6.41185 81.0512 6.41406C81.0437 6.41693 81.004 6.43066 80.9204 6.43066V8.15249V9.87433C81.8623 9.87433 82.7837 9.55254 83.4725 8.85828C84.1603 8.16493 84.4763 7.24142 84.4763 6.29805H82.7545ZM80.9204 8.15249V6.43066C80.4161 6.43066 80.0398 6.16336 79.3181 5.14779C79.03 4.74239 78.5913 4.07247 78.1218 3.57868C77.6121 3.04275 76.8012 2.4161 75.6424 2.4161V4.13793V5.85976C75.4515 5.85976 75.4201 5.73492 75.6263 5.95172C75.8725 6.21067 76.0859 6.54439 76.5111 7.14263C77.2159 8.13435 78.5107 9.87433 80.9204 9.87433V8.15249ZM75.6424 4.13793V2.4161C74.3075 2.4161 73.3443 3.19752 72.8005 4.13484C72.2856 5.02218 72.0865 6.11051 72.0865 7.17433H73.8083H75.5302C75.5302 6.48559 75.6673 6.05573 75.7791 5.863C75.8289 5.77717 75.8486 5.78055 75.8068 5.80785C75.7533 5.8428 75.6861 5.85976 75.6424 5.85976V4.13793ZM73.8083 7.17433H72.0865C72.0865 9.41871 72.6292 11.5681 73.5941 13.2137C74.5331 14.8152 76.0884 16.2528 78.1693 16.2528V14.531V12.8091C77.8252 12.8091 77.2 12.5553 76.5648 11.4719C75.9554 10.4327 75.5302 8.90376 75.5302 7.17433H73.8083ZM78.1693 14.531V16.2528C78.5518 16.2528 78.862 16.2243 79.1983 16.1403L78.7807 14.4698L78.3631 12.7994C78.3544 12.8016 78.3522 12.8021 78.3406 12.8033C78.3216 12.8053 78.2729 12.8091 78.1693 12.8091V14.531ZM78.7807 14.4698H80.5025V12.0855H78.7807H77.0589V14.4698H78.7807ZM78.7807 12.0855H80.5025C80.5025 10.8691 79.7978 10.1145 79.4805 9.78525C79.3508 9.65063 79.376 9.67991 79.288 9.58769C79.2412 9.53869 79.2331 9.52691 79.2397 9.53566C79.2529 9.55301 79.4225 9.77875 79.4225 10.1496H77.7006H75.9788C75.9788 10.8363 76.2833 11.3371 76.499 11.6207C76.6811 11.86 76.9437 12.1155 77.0008 12.1748C77.2236 12.4059 77.0589 12.3035 77.0589 12.0855H78.7807ZM77.7006 10.1496H79.4225V10.0681H77.7006H75.9788V10.1496H77.7006ZM77.7006 10.0681H79.4225C79.4225 10.5835 79.1396 10.9667 78.8656 11.1605C78.625 11.3306 78.4018 11.362 78.2712 11.362V9.64013V7.91829C77.835 7.91829 77.3264 8.03113 76.877 8.34903C76.3941 8.69057 75.9788 9.28774 75.9788 10.0681H77.7006ZM78.2712 9.64013L78.264 11.3619L83.0937 11.3823L83.1009 9.66051L83.1082 7.93869L78.2785 7.91831L78.2712 9.64013ZM83.1009 9.66051V11.3823C82.9632 11.3823 82.6671 11.3457 82.3717 11.101C82.0414 10.8273 81.8886 10.4358 81.8886 10.0885H83.6104H85.3322C85.3322 9.47623 85.0775 8.87072 84.5689 8.44929C84.0952 8.05684 83.5443 7.93867 83.1009 7.93867V9.66051ZM83.6104 10.0885H81.8886V10.17H83.6104H85.3322V10.0885H83.6104ZM83.6104 10.17H81.8886C81.8886 9.86946 82.0095 9.67648 82.0271 9.64981C82.0333 9.64041 82.0272 9.65087 81.9878 9.69847C81.9103 9.79206 81.9363 9.75781 81.8209 9.89574C81.522 10.2531 80.9512 10.9783 80.9512 12.1059H82.673H84.3948C84.3948 12.235 84.2927 12.3081 84.4625 12.105C84.5101 12.0481 84.7417 11.7883 84.9008 11.5473C85.0942 11.2544 85.3322 10.7863 85.3322 10.17H83.6104ZM82.673 12.1059H80.9512V14.2457H82.673H84.3948V12.1059H82.673ZM82.673 14.2457H80.9512C80.9512 14.3324 80.9452 14.3588 80.9463 14.3534C80.9489 14.3403 80.9568 14.314 80.9697 14.2893C80.9903 14.25 80.9632 14.3327 80.6687 14.5653L81.7356 15.9167L82.8025 17.2681C83.2823 16.8894 83.7239 16.4524 84.0196 15.8883C84.3325 15.2916 84.3948 14.7204 84.3948 14.2457H82.673ZM81.7356 15.9167L80.6718 14.5628C80.0659 15.0389 78.9027 15.6621 77.2523 15.6621V17.384V19.1058C79.7999 19.1058 81.6935 18.1395 82.7994 17.2706L81.7356 15.9167ZM91.2909 16.2428L92.9842 15.9308L92.2351 11.8644L89.8766 15.2606L91.2909 16.2428ZM84.3622 7.74492L84.136 6.03802L84.1346 6.0382L84.3622 7.74492ZM87.745 7.2966L87.5378 5.58728L87.5283 5.58843L87.5188 5.58969L87.745 7.2966ZM88.8251 7.7653L90.5468 7.78796L90.5469 7.77663V7.7653H88.8251ZM88.7436 13.9604L90.4652 13.984L90.4652 13.983L88.7436 13.9604ZM90.4554 7.74492L90.2291 6.03802L90.2278 6.0382L90.4554 7.74492ZM93.8382 7.2966L93.631 5.58728L93.6215 5.58843L93.612 5.58969L93.8382 7.2966ZM94.8367 14.7959H93.1149C93.1149 15.3295 93.1735 15.8673 93.3841 16.3534C93.4964 16.6126 93.6488 16.8502 93.845 17.0572C94.0397 17.2626 94.2373 17.3952 94.386 17.4807C94.4561 17.521 94.5175 17.552 94.5518 17.569C94.5606 17.5735 94.569 17.5776 94.5753 17.5807C94.5823 17.5842 94.5866 17.5863 94.5909 17.5885C94.5994 17.5927 94.6002 17.5931 94.5976 17.5918C94.5948 17.5903 94.4641 17.5251 94.3225 17.3871C93.9451 17.0191 93.93 16.6063 93.93 16.5688H95.6519H97.3737C97.3737 16.083 97.2567 15.4384 96.7265 14.9214C96.5085 14.7089 96.2886 14.5898 96.1903 14.5386C96.1482 14.5166 96.0901 14.4881 96.0889 14.4875C96.0729 14.4795 96.0835 14.4844 96.1026 14.4954C96.1494 14.5223 96.2451 14.5836 96.3443 14.6882C96.445 14.7944 96.5082 14.9018 96.544 14.9845C96.6018 15.1179 96.5586 15.1182 96.5586 14.7959H94.8367ZM95.6519 16.5688H93.93C93.93 16.4188 93.9599 16.2416 94.0413 16.0613C94.1221 15.8825 94.2317 15.749 94.3326 15.6575C94.5114 15.4953 94.6494 15.4751 94.5731 15.4958C94.5154 15.5116 94.3867 15.5363 94.1572 15.5545C93.9348 15.5722 93.6608 15.5806 93.3287 15.5806V17.3024V19.0243C94.0457 19.0243 94.8318 18.9943 95.4774 18.8187C95.8035 18.7299 96.2549 18.5632 96.6464 18.208C97.099 17.7974 97.3737 17.2202 97.3737 16.5688H95.6519ZM93.3287 17.3024V15.5806C93.0528 15.5806 92.8664 15.5653 92.7445 15.5457C92.6209 15.5259 92.6093 15.5087 92.6557 15.5326C92.7174 15.5645 92.8156 15.6351 92.8972 15.7525C92.973 15.8616 92.9863 15.942 92.9842 15.9308L91.2909 16.2428L89.5975 16.5547C89.7505 17.3852 90.209 18.1456 91.0775 18.5934C91.7861 18.9587 92.6083 19.0243 93.3287 19.0243V17.3024ZM91.2909 16.2428L89.8766 15.2606C89.8058 15.3626 89.5421 15.6621 88.499 15.6621V17.384V19.1058C90.1867 19.1058 91.757 18.5902 92.7051 17.2249L91.2909 16.2428ZM88.499 17.384V15.6621C87.8922 15.6621 87.3718 15.4521 87.0181 15.1227C86.6848 14.8124 86.4101 14.3154 86.4101 13.5324H84.6882H82.9664C82.9664 15.2153 83.5985 16.644 84.6713 17.643C85.7237 18.6229 87.1088 19.1058 88.499 19.1058V17.384ZM84.6882 13.5324H86.4101V10.1903H84.6882H82.9664V13.5324H84.6882ZM84.6882 10.1903H86.4101C86.4101 9.12756 85.931 8.42749 85.6324 8.04146C85.5854 7.98073 85.4834 7.85319 85.4712 7.83761C85.4318 7.78753 85.4258 7.77717 85.4309 7.78512C85.4428 7.80367 85.5745 8.0102 85.5745 8.3359H83.8527H82.1309C82.1309 8.93672 82.367 9.38778 82.5356 9.6496C82.6668 9.85335 82.8864 10.1199 82.9086 10.1485C82.9812 10.2425 82.9871 10.2625 82.9822 10.2513C82.9785 10.2429 82.9734 10.2291 82.9699 10.2126C82.9663 10.196 82.9664 10.1872 82.9664 10.1903H84.6882ZM83.8527 8.3359H85.5745V8.25439H83.8527H82.1309V8.3359H83.8527ZM83.8527 8.25439H85.5745C85.5745 9.02727 84.977 9.40002 84.5897 9.45165L84.3622 7.74492L84.1346 6.0382C83.136 6.17134 82.1309 6.99242 82.1309 8.25439H83.8527ZM84.3622 7.74492L84.5884 9.45183L87.9712 9.0035L87.745 7.2966L87.5188 5.58969L84.136 6.03802L84.3622 7.74492ZM87.745 7.2966L87.9522 9.00592C87.9967 9.00053 88.0308 8.998 88.0552 8.99699C88.08 8.99598 88.0911 8.99667 88.0903 8.99662C88.0899 8.9966 88.0716 8.9955 88.0389 8.98886C88.0065 8.98227 87.9519 8.96856 87.8827 8.94013C87.7414 8.88204 87.5207 8.75317 87.3415 8.4978C87.157 8.23489 87.1032 7.96157 87.1032 7.7653H88.8251H90.5469C90.5469 7.36525 90.4422 6.92126 90.1602 6.51952C89.8836 6.12533 89.519 5.88947 89.1917 5.75495C88.5966 5.51037 87.9726 5.53458 87.5378 5.58728L87.745 7.2966ZM88.8251 7.7653L87.1034 7.74265L87.0219 13.9377L88.7436 13.9604L90.4652 13.983L90.5468 7.78796L88.8251 7.7653ZM88.7436 13.9604L87.0219 13.9368C87.0112 14.7148 87.0681 15.6051 87.4782 16.3322C87.7139 16.75 88.0624 17.1096 88.5295 17.3431C88.9723 17.5645 89.4129 17.6182 89.7625 17.6182V15.8963V14.1745C89.7628 14.1745 89.7702 14.1745 89.7838 14.1757C89.7974 14.1769 89.8183 14.1794 89.8452 14.1847C89.8999 14.1954 89.979 14.2177 90.0695 14.263C90.2755 14.366 90.41 14.5205 90.4776 14.6402C90.5298 14.7328 90.5155 14.7568 90.4955 14.6273C90.4763 14.5036 90.4609 14.2999 90.4652 13.984L88.7436 13.9604ZM89.7625 15.8963V17.6182C90.8322 17.6182 91.5729 16.9524 91.9624 16.3033C92.3481 15.6605 92.5032 14.8931 92.5032 14.1438H90.7814H89.0596C89.0596 14.4541 88.9906 14.5631 89.0095 14.5316C89.0221 14.5104 89.078 14.425 89.2073 14.3389C89.3465 14.246 89.5404 14.1745 89.7625 14.1745V15.8963ZM90.7814 14.1438H92.5032V10.1903H90.7814H89.0596V14.1438H90.7814ZM90.7814 10.1903H92.5032C92.5032 9.12756 92.0242 8.42749 91.7255 8.04146C91.6786 7.98073 91.5766 7.85319 91.5643 7.83761C91.525 7.78753 91.5189 7.77717 91.5241 7.78512C91.536 7.80367 91.6677 8.0102 91.6677 8.3359H89.9459H88.2241C88.2241 8.93672 88.4602 9.38778 88.6288 9.6496C88.76 9.85335 88.9796 10.1199 89.0018 10.1485C89.0744 10.2425 89.0803 10.2625 89.0753 10.2513C89.0716 10.2429 89.0666 10.2291 89.063 10.2126C89.0594 10.196 89.0596 10.1872 89.0596 10.1903H90.7814ZM89.9459 8.3359H91.6677V8.25439H89.9459H88.2241V8.3359H89.9459ZM89.9459 8.25439H91.6677C91.6677 9.02727 91.0702 9.40002 90.6829 9.45165L90.4554 7.74492L90.2278 6.0382C89.2292 6.17134 88.2241 6.99242 88.2241 8.25439H89.9459ZM90.4554 7.74492L90.6816 9.45183L94.0644 9.0035L93.8382 7.2966L93.612 5.58969L90.2291 6.03802L90.4554 7.74492ZM93.8382 7.2966L94.0454 9.00592C94.1443 8.99393 94.178 8.99711 94.1642 8.9962C94.1561 8.99566 94.0362 8.98848 93.8681 8.9109C93.6785 8.8234 93.4539 8.65665 93.2934 8.38552C93.1406 8.1272 93.1149 7.89055 93.1149 7.7653H94.8367H96.5586C96.5586 7.43627 96.4921 7.02895 96.2571 6.6318C96.0145 6.22185 95.6663 5.9481 95.3112 5.78419C94.692 5.4984 94.0382 5.53792 93.631 5.58728L93.8382 7.2966ZM94.8367 7.7653H93.1149V14.7959H94.8367H96.5586V7.7653H94.8367ZM107.604 14.7551L105.888 14.8896L105.888 14.8952L107.604 14.7551ZM103.549 14.7551L101.83 14.8545L101.83 14.8604L103.549 14.7551ZM103.345 11.2297L101.626 11.3221L101.626 11.329L103.345 11.2297ZM96.559 8.86574L95.7929 7.32373L95.7707 7.33479L95.7488 7.34648L96.559 8.86574ZM99.7585 7.27622L100.525 8.81823L100.538 8.81162L100.551 8.80478L99.7585 7.27622ZM100.594 8.64158H98.8722V15.1871L102.093 9.48882L100.594 8.64158ZM107.339 11.3723L109.056 11.2379L109.056 11.2337L107.339 11.3723ZM107.604 14.7551L105.888 14.8952C105.962 15.8029 106.317 16.4096 106.537 16.766C106.596 16.861 106.618 16.8953 106.649 16.9477C106.674 16.9896 106.679 17.0001 106.676 16.9935C106.662 16.9653 106.616 16.851 106.616 16.6911H108.338H110.06C110.06 15.7808 109.548 15.0878 109.466 14.9553C109.34 14.7514 109.328 14.7059 109.32 14.615L107.604 14.7551ZM108.338 16.6911H106.616V16.7726H108.338H110.06V16.6911H108.338ZM108.338 16.7726H106.616C106.616 16.4253 106.769 16.0338 107.099 15.7601C107.394 15.5154 107.691 15.4787 107.828 15.4787V17.2006V18.9224C108.272 18.9224 108.823 18.8042 109.296 18.4118C109.805 17.9903 110.06 17.3848 110.06 16.7726H108.338ZM107.828 17.2006V15.4787H103.325V17.2006V18.9224H107.828V17.2006ZM103.325 17.2006V15.4787C103.462 15.4787 103.759 15.5154 104.054 15.7601C104.384 16.0338 104.537 16.4253 104.537 16.7726H102.815H101.093C101.093 17.3848 101.348 17.9903 101.857 18.4118C102.33 18.8042 102.881 18.9224 103.325 18.9224V17.2006ZM102.815 16.7726H104.537V16.6911H102.815H101.093V16.7726H102.815ZM102.815 16.6911H104.537C104.537 16.9198 104.458 17.0725 104.445 17.0953C104.443 17.1006 104.449 17.0881 104.483 17.0383C104.5 17.0138 104.518 16.9884 104.543 16.952C104.567 16.9184 104.597 16.8759 104.628 16.8306C104.905 16.4243 105.332 15.7092 105.267 14.6499L103.549 14.7551L101.83 14.8604C101.83 14.8626 101.831 14.8309 101.844 14.7949C101.851 14.7761 101.851 14.7905 101.782 14.8907C101.755 14.9308 101.557 15.2027 101.431 15.4297C101.272 15.7188 101.093 16.1465 101.093 16.6911H102.815ZM103.549 14.7551L105.268 14.6558L105.064 11.1303L103.345 11.2297L101.626 11.329L101.83 14.8545L103.549 14.7551ZM103.345 11.2297L105.064 11.1372C105.015 10.2243 104.933 9.29393 104.632 8.57803C104.461 8.17161 104.175 7.71849 103.684 7.38694C103.188 7.05216 102.66 6.9605 102.224 6.9605V8.68234V10.4042C102.185 10.4042 101.984 10.394 101.757 10.2407C101.535 10.0907 101.46 9.91904 101.457 9.91256C101.456 9.91033 101.467 9.93563 101.483 10.0011C101.499 10.0658 101.517 10.1565 101.535 10.2805C101.572 10.5328 101.601 10.8695 101.626 11.3221L103.345 11.2297ZM102.224 8.68234V6.9605C101.759 6.9605 101.275 7.0742 100.834 7.35481C100.4 7.63138 100.109 8.00557 99.9202 8.37088C99.5708 9.04715 99.5039 9.82031 99.5039 10.4349H101.226H102.948C102.948 10.2367 102.96 10.0954 102.976 10.002C102.993 9.90415 103.006 9.90107 102.98 9.95159C102.949 10.0112 102.862 10.146 102.684 10.2595C102.499 10.3771 102.323 10.4042 102.224 10.4042V8.68234ZM101.226 10.4349H99.5039V14.7551H101.226H102.948V10.4349H101.226ZM101.226 14.7551H99.5039C99.5039 15.8827 100.075 16.6079 100.374 16.9653C100.489 17.1033 100.463 17.069 100.541 17.1626C100.58 17.2102 100.586 17.2206 100.58 17.2113C100.562 17.1846 100.441 16.9916 100.441 16.6911H102.163H103.885C103.885 16.0747 103.647 15.6066 103.454 15.3138C103.294 15.0727 103.063 14.8129 103.015 14.756C102.845 14.553 102.948 14.6261 102.948 14.7551H101.226ZM102.163 16.6911H100.441V16.7726H102.163H103.885V16.6911H102.163ZM102.163 16.7726H100.441C100.441 16.4253 100.594 16.0338 100.924 15.7601C101.22 15.5154 101.516 15.4787 101.654 15.4787V17.2006V18.9224C102.097 18.9224 102.648 18.8042 103.122 18.4118C103.63 17.9903 103.885 17.3848 103.885 16.7726H102.163ZM101.654 17.2006V15.4787H96.7424V17.2006V18.9224H101.654V17.2006ZM96.7424 17.2006V15.4787C96.8802 15.4787 97.1763 15.5154 97.4716 15.7601C97.802 16.0338 97.9548 16.4253 97.9548 16.7726H96.233H94.5111C94.5111 17.3848 94.7659 17.9903 95.2745 18.4118C95.7482 18.8042 96.299 18.9224 96.7424 18.9224V17.2006ZM96.233 16.7726H97.9548V16.6911H96.233H94.5111V16.7726H96.233ZM96.233 16.6911H97.9548C97.9548 16.9916 97.8339 17.1846 97.8163 17.2113C97.8101 17.2206 97.8162 17.2102 97.8556 17.1626C97.9331 17.069 97.9071 17.1033 98.0225 16.9653C98.3214 16.6079 98.8922 15.8827 98.8922 14.7551H97.1704H95.4486C95.4486 14.6261 95.5507 14.553 95.3809 14.756C95.3333 14.8129 95.1017 15.0727 94.9426 15.3138C94.7492 15.6066 94.5111 16.0747 94.5111 16.6911H96.233ZM97.1704 14.7551H98.8922V11.3112H97.1704H95.4486V14.7551H97.1704ZM97.1704 11.3112H98.8922C98.8922 10.0137 98.0808 9.27477 97.7336 8.97096C97.5872 8.84288 97.6277 8.88148 97.5311 8.79596C97.4839 8.75426 97.4837 8.75076 97.5004 8.76977C97.5407 8.81563 97.751 9.07567 97.751 9.49748H96.0292H94.3074C94.3074 10.2351 94.6603 10.755 94.9146 11.0441C95.1204 11.2781 95.4181 11.5207 95.466 11.5626C95.6893 11.758 95.4486 11.6101 95.4486 11.3112H97.1704ZM96.0292 9.49748H97.751V9.41596H96.0292H94.3074V9.49748H96.0292ZM96.0292 9.41596H97.751C97.751 9.60592 97.7076 9.81521 97.6071 10.015C97.5119 10.2042 97.3956 10.3252 97.3256 10.3876C97.2606 10.4455 97.2168 10.4695 97.2353 10.4584C97.2546 10.4468 97.2862 10.4294 97.3693 10.385L96.559 8.86574L95.7488 7.34648C95.6507 7.39878 95.3133 7.56805 95.0334 7.81765C94.6613 8.1495 94.3074 8.68545 94.3074 9.41596H96.0292ZM96.559 8.86574L97.3251 10.4078L100.525 8.81823L99.7585 7.27622L98.9924 5.73421L95.7929 7.32373L96.559 8.86574ZM99.7585 7.27622L100.551 8.80478C100.5 8.83141 100.331 8.90674 100.074 8.89964C99.7948 8.89197 99.5156 8.78909 99.2922 8.6063C98.8956 8.28179 98.8722 7.90067 98.8722 7.80606H100.594H102.316C102.316 7.2835 102.15 6.49481 101.473 5.94105C100.648 5.26621 99.655 5.39032 98.9659 5.74765L99.7585 7.27622ZM100.594 7.80606H98.8722V8.64158H100.594H102.316V7.80606H100.594ZM100.594 8.64158L102.093 9.48882C102.245 9.21971 102.581 8.91654 103.447 8.91654V7.19471V5.47287C101.664 5.47287 100.003 6.18863 99.095 7.79434L100.594 8.64158ZM103.447 7.19471V8.91654C104.018 8.91654 104.477 9.06546 104.803 9.3498C105.109 9.61719 105.517 10.196 105.623 11.5109L107.339 11.3723L109.056 11.2337C108.897 9.2677 108.214 7.75767 107.069 6.75649C105.942 5.77227 104.588 5.47287 103.447 5.47287V7.19471ZM107.339 11.3723L105.623 11.5067L105.888 14.8896L107.604 14.7551L109.321 14.6207L109.056 11.2379L107.339 11.3723Z" fill="#FFF6EF" mask="url(#path-1-outside-1_17104_401)"/>
</svg>
