<svg width="107" height="20" viewBox="0 0 107 20" fill="none" xmlns="http://www.w3.org/2000/svg">
<mask id="path-1-outside-1_17104_398" maskUnits="userSpaceOnUse" x="-0.0117188" y="-0.819824" width="107" height="20" fill="black">
<rect fill="white" x="-0.0117188" y="-0.819824" width="107" height="20"/>
<path d="M1.72191 16.7522V16.6707C1.72191 16.039 2.55743 15.7333 2.55743 14.7348V5.15685C2.55743 4.15831 1.72191 3.85263 1.72191 3.22089V3.13938C1.72191 2.87446 1.92569 2.71143 2.23137 2.71143H7.16297C7.46865 2.71143 7.67243 2.87446 7.67243 3.13938V3.22089C7.67243 3.85263 6.73502 4.15831 6.73502 5.15685V14.7348C6.73502 15.7333 7.67243 16.039 7.67243 16.6707V16.7522C7.67243 17.0171 7.46865 17.1802 7.16297 17.1802H2.23137C1.92569 17.1802 1.72191 17.0171 1.72191 16.7522ZM12.842 17.3636C10.3151 17.3636 8.27726 16.5077 8.27726 14.9589C8.27726 13.94 8.99051 13.512 9.88716 13.512C12.1492 13.512 11.4359 16.3854 12.842 16.3854C13.27 16.3854 13.6368 16.1613 13.6368 15.448C13.6368 12.7988 8.44029 14.266 8.44029 10.3738C8.44029 8.49893 10.2336 7.1947 12.8624 7.1947C15.4709 7.1947 17.2438 8.25439 17.2438 9.6605C17.2438 10.4349 16.5509 11.0462 15.695 11.0462C13.5145 11.0462 14.187 8.21363 13.0866 8.21363C12.5975 8.21363 12.4345 8.72309 12.4345 9.21218C12.4345 12.0244 17.3661 10.6794 17.3661 14.3068C17.3661 16.039 15.7562 17.3636 12.842 17.3636ZM28.0904 14.7959C28.2942 16.3039 29.089 15.9778 29.089 16.5688C29.089 17.1598 27.744 17.3024 26.5417 17.3024C25.2374 17.3024 24.6261 17.0579 24.4427 16.4058C24.0147 16.9356 23.2403 17.384 21.9361 17.384C19.776 17.384 18.0642 16.4058 18.0642 14.2864C18.0642 12.2078 19.8168 11.1481 21.712 11.1481C22.5067 11.1481 23.1588 11.3112 23.6683 11.5965C23.4237 9.23256 23.4034 8.25439 22.4863 8.25439C21.284 8.25439 21.9157 11.087 19.8983 11.087C18.9405 11.087 18.2884 10.496 18.2884 9.61975C18.2884 7.80606 20.4485 7.1947 22.4863 7.1947C25.2782 7.1947 27.2957 8.78423 27.6217 11.2704L28.0904 14.7959ZM23.2403 16.2428C23.7498 16.2428 24.0147 15.4888 23.974 14.9182L23.8925 13.9604C23.7294 12.6969 23.2811 12.3301 22.8939 12.3301C22.4863 12.3301 22.201 12.7988 22.201 13.4917C22.201 14.9589 22.5679 16.2428 23.2403 16.2428ZM49.9352 14.7348C50.1186 15.7333 50.7708 16.039 50.7708 16.6707V16.7522C50.7708 17.0171 50.567 17.1802 50.2613 17.1802H45.5539C45.2482 17.1802 45.0444 17.0171 45.0444 16.7522V16.6707C45.0444 16.039 45.941 15.7129 45.778 14.7348L44.698 8.47855L41.845 16.5281C41.7023 16.956 41.4985 17.1598 41.0502 17.1598C40.6019 17.1598 40.3166 16.9764 40.1332 16.5484L36.7096 8.07098L35.7722 14.7348C35.6295 15.7333 36.5058 16.039 36.5058 16.6707V16.7522C36.5058 17.0171 36.302 17.1802 35.9963 17.1802H33.286C32.9803 17.1802 32.7765 17.0171 32.7765 16.7522V16.6707C32.7765 16.039 33.4694 15.7333 33.612 14.7348L35.0589 5.15685C35.2016 4.15831 34.2234 3.85263 34.2234 3.22089V3.13938C34.2234 2.87446 34.4272 2.71143 34.7329 2.71143H37.7896C38.3602 2.71143 38.7678 2.97635 38.9512 3.50619L41.6412 11.3723L44.1681 3.54695C44.3515 2.99673 44.7387 2.71143 45.3093 2.71143H48.4476C48.7533 2.71143 48.9571 2.87446 48.9571 3.13938V3.22089C48.9571 3.85263 47.9381 4.15831 48.1216 5.15685L49.9352 14.7348ZM54.1805 6.39994C52.6317 6.39994 51.5924 5.4014 51.5924 4.13793C51.5924 2.87446 52.6317 1.89629 54.1805 1.89629C55.7293 1.89629 56.7686 2.87446 56.7686 4.13793C56.7686 5.4014 55.7293 6.39994 54.1805 6.39994ZM51.7351 17.1802C51.4294 17.1802 51.2256 17.0171 51.2256 16.7522V16.6707C51.2256 16.039 52.0611 15.7333 52.0611 14.7348V11.4538C52.0611 10.4553 51.2256 10.1496 51.2256 9.59937V9.51786C51.2256 9.27331 51.4294 9.15104 51.7351 9.00839L55.2198 7.2966C55.8312 6.99092 56.2183 7.35773 56.2183 7.7653V14.7348C56.2183 15.7333 57.1558 16.039 57.1558 16.6707V16.7522C57.1558 17.0171 56.952 17.1802 56.6463 17.1802H51.7351ZM69.0797 14.7551C69.1612 15.7537 69.8134 16.0594 69.8134 16.6911V16.7726C69.8134 17.0375 69.6096 17.2006 69.3039 17.2006H64.8002C64.4946 17.2006 64.2908 17.0375 64.2908 16.7726V16.6911C64.2908 16.0594 65.0855 15.7537 65.0244 14.7551L64.8206 11.2296C64.7187 9.33445 64.4946 8.68234 63.6998 8.68234C62.9662 8.68234 62.7013 9.37521 62.7013 10.4349V14.7551C62.7013 15.7537 63.6387 16.0594 63.6387 16.6911V16.7726C63.6387 17.0375 63.4349 17.2006 63.1292 17.2006H58.218C57.9123 17.2006 57.7085 17.0375 57.7085 16.7726V16.6911C57.7085 16.0594 58.6459 15.7537 58.6459 14.7551V11.3112C58.6459 10.3126 57.5047 10.1292 57.5047 9.49748V9.41596C57.5047 9.15104 57.7289 9.02877 58.0346 8.86574L61.234 7.27622C61.7842 6.99092 62.0695 7.37811 62.0695 7.80606V8.64158C62.5994 7.70417 63.5979 7.1947 64.9225 7.1947C66.6343 7.1947 68.5499 8.09136 68.8148 11.3723L69.0797 14.7551ZM80.2666 14.7959C80.4704 16.3039 81.2651 15.9778 81.2651 16.5688C81.2651 17.1598 79.9201 17.3024 78.7178 17.3024C77.4136 17.3024 76.8022 17.0579 76.6188 16.4058C76.1909 16.9356 75.4165 17.384 74.1123 17.384C71.9521 17.384 70.2403 16.4058 70.2403 14.2864C70.2403 12.2078 71.9929 11.1481 73.8881 11.1481C74.6829 11.1481 75.335 11.3112 75.8444 11.5965C75.5999 9.23256 75.5795 8.25439 74.6625 8.25439C73.4602 8.25439 74.0919 11.087 72.0744 11.087C71.1166 11.087 70.4645 10.496 70.4645 9.61975C70.4645 7.80606 72.6246 7.1947 74.6625 7.1947C77.4543 7.1947 79.4718 8.78423 79.7979 11.2704L80.2666 14.7959ZM75.4165 16.2428C75.926 16.2428 76.1909 15.4888 76.1501 14.9182L76.0686 13.9604C75.9056 12.6969 75.4572 12.3301 75.0701 12.3301C74.6625 12.3301 74.3772 12.7988 74.3772 13.4917C74.3772 14.9589 74.744 16.2428 75.4165 16.2428ZM85.7416 17.384C83.6222 17.384 82.2365 15.9982 82.2365 13.4305V8.92688H81.6251C81.3398 8.92688 81.1156 8.70271 81.1156 8.41742V7.90795C81.1156 7.60227 81.3194 7.39849 81.6251 7.39849H81.9104C83.235 7.39849 84.3354 6.56297 84.6411 5.31988C84.7226 4.97345 84.9672 4.74928 85.2525 4.74928H85.8027C86.1491 4.74928 86.3937 4.97345 86.3937 5.31988V7.39849H88.3092C88.5945 7.39849 88.8187 7.62265 88.8187 7.90795V8.41742C88.8187 8.70271 88.5945 8.92688 88.3092 8.92688H86.3937V13.512C86.3937 14.0826 86.7605 14.4495 87.2292 14.4495C87.9832 14.4495 88.2685 14.0826 88.513 13.7973C88.8391 13.4305 89.3282 13.5732 89.3282 13.9807C89.3282 15.611 88.1258 17.384 85.7416 17.384ZM97.9505 13.8789C98.2562 13.5732 98.7453 13.7158 98.7453 14.1845C98.7453 15.285 97.3188 17.384 94.6084 17.384C91.572 17.384 89.4934 15.3054 89.4934 12.2282C89.4934 9.17142 91.8981 7.1947 94.5473 7.1947C97.2576 7.1947 98.4804 8.68234 98.4804 9.90505C98.4804 10.4553 98.1951 10.8425 97.7875 11.1074L94.099 13.512C94.6084 14.1642 95.3013 14.531 96.1368 14.531C96.8501 14.531 97.6041 14.2253 97.9505 13.8789ZM94.2212 8.29514C93.5488 8.29514 93.1412 9.08991 93.1412 9.9458C93.1412 10.8628 93.2635 11.678 93.508 12.3708L94.8122 11.4131C95.1383 11.1685 95.3421 10.7406 95.3421 10.2922C95.3421 9.72164 95.179 8.29514 94.2212 8.29514ZM99.6685 17.1802C99.3628 17.1802 99.159 17.0171 99.159 16.7522V16.6707C99.159 16.039 99.9946 15.7333 99.9946 14.7348V5.99237C99.9946 4.99382 99.159 4.68815 99.159 4.13793V4.05641C99.159 3.81187 99.3628 3.6896 99.6685 3.54695L103.153 1.83516C103.765 1.52948 104.152 1.89629 104.152 2.30386V14.7348C104.152 15.7333 105.089 16.039 105.089 16.6707V16.7522C105.089 17.0171 104.885 17.1802 104.58 17.1802H99.6685Z"/>
</mask>
<path d="M1.72191 16.7522V16.6707C1.72191 16.039 2.55743 15.7333 2.55743 14.7348V5.15685C2.55743 4.15831 1.72191 3.85263 1.72191 3.22089V3.13938C1.72191 2.87446 1.92569 2.71143 2.23137 2.71143H7.16297C7.46865 2.71143 7.67243 2.87446 7.67243 3.13938V3.22089C7.67243 3.85263 6.73502 4.15831 6.73502 5.15685V14.7348C6.73502 15.7333 7.67243 16.039 7.67243 16.6707V16.7522C7.67243 17.0171 7.46865 17.1802 7.16297 17.1802H2.23137C1.92569 17.1802 1.72191 17.0171 1.72191 16.7522ZM12.842 17.3636C10.3151 17.3636 8.27726 16.5077 8.27726 14.9589C8.27726 13.94 8.99051 13.512 9.88716 13.512C12.1492 13.512 11.4359 16.3854 12.842 16.3854C13.27 16.3854 13.6368 16.1613 13.6368 15.448C13.6368 12.7988 8.44029 14.266 8.44029 10.3738C8.44029 8.49893 10.2336 7.1947 12.8624 7.1947C15.4709 7.1947 17.2438 8.25439 17.2438 9.6605C17.2438 10.4349 16.5509 11.0462 15.695 11.0462C13.5145 11.0462 14.187 8.21363 13.0866 8.21363C12.5975 8.21363 12.4345 8.72309 12.4345 9.21218C12.4345 12.0244 17.3661 10.6794 17.3661 14.3068C17.3661 16.039 15.7562 17.3636 12.842 17.3636ZM28.0904 14.7959C28.2942 16.3039 29.089 15.9778 29.089 16.5688C29.089 17.1598 27.744 17.3024 26.5417 17.3024C25.2374 17.3024 24.6261 17.0579 24.4427 16.4058C24.0147 16.9356 23.2403 17.384 21.9361 17.384C19.776 17.384 18.0642 16.4058 18.0642 14.2864C18.0642 12.2078 19.8168 11.1481 21.712 11.1481C22.5067 11.1481 23.1588 11.3112 23.6683 11.5965C23.4237 9.23256 23.4034 8.25439 22.4863 8.25439C21.284 8.25439 21.9157 11.087 19.8983 11.087C18.9405 11.087 18.2884 10.496 18.2884 9.61975C18.2884 7.80606 20.4485 7.1947 22.4863 7.1947C25.2782 7.1947 27.2957 8.78423 27.6217 11.2704L28.0904 14.7959ZM23.2403 16.2428C23.7498 16.2428 24.0147 15.4888 23.974 14.9182L23.8925 13.9604C23.7294 12.6969 23.2811 12.3301 22.8939 12.3301C22.4863 12.3301 22.201 12.7988 22.201 13.4917C22.201 14.9589 22.5679 16.2428 23.2403 16.2428ZM49.9352 14.7348C50.1186 15.7333 50.7708 16.039 50.7708 16.6707V16.7522C50.7708 17.0171 50.567 17.1802 50.2613 17.1802H45.5539C45.2482 17.1802 45.0444 17.0171 45.0444 16.7522V16.6707C45.0444 16.039 45.941 15.7129 45.778 14.7348L44.698 8.47855L41.845 16.5281C41.7023 16.956 41.4985 17.1598 41.0502 17.1598C40.6019 17.1598 40.3166 16.9764 40.1332 16.5484L36.7096 8.07098L35.7722 14.7348C35.6295 15.7333 36.5058 16.039 36.5058 16.6707V16.7522C36.5058 17.0171 36.302 17.1802 35.9963 17.1802H33.286C32.9803 17.1802 32.7765 17.0171 32.7765 16.7522V16.6707C32.7765 16.039 33.4694 15.7333 33.612 14.7348L35.0589 5.15685C35.2016 4.15831 34.2234 3.85263 34.2234 3.22089V3.13938C34.2234 2.87446 34.4272 2.71143 34.7329 2.71143H37.7896C38.3602 2.71143 38.7678 2.97635 38.9512 3.50619L41.6412 11.3723L44.1681 3.54695C44.3515 2.99673 44.7387 2.71143 45.3093 2.71143H48.4476C48.7533 2.71143 48.9571 2.87446 48.9571 3.13938V3.22089C48.9571 3.85263 47.9381 4.15831 48.1216 5.15685L49.9352 14.7348ZM54.1805 6.39994C52.6317 6.39994 51.5924 5.4014 51.5924 4.13793C51.5924 2.87446 52.6317 1.89629 54.1805 1.89629C55.7293 1.89629 56.7686 2.87446 56.7686 4.13793C56.7686 5.4014 55.7293 6.39994 54.1805 6.39994ZM51.7351 17.1802C51.4294 17.1802 51.2256 17.0171 51.2256 16.7522V16.6707C51.2256 16.039 52.0611 15.7333 52.0611 14.7348V11.4538C52.0611 10.4553 51.2256 10.1496 51.2256 9.59937V9.51786C51.2256 9.27331 51.4294 9.15104 51.7351 9.00839L55.2198 7.2966C55.8312 6.99092 56.2183 7.35773 56.2183 7.7653V14.7348C56.2183 15.7333 57.1558 16.039 57.1558 16.6707V16.7522C57.1558 17.0171 56.952 17.1802 56.6463 17.1802H51.7351ZM69.0797 14.7551C69.1612 15.7537 69.8134 16.0594 69.8134 16.6911V16.7726C69.8134 17.0375 69.6096 17.2006 69.3039 17.2006H64.8002C64.4946 17.2006 64.2908 17.0375 64.2908 16.7726V16.6911C64.2908 16.0594 65.0855 15.7537 65.0244 14.7551L64.8206 11.2296C64.7187 9.33445 64.4946 8.68234 63.6998 8.68234C62.9662 8.68234 62.7013 9.37521 62.7013 10.4349V14.7551C62.7013 15.7537 63.6387 16.0594 63.6387 16.6911V16.7726C63.6387 17.0375 63.4349 17.2006 63.1292 17.2006H58.218C57.9123 17.2006 57.7085 17.0375 57.7085 16.7726V16.6911C57.7085 16.0594 58.6459 15.7537 58.6459 14.7551V11.3112C58.6459 10.3126 57.5047 10.1292 57.5047 9.49748V9.41596C57.5047 9.15104 57.7289 9.02877 58.0346 8.86574L61.234 7.27622C61.7842 6.99092 62.0695 7.37811 62.0695 7.80606V8.64158C62.5994 7.70417 63.5979 7.1947 64.9225 7.1947C66.6343 7.1947 68.5499 8.09136 68.8148 11.3723L69.0797 14.7551ZM80.2666 14.7959C80.4704 16.3039 81.2651 15.9778 81.2651 16.5688C81.2651 17.1598 79.9201 17.3024 78.7178 17.3024C77.4136 17.3024 76.8022 17.0579 76.6188 16.4058C76.1909 16.9356 75.4165 17.384 74.1123 17.384C71.9521 17.384 70.2403 16.4058 70.2403 14.2864C70.2403 12.2078 71.9929 11.1481 73.8881 11.1481C74.6829 11.1481 75.335 11.3112 75.8444 11.5965C75.5999 9.23256 75.5795 8.25439 74.6625 8.25439C73.4602 8.25439 74.0919 11.087 72.0744 11.087C71.1166 11.087 70.4645 10.496 70.4645 9.61975C70.4645 7.80606 72.6246 7.1947 74.6625 7.1947C77.4543 7.1947 79.4718 8.78423 79.7979 11.2704L80.2666 14.7959ZM75.4165 16.2428C75.926 16.2428 76.1909 15.4888 76.1501 14.9182L76.0686 13.9604C75.9056 12.6969 75.4572 12.3301 75.0701 12.3301C74.6625 12.3301 74.3772 12.7988 74.3772 13.4917C74.3772 14.9589 74.744 16.2428 75.4165 16.2428ZM85.7416 17.384C83.6222 17.384 82.2365 15.9982 82.2365 13.4305V8.92688H81.6251C81.3398 8.92688 81.1156 8.70271 81.1156 8.41742V7.90795C81.1156 7.60227 81.3194 7.39849 81.6251 7.39849H81.9104C83.235 7.39849 84.3354 6.56297 84.6411 5.31988C84.7226 4.97345 84.9672 4.74928 85.2525 4.74928H85.8027C86.1491 4.74928 86.3937 4.97345 86.3937 5.31988V7.39849H88.3092C88.5945 7.39849 88.8187 7.62265 88.8187 7.90795V8.41742C88.8187 8.70271 88.5945 8.92688 88.3092 8.92688H86.3937V13.512C86.3937 14.0826 86.7605 14.4495 87.2292 14.4495C87.9832 14.4495 88.2685 14.0826 88.513 13.7973C88.8391 13.4305 89.3282 13.5732 89.3282 13.9807C89.3282 15.611 88.1258 17.384 85.7416 17.384ZM97.9505 13.8789C98.2562 13.5732 98.7453 13.7158 98.7453 14.1845C98.7453 15.285 97.3188 17.384 94.6084 17.384C91.572 17.384 89.4934 15.3054 89.4934 12.2282C89.4934 9.17142 91.8981 7.1947 94.5473 7.1947C97.2576 7.1947 98.4804 8.68234 98.4804 9.90505C98.4804 10.4553 98.1951 10.8425 97.7875 11.1074L94.099 13.512C94.6084 14.1642 95.3013 14.531 96.1368 14.531C96.8501 14.531 97.6041 14.2253 97.9505 13.8789ZM94.2212 8.29514C93.5488 8.29514 93.1412 9.08991 93.1412 9.9458C93.1412 10.8628 93.2635 11.678 93.508 12.3708L94.8122 11.4131C95.1383 11.1685 95.3421 10.7406 95.3421 10.2922C95.3421 9.72164 95.179 8.29514 94.2212 8.29514ZM99.6685 17.1802C99.3628 17.1802 99.159 17.0171 99.159 16.7522V16.6707C99.159 16.039 99.9946 15.7333 99.9946 14.7348V5.99237C99.9946 4.99382 99.159 4.68815 99.159 4.13793V4.05641C99.159 3.81187 99.3628 3.6896 99.6685 3.54695L103.153 1.83516C103.765 1.52948 104.152 1.89629 104.152 2.30386V14.7348C104.152 15.7333 105.089 16.039 105.089 16.6707V16.7522C105.089 17.0171 104.885 17.1802 104.58 17.1802H99.6685Z" fill="#2260A1"/>
<path d="M1.72191 16.7522H3.44374V16.6707H1.72191H7.66516e-05V16.7522H1.72191ZM1.72191 16.6707H3.44374C3.44374 16.9207 3.3532 17.0869 3.33638 17.1154C3.33141 17.1239 3.33688 17.1134 3.37148 17.0665C3.44098 16.9724 3.41633 17.0086 3.52014 16.8694C3.79885 16.4955 4.27926 15.7968 4.27926 14.7348H2.55743H0.835596C0.835596 14.7378 0.835469 14.7292 0.838947 14.7132C0.842382 14.6974 0.846994 14.685 0.849538 14.6792C0.851345 14.6751 0.84146 14.7009 0.759196 14.8112C0.716967 14.8679 0.509957 15.1285 0.368535 15.3688C0.19505 15.6636 7.66516e-05 16.1049 7.66516e-05 16.6707H1.72191ZM2.55743 14.7348H4.27926V5.15685H2.55743H0.835596V14.7348H2.55743ZM2.55743 5.15685H4.27926C4.27926 4.09484 3.79885 3.39613 3.52014 3.02224C3.41633 2.88299 3.44098 2.91921 3.37148 2.82508C3.33688 2.77821 3.33141 2.76771 3.33638 2.77617C3.3532 2.80476 3.44374 2.97094 3.44374 3.22089H1.72191H7.66516e-05C7.66516e-05 3.78672 0.19505 4.22801 0.368535 4.52279C0.509957 4.76309 0.716967 5.02375 0.759196 5.0804C0.84146 5.19075 0.851345 5.2165 0.849538 5.21237C0.846994 5.20656 0.842382 5.19425 0.838947 5.17844C0.835469 5.16244 0.835596 5.15385 0.835596 5.15685H2.55743ZM1.72191 3.22089H3.44374V3.13938H1.72191H7.66516e-05V3.22089H1.72191ZM1.72191 3.13938H3.44374C3.44374 3.48668 3.29089 3.87822 2.96057 4.15191C2.66524 4.39661 2.36909 4.43326 2.23137 4.43326V2.71143V0.989601C1.78797 0.989601 1.23709 1.10777 0.76345 1.50021C0.254822 1.92165 7.66516e-05 2.52716 7.66516e-05 3.13938H1.72191ZM2.23137 2.71143V4.43326H7.16297V2.71143V0.989601H2.23137V2.71143ZM7.16297 2.71143V4.43326C7.02525 4.43326 6.7291 4.39661 6.43377 4.15191C6.10345 3.87822 5.9506 3.48668 5.9506 3.13938H7.67243H9.39426C9.39426 2.52716 9.13952 1.92165 8.63089 1.50021C8.15725 1.10777 7.60637 0.989601 7.16297 0.989601V2.71143ZM7.67243 3.13938H5.9506V3.22089H7.67243H9.39426V3.13938H7.67243ZM7.67243 3.22089H5.9506C5.9506 2.92038 6.07149 2.72741 6.0891 2.70074C6.0953 2.69134 6.08926 2.7018 6.04983 2.7494C5.97231 2.84298 5.99831 2.80874 5.88295 2.94667C5.58404 3.30406 5.01319 4.02924 5.01319 5.15685H6.73502H8.45685C8.45685 5.28592 8.35471 5.35898 8.5245 5.15597C8.5721 5.09906 8.80368 4.83925 8.96283 4.59822C9.1562 4.30536 9.39426 3.83727 9.39426 3.22089H7.67243ZM6.73502 5.15685H5.01319V14.7348H6.73502H8.45685V5.15685H6.73502ZM6.73502 14.7348H5.01319C5.01319 15.8624 5.58404 16.5875 5.88295 16.9449C5.99831 17.0829 5.97231 17.0486 6.04983 17.1422C6.08926 17.1898 6.0953 17.2003 6.0891 17.1909C6.07149 17.1642 5.9506 16.9712 5.9506 16.6707H7.67243H9.39426C9.39426 16.0543 9.1562 15.5862 8.96283 15.2934C8.80368 15.0524 8.5721 14.7925 8.5245 14.7356C8.35471 14.5326 8.45685 14.6057 8.45685 14.7348H6.73502ZM7.67243 16.6707H5.9506V16.7522H7.67243H9.39426V16.6707H7.67243ZM7.67243 16.7522H5.9506C5.9506 16.4049 6.10346 16.0134 6.43377 15.7397C6.7291 15.495 7.02525 15.4583 7.16297 15.4583V17.1802V18.902C7.60637 18.902 8.15725 18.7838 8.63089 18.3914C9.13952 17.97 9.39426 17.3645 9.39426 16.7522H7.67243ZM7.16297 17.1802V15.4583H2.23137V17.1802V18.902H7.16297V17.1802ZM2.23137 17.1802V15.4583C2.36909 15.4583 2.66524 15.495 2.96057 15.7397C3.29089 16.0134 3.44374 16.4049 3.44374 16.7522H1.72191H7.66516e-05C7.66516e-05 17.3645 0.254822 17.97 0.763451 18.3914C1.23709 18.7838 1.78797 18.902 2.23137 18.902V17.1802ZM12.842 17.3636V15.6418C11.7393 15.6418 10.8845 15.4501 10.3744 15.1982C10.1269 15.0759 10.0262 14.9722 9.99711 14.9346C9.98503 14.9189 9.98808 14.9187 9.99318 14.9331C9.99868 14.9487 9.99909 14.9602 9.99909 14.9589H8.27726H6.55543C6.55543 16.6419 7.70477 17.7205 8.84966 18.2859C9.99022 18.8491 11.4178 19.0854 12.842 19.0854V17.3636ZM8.27726 14.9589H9.99909C9.99909 14.9058 10.0079 14.9303 9.97817 14.9977C9.9462 15.0702 9.89208 15.141 9.82731 15.1933C9.76804 15.2411 9.72801 15.2511 9.73757 15.2483C9.74879 15.2451 9.79639 15.2339 9.88716 15.2339V13.512V11.7902C9.19482 11.7902 8.36023 11.9521 7.66462 12.5135C6.91059 13.122 6.55543 14.0092 6.55543 14.9589H8.27726ZM9.88716 13.512V15.2339C10.0365 15.2339 9.97046 15.26 9.8965 15.1871C9.89311 15.1837 9.9533 15.2459 10.0815 15.5744C10.154 15.7603 10.3645 16.3943 10.6399 16.8406C10.8061 17.11 11.0627 17.4406 11.4581 17.7006C11.8755 17.975 12.3509 18.1072 12.842 18.1072V16.3854V14.6636C12.9817 14.6636 13.1718 14.706 13.3502 14.8233C13.5066 14.9262 13.5705 15.0323 13.5706 15.0323C13.5719 15.0345 13.5642 15.0222 13.5481 14.9879C13.5321 14.9536 13.5122 14.9073 13.4866 14.8427C13.4606 14.777 13.4339 14.7056 13.4004 14.6157C13.3688 14.5307 13.3305 14.4276 13.2897 14.323C13.1376 13.9332 12.8641 13.2771 12.3143 12.7349C11.694 12.1233 10.8688 11.7902 9.88716 11.7902V13.512ZM12.842 16.3854V18.1072C13.3389 18.1072 14.0443 17.9748 14.6174 17.4017C15.1925 16.8266 15.3586 16.0837 15.3586 15.448H13.6368H11.915C11.915 15.5256 11.8977 15.2514 12.1824 14.9667C12.4651 14.6839 12.7732 14.6636 12.842 14.6636V16.3854ZM13.6368 15.448H15.3586C15.3586 14.8167 15.1981 14.2208 14.8619 13.6979C14.5371 13.1928 14.1099 12.8507 13.7185 12.6131C13.0259 12.1925 12.0965 11.9216 11.6031 11.7504C10.964 11.5286 10.6224 11.3583 10.4222 11.1728C10.3112 11.07 10.1621 10.9014 10.1621 10.3738H8.44029H6.71846C6.71846 11.7922 7.21893 12.8998 8.08227 13.6994C8.85641 14.4164 9.814 14.7746 10.474 15.0037C11.2797 15.2833 11.6495 15.3856 11.9312 15.5566C12.027 15.6148 12.0057 15.6232 11.9652 15.5601C11.9131 15.4792 11.915 15.417 11.915 15.448H13.6368ZM8.44029 10.3738H10.1621C10.1621 10.0495 10.2937 9.7511 10.6728 9.47763C11.087 9.1789 11.8132 8.91654 12.8624 8.91654V7.19471V5.47287C11.2828 5.47287 9.79799 5.86262 8.65827 6.68471C7.48354 7.53206 6.71846 8.82318 6.71846 10.3738H8.44029ZM12.8624 7.19471V8.91654C13.9585 8.91654 14.7364 9.14289 15.1754 9.39437C15.6142 9.64573 15.522 9.77937 15.522 9.66051H17.2438H18.9656C18.9656 8.13553 17.9869 7.03626 16.8871 6.40626C15.7876 5.77636 14.3748 5.47287 12.8624 5.47287V7.19471ZM17.2438 9.66051H15.522C15.522 9.51005 15.5947 9.40295 15.645 9.35814C15.6902 9.31791 15.7142 9.32441 15.695 9.32441V11.0462V12.7681C17.3095 12.7681 18.9656 11.5674 18.9656 9.66051H17.2438ZM15.695 11.0462V9.32441C15.575 9.32441 15.6628 9.30763 15.7508 9.39723C15.7713 9.4181 15.717 9.37141 15.6151 9.07315C15.5619 8.91755 15.53 8.80405 15.4618 8.58919C15.4062 8.41394 15.324 8.16435 15.2079 7.91921C15.0944 7.67967 14.8942 7.32401 14.5399 7.02303C14.1419 6.68501 13.6384 6.4918 13.0866 6.4918V8.21363V9.93546C12.8099 9.93546 12.5261 9.83077 12.3105 9.64766C12.1385 9.50159 12.0833 9.36722 12.0957 9.39324C12.1053 9.41366 12.1296 9.47388 12.1794 9.63059C12.2165 9.74767 12.2886 9.98825 12.3565 10.1867C12.4965 10.5966 12.7517 11.2581 13.2938 11.8101C13.9034 12.4308 14.7248 12.7681 15.695 12.7681V11.0462ZM13.0866 8.21363V6.4918C12.0936 6.4918 11.4056 7.07594 11.0624 7.71074C10.7707 8.25041 10.7126 8.82188 10.7126 9.21218H12.4345H14.1563C14.1563 9.11339 14.1798 9.18559 14.0918 9.34826C14.0385 9.44686 13.9279 9.6054 13.7259 9.73853C13.5114 9.8799 13.2798 9.93546 13.0866 9.93546V8.21363ZM12.4345 9.21218H10.7126C10.7126 10.5615 11.3685 11.4963 12.2127 12.0916C12.9013 12.5773 13.7953 12.8758 14.2884 13.0633C14.9166 13.3021 15.2368 13.4646 15.4259 13.6395C15.5207 13.7273 15.6442 13.8582 15.6442 14.3068H17.3661H19.0879C19.0879 12.9418 18.595 11.8805 17.7651 11.1123C17.0295 10.4314 16.1168 10.0742 15.5121 9.84436C14.7723 9.56311 14.4334 9.44388 14.1974 9.27741C14.1169 9.22065 14.1563 9.26901 14.1563 9.21218H12.4345ZM17.3661 14.3068H15.6442C15.6442 14.5778 15.5431 14.8358 15.1961 15.0836C14.8062 15.3621 14.0609 15.6418 12.842 15.6418V17.3636V19.0854C14.5373 19.0854 16.054 18.7027 17.1977 17.8859C18.3841 17.0384 19.0879 15.768 19.0879 14.3068H17.3661ZM28.0904 14.7959L26.3836 15.0228L26.3841 15.0265L28.0904 14.7959ZM24.4427 16.4058L26.1002 15.9396L25.1977 12.7307L23.1032 15.3239L24.4427 16.4058ZM23.6683 11.5965L22.827 13.0988L25.7225 14.7202L25.381 11.4193L23.6683 11.5965ZM27.6217 11.2704L25.9145 11.4943L25.9149 11.4973L27.6217 11.2704ZM23.974 14.9182L25.6914 14.7955L25.6906 14.7838L25.6896 14.7722L23.974 14.9182ZM23.8925 13.9604L25.6081 13.8144L25.6049 13.7771L25.6001 13.74L23.8925 13.9604ZM28.0904 14.7959L26.3841 15.0265C26.4557 15.5562 26.593 16.0293 26.8179 16.4452C27.0533 16.8802 27.3386 17.1676 27.5849 17.3663C27.6869 17.4486 27.795 17.5245 27.8179 17.5411C27.8665 17.5762 27.8187 17.5453 27.7568 17.4846C27.6793 17.4087 27.5638 17.2736 27.4769 17.0749C27.3897 16.8754 27.3671 16.6943 27.3671 16.5688H29.089H30.8108C30.8108 16.2956 30.7634 15.9954 30.6319 15.6947C30.5008 15.3949 30.3216 15.1765 30.1665 15.0245C30.0268 14.8877 29.8873 14.7878 29.8356 14.7504C29.7934 14.7199 29.7892 14.7172 29.7662 14.7004C29.7592 14.6952 29.7545 14.6918 29.7514 14.6894C29.7483 14.687 29.7471 14.6861 29.7473 14.6862C29.7695 14.7041 29.8179 14.7532 29.8469 14.8068C29.8655 14.8412 29.8271 14.7896 29.7967 14.5653L28.0904 14.7959ZM29.089 16.5688H27.3671C27.3671 16.2947 27.451 16.039 27.5833 15.8346C27.7047 15.6469 27.8391 15.544 27.9057 15.4996C28.0173 15.4253 28.0492 15.4412 27.888 15.4775C27.5909 15.5443 27.107 15.5806 26.5417 15.5806V17.3024V19.0243C27.1787 19.0243 27.9684 18.9892 28.6444 18.837C28.9697 18.7638 29.413 18.6332 29.8144 18.3659C30.2458 18.0786 30.8108 17.4911 30.8108 16.5688H29.089ZM26.5417 17.3024V15.5806C26.2644 15.5806 26.0639 15.5673 25.9212 15.5479C25.7761 15.5282 25.7289 15.5071 25.74 15.5118C25.7603 15.5203 25.8484 15.5628 25.9427 15.6672C26.0394 15.7744 26.0839 15.8816 26.1002 15.9396L24.4427 16.4058L22.7852 16.872C23.0264 17.7297 23.6081 18.3506 24.4037 18.6856C25.0704 18.9663 25.834 19.0243 26.5417 19.0243V17.3024ZM24.4427 16.4058L23.1032 15.3239C23.0641 15.3723 22.9877 15.4466 22.8315 15.5145C22.6707 15.5844 22.3906 15.6621 21.9361 15.6621V17.384V19.1058C23.6668 19.1058 24.9726 18.49 25.7822 17.4877L24.4427 16.4058ZM21.9361 17.384V15.6621C21.0837 15.6621 20.5142 15.4647 20.2053 15.2392C19.9675 15.0656 19.786 14.8165 19.786 14.2864H18.0642H16.3424C16.3424 15.8757 17.0168 17.1753 18.175 18.0207C19.262 18.8141 20.6284 19.1058 21.9361 19.1058V17.384ZM18.0642 14.2864H19.786C19.786 13.7907 19.9691 13.5032 20.2341 13.2972C20.546 13.0548 21.062 12.87 21.712 12.87V11.1481V9.42631C20.4667 9.42631 19.1588 9.77136 18.1206 10.5784C17.0356 11.4219 16.3424 12.7036 16.3424 14.2864H18.0642ZM21.712 11.1481V12.87C22.2743 12.87 22.6239 12.985 22.827 13.0988L23.6683 11.5965L24.5096 10.0942C23.6938 9.6373 22.7391 9.42631 21.712 9.42631V11.1481ZM23.6683 11.5965L25.381 11.4193C25.2716 10.3615 25.1896 9.3007 24.9883 8.57732C24.88 8.18808 24.6761 7.64156 24.2127 7.199C23.687 6.69692 23.0501 6.53256 22.4863 6.53256V8.25439V9.97622C22.3811 9.97622 22.0906 9.93412 21.8343 9.68932C21.6403 9.50404 21.6287 9.34981 21.6707 9.5006C21.7085 9.63637 21.7507 9.87024 21.7997 10.2811C21.8482 10.6877 21.8918 11.1568 21.9556 11.7736L23.6683 11.5965ZM22.4863 8.25439V6.53256C21.9641 6.53256 21.4751 6.69747 21.0697 7.00613C20.698 7.28909 20.4738 7.63374 20.3386 7.88785C20.1125 8.3125 19.9326 8.9287 19.8705 9.10867C19.7572 9.43654 19.7018 9.4958 19.7151 9.48133C19.8055 9.38262 19.9311 9.36517 19.8983 9.36517V11.087V12.8088C20.8742 12.8088 21.6774 12.4373 22.2543 11.8075C22.7541 11.2619 22.9942 10.613 23.1255 10.2327C23.1614 10.1287 23.1946 10.0271 23.2226 9.94141C23.2522 9.85101 23.2757 9.77894 23.299 9.71127C23.3219 9.64476 23.34 9.59597 23.3552 9.55875C23.3625 9.54074 23.3682 9.52758 23.3724 9.51842C23.3766 9.50923 23.3786 9.50548 23.3783 9.50612C23.378 9.50674 23.3745 9.51328 23.3674 9.52436C23.3604 9.53545 23.3489 9.55253 23.3324 9.57378C23.2995 9.616 23.2424 9.68003 23.1557 9.74607C22.9537 9.89983 22.7079 9.97622 22.4863 9.97622V8.25439ZM19.8983 11.087V9.36517C19.7715 9.36517 19.8063 9.32963 19.8929 9.40845C19.9339 9.44572 19.9679 9.49363 19.9893 9.54383C20.0103 9.59317 20.0102 9.62328 20.0102 9.61975H18.2884H16.5665C16.5665 10.5083 16.9092 11.3494 17.5753 11.9555C18.2275 12.5489 19.0673 12.8088 19.8983 12.8088V11.087ZM18.2884 9.61975H20.0102C20.0102 9.53436 20.0271 9.51962 20.035 9.50901C20.0594 9.47655 20.144 9.38646 20.3652 9.28084C20.8348 9.05657 21.5953 8.91654 22.4863 8.91654V7.19471V5.47287C21.3395 5.47287 20.0011 5.63852 18.8811 6.17335C17.6987 6.73803 16.5665 7.8439 16.5665 9.61975H18.2884ZM22.4863 7.19471V8.91654C24.5719 8.91654 25.7203 10.0132 25.9145 11.4943L27.6217 11.2704L29.3289 11.0465C28.8711 7.55527 25.9845 5.47287 22.4863 5.47287V7.19471ZM27.6217 11.2704L25.9149 11.4973L26.3836 15.0228L28.0904 14.7959L29.7972 14.569L29.3285 11.0435L27.6217 11.2704ZM23.2403 16.2428V17.9646C24.4757 17.9646 25.1243 17.0421 25.3655 16.54C25.631 15.9874 25.7313 15.3535 25.6914 14.7955L23.974 14.9182L22.2565 15.0408C22.2558 15.0306 22.2571 15.0412 22.2534 15.0619C22.2495 15.0837 22.2468 15.0793 22.2615 15.0489C22.2727 15.0255 22.329 14.9132 22.4755 14.7915C22.642 14.6532 22.909 14.5209 23.2403 14.5209V16.2428ZM23.974 14.9182L25.6896 14.7722L25.6081 13.8144L23.8925 13.9604L22.1768 14.1064L22.2583 15.0642L23.974 14.9182ZM23.8925 13.9604L25.6001 13.74C25.5001 12.9648 25.2889 12.2372 24.8716 11.6612C24.4109 11.0254 23.7105 10.6083 22.8939 10.6083V12.3301V14.0519C22.7103 14.0519 22.5258 14.0062 22.3645 13.918C22.2071 13.832 22.1194 13.732 22.0829 13.6816C22.0492 13.6351 22.0608 13.634 22.0894 13.7193C22.1175 13.8034 22.1551 13.9504 22.1848 14.1807L23.8925 13.9604ZM22.8939 12.3301V10.6083C21.9302 10.6083 21.2625 11.1912 20.9182 11.7652C20.5897 12.3126 20.4792 12.9356 20.4792 13.4917H22.201H23.9229C23.9229 13.3548 23.955 13.3971 23.8711 13.5369C23.8247 13.6143 23.7281 13.7431 23.5536 13.8568C23.3686 13.9773 23.1382 14.0519 22.8939 14.0519V12.3301ZM22.201 13.4917H20.4792C20.4792 14.3392 20.5817 15.2354 20.8426 15.984C20.9713 16.3535 21.1751 16.7941 21.5144 17.1711C21.8756 17.5724 22.459 17.9646 23.2403 17.9646V16.2428V14.5209C23.6855 14.5209 23.9708 14.7526 24.0741 14.8674C24.1554 14.9578 24.1415 14.9857 24.0944 14.8508C24.0038 14.5907 23.9229 14.1114 23.9229 13.4917H22.201ZM49.9352 14.7348L51.6288 14.4237L51.627 14.4144L49.9352 14.7348ZM45.778 14.7348L47.4765 14.4517L47.4748 14.4418L45.778 14.7348ZM44.698 8.47855L46.3947 8.18563L45.2746 1.6975L43.0751 7.90334L44.698 8.47855ZM41.845 16.5281L40.2221 15.9529L40.2166 15.9682L40.2115 15.9836L41.845 16.5281ZM40.1332 16.5484L38.5366 17.1932L38.5434 17.21L38.5506 17.2267L40.1332 16.5484ZM36.7096 8.07098L38.3061 7.42622L35.8997 1.4675L35.0045 7.83113L36.7096 8.07098ZM35.7722 14.7348L37.4767 14.9783L37.4772 14.9746L35.7722 14.7348ZM33.612 14.7348L31.9095 14.4776L31.9075 14.4913L33.612 14.7348ZM35.0589 5.15685L36.7615 5.41405L36.7635 5.40036L35.0589 5.15685ZM38.9512 3.50619L40.5804 2.94905L40.5783 2.94297L38.9512 3.50619ZM41.6412 11.3723L40.012 11.9294L41.688 16.8305L43.2797 11.9014L41.6412 11.3723ZM44.1681 3.54695L42.5346 3.00246L42.5321 3.01014L42.5296 3.01785L44.1681 3.54695ZM48.1216 5.15685L46.428 5.46791L46.4298 5.47721L48.1216 5.15685ZM49.9352 14.7348L48.2417 15.0458C48.3996 15.9053 48.7758 16.474 48.9871 16.7924C49.2437 17.179 49.0489 16.9687 49.0489 16.6707H50.7708H52.4926C52.4926 15.741 51.9717 15.0619 51.8564 14.8882C51.6958 14.6462 51.6543 14.5627 51.6287 14.4237L49.9352 14.7348ZM50.7708 16.6707H49.0489V16.7522H50.7708H52.4926V16.6707H50.7708ZM50.7708 16.7522H49.0489C49.0489 16.4049 49.2018 16.0134 49.5321 15.7397C49.8274 15.495 50.1236 15.4583 50.2613 15.4583V17.1802V18.902C50.7047 18.902 51.2556 18.7838 51.7292 18.3914C52.2378 17.97 52.4926 17.3645 52.4926 16.7522H50.7708ZM50.2613 17.1802V15.4583H45.5539V17.1802V18.902H50.2613V17.1802ZM45.5539 17.1802V15.4583C45.6916 15.4583 45.9877 15.495 46.2831 15.7397C46.6134 16.0134 46.7662 16.4049 46.7662 16.7522H45.0444H43.3226C43.3226 17.3645 43.5773 17.97 44.0859 18.3914C44.5596 18.7838 45.1105 18.902 45.5539 18.902V17.1802ZM45.0444 16.7522H46.7662V16.6707H45.0444H43.3226V16.7522H45.0444ZM45.0444 16.6707H46.7662C46.7662 16.9455 46.6615 17.1201 46.655 17.1308C46.6538 17.1328 46.6631 17.1175 46.7037 17.0625C46.725 17.0338 46.8137 16.9164 46.8692 16.8394C47.0053 16.6506 47.2176 16.3367 47.3606 15.9204C47.5125 15.4782 47.5653 14.9851 47.4764 14.4517L45.778 14.7348L44.0796 15.0178C44.0722 14.9735 44.0741 14.8879 44.1037 14.8018C44.1244 14.7415 44.1432 14.732 44.0755 14.8259C44.0291 14.8902 44.0134 14.9089 43.9353 15.0144C43.8766 15.0937 43.7916 15.211 43.7089 15.3478C43.5394 15.6278 43.3226 16.0801 43.3226 16.6707H45.0444ZM45.778 14.7348L47.4748 14.4418L46.3947 8.18563L44.698 8.47855L43.0012 8.77147L44.0813 15.0277L45.778 14.7348ZM44.698 8.47855L43.0751 7.90334L40.2221 15.9529L41.845 16.5281L43.4679 17.1033L46.3209 9.05376L44.698 8.47855ZM41.845 16.5281L40.2115 15.9836C40.1812 16.0744 40.2245 15.8787 40.4573 15.6839C40.7323 15.4538 41.0057 15.438 41.0502 15.438V17.1598V18.8816C41.5431 18.8816 42.1425 18.7639 42.6672 18.3249C43.1496 17.9213 43.3661 17.4097 43.4784 17.0726L41.845 16.5281ZM41.0502 17.1598V15.438C41.062 15.438 41.2361 15.4423 41.4418 15.5782C41.6465 15.7135 41.7152 15.8688 41.7158 15.8702L40.1332 16.5484L38.5506 17.2267C38.7346 17.6561 39.0376 18.117 39.5429 18.451C40.0491 18.7856 40.5901 18.8816 41.0502 18.8816V17.1598ZM40.1332 16.5484L41.7297 15.9037L38.3061 7.42622L36.7096 8.07098L35.113 8.71574L38.5366 17.1932L40.1332 16.5484ZM36.7096 8.07098L35.0045 7.83113L34.0671 14.4949L35.7722 14.7348L37.4772 14.9746L38.4146 8.31083L36.7096 8.07098ZM35.7722 14.7348L34.0676 14.4913C33.9926 15.0165 34.0492 15.4996 34.1999 15.9341C34.3428 16.3457 34.5513 16.6557 34.687 16.8447C34.741 16.9199 34.8302 17.0385 34.8497 17.0649C34.8892 17.1186 34.8973 17.1324 34.895 17.1285C34.8846 17.1113 34.784 16.9383 34.784 16.6707H36.5058H38.2276C38.2276 16.0872 38.0174 15.6391 37.8473 15.3557C37.765 15.2188 37.6806 15.1017 37.6225 15.0228C37.5442 14.9165 37.5306 14.9008 37.484 14.8359C37.4185 14.7446 37.4347 14.7515 37.4533 14.8053C37.4799 14.8818 37.4804 14.9523 37.4767 14.9783L35.7722 14.7348ZM36.5058 16.6707H34.784V16.7522H36.5058H38.2276V16.6707H36.5058ZM36.5058 16.7522H34.784C34.784 16.4049 34.9368 16.0134 35.2671 15.7397C35.5625 15.495 35.8586 15.4583 35.9963 15.4583V17.1802V18.902C36.4397 18.902 36.9906 18.7838 37.4643 18.3914C37.9729 17.97 38.2276 17.3645 38.2276 16.7522H36.5058ZM35.9963 17.1802V15.4583H33.286V17.1802V18.902H35.9963V17.1802ZM33.286 17.1802V15.4583C33.4237 15.4583 33.7199 15.495 34.0152 15.7397C34.3455 16.0134 34.4984 16.4049 34.4984 16.7522H32.7765H31.0547C31.0547 17.3645 31.3094 17.97 31.8181 18.3914C32.2917 18.7838 32.8426 18.902 33.286 18.902V17.1802ZM32.7765 16.7522H34.4984V16.6707H32.7765H31.0547V16.7522H32.7765ZM32.7765 16.6707H34.4984C34.4984 16.8518 34.4427 16.9813 34.4241 17.018C34.4187 17.0288 34.4216 17.0212 34.4469 16.9823C34.4763 16.937 34.5042 16.8972 34.5634 16.8103C34.79 16.4779 35.1875 15.8821 35.3166 14.9783L33.612 14.7348L31.9075 14.4913C31.894 14.586 31.8737 14.6423 31.7182 14.8703C31.6208 15.0131 31.0547 15.7165 31.0547 16.6707H32.7765ZM33.612 14.7348L35.3146 14.9919L36.7614 5.41404L35.0589 5.15685L33.3564 4.89966L31.9095 14.4776L33.612 14.7348ZM35.0589 5.15685L36.7635 5.40036C36.8433 4.84169 36.7669 4.33118 36.587 3.88197C36.419 3.46219 36.1813 3.15128 36.0332 2.9683C35.9762 2.89777 35.8714 2.77362 35.8526 2.75082C35.8083 2.69724 35.7996 2.68381 35.803 2.68886C35.813 2.70384 35.9452 2.90309 35.9452 3.22089H34.2234H32.5016C32.5016 3.85457 32.756 4.32893 32.9451 4.6101C33.0379 4.74825 33.1329 4.86569 33.1982 4.94473C33.289 5.05455 33.2998 5.06476 33.3561 5.13434C33.4347 5.23156 33.4148 5.22378 33.3901 5.1619C33.3535 5.07059 33.3459 4.97274 33.3544 4.91335L35.0589 5.15685ZM34.2234 3.22089H35.9452V3.13938H34.2234H32.5016V3.22089H34.2234ZM34.2234 3.13938H35.9452C35.9452 3.48668 35.7924 3.87822 35.4621 4.15191C35.1667 4.39661 34.8706 4.43326 34.7329 4.43326V2.71143V0.989601C34.2895 0.989601 33.7386 1.10777 33.2649 1.50021C32.7563 1.92165 32.5016 2.52716 32.5016 3.13938H34.2234ZM34.7329 2.71143V4.43326H37.7896V2.71143V0.989601H34.7329V2.71143ZM37.7896 2.71143V4.43326C37.8084 4.43326 37.6981 4.43574 37.552 4.33704C37.3969 4.23233 37.3364 4.10496 37.3241 4.06942L38.9512 3.50619L40.5783 2.94297C40.3826 2.37759 40.0266 1.85283 39.4793 1.4832C38.9408 1.11959 38.3415 0.989601 37.7896 0.989601V2.71143ZM38.9512 3.50619L37.322 4.06333L40.012 11.9294L41.6412 11.3723L43.2704 10.8152L40.5804 2.94906L38.9512 3.50619ZM41.6412 11.3723L43.2797 11.9014L45.8066 4.07606L44.1681 3.54695L42.5296 3.01785L40.0027 10.8432L41.6412 11.3723ZM44.1681 3.54695L45.8016 4.09144C45.8056 4.07932 45.7662 4.1981 45.6117 4.31135C45.4542 4.42688 45.3182 4.43326 45.3093 4.43326V2.71143V0.989601C44.7299 0.989601 44.1149 1.13864 43.5753 1.53437C43.0388 1.92782 42.714 2.46436 42.5346 3.00246L44.1681 3.54695ZM45.3093 2.71143V4.43326H48.4476V2.71143V0.989601H45.3093V2.71143ZM48.4476 2.71143V4.43326C48.3099 4.43326 48.0137 4.39661 47.7184 4.15191C47.3881 3.87822 47.2352 3.48668 47.2352 3.13938H48.9571H50.6789C50.6789 2.52716 50.4242 1.92165 49.9155 1.50021C49.4419 1.10777 48.891 0.989601 48.4476 0.989601V2.71143ZM48.9571 3.13938H47.2352V3.22089H48.9571H50.6789V3.13938H48.9571ZM48.9571 3.22089H47.2352C47.2352 2.88394 47.3805 2.67593 47.3876 2.66571C47.3904 2.66176 47.3806 2.67603 47.3335 2.73131C47.3075 2.76192 47.2092 2.87483 47.1438 2.95378C46.9901 3.13958 46.7406 3.45995 46.5704 3.89676C46.387 4.36731 46.3233 4.89753 46.428 5.46791L48.1216 5.15685L49.8151 4.8458C49.8281 4.9169 49.8229 5.03446 49.7791 5.14711C49.7483 5.22602 49.7191 5.24326 49.7972 5.14886C49.8478 5.0877 49.8683 5.06625 49.9552 4.96424C50.021 4.8869 50.1184 4.7703 50.2138 4.63325C50.4063 4.35683 50.6789 3.87372 50.6789 3.22089H48.9571ZM48.1216 5.15685L46.4298 5.47721L48.2435 15.0551L49.9352 14.7348L51.627 14.4144L49.8133 4.8365L48.1216 5.15685ZM51.7351 9.00839L52.4632 10.5687L52.4788 10.5614L52.4942 10.5538L51.7351 9.00839ZM55.2198 7.2966L55.979 8.84207L55.9898 8.83665L55.2198 7.2966ZM54.1805 6.39994V4.67811C53.7783 4.67811 53.5569 4.55224 53.4567 4.46219C53.3625 4.3775 53.3143 4.27569 53.3143 4.13793H51.5924H49.8706C49.8706 6.5204 51.858 8.12177 54.1805 8.12177V6.39994ZM51.5924 4.13793H53.3143C53.3143 4.00272 53.3602 3.90958 53.4487 3.83102C53.5458 3.7448 53.7688 3.61812 54.1805 3.61812V1.89629V0.174459C51.8794 0.174459 49.8706 1.73634 49.8706 4.13793H51.5924ZM54.1805 1.89629V3.61812C54.5922 3.61812 54.8152 3.7448 54.9123 3.83102C55.0008 3.90958 55.0467 4.00272 55.0467 4.13793H56.7686H58.4904C58.4904 1.73634 56.4816 0.174459 54.1805 0.174459V1.89629ZM56.7686 4.13793H55.0467C55.0467 4.27569 54.9985 4.3775 54.9043 4.46219C54.8041 4.55224 54.5827 4.67811 54.1805 4.67811V6.39994V8.12177C56.503 8.12177 58.4904 6.5204 58.4904 4.13793H56.7686ZM51.7351 17.1802V15.4583C51.8728 15.4583 52.1689 15.495 52.4643 15.7397C52.7946 16.0134 52.9474 16.4049 52.9474 16.7522H51.2256H49.5038C49.5038 17.3645 49.7585 17.97 50.2672 18.3914C50.7408 18.7838 51.2917 18.902 51.7351 18.902V17.1802ZM51.2256 16.7522H52.9474V16.6707H51.2256H49.5038V16.7522H51.2256ZM51.2256 16.6707H52.9474C52.9474 16.9207 52.8569 17.0869 52.8401 17.1154C52.8351 17.1239 52.8406 17.1134 52.8752 17.0665C52.9447 16.9724 52.92 17.0086 53.0238 16.8694C53.3026 16.4955 53.783 15.7968 53.783 14.7348H52.0611H50.3393C50.3393 14.7378 50.3392 14.7292 50.3427 14.7132C50.3461 14.6974 50.3507 14.685 50.3532 14.6792C50.355 14.6751 50.3452 14.7009 50.2629 14.8112C50.2207 14.8679 50.0137 15.1285 49.8722 15.3688C49.6988 15.6636 49.5038 16.1049 49.5038 16.6707H51.2256ZM52.0611 14.7348H53.783V11.4538H52.0611H50.3393V14.7348H52.0611ZM52.0611 11.4538H53.783C53.783 10.391 53.3039 9.69096 53.0053 9.30493C52.9583 9.24419 52.8563 9.11666 52.8441 9.10108C52.8047 9.051 52.7987 9.04064 52.8038 9.04859C52.8157 9.06714 52.9474 9.27366 52.9474 9.59937H51.2256H49.5038C49.5038 10.2002 49.7399 10.6513 49.9085 10.9131C50.0397 11.1168 50.2593 11.3833 50.2815 11.412C50.3541 11.5059 50.36 11.526 50.3551 11.5148C50.3514 11.5064 50.3463 11.4926 50.3428 11.4761C50.3392 11.4595 50.3393 11.4507 50.3393 11.4538H52.0611ZM51.2256 9.59937H52.9474V9.51785H51.2256H49.5038V9.59937H51.2256ZM51.2256 9.51785H52.9474C52.9474 9.70799 52.9049 9.9185 52.8043 10.1211C52.7081 10.3149 52.5881 10.4424 52.5073 10.5139C52.4674 10.5492 52.4342 10.5735 52.4135 10.5877C52.3928 10.6019 52.3797 10.6094 52.3783 10.6102C52.3768 10.611 52.3822 10.6079 52.3976 10.6002C52.4129 10.5925 52.4338 10.5824 52.4632 10.5687L51.7351 9.00839L51.0069 7.4481C50.8658 7.51397 50.5231 7.67109 50.2241 7.93597C49.8406 8.27559 49.5038 8.81102 49.5038 9.51785H51.2256ZM51.7351 9.00839L52.4942 10.5538L55.979 8.84203L55.2198 7.2966L54.4606 5.75116L50.9759 7.46296L51.7351 9.00839ZM55.2198 7.2966L55.9898 8.83665C55.91 8.87656 55.5139 9.01217 55.0593 8.73802C54.6525 8.49275 54.4965 8.08736 54.4965 7.7653H56.2183H57.9402C57.9402 7.03568 57.5906 6.2431 56.8374 5.78894C56.0363 5.30592 55.1409 5.41096 54.4498 5.75655L55.2198 7.2966ZM56.2183 7.7653H54.4965V14.7348H56.2183H57.9402V7.7653H56.2183ZM56.2183 14.7348H54.4965C54.4965 15.8624 55.0674 16.5875 55.3663 16.9449C55.4816 17.0829 55.4556 17.0486 55.5331 17.1422C55.5726 17.1898 55.5786 17.2003 55.5724 17.1909C55.5548 17.1642 55.4339 16.9712 55.4339 16.6707H57.1558H58.8776C58.8776 16.0543 58.6395 15.5862 58.4462 15.2934C58.287 15.0524 58.0554 14.7925 58.0078 14.7356C57.838 14.5326 57.9402 14.6057 57.9402 14.7348H56.2183ZM57.1558 16.6707H55.4339V16.7522H57.1558H58.8776V16.6707H57.1558ZM57.1558 16.7522H55.4339C55.4339 16.4049 55.5868 16.0134 55.9171 15.7397C56.2124 15.495 56.5086 15.4583 56.6463 15.4583V17.1802V18.902C57.0897 18.902 57.6406 18.7838 58.1142 18.3914C58.6228 17.97 58.8776 17.3645 58.8776 16.7522H57.1558ZM56.6463 17.1802V15.4583H51.7351V17.1802V18.902H56.6463V17.1802ZM69.0797 14.7551L67.3632 14.8896L67.3636 14.8952L69.0797 14.7551ZM65.0244 14.7551L63.3054 14.8545L63.3058 14.8604L65.0244 14.7551ZM64.8206 11.2297L63.1013 11.3221L63.1017 11.329L64.8206 11.2297ZM58.0346 8.86574L57.2685 7.32373L57.2462 7.33479L57.2243 7.34648L58.0346 8.86574ZM61.234 7.27622L62.0001 8.81823L62.0134 8.81162L62.0266 8.80478L61.234 7.27622ZM62.0695 8.64158H60.3477V15.1871L63.5685 9.48882L62.0695 8.64158ZM68.8148 11.3723L70.5314 11.2379L70.5311 11.2337L68.8148 11.3723ZM69.0797 14.7551L67.3636 14.8952C67.4377 15.8029 67.7922 16.4096 68.0125 16.766C68.0712 16.861 68.0935 16.8953 68.1249 16.9477C68.1499 16.9896 68.1543 17.0001 68.1512 16.9935C68.138 16.9653 68.0915 16.851 68.0915 16.6911H69.8134H71.5352C71.5352 15.7808 71.0236 15.0878 70.9417 14.9553C70.8156 14.7514 70.8033 14.7059 70.7959 14.615L69.0797 14.7551ZM69.8134 16.6911H68.0915V16.7726H69.8134H71.5352V16.6911H69.8134ZM69.8134 16.7726H68.0915C68.0915 16.4253 68.2444 16.0338 68.5747 15.7601C68.87 15.5154 69.1662 15.4787 69.3039 15.4787V17.2006V18.9224C69.7473 18.9224 70.2982 18.8042 70.7718 18.4118C71.2804 17.9903 71.5352 17.3848 71.5352 16.7726H69.8134ZM69.3039 17.2006V15.4787H64.8002V17.2006V18.9224H69.3039V17.2006ZM64.8002 17.2006V15.4787C64.938 15.4787 65.2341 15.5154 65.5294 15.7601C65.8598 16.0338 66.0126 16.4253 66.0126 16.7726H64.2908H62.569C62.569 17.3848 62.8237 17.9903 63.3323 18.4118C63.806 18.8042 64.3568 18.9224 64.8002 18.9224V17.2006ZM64.2908 16.7726H66.0126V16.6911H64.2908H62.569V16.7726H64.2908ZM64.2908 16.6911H66.0126C66.0126 16.9198 65.9337 17.0725 65.921 17.0953C65.9181 17.1006 65.9247 17.0881 65.9588 17.0383C65.9756 17.0138 65.9934 16.9884 66.019 16.952C66.0425 16.9184 66.0723 16.8759 66.1031 16.8306C66.3802 16.4243 66.8079 15.7092 66.743 14.6499L65.0244 14.7551L63.3058 14.8604C63.3059 14.8626 63.3066 14.8309 63.3199 14.7949C63.3268 14.7761 63.3262 14.7905 63.2579 14.8907C63.2305 14.9308 63.0324 15.2027 62.907 15.4297C62.7472 15.7188 62.569 16.1465 62.569 16.6911H64.2908ZM65.0244 14.7551L66.7434 14.6558L66.5396 11.1303L64.8206 11.2297L63.1017 11.329L63.3055 14.8545L65.0244 14.7551ZM64.8206 11.2297L66.54 11.1372C66.4909 10.2243 66.4083 9.29393 66.1073 8.57803C65.9365 8.17161 65.6505 7.71849 65.1596 7.38694C64.6639 7.05216 64.136 6.9605 63.6998 6.9605V8.68234V10.4042C63.661 10.4042 63.4592 10.394 63.2322 10.2407C63.01 10.0907 62.9355 9.91904 62.9328 9.91256C62.9318 9.91033 62.9425 9.93563 62.9585 10.0011C62.9744 10.0658 62.9924 10.1565 63.0105 10.2805C63.0472 10.5328 63.0769 10.8695 63.1013 11.3221L64.8206 11.2297ZM63.6998 8.68234V6.9605C63.2346 6.9605 62.7501 7.0742 62.3094 7.35481C61.8751 7.63138 61.5844 8.00557 61.3957 8.37088C61.0463 9.04715 60.9794 9.82031 60.9794 10.4349H62.7013H64.4231C64.4231 10.2367 64.4358 10.0954 64.4517 10.002C64.4683 9.90415 64.4812 9.90107 64.4551 9.95159C64.4243 10.0112 64.3375 10.146 64.1592 10.2595C63.9745 10.3771 63.7982 10.4042 63.6998 10.4042V8.68234ZM62.7013 10.4349H60.9794V14.7551H62.7013H64.4231V10.4349H62.7013ZM62.7013 14.7551H60.9794C60.9794 15.8827 61.5503 16.6079 61.8492 16.9653C61.9646 17.1033 61.9386 17.069 62.0161 17.1626C62.0555 17.2102 62.0615 17.2206 62.0553 17.2113C62.0377 17.1846 61.9168 16.9916 61.9168 16.6911H63.6387H65.3605C65.3605 16.0747 65.1224 15.6066 64.9291 15.3138C64.7699 15.0727 64.5383 14.8129 64.4907 14.756C64.3209 14.553 64.4231 14.6261 64.4231 14.7551H62.7013ZM63.6387 16.6911H61.9168V16.7726H63.6387H65.3605V16.6911H63.6387ZM63.6387 16.7726H61.9168C61.9168 16.4253 62.0697 16.0338 62.4 15.7601C62.6953 15.5154 62.9915 15.4787 63.1292 15.4787V17.2006V18.9224C63.5726 18.9224 64.1235 18.8042 64.5971 18.4118C65.1058 17.9903 65.3605 17.3848 65.3605 16.7726H63.6387ZM63.1292 17.2006V15.4787H58.218V17.2006V18.9224H63.1292V17.2006ZM58.218 17.2006V15.4787C58.3557 15.4787 58.6519 15.5154 58.9472 15.7601C59.2775 16.0338 59.4304 16.4253 59.4304 16.7726H57.7085H55.9867C55.9867 17.3848 56.2414 17.9903 56.7501 18.4118C57.2237 18.8042 57.7746 18.9224 58.218 18.9224V17.2006ZM57.7085 16.7726H59.4304V16.6911H57.7085H55.9867V16.7726H57.7085ZM57.7085 16.6911H59.4304C59.4304 16.9916 59.3095 17.1846 59.2919 17.2113C59.2857 17.2206 59.2917 17.2102 59.3311 17.1626C59.4086 17.069 59.3826 17.1033 59.498 16.9653C59.7969 16.6079 60.3678 15.8827 60.3678 14.7551H58.6459H56.9241C56.9241 14.6261 57.0262 14.553 56.8565 14.756C56.8089 14.8129 56.5773 15.0727 56.4181 15.3138C56.2248 15.6066 55.9867 16.0747 55.9867 16.6911H57.7085ZM58.6459 14.7551H60.3678V11.3112H58.6459H56.9241V14.7551H58.6459ZM58.6459 11.3112H60.3678C60.3678 10.0137 59.5564 9.27477 59.2092 8.97096C59.0628 8.84288 59.1033 8.88148 59.0066 8.79596C58.9594 8.75426 58.9592 8.75076 58.9759 8.76977C59.0163 8.81563 59.2266 9.07567 59.2266 9.49748H57.5047H55.7829C55.7829 10.2351 56.1359 10.755 56.3902 11.0441C56.5959 11.2781 56.8936 11.5207 56.9415 11.5626C57.1649 11.758 56.9241 11.6101 56.9241 11.3112H58.6459ZM57.5047 9.49748H59.2266V9.41596H57.5047H55.7829V9.49748H57.5047ZM57.5047 9.41596H59.2266C59.2266 9.60592 59.1832 9.81521 59.0827 10.015C58.9875 10.2042 58.8711 10.3252 58.8011 10.3876C58.7362 10.4455 58.6923 10.4695 58.7109 10.4584C58.7301 10.4468 58.7617 10.4294 58.8449 10.385L58.0346 8.86574L57.2243 7.34648C57.1262 7.39878 56.7888 7.56805 56.509 7.81765C56.1369 8.1495 55.7829 8.68545 55.7829 9.41596H57.5047ZM58.0346 8.86574L58.8007 10.4078L62.0001 8.81823L61.234 7.27622L60.4679 5.73421L57.2685 7.32373L58.0346 8.86574ZM61.234 7.27622L62.0266 8.80478C61.9752 8.83141 61.807 8.90674 61.5493 8.89964C61.2703 8.89197 60.9912 8.78909 60.7678 8.6063C60.3712 8.28179 60.3477 7.90067 60.3477 7.80606H62.0695H63.7914C63.7914 7.2835 63.6253 6.49481 62.9484 5.94105C62.1236 5.26621 61.1306 5.39032 60.4414 5.74765L61.234 7.27622ZM62.0695 7.80606H60.3477V8.64158H62.0695H63.7914V7.80606H62.0695ZM62.0695 8.64158L63.5685 9.48882C63.7206 9.21971 64.0564 8.91654 64.9225 8.91654V7.19471V5.47287C63.1394 5.47287 61.4781 6.18863 60.5706 7.79434L62.0695 8.64158ZM64.9225 7.19471V8.91654C65.4936 8.91654 65.9529 9.06546 66.2784 9.3498C66.5844 9.61719 66.9924 10.196 67.0986 11.5109L68.8148 11.3723L70.5311 11.2337C70.3723 9.2677 69.69 7.75767 68.5441 6.75649C67.4176 5.77227 66.0632 5.47287 64.9225 5.47287V7.19471ZM68.8148 11.3723L67.0982 11.5067L67.3632 14.8896L69.0797 14.7551L70.7963 14.6207L70.5314 11.2379L68.8148 11.3723ZM80.2666 14.7959L78.5598 15.0228L78.5603 15.0265L80.2666 14.7959ZM76.6188 16.4058L78.2763 15.9396L77.3738 12.7307L75.2793 15.3239L76.6188 16.4058ZM75.8444 11.5965L75.0032 13.0988L77.8986 14.7202L77.5571 11.4193L75.8444 11.5965ZM79.7979 11.2704L78.0907 11.4943L78.0911 11.4973L79.7979 11.2704ZM76.1501 14.9182L77.8676 14.7955L77.8667 14.7838L77.8657 14.7722L76.1501 14.9182ZM76.0686 13.9604L77.7842 13.8144L77.7811 13.7771L77.7763 13.74L76.0686 13.9604ZM80.2666 14.7959L78.5603 15.0265C78.6318 15.5562 78.7692 16.0293 78.9941 16.4452C79.2294 16.8802 79.5148 17.1676 79.7611 17.3663C79.8631 17.4486 79.9712 17.5245 79.9941 17.5411C80.0427 17.5762 79.9949 17.5453 79.9329 17.4846C79.8554 17.4087 79.74 17.2736 79.6531 17.0749C79.5658 16.8754 79.5433 16.6943 79.5433 16.5688H81.2651H82.987C82.987 16.2956 82.9396 15.9954 82.8081 15.6947C82.6769 15.3949 82.4978 15.1765 82.3426 15.0245C82.203 14.8877 82.0634 14.7878 82.0118 14.7504C81.9695 14.7199 81.9653 14.7172 81.9424 14.7004C81.9353 14.6952 81.9307 14.6918 81.9276 14.6894C81.9245 14.687 81.9233 14.6861 81.9235 14.6862C81.9456 14.7041 81.9941 14.7532 82.023 14.8068C82.0417 14.8412 82.0032 14.7896 81.9729 14.5653L80.2666 14.7959ZM81.2651 16.5688H79.5433C79.5433 16.2947 79.6272 16.039 79.7594 15.8346C79.8809 15.6469 80.0152 15.544 80.0818 15.4996C80.1935 15.4253 80.2254 15.4412 80.0642 15.4775C79.7671 15.5443 79.2831 15.5806 78.7178 15.5806V17.3024V19.0243C79.3548 19.0243 80.1445 18.9892 80.8205 18.837C81.1458 18.7638 81.5892 18.6332 81.9906 18.3659C82.422 18.0786 82.987 17.4911 82.987 16.5688H81.2651ZM78.7178 17.3024V15.5806C78.4406 15.5806 78.2401 15.5673 78.0974 15.5479C77.9522 15.5282 77.9051 15.5071 77.9162 15.5118C77.9365 15.5203 78.0246 15.5628 78.1188 15.6672C78.2156 15.7744 78.26 15.8816 78.2763 15.9396L76.6188 16.4058L74.9613 16.872C75.2025 17.7297 75.7843 18.3506 76.5798 18.6856C77.2465 18.9663 78.0102 19.0243 78.7178 19.0243V17.3024ZM76.6188 16.4058L75.2793 15.3239C75.2402 15.3723 75.1638 15.4466 75.0076 15.5145C74.8469 15.5844 74.5667 15.6621 74.1123 15.6621V17.384V19.1058C75.8429 19.1058 77.1487 18.49 77.9583 17.4877L76.6188 16.4058ZM74.1123 17.384V15.6621C73.2599 15.6621 72.6903 15.4647 72.3814 15.2392C72.1436 15.0656 71.9622 14.8165 71.9622 14.2864H70.2403H68.5185C68.5185 15.8757 69.193 17.1753 70.3511 18.0207C71.4381 18.8141 72.8045 19.1058 74.1123 19.1058V17.384ZM70.2403 14.2864H71.9622C71.9622 13.7907 72.1453 13.5032 72.4103 13.2972C72.7222 13.0548 73.2381 12.87 73.8881 12.87V11.1481V9.42631C72.6429 9.42631 71.335 9.77136 70.2968 10.5784C69.2117 11.4219 68.5185 12.7036 68.5185 14.2864H70.2403ZM73.8881 11.1481V12.87C74.4505 12.87 74.8 12.985 75.0032 13.0988L75.8444 11.5965L76.6857 10.0942C75.8699 9.6373 74.9152 9.42631 73.8881 9.42631V11.1481ZM75.8444 11.5965L77.5571 11.4193C77.4477 10.3615 77.3658 9.3007 77.1644 8.57732C77.0561 8.18808 76.8523 7.64156 76.3889 7.199C75.8632 6.69692 75.2263 6.53256 74.6625 6.53256V8.25439V9.97622C74.5572 9.97622 74.2667 9.93412 74.0104 9.68932C73.8164 9.50404 73.8049 9.34981 73.8469 9.5006C73.8846 9.63637 73.9268 9.87024 73.9759 10.2811C74.0244 10.6877 74.0679 11.1568 74.1318 11.7736L75.8444 11.5965ZM74.6625 8.25439V6.53256C74.1403 6.53256 73.6512 6.69747 73.2458 7.00613C72.8742 7.28909 72.65 7.63374 72.5147 7.88785C72.2886 8.3125 72.1087 8.9287 72.0466 9.10867C71.9334 9.43654 71.878 9.4958 71.8912 9.48133C71.9816 9.38262 72.1072 9.36517 72.0744 9.36517V11.087V12.8088C73.0503 12.8088 73.8535 12.4373 74.4305 11.8075C74.9303 11.2619 75.1703 10.613 75.3017 10.2327C75.3376 10.1287 75.3708 10.0271 75.3988 9.94141C75.4283 9.85101 75.4519 9.77894 75.4752 9.71127C75.4981 9.64476 75.5162 9.59597 75.5313 9.55875C75.5386 9.54074 75.5443 9.52758 75.5486 9.51842C75.5528 9.50923 75.5548 9.50548 75.5544 9.50612C75.5541 9.50674 75.5506 9.51328 75.5436 9.52436C75.5365 9.53545 75.5251 9.55253 75.5085 9.57378C75.4756 9.616 75.4186 9.68003 75.3318 9.74607C75.1299 9.89983 74.8841 9.97622 74.6625 9.97622V8.25439ZM72.0744 11.087V9.36517C71.9476 9.36517 71.9825 9.32963 72.0691 9.40845C72.1101 9.44572 72.1441 9.49363 72.1654 9.54383C72.1865 9.59317 72.1863 9.62328 72.1863 9.61975H70.4645H68.7427C68.7427 10.5083 69.0854 11.3494 69.7515 11.9555C70.4036 12.5489 71.2434 12.8088 72.0744 12.8088V11.087ZM70.4645 9.61975H72.1863C72.1863 9.53436 72.2032 9.51962 72.2112 9.50901C72.2355 9.47655 72.3201 9.38646 72.5413 9.28084C73.0109 9.05657 73.7714 8.91654 74.6625 8.91654V7.19471V5.47287C73.5157 5.47287 72.1772 5.63852 71.0573 6.17335C69.8749 6.73803 68.7427 7.8439 68.7427 9.61975H70.4645ZM74.6625 7.19471V8.91654C76.748 8.91654 77.8964 10.0132 78.0907 11.4943L79.7979 11.2704L81.5051 11.0465C81.0472 7.55527 78.1606 5.47287 74.6625 5.47287V7.19471ZM79.7979 11.2704L78.0911 11.4973L78.5598 15.0228L80.2666 14.7959L81.9734 14.569L81.5047 11.0435L79.7979 11.2704ZM75.4165 16.2428V17.9646C76.6519 17.9646 77.3005 17.0421 77.5417 16.54C77.8072 15.9874 77.9074 15.3535 77.8676 14.7955L76.1501 14.9182L74.4327 15.0408C74.4319 15.0306 74.4333 15.0412 74.4295 15.0619C74.4256 15.0837 74.423 15.0793 74.4376 15.0489C74.4488 15.0255 74.5051 14.9132 74.6517 14.7915C74.8182 14.6532 75.0852 14.5209 75.4165 14.5209V16.2428ZM76.1501 14.9182L77.8657 14.7722L77.7842 13.8144L76.0686 13.9604L74.353 14.1064L74.4345 15.0642L76.1501 14.9182ZM76.0686 13.9604L77.7763 13.74C77.6762 12.9648 77.465 12.2372 77.0477 11.6612C76.5871 11.0254 75.8866 10.6083 75.0701 10.6083V12.3301V14.0519C74.8865 14.0519 74.702 14.0062 74.5406 13.918C74.3833 13.832 74.2956 13.732 74.259 13.6816C74.2254 13.6351 74.237 13.634 74.2655 13.7193C74.2937 13.8034 74.3312 13.9504 74.3609 14.1807L76.0686 13.9604ZM75.0701 12.3301V10.6083C74.1064 10.6083 73.4387 11.1912 73.0943 11.7652C72.7659 12.3126 72.6554 12.9356 72.6554 13.4917H74.3772H76.099C76.099 13.3548 76.1311 13.3971 76.0472 13.5369C76.0008 13.6143 75.9043 13.7431 75.7298 13.8568C75.5448 13.9773 75.3143 14.0519 75.0701 14.0519V12.3301ZM74.3772 13.4917H72.6554C72.6554 14.3392 72.7579 15.2354 73.0187 15.984C73.1475 16.3535 73.3513 16.7941 73.6906 17.1711C74.0518 17.5724 74.6351 17.9646 75.4165 17.9646V16.2428V14.5209C75.8616 14.5209 76.1469 14.7526 76.2502 14.8674C76.3316 14.9578 76.3176 14.9857 76.2706 14.8508C76.1799 14.5907 76.099 14.1114 76.099 13.4917H74.3772ZM82.2365 8.92688H83.9583V7.20505H82.2365V8.92688ZM84.6411 5.31988L86.3131 5.73103L86.3152 5.72265L86.3172 5.71425L84.6411 5.31988ZM86.3937 7.39849H84.6718V9.12032H86.3937V7.39849ZM86.3937 8.92688V7.20505H84.6718V8.92688H86.3937ZM88.513 13.7973L87.2261 12.6534L87.2158 12.665L87.2057 12.6768L88.513 13.7973ZM85.7416 17.384V15.6621C85.0697 15.6621 84.69 15.4539 84.4639 15.2071C84.2215 14.9425 83.9583 14.4154 83.9583 13.4305H82.2365H80.5146C80.5146 15.0133 80.9443 16.463 81.9246 17.5332C82.9212 18.6211 84.2941 19.1058 85.7416 19.1058V17.384ZM82.2365 13.4305H83.9583V8.92688H82.2365H80.5146V13.4305H82.2365ZM82.2365 8.92688V7.20505H81.6251V8.92688V10.6487H82.2365V8.92688ZM81.6251 8.92688V7.20505C82.2907 7.20505 82.8375 7.75177 82.8375 8.41742H81.1156H79.3938C79.3938 9.65366 80.3889 10.6487 81.6251 10.6487V8.92688ZM81.1156 8.41742H82.8375V7.90795H81.1156H79.3938V8.41742H81.1156ZM81.1156 7.90795H82.8375C82.8375 8.1464 82.7505 8.4789 82.4733 8.75611C82.196 9.03333 81.8635 9.12032 81.6251 9.12032V7.39849V5.67666C81.081 5.67666 80.4937 5.86555 80.0382 6.32107C79.5827 6.7766 79.3938 7.36383 79.3938 7.90795H81.1156ZM81.6251 7.39849V9.12032H81.9104V7.39849V5.67666H81.6251V7.39849ZM81.9104 7.39849V9.12032C83.9847 9.12032 85.8082 7.78464 86.3131 5.73103L84.6411 5.31988L82.9691 4.90873C82.8627 5.3413 82.4853 5.67666 81.9104 5.67666V7.39849ZM84.6411 5.31988L86.3172 5.71425C86.2709 5.91088 85.9845 6.47111 85.2525 6.47111V4.74928V3.02745C83.9498 3.02745 83.1743 4.03602 82.9651 4.92552L84.6411 5.31988ZM85.2525 4.74928V6.47111H85.8027V4.74928V3.02745H85.2525V4.74928ZM85.8027 4.74928V6.47111C85.6026 6.47111 85.3034 6.40149 85.0414 6.15224C84.7702 5.89426 84.6718 5.56924 84.6718 5.31988H86.3937H88.1155C88.1155 4.72408 87.8949 4.11377 87.4148 3.6571C86.9439 3.20916 86.3492 3.02745 85.8027 3.02745V4.74928ZM86.3937 5.31988H84.6718V7.39849H86.3937H88.1155V5.31988H86.3937ZM86.3937 7.39849V9.12032H88.3092V7.39849V5.67666H86.3937V7.39849ZM88.3092 7.39849V9.12032C87.6436 9.12032 87.0969 8.5736 87.0969 7.90795H88.8187H90.5405C90.5405 6.67171 89.5455 5.67666 88.3092 5.67666V7.39849ZM88.8187 7.90795H87.0969V8.41742H88.8187H90.5405V7.90795H88.8187ZM88.8187 8.41742H87.0969C87.0969 7.75177 87.6436 7.20505 88.3092 7.20505V8.92688V10.6487C89.5455 10.6487 90.5405 9.65366 90.5405 8.41742H88.8187ZM88.3092 8.92688V7.20505H86.3937V8.92688V10.6487H88.3092V8.92688ZM86.3937 8.92688H84.6718V13.512H86.3937H88.1155V8.92688H86.3937ZM86.3937 13.512H84.6718C84.6718 14.899 85.6804 16.1713 87.2292 16.1713V14.4495V12.7276C87.4621 12.7276 87.7167 12.8271 87.9016 13.0277C88.0824 13.2237 88.1155 13.4243 88.1155 13.512H86.3937ZM87.2292 14.4495V16.1713C87.9125 16.1713 88.5031 15.9971 88.9999 15.6745C89.4438 15.3862 89.7385 15.0134 89.8203 14.9179L88.513 13.7973L87.2057 12.6768C87.1968 12.6872 87.1881 12.6973 87.1804 12.7064C87.1723 12.7159 87.1653 12.7241 87.1583 12.7323C87.1443 12.7487 87.1331 12.7616 87.1229 12.7732C87.1026 12.7965 87.0912 12.8087 87.0847 12.8153C87.0732 12.827 87.0882 12.8098 87.1244 12.7863C87.1424 12.7746 87.1628 12.7632 87.1848 12.7531C87.2068 12.743 87.2266 12.736 87.2425 12.7315C87.2757 12.7221 87.2767 12.7276 87.2292 12.7276V14.4495ZM88.513 13.7973L89.7999 14.9413C89.6006 15.1656 89.1717 15.4057 88.6253 15.2691C88.3597 15.2027 88.092 15.0464 87.8918 14.7912C87.6874 14.5306 87.6063 14.2347 87.6063 13.9807H89.3282H91.05C91.05 12.9805 90.3838 12.1591 89.4605 11.9282C88.588 11.7101 87.7516 12.0623 87.2261 12.6534L88.513 13.7973ZM89.3282 13.9807H87.6063C87.6063 14.3894 87.4515 14.8149 87.1651 15.1244C86.9056 15.4049 86.4736 15.6621 85.7416 15.6621V17.384V19.1058C89.2004 19.1058 91.05 16.4335 91.05 13.9807H89.3282ZM97.9505 13.8789L96.733 12.6613V12.6613L97.9505 13.8789ZM97.7875 11.1074L96.8491 9.66372L96.8471 9.665L97.7875 11.1074ZM94.099 13.512L93.1586 12.0697L91.5874 13.094L92.7421 14.5721L94.099 13.512ZM93.508 12.3708L91.8843 12.9439L92.6567 15.1323L94.5272 13.7586L93.508 12.3708ZM94.8122 11.4131L95.8314 12.8009L95.8384 12.7957L95.8453 12.7905L94.8122 11.4131ZM97.9505 13.8789L99.168 15.0964C98.8946 15.3698 98.4115 15.5473 97.8949 15.3669C97.3102 15.1627 97.0234 14.6235 97.0234 14.1845H98.7453H100.467C100.467 13.2769 99.9358 12.432 99.0302 12.1157C98.1925 11.8232 97.3121 12.0822 96.733 12.6613L97.9505 13.8789ZM98.7453 14.1845H97.0234C97.0234 14.1254 96.9749 14.5032 96.5058 14.9501C96.1062 15.3306 95.489 15.6621 94.6084 15.6621V17.384V19.1058C96.4382 19.1058 97.8895 18.3878 98.8807 17.4438C99.8024 16.566 100.467 15.3442 100.467 14.1845H98.7453ZM94.6084 17.384V15.6621C93.4933 15.6621 92.6723 15.288 92.1332 14.7459C91.5937 14.2033 91.2153 13.37 91.2153 12.2282H89.4934H87.7716C87.7716 14.1635 88.4325 15.9081 89.6913 17.1741C90.9507 18.4406 92.6872 19.1058 94.6084 19.1058V17.384ZM89.4934 12.2282H91.2153C91.2153 10.2214 92.7469 8.91654 94.5473 8.91654V7.19471V5.47287C91.0493 5.47287 87.7716 8.12148 87.7716 12.2282H89.4934ZM94.5473 7.19471V8.91654C95.5882 8.91654 96.1636 9.19907 96.443 9.42657C96.7328 9.66246 96.7585 9.86907 96.7585 9.90505H98.4804H100.202C100.202 7.41756 97.861 5.47287 94.5473 5.47287V7.19471ZM98.4804 9.90505H96.7585C96.7585 9.89207 96.7605 9.86227 96.7718 9.82186C96.7832 9.78133 96.8004 9.74317 96.8203 9.71079C96.8597 9.6469 96.8885 9.63811 96.8491 9.66372L97.7875 11.1074L98.7259 12.551C99.4969 12.0499 100.202 11.1731 100.202 9.90505H98.4804ZM97.7875 11.1074L96.8471 9.665L93.1586 12.0697L94.099 13.512L95.0393 14.9544L98.7278 12.5498L97.7875 11.1074ZM94.099 13.512L92.7421 14.5721C93.5527 15.6095 94.7316 16.2528 96.1368 16.2528V14.531V12.8091C95.8711 12.8091 95.6642 12.7188 95.4558 12.452L94.099 13.512ZM96.1368 14.531V16.2528C96.7266 16.2528 97.2973 16.1293 97.783 15.9481C98.2489 15.7743 98.7652 15.4992 99.168 15.0964L97.9505 13.8789L96.733 12.6613C96.7713 12.623 96.782 12.6228 96.7434 12.6457C96.709 12.6661 96.6535 12.694 96.5795 12.7216C96.4233 12.7798 96.2603 12.8091 96.1368 12.8091V14.531ZM94.2212 8.29514V6.57331C93.1054 6.57331 92.3507 7.25905 91.958 7.90464C91.5747 8.53468 91.4194 9.27304 91.4194 9.9458H93.1412H94.863C94.863 9.86591 94.8728 9.79635 94.8858 9.74441C94.8993 9.69026 94.9108 9.67666 94.9001 9.69438C94.89 9.71098 94.8391 9.78911 94.7191 9.86852C94.5867 9.95613 94.4106 10.017 94.2212 10.017V8.29514ZM93.1412 9.9458H91.4194C91.4194 11.0092 91.5603 12.0259 91.8843 12.9439L93.508 12.3708L95.1317 11.7978C94.9666 11.33 94.863 10.7165 94.863 9.9458H93.1412ZM93.508 12.3708L94.5272 13.7586L95.8314 12.8009L94.8122 11.4131L93.7931 10.0253L92.4888 10.983L93.508 12.3708ZM94.8122 11.4131L95.8453 12.7905C96.6477 12.1887 97.0639 11.2268 97.0639 10.2922H95.3421H93.6202C93.6202 10.2585 93.6272 10.2261 93.6433 10.192C93.6589 10.1591 93.6962 10.0978 93.7791 10.0356L94.8122 11.4131ZM95.3421 10.2922H97.0639C97.0639 9.90108 97.0145 9.17234 96.753 8.47514C96.5081 7.82214 95.7994 6.57331 94.2212 6.57331V8.29514V10.017C94.1214 10.017 94.0025 9.99717 93.8812 9.94653C93.7622 9.89685 93.6733 9.83119 93.6138 9.77455C93.5086 9.67454 93.5009 9.61041 93.5286 9.68429C93.552 9.74673 93.5781 9.84856 93.5967 9.98049C93.6149 10.1085 93.6202 10.2238 93.6202 10.2922H95.3421ZM99.6685 3.54695L100.397 5.10725L100.412 5.09997L100.428 5.09239L99.6685 3.54695ZM103.153 1.83516L103.912 3.38063L103.923 3.37521L103.153 1.83516ZM99.6685 17.1802V15.4583C99.8062 15.4583 100.102 15.495 100.398 15.7397C100.728 16.0134 100.881 16.4049 100.881 16.7522H99.159H97.4372C97.4372 17.3645 97.692 17.97 98.2006 18.3914C98.6742 18.7838 99.2251 18.902 99.6685 18.902V17.1802ZM99.159 16.7522H100.881V16.6707H99.159H97.4372V16.7522H99.159ZM99.159 16.6707H100.881C100.881 16.9207 100.79 17.0869 100.774 17.1154C100.769 17.1239 100.774 17.1134 100.809 17.0665C100.878 16.9724 100.853 17.0086 100.957 16.8694C101.236 16.4955 101.716 15.7968 101.716 14.7348H99.9946H98.2727C98.2727 14.7378 98.2726 14.7292 98.2761 14.7132C98.2795 14.6974 98.2841 14.685 98.2867 14.6792C98.2885 14.6751 98.2786 14.7009 98.1963 14.8112C98.1541 14.8679 97.9471 15.1285 97.8057 15.3688C97.6322 15.6636 97.4372 16.1049 97.4372 16.6707H99.159ZM99.9946 14.7348H101.716V5.99237H99.9946H98.2727V14.7348H99.9946ZM99.9946 5.99237H101.716C101.716 4.92958 101.237 4.22952 100.939 3.84349C100.892 3.78275 100.79 3.65522 100.777 3.63964C100.738 3.58956 100.732 3.5792 100.737 3.58715C100.749 3.6057 100.881 3.81222 100.881 4.13793H99.159H97.4372C97.4372 4.73874 97.6734 5.18981 97.842 5.45163C97.9732 5.65538 98.1927 5.92188 98.2149 5.95057C98.2876 6.04448 98.2934 6.06453 98.2885 6.05331C98.2848 6.04494 98.2798 6.03111 98.2762 6.01465C98.2726 5.99804 98.2727 5.98927 98.2727 5.99237H99.9946ZM99.159 4.13793H100.881V4.05641H99.159H97.4372V4.13793H99.159ZM99.159 4.05641H100.881C100.881 4.24655 100.838 4.45706 100.738 4.65964C100.642 4.85343 100.522 4.98092 100.441 5.05241C100.401 5.0878 100.368 5.11205 100.347 5.12626C100.326 5.14047 100.313 5.14793 100.312 5.14873C100.31 5.14958 100.316 5.14647 100.331 5.13876C100.346 5.13106 100.367 5.12099 100.397 5.10725L99.6685 3.54695L98.9404 1.98666C98.7992 2.05252 98.4566 2.20965 98.1575 2.47453C97.7741 2.81415 97.4372 3.34958 97.4372 4.05641H99.159ZM99.6685 3.54695L100.428 5.09239L103.912 3.38059L103.153 1.83516L102.394 0.289719L98.9093 2.00151L99.6685 3.54695ZM103.153 1.83516L103.923 3.37521C103.843 3.41512 103.447 3.55072 102.993 3.27658C102.586 3.03131 102.43 2.62591 102.43 2.30386H104.152H105.874C105.874 1.57424 105.524 0.781656 104.771 0.327499C103.97 -0.155523 103.074 -0.0504799 102.383 0.295103L103.153 1.83516ZM104.152 2.30386H102.43V14.7348H104.152H105.874V2.30386H104.152ZM104.152 14.7348H102.43C102.43 15.8624 103.001 16.5875 103.3 16.9449C103.415 17.0829 103.389 17.0486 103.467 17.1422C103.506 17.1898 103.512 17.2003 103.506 17.1909C103.488 17.1642 103.367 16.9712 103.367 16.6707H105.089H106.811C106.811 16.0543 106.573 15.5862 106.38 15.2934C106.22 15.0524 105.989 14.7925 105.941 14.7356C105.771 14.5326 105.874 14.6057 105.874 14.7348H104.152ZM105.089 16.6707H103.367V16.7522H105.089H106.811V16.6707H105.089ZM105.089 16.7522H103.367C103.367 16.4049 103.52 16.0134 103.851 15.7397C104.146 15.495 104.442 15.4583 104.58 15.4583V17.1802V18.902C105.023 18.902 105.574 18.7838 106.048 18.3914C106.556 17.97 106.811 17.3645 106.811 16.7522H105.089ZM104.58 17.1802V15.4583H99.6685V17.1802V18.902H104.58V17.1802Z" fill="#FFF6EF" mask="url(#path-1-outside-1_17104_398)"/>
</svg>
