<svg width="146" height="20" viewBox="0 0 146 20" fill="none" xmlns="http://www.w3.org/2000/svg">
<mask id="path-1-outside-1_17104_397" maskUnits="userSpaceOnUse" x="-0.453125" y="-0.793335" width="146" height="20" fill="black">
<rect fill="white" x="-0.453125" y="-0.793335" width="146" height="20"/>
<path d="M5.68371 17.2067C5.37804 17.2067 5.19463 17.0436 5.19463 16.7787V16.6972C5.19463 16.0655 6.09128 15.7598 6.09128 14.7612V4.44972H5.47993C4.01268 4.44972 3.74775 6.97665 2.68807 6.97665H2.30088C1.91369 6.97665 1.66915 6.73211 1.73028 6.34492L2.13785 3.41041C2.19899 2.92133 2.40277 2.73792 2.89186 2.73792H13.4479C13.937 2.73792 14.1408 2.92133 14.2019 3.41041L14.6095 6.34492C14.6706 6.73211 14.4261 6.97665 14.0389 6.97665H13.6517C12.592 6.97665 12.3271 4.44972 10.8599 4.44972H10.2485V14.7612C10.2485 15.7598 11.1655 16.0655 11.1655 16.6972V16.7787C11.1655 17.0436 10.9617 17.2067 10.6561 17.2067H5.68371ZM21.1926 13.9053C21.4982 13.5997 21.9873 13.7423 21.9873 14.211C21.9873 15.3115 20.5608 17.4105 17.8505 17.4105C14.8141 17.4105 12.7355 15.3318 12.7355 12.2547C12.7355 9.19791 15.1401 7.22119 17.7893 7.22119C20.4997 7.22119 21.7224 8.70883 21.7224 9.93154C21.7224 10.4818 21.4371 10.8689 21.0295 11.1339L17.341 13.5385C17.8505 14.1906 18.5433 14.5575 19.3789 14.5575C20.0921 14.5575 20.8461 14.2518 21.1926 13.9053ZM17.4633 8.32163C16.7908 8.32163 16.3832 9.1164 16.3832 9.97229C16.3832 10.8893 16.5055 11.7045 16.75 12.3973L18.0543 11.4395C18.3803 11.195 18.5841 10.7671 18.5841 10.3187C18.5841 9.74813 18.4211 8.32163 17.4633 8.32163ZM22.9106 17.2067C22.6049 17.2067 22.4011 17.0436 22.4011 16.7787V16.6972C22.4011 16.0655 23.2366 15.7598 23.2366 14.7612V6.01886C23.2366 5.02031 22.4011 4.71464 22.4011 4.16442V4.0829C22.4011 3.83836 22.6049 3.71609 22.9106 3.57344L26.3953 1.86165C27.0066 1.55597 27.3938 1.92278 27.3938 2.33035V14.7612C27.3938 15.7598 28.3312 16.0655 28.3312 16.6972V16.7787C28.3312 17.0436 28.1275 17.2067 27.8218 17.2067H22.9106ZM46.3517 14.7816C46.4333 15.7802 47.0854 16.0858 47.0854 16.7176V16.7991C47.0854 17.064 46.8816 17.227 46.5759 17.227H42.0723C41.7666 17.227 41.5628 17.064 41.5628 16.7991V16.7176C41.5628 16.0858 42.3575 15.7802 42.2964 14.7816L42.0926 11.2561C41.9907 9.38132 41.7054 8.70883 40.9922 8.70883C40.2993 8.70883 40.0344 9.44245 40.0344 10.441C40.0752 10.7059 40.0955 10.9708 40.0955 11.2765V14.7816C40.0955 15.7802 40.8292 16.0858 40.8292 16.7176V16.7991C40.8292 17.064 40.6254 17.227 40.3197 17.227H35.816C35.5104 17.227 35.3066 17.064 35.3066 16.7991V16.7176C35.3066 16.0858 36.0402 15.7802 36.0402 14.7816V10.9912C36.0402 9.40169 35.653 8.70883 34.9398 8.70883C34.145 8.70883 33.8801 9.42207 33.8801 10.4002V14.7816C33.8801 15.7802 34.8175 16.0858 34.8175 16.7176V16.7991C34.8175 17.064 34.6137 17.227 34.308 17.227H29.3968C29.0911 17.227 28.8874 17.064 28.8874 16.7991V16.7176C28.8874 16.0858 29.8248 15.7802 29.8248 14.7816V11.3377C29.8248 10.3391 28.6836 10.1557 28.6836 9.52397V9.44245C28.6836 9.17753 28.9077 9.03488 29.2134 8.89223L32.6574 7.30271C33.2076 7.03779 33.4929 7.4046 33.4929 7.83255V8.38277C34.0839 7.66952 35.0009 7.22119 36.1013 7.22119C37.4871 7.22119 38.6894 7.73066 39.4027 8.76996C39.9733 7.77141 41.0533 7.22119 42.3575 7.22119C44.0286 7.22119 45.8219 8.11785 46.0868 11.3988L46.3517 14.7816ZM57.5356 14.8224C57.7393 16.3304 58.5341 16.0043 58.5341 16.5953C58.5341 17.1863 57.1891 17.3289 55.9868 17.3289C54.6826 17.3289 54.0712 17.0844 53.8878 16.4323C53.4599 16.9621 52.6855 17.4105 51.3813 17.4105C49.2211 17.4105 47.5093 16.4323 47.5093 14.3129C47.5093 12.2343 49.2619 11.1746 51.1571 11.1746C51.9519 11.1746 52.604 11.3377 53.1134 11.623C52.8689 9.25905 52.8485 8.28088 51.9315 8.28088C50.7291 8.28088 51.3609 11.1135 49.3434 11.1135C48.3856 11.1135 47.7335 10.5225 47.7335 9.64624C47.7335 7.83255 49.8936 7.22119 51.9315 7.22119C54.7233 7.22119 56.7408 8.81072 57.0669 11.2969L57.5356 14.8224ZM52.6855 16.2693C53.1949 16.2693 53.4599 15.5152 53.4191 14.9447L53.3376 13.9869C53.1746 12.7234 52.7262 12.3566 52.339 12.3566C51.9315 12.3566 51.6462 12.8253 51.6462 13.5182C51.6462 14.9854 52.013 16.2693 52.6855 16.2693ZM74.892 14.7612C75.3607 15.9024 76.1351 16.0655 76.1351 16.6972V16.7787C76.1351 17.0436 75.9313 17.2067 75.6256 17.2067H69.6955C69.3898 17.2067 69.186 17.0436 69.186 16.7787V16.6972C69.186 16.0655 70.4699 15.7598 70.1234 14.7612L69.7974 13.8238H65.0288L64.7027 14.7612C64.3563 15.7598 65.6402 16.0655 65.6402 16.6972V16.7787C65.6402 17.0436 65.4364 17.2067 65.1307 17.2067H61.809C61.5033 17.2067 61.2995 17.0436 61.2995 16.7787V16.6972C61.2995 16.0655 62.0943 15.9432 62.5426 14.7612L66.17 5.36675C66.4961 4.51085 65.3956 3.77723 65.3956 3.24738V3.16587C65.3956 2.90095 65.5994 2.73792 65.9051 2.73792H68.9211C69.6751 2.73792 70.1234 3.06398 70.4291 3.7976L74.892 14.7612ZM65.6402 12.112H69.2268L67.4742 6.95627L65.6402 12.112ZM82.8767 7.22119C85.1184 7.22119 87.7064 8.74958 87.7064 12.1324C87.7064 15.393 85.3833 17.4105 82.8767 17.4105C81.8782 17.4105 81.1445 17.1455 80.5739 16.6361C80.5739 17.064 80.3905 17.2067 79.983 17.2067H76.5594C76.2537 17.2067 76.0499 17.0436 76.0499 16.7787V16.6972C76.0499 16.0655 76.8854 15.7598 76.8854 14.7612V6.05962C76.8854 5.06107 75.8258 4.85729 75.8258 4.22555V4.14404C75.8258 3.87912 75.948 3.73647 76.4371 3.5123L79.983 1.88202C80.5332 1.6171 81.0427 1.75975 81.0427 2.39149V7.66952C81.5317 7.36384 82.1431 7.22119 82.8767 7.22119ZM82.5303 16.3304C83.325 16.3304 83.6715 15.6171 83.6715 14.211C83.6715 12.2954 83.3047 8.30126 81.9189 8.30126C81.3483 8.30126 81.0427 8.8311 81.0427 9.91116V14.048C81.0427 15.2096 81.7763 16.3304 82.5303 16.3304ZM95.6423 7.22119C96.8446 7.22119 97.5578 8.13823 97.5578 9.36094C97.5578 10.5021 97.1503 11.5211 95.8053 11.5211C93.7267 11.5211 94.6437 9.48321 93.6859 9.48321C93.258 9.48321 93.1968 10.1149 93.1968 10.7467V14.7612C93.1968 15.7598 94.338 16.0655 94.338 16.6972V16.7787C94.338 17.0436 94.1343 17.2067 93.8286 17.2067H88.9581C88.6524 17.2067 88.4486 17.0436 88.4486 16.7787V16.6972C88.4486 16.0655 89.2842 15.7598 89.2842 14.7612V11.2765C89.2842 10.278 88.2449 10.1761 88.2449 9.54434V9.46283C88.2449 9.19791 88.4283 8.99412 88.7543 8.8311L91.9945 7.30271C92.5651 7.03779 92.7689 7.36384 92.7689 7.79179V9.27942C93.1968 7.95482 94.1546 7.22119 95.6423 7.22119ZM107.682 14.8224C107.886 16.3304 108.68 16.0043 108.68 16.5953C108.68 17.1863 107.335 17.3289 106.133 17.3289C104.829 17.3289 104.217 17.0844 104.034 16.4323C103.606 16.9621 102.832 17.4105 101.528 17.4105C99.3674 17.4105 97.6556 16.4323 97.6556 14.3129C97.6556 12.2343 99.4081 11.1746 101.303 11.1746C102.098 11.1746 102.75 11.3377 103.26 11.623C103.015 9.25905 102.995 8.28088 102.078 8.28088C100.875 8.28088 101.507 11.1135 99.4897 11.1135C98.5319 11.1135 97.8798 10.5225 97.8798 9.64624C97.8798 7.83255 100.04 7.22119 102.078 7.22119C104.87 7.22119 106.887 8.81072 107.213 11.2969L107.682 14.8224ZM102.832 16.2693C103.341 16.2693 103.606 15.5152 103.565 14.9447L103.484 13.9869C103.321 12.7234 102.872 12.3566 102.485 12.3566C102.078 12.3566 101.792 12.8253 101.792 13.5182C101.792 14.9854 102.159 16.2693 102.832 16.2693ZM120.143 14.7612C120.224 15.7598 120.876 16.0655 120.876 16.6972V16.7787C120.876 17.0436 120.673 17.2067 120.367 17.2067H115.863C115.558 17.2067 115.354 17.0436 115.354 16.7787V16.6972C115.354 16.0655 116.149 15.7598 116.087 14.7612L115.884 11.0524C115.782 9.36094 115.558 8.70883 114.763 8.70883C114.029 8.70883 113.764 9.40169 113.764 10.4614V14.7612C113.764 15.7598 114.702 16.0655 114.702 16.6972V16.7787C114.702 17.0436 114.498 17.2067 114.192 17.2067H109.281C108.975 17.2067 108.772 17.0436 108.772 16.7787V16.6972C108.772 16.0655 109.709 15.7598 109.709 14.7612V5.85583C109.709 4.85729 108.67 4.75539 108.67 4.12366V4.04215C108.67 3.77723 108.873 3.55306 109.179 3.41041L112.807 1.82089C113.316 1.59672 113.642 1.75975 113.642 2.26922V8.01596C114.213 7.50649 115.007 7.22119 115.986 7.22119C117.697 7.22119 119.613 8.11785 119.858 11.195L120.143 14.7612ZM122.612 5.36675C122.368 5.36675 122.205 5.20372 122.266 4.87767C122.531 3.59382 123.489 2.43224 124.793 2.43224C126.281 2.43224 127.157 3.34928 128.033 3.34928C128.543 3.34928 128.726 3.20663 128.93 2.94171C129.072 2.7583 129.195 2.63603 129.48 2.63603H129.623C129.928 2.63603 130.051 2.81944 129.989 3.14549C129.725 4.38858 128.848 5.63167 127.524 5.63167C126.199 5.63167 125.221 4.6535 124.182 4.6535C123.896 4.6535 123.672 4.75539 123.448 4.99994C123.224 5.24448 123.224 5.36675 122.857 5.36675H122.612ZM131.334 14.8224C131.538 16.3304 132.333 16.0043 132.333 16.5953C132.333 17.1863 130.988 17.3289 129.786 17.3289C128.481 17.3289 127.87 17.0844 127.687 16.4323C127.259 16.9621 126.484 17.4105 125.18 17.4105C123.02 17.4105 121.308 16.4323 121.308 14.3129C121.308 12.2343 123.061 11.1746 124.956 11.1746C125.751 11.1746 126.403 11.3377 126.912 11.623C126.668 9.25905 126.647 8.28088 125.73 8.28088C124.528 8.28088 125.16 11.1135 123.142 11.1135C122.184 11.1135 121.532 10.5225 121.532 9.64624C121.532 7.83255 123.692 7.22119 125.73 7.22119C128.522 7.22119 130.54 8.81072 130.866 11.2969L131.334 14.8224ZM126.484 16.2693C126.994 16.2693 127.259 15.5152 127.218 14.9447L127.136 13.9869C126.973 12.7234 126.525 12.3566 126.138 12.3566C125.73 12.3566 125.445 12.8253 125.445 13.5182C125.445 14.9854 125.812 16.2693 126.484 16.2693ZM137.972 17.4105C134.997 17.4105 132.287 15.3726 132.287 12.3158C132.287 9.25905 134.997 7.22119 137.972 7.22119C140.968 7.22119 143.638 9.25905 143.638 12.3158C143.638 15.3726 140.968 17.4105 137.972 17.4105ZM138.462 16.31C139.277 16.31 139.399 15.4541 139.399 14.1703C139.399 13.0902 138.788 8.32163 137.28 8.32163C136.485 8.32163 136.363 9.09602 136.363 10.5021C136.363 11.8064 136.974 16.31 138.462 16.31Z"/>
</mask>
<path d="M5.68371 17.2067C5.37804 17.2067 5.19463 17.0436 5.19463 16.7787V16.6972C5.19463 16.0655 6.09128 15.7598 6.09128 14.7612V4.44972H5.47993C4.01268 4.44972 3.74775 6.97665 2.68807 6.97665H2.30088C1.91369 6.97665 1.66915 6.73211 1.73028 6.34492L2.13785 3.41041C2.19899 2.92133 2.40277 2.73792 2.89186 2.73792H13.4479C13.937 2.73792 14.1408 2.92133 14.2019 3.41041L14.6095 6.34492C14.6706 6.73211 14.4261 6.97665 14.0389 6.97665H13.6517C12.592 6.97665 12.3271 4.44972 10.8599 4.44972H10.2485V14.7612C10.2485 15.7598 11.1655 16.0655 11.1655 16.6972V16.7787C11.1655 17.0436 10.9617 17.2067 10.6561 17.2067H5.68371ZM21.1926 13.9053C21.4982 13.5997 21.9873 13.7423 21.9873 14.211C21.9873 15.3115 20.5608 17.4105 17.8505 17.4105C14.8141 17.4105 12.7355 15.3318 12.7355 12.2547C12.7355 9.19791 15.1401 7.22119 17.7893 7.22119C20.4997 7.22119 21.7224 8.70883 21.7224 9.93154C21.7224 10.4818 21.4371 10.8689 21.0295 11.1339L17.341 13.5385C17.8505 14.1906 18.5433 14.5575 19.3789 14.5575C20.0921 14.5575 20.8461 14.2518 21.1926 13.9053ZM17.4633 8.32163C16.7908 8.32163 16.3832 9.1164 16.3832 9.97229C16.3832 10.8893 16.5055 11.7045 16.75 12.3973L18.0543 11.4395C18.3803 11.195 18.5841 10.7671 18.5841 10.3187C18.5841 9.74813 18.4211 8.32163 17.4633 8.32163ZM22.9106 17.2067C22.6049 17.2067 22.4011 17.0436 22.4011 16.7787V16.6972C22.4011 16.0655 23.2366 15.7598 23.2366 14.7612V6.01886C23.2366 5.02031 22.4011 4.71464 22.4011 4.16442V4.0829C22.4011 3.83836 22.6049 3.71609 22.9106 3.57344L26.3953 1.86165C27.0066 1.55597 27.3938 1.92278 27.3938 2.33035V14.7612C27.3938 15.7598 28.3312 16.0655 28.3312 16.6972V16.7787C28.3312 17.0436 28.1275 17.2067 27.8218 17.2067H22.9106ZM46.3517 14.7816C46.4333 15.7802 47.0854 16.0858 47.0854 16.7176V16.7991C47.0854 17.064 46.8816 17.227 46.5759 17.227H42.0723C41.7666 17.227 41.5628 17.064 41.5628 16.7991V16.7176C41.5628 16.0858 42.3575 15.7802 42.2964 14.7816L42.0926 11.2561C41.9907 9.38132 41.7054 8.70883 40.9922 8.70883C40.2993 8.70883 40.0344 9.44245 40.0344 10.441C40.0752 10.7059 40.0955 10.9708 40.0955 11.2765V14.7816C40.0955 15.7802 40.8292 16.0858 40.8292 16.7176V16.7991C40.8292 17.064 40.6254 17.227 40.3197 17.227H35.816C35.5104 17.227 35.3066 17.064 35.3066 16.7991V16.7176C35.3066 16.0858 36.0402 15.7802 36.0402 14.7816V10.9912C36.0402 9.40169 35.653 8.70883 34.9398 8.70883C34.145 8.70883 33.8801 9.42207 33.8801 10.4002V14.7816C33.8801 15.7802 34.8175 16.0858 34.8175 16.7176V16.7991C34.8175 17.064 34.6137 17.227 34.308 17.227H29.3968C29.0911 17.227 28.8874 17.064 28.8874 16.7991V16.7176C28.8874 16.0858 29.8248 15.7802 29.8248 14.7816V11.3377C29.8248 10.3391 28.6836 10.1557 28.6836 9.52397V9.44245C28.6836 9.17753 28.9077 9.03488 29.2134 8.89223L32.6574 7.30271C33.2076 7.03779 33.4929 7.4046 33.4929 7.83255V8.38277C34.0839 7.66952 35.0009 7.22119 36.1013 7.22119C37.4871 7.22119 38.6894 7.73066 39.4027 8.76996C39.9733 7.77141 41.0533 7.22119 42.3575 7.22119C44.0286 7.22119 45.8219 8.11785 46.0868 11.3988L46.3517 14.7816ZM57.5356 14.8224C57.7393 16.3304 58.5341 16.0043 58.5341 16.5953C58.5341 17.1863 57.1891 17.3289 55.9868 17.3289C54.6826 17.3289 54.0712 17.0844 53.8878 16.4323C53.4599 16.9621 52.6855 17.4105 51.3813 17.4105C49.2211 17.4105 47.5093 16.4323 47.5093 14.3129C47.5093 12.2343 49.2619 11.1746 51.1571 11.1746C51.9519 11.1746 52.604 11.3377 53.1134 11.623C52.8689 9.25905 52.8485 8.28088 51.9315 8.28088C50.7291 8.28088 51.3609 11.1135 49.3434 11.1135C48.3856 11.1135 47.7335 10.5225 47.7335 9.64624C47.7335 7.83255 49.8936 7.22119 51.9315 7.22119C54.7233 7.22119 56.7408 8.81072 57.0669 11.2969L57.5356 14.8224ZM52.6855 16.2693C53.1949 16.2693 53.4599 15.5152 53.4191 14.9447L53.3376 13.9869C53.1746 12.7234 52.7262 12.3566 52.339 12.3566C51.9315 12.3566 51.6462 12.8253 51.6462 13.5182C51.6462 14.9854 52.013 16.2693 52.6855 16.2693ZM74.892 14.7612C75.3607 15.9024 76.1351 16.0655 76.1351 16.6972V16.7787C76.1351 17.0436 75.9313 17.2067 75.6256 17.2067H69.6955C69.3898 17.2067 69.186 17.0436 69.186 16.7787V16.6972C69.186 16.0655 70.4699 15.7598 70.1234 14.7612L69.7974 13.8238H65.0288L64.7027 14.7612C64.3563 15.7598 65.6402 16.0655 65.6402 16.6972V16.7787C65.6402 17.0436 65.4364 17.2067 65.1307 17.2067H61.809C61.5033 17.2067 61.2995 17.0436 61.2995 16.7787V16.6972C61.2995 16.0655 62.0943 15.9432 62.5426 14.7612L66.17 5.36675C66.4961 4.51085 65.3956 3.77723 65.3956 3.24738V3.16587C65.3956 2.90095 65.5994 2.73792 65.9051 2.73792H68.9211C69.6751 2.73792 70.1234 3.06398 70.4291 3.7976L74.892 14.7612ZM65.6402 12.112H69.2268L67.4742 6.95627L65.6402 12.112ZM82.8767 7.22119C85.1184 7.22119 87.7064 8.74958 87.7064 12.1324C87.7064 15.393 85.3833 17.4105 82.8767 17.4105C81.8782 17.4105 81.1445 17.1455 80.5739 16.6361C80.5739 17.064 80.3905 17.2067 79.983 17.2067H76.5594C76.2537 17.2067 76.0499 17.0436 76.0499 16.7787V16.6972C76.0499 16.0655 76.8854 15.7598 76.8854 14.7612V6.05962C76.8854 5.06107 75.8258 4.85729 75.8258 4.22555V4.14404C75.8258 3.87912 75.948 3.73647 76.4371 3.5123L79.983 1.88202C80.5332 1.6171 81.0427 1.75975 81.0427 2.39149V7.66952C81.5317 7.36384 82.1431 7.22119 82.8767 7.22119ZM82.5303 16.3304C83.325 16.3304 83.6715 15.6171 83.6715 14.211C83.6715 12.2954 83.3047 8.30126 81.9189 8.30126C81.3483 8.30126 81.0427 8.8311 81.0427 9.91116V14.048C81.0427 15.2096 81.7763 16.3304 82.5303 16.3304ZM95.6423 7.22119C96.8446 7.22119 97.5578 8.13823 97.5578 9.36094C97.5578 10.5021 97.1503 11.5211 95.8053 11.5211C93.7267 11.5211 94.6437 9.48321 93.6859 9.48321C93.258 9.48321 93.1968 10.1149 93.1968 10.7467V14.7612C93.1968 15.7598 94.338 16.0655 94.338 16.6972V16.7787C94.338 17.0436 94.1343 17.2067 93.8286 17.2067H88.9581C88.6524 17.2067 88.4486 17.0436 88.4486 16.7787V16.6972C88.4486 16.0655 89.2842 15.7598 89.2842 14.7612V11.2765C89.2842 10.278 88.2449 10.1761 88.2449 9.54434V9.46283C88.2449 9.19791 88.4283 8.99412 88.7543 8.8311L91.9945 7.30271C92.5651 7.03779 92.7689 7.36384 92.7689 7.79179V9.27942C93.1968 7.95482 94.1546 7.22119 95.6423 7.22119ZM107.682 14.8224C107.886 16.3304 108.68 16.0043 108.68 16.5953C108.68 17.1863 107.335 17.3289 106.133 17.3289C104.829 17.3289 104.217 17.0844 104.034 16.4323C103.606 16.9621 102.832 17.4105 101.528 17.4105C99.3674 17.4105 97.6556 16.4323 97.6556 14.3129C97.6556 12.2343 99.4081 11.1746 101.303 11.1746C102.098 11.1746 102.75 11.3377 103.26 11.623C103.015 9.25905 102.995 8.28088 102.078 8.28088C100.875 8.28088 101.507 11.1135 99.4897 11.1135C98.5319 11.1135 97.8798 10.5225 97.8798 9.64624C97.8798 7.83255 100.04 7.22119 102.078 7.22119C104.87 7.22119 106.887 8.81072 107.213 11.2969L107.682 14.8224ZM102.832 16.2693C103.341 16.2693 103.606 15.5152 103.565 14.9447L103.484 13.9869C103.321 12.7234 102.872 12.3566 102.485 12.3566C102.078 12.3566 101.792 12.8253 101.792 13.5182C101.792 14.9854 102.159 16.2693 102.832 16.2693ZM120.143 14.7612C120.224 15.7598 120.876 16.0655 120.876 16.6972V16.7787C120.876 17.0436 120.673 17.2067 120.367 17.2067H115.863C115.558 17.2067 115.354 17.0436 115.354 16.7787V16.6972C115.354 16.0655 116.149 15.7598 116.087 14.7612L115.884 11.0524C115.782 9.36094 115.558 8.70883 114.763 8.70883C114.029 8.70883 113.764 9.40169 113.764 10.4614V14.7612C113.764 15.7598 114.702 16.0655 114.702 16.6972V16.7787C114.702 17.0436 114.498 17.2067 114.192 17.2067H109.281C108.975 17.2067 108.772 17.0436 108.772 16.7787V16.6972C108.772 16.0655 109.709 15.7598 109.709 14.7612V5.85583C109.709 4.85729 108.67 4.75539 108.67 4.12366V4.04215C108.67 3.77723 108.873 3.55306 109.179 3.41041L112.807 1.82089C113.316 1.59672 113.642 1.75975 113.642 2.26922V8.01596C114.213 7.50649 115.007 7.22119 115.986 7.22119C117.697 7.22119 119.613 8.11785 119.858 11.195L120.143 14.7612ZM122.612 5.36675C122.368 5.36675 122.205 5.20372 122.266 4.87767C122.531 3.59382 123.489 2.43224 124.793 2.43224C126.281 2.43224 127.157 3.34928 128.033 3.34928C128.543 3.34928 128.726 3.20663 128.93 2.94171C129.072 2.7583 129.195 2.63603 129.48 2.63603H129.623C129.928 2.63603 130.051 2.81944 129.989 3.14549C129.725 4.38858 128.848 5.63167 127.524 5.63167C126.199 5.63167 125.221 4.6535 124.182 4.6535C123.896 4.6535 123.672 4.75539 123.448 4.99994C123.224 5.24448 123.224 5.36675 122.857 5.36675H122.612ZM131.334 14.8224C131.538 16.3304 132.333 16.0043 132.333 16.5953C132.333 17.1863 130.988 17.3289 129.786 17.3289C128.481 17.3289 127.87 17.0844 127.687 16.4323C127.259 16.9621 126.484 17.4105 125.18 17.4105C123.02 17.4105 121.308 16.4323 121.308 14.3129C121.308 12.2343 123.061 11.1746 124.956 11.1746C125.751 11.1746 126.403 11.3377 126.912 11.623C126.668 9.25905 126.647 8.28088 125.73 8.28088C124.528 8.28088 125.16 11.1135 123.142 11.1135C122.184 11.1135 121.532 10.5225 121.532 9.64624C121.532 7.83255 123.692 7.22119 125.73 7.22119C128.522 7.22119 130.54 8.81072 130.866 11.2969L131.334 14.8224ZM126.484 16.2693C126.994 16.2693 127.259 15.5152 127.218 14.9447L127.136 13.9869C126.973 12.7234 126.525 12.3566 126.138 12.3566C125.73 12.3566 125.445 12.8253 125.445 13.5182C125.445 14.9854 125.812 16.2693 126.484 16.2693ZM137.972 17.4105C134.997 17.4105 132.287 15.3726 132.287 12.3158C132.287 9.25905 134.997 7.22119 137.972 7.22119C140.968 7.22119 143.638 9.25905 143.638 12.3158C143.638 15.3726 140.968 17.4105 137.972 17.4105ZM138.462 16.31C139.277 16.31 139.399 15.4541 139.399 14.1703C139.399 13.0902 138.788 8.32163 137.28 8.32163C136.485 8.32163 136.363 9.09602 136.363 10.5021C136.363 11.8064 136.974 16.31 138.462 16.31Z" fill="#2260A1"/>
<path d="M6.09128 4.44972H7.81311V2.72789H6.09128V4.44972ZM1.73028 6.34492L3.43104 6.61346L3.43354 6.59764L3.43574 6.58179L1.73028 6.34492ZM2.13785 3.41041L3.84331 3.64728L3.84493 3.63564L3.84639 3.62398L2.13785 3.41041ZM14.2019 3.41041L12.4934 3.62398L12.4949 3.63564L12.4965 3.64728L14.2019 3.41041ZM14.6095 6.34492L12.904 6.58179L12.9062 6.59764L12.9087 6.61346L14.6095 6.34492ZM10.2485 4.44972V2.72789H8.52667V4.44972H10.2485ZM5.68371 17.2067V15.4848C5.82319 15.4848 6.14771 15.5232 6.46115 15.7987C6.80191 16.0981 6.91646 16.4909 6.91646 16.7787H5.19463H3.4728C3.4728 17.3314 3.67905 17.9382 4.18794 18.3854C4.6695 18.8086 5.23855 18.9285 5.68371 18.9285V17.2067ZM5.19463 16.7787H6.91646V16.6972H5.19463H3.4728V16.7787H5.19463ZM5.19463 16.6972H6.91646C6.91646 16.9775 6.80818 17.1601 6.79052 17.1881C6.78472 17.1972 6.79045 17.1869 6.8279 17.1396C6.90226 17.0458 6.87661 17.081 6.98748 16.9424C7.27903 16.578 7.81311 15.8628 7.81311 14.7612H6.09128H4.36945C4.36945 14.6582 4.45521 14.5952 4.29843 14.7912C4.25313 14.8478 4.03113 15.1082 3.87894 15.3492C3.69316 15.6433 3.4728 16.101 3.4728 16.6972H5.19463ZM6.09128 14.7612H7.81311V4.44972H6.09128H4.36945V14.7612H6.09128ZM6.09128 4.44972V2.72789H5.47993V4.44972V6.17155H6.09128V4.44972ZM5.47993 4.44972V2.72789C4.5521 2.72789 3.85529 3.14916 3.3837 3.60014C2.95303 4.01199 2.64706 4.50927 2.45786 4.82207C2.21642 5.22124 2.13058 5.37321 2.04052 5.48163C1.96041 5.57808 2.1841 5.25482 2.68807 5.25482V6.97665V8.69848C3.72189 8.69848 4.37607 8.05936 4.68952 7.682C4.99302 7.31662 5.2638 6.83686 5.40446 6.60429C5.59736 6.28537 5.69896 6.15091 5.76374 6.08896C5.7876 6.06614 5.67413 6.17155 5.47993 6.17155V4.44972ZM2.68807 6.97665V5.25482H2.30088V6.97665V8.69848H2.68807V6.97665ZM2.30088 6.97665V5.25482C2.45781 5.25482 2.80646 5.30891 3.10816 5.63324C3.43135 5.98066 3.46691 6.38628 3.43104 6.61346L1.73028 6.34492L0.0295205 6.07638C-0.0674845 6.69074 0.0597838 7.41223 0.586756 7.97873C1.09224 8.52212 1.75676 8.69848 2.30088 8.69848V6.97665ZM1.73028 6.34492L3.43574 6.58179L3.84331 3.64728L2.13785 3.41041L0.432392 3.17354L0.0248213 6.10805L1.73028 6.34492ZM2.13785 3.41041L3.84639 3.62398C3.85705 3.53867 3.84075 3.87166 3.50168 4.17465C3.15772 4.48202 2.81751 4.45975 2.89186 4.45975V2.73792V1.01609C2.47712 1.01609 1.79047 1.08552 1.20706 1.60687C0.628547 2.12384 0.479788 2.79307 0.429317 3.19685L2.13785 3.41041ZM2.89186 2.73792V4.45975H13.4479V2.73792V1.01609H2.89186V2.73792ZM13.4479 2.73792V4.45975C13.5223 4.45975 13.1821 4.48202 12.8381 4.17465C12.499 3.87166 12.4827 3.53867 12.4934 3.62398L14.2019 3.41041L15.9105 3.19684C15.86 2.79307 15.7112 2.12384 15.1327 1.60687C14.5493 1.08552 13.8627 1.01609 13.4479 1.01609V2.73792ZM14.2019 3.41041L12.4965 3.64728L12.904 6.58179L14.6095 6.34492L16.315 6.10805L15.9074 3.17354L14.2019 3.41041ZM14.6095 6.34492L12.9087 6.61346C12.8729 6.38628 12.9084 5.98066 13.2316 5.63323C13.5333 5.30891 13.882 5.25482 14.0389 5.25482V6.97665V8.69848C14.583 8.69848 15.2475 8.52212 15.753 7.97873C16.28 7.41223 16.4073 6.69074 16.3103 6.07638L14.6095 6.34492ZM14.0389 6.97665V5.25482H13.6517V6.97665V8.69848H14.0389V6.97665ZM13.6517 6.97665V5.25482C14.1557 5.25482 14.3794 5.57808 14.2993 5.48163C14.2092 5.37321 14.1234 5.22124 13.8819 4.82207C13.6927 4.50927 13.3867 4.01199 12.9561 3.60014C12.4845 3.14916 11.7877 2.72789 10.8599 2.72789V4.44972V6.17155C10.6657 6.17155 10.5522 6.06614 10.576 6.08896C10.6408 6.15091 10.7424 6.28537 10.9353 6.60429C11.076 6.83686 11.3468 7.31662 11.6503 7.682C11.9637 8.05936 12.6179 8.69848 13.6517 8.69848V6.97665ZM10.8599 4.44972V2.72789H10.2485V4.44972V6.17155H10.8599V4.44972ZM10.2485 4.44972H8.52667V14.7612H10.2485H11.9703V4.44972H10.2485ZM10.2485 14.7612H8.52667C8.52667 15.8759 9.07904 16.5961 9.37439 16.9571C9.48753 17.0954 9.46167 17.0606 9.53762 17.1543C9.57605 17.2018 9.58192 17.2122 9.57591 17.2029C9.55821 17.1755 9.4437 16.9876 9.4437 16.6972H11.1655H12.8874C12.8874 16.0909 12.6582 15.628 12.4686 15.3344C12.3129 15.0933 12.0861 14.8332 12.0396 14.7764C11.8765 14.577 11.9703 14.6452 11.9703 14.7612H10.2485ZM11.1655 16.6972H9.4437V16.7787H11.1655H12.8874V16.6972H11.1655ZM11.1655 16.7787H9.4437C9.4437 16.4314 9.59656 16.0399 9.92687 15.7662C10.2222 15.5215 10.5183 15.4848 10.6561 15.4848V17.2067V18.9285C11.0995 18.9285 11.6504 18.8103 12.124 18.4179C12.6326 17.9964 12.8874 17.3909 12.8874 16.7787H11.1655ZM10.6561 17.2067V15.4848H5.68371V17.2067V18.9285H10.6561V17.2067ZM21.1926 13.9053L19.975 12.6878H19.975L21.1926 13.9053ZM21.0295 11.1339L20.0911 9.69021L20.0892 9.69149L21.0295 11.1339ZM17.341 13.5385L16.4007 12.0962L14.8294 13.1205L15.9842 14.5986L17.341 13.5385ZM16.75 12.3973L15.1264 12.9704L15.8987 15.1588L17.7692 13.7851L16.75 12.3973ZM18.0543 11.4395L19.0734 12.8273L19.0804 12.8222L19.0874 12.817L18.0543 11.4395ZM21.1926 13.9053L22.4101 15.1229C22.1366 15.3963 21.6536 15.5738 21.1369 15.3934C20.5523 15.1892 20.2655 14.65 20.2655 14.211H21.9873H23.7091C23.7091 13.3033 23.1778 12.4585 22.2722 12.1422C21.4346 11.8497 20.5541 12.1087 19.975 12.6878L21.1926 13.9053ZM21.9873 14.211H20.2655C20.2655 14.1518 20.217 14.5297 19.7478 14.9766C19.3482 15.3571 18.731 15.6886 17.8505 15.6886V17.4104V19.1323C19.6803 19.1323 21.1315 18.4143 22.1227 17.4702C23.0444 16.5925 23.7091 15.3706 23.7091 14.211H21.9873ZM17.8505 17.4104V15.6886C16.7354 15.6886 15.9143 15.3145 15.3753 14.7724C14.8357 14.2298 14.4573 13.3965 14.4573 12.2547H12.7355H11.0136C11.0136 14.19 11.6745 15.9346 12.9334 17.2006C14.1927 18.4671 15.9292 19.1323 17.8505 19.1323V17.4104ZM12.7355 12.2547H14.4573C14.4573 10.2478 15.989 8.94303 17.7893 8.94303V7.22119V5.49936C14.2913 5.49936 11.0136 8.14797 11.0136 12.2547H12.7355ZM17.7893 7.22119V8.94303C18.8302 8.94303 19.4057 9.22556 19.6851 9.45305C19.9748 9.68895 20.0006 9.89556 20.0006 9.93154H21.7224H23.4442C23.4442 7.44405 21.103 5.49936 17.7893 5.49936V7.22119ZM21.7224 9.93154H20.0006C20.0006 9.91856 20.0025 9.88876 20.0139 9.84835C20.0252 9.80782 20.0425 9.76966 20.0624 9.73728C20.1017 9.67339 20.1305 9.6646 20.0911 9.69021L21.0295 11.1339L21.9679 12.5775C22.739 12.0763 23.4442 11.1996 23.4442 9.93154H21.7224ZM21.0295 11.1339L20.0892 9.69149L16.4007 12.0962L17.341 13.5385L18.2814 14.9809L21.9699 12.5763L21.0295 11.1339ZM17.341 13.5385L15.9842 14.5986C16.7947 15.636 17.9736 16.2793 19.3789 16.2793V14.5575V12.8356C19.1131 12.8356 18.9063 12.7453 18.6979 12.4785L17.341 13.5385ZM19.3789 14.5575V16.2793C19.9686 16.2793 20.5393 16.1557 21.025 15.9746C21.491 15.8008 22.0072 15.5257 22.4101 15.1229L21.1926 13.9053L19.975 12.6878C20.0134 12.6495 20.024 12.6493 19.9854 12.6722C19.951 12.6926 19.8956 12.7204 19.8215 12.7481C19.6653 12.8063 19.5024 12.8356 19.3789 12.8356V14.5575ZM17.4633 8.32163V6.5998C16.3474 6.5998 15.5928 7.28553 15.2001 7.93113C14.8168 8.56117 14.6614 9.29953 14.6614 9.97229H16.3832H18.1051C18.1051 9.8924 18.1149 9.82284 18.1278 9.7709C18.1414 9.71675 18.1529 9.70315 18.1421 9.72087C18.132 9.73747 18.0811 9.8156 17.9611 9.89501C17.8288 9.98262 17.6526 10.0435 17.4633 10.0435V8.32163ZM16.3832 9.97229H14.6614C14.6614 11.0357 14.8024 12.0524 15.1264 12.9704L16.75 12.3973L18.3737 11.8243C18.2086 11.3565 18.1051 10.743 18.1051 9.97229H16.3832ZM16.75 12.3973L17.7692 13.7851L19.0734 12.8273L18.0543 11.4395L17.0351 10.0517L15.7309 11.0095L16.75 12.3973ZM18.0543 11.4395L19.0874 12.817C19.8897 12.2152 20.3059 11.2533 20.3059 10.3187H18.5841H16.8623C16.8623 10.285 16.8692 10.2526 16.8854 10.2185C16.901 10.1856 16.9383 10.1242 17.0212 10.0621L18.0543 11.4395ZM18.5841 10.3187H20.3059C20.3059 9.92757 20.2565 9.19883 19.9951 8.50163C19.7502 7.84863 19.0414 6.5998 17.4633 6.5998V8.32163V10.0435C17.3634 10.0435 17.2445 10.0237 17.1232 9.97302C17.0042 9.92334 16.9154 9.85768 16.8558 9.80104C16.7507 9.70103 16.743 9.6369 16.7707 9.71078C16.7941 9.77321 16.8201 9.87505 16.8388 10.007C16.8569 10.135 16.8623 10.2503 16.8623 10.3187H18.5841ZM22.9106 3.57344L23.6387 5.13374L23.6543 5.12646L23.6697 5.11888L22.9106 3.57344ZM26.3953 1.86165L27.1545 3.40712L27.1653 3.4017L26.3953 1.86165ZM22.9106 17.2067V15.4848C23.0483 15.4848 23.3444 15.5215 23.6398 15.7662C23.9701 16.0399 24.1229 16.4314 24.1229 16.7787H22.4011H20.6793C20.6793 17.3909 20.934 17.9964 21.4426 18.4179C21.9163 18.8103 22.4672 18.9285 22.9106 18.9285V17.2067ZM22.4011 16.7787H24.1229V16.6972H22.4011H20.6793V16.7787H22.4011ZM22.4011 16.6972H24.1229C24.1229 16.9472 24.0324 17.1133 24.0156 17.1419C24.0106 17.1504 24.0161 17.1399 24.0507 17.093C24.1202 16.9989 24.0955 17.0351 24.1993 16.8959C24.478 16.522 24.9584 15.8233 24.9584 14.7612H23.2366H21.5148C21.5148 14.7642 21.5147 14.7557 21.5181 14.7397C21.5216 14.7238 21.5262 14.7115 21.5287 14.7057C21.5305 14.7016 21.5206 14.7273 21.4384 14.8377C21.3962 14.8943 21.1891 15.155 21.0477 15.3953C20.8742 15.6901 20.6793 16.1314 20.6793 16.6972H22.4011ZM23.2366 14.7612H24.9584V6.01886H23.2366H21.5148V14.7612H23.2366ZM23.2366 6.01886H24.9584C24.9584 4.95607 24.4794 4.25601 24.1807 3.86998C24.1338 3.80924 24.0318 3.68171 24.0195 3.66613C23.9802 3.61605 23.9742 3.60569 23.9793 3.61364C23.9912 3.63219 24.1229 3.83871 24.1229 4.16442H22.4011H20.6793C20.6793 4.76523 20.9154 5.2163 21.084 5.47812C21.2152 5.68187 21.4348 5.94837 21.457 5.97706C21.5296 6.07097 21.5355 6.09102 21.5305 6.0798C21.5269 6.07143 21.5218 6.0576 21.5183 6.04114C21.5146 6.02453 21.5148 6.01576 21.5148 6.01886H23.2366ZM22.4011 4.16442H24.1229V4.0829H22.4011H20.6793V4.16442H22.4011ZM22.4011 4.0829H24.1229C24.1229 4.27304 24.0804 4.48355 23.9798 4.68613C23.8836 4.87992 23.7636 5.00741 23.6828 5.0789C23.6429 5.11429 23.6097 5.13854 23.589 5.15275C23.5683 5.16696 23.5552 5.17442 23.5538 5.17522C23.5523 5.17607 23.5577 5.17296 23.573 5.16525C23.5884 5.15755 23.6092 5.14748 23.6387 5.13374L22.9106 3.57344L22.1824 2.01314C22.0413 2.07901 21.6986 2.23614 21.3996 2.50102C21.0161 2.84064 20.6793 3.37607 20.6793 4.0829H22.4011ZM22.9106 3.57344L23.6697 5.11888L27.1544 3.40708L26.3953 1.86165L25.6361 0.316208L22.1514 2.028L22.9106 3.57344ZM26.3953 1.86165L27.1653 3.4017C27.0855 3.44161 26.6894 3.57721 26.2348 3.30307C25.828 3.05779 25.672 2.6524 25.672 2.33035H27.3938H29.1157C29.1157 1.60073 28.7661 0.808146 28.0129 0.353989C27.2118 -0.129034 26.3164 -0.0239906 25.6253 0.321592L26.3953 1.86165ZM27.3938 2.33035H25.672V14.7612H27.3938H29.1157V2.33035H27.3938ZM27.3938 14.7612H25.672C25.672 15.8889 26.2429 16.614 26.5418 16.9714C26.6571 17.1094 26.6311 17.0751 26.7086 17.1687C26.7481 17.2163 26.7541 17.2268 26.7479 17.2174C26.7303 17.1907 26.6094 16.9977 26.6094 16.6972H28.3312H30.0531C30.0531 16.0808 29.815 15.6127 29.6216 15.3199C29.4625 15.0788 29.2309 14.819 29.1833 14.7621C29.0135 14.5591 29.1157 14.6322 29.1157 14.7612H27.3938ZM28.3312 16.6972H26.6094V16.7787H28.3312H30.0531V16.6972H28.3312ZM28.3312 16.7787H26.6094C26.6094 16.4314 26.7623 16.0399 27.0926 15.7662C27.3879 15.5215 27.6841 15.4848 27.8218 15.4848V17.2067V18.9285C28.2652 18.9285 28.8161 18.8103 29.2897 18.4179C29.7983 17.9964 30.0531 17.3909 30.0531 16.7787H28.3312ZM27.8218 17.2067V15.4848H22.9106V17.2067V18.9285H27.8218V17.2067ZM46.3517 14.7816L44.6352 14.9161L44.6356 14.9217L46.3517 14.7816ZM42.2964 14.7816L40.5774 14.881L40.5778 14.8868L42.2964 14.7816ZM42.0926 11.2561L40.3733 11.3496L40.3737 11.3555L42.0926 11.2561ZM40.0344 10.441H38.3126V10.5727L38.3326 10.7028L40.0344 10.441ZM29.2134 8.89223L28.4919 7.32887L28.4853 7.33194L29.2134 8.89223ZM32.6574 7.30271L33.3789 8.86606L33.3917 8.86017L33.4043 8.85408L32.6574 7.30271ZM33.4929 8.38277H31.7711V13.1596L34.8187 9.48133L33.4929 8.38277ZM39.4027 8.76996L37.983 9.74425L39.536 12.0071L40.8976 9.62423L39.4027 8.76996ZM46.0868 11.3988L47.8034 11.2644L47.8031 11.2602L46.0868 11.3988ZM46.3517 14.7816L44.6356 14.9217C44.7097 15.8294 45.0642 16.4361 45.2845 16.7925C45.3432 16.8875 45.3655 16.9218 45.3969 16.9742C45.4219 17.0161 45.4263 17.0266 45.4232 17.02C45.41 16.9918 45.3635 16.8775 45.3635 16.7176H47.0854H48.8072C48.8072 15.8073 48.2956 15.1142 48.2137 14.9818C48.0876 14.7778 48.0753 14.7324 48.0679 14.6415L46.3517 14.7816ZM47.0854 16.7176H45.3635V16.7991H47.0854H48.8072V16.7176H47.0854ZM47.0854 16.7991H45.3635C45.3635 16.4518 45.5164 16.0603 45.8467 15.7866C46.142 15.5419 46.4382 15.5052 46.5759 15.5052V17.227V18.9489C47.0193 18.9489 47.5702 18.8307 48.0438 18.4383C48.5524 18.0168 48.8072 17.4113 48.8072 16.7991H47.0854ZM46.5759 17.227V15.5052H42.0723V17.227V18.9489H46.5759V17.227ZM42.0723 17.227V15.5052C42.21 15.5052 42.5061 15.5419 42.8014 15.7866C43.1318 16.0603 43.2846 16.4518 43.2846 16.7991H41.5628H39.841C39.841 17.4113 40.0957 18.0168 40.6043 18.4383C41.078 18.8307 41.6289 18.9489 42.0723 18.9489V17.227ZM41.5628 16.7991H43.2846V16.7176H41.5628H39.841V16.7991H41.5628ZM41.5628 16.7176H43.2846C43.2846 16.9463 43.2057 17.0989 43.193 17.1218C43.1901 17.1271 43.1967 17.1145 43.2308 17.0648C43.2476 17.0403 43.2654 17.0149 43.291 16.9785C43.3145 16.9449 43.3443 16.9023 43.3752 16.8571C43.6522 16.4508 44.0799 15.7357 44.015 14.6764L42.2964 14.7816L40.5778 14.8868C40.5779 14.8891 40.5786 14.8574 40.5919 14.8214C40.5988 14.8026 40.5982 14.817 40.5299 14.9172C40.5025 14.9573 40.3044 15.2292 40.179 15.4562C40.0192 15.7452 39.841 16.173 39.841 16.7176H41.5628ZM42.2964 14.7816L44.0154 14.6823L43.8116 11.1568L42.0926 11.2561L40.3737 11.3555L40.5775 14.881L42.2964 14.7816ZM42.0926 11.2561L43.8119 11.1627C43.7609 10.2239 43.6594 9.31004 43.3532 8.59875C43.1856 8.20931 42.9129 7.7733 42.4548 7.44443C41.9778 7.10202 41.4555 6.98699 40.9922 6.98699V8.70883V10.4307C40.8855 10.4307 40.6664 10.3997 40.4466 10.242C40.2458 10.0978 40.1845 9.94706 40.1901 9.9601C40.1985 9.97968 40.2372 10.0852 40.2778 10.339C40.317 10.5844 40.3496 10.9129 40.3733 11.3496L42.0926 11.2561ZM40.9922 8.70883V6.98699C40.4972 6.98699 40.004 7.12401 39.5723 7.42192C39.1551 7.70982 38.8842 8.08602 38.7109 8.43554C38.3843 9.09403 38.3126 9.83976 38.3126 10.441H40.0344H41.7562C41.7562 10.2634 41.7683 10.1303 41.784 10.0384C41.8004 9.94207 41.8145 9.9282 41.7961 9.96538C41.7756 10.0067 41.7008 10.1371 41.5282 10.2562C41.341 10.3853 41.1407 10.4307 40.9922 10.4307V8.70883ZM40.0344 10.441L38.3326 10.7028C38.3592 10.8758 38.3737 11.0529 38.3737 11.2765H40.0955H41.8174C41.8174 10.8888 41.7911 10.5361 41.7362 10.1792L40.0344 10.441ZM40.0955 11.2765H38.3737V14.7816H40.0955H41.8174V11.2765H40.0955ZM40.0955 14.7816H38.3737C38.3737 15.7766 38.769 16.4441 39.0217 16.8301C39.1128 16.9694 39.0912 16.9332 39.1522 17.0273C39.1824 17.0738 39.188 17.0855 39.1849 17.0794C39.1715 17.0535 39.1073 16.9169 39.1073 16.7176H40.8292H42.551C42.551 16.2024 42.3951 15.7906 42.2442 15.4985C42.1215 15.2611 41.941 15.0022 41.903 14.9442C41.7888 14.7698 41.8174 14.7852 41.8174 14.7816H40.0955ZM40.8292 16.7176H39.1073V16.7991H40.8292H42.551V16.7176H40.8292ZM40.8292 16.7991H39.1073C39.1073 16.4518 39.2602 16.0603 39.5905 15.7866C39.8858 15.5419 40.182 15.5052 40.3197 15.5052V17.227V18.9489C40.7631 18.9489 41.314 18.8307 41.7876 18.4383C42.2962 18.0168 42.551 17.4113 42.551 16.7991H40.8292ZM40.3197 17.227V15.5052H35.816V17.227V18.9489H40.3197V17.227ZM35.816 17.227V15.5052C35.9538 15.5052 36.2499 15.5419 36.5452 15.7866C36.8756 16.0603 37.0284 16.4518 37.0284 16.7991H35.3066H33.5848C33.5848 17.4113 33.8395 18.0168 34.3481 18.4383C34.8218 18.8307 35.3726 18.9489 35.816 18.9489V17.227ZM35.3066 16.7991H37.0284V16.7176H35.3066H33.5848V16.7991H35.3066ZM35.3066 16.7176H37.0284C37.0284 16.9169 36.9643 17.0535 36.9509 17.0794C36.9478 17.0855 36.9534 17.0738 36.9835 17.0273C37.0445 16.9332 37.0229 16.9694 37.1141 16.8301C37.3667 16.4441 37.762 15.7766 37.762 14.7816H36.0402H34.3184C34.3184 14.7852 34.3469 14.7698 34.2327 14.9442C34.1947 15.0022 34.0142 15.2611 33.8915 15.4985C33.7406 15.7906 33.5848 16.2024 33.5848 16.7176H35.3066ZM36.0402 14.7816H37.762V10.9912H36.0402H34.3184V14.7816H36.0402ZM36.0402 10.9912H37.762C37.762 10.115 37.665 9.21885 37.2975 8.48392C37.1005 8.08992 36.8018 7.69459 36.3584 7.40311C35.9058 7.10562 35.4096 6.98699 34.9398 6.98699V8.70883V10.4307C34.8266 10.4307 34.6462 10.3986 34.4668 10.2807C34.2966 10.1688 34.2285 10.0461 34.2174 10.024C34.2104 10.0099 34.2405 10.0669 34.2696 10.2434C34.2978 10.4151 34.3184 10.6589 34.3184 10.9912H36.0402ZM34.9398 8.70883V6.98699C34.4755 6.98699 33.9938 7.09404 33.5515 7.36001C33.1116 7.62457 32.8066 7.98867 32.6037 8.35696C32.2277 9.03968 32.1583 9.81348 32.1583 10.4002H33.8801H35.6019C35.6019 10.2284 35.614 10.1081 35.6278 10.032C35.6424 9.95223 35.6517 9.9611 35.62 10.0185C35.5828 10.0862 35.493 10.2108 35.3263 10.3111C35.1572 10.4128 35.0066 10.4307 34.9398 10.4307V8.70883ZM33.8801 10.4002H32.1583V14.7816H33.8801H35.6019V10.4002H33.8801ZM33.8801 14.7816H32.1583C32.1583 15.9092 32.7291 16.6344 33.028 16.9918C33.1434 17.1297 33.1174 17.0955 33.1949 17.1891C33.2343 17.2367 33.2404 17.2471 33.2342 17.2377C33.2166 17.2111 33.0957 17.0181 33.0957 16.7176H34.8175H36.5393C36.5393 16.1012 36.3013 15.6331 36.1079 15.3403C35.9487 15.0992 35.7172 14.8394 35.6696 14.7825C35.4998 14.5795 35.6019 14.6526 35.6019 14.7816H33.8801ZM34.8175 16.7176H33.0957V16.7991H34.8175H36.5393V16.7176H34.8175ZM34.8175 16.7991H33.0957C33.0957 16.4518 33.2485 16.0603 33.5788 15.7866C33.8742 15.5419 34.1703 15.5052 34.308 15.5052V17.227V18.9489C34.7514 18.9489 35.3023 18.8307 35.776 18.4383C36.2846 18.0168 36.5393 17.4113 36.5393 16.7991H34.8175ZM34.308 17.227V15.5052H29.3968V17.227V18.9489H34.308V17.227ZM29.3968 17.227V15.5052C29.5345 15.5052 29.8307 15.5419 30.126 15.7866C30.4563 16.0603 30.6092 16.4518 30.6092 16.7991H28.8874H27.1655C27.1655 17.4113 27.4203 18.0168 27.9289 18.4383C28.4025 18.8307 28.9534 18.9489 29.3968 18.9489V17.227ZM28.8874 16.7991H30.6092V16.7176H28.8874H27.1655V16.7991H28.8874ZM28.8874 16.7176H30.6092C30.6092 17.0181 30.4883 17.2111 30.4707 17.2377C30.4645 17.2471 30.4705 17.2367 30.51 17.1891C30.5875 17.0955 30.5615 17.1297 30.6768 16.9918C30.9757 16.6344 31.5466 15.9092 31.5466 14.7816H29.8248H28.1029C28.1029 14.6526 28.2051 14.5795 28.0353 14.7825C27.9877 14.8394 27.7561 15.0992 27.597 15.3403C27.4036 15.6331 27.1655 16.1012 27.1655 16.7176H28.8874ZM29.8248 14.7816H31.5466V11.3377H29.8248H28.1029V14.7816H29.8248ZM29.8248 11.3377H31.5466C31.5466 10.0402 30.7352 9.30126 30.388 8.99745C30.2416 8.86937 30.2821 8.90797 30.1854 8.82245C30.1383 8.78075 30.138 8.77725 30.1548 8.79626C30.1951 8.84212 30.4054 9.10216 30.4054 9.52397H28.6836H26.9617C26.9617 10.2616 27.3147 10.7815 27.569 11.0706C27.7748 11.3046 28.0724 11.5472 28.1203 11.5891C28.3437 11.7845 28.1029 11.6366 28.1029 11.3377H29.8248ZM28.6836 9.52397H30.4054V9.44245H28.6836H26.9617V9.52397H28.6836ZM28.6836 9.44245H30.4054C30.4054 9.63069 30.3629 9.83115 30.2708 10.0199C30.1827 10.2003 30.0737 10.3206 29.9989 10.3893C29.9279 10.4546 29.8751 10.485 29.8734 10.486C29.8706 10.4876 29.8871 10.478 29.9415 10.4525L29.2134 8.89223L28.4853 7.33194C28.3207 7.40876 27.9745 7.57275 27.6688 7.85366C27.2972 8.19513 26.9617 8.73204 26.9617 9.44245H28.6836ZM29.2134 8.89223L29.935 10.4556L33.3789 8.86606L32.6574 7.30271L31.9358 5.73936L28.4919 7.32888L29.2134 8.89223ZM32.6574 7.30271L33.4043 8.85408C33.3555 8.87761 33.1975 8.94305 32.9569 8.93423C32.6974 8.9247 32.4285 8.83041 32.2059 8.65233C31.7994 8.32714 31.7711 7.93459 31.7711 7.83255H33.4929H35.2147C35.2147 7.30256 35.0438 6.51262 34.3571 5.96328C33.5481 5.31608 32.5846 5.42673 31.9104 5.75133L32.6574 7.30271ZM33.4929 7.83255H31.7711V8.38277H33.4929H35.2147V7.83255H33.4929ZM33.4929 8.38277L34.8187 9.48133C35.0649 9.18424 35.4852 8.94303 36.1013 8.94303V7.22119V5.49936C34.5166 5.49936 33.1028 6.1548 32.1671 7.28421L33.4929 8.38277ZM36.1013 7.22119V8.94303C37.0725 8.94303 37.6687 9.28622 37.983 9.74425L39.4027 8.76996L40.8223 7.79568C39.7102 6.17509 37.9016 5.49936 36.1013 5.49936V7.22119ZM39.4027 8.76996L40.8976 9.62423C41.1033 9.26425 41.5439 8.94303 42.3576 8.94303V7.22119V5.49936C40.5628 5.49936 38.8432 6.27858 37.9077 7.91569L39.4027 8.76996ZM42.3576 7.22119V8.94303C42.8947 8.94303 43.298 9.08424 43.5845 9.34753C43.866 9.60621 44.2619 10.191 44.3706 11.5374L46.0868 11.3988L47.8031 11.2602C47.6469 9.32564 47.0136 7.82163 45.9144 6.81174C44.8204 5.80648 43.4914 5.49936 42.3576 5.49936V7.22119ZM46.0868 11.3988L44.3702 11.5332L44.6352 14.9161L46.3517 14.7816L48.0683 14.6472L47.8034 11.2644L46.0868 11.3988ZM57.5356 14.8224L55.8287 15.0493L55.8292 15.053L57.5356 14.8224ZM53.8878 16.4323L55.5453 15.9661L54.6428 12.7572L52.5483 15.3504L53.8878 16.4323ZM53.1134 11.623L52.2721 13.1253L55.1676 14.7467L54.8261 11.4458L53.1134 11.623ZM57.0669 11.2969L55.3596 11.5208L55.36 11.5238L57.0669 11.2969ZM53.4191 14.9447L55.1366 14.822L55.1357 14.8103L55.1347 14.7986L53.4191 14.9447ZM53.3376 13.9869L55.0532 13.8409L55.05 13.8036L55.0453 13.7665L53.3376 13.9869ZM57.5356 14.8224L55.8292 15.053C55.9008 15.5826 56.0381 16.0558 56.2631 16.4717C56.4984 16.9067 56.7837 17.194 57.0301 17.3928C57.132 17.4751 57.2402 17.551 57.2631 17.5676C57.3117 17.6027 57.2638 17.5718 57.2019 17.5111C57.1244 17.4352 57.009 17.3 56.9221 17.1014C56.8348 16.9019 56.8123 16.7208 56.8123 16.5953H58.5341H60.2559C60.2559 16.3221 60.2086 16.0219 60.0771 15.7212C59.9459 15.4214 59.7667 15.203 59.6116 15.051C59.472 14.9142 59.3324 14.8143 59.2807 14.7769C59.2385 14.7464 59.2343 14.7437 59.2114 14.7269C59.2043 14.7217 59.1997 14.7182 59.1965 14.7159C59.1935 14.7135 59.1923 14.7125 59.1924 14.7127C59.2146 14.7306 59.2631 14.7797 59.292 14.8333C59.3106 14.8677 59.2722 14.8161 59.2419 14.5918L57.5356 14.8224ZM58.5341 16.5953H56.8123C56.8123 16.3212 56.8961 16.0654 57.0284 15.861C57.1499 15.6734 57.2842 15.5705 57.3508 15.5261C57.4624 15.4518 57.4944 15.4677 57.3332 15.504C57.0361 15.5708 56.5521 15.6071 55.9868 15.6071V17.3289V19.0508C56.6238 19.0508 57.4135 19.0157 58.0895 18.8635C58.4148 18.7903 58.8581 18.6597 59.2595 18.3924C59.6909 18.1051 60.2559 17.5176 60.2559 16.5953H58.5341ZM55.9868 17.3289V15.6071C55.7096 15.6071 55.509 15.5938 55.3663 15.5744C55.2212 15.5547 55.174 15.5336 55.1852 15.5382C55.2055 15.5468 55.2936 15.5893 55.3878 15.6937C55.4846 15.8009 55.529 15.9081 55.5453 15.9661L53.8878 16.4323L52.2303 16.8985C52.4715 17.7562 53.0533 18.3771 53.8488 18.7121C54.5155 18.9928 55.2792 19.0508 55.9868 19.0508V17.3289ZM53.8878 16.4323L52.5483 15.3504C52.5092 15.3988 52.4328 15.4731 52.2766 15.541C52.1159 15.6109 51.8357 15.6886 51.3813 15.6886V17.4104V19.1323C53.1119 19.1323 54.4177 18.5165 55.2273 17.5142L53.8878 16.4323ZM51.3813 17.4104V15.6886C50.5289 15.6886 49.9593 15.4912 49.6504 15.2657C49.4126 15.0921 49.2312 14.843 49.2312 14.3129H47.5093H45.7875C45.7875 15.9022 46.462 17.2018 47.6201 18.0472C48.7071 18.8406 50.0735 19.1323 51.3813 19.1323V17.4104ZM47.5093 14.3129H49.2312C49.2312 13.8171 49.4143 13.5297 49.6793 13.3237C49.9912 13.0812 50.5071 12.8965 51.1571 12.8965V11.1746V9.4528C49.9119 9.4528 48.6039 9.79785 47.5658 10.6049C46.4807 11.4484 45.7875 12.7301 45.7875 14.3129H47.5093ZM51.1571 11.1746V12.8965C51.7195 12.8965 52.069 13.0115 52.2721 13.1253L53.1134 11.623L53.9547 10.1206C53.1389 9.66379 52.1842 9.4528 51.1571 9.4528V11.1746ZM53.1134 11.623L54.8261 11.4458C54.7167 10.388 54.6347 9.32719 54.4334 8.6038C54.3251 8.21457 54.1212 7.66805 53.6579 7.22549C53.1322 6.72341 52.4953 6.55905 51.9315 6.55905V8.28088V10.0027C51.8262 10.0027 51.5357 9.96061 51.2794 9.71581C51.0854 9.53053 51.0739 9.3763 51.1158 9.52709C51.1536 9.66286 51.1958 9.89673 51.2448 10.3076C51.2934 10.7142 51.3369 11.1833 51.4007 11.8001L53.1134 11.623ZM51.9315 8.28088V6.55905C51.4093 6.55905 50.9202 6.72396 50.5148 7.03262C50.1431 7.31558 49.919 7.66023 49.7837 7.91433C49.5576 8.33899 49.3777 8.95519 49.3156 9.13516C49.2024 9.46303 49.1469 9.52229 49.1602 9.50782C49.2506 9.40911 49.3762 9.39166 49.3434 9.39166V11.1135V12.8353C50.3193 12.8353 51.1225 12.4638 51.6995 11.834C52.1993 11.2884 52.4393 10.6395 52.5706 10.2592C52.6066 10.1552 52.6398 10.0536 52.6678 9.9679C52.6973 9.8775 52.7209 9.80543 52.7442 9.73776C52.7671 9.67125 52.7852 9.62246 52.8003 9.58524C52.8076 9.56723 52.8133 9.55407 52.8175 9.54491C52.8218 9.53572 52.8238 9.53197 52.8234 9.53261C52.8231 9.53323 52.8196 9.53977 52.8126 9.55085C52.8055 9.56194 52.794 9.57902 52.7775 9.60027C52.7446 9.64249 52.6876 9.70652 52.6008 9.77256C52.3989 9.92632 52.1531 10.0027 51.9315 10.0027V8.28088ZM49.3434 11.1135V9.39166C49.2166 9.39166 49.2515 9.35611 49.3381 9.43493C49.379 9.47221 49.413 9.52012 49.4344 9.57032C49.4554 9.61966 49.4553 9.64977 49.4553 9.64624H47.7335H46.0117C46.0117 10.5347 46.3544 11.3759 47.0205 11.982C47.6726 12.5754 48.5124 12.8353 49.3434 12.8353V11.1135ZM47.7335 9.64624H49.4553C49.4553 9.56085 49.4722 9.54611 49.4802 9.5355C49.5045 9.50304 49.5891 9.41295 49.8103 9.30733C50.2799 9.08306 51.0404 8.94303 51.9315 8.94303V7.22119V5.49936C50.7847 5.49936 49.4462 5.66501 48.3263 6.19984C47.1439 6.76452 46.0117 7.87039 46.0117 9.64624H47.7335ZM51.9315 7.22119V8.94303C54.017 8.94303 55.1654 10.0397 55.3596 11.5208L57.0669 11.2969L58.7741 11.073C58.3162 7.58176 55.4296 5.49936 51.9315 5.49936V7.22119ZM57.0669 11.2969L55.36 11.5238L55.8288 15.0493L57.5356 14.8224L59.2424 14.5955L58.7737 11.07L57.0669 11.2969ZM52.6855 16.2693V17.9911C53.9209 17.9911 54.5695 17.0686 54.8107 16.5665C55.0761 16.0139 55.1764 15.38 55.1366 14.822L53.4191 14.9447L51.7016 15.0673C51.7009 15.0571 51.7022 15.0677 51.6985 15.0884C51.6946 15.1102 51.692 15.1058 51.7066 15.0753C51.7178 15.052 51.7741 14.9397 51.9206 14.818C52.0872 14.6797 52.3542 14.5474 52.6855 14.5474V16.2693ZM53.4191 14.9447L55.1347 14.7986L55.0532 13.8409L53.3376 13.9869L51.622 14.1329L51.7035 15.0907L53.4191 14.9447ZM53.3376 13.9869L55.0453 13.7665C54.9452 12.9913 54.734 12.2637 54.3167 11.6877C53.8561 11.0519 53.1556 10.6347 52.339 10.6347V12.3566V14.0784C52.1554 14.0784 51.971 14.0327 51.8096 13.9445C51.6523 13.8585 51.5645 13.7585 51.528 13.7081C51.4943 13.6616 51.5059 13.6605 51.5345 13.7458C51.5627 13.8299 51.6002 13.9769 51.6299 14.2072L53.3376 13.9869ZM52.339 12.3566V10.6347C51.3753 10.6347 50.7077 11.2177 50.3633 11.7917C50.0349 12.3391 49.9243 12.9621 49.9243 13.5182H51.6462H53.368C53.368 13.3813 53.4001 13.4236 53.3162 13.5634C53.2698 13.6407 53.1732 13.7696 52.9988 13.8833C52.8138 14.0038 52.5833 14.0784 52.339 14.0784V12.3566ZM51.6462 13.5182H49.9243C49.9243 14.3657 50.0268 15.2619 50.2877 16.0105C50.4165 16.38 50.6203 16.8206 50.9596 17.1976C51.3207 17.5989 51.9041 17.9911 52.6855 17.9911V16.2693V14.5474C53.1306 14.5474 53.4159 14.7791 53.5192 14.8939C53.6006 14.9843 53.5866 15.0122 53.5396 14.8773C53.4489 14.6172 53.368 14.1379 53.368 13.5182H51.6462ZM74.892 14.7612L73.2972 15.4104L73.2993 15.4154L74.892 14.7612ZM70.1234 14.7612L71.7501 14.1969L71.7497 14.1956L70.1234 14.7612ZM69.7974 13.8238L71.4236 13.2582L71.0215 12.102H69.7974V13.8238ZM65.0288 13.8238V12.102H63.8047L63.4025 13.2582L65.0288 13.8238ZM64.7027 14.7612L63.0765 14.1956L63.076 14.1969L64.7027 14.7612ZM62.5426 14.7612L60.9363 14.141L60.9327 14.1506L62.5426 14.7612ZM66.17 5.36675L67.7763 5.98696L67.779 5.97971L66.17 5.36675ZM70.4291 3.7976L72.0239 3.14841L72.0185 3.13536L70.4291 3.7976ZM65.6402 12.112L64.0179 11.535L63.2001 13.8339H65.6402V12.112ZM69.2268 12.112V13.8339H71.6307L70.857 11.5579L69.2268 12.112ZM67.4742 6.95627L69.1044 6.40213L67.5112 1.71498L65.852 6.37919L67.4742 6.95627ZM74.892 14.7612L73.2993 15.4154C73.6627 16.3002 74.1655 16.8196 74.4479 17.1134C74.6079 17.2799 74.5928 17.2723 74.5667 17.2325C74.5009 17.1322 74.4133 16.938 74.4133 16.6972H76.1351H77.8569C77.8569 15.5705 77.0723 14.8744 76.9307 14.7271C76.7088 14.4962 76.59 14.3634 76.4847 14.1071L74.892 14.7612ZM76.1351 16.6972H74.4133V16.7787H76.1351H77.8569V16.6972H76.1351ZM76.1351 16.7787H74.4133C74.4133 16.4314 74.5661 16.0399 74.8964 15.7662C75.1918 15.5215 75.4879 15.4848 75.6256 15.4848V17.2067V18.9285C76.069 18.9285 76.6199 18.8103 77.0936 18.4179C77.6022 17.9964 77.8569 17.3909 77.8569 16.7787H76.1351ZM75.6256 17.2067V15.4848H69.6955V17.2067V18.9285H75.6256V17.2067ZM69.6955 17.2067V15.4848C69.8332 15.4848 70.1294 15.5215 70.4247 15.7662C70.755 16.0399 70.9079 16.4314 70.9079 16.7787H69.186H67.4642C67.4642 17.3909 67.7189 17.9964 68.2276 18.4179C68.7012 18.8103 69.2521 18.9285 69.6955 18.9285V17.2067ZM69.186 16.7787H70.9079V16.6972H69.186H67.4642V16.7787H69.186ZM69.186 16.6972H70.9079C70.9079 16.9225 70.848 17.1052 70.7888 17.2269C70.7608 17.2845 70.734 17.3265 70.7161 17.3522C70.6983 17.3778 70.686 17.3921 70.6843 17.394C70.6827 17.3959 70.6872 17.3906 70.7019 17.3756C70.7168 17.3605 70.7365 17.3411 70.7658 17.313C70.8108 17.2699 70.9178 17.1695 71.0077 17.0787C71.1898 16.895 71.5183 16.5438 71.7216 16.0361C71.9518 15.4612 71.9687 14.8269 71.7501 14.1969L70.1234 14.7612L68.4967 15.3256C68.4514 15.1949 68.4377 14.9733 68.5246 14.7562C68.5846 14.6064 68.6572 14.5584 68.5616 14.6548C68.5126 14.7042 68.4754 14.7382 68.3821 14.8277C68.3071 14.8996 68.1916 15.0118 68.0781 15.1432C67.8676 15.387 67.4642 15.9205 67.4642 16.6972H69.186ZM70.1234 14.7612L71.7497 14.1956L71.4236 13.2582L69.7974 13.8238L68.1711 14.3895L68.4972 15.3269L70.1234 14.7612ZM69.7974 13.8238V12.102H65.0288V13.8238V15.5457H69.7974V13.8238ZM65.0288 13.8238L63.4025 13.2582L63.0765 14.1956L64.7027 14.7612L66.329 15.3269L66.6551 14.3895L65.0288 13.8238ZM64.7027 14.7612L63.076 14.1969C62.8575 14.8269 62.8744 15.4612 63.1046 16.0361C63.3078 16.5438 63.6364 16.895 63.8185 17.0787C63.9084 17.1695 64.0154 17.2699 64.0604 17.313C64.0897 17.3411 64.1094 17.3605 64.1243 17.3756C64.139 17.3906 64.1435 17.3959 64.1418 17.394C64.1402 17.3921 64.1279 17.3778 64.1101 17.3522C64.0922 17.3265 64.0654 17.2845 64.0373 17.2269C63.9782 17.1052 63.9183 16.9225 63.9183 16.6972H65.6402H67.362C67.362 15.9205 66.9586 15.387 66.7481 15.1432C66.6346 15.0118 66.5191 14.8996 66.4441 14.8277C66.3508 14.7382 66.3135 14.7042 66.2646 14.6548C66.169 14.5584 66.2416 14.6064 66.3016 14.7562C66.3885 14.9733 66.3748 15.1949 66.3295 15.3256L64.7027 14.7612ZM65.6402 16.6972H63.9183V16.7787H65.6402H67.362V16.6972H65.6402ZM65.6402 16.7787H63.9183C63.9183 16.4314 64.0712 16.0399 64.4015 15.7662C64.6968 15.5215 64.993 15.4848 65.1307 15.4848V17.2067V18.9285C65.5741 18.9285 66.125 18.8103 66.5986 18.4179C67.1072 17.9964 67.362 17.3909 67.362 16.7787H65.6402ZM65.1307 17.2067V15.4848H61.809V17.2067V18.9285H65.1307V17.2067ZM61.809 17.2067V15.4848C61.9467 15.4848 62.2429 15.5215 62.5382 15.7662C62.8685 16.0399 63.0214 16.4314 63.0214 16.7787H61.2995H59.5777C59.5777 17.3909 59.8325 17.9964 60.3411 18.4179C60.8147 18.8103 61.3656 18.9285 61.809 18.9285V17.2067ZM61.2995 16.7787H63.0214V16.6972H61.2995H59.5777V16.7787H61.2995ZM61.2995 16.6972H63.0214C63.0214 16.953 62.9248 17.1603 62.8504 17.2687C62.8234 17.308 62.802 17.3233 62.9765 17.147C63.2848 16.8357 63.7994 16.303 64.1525 15.3719L62.5426 14.7612L60.9327 14.1506C60.8376 14.4015 60.7306 14.5209 60.5294 14.7241C60.4162 14.8385 59.5777 15.5413 59.5777 16.6972H61.2995ZM62.5426 14.7612L64.1489 15.3814L67.7763 5.98695L66.17 5.36675L64.5637 4.74655L60.9364 14.141L62.5426 14.7612ZM66.17 5.36675L67.779 5.97971C68.2706 4.6893 67.5953 3.62163 67.344 3.2392C67.2682 3.12378 67.1896 3.01263 67.1371 2.93754C67.0766 2.8512 67.0443 2.80386 67.0219 2.76807C66.9355 2.63011 67.1174 2.84991 67.1174 3.24738H65.3956H63.6738C63.6738 3.60669 63.7656 3.90323 63.8472 4.10399C63.9294 4.306 64.0282 4.47581 64.103 4.59534C64.1787 4.7162 64.2591 4.83125 64.3162 4.91271C64.3811 5.00543 64.4248 5.0675 64.4661 5.13039C64.6835 5.46121 64.3954 5.1883 64.561 4.75379L66.17 5.36675ZM65.3956 3.24738H67.1174V3.16587H65.3956H63.6738V3.24738H65.3956ZM65.3956 3.16587H67.1174C67.1174 3.51317 66.9646 3.90471 66.6343 4.1784C66.339 4.4231 66.0428 4.45975 65.9051 4.45975V2.73792V1.01609C65.4617 1.01609 64.9108 1.13426 64.4372 1.5267C63.9285 1.94814 63.6738 2.55365 63.6738 3.16587H65.3956ZM65.9051 2.73792V4.45975H68.9211V2.73792V1.01609H65.9051V2.73792ZM68.9211 2.73792V4.45975C68.9871 4.45975 68.9989 4.46703 68.9753 4.46053C68.963 4.45715 68.9437 4.45075 68.9199 4.43961C68.8958 4.42837 68.8713 4.41426 68.848 4.39771C68.8247 4.38124 68.8066 4.36519 68.7936 4.35211C68.7809 4.33928 68.7753 4.33148 68.7758 4.3321C68.7778 4.33498 68.8023 4.37005 68.8397 4.45985L70.4291 3.7976L72.0185 3.13536C71.7892 2.585 71.4328 2.00857 70.8385 1.5876C70.2297 1.15637 69.5528 1.01609 68.9211 1.01609V2.73792ZM70.4291 3.7976L68.8343 4.44677L73.2972 15.4104L74.892 14.7612L76.4868 14.1121L72.0239 3.14843L70.4291 3.7976ZM65.6402 12.112V13.8339H69.2268V12.112V10.3902H65.6402V12.112ZM69.2268 12.112L70.857 11.5579L69.1044 6.40213L67.4742 6.95627L65.844 7.51042L67.5966 12.6662L69.2268 12.112ZM67.4742 6.95627L65.852 6.37919L64.0179 11.535L65.6402 12.112L67.2624 12.6891L69.0965 7.53336L67.4742 6.95627ZM80.5739 16.6361L81.7207 15.3517L78.8521 12.7904V16.6361H80.5739ZM76.4371 3.5123L77.1545 5.07756L77.1564 5.07671L76.4371 3.5123ZM79.983 1.88202L80.7022 3.44643L80.7161 3.44003L80.7299 3.4334L79.983 1.88202ZM81.0427 7.66952H79.3208V10.7761L81.9552 9.12963L81.0427 7.66952ZM82.8767 7.22119V8.94303C83.6315 8.94303 84.4243 9.20572 85.0034 9.70847C85.5421 10.1761 85.9846 10.9239 85.9846 12.1324H87.7064H89.4283C89.4283 9.9581 88.5768 8.25032 87.261 7.10802C85.9856 6.00086 84.3636 5.49936 82.8767 5.49936V7.22119ZM87.7064 12.1324H85.9846C85.9846 14.4742 84.4004 15.6886 82.8767 15.6886V17.4104V19.1323C86.3661 19.1323 89.4283 16.3117 89.4283 12.1324H87.7064ZM82.8767 17.4104V15.6886C82.2122 15.6886 81.9152 15.5253 81.7207 15.3517L80.5739 16.6361L79.4272 17.9204C80.3739 18.7658 81.5441 19.1323 82.8767 19.1323V17.4104ZM80.5739 16.6361H78.8521C78.8521 16.6307 78.8513 16.5298 78.8992 16.3805C78.9524 16.2144 79.0622 16.002 79.2648 15.8154C79.6558 15.4553 80.0606 15.4848 79.983 15.4848V17.2067V18.9285C80.3129 18.9285 81.0132 18.8867 81.5978 18.3483C82.2161 17.7788 82.2958 17.0425 82.2958 16.6361H80.5739ZM79.983 17.2067V15.4848H76.5594V17.2067V18.9285H79.983V17.2067ZM76.5594 17.2067V15.4848C76.6971 15.4848 76.9933 15.5215 77.2886 15.7662C77.6189 16.0399 77.7718 16.4314 77.7718 16.7787H76.0499H74.3281C74.3281 17.3909 74.5828 17.9964 75.0915 18.4179C75.5651 18.8103 76.116 18.9285 76.5594 18.9285V17.2067ZM76.0499 16.7787H77.7718V16.6972H76.0499H74.3281V16.7787H76.0499ZM76.0499 16.6972H77.7718C77.7718 16.9472 77.6812 17.1133 77.6644 17.1419C77.6594 17.1504 77.6649 17.1399 77.6995 17.093C77.769 16.9989 77.7443 17.0351 77.8481 16.8959C78.1269 16.522 78.6073 15.8233 78.6073 14.7612H76.8854H75.1636C75.1636 14.7642 75.1635 14.7557 75.167 14.7397C75.1704 14.7238 75.175 14.7115 75.1776 14.7057C75.1794 14.7016 75.1695 14.7273 75.0872 14.8377C75.045 14.8943 74.838 15.155 74.6965 15.3953C74.5231 15.6901 74.3281 16.1314 74.3281 16.6972H76.0499ZM76.8854 14.7612H78.6073V6.05962H76.8854H75.1636V14.7612H76.8854ZM76.8854 6.05962H78.6073C78.6073 4.82157 77.8876 4.08945 77.549 3.76388C77.4117 3.63182 77.4514 3.67319 77.361 3.58538C77.3179 3.54352 77.3179 3.54029 77.3332 3.55923C77.3728 3.60855 77.5476 3.84894 77.5476 4.22555H75.8258H74.1039C74.1039 4.91804 74.4112 5.4208 74.6495 5.71721C74.8406 5.95479 75.1184 6.20407 75.1622 6.24618C75.3534 6.43007 75.1636 6.29912 75.1636 6.05962H76.8854ZM75.8258 4.22555H77.5476V4.14404H75.8258H74.1039V4.22555H75.8258ZM75.8258 4.14404H77.5476C77.5476 4.2082 77.5406 4.35567 77.4762 4.53815C77.4077 4.73219 77.3025 4.88672 77.198 4.99707C77.1503 5.04741 77.1086 5.08246 77.0808 5.10392C77.0532 5.12516 77.0354 5.13613 77.0331 5.13753C77.0326 5.13784 77.0644 5.11888 77.1545 5.07756L76.4371 3.5123L75.7197 1.94705C75.4578 2.06707 75.036 2.272 74.6981 2.62871C74.239 3.1133 74.1039 3.67453 74.1039 4.14404H75.8258ZM76.4371 3.5123L77.1564 5.07671L80.7022 3.44643L79.983 1.88202L79.2637 0.317619L75.7178 1.9479L76.4371 3.5123ZM79.983 1.88202L80.7299 3.4334C80.7248 3.43585 80.6724 3.46095 80.5723 3.47217C80.4735 3.48322 80.2848 3.48461 80.0584 3.3905C79.8132 3.28861 79.5982 3.10373 79.4616 2.86603C79.3345 2.64484 79.3208 2.45948 79.3208 2.39149H81.0427H82.7645C82.7645 1.57362 82.3803 0.62624 81.3799 0.210518C80.5537 -0.132839 79.7452 0.0854797 79.236 0.33065L79.983 1.88202ZM81.0427 2.39149H79.3208V7.66952H81.0427H82.7645V2.39149H81.0427ZM81.0427 7.66952L81.9552 9.12963C82.0915 9.04444 82.3577 8.94303 82.8767 8.94303V7.22119V5.49936C81.9285 5.49936 80.9719 5.68325 80.1301 6.20941L81.0427 7.66952ZM82.5303 16.3304V18.0522C82.9945 18.0522 83.489 17.945 83.9468 17.6631C84.4019 17.3828 84.7152 16.9949 84.9233 16.5986C85.3078 15.8664 85.3933 14.9928 85.3933 14.211H83.6715H81.9497C81.9497 14.4972 81.9316 14.7044 81.9074 14.8473C81.8823 14.9948 81.8583 15.0284 81.8745 14.9974C81.8967 14.9552 81.9744 14.8335 82.1409 14.7309C82.3103 14.6266 82.4634 14.6086 82.5303 14.6086V16.3304ZM83.6715 14.211H85.3933C85.3933 13.1788 85.297 11.5722 84.9986 10.1775C84.8525 9.49484 84.6323 8.73597 84.2752 8.1061C83.9487 7.53007 83.2159 6.57942 81.9189 6.57942V8.30126V10.0231C81.3148 10.0231 81.1476 9.57172 81.2795 9.80446C81.3809 9.98335 81.5123 10.3428 81.6311 10.8981C81.8625 11.9794 81.9497 13.3277 81.9497 14.211H83.6715ZM81.9189 8.30126V6.57942C80.9661 6.57942 80.1902 7.08912 79.7596 7.86865C79.4035 8.51347 79.3208 9.26238 79.3208 9.91116H81.0427H82.7645C82.7645 9.71768 82.7785 9.59167 82.792 9.5195C82.8061 9.44384 82.8128 9.46339 82.774 9.53372C82.7303 9.61275 82.6288 9.75424 82.4391 9.87013C82.245 9.98876 82.0525 10.0231 81.9189 10.0231V8.30126ZM81.0427 9.91116H79.3208V14.048H81.0427H82.7645V9.91116H81.0427ZM81.0427 14.048H79.3208C79.3208 14.9688 79.6047 15.8655 80.0618 16.5659C80.4715 17.1936 81.2983 18.0522 82.5303 18.0522V16.3304V14.6086C82.7784 14.6086 82.9308 14.7009 82.9718 14.7298C83.0113 14.7577 82.9922 14.7551 82.9456 14.6837C82.9021 14.617 82.8542 14.5197 82.8182 14.3997C82.7825 14.2808 82.7645 14.1596 82.7645 14.048H81.0427ZM88.7543 8.8311L88.0198 7.27382L88.0019 7.28223L87.9843 7.29104L88.7543 8.8311ZM91.9945 7.30271L91.2694 5.74096L91.2599 5.74543L91.9945 7.30271ZM92.7689 9.27942H91.0471L94.4073 9.80877L92.7689 9.27942ZM95.6423 7.22119V8.94303C95.6829 8.94303 95.7099 8.94686 95.7255 8.95004C95.7409 8.95318 95.7477 8.95619 95.7483 8.95649C95.7489 8.95676 95.7473 8.95601 95.7449 8.95428C95.7427 8.95261 95.7429 8.95231 95.7455 8.95525C95.7529 8.96393 95.836 9.0732 95.836 9.36094H97.5578H99.2797C99.2797 8.42597 99.0061 7.46536 98.3564 6.70985C97.6823 5.92605 96.7162 5.49936 95.6423 5.49936V7.22119ZM97.5578 9.36094H95.836C95.836 9.54876 95.8188 9.69175 95.7956 9.79181C95.7724 9.89239 95.7506 9.91762 95.7618 9.90124C95.7799 9.87456 95.8219 9.83121 95.8782 9.80311C95.9287 9.77795 95.9224 9.79923 95.8053 9.79923V11.5211V13.2429C96.9831 13.2429 97.9847 12.7571 98.6101 11.8367C99.1589 11.0291 99.2797 10.0864 99.2797 9.36094H97.5578ZM95.8053 11.5211V9.79923C95.5708 9.79923 95.6808 9.74714 95.8571 9.89931C96.0068 10.0285 96.0172 10.152 95.9768 10.015C95.9535 9.93607 95.9412 9.87786 95.9007 9.71406C95.8704 9.59172 95.8128 9.36189 95.7135 9.12815C95.6119 8.88915 95.4163 8.52113 95.033 8.21885C94.6167 7.89046 94.1355 7.76138 93.6859 7.76138V9.48321V11.205C93.4758 11.205 93.1755 11.1396 92.9004 10.9227C92.6585 10.7319 92.5646 10.5231 92.5442 10.4751C92.526 10.4324 92.5292 10.4255 92.558 10.5419C92.5766 10.617 92.622 10.8135 92.6738 10.9893C92.7837 11.3617 93.0145 11.9947 93.6067 12.506C94.2256 13.0402 95.0004 13.2429 95.8053 13.2429V11.5211ZM93.6859 9.48321V7.76138C93.0955 7.76138 92.565 8.00291 92.1831 8.40332C91.8511 8.75131 91.7012 9.14356 91.6273 9.39798C91.4836 9.89311 91.475 10.4289 91.475 10.7467H93.1968H94.9187C94.9187 10.6122 94.9221 10.5074 94.9289 10.4267C94.9362 10.3393 94.944 10.3254 94.9345 10.3581C94.9294 10.3756 94.875 10.5705 94.6749 10.7803C94.5657 10.8947 94.4172 11.0088 94.2278 11.091C94.0375 11.1736 93.8497 11.205 93.6859 11.205V9.48321ZM93.1968 10.7467H91.475V14.7612H93.1968H94.9187V10.7467H93.1968ZM93.1968 14.7612H91.475C91.475 16.0146 92.2392 16.7792 92.5609 17.0952C92.6962 17.2281 92.6723 17.2014 92.7645 17.2929C92.8146 17.3426 92.8241 17.3553 92.8177 17.3474C92.8086 17.336 92.6162 17.0979 92.6162 16.6972H94.338H96.0599C96.0599 15.9806 95.7249 15.4674 95.5017 15.1899C95.3106 14.952 95.0359 14.6992 94.9739 14.6383C94.7251 14.394 94.9187 14.5065 94.9187 14.7612H93.1968ZM94.338 16.6972H92.6162V16.7787H94.338H96.0599V16.6972H94.338ZM94.338 16.7787H92.6162C92.6162 16.4314 92.7691 16.0399 93.0994 15.7662C93.3947 15.5215 93.6909 15.4848 93.8286 15.4848V17.2067V18.9285C94.272 18.9285 94.8229 18.8103 95.2965 18.4179C95.8051 17.9964 96.0599 17.3909 96.0599 16.7787H94.338ZM93.8286 17.2067V15.4848H88.9581V17.2067V18.9285H93.8286V17.2067ZM88.9581 17.2067V15.4848C89.0958 15.4848 89.392 15.5215 89.6873 15.7662C90.0176 16.0399 90.1705 16.4314 90.1705 16.7787H88.4486H86.7268C86.7268 17.3909 86.9816 17.9964 87.4902 18.4179C87.9638 18.8103 88.5147 18.9285 88.9581 18.9285V17.2067ZM88.4486 16.7787H90.1705V16.6972H88.4486H86.7268V16.7787H88.4486ZM88.4486 16.6972H90.1705C90.1705 16.9472 90.0799 17.1133 90.0631 17.1419C90.0582 17.1504 90.0636 17.1399 90.0982 17.093C90.1677 16.9989 90.1431 17.0351 90.2469 16.8959C90.5256 16.522 91.006 15.8233 91.006 14.7612H89.2842H87.5623C87.5623 14.7642 87.5622 14.7557 87.5657 14.7397C87.5691 14.7238 87.5737 14.7115 87.5763 14.7057C87.5781 14.7016 87.5682 14.7273 87.4859 14.8377C87.4437 14.8943 87.2367 15.155 87.0953 15.3953C86.9218 15.6901 86.7268 16.1314 86.7268 16.6972H88.4486ZM89.2842 14.7612H91.006V11.2765H89.2842H87.5623V14.7612H89.2842ZM89.2842 11.2765H91.006C91.006 10.7006 90.8486 10.1983 90.592 9.77725C90.3552 9.38872 90.0644 9.12356 89.9037 8.98178C89.8623 8.94521 89.8213 8.90997 89.7921 8.88481C89.7597 8.85685 89.7385 8.83849 89.7204 8.82234C89.6815 8.78757 89.6909 8.79283 89.7161 8.82234C89.7868 8.90506 89.9667 9.16251 89.9667 9.54434H88.2449H86.523C86.523 10.242 86.8328 10.7491 87.0984 11.0598C87.2211 11.2033 87.3441 11.3172 87.427 11.3912C87.4698 11.4294 87.5115 11.4654 87.5431 11.4926C87.5778 11.5226 87.6018 11.5432 87.6253 11.564C87.7245 11.6514 87.6935 11.6385 87.6516 11.5696C87.5898 11.4683 87.5623 11.3532 87.5623 11.2765H89.2842ZM88.2449 9.54434H89.9667V9.46283H88.2449H86.523V9.54434H88.2449ZM88.2449 9.46283H89.9667C89.9667 9.76891 89.8476 10.0332 89.7027 10.2079C89.5839 10.3512 89.4857 10.3905 89.5244 10.3711L88.7543 8.8311L87.9843 7.29104C87.4463 7.56002 86.523 8.21441 86.523 9.46283H88.2449ZM88.7543 8.8311L89.4889 10.3884L92.7291 8.85999L91.9945 7.30271L91.2599 5.74543L88.0198 7.27382L88.7543 8.8311ZM91.9945 7.30271L92.7196 8.86442C92.7189 8.86474 92.5857 8.92902 92.3562 8.92902C92.0928 8.92902 91.7711 8.84162 91.4934 8.61017C91.2389 8.3981 91.132 8.15769 91.0899 8.02759C91.048 7.89814 91.0471 7.81063 91.0471 7.79179H92.7689H94.4907C94.4907 7.42552 94.4233 6.56916 93.698 5.96468C92.8212 5.234 91.8063 5.49172 91.2694 5.74099L91.9945 7.30271ZM92.7689 7.79179H91.0471V9.27942H92.7689H94.4907V7.79179H92.7689ZM92.7689 9.27942L94.4073 9.80877C94.5329 9.42008 94.6935 9.23898 94.8223 9.14513C94.9506 9.05163 95.1868 8.94303 95.6423 8.94303V7.22119V5.49936C94.6101 5.49936 93.6236 5.75757 92.7941 6.36204C91.9651 6.96615 91.4328 7.81416 91.1304 8.75008L92.7689 9.27942ZM107.682 14.8224L105.975 15.0493L105.976 15.053L107.682 14.8224ZM104.034 16.4323L105.692 15.9661L104.789 12.7572L102.695 15.3504L104.034 16.4323ZM103.26 11.623L102.418 13.1253L105.314 14.7467L104.972 11.4458L103.26 11.623ZM107.213 11.2969L105.506 11.5208L105.506 11.5238L107.213 11.2969ZM103.565 14.9447L105.283 14.822L105.282 14.8103L105.281 14.7986L103.565 14.9447ZM103.484 13.9869L105.199 13.8409L105.196 13.8036L105.192 13.7665L103.484 13.9869ZM107.682 14.8224L105.976 15.053C106.047 15.5826 106.184 16.0558 106.409 16.4717C106.645 16.9067 106.93 17.194 107.176 17.3928C107.278 17.4751 107.386 17.551 107.409 17.5676C107.458 17.6027 107.41 17.5718 107.348 17.5111C107.271 17.4352 107.155 17.3 107.068 17.1014C106.981 16.9019 106.959 16.7208 106.959 16.5953H108.68H110.402C110.402 16.3221 110.355 16.0219 110.223 15.7212C110.092 15.4214 109.913 15.203 109.758 15.051C109.618 14.9142 109.479 14.8143 109.427 14.7769C109.385 14.7464 109.381 14.7437 109.358 14.7269C109.351 14.7217 109.346 14.7182 109.343 14.7159C109.34 14.7135 109.339 14.7125 109.339 14.7127C109.361 14.7306 109.409 14.7797 109.438 14.8333C109.457 14.8677 109.418 14.8161 109.388 14.5918L107.682 14.8224ZM108.68 16.5953H106.959C106.959 16.3212 107.042 16.0654 107.175 15.861C107.296 15.6734 107.43 15.5705 107.497 15.5261C107.609 15.4518 107.641 15.4677 107.479 15.504C107.182 15.5708 106.698 15.6071 106.133 15.6071V17.3289V19.0508C106.77 19.0508 107.56 19.0157 108.236 18.8635C108.561 18.7903 109.004 18.6597 109.406 18.3924C109.837 18.1051 110.402 17.5176 110.402 16.5953H108.68ZM106.133 17.3289V15.6071C105.856 15.6071 105.655 15.5938 105.513 15.5744C105.367 15.5547 105.32 15.5336 105.331 15.5382C105.352 15.5468 105.44 15.5893 105.534 15.6937C105.631 15.8009 105.675 15.9081 105.692 15.9661L104.034 16.4323L102.377 16.8985C102.618 17.7562 103.2 18.3771 103.995 18.7121C104.662 18.9928 105.425 19.0508 106.133 19.0508V17.3289ZM104.034 16.4323L102.695 15.3504C102.655 15.3988 102.579 15.4731 102.423 15.541C102.262 15.6109 101.982 15.6886 101.528 15.6886V17.4104V19.1323C103.258 19.1323 104.564 18.5165 105.374 17.5142L104.034 16.4323ZM101.528 17.4104V15.6886C100.675 15.6886 100.106 15.4912 99.7967 15.2657C99.5589 15.0921 99.3774 14.843 99.3774 14.3129H97.6556H95.9338C95.9338 15.9022 96.6082 17.2018 97.7664 18.0472C98.8534 18.8406 100.22 19.1323 101.528 19.1323V17.4104ZM97.6556 14.3129H99.3774C99.3774 13.8171 99.5605 13.5297 99.8255 13.3237C100.137 13.0812 100.653 12.8965 101.303 12.8965V11.1746V9.4528C100.058 9.4528 98.7502 9.79785 97.712 10.6049C96.627 11.4484 95.9338 12.7301 95.9338 14.3129H97.6556ZM101.303 11.1746V12.8965C101.866 12.8965 102.215 13.0115 102.418 13.1253L103.26 11.623L104.101 10.1206C103.285 9.66379 102.33 9.4528 101.303 9.4528V11.1746ZM103.26 11.623L104.972 11.4458C104.863 10.388 104.781 9.32719 104.58 8.6038C104.471 8.21457 104.268 7.66805 103.804 7.22549C103.278 6.72341 102.642 6.55905 102.078 6.55905V8.28088V10.0027C101.972 10.0027 101.682 9.96061 101.426 9.71581C101.232 9.53053 101.22 9.3763 101.262 9.52709C101.3 9.66286 101.342 9.89673 101.391 10.3076C101.44 10.7142 101.483 11.1833 101.547 11.8001L103.26 11.623ZM102.078 8.28088V6.55905C101.556 6.55905 101.066 6.72396 100.661 7.03262C100.289 7.31558 100.065 7.66023 99.93 7.91433C99.7039 8.33899 99.524 8.95519 99.4619 9.13516C99.3486 9.46303 99.2932 9.52229 99.3065 9.50782C99.3969 9.40911 99.5225 9.39166 99.4897 9.39166V11.1135V12.8353C100.466 12.8353 101.269 12.4638 101.846 11.834C102.346 11.2884 102.586 10.6395 102.717 10.2592C102.753 10.1552 102.786 10.0536 102.814 9.9679C102.844 9.8775 102.867 9.80543 102.89 9.73776C102.913 9.67125 102.931 9.62246 102.947 9.58524C102.954 9.56723 102.96 9.55407 102.964 9.54491C102.968 9.53572 102.97 9.53197 102.97 9.53261C102.969 9.53323 102.966 9.53977 102.959 9.55085C102.952 9.56194 102.94 9.57902 102.924 9.60027C102.891 9.64249 102.834 9.70652 102.747 9.77256C102.545 9.92632 102.299 10.0027 102.078 10.0027V8.28088ZM99.4897 11.1135V9.39166C99.3629 9.39166 99.3977 9.35611 99.4843 9.43493C99.5253 9.47221 99.5593 9.52012 99.5807 9.57032C99.6017 9.61966 99.6016 9.64977 99.6016 9.64624H97.8798H96.1579C96.1579 10.5347 96.5006 11.3759 97.1667 11.982C97.8189 12.5754 98.6587 12.8353 99.4897 12.8353V11.1135ZM97.8798 9.64624H99.6016C99.6016 9.56085 99.6185 9.54611 99.6264 9.5355C99.6508 9.50304 99.7354 9.41295 99.9566 9.30733C100.426 9.08306 101.187 8.94303 102.078 8.94303V7.22119V5.49936C100.931 5.49936 99.5925 5.66501 98.4725 6.19984C97.2901 6.76452 96.1579 7.87039 96.1579 9.64624H97.8798ZM102.078 7.22119V8.94303C104.163 8.94303 105.312 10.0397 105.506 11.5208L107.213 11.2969L108.92 11.073C108.462 7.58176 105.576 5.49936 102.078 5.49936V7.22119ZM107.213 11.2969L105.506 11.5238L105.975 15.0493L107.682 14.8224L109.389 14.5955L108.92 11.07L107.213 11.2969ZM102.832 16.2693V17.9911C104.067 17.9911 104.716 17.0686 104.957 16.5665C105.222 16.0139 105.323 15.38 105.283 14.822L103.565 14.9447L101.848 15.0673C101.847 15.0571 101.848 15.0677 101.845 15.0884C101.841 15.1102 101.838 15.1058 101.853 15.0753C101.864 15.052 101.92 14.9397 102.067 14.818C102.233 14.6797 102.5 14.5474 102.832 14.5474V16.2693ZM103.565 14.9447L105.281 14.7986L105.199 13.8409L103.484 13.9869L101.768 14.1329L101.85 15.0907L103.565 14.9447ZM103.484 13.9869L105.192 13.7665C105.091 12.9913 104.88 12.2637 104.463 11.6877C104.002 11.0519 103.302 10.6347 102.485 10.6347V12.3566V14.0784C102.302 14.0784 102.117 14.0327 101.956 13.9445C101.799 13.8585 101.711 13.7585 101.674 13.7081C101.641 13.6616 101.652 13.6605 101.681 13.7458C101.709 13.8299 101.746 13.9769 101.776 14.2072L103.484 13.9869ZM102.485 12.3566V10.6347C101.522 10.6347 100.854 11.2177 100.51 11.7917C100.181 12.3391 100.071 12.9621 100.071 13.5182H101.792H103.514C103.514 13.3813 103.546 13.4236 103.462 13.5634C103.416 13.6407 103.32 13.7696 103.145 13.8833C102.96 14.0038 102.73 14.0784 102.485 14.0784V12.3566ZM101.792 13.5182H100.071C100.071 14.3657 100.173 15.2619 100.434 16.0105C100.563 16.38 100.767 16.8206 101.106 17.1976C101.467 17.5989 102.05 17.9911 102.832 17.9911V16.2693V14.5474C103.277 14.5474 103.562 14.7791 103.665 14.8939C103.747 14.9843 103.733 15.0122 103.686 14.8773C103.595 14.6172 103.514 14.1379 103.514 13.5182H101.792ZM120.143 14.7612L118.426 14.8986L118.427 14.9013L120.143 14.7612ZM116.087 14.7612L114.368 14.8557L114.369 14.8665L116.087 14.7612ZM115.884 11.0524L117.603 10.9579L117.602 10.9488L115.884 11.0524ZM109.179 3.41041L108.488 1.83335L108.469 1.84152L108.451 1.85012L109.179 3.41041ZM112.807 1.82089L113.498 3.39795L113.5 3.39691L112.807 1.82089ZM113.642 8.01596H111.92V11.8616L114.789 9.30033L113.642 8.01596ZM119.858 11.195L118.141 11.3314L118.141 11.3323L119.858 11.195ZM120.143 14.7612L118.427 14.9013C118.501 15.809 118.855 16.4157 119.076 16.7722C119.134 16.8671 119.157 16.9014 119.188 16.9538C119.213 16.9957 119.217 17.0062 119.214 16.9996C119.201 16.9714 119.155 16.8572 119.155 16.6972H120.876H122.598C122.598 15.7869 122.087 15.0939 122.005 14.9614C121.879 14.7575 121.866 14.712 121.859 14.6212L120.143 14.7612ZM120.876 16.6972H119.155V16.7787H120.876H122.598V16.6972H120.876ZM120.876 16.7787H119.155C119.155 16.4314 119.307 16.0399 119.638 15.7662C119.933 15.5215 120.229 15.4848 120.367 15.4848V17.2067V18.9285C120.81 18.9285 121.361 18.8103 121.835 18.4179C122.344 17.9964 122.598 17.3909 122.598 16.7787H120.876ZM120.367 17.2067V15.4848H115.863V17.2067V18.9285H120.367V17.2067ZM115.863 17.2067V15.4848C116.001 15.4848 116.297 15.5215 116.593 15.7662C116.923 16.0399 117.076 16.4314 117.076 16.7787H115.354H113.632C113.632 17.3909 113.887 17.9964 114.395 18.4179C114.869 18.8103 115.42 18.9285 115.863 18.9285V17.2067ZM115.354 16.7787H117.076V16.6972H115.354H113.632V16.7787H115.354ZM115.354 16.6972H117.076C117.076 16.9259 116.997 17.0786 116.984 17.1014C116.981 17.1067 116.988 17.0942 117.022 17.0444C117.039 17.0199 117.057 16.9945 117.082 16.9581C117.106 16.9245 117.135 16.882 117.166 16.8367C117.443 16.4304 117.871 15.7154 117.806 14.656L116.087 14.7612L114.369 14.8665C114.369 14.8688 114.37 14.837 114.383 14.801C114.39 14.7822 114.389 14.7966 114.321 14.8968C114.294 14.9369 114.096 15.2088 113.97 15.4358C113.81 15.7249 113.632 16.1526 113.632 16.6972H115.354ZM116.087 14.7612L117.807 14.6668L117.603 10.9579L115.884 11.0524L114.164 11.1468L114.368 14.8557L116.087 14.7612ZM115.884 11.0524L117.602 10.9488C117.553 10.1311 117.468 9.24157 117.154 8.54106C116.975 8.14218 116.682 7.70935 116.199 7.39458C115.714 7.07866 115.199 6.98699 114.763 6.98699V8.70883V10.4307C114.724 10.4307 114.535 10.4205 114.319 10.2797C114.105 10.1401 114.023 9.97599 114.012 9.95155C114.009 9.94334 114.041 10.0167 114.077 10.2442C114.112 10.4626 114.141 10.7568 114.165 11.1559L115.884 11.0524ZM114.763 8.70883V6.98699C114.298 6.98699 113.813 7.10069 113.372 7.3813C112.938 7.65787 112.648 8.03205 112.459 8.39736C112.109 9.07363 112.043 9.8468 112.043 10.4614H113.764H115.486C115.486 10.2632 115.499 10.1219 115.515 10.0285C115.531 9.93064 115.544 9.92756 115.518 9.97808C115.487 10.0377 115.401 10.1724 115.222 10.286C115.038 10.4036 114.861 10.4307 114.763 10.4307V8.70883ZM113.764 10.4614H112.043V14.7612H113.764H115.486V10.4614H113.764ZM113.764 14.7612H112.043C112.043 15.8889 112.613 16.614 112.912 16.9714C113.028 17.1094 113.002 17.0751 113.079 17.1687C113.119 17.2163 113.125 17.2268 113.118 17.2174C113.101 17.1907 112.98 16.9977 112.98 16.6972H114.702H116.424C116.424 16.0808 116.186 15.6127 115.992 15.3199C115.833 15.0788 115.601 14.819 115.554 14.7621C115.384 14.5591 115.486 14.6322 115.486 14.7612H113.764ZM114.702 16.6972H112.98V16.7787H114.702H116.424V16.6972H114.702ZM114.702 16.7787H112.98C112.98 16.4314 113.133 16.0399 113.463 15.7662C113.758 15.5215 114.055 15.4848 114.192 15.4848V17.2067V18.9285C114.636 18.9285 115.187 18.8103 115.66 18.4179C116.169 17.9964 116.424 17.3909 116.424 16.7787H114.702ZM114.192 17.2067V15.4848H109.281V17.2067V18.9285H114.192V17.2067ZM109.281 17.2067V15.4848C109.419 15.4848 109.715 15.5215 110.01 15.7662C110.341 16.0399 110.493 16.4314 110.493 16.7787H108.772H107.05C107.05 17.3909 107.305 17.9964 107.813 18.4179C108.287 18.8103 108.838 18.9285 109.281 18.9285V17.2067ZM108.772 16.7787H110.493V16.6972H108.772H107.05V16.7787H108.772ZM108.772 16.6972H110.493C110.493 16.9977 110.373 17.1907 110.355 17.2174C110.349 17.2268 110.355 17.2163 110.394 17.1687C110.472 17.0751 110.446 17.1094 110.561 16.9714C110.86 16.614 111.431 15.8889 111.431 14.7612H109.709H107.987C107.987 14.6322 108.089 14.5591 107.92 14.7621C107.872 14.819 107.64 15.0788 107.481 15.3199C107.288 15.6127 107.05 16.0808 107.05 16.6972H108.772ZM109.709 14.7612H111.431V5.85583H109.709H107.987V14.7612H109.709ZM109.709 5.85583H111.431C111.431 5.27992 111.273 4.77761 111.017 4.35657C110.78 3.96804 110.489 3.70288 110.329 3.5611C110.287 3.52453 110.246 3.48929 110.217 3.46412C110.185 3.43617 110.163 3.41781 110.145 3.40165C110.106 3.36688 110.116 3.37214 110.141 3.40166C110.212 3.48437 110.392 3.74183 110.392 4.12366H108.67H106.948C106.948 4.82136 107.258 5.32845 107.523 5.63915C107.646 5.78266 107.769 5.8965 107.852 5.97047C107.895 6.00868 107.936 6.04473 107.968 6.07192C108.003 6.1019 108.027 6.12254 108.05 6.14329C108.149 6.23076 108.118 6.21779 108.076 6.14895C108.015 6.04759 107.987 5.93247 107.987 5.85583H109.709ZM108.67 4.12366H110.392V4.04215H108.67H106.948V4.12366H108.67ZM108.67 4.04215H110.392C110.392 4.37953 110.255 4.636 110.133 4.78272C110.021 4.916 109.923 4.96335 109.907 4.97071L109.179 3.41041L108.451 1.85012C107.885 2.11443 106.948 2.79652 106.948 4.04215H108.67ZM109.179 3.41041L109.87 4.98747L113.498 3.39795L112.807 1.82089L112.115 0.243826L108.488 1.83335L109.179 3.41041ZM112.807 1.82089L113.5 3.39691C113.498 3.3976 113.481 3.40514 113.449 3.41406C113.417 3.42288 113.364 3.43506 113.291 3.44094C113.147 3.45261 112.893 3.44075 112.613 3.29362C111.955 2.94717 111.92 2.33092 111.92 2.26922H113.642H115.364C115.364 1.69805 115.166 0.74555 114.217 0.246264C113.378 -0.195288 112.546 0.054287 112.113 0.244869L112.807 1.82089ZM113.642 2.26922H111.92V8.01596H113.642H115.364V2.26922H113.642ZM113.642 8.01596L114.789 9.30033C114.986 9.12422 115.346 8.94303 115.986 8.94303V7.22119V5.49936C114.669 5.49936 113.439 5.88877 112.495 6.73158L113.642 8.01596ZM115.986 7.22119V8.94303C116.56 8.94303 117.033 9.09416 117.363 9.37157C117.663 9.62378 118.047 10.1498 118.141 11.3314L119.858 11.195L121.574 11.0586C121.423 9.16308 120.728 7.70217 119.58 6.73676C118.463 5.79656 117.123 5.49936 115.986 5.49936V7.22119ZM119.858 11.195L118.141 11.3323L118.426 14.8986L120.143 14.7612L121.859 14.6239L121.574 11.0577L119.858 11.195ZM122.266 4.87767L120.58 4.5297L120.577 4.545L120.574 4.56035L122.266 4.87767ZM128.93 2.94171L127.571 1.88459L127.565 1.89189L128.93 2.94171ZM129.989 3.14549L131.673 3.50438L131.678 3.48364L131.682 3.46281L129.989 3.14549ZM123.448 4.99994L122.179 3.83645V3.83645L123.448 4.99994ZM131.334 14.8224L129.628 15.0493L129.628 15.053L131.334 14.8224ZM127.687 16.4323L129.344 15.9661L128.442 12.7572L126.347 15.3504L127.687 16.4323ZM126.912 11.623L126.071 13.1253L128.966 14.7467L128.625 11.4458L126.912 11.623ZM130.866 11.2969L129.159 11.5208L129.159 11.5238L130.866 11.2969ZM127.218 14.9447L128.935 14.822L128.935 14.8103L128.934 14.7986L127.218 14.9447ZM127.136 13.9869L128.852 13.8409L128.849 13.8036L128.844 13.7665L127.136 13.9869ZM122.612 5.36675V3.64492C122.864 3.64492 123.334 3.73922 123.681 4.18444C124.021 4.61851 123.985 5.05496 123.958 5.19498L122.266 4.87767L120.574 4.56035C120.486 5.02643 120.501 5.70742 120.968 6.30451C121.443 6.91276 122.116 7.08858 122.612 7.08858V5.36675ZM122.266 4.87767L123.952 5.22563C124.026 4.86789 124.193 4.56142 124.378 4.36986C124.55 4.19155 124.689 4.15407 124.793 4.15407V2.43224V0.710413C122.346 0.710413 120.933 2.81532 120.58 4.5297L122.266 4.87767ZM124.793 2.43224V4.15407C125.166 4.15407 125.487 4.26085 125.942 4.46355C126.132 4.54854 126.468 4.70765 126.76 4.81764C127.078 4.93713 127.519 5.07111 128.033 5.07111V3.34928V1.62745C128.109 1.62745 128.112 1.64679 127.972 1.59434C127.808 1.53239 127.667 1.46224 127.343 1.31797C126.769 1.06216 125.908 0.710413 124.793 0.710413V2.43224ZM128.033 3.34928V5.07111C128.436 5.07111 128.911 5.01703 129.378 4.77906C129.852 4.53721 130.137 4.19582 130.295 3.99153L128.93 2.94171L127.565 1.89189C127.518 1.95252 127.61 1.81491 127.814 1.71062C128.012 1.6102 128.139 1.62745 128.033 1.62745V3.34928ZM128.93 2.94171L130.289 3.99881C130.349 3.92215 130.261 4.05462 130.076 4.17273C129.971 4.23919 129.856 4.29016 129.737 4.32186C129.622 4.35229 129.532 4.35786 129.48 4.35786V2.63603V0.914198C129.067 0.914198 128.632 1.00963 128.227 1.26745C127.873 1.49255 127.654 1.77785 127.571 1.8846L128.93 2.94171ZM129.48 2.63603V4.35786H129.623V2.63603V0.914198H129.48V2.63603ZM129.623 2.63603V4.35786C129.448 4.35786 128.912 4.29348 128.537 3.76144C128.21 3.29792 128.29 2.86693 128.297 2.82817L129.989 3.14549L131.682 3.46281C131.75 3.09799 131.8 2.41227 131.35 1.77554C130.852 1.07029 130.103 0.914198 129.623 0.914198V2.63603ZM129.989 3.14549L128.305 2.7866C128.224 3.16768 128.055 3.50077 127.872 3.70561C127.706 3.89099 127.594 3.90984 127.524 3.90984V5.63167V7.3535C128.777 7.3535 129.767 6.7508 130.436 6.00387C131.088 5.27639 131.49 4.3664 131.673 3.50438L129.989 3.14549ZM127.524 5.63167V3.90984C127.273 3.90984 127.004 3.82219 126.456 3.57408C126.048 3.38923 125.157 2.93167 124.182 2.93167V4.6535V6.37533C124.173 6.37533 124.224 6.37357 124.38 6.42912C124.552 6.49016 124.73 6.57277 125.035 6.71109C125.568 6.95207 126.45 7.3535 127.524 7.3535V5.63167ZM124.182 4.6535V2.93167C123.357 2.93167 122.688 3.28048 122.179 3.83645L123.448 4.99994L124.717 6.16342C124.716 6.16427 124.653 6.23315 124.522 6.29446C124.382 6.35971 124.255 6.37533 124.182 6.37533V4.6535ZM123.448 4.99994L122.179 3.83645C122.079 3.94534 121.996 4.04993 121.976 4.07464C121.936 4.12464 121.999 4.03912 122.108 3.94856C122.172 3.89535 122.252 3.83989 122.346 3.7904C122.44 3.7411 122.531 3.70724 122.612 3.68467C122.691 3.66279 122.755 3.65334 122.794 3.64905C122.834 3.64484 122.857 3.64492 122.857 3.64492V5.36675V7.08858C123.032 7.08858 123.271 7.07553 123.533 7.00298C123.826 6.92157 124.084 6.78341 124.304 6.60153C124.487 6.44983 124.615 6.2879 124.649 6.24619C124.703 6.1792 124.705 6.1768 124.717 6.16342L123.448 4.99994ZM122.857 5.36675V3.64492H122.612V5.36675V7.08858H122.857V5.36675ZM131.334 14.8224L129.628 15.053C129.7 15.5826 129.837 16.0558 130.062 16.4717C130.297 16.9067 130.583 17.194 130.829 17.3928C130.931 17.4751 131.039 17.551 131.062 17.5676C131.111 17.6027 131.063 17.5718 131.001 17.5111C130.923 17.4352 130.808 17.3 130.721 17.1014C130.634 16.9019 130.611 16.7208 130.611 16.5953H132.333H134.055C134.055 16.3221 134.007 16.0219 133.876 15.7212C133.745 15.4214 133.566 15.203 133.41 15.051C133.271 14.9142 133.131 14.8143 133.08 14.7769C133.037 14.7464 133.033 14.7437 133.01 14.7269C133.003 14.7217 132.999 14.7182 132.995 14.7159C132.992 14.7135 132.991 14.7125 132.991 14.7127C133.013 14.7306 133.062 14.7797 133.091 14.8333C133.11 14.8677 133.071 14.8161 133.041 14.5918L131.334 14.8224ZM132.333 16.5953H130.611C130.611 16.3212 130.695 16.0654 130.827 15.861C130.949 15.6734 131.083 15.5705 131.15 15.5261C131.261 15.4518 131.293 15.4677 131.132 15.504C130.835 15.5708 130.351 15.6071 129.786 15.6071V17.3289V19.0508C130.423 19.0508 131.212 19.0157 131.888 18.8635C132.214 18.7903 132.657 18.6597 133.058 18.3924C133.49 18.1051 134.055 17.5176 134.055 16.5953H132.333ZM129.786 17.3289V15.6071C129.508 15.6071 129.308 15.5938 129.165 15.5744C129.02 15.5547 128.973 15.5336 128.984 15.5382C129.004 15.5468 129.092 15.5893 129.187 15.6937C129.283 15.8009 129.328 15.9081 129.344 15.9661L127.687 16.4323L126.029 16.8985C126.27 17.7562 126.852 18.3771 127.648 18.7121C128.314 18.9928 129.078 19.0508 129.786 19.0508V17.3289ZM127.687 16.4323L126.347 15.3504C126.308 15.3988 126.232 15.4731 126.075 15.541C125.915 15.6109 125.635 15.6886 125.18 15.6886V17.4104V19.1323C126.911 19.1323 128.217 18.5165 129.026 17.5142L127.687 16.4323ZM125.18 17.4104V15.6886C124.328 15.6886 123.758 15.4912 123.449 15.2657C123.211 15.0921 123.03 14.843 123.03 14.3129H121.308H119.586C119.586 15.9022 120.261 17.2018 121.419 18.0472C122.506 18.8406 123.872 19.1323 125.18 19.1323V17.4104ZM121.308 14.3129H123.03C123.03 13.8171 123.213 13.5297 123.478 13.3237C123.79 13.0812 124.306 12.8965 124.956 12.8965V11.1746V9.4528C123.711 9.4528 122.403 9.79785 121.365 10.6049C120.28 11.4484 119.586 12.7301 119.586 14.3129H121.308ZM124.956 11.1746V12.8965C125.518 12.8965 125.868 13.0115 126.071 13.1253L126.912 11.623L127.754 10.1206C126.938 9.66379 125.983 9.4528 124.956 9.4528V11.1746ZM126.912 11.623L128.625 11.4458C128.516 10.388 128.434 9.32719 128.232 8.6038C128.124 8.21457 127.92 7.66805 127.457 7.22549C126.931 6.72341 126.294 6.55905 125.73 6.55905V8.28088V10.0027C125.625 10.0027 125.335 9.96061 125.078 9.71581C124.884 9.53053 124.873 9.3763 124.915 9.52709C124.952 9.66286 124.995 9.89673 125.044 10.3076C125.092 10.7142 125.136 11.1833 125.2 11.8001L126.912 11.623ZM125.73 8.28088V6.55905C125.208 6.55905 124.719 6.72396 124.314 7.03262C123.942 7.31558 123.718 7.66023 123.583 7.91433C123.356 8.33899 123.177 8.95519 123.114 9.13516C123.001 9.46303 122.946 9.52229 122.959 9.50782C123.049 9.40911 123.175 9.39166 123.142 9.39166V11.1135V12.8353C124.118 12.8353 124.921 12.4638 125.498 11.834C125.998 11.2884 126.238 10.6395 126.37 10.2592C126.405 10.1552 126.439 10.0536 126.467 9.9679C126.496 9.8775 126.52 9.80543 126.543 9.73776C126.566 9.67125 126.584 9.62246 126.599 9.58524C126.606 9.56723 126.612 9.55407 126.616 9.54491C126.621 9.53572 126.623 9.53197 126.622 9.53261C126.622 9.53323 126.618 9.53977 126.611 9.55085C126.604 9.56194 126.593 9.57902 126.576 9.60027C126.543 9.64249 126.486 9.70652 126.4 9.77256C126.198 9.92632 125.952 10.0027 125.73 10.0027V8.28088ZM123.142 11.1135V9.39166C123.015 9.39166 123.05 9.35611 123.137 9.43493C123.178 9.47221 123.212 9.52012 123.233 9.57032C123.254 9.61966 123.254 9.64977 123.254 9.64624H121.532H119.811C119.811 10.5347 120.153 11.3759 120.819 11.982C121.471 12.5754 122.311 12.8353 123.142 12.8353V11.1135ZM121.532 9.64624H123.254C123.254 9.56085 123.271 9.54611 123.279 9.5355C123.303 9.50304 123.388 9.41295 123.609 9.30733C124.079 9.08306 124.839 8.94303 125.73 8.94303V7.22119V5.49936C124.584 5.49936 123.245 5.66501 122.125 6.19984C120.943 6.76452 119.811 7.87039 119.811 9.64624H121.532ZM125.73 7.22119V8.94303C127.816 8.94303 128.964 10.0397 129.159 11.5208L130.866 11.2969L132.573 11.073C132.115 7.58176 129.229 5.49936 125.73 5.49936V7.22119ZM130.866 11.2969L129.159 11.5238L129.628 15.0493L131.334 14.8224L133.041 14.5955L132.573 11.07L130.866 11.2969ZM126.484 16.2693V17.9911C127.72 17.9911 128.368 17.0686 128.61 16.5665C128.875 16.0139 128.975 15.38 128.935 14.822L127.218 14.9447L125.501 15.0673C125.5 15.0571 125.501 15.0677 125.497 15.0884C125.493 15.1102 125.491 15.1058 125.505 15.0753C125.517 15.052 125.573 14.9397 125.72 14.818C125.886 14.6797 126.153 14.5474 126.484 14.5474V16.2693ZM127.218 14.9447L128.934 14.7986L128.852 13.8409L127.136 13.9869L125.421 14.1329L125.502 15.0907L127.218 14.9447ZM127.136 13.9869L128.844 13.7665C128.744 12.9913 128.533 12.2637 128.116 11.6877C127.655 11.0519 126.954 10.6347 126.138 10.6347V12.3566V14.0784C125.954 14.0784 125.77 14.0327 125.608 13.9445C125.451 13.8585 125.363 13.7585 125.327 13.7081C125.293 13.6616 125.305 13.6605 125.333 13.7458C125.362 13.8299 125.399 13.9769 125.429 14.2072L127.136 13.9869ZM126.138 12.3566V10.6347C125.174 10.6347 124.507 11.2177 124.162 11.7917C123.834 12.3391 123.723 12.9621 123.723 13.5182H125.445H127.167C127.167 13.3813 127.199 13.4236 127.115 13.5634C127.069 13.6407 126.972 13.7696 126.798 13.8833C126.613 14.0038 126.382 14.0784 126.138 14.0784V12.3566ZM125.445 13.5182H123.723C123.723 14.3657 123.826 15.2619 124.087 16.0105C124.215 16.38 124.419 16.8206 124.758 17.1976C125.12 17.5989 125.703 17.9911 126.484 17.9911V16.2693V14.5474C126.929 14.5474 127.215 14.7791 127.318 14.8939C127.399 14.9843 127.385 15.0122 127.338 14.8773C127.248 14.6172 127.167 14.1379 127.167 13.5182H125.445ZM137.972 17.4104V15.6886C135.674 15.6886 134.009 14.1691 134.009 12.3158H132.287H130.565C130.565 16.5761 134.32 19.1323 137.972 19.1323V17.4104ZM132.287 12.3158H134.009C134.009 10.4626 135.674 8.94303 137.972 8.94303V7.22119V5.49936C134.32 5.49936 130.565 8.0555 130.565 12.3158H132.287ZM137.972 7.22119V8.94303C140.279 8.94303 141.916 10.4518 141.916 12.3158H143.638H145.359C145.359 8.06625 141.658 5.49936 137.972 5.49936V7.22119ZM143.638 12.3158H141.916C141.916 14.1798 140.279 15.6886 137.972 15.6886V17.4104V19.1323C141.658 19.1323 145.359 16.5654 145.359 12.3158H143.638ZM138.462 16.31V18.0318C138.985 18.0318 139.542 17.8866 140.024 17.5037C140.481 17.1396 140.725 16.6757 140.859 16.2958C141.103 15.6053 141.121 14.7868 141.121 14.1703H139.399H137.677C137.677 14.4708 137.67 14.704 137.653 14.8871C137.635 15.0782 137.612 15.1485 137.613 15.1474C137.615 15.142 137.674 14.9722 137.88 14.8087C138.109 14.6264 138.346 14.5882 138.462 14.5882V16.31ZM139.399 14.1703H141.121C141.121 13.4669 140.945 11.86 140.572 10.412C140.387 9.69083 140.122 8.88399 139.736 8.21901C139.41 7.658 138.645 6.5998 137.28 6.5998V8.32163V10.0435C136.668 10.0435 136.545 9.58134 136.758 9.94819C136.911 10.2111 137.081 10.6639 137.237 11.2698C137.547 12.4762 137.677 13.7936 137.677 14.1703H139.399ZM137.28 8.32163V6.5998C136.79 6.5998 136.24 6.72473 135.753 7.09866C135.283 7.45937 135.034 7.92727 134.899 8.31329C134.657 9.00177 134.641 9.83765 134.641 10.5021H136.363H138.084C138.084 10.168 138.092 9.91492 138.109 9.71974C138.127 9.51548 138.15 9.44749 138.147 9.45589C138.141 9.47254 138.073 9.65897 137.849 9.83055C137.608 10.0153 137.372 10.0435 137.28 10.0435V8.32163ZM136.363 10.5021H134.641C134.641 11.3105 134.815 12.9095 135.189 14.3329C135.375 15.0393 135.64 15.8257 136.031 16.4742C136.371 17.0394 137.136 18.0318 138.462 18.0318V16.31V14.5882C139.043 14.5882 139.174 15.0176 138.981 14.6977C138.838 14.4609 138.673 14.0399 138.519 13.4574C138.216 12.3029 138.084 10.998 138.084 10.5021H136.363Z" fill="#FFF6EF" mask="url(#path-1-outside-1_17104_397)"/>
</svg>
