<svg width="83" height="21" viewBox="0 0 83 21" fill="none" xmlns="http://www.w3.org/2000/svg">
<path d="M81.4592 17.8291C82.1948 17.8291 82.7895 18.3799 82.7895 19.1346C82.7895 19.8892 82.1957 20.4401 81.4592 20.4401C80.7227 20.4401 80.1238 19.8892 80.1238 19.1346C80.1238 18.3799 80.7287 17.8291 81.4592 17.8291ZM82.5169 19.1346C82.5169 18.5284 82.0539 18.0829 81.4592 18.0829C80.8645 18.0829 80.3964 18.5233 80.3964 19.1346C80.3964 19.7459 80.8705 20.1811 81.4592 20.1811C82.0479 20.1811 82.5169 19.7347 82.5169 19.1346ZM81.9932 19.6026C81.9983 19.6854 82.0205 19.7571 82.059 19.8176H81.8138C81.7864 19.7787 81.7651 19.707 81.7591 19.6026L81.748 19.4592C81.7318 19.3047 81.6933 19.2555 81.5575 19.2555H81.1815V19.8176H80.9415V18.4188H81.5301C81.83 18.4188 82.0154 18.5621 82.0154 18.8099C82.0154 18.9697 81.9505 19.0802 81.8138 19.1406C81.912 19.1795 81.9667 19.2675 81.977 19.3996L81.9932 19.6034V19.6026ZM81.5515 19.0353C81.6984 19.0353 81.7693 18.9688 81.7693 18.8367C81.7693 18.7046 81.6873 18.6381 81.5293 18.6381H81.1807V19.0344H81.5515V19.0353Z" fill="#FFF6EF"/>
<path d="M14.1607 14.074C14.1607 14.3995 14.0146 14.5471 13.6924 14.5471H12.727C11.9367 14.5471 11.3224 15.1973 11.3224 15.996V16.9423C11.3224 17.2678 11.1472 17.4155 10.8243 17.4155H9.91775C9.1283 17.4155 8.48409 18.0656 8.48409 18.8643V20.2242C8.48409 20.5497 8.33799 20.6974 8.01588 20.6974H6.11401C5.79191 20.6974 5.64581 20.5497 5.64581 20.2242V18.8643C5.64581 18.0656 5.03065 17.4155 4.24119 17.4155H3.30478C2.98267 17.4155 2.83657 17.2678 2.83657 16.9423V15.996C2.83657 15.1973 2.19322 14.5471 1.40291 14.5471H0.468205C0.146101 14.5471 0 14.3995 0 14.074V0.473162C0 0.147647 0.146101 0 0.468205 0H2.34103C2.66313 0 2.80923 0.147647 2.80923 0.473162V13.1276C2.80923 13.9263 3.45344 14.5765 4.2429 14.5765H4.97426C5.29636 14.5765 5.44246 14.7241 5.44246 15.0497V16.3802C5.44246 17.1789 6.08667 17.829 6.87613 17.829H7.25633C8.04579 17.829 8.69 17.1789 8.69 16.3802V15.0497C8.69 14.7241 8.8361 14.5765 9.1582 14.5765H9.88956C10.679 14.5765 11.3232 13.9263 11.3232 13.1276V0.473162C11.3232 0.147647 11.4693 0 11.7914 0H13.6933C14.0154 0 14.1615 0.147647 14.1615 0.473162V14.074H14.1607Z" fill="#FFF6EF"/>
<path d="M30.5855 20.2242C30.5855 20.5497 30.4394 20.6974 30.1173 20.6974H25.5822C25.2601 20.6974 25.114 20.5497 25.114 20.2242V18.8643C25.114 18.0656 24.4706 17.4448 23.6803 17.4448H23.3001C22.5098 17.4448 21.8955 18.0656 21.8955 18.8643V20.2242C21.8955 20.5497 21.7203 20.6974 21.3974 20.6974H16.8922C16.5701 20.6974 16.424 20.5497 16.424 20.2242V18.3022C16.424 17.9767 16.5701 17.829 16.8922 17.829H20.666C21.4563 17.829 22.0706 17.2082 22.0706 16.4096V4.28695C22.0706 3.48827 21.4563 2.86746 20.666 2.86746H16.8922C16.5701 2.86746 16.424 2.69046 16.424 2.36495V0.473162C16.424 0.147647 16.5701 0 16.8922 0H21.3974C21.7195 0 21.8955 0.147647 21.8955 0.473162V1.83307C21.8955 2.63175 22.5098 3.25256 23.3001 3.25256H23.6803C24.4706 3.25256 25.114 2.63175 25.114 1.83307V0.473162C25.114 0.147647 25.2601 0 25.5822 0H30.1173C30.4394 0 30.5855 0.147647 30.5855 0.473162V2.36581C30.5855 2.69132 30.4394 2.86833 30.1173 2.86833H26.3434C25.5531 2.86833 24.9098 3.48914 24.9098 4.28781V16.4104C24.9098 17.2091 25.5531 17.8299 26.3434 17.8299H30.1173C30.4394 17.8299 30.5855 17.9776 30.5855 18.3031V20.2251V20.2242Z" fill="#FFF6EF"/>
<path d="M36.0672 11.7677C35.7451 11.7677 35.599 11.6201 35.599 11.2946V9.93467C35.599 9.13599 34.9838 8.51518 34.1943 8.51518H33.9901C33.1998 8.51518 32.5855 7.89438 32.5855 7.0957V4.67118C32.5855 3.39934 33.0247 2.30537 33.9312 1.38927C34.8377 0.472298 35.9211 0 37.1787 0H42.1231C43.3816 0 44.4633 0.473162 45.3706 1.38927C46.2771 2.30537 46.7453 3.39934 46.7453 4.67118V6.12002C46.7453 6.44553 46.5992 6.59318 46.2771 6.59318H44.3753C44.0531 6.59318 43.907 6.44553 43.907 6.12002V2.86746H35.3931V7.47993C35.3931 8.2786 36.0373 8.89941 36.8267 8.89941H43.2346C43.5567 8.89941 43.7028 9.07642 43.7028 9.40193V10.7325C43.7028 11.5312 44.3462 12.1813 45.1365 12.1813H45.3117C46.102 12.1813 46.7453 12.8021 46.7453 13.6008V16.0253C46.7453 17.2963 46.2771 18.4205 45.3706 19.3366C44.4633 20.2536 43.3807 20.6965 42.1231 20.6965H37.1787C35.9202 20.6965 34.8377 20.2527 33.9312 19.3366C33.0247 18.4205 32.5855 17.2963 32.5855 16.0253V14.5765C32.5855 14.251 32.7316 14.1033 33.0537 14.1033H34.9266C35.2487 14.1033 35.3948 14.251 35.3948 14.5765V17.829H43.9087V13.2166C43.9087 12.4179 43.2654 11.7677 42.4751 11.7677H36.0672Z" fill="#FFF6EF"/>
<path d="M49.0103 0.473162C49.0103 0.147647 49.1564 0 49.4785 0H51.3514C51.6735 0 51.8196 0.147647 51.8196 0.473162V1.62671C51.8196 2.42539 52.4638 3.04619 53.2532 3.04619H53.9846C54.3067 3.04619 54.4827 3.22406 54.4827 3.54871V4.87926C54.4827 5.67794 55.097 6.32811 55.8873 6.32811H56.2675C57.0578 6.32811 57.7012 5.67794 57.7012 4.87926V3.54871C57.7012 3.2232 57.8473 3.04619 58.1694 3.04619H58.9007C59.6911 3.04619 60.3344 2.42539 60.3344 1.62671V0.473162C60.3344 0.147647 60.4805 0 60.8026 0H62.7045C63.0266 0 63.1727 0.147647 63.1727 0.473162V20.2242C63.1727 20.5497 63.0266 20.6974 62.7045 20.6974H60.8026C60.4805 20.6974 60.3344 20.5497 60.3344 20.2242V5.91366H58.9306C58.1403 5.91366 57.497 6.56382 57.497 7.3625V11.2946C57.497 11.6201 57.3509 11.7677 57.0288 11.7677H55.1269C54.8048 11.7677 54.6587 11.6201 54.6587 11.2946V7.3625C54.6587 6.56382 54.0444 5.91366 53.2541 5.91366H51.8204V20.2242C51.8204 20.5497 51.6743 20.6974 51.3522 20.6974H49.4794C49.1573 20.6974 49.0112 20.5497 49.0112 20.2242V0.473162H49.0103Z" fill="#FFF6EF"/>
<path d="M74.9727 0C76.2312 0 77.3129 0.473162 78.2202 1.38927C79.1267 2.30537 79.5949 3.39934 79.5949 4.67118V16.0253C79.5949 17.2963 79.1267 18.4205 78.2202 19.3366C77.3129 20.2536 76.2303 20.6965 74.9727 20.6965H70.0283C68.7698 20.6965 67.6873 20.2527 66.7808 19.3366C65.8743 18.4205 65.4351 17.2963 65.4351 16.0253V4.49417C65.4351 3.6955 66.0494 3.04533 66.8397 3.04533H67.22C68.0103 3.04533 68.6536 2.42452 68.6536 1.62585V0.473162C68.6536 0.147647 68.7997 0 69.1218 0H74.9735H74.9727ZM76.7575 2.86833H69.6772C68.8877 2.86833 68.2435 3.48914 68.2435 4.28781V17.8299H76.7575V2.86833Z" fill="#FFF6EF"/>
</svg>
