<svg width="512" height="512" viewBox="0 0 512 512" fill="none" xmlns="http://www.w3.org/2000/svg">
<rect width="512" height="512" fill="#FFF6EE"/>
<path d="M252.851 405.636C177.295 371.829 36.9718 279.014 72.0992 181.152C96.5394 119.451 160.392 122.025 209.018 153.206C227.039 164.706 243.536 179.171 254.884 197.276C255.341 198.021 255.104 199.004 254.359 199.461C253.783 199.817 253.055 199.749 252.547 199.343C244.451 193.025 235.982 187.554 227.243 182.71C199.246 167.332 152.906 149.395 123.114 165.756C109.716 173.276 101.807 189.214 99.1815 204.119C92.8809 247.461 134.14 293.462 162.611 322.678C191.167 351.437 222.822 377.249 254.579 402.824C255.29 403.4 255.409 404.45 254.833 405.162C254.342 405.771 253.529 405.941 252.851 405.636Z" fill="#0B6FB5"/>
<path d="M252.299 197.295C281.194 143.774 351.567 74.2303 413.286 122.247C436.473 140.844 447.787 163.167 445.771 193.179C441.673 240.484 406.85 282.082 374.839 314.347C338.763 349.711 297.877 379.673 254.704 405.536C253.925 405.993 252.926 405.739 252.452 404.96C252.062 404.299 252.181 403.47 252.706 402.961C268.474 387.21 284.48 372.001 300.011 356.435C330.447 325.796 360.629 294.276 384.967 258.573C400.312 235.149 416.809 206.644 412.558 178.308C411.05 169.975 407.612 162.659 402.853 155.545C376.008 118.03 336.307 134.848 304.55 156.849C287.071 169.044 270.625 183.627 255.111 199.344C253.79 200.801 251.3 199.073 252.283 197.295H252.299Z" fill="#0B6FB5"/>
<path d="M253.717 233.829C253.717 233.829 296.094 182.95 321.584 209.05C368.923 257.524 253.717 336.467 253.717 336.467C253.717 336.467 138.918 257.287 186.24 209.05C211.883 182.899 253.717 233.829 253.717 233.829Z" fill="#EF7D25"/>
</svg>
