<?xml version="1.0" encoding="UTF-8"?><svg id="Camada_2" xmlns="http://www.w3.org/2000/svg" viewBox="0 0 160 197.46"><defs><style>.cls-1{fill:#ebe4d7;}</style></defs><g id="Layer_2"><g id="Ingresso_branco"><path class="cls-1" d="M149,0H11C4.92,0,0,4.92,0,11v175.44c0,9.84,11.93,14.73,18.83,7.72l32.39-32.86c.65-1.09,1.81-1.75,3.07-1.75,11.23,0,70.06-.29,94.76-.41,6.05-.03,10.94-4.95,10.94-11V11c0-6.08-4.92-11-11-11ZM74.47,42.41h15.06v48.43c-.27-.1-.64-.26-1.07-.46-4.27-1.94-9.14-1.77-13.39.22-.21.1-.41.18-.6.26v-48.45ZM82.93,114.84c-.31.04-.61.06-.92.06h0c-4.66,0-8.43-3.77-8.43-8.43s3.77-8.42,8.43-8.43h0c.31,0,.61.02.92.06,4.21.45,7.5,4.02,7.5,8.37s-3.29,7.92-7.5,8.37Z"/></g></g></svg>