<svg width="160" height="198" viewBox="0 0 160 198" fill="none" xmlns="http://www.w3.org/2000/svg">
<g clip-path="url(#clip0_17115_297)">
<mask id="path-1-inside-1_17115_297" fill="white">
<path d="M145.17 14.83V144.32C119.02 144.45 65.99 144.71 54.62 144.71H54.29C48.68 144.71 43.36 147.32 39.9 151.65L14.82 177.09V14.83H145.16M149 0H11C4.93 0 0 4.92 0 11V186.44C0 193.08 5.43 197.46 11.08 197.46C13.81 197.46 16.59 196.44 18.83 194.16L51.22 161.3C51.87 160.21 53.03 159.55 54.29 159.55C54.39 159.55 54.5 159.55 54.61 159.55C66.6 159.55 124.57 159.26 149.05 159.14C155.1 159.11 159.99 154.19 159.99 148.14V11C159.99 4.92 155.07 0 148.99 0H149Z"/>
</mask>
<path d="M145.17 14.83V144.32C119.02 144.45 65.99 144.71 54.62 144.71H54.29C48.68 144.71 43.36 147.32 39.9 151.65L14.82 177.09V14.83H145.16M149 0H11C4.93 0 0 4.92 0 11V186.44C0 193.08 5.43 197.46 11.08 197.46C13.81 197.46 16.59 196.44 18.83 194.16L51.22 161.3C51.87 160.21 53.03 159.55 54.29 159.55C54.39 159.55 54.5 159.55 54.61 159.55C66.6 159.55 124.57 159.26 149.05 159.14C155.1 159.11 159.99 154.19 159.99 148.14V11C159.99 4.92 155.07 0 148.99 0H149Z" fill="#FFF6EE"/>
<path d="M145.17 144.32L145.175 145.32L146.17 145.315V144.32H145.17ZM39.9 151.65L40.6121 152.352L40.6487 152.315L40.6812 152.274L39.9 151.65ZM14.82 177.09H13.82V179.529L15.5321 177.792L14.82 177.09ZM14.82 14.83V13.83H13.82V14.83H14.82ZM18.83 194.16L18.1178 193.458L18.1167 193.459L18.83 194.16ZM51.22 161.3L51.9322 162.002L52.017 161.916L52.0789 161.812L51.22 161.3ZM149.05 159.14L149.055 160.14H149.055L149.05 159.14ZM145.17 14.83H144.17V144.32H145.17H146.17V14.83H145.17ZM145.17 144.32L145.165 143.32C119.013 143.45 65.9867 143.71 54.62 143.71V144.71V145.71C65.9933 145.71 119.027 145.45 145.175 145.32L145.17 144.32ZM54.62 144.71V143.71H54.29V144.71V145.71H54.62V144.71ZM54.29 144.71V143.71C48.3718 143.71 42.7659 146.462 39.1188 151.026L39.9 151.65L40.6812 152.274C43.9541 148.178 48.9882 145.71 54.29 145.71V144.71ZM39.9 151.65L39.1879 150.948L14.1079 176.388L14.82 177.09L15.5321 177.792L40.6121 152.352L39.9 151.65ZM14.82 177.09H15.82V14.83H14.82H13.82V177.09H14.82ZM14.82 14.83V15.83H145.16V14.83V13.83H14.82V14.83ZM149 0V-1H11V0V1H149V0ZM11 0V-1C4.37831 -1 -1 4.36712 -1 11H0H1C1 5.47288 5.48169 1 11 1V0ZM0 11H-1V186.44H0H1V11H0ZM0 186.44H-1C-1 193.697 4.94441 198.46 11.08 198.46V197.46V196.46C5.91559 196.46 1 192.463 1 186.44H0ZM11.08 197.46V198.46C14.0669 198.46 17.1075 197.34 19.5433 194.861L18.83 194.16L18.1167 193.459C16.0725 195.54 13.5531 196.46 11.08 196.46V197.46ZM18.83 194.16L19.5422 194.862L51.9322 162.002L51.22 161.3L50.5078 160.598L18.1178 193.458L18.83 194.16ZM51.22 161.3L52.0789 161.812C52.5495 161.023 53.3843 160.55 54.29 160.55V159.55V158.55C52.6757 158.55 51.1905 159.397 50.3611 160.788L51.22 161.3ZM54.29 159.55V160.55C54.2902 160.55 54.2904 160.55 54.2906 160.55C54.2908 160.55 54.291 160.55 54.2912 160.55C54.2914 160.55 54.2916 160.55 54.2918 160.55C54.292 160.55 54.2922 160.55 54.2923 160.55C54.2925 160.55 54.2927 160.55 54.2929 160.55C54.2931 160.55 54.2933 160.55 54.2935 160.55C54.2937 160.55 54.2939 160.55 54.2941 160.55C54.2943 160.55 54.2945 160.55 54.2947 160.55C54.2949 160.55 54.2951 160.55 54.2953 160.55C54.2955 160.55 54.2957 160.55 54.2959 160.55C54.2961 160.55 54.2963 160.55 54.2965 160.55C54.2967 160.55 54.2969 160.55 54.297 160.55C54.2972 160.55 54.2974 160.55 54.2976 160.55C54.2978 160.55 54.298 160.55 54.2982 160.55C54.2984 160.55 54.2986 160.55 54.2988 160.55C54.299 160.55 54.2992 160.55 54.2994 160.55C54.2996 160.55 54.2998 160.55 54.3 160.55C54.3002 160.55 54.3004 160.55 54.3006 160.55C54.3008 160.55 54.301 160.55 54.3012 160.55C54.3014 160.55 54.3016 160.55 54.3018 160.55C54.302 160.55 54.3022 160.55 54.3024 160.55C54.3026 160.55 54.3027 160.55 54.3029 160.55C54.3031 160.55 54.3033 160.55 54.3035 160.55C54.3037 160.55 54.3039 160.55 54.3041 160.55C54.3043 160.55 54.3045 160.55 54.3047 160.55C54.3049 160.55 54.3051 160.55 54.3053 160.55C54.3055 160.55 54.3057 160.55 54.3059 160.55C54.3061 160.55 54.3063 160.55 54.3065 160.55C54.3067 160.55 54.3069 160.55 54.3071 160.55C54.3073 160.55 54.3075 160.55 54.3077 160.55C54.3079 160.55 54.3081 160.55 54.3083 160.55C54.3085 160.55 54.3087 160.55 54.3089 160.55C54.3091 160.55 54.3093 160.55 54.3095 160.55C54.3097 160.55 54.3099 160.55 54.3101 160.55C54.3102 160.55 54.3104 160.55 54.3106 160.55C54.3108 160.55 54.311 160.55 54.3112 160.55C54.3114 160.55 54.3116 160.55 54.3118 160.55C54.312 160.55 54.3122 160.55 54.3124 160.55C54.3126 160.55 54.3128 160.55 54.313 160.55C54.3132 160.55 54.3134 160.55 54.3136 160.55C54.3138 160.55 54.314 160.55 54.3142 160.55C54.3144 160.55 54.3146 160.55 54.3148 160.55C54.315 160.55 54.3152 160.55 54.3154 160.55C54.3156 160.55 54.3158 160.55 54.316 160.55C54.3162 160.55 54.3164 160.55 54.3166 160.55C54.3168 160.55 54.317 160.55 54.3172 160.55C54.3174 160.55 54.3176 160.55 54.3178 160.55C54.318 160.55 54.3182 160.55 54.3184 160.55C54.3186 160.55 54.3188 160.55 54.319 160.55C54.3192 160.55 54.3194 160.55 54.3196 160.55C54.3198 160.55 54.32 160.55 54.3202 160.55C54.3204 160.55 54.3206 160.55 54.3208 160.55C54.321 160.55 54.3212 160.55 54.3214 160.55C54.3216 160.55 54.3218 160.55 54.322 160.55C54.3222 160.55 54.3224 160.55 54.3226 160.55C54.3228 160.55 54.323 160.55 54.3232 160.55C54.3234 160.55 54.3236 160.55 54.3238 160.55C54.324 160.55 54.3242 160.55 54.3244 160.55C54.3246 160.55 54.3248 160.55 54.325 160.55C54.3252 160.55 54.3254 160.55 54.3256 160.55C54.3258 160.55 54.326 160.55 54.3262 160.55C54.3264 160.55 54.3265 160.55 54.3268 160.55C54.327 160.55 54.3272 160.55 54.3274 160.55C54.3275 160.55 54.3278 160.55 54.3279 160.55C54.3282 160.55 54.3284 160.55 54.3285 160.55C54.3288 160.55 54.3289 160.55 54.3292 160.55C54.3293 160.55 54.3296 160.55 54.3298 160.55C54.3299 160.55 54.3302 160.55 54.3303 160.55C54.3306 160.55 54.3307 160.55 54.331 160.55C54.3312 160.55 54.3314 160.55 54.3316 160.55C54.3318 160.55 54.332 160.55 54.3322 160.55C54.3324 160.55 54.3326 160.55 54.3328 160.55C54.333 160.55 54.3332 160.55 54.3334 160.55C54.3336 160.55 54.3338 160.55 54.334 160.55C54.3342 160.55 54.3344 160.55 54.3346 160.55C54.3348 160.55 54.335 160.55 54.3352 160.55C54.3354 160.55 54.3356 160.55 54.3358 160.55C54.336 160.55 54.3362 160.55 54.3364 160.55C54.3366 160.55 54.3368 160.55 54.337 160.55C54.3372 160.55 54.3374 160.55 54.3376 160.55C54.3378 160.55 54.338 160.55 54.3382 160.55C54.3384 160.55 54.3386 160.55 54.3388 160.55C54.339 160.55 54.3392 160.55 54.3394 160.55C54.3396 160.55 54.3398 160.55 54.34 160.55C54.3402 160.55 54.3404 160.55 54.3406 160.55C54.3408 160.55 54.341 160.55 54.3412 160.55C54.3414 160.55 54.3416 160.55 54.3418 160.55C54.342 160.55 54.3422 160.55 54.3424 160.55C54.3426 160.55 54.3428 160.55 54.343 160.55C54.3432 160.55 54.3434 160.55 54.3436 160.55C54.3438 160.55 54.344 160.55 54.3442 160.55C54.3444 160.55 54.3446 160.55 54.3448 160.55C54.345 160.55 54.3452 160.55 54.3454 160.55C54.3456 160.55 54.3458 160.55 54.346 160.55C54.3462 160.55 54.3464 160.55 54.3466 160.55C54.3468 160.55 54.347 160.55 54.3472 160.55C54.3474 160.55 54.3476 160.55 54.3478 160.55C54.348 160.55 54.3483 160.55 54.3485 160.55C54.3487 160.55 54.3489 160.55 54.3491 160.55C54.3493 160.55 54.3495 160.55 54.3497 160.55C54.3499 160.55 54.3501 160.55 54.3503 160.55C54.3505 160.55 54.3507 160.55 54.3509 160.55C54.3511 160.55 54.3513 160.55 54.3515 160.55C54.3517 160.55 54.3519 160.55 54.3521 160.55C54.3523 160.55 54.3525 160.55 54.3527 160.55C54.3529 160.55 54.3531 160.55 54.3533 160.55C54.3535 160.55 54.3537 160.55 54.3539 160.55C54.3541 160.55 54.3543 160.55 54.3545 160.55C54.3547 160.55 54.3549 160.55 54.3551 160.55C54.3553 160.55 54.3555 160.55 54.3557 160.55C54.3559 160.55 54.3561 160.55 54.3563 160.55C54.3566 160.55 54.3568 160.55 54.357 160.55C54.3572 160.55 54.3574 160.55 54.3576 160.55C54.3578 160.55 54.358 160.55 54.3582 160.55C54.3584 160.55 54.3586 160.55 54.3588 160.55C54.359 160.55 54.3592 160.55 54.3594 160.55C54.3596 160.55 54.3598 160.55 54.36 160.55C54.3602 160.55 54.3604 160.55 54.3606 160.55C54.3608 160.55 54.361 160.55 54.3612 160.55C54.3614 160.55 54.3616 160.55 54.3618 160.55C54.362 160.55 54.3622 160.55 54.3624 160.55C54.3626 160.55 54.3629 160.55 54.3631 160.55C54.3633 160.55 54.3635 160.55 54.3637 160.55C54.3639 160.55 54.3641 160.55 54.3643 160.55C54.3645 160.55 54.3647 160.55 54.3649 160.55C54.3651 160.55 54.3653 160.55 54.3655 160.55C54.3657 160.55 54.3659 160.55 54.3661 160.55C54.3663 160.55 54.3665 160.55 54.3667 160.55C54.3669 160.55 54.3671 160.55 54.3673 160.55C54.3675 160.55 54.3677 160.55 54.3679 160.55C54.3681 160.55 54.3684 160.55 54.3686 160.55C54.3688 160.55 54.369 160.55 54.3692 160.55C54.3694 160.55 54.3696 160.55 54.3698 160.55C54.37 160.55 54.3702 160.55 54.3704 160.55C54.3706 160.55 54.3708 160.55 54.371 160.55C54.3712 160.55 54.3714 160.55 54.3716 160.55C54.3718 160.55 54.372 160.55 54.3722 160.55C54.3724 160.55 54.3726 160.55 54.3728 160.55C54.373 160.55 54.3733 160.55 54.3735 160.55C54.3737 160.55 54.3739 160.55 54.3741 160.55C54.3743 160.55 54.3745 160.55 54.3747 160.55C54.3749 160.55 54.3751 160.55 54.3753 160.55C54.3755 160.55 54.3757 160.55 54.3759 160.55C54.3761 160.55 54.3763 160.55 54.3765 160.55C54.3767 160.55 54.3769 160.55 54.3771 160.55C54.3773 160.55 54.3776 160.55 54.3778 160.55C54.378 160.55 54.3782 160.55 54.3784 160.55C54.3786 160.55 54.3788 160.55 54.379 160.55C54.3792 160.55 54.3794 160.55 54.3796 160.55C54.3798 160.55 54.38 160.55 54.3802 160.55C54.3804 160.55 54.3806 160.55 54.3808 160.55C54.381 160.55 54.3812 160.55 54.3814 160.55C54.3817 160.55 54.3819 160.55 54.3821 160.55C54.3823 160.55 54.3825 160.55 54.3827 160.55C54.3829 160.55 54.3831 160.55 54.3833 160.55C54.3835 160.55 54.3837 160.55 54.3839 160.55C54.3841 160.55 54.3843 160.55 54.3845 160.55C54.3847 160.55 54.3849 160.55 54.3851 160.55C54.3853 160.55 54.3856 160.55 54.3858 160.55C54.386 160.55 54.3862 160.55 54.3864 160.55C54.3866 160.55 54.3868 160.55 54.387 160.55C54.3872 160.55 54.3874 160.55 54.3876 160.55C54.3878 160.55 54.388 160.55 54.3882 160.55C54.3884 160.55 54.3886 160.55 54.3888 160.55C54.389 160.55 54.3893 160.55 54.3895 160.55C54.3897 160.55 54.3899 160.55 54.3901 160.55C54.3903 160.55 54.3905 160.55 54.3907 160.55C54.3909 160.55 54.3911 160.55 54.3913 160.55C54.3915 160.55 54.3917 160.55 54.3919 160.55C54.3921 160.55 54.3923 160.55 54.3926 160.55C54.3928 160.55 54.393 160.55 54.3932 160.55C54.3934 160.55 54.3936 160.55 54.3938 160.55C54.394 160.55 54.3942 160.55 54.3944 160.55C54.3946 160.55 54.3948 160.55 54.395 160.55C54.3952 160.55 54.3954 160.55 54.3956 160.55C54.3959 160.55 54.3961 160.55 54.3963 160.55C54.3965 160.55 54.3967 160.55 54.3969 160.55C54.3971 160.55 54.3973 160.55 54.3975 160.55C54.3977 160.55 54.3979 160.55 54.3981 160.55C54.3983 160.55 54.3985 160.55 54.3987 160.55C54.3989 160.55 54.3992 160.55 54.3994 160.55C54.3996 160.55 54.3998 160.55 54.4 160.55C54.4002 160.55 54.4004 160.55 54.4006 160.55C54.4008 160.55 54.401 160.55 54.4012 160.55C54.4014 160.55 54.4016 160.55 54.4018 160.55C54.4021 160.55 54.4023 160.55 54.4025 160.55C54.4027 160.55 54.4029 160.55 54.4031 160.55C54.4033 160.55 54.4035 160.55 54.4037 160.55C54.4039 160.55 54.4041 160.55 54.4043 160.55C54.4045 160.55 54.4047 160.55 54.4049 160.55C54.4052 160.55 54.4054 160.55 54.4056 160.55C54.4058 160.55 54.406 160.55 54.4062 160.55C54.4064 160.55 54.4066 160.55 54.4068 160.55C54.407 160.55 54.4072 160.55 54.4074 160.55C54.4076 160.55 54.4079 160.55 54.4081 160.55C54.4083 160.55 54.4085 160.55 54.4087 160.55C54.4089 160.55 54.4091 160.55 54.4093 160.55C54.4095 160.55 54.4097 160.55 54.4099 160.55C54.4101 160.55 54.4103 160.55 54.4105 160.55C54.4108 160.55 54.411 160.55 54.4112 160.55C54.4114 160.55 54.4116 160.55 54.4118 160.55C54.412 160.55 54.4122 160.55 54.4124 160.55C54.4126 160.55 54.4128 160.55 54.413 160.55C54.4132 160.55 54.4135 160.55 54.4137 160.55C54.4139 160.55 54.4141 160.55 54.4143 160.55C54.4145 160.55 54.4147 160.55 54.4149 160.55C54.4151 160.55 54.4153 160.55 54.4155 160.55C54.4157 160.55 54.4159 160.55 54.4162 160.55C54.4164 160.55 54.4166 160.55 54.4168 160.55C54.417 160.55 54.4172 160.55 54.4174 160.55C54.4176 160.55 54.4178 160.55 54.418 160.55C54.4182 160.55 54.4184 160.55 54.4187 160.55C54.4189 160.55 54.4191 160.55 54.4193 160.55C54.4195 160.55 54.4197 160.55 54.4199 160.55C54.4201 160.55 54.4203 160.55 54.4205 160.55C54.4207 160.55 54.4209 160.55 54.4212 160.55C54.4214 160.55 54.4216 160.55 54.4218 160.55C54.422 160.55 54.4222 160.55 54.4224 160.55C54.4226 160.55 54.4228 160.55 54.423 160.55C54.4232 160.55 54.4234 160.55 54.4237 160.55C54.4239 160.55 54.4241 160.55 54.4243 160.55C54.4245 160.55 54.4247 160.55 54.4249 160.55C54.4251 160.55 54.4253 160.55 54.4255 160.55C54.4257 160.55 54.4259 160.55 54.4262 160.55C54.4264 160.55 54.4266 160.55 54.4268 160.55C54.427 160.55 54.4272 160.55 54.4274 160.55C54.4276 160.55 54.4278 160.55 54.428 160.55C54.4282 160.55 54.4285 160.55 54.4287 160.55C54.4289 160.55 54.4291 160.55 54.4293 160.55C54.4295 160.55 54.4297 160.55 54.4299 160.55C54.4301 160.55 54.4303 160.55 54.4305 160.55C54.4307 160.55 54.431 160.55 54.4312 160.55C54.4314 160.55 54.4316 160.55 54.4318 160.55C54.432 160.55 54.4322 160.55 54.4324 160.55C54.4326 160.55 54.4328 160.55 54.433 160.55C54.4333 160.55 54.4335 160.55 54.4337 160.55C54.4339 160.55 54.4341 160.55 54.4343 160.55C54.4345 160.55 54.4347 160.55 54.4349 160.55C54.4351 160.55 54.4353 160.55 54.4356 160.55C54.4358 160.55 54.436 160.55 54.4362 160.55C54.4364 160.55 54.4366 160.55 54.4368 160.55C54.437 160.55 54.4372 160.55 54.4374 160.55C54.4377 160.55 54.4379 160.55 54.4381 160.55C54.4383 160.55 54.4385 160.55 54.4387 160.55C54.4389 160.55 54.4391 160.55 54.4393 160.55C54.4395 160.55 54.4397 160.55 54.44 160.55C54.4402 160.55 54.4404 160.55 54.4406 160.55C54.4408 160.55 54.441 160.55 54.4412 160.55C54.4414 160.55 54.4416 160.55 54.4418 160.55C54.4421 160.55 54.4423 160.55 54.4425 160.55C54.4427 160.55 54.4429 160.55 54.4431 160.55C54.4433 160.55 54.4435 160.55 54.4437 160.55C54.4439 160.55 54.4442 160.55 54.4444 160.55C54.4446 160.55 54.4448 160.55 54.445 160.55C54.4452 160.55 54.4454 160.55 54.4456 160.55C54.4458 160.55 54.446 160.55 54.4463 160.55C54.4465 160.55 54.4467 160.55 54.4469 160.55C54.4471 160.55 54.4473 160.55 54.4475 160.55C54.4477 160.55 54.4479 160.55 54.4481 160.55C54.4484 160.55 54.4486 160.55 54.4488 160.55C54.449 160.55 54.4492 160.55 54.4494 160.55C54.4496 160.55 54.4498 160.55 54.45 160.55C54.4502 160.55 54.4505 160.55 54.4507 160.55C54.4509 160.55 54.4511 160.55 54.4513 160.55C54.4515 160.55 54.4517 160.55 54.4519 160.55C54.4521 160.55 54.4523 160.55 54.4526 160.55C54.4528 160.55 54.453 160.55 54.4532 160.55C54.4534 160.55 54.4536 160.55 54.4538 160.55C54.454 160.55 54.4542 160.55 54.4544 160.55C54.4547 160.55 54.4549 160.55 54.4551 160.55C54.4553 160.55 54.4555 160.55 54.4557 160.55C54.4559 160.55 54.4561 160.55 54.4563 160.55C54.4566 160.55 54.4568 160.55 54.457 160.55C54.4572 160.55 54.4574 160.55 54.4576 160.55C54.4578 160.55 54.458 160.55 54.4582 160.55C54.4585 160.55 54.4587 160.55 54.4589 160.55C54.4591 160.55 54.4593 160.55 54.4595 160.55C54.4597 160.55 54.4599 160.55 54.4601 160.55C54.4603 160.55 54.4606 160.55 54.4608 160.55C54.461 160.55 54.4612 160.55 54.4614 160.55C54.4616 160.55 54.4618 160.55 54.462 160.55C54.4622 160.55 54.4625 160.55 54.4627 160.55C54.4629 160.55 54.4631 160.55 54.4633 160.55C54.4635 160.55 54.4637 160.55 54.4639 160.55C54.4641 160.55 54.4644 160.55 54.4646 160.55C54.4648 160.55 54.465 160.55 54.4652 160.55C54.4654 160.55 54.4656 160.55 54.4658 160.55C54.466 160.55 54.4663 160.55 54.4665 160.55C54.4667 160.55 54.4669 160.55 54.4671 160.55C54.4673 160.55 54.4675 160.55 54.4677 160.55C54.4679 160.55 54.4682 160.55 54.4684 160.55C54.4686 160.55 54.4688 160.55 54.469 160.55C54.4692 160.55 54.4694 160.55 54.4696 160.55C54.4698 160.55 54.4701 160.55 54.4703 160.55C54.4705 160.55 54.4707 160.55 54.4709 160.55C54.4711 160.55 54.4713 160.55 54.4715 160.55C54.4717 160.55 54.472 160.55 54.4722 160.55C54.4724 160.55 54.4726 160.55 54.4728 160.55C54.473 160.55 54.4732 160.55 54.4734 160.55C54.4736 160.55 54.4739 160.55 54.4741 160.55C54.4743 160.55 54.4745 160.55 54.4747 160.55C54.4749 160.55 54.4751 160.55 54.4753 160.55C54.4756 160.55 54.4758 160.55 54.476 160.55C54.4762 160.55 54.4764 160.55 54.4766 160.55C54.4768 160.55 54.477 160.55 54.4772 160.55C54.4775 160.55 54.4777 160.55 54.4779 160.55C54.4781 160.55 54.4783 160.55 54.4785 160.55C54.4787 160.55 54.4789 160.55 54.4791 160.55C54.4794 160.55 54.4796 160.55 54.4798 160.55C54.48 160.55 54.4802 160.55 54.4804 160.55C54.4806 160.55 54.4808 160.55 54.4811 160.55C54.4813 160.55 54.4815 160.55 54.4817 160.55C54.4819 160.55 54.4821 160.55 54.4823 160.55C54.4825 160.55 54.4827 160.55 54.483 160.55C54.4832 160.55 54.4834 160.55 54.4836 160.55C54.4838 160.55 54.484 160.55 54.4842 160.55C54.4844 160.55 54.4847 160.55 54.4849 160.55C54.4851 160.55 54.4853 160.55 54.4855 160.55C54.4857 160.55 54.4859 160.55 54.4861 160.55C54.4864 160.55 54.4866 160.55 54.4868 160.55C54.487 160.55 54.4872 160.55 54.4874 160.55C54.4876 160.55 54.4878 160.55 54.4881 160.55C54.4883 160.55 54.4885 160.55 54.4887 160.55C54.4889 160.55 54.4891 160.55 54.4893 160.55C54.4895 160.55 54.4897 160.55 54.49 160.55C54.4902 160.55 54.4904 160.55 54.4906 160.55C54.4908 160.55 54.491 160.55 54.4912 160.55C54.4914 160.55 54.4917 160.55 54.4919 160.55C54.4921 160.55 54.4923 160.55 54.4925 160.55C54.4927 160.55 54.4929 160.55 54.4931 160.55C54.4934 160.55 54.4936 160.55 54.4938 160.55C54.494 160.55 54.4942 160.55 54.4944 160.55C54.4946 160.55 54.4948 160.55 54.4951 160.55C54.4953 160.55 54.4955 160.55 54.4957 160.55C54.4959 160.55 54.4961 160.55 54.4963 160.55C54.4965 160.55 54.4968 160.55 54.497 160.55C54.4972 160.55 54.4974 160.55 54.4976 160.55C54.4978 160.55 54.498 160.55 54.4982 160.55C54.4985 160.55 54.4987 160.55 54.4989 160.55C54.4991 160.55 54.4993 160.55 54.4995 160.55C54.4997 160.55 54.4999 160.55 54.5002 160.55C54.5004 160.55 54.5006 160.55 54.5008 160.55C54.501 160.55 54.5012 160.55 54.5014 160.55C54.5016 160.55 54.5019 160.55 54.5021 160.55C54.5023 160.55 54.5025 160.55 54.5027 160.55C54.5029 160.55 54.5031 160.55 54.5033 160.55C54.5036 160.55 54.5038 160.55 54.504 160.55C54.5042 160.55 54.5044 160.55 54.5046 160.55C54.5048 160.55 54.5051 160.55 54.5053 160.55C54.5055 160.55 54.5057 160.55 54.5059 160.55C54.5061 160.55 54.5063 160.55 54.5065 160.55C54.5068 160.55 54.507 160.55 54.5072 160.55C54.5074 160.55 54.5076 160.55 54.5078 160.55C54.508 160.55 54.5082 160.55 54.5085 160.55C54.5087 160.55 54.5089 160.55 54.5091 160.55C54.5093 160.55 54.5095 160.55 54.5097 160.55C54.5099 160.55 54.5102 160.55 54.5104 160.55C54.5106 160.55 54.5108 160.55 54.511 160.55C54.5112 160.55 54.5114 160.55 54.5117 160.55C54.5119 160.55 54.5121 160.55 54.5123 160.55C54.5125 160.55 54.5127 160.55 54.5129 160.55C54.5131 160.55 54.5134 160.55 54.5136 160.55C54.5138 160.55 54.514 160.55 54.5142 160.55C54.5144 160.55 54.5146 160.55 54.5149 160.55C54.5151 160.55 54.5153 160.55 54.5155 160.55C54.5157 160.55 54.5159 160.55 54.5161 160.55C54.5163 160.55 54.5166 160.55 54.5168 160.55C54.517 160.55 54.5172 160.55 54.5174 160.55C54.5176 160.55 54.5178 160.55 54.5181 160.55C54.5183 160.55 54.5185 160.55 54.5187 160.55C54.5189 160.55 54.5191 160.55 54.5193 160.55C54.5195 160.55 54.5198 160.55 54.52 160.55C54.5202 160.55 54.5204 160.55 54.5206 160.55C54.5208 160.55 54.521 160.55 54.5213 160.55C54.5215 160.55 54.5217 160.55 54.5219 160.55C54.5221 160.55 54.5223 160.55 54.5225 160.55C54.5227 160.55 54.523 160.55 54.5232 160.55C54.5234 160.55 54.5236 160.55 54.5238 160.55C54.524 160.55 54.5242 160.55 54.5245 160.55C54.5247 160.55 54.5249 160.55 54.5251 160.55C54.5253 160.55 54.5255 160.55 54.5257 160.55C54.5259 160.55 54.5262 160.55 54.5264 160.55C54.5266 160.55 54.5268 160.55 54.527 160.55C54.5272 160.55 54.5274 160.55 54.5277 160.55C54.5279 160.55 54.5281 160.55 54.5283 160.55C54.5285 160.55 54.5287 160.55 54.5289 160.55C54.5292 160.55 54.5294 160.55 54.5296 160.55C54.5298 160.55 54.53 160.55 54.5302 160.55C54.5304 160.55 54.5306 160.55 54.5309 160.55C54.5311 160.55 54.5313 160.55 54.5315 160.55C54.5317 160.55 54.5319 160.55 54.5321 160.55C54.5324 160.55 54.5326 160.55 54.5328 160.55C54.533 160.55 54.5332 160.55 54.5334 160.55C54.5336 160.55 54.5339 160.55 54.5341 160.55C54.5343 160.55 54.5345 160.55 54.5347 160.55C54.5349 160.55 54.5351 160.55 54.5354 160.55C54.5356 160.55 54.5358 160.55 54.536 160.55C54.5362 160.55 54.5364 160.55 54.5366 160.55C54.5368 160.55 54.5371 160.55 54.5373 160.55C54.5375 160.55 54.5377 160.55 54.5379 160.55C54.5381 160.55 54.5383 160.55 54.5386 160.55C54.5388 160.55 54.539 160.55 54.5392 160.55C54.5394 160.55 54.5396 160.55 54.5398 160.55C54.5401 160.55 54.5403 160.55 54.5405 160.55C54.5407 160.55 54.5409 160.55 54.5411 160.55C54.5413 160.55 54.5416 160.55 54.5418 160.55C54.542 160.55 54.5422 160.55 54.5424 160.55C54.5426 160.55 54.5428 160.55 54.5431 160.55C54.5433 160.55 54.5435 160.55 54.5437 160.55C54.5439 160.55 54.5441 160.55 54.5443 160.55C54.5446 160.55 54.5448 160.55 54.545 160.55C54.5452 160.55 54.5454 160.55 54.5456 160.55C54.5458 160.55 54.5461 160.55 54.5463 160.55C54.5465 160.55 54.5467 160.55 54.5469 160.55C54.5471 160.55 54.5473 160.55 54.5476 160.55C54.5478 160.55 54.548 160.55 54.5482 160.55C54.5484 160.55 54.5486 160.55 54.5488 160.55C54.549 160.55 54.5493 160.55 54.5495 160.55C54.5497 160.55 54.5499 160.55 54.5501 160.55C54.5503 160.55 54.5505 160.55 54.5508 160.55C54.551 160.55 54.5512 160.55 54.5514 160.55C54.5516 160.55 54.5518 160.55 54.552 160.55C54.5523 160.55 54.5525 160.55 54.5527 160.55C54.5529 160.55 54.5531 160.55 54.5533 160.55C54.5535 160.55 54.5538 160.55 54.554 160.55C54.5542 160.55 54.5544 160.55 54.5546 160.55C54.5548 160.55 54.555 160.55 54.5553 160.55C54.5555 160.55 54.5557 160.55 54.5559 160.55C54.5561 160.55 54.5563 160.55 54.5565 160.55C54.5568 160.55 54.557 160.55 54.5572 160.55C54.5574 160.55 54.5576 160.55 54.5578 160.55C54.558 160.55 54.5583 160.55 54.5585 160.55C54.5587 160.55 54.5589 160.55 54.5591 160.55C54.5593 160.55 54.5595 160.55 54.5598 160.55C54.56 160.55 54.5602 160.55 54.5604 160.55C54.5606 160.55 54.5608 160.55 54.5611 160.55C54.5613 160.55 54.5615 160.55 54.5617 160.55C54.5619 160.55 54.5621 160.55 54.5623 160.55C54.5625 160.55 54.5628 160.55 54.563 160.55C54.5632 160.55 54.5634 160.55 54.5636 160.55C54.5638 160.55 54.5641 160.55 54.5643 160.55C54.5645 160.55 54.5647 160.55 54.5649 160.55C54.5651 160.55 54.5653 160.55 54.5656 160.55C54.5658 160.55 54.566 160.55 54.5662 160.55C54.5664 160.55 54.5666 160.55 54.5668 160.55C54.5671 160.55 54.5673 160.55 54.5675 160.55C54.5677 160.55 54.5679 160.55 54.5681 160.55C54.5683 160.55 54.5686 160.55 54.5688 160.55C54.569 160.55 54.5692 160.55 54.5694 160.55C54.5696 160.55 54.5698 160.55 54.5701 160.55C54.5703 160.55 54.5705 160.55 54.5707 160.55C54.5709 160.55 54.5711 160.55 54.5713 160.55C54.5716 160.55 54.5718 160.55 54.572 160.55C54.5722 160.55 54.5724 160.55 54.5726 160.55C54.5728 160.55 54.5731 160.55 54.5733 160.55C54.5735 160.55 54.5737 160.55 54.5739 160.55C54.5741 160.55 54.5743 160.55 54.5746 160.55C54.5748 160.55 54.575 160.55 54.5752 160.55C54.5754 160.55 54.5756 160.55 54.5759 160.55C54.5761 160.55 54.5763 160.55 54.5765 160.55C54.5767 160.55 54.5769 160.55 54.5771 160.55C54.5774 160.55 54.5776 160.55 54.5778 160.55C54.578 160.55 54.5782 160.55 54.5784 160.55C54.5786 160.55 54.5789 160.55 54.5791 160.55C54.5793 160.55 54.5795 160.55 54.5797 160.55C54.5799 160.55 54.5801 160.55 54.5804 160.55C54.5806 160.55 54.5808 160.55 54.581 160.55C54.5812 160.55 54.5814 160.55 54.5816 160.55C54.5819 160.55 54.5821 160.55 54.5823 160.55C54.5825 160.55 54.5827 160.55 54.5829 160.55C54.5831 160.55 54.5834 160.55 54.5836 160.55C54.5838 160.55 54.584 160.55 54.5842 160.55C54.5844 160.55 54.5847 160.55 54.5849 160.55C54.5851 160.55 54.5853 160.55 54.5855 160.55C54.5857 160.55 54.5859 160.55 54.5862 160.55C54.5864 160.55 54.5866 160.55 54.5868 160.55C54.587 160.55 54.5872 160.55 54.5874 160.55C54.5877 160.55 54.5879 160.55 54.5881 160.55C54.5883 160.55 54.5885 160.55 54.5887 160.55C54.5889 160.55 54.5892 160.55 54.5894 160.55C54.5896 160.55 54.5898 160.55 54.59 160.55C54.5902 160.55 54.5905 160.55 54.5907 160.55C54.5909 160.55 54.5911 160.55 54.5913 160.55C54.5915 160.55 54.5917 160.55 54.592 160.55C54.5922 160.55 54.5924 160.55 54.5926 160.55C54.5928 160.55 54.593 160.55 54.5932 160.55C54.5935 160.55 54.5937 160.55 54.5939 160.55C54.5941 160.55 54.5943 160.55 54.5945 160.55C54.5947 160.55 54.595 160.55 54.5952 160.55C54.5954 160.55 54.5956 160.55 54.5958 160.55C54.596 160.55 54.5963 160.55 54.5965 160.55C54.5967 160.55 54.5969 160.55 54.5971 160.55C54.5973 160.55 54.5975 160.55 54.5978 160.55C54.598 160.55 54.5982 160.55 54.5984 160.55C54.5986 160.55 54.5988 160.55 54.599 160.55C54.5993 160.55 54.5995 160.55 54.5997 160.55C54.5999 160.55 54.6001 160.55 54.6003 160.55C54.6005 160.55 54.6008 160.55 54.601 160.55C54.6012 160.55 54.6014 160.55 54.6016 160.55C54.6018 160.55 54.6021 160.55 54.6023 160.55C54.6025 160.55 54.6027 160.55 54.6029 160.55C54.6031 160.55 54.6033 160.55 54.6036 160.55C54.6038 160.55 54.604 160.55 54.6042 160.55C54.6044 160.55 54.6046 160.55 54.6048 160.55C54.6051 160.55 54.6053 160.55 54.6055 160.55C54.6057 160.55 54.6059 160.55 54.6061 160.55C54.6063 160.55 54.6066 160.55 54.6068 160.55C54.607 160.55 54.6072 160.55 54.6074 160.55C54.6076 160.55 54.6079 160.55 54.6081 160.55C54.6083 160.55 54.6085 160.55 54.6087 160.55C54.6089 160.55 54.6091 160.55 54.6094 160.55C54.6096 160.55 54.6098 160.55 54.61 160.55V159.55V158.55C54.6098 158.55 54.6096 158.55 54.6094 158.55C54.6091 158.55 54.6089 158.55 54.6087 158.55C54.6085 158.55 54.6083 158.55 54.6081 158.55C54.6079 158.55 54.6076 158.55 54.6074 158.55C54.6072 158.55 54.607 158.55 54.6068 158.55C54.6066 158.55 54.6063 158.55 54.6061 158.55C54.6059 158.55 54.6057 158.55 54.6055 158.55C54.6053 158.55 54.6051 158.55 54.6048 158.55C54.6046 158.55 54.6044 158.55 54.6042 158.55C54.604 158.55 54.6038 158.55 54.6036 158.55C54.6033 158.55 54.6031 158.55 54.6029 158.55C54.6027 158.55 54.6025 158.55 54.6023 158.55C54.6021 158.55 54.6018 158.55 54.6016 158.55C54.6014 158.55 54.6012 158.55 54.601 158.55C54.6008 158.55 54.6005 158.55 54.6003 158.55C54.6001 158.55 54.5999 158.55 54.5997 158.55C54.5995 158.55 54.5993 158.55 54.599 158.55C54.5988 158.55 54.5986 158.55 54.5984 158.55C54.5982 158.55 54.598 158.55 54.5978 158.55C54.5975 158.55 54.5973 158.55 54.5971 158.55C54.5969 158.55 54.5967 158.55 54.5965 158.55C54.5963 158.55 54.596 158.55 54.5958 158.55C54.5956 158.55 54.5954 158.55 54.5952 158.55C54.595 158.55 54.5947 158.55 54.5945 158.55C54.5943 158.55 54.5941 158.55 54.5939 158.55C54.5937 158.55 54.5935 158.55 54.5932 158.55C54.593 158.55 54.5928 158.55 54.5926 158.55C54.5924 158.55 54.5922 158.55 54.592 158.55C54.5917 158.55 54.5915 158.55 54.5913 158.55C54.5911 158.55 54.5909 158.55 54.5907 158.55C54.5905 158.55 54.5902 158.55 54.59 158.55C54.5898 158.55 54.5896 158.55 54.5894 158.55C54.5892 158.55 54.5889 158.55 54.5887 158.55C54.5885 158.55 54.5883 158.55 54.5881 158.55C54.5879 158.55 54.5877 158.55 54.5874 158.55C54.5872 158.55 54.587 158.55 54.5868 158.55C54.5866 158.55 54.5864 158.55 54.5862 158.55C54.5859 158.55 54.5857 158.55 54.5855 158.55C54.5853 158.55 54.5851 158.55 54.5849 158.55C54.5847 158.55 54.5844 158.55 54.5842 158.55C54.584 158.55 54.5838 158.55 54.5836 158.55C54.5834 158.55 54.5831 158.55 54.5829 158.55C54.5827 158.55 54.5825 158.55 54.5823 158.55C54.5821 158.55 54.5819 158.55 54.5816 158.55C54.5814 158.55 54.5812 158.55 54.581 158.55C54.5808 158.55 54.5806 158.55 54.5804 158.55C54.5801 158.55 54.5799 158.55 54.5797 158.55C54.5795 158.55 54.5793 158.55 54.5791 158.55C54.5789 158.55 54.5786 158.55 54.5784 158.55C54.5782 158.55 54.578 158.55 54.5778 158.55C54.5776 158.55 54.5774 158.55 54.5771 158.55C54.5769 158.55 54.5767 158.55 54.5765 158.55C54.5763 158.55 54.5761 158.55 54.5759 158.55C54.5756 158.55 54.5754 158.55 54.5752 158.55C54.575 158.55 54.5748 158.55 54.5746 158.55C54.5743 158.55 54.5741 158.55 54.5739 158.55C54.5737 158.55 54.5735 158.55 54.5733 158.55C54.5731 158.55 54.5728 158.55 54.5726 158.55C54.5724 158.55 54.5722 158.55 54.572 158.55C54.5718 158.55 54.5716 158.55 54.5713 158.55C54.5711 158.55 54.5709 158.55 54.5707 158.55C54.5705 158.55 54.5703 158.55 54.5701 158.55C54.5698 158.55 54.5696 158.55 54.5694 158.55C54.5692 158.55 54.569 158.55 54.5688 158.55C54.5686 158.55 54.5683 158.55 54.5681 158.55C54.5679 158.55 54.5677 158.55 54.5675 158.55C54.5673 158.55 54.5671 158.55 54.5668 158.55C54.5666 158.55 54.5664 158.55 54.5662 158.55C54.566 158.55 54.5658 158.55 54.5656 158.55C54.5653 158.55 54.5651 158.55 54.5649 158.55C54.5647 158.55 54.5645 158.55 54.5643 158.55C54.5641 158.55 54.5638 158.55 54.5636 158.55C54.5634 158.55 54.5632 158.55 54.563 158.55C54.5628 158.55 54.5625 158.55 54.5623 158.55C54.5621 158.55 54.5619 158.55 54.5617 158.55C54.5615 158.55 54.5613 158.55 54.5611 158.55C54.5608 158.55 54.5606 158.55 54.5604 158.55C54.5602 158.55 54.56 158.55 54.5598 158.55C54.5595 158.55 54.5593 158.55 54.5591 158.55C54.5589 158.55 54.5587 158.55 54.5585 158.55C54.5583 158.55 54.558 158.55 54.5578 158.55C54.5576 158.55 54.5574 158.55 54.5572 158.55C54.557 158.55 54.5568 158.55 54.5565 158.55C54.5563 158.55 54.5561 158.55 54.5559 158.55C54.5557 158.55 54.5555 158.55 54.5553 158.55C54.555 158.55 54.5548 158.55 54.5546 158.55C54.5544 158.55 54.5542 158.55 54.554 158.55C54.5538 158.55 54.5535 158.55 54.5533 158.55C54.5531 158.55 54.5529 158.55 54.5527 158.55C54.5525 158.55 54.5523 158.55 54.552 158.55C54.5518 158.55 54.5516 158.55 54.5514 158.55C54.5512 158.55 54.551 158.55 54.5508 158.55C54.5505 158.55 54.5503 158.55 54.5501 158.55C54.5499 158.55 54.5497 158.55 54.5495 158.55C54.5493 158.55 54.549 158.55 54.5488 158.55C54.5486 158.55 54.5484 158.55 54.5482 158.55C54.548 158.55 54.5478 158.55 54.5476 158.55C54.5473 158.55 54.5471 158.55 54.5469 158.55C54.5467 158.55 54.5465 158.55 54.5463 158.55C54.5461 158.55 54.5458 158.55 54.5456 158.55C54.5454 158.55 54.5452 158.55 54.545 158.55C54.5448 158.55 54.5446 158.55 54.5443 158.55C54.5441 158.55 54.5439 158.55 54.5437 158.55C54.5435 158.55 54.5433 158.55 54.5431 158.55C54.5428 158.55 54.5426 158.55 54.5424 158.55C54.5422 158.55 54.542 158.55 54.5418 158.55C54.5416 158.55 54.5413 158.55 54.5411 158.55C54.5409 158.55 54.5407 158.55 54.5405 158.55C54.5403 158.55 54.5401 158.55 54.5398 158.55C54.5396 158.55 54.5394 158.55 54.5392 158.55C54.539 158.55 54.5388 158.55 54.5386 158.55C54.5383 158.55 54.5381 158.55 54.5379 158.55C54.5377 158.55 54.5375 158.55 54.5373 158.55C54.5371 158.55 54.5368 158.55 54.5366 158.55C54.5364 158.55 54.5362 158.55 54.536 158.55C54.5358 158.55 54.5356 158.55 54.5354 158.55C54.5351 158.55 54.5349 158.55 54.5347 158.55C54.5345 158.55 54.5343 158.55 54.5341 158.55C54.5339 158.55 54.5336 158.55 54.5334 158.55C54.5332 158.55 54.533 158.55 54.5328 158.55C54.5326 158.55 54.5324 158.55 54.5321 158.55C54.5319 158.55 54.5317 158.55 54.5315 158.55C54.5313 158.55 54.5311 158.55 54.5309 158.55C54.5306 158.55 54.5304 158.55 54.5302 158.55C54.53 158.55 54.5298 158.55 54.5296 158.55C54.5294 158.55 54.5292 158.55 54.5289 158.55C54.5287 158.55 54.5285 158.55 54.5283 158.55C54.5281 158.55 54.5279 158.55 54.5277 158.55C54.5274 158.55 54.5272 158.55 54.527 158.55C54.5268 158.55 54.5266 158.55 54.5264 158.55C54.5262 158.55 54.5259 158.55 54.5257 158.55C54.5255 158.55 54.5253 158.55 54.5251 158.55C54.5249 158.55 54.5247 158.55 54.5245 158.55C54.5242 158.55 54.524 158.55 54.5238 158.55C54.5236 158.55 54.5234 158.55 54.5232 158.55C54.523 158.55 54.5227 158.55 54.5225 158.55C54.5223 158.55 54.5221 158.55 54.5219 158.55C54.5217 158.55 54.5215 158.55 54.5213 158.55C54.521 158.55 54.5208 158.55 54.5206 158.55C54.5204 158.55 54.5202 158.55 54.52 158.55C54.5198 158.55 54.5195 158.55 54.5193 158.55C54.5191 158.55 54.5189 158.55 54.5187 158.55C54.5185 158.55 54.5183 158.55 54.5181 158.55C54.5178 158.55 54.5176 158.55 54.5174 158.55C54.5172 158.55 54.517 158.55 54.5168 158.55C54.5166 158.55 54.5163 158.55 54.5161 158.55C54.5159 158.55 54.5157 158.55 54.5155 158.55C54.5153 158.55 54.5151 158.55 54.5149 158.55C54.5146 158.55 54.5144 158.55 54.5142 158.55C54.514 158.55 54.5138 158.55 54.5136 158.55C54.5134 158.55 54.5131 158.55 54.5129 158.55C54.5127 158.55 54.5125 158.55 54.5123 158.55C54.5121 158.55 54.5119 158.55 54.5117 158.55C54.5114 158.55 54.5112 158.55 54.511 158.55C54.5108 158.55 54.5106 158.55 54.5104 158.55C54.5102 158.55 54.5099 158.55 54.5097 158.55C54.5095 158.55 54.5093 158.55 54.5091 158.55C54.5089 158.55 54.5087 158.55 54.5085 158.55C54.5082 158.55 54.508 158.55 54.5078 158.55C54.5076 158.55 54.5074 158.55 54.5072 158.55C54.507 158.55 54.5068 158.55 54.5065 158.55C54.5063 158.55 54.5061 158.55 54.5059 158.55C54.5057 158.55 54.5055 158.55 54.5053 158.55C54.5051 158.55 54.5048 158.55 54.5046 158.55C54.5044 158.55 54.5042 158.55 54.504 158.55C54.5038 158.55 54.5036 158.55 54.5033 158.55C54.5031 158.55 54.5029 158.55 54.5027 158.55C54.5025 158.55 54.5023 158.55 54.5021 158.55C54.5019 158.55 54.5016 158.55 54.5014 158.55C54.5012 158.55 54.501 158.55 54.5008 158.55C54.5006 158.55 54.5004 158.55 54.5002 158.55C54.4999 158.55 54.4997 158.55 54.4995 158.55C54.4993 158.55 54.4991 158.55 54.4989 158.55C54.4987 158.55 54.4985 158.55 54.4982 158.55C54.498 158.55 54.4978 158.55 54.4976 158.55C54.4974 158.55 54.4972 158.55 54.497 158.55C54.4968 158.55 54.4965 158.55 54.4963 158.55C54.4961 158.55 54.4959 158.55 54.4957 158.55C54.4955 158.55 54.4953 158.55 54.4951 158.55C54.4948 158.55 54.4946 158.55 54.4944 158.55C54.4942 158.55 54.494 158.55 54.4938 158.55C54.4936 158.55 54.4934 158.55 54.4931 158.55C54.4929 158.55 54.4927 158.55 54.4925 158.55C54.4923 158.55 54.4921 158.55 54.4919 158.55C54.4917 158.55 54.4914 158.55 54.4912 158.55C54.491 158.55 54.4908 158.55 54.4906 158.55C54.4904 158.55 54.4902 158.55 54.49 158.55C54.4897 158.55 54.4895 158.55 54.4893 158.55C54.4891 158.55 54.4889 158.55 54.4887 158.55C54.4885 158.55 54.4883 158.55 54.4881 158.55C54.4878 158.55 54.4876 158.55 54.4874 158.55C54.4872 158.55 54.487 158.55 54.4868 158.55C54.4866 158.55 54.4864 158.55 54.4861 158.55C54.4859 158.55 54.4857 158.55 54.4855 158.55C54.4853 158.55 54.4851 158.55 54.4849 158.55C54.4847 158.55 54.4844 158.55 54.4842 158.55C54.484 158.55 54.4838 158.55 54.4836 158.55C54.4834 158.55 54.4832 158.55 54.483 158.55C54.4827 158.55 54.4825 158.55 54.4823 158.55C54.4821 158.55 54.4819 158.55 54.4817 158.55C54.4815 158.55 54.4813 158.55 54.4811 158.55C54.4808 158.55 54.4806 158.55 54.4804 158.55C54.4802 158.55 54.48 158.55 54.4798 158.55C54.4796 158.55 54.4794 158.55 54.4791 158.55C54.4789 158.55 54.4787 158.55 54.4785 158.55C54.4783 158.55 54.4781 158.55 54.4779 158.55C54.4777 158.55 54.4775 158.55 54.4772 158.55C54.477 158.55 54.4768 158.55 54.4766 158.55C54.4764 158.55 54.4762 158.55 54.476 158.55C54.4758 158.55 54.4756 158.55 54.4753 158.55C54.4751 158.55 54.4749 158.55 54.4747 158.55C54.4745 158.55 54.4743 158.55 54.4741 158.55C54.4739 158.55 54.4736 158.55 54.4734 158.55C54.4732 158.55 54.473 158.55 54.4728 158.55C54.4726 158.55 54.4724 158.55 54.4722 158.55C54.472 158.55 54.4717 158.55 54.4715 158.55C54.4713 158.55 54.4711 158.55 54.4709 158.55C54.4707 158.55 54.4705 158.55 54.4703 158.55C54.4701 158.55 54.4698 158.55 54.4696 158.55C54.4694 158.55 54.4692 158.55 54.469 158.55C54.4688 158.55 54.4686 158.55 54.4684 158.55C54.4682 158.55 54.4679 158.55 54.4677 158.55C54.4675 158.55 54.4673 158.55 54.4671 158.55C54.4669 158.55 54.4667 158.55 54.4665 158.55C54.4663 158.55 54.466 158.55 54.4658 158.55C54.4656 158.55 54.4654 158.55 54.4652 158.55C54.465 158.55 54.4648 158.55 54.4646 158.55C54.4644 158.55 54.4641 158.55 54.4639 158.55C54.4637 158.55 54.4635 158.55 54.4633 158.55C54.4631 158.55 54.4629 158.55 54.4627 158.55C54.4625 158.55 54.4622 158.55 54.462 158.55C54.4618 158.55 54.4616 158.55 54.4614 158.55C54.4612 158.55 54.461 158.55 54.4608 158.55C54.4606 158.55 54.4603 158.55 54.4601 158.55C54.4599 158.55 54.4597 158.55 54.4595 158.55C54.4593 158.55 54.4591 158.55 54.4589 158.55C54.4587 158.55 54.4585 158.55 54.4582 158.55C54.458 158.55 54.4578 158.55 54.4576 158.55C54.4574 158.55 54.4572 158.55 54.457 158.55C54.4568 158.55 54.4566 158.55 54.4563 158.55C54.4561 158.55 54.4559 158.55 54.4557 158.55C54.4555 158.55 54.4553 158.55 54.4551 158.55C54.4549 158.55 54.4547 158.55 54.4544 158.55C54.4542 158.55 54.454 158.55 54.4538 158.55C54.4536 158.55 54.4534 158.55 54.4532 158.55C54.453 158.55 54.4528 158.55 54.4526 158.55C54.4523 158.55 54.4521 158.55 54.4519 158.55C54.4517 158.55 54.4515 158.55 54.4513 158.55C54.4511 158.55 54.4509 158.55 54.4507 158.55C54.4505 158.55 54.4502 158.55 54.45 158.55C54.4498 158.55 54.4496 158.55 54.4494 158.55C54.4492 158.55 54.449 158.55 54.4488 158.55C54.4486 158.55 54.4484 158.55 54.4481 158.55C54.4479 158.55 54.4477 158.55 54.4475 158.55C54.4473 158.55 54.4471 158.55 54.4469 158.55C54.4467 158.55 54.4465 158.55 54.4463 158.55C54.446 158.55 54.4458 158.55 54.4456 158.55C54.4454 158.55 54.4452 158.55 54.445 158.55C54.4448 158.55 54.4446 158.55 54.4444 158.55C54.4442 158.55 54.4439 158.55 54.4437 158.55C54.4435 158.55 54.4433 158.55 54.4431 158.55C54.4429 158.55 54.4427 158.55 54.4425 158.55C54.4423 158.55 54.4421 158.55 54.4418 158.55C54.4416 158.55 54.4414 158.55 54.4412 158.55C54.441 158.55 54.4408 158.55 54.4406 158.55C54.4404 158.55 54.4402 158.55 54.44 158.55C54.4397 158.55 54.4395 158.55 54.4393 158.55C54.4391 158.55 54.4389 158.55 54.4387 158.55C54.4385 158.55 54.4383 158.55 54.4381 158.55C54.4379 158.55 54.4377 158.55 54.4374 158.55C54.4372 158.55 54.437 158.55 54.4368 158.55C54.4366 158.55 54.4364 158.55 54.4362 158.55C54.436 158.55 54.4358 158.55 54.4356 158.55C54.4353 158.55 54.4351 158.55 54.4349 158.55C54.4347 158.55 54.4345 158.55 54.4343 158.55C54.4341 158.55 54.4339 158.55 54.4337 158.55C54.4335 158.55 54.4333 158.55 54.433 158.55C54.4328 158.55 54.4326 158.55 54.4324 158.55C54.4322 158.55 54.432 158.55 54.4318 158.55C54.4316 158.55 54.4314 158.55 54.4312 158.55C54.431 158.55 54.4307 158.55 54.4305 158.55C54.4303 158.55 54.4301 158.55 54.4299 158.55C54.4297 158.55 54.4295 158.55 54.4293 158.55C54.4291 158.55 54.4289 158.55 54.4287 158.55C54.4285 158.55 54.4282 158.55 54.428 158.55C54.4278 158.55 54.4276 158.55 54.4274 158.55C54.4272 158.55 54.427 158.55 54.4268 158.55C54.4266 158.55 54.4264 158.55 54.4262 158.55C54.4259 158.55 54.4257 158.55 54.4255 158.55C54.4253 158.55 54.4251 158.55 54.4249 158.55C54.4247 158.55 54.4245 158.55 54.4243 158.55C54.4241 158.55 54.4239 158.55 54.4237 158.55C54.4234 158.55 54.4232 158.55 54.423 158.55C54.4228 158.55 54.4226 158.55 54.4224 158.55C54.4222 158.55 54.422 158.55 54.4218 158.55C54.4216 158.55 54.4214 158.55 54.4212 158.55C54.4209 158.55 54.4207 158.55 54.4205 158.55C54.4203 158.55 54.4201 158.55 54.4199 158.55C54.4197 158.55 54.4195 158.55 54.4193 158.55C54.4191 158.55 54.4189 158.55 54.4187 158.55C54.4184 158.55 54.4182 158.55 54.418 158.55C54.4178 158.55 54.4176 158.55 54.4174 158.55C54.4172 158.55 54.417 158.55 54.4168 158.55C54.4166 158.55 54.4164 158.55 54.4162 158.55C54.4159 158.55 54.4157 158.55 54.4155 158.55C54.4153 158.55 54.4151 158.55 54.4149 158.55C54.4147 158.55 54.4145 158.55 54.4143 158.55C54.4141 158.55 54.4139 158.55 54.4137 158.55C54.4135 158.55 54.4132 158.55 54.413 158.55C54.4128 158.55 54.4126 158.55 54.4124 158.55C54.4122 158.55 54.412 158.55 54.4118 158.55C54.4116 158.55 54.4114 158.55 54.4112 158.55C54.411 158.55 54.4108 158.55 54.4105 158.55C54.4103 158.55 54.4101 158.55 54.4099 158.55C54.4097 158.55 54.4095 158.55 54.4093 158.55C54.4091 158.55 54.4089 158.55 54.4087 158.55C54.4085 158.55 54.4083 158.55 54.4081 158.55C54.4079 158.55 54.4076 158.55 54.4074 158.55C54.4072 158.55 54.407 158.55 54.4068 158.55C54.4066 158.55 54.4064 158.55 54.4062 158.55C54.406 158.55 54.4058 158.55 54.4056 158.55C54.4054 158.55 54.4052 158.55 54.4049 158.55C54.4047 158.55 54.4045 158.55 54.4043 158.55C54.4041 158.55 54.4039 158.55 54.4037 158.55C54.4035 158.55 54.4033 158.55 54.4031 158.55C54.4029 158.55 54.4027 158.55 54.4025 158.55C54.4023 158.55 54.4021 158.55 54.4018 158.55C54.4016 158.55 54.4014 158.55 54.4012 158.55C54.401 158.55 54.4008 158.55 54.4006 158.55C54.4004 158.55 54.4002 158.55 54.4 158.55C54.3998 158.55 54.3996 158.55 54.3994 158.55C54.3992 158.55 54.3989 158.55 54.3987 158.55C54.3985 158.55 54.3983 158.55 54.3981 158.55C54.3979 158.55 54.3977 158.55 54.3975 158.55C54.3973 158.55 54.3971 158.55 54.3969 158.55C54.3967 158.55 54.3965 158.55 54.3963 158.55C54.3961 158.55 54.3959 158.55 54.3956 158.55C54.3954 158.55 54.3952 158.55 54.395 158.55C54.3948 158.55 54.3946 158.55 54.3944 158.55C54.3942 158.55 54.394 158.55 54.3938 158.55C54.3936 158.55 54.3934 158.55 54.3932 158.55C54.393 158.55 54.3928 158.55 54.3926 158.55C54.3923 158.55 54.3921 158.55 54.3919 158.55C54.3917 158.55 54.3915 158.55 54.3913 158.55C54.3911 158.55 54.3909 158.55 54.3907 158.55C54.3905 158.55 54.3903 158.55 54.3901 158.55C54.3899 158.55 54.3897 158.55 54.3895 158.55C54.3893 158.55 54.389 158.55 54.3888 158.55C54.3886 158.55 54.3884 158.55 54.3882 158.55C54.388 158.55 54.3878 158.55 54.3876 158.55C54.3874 158.55 54.3872 158.55 54.387 158.55C54.3868 158.55 54.3866 158.55 54.3864 158.55C54.3862 158.55 54.386 158.55 54.3858 158.55C54.3856 158.55 54.3853 158.55 54.3851 158.55C54.3849 158.55 54.3847 158.55 54.3845 158.55C54.3843 158.55 54.3841 158.55 54.3839 158.55C54.3837 158.55 54.3835 158.55 54.3833 158.55C54.3831 158.55 54.3829 158.55 54.3827 158.55C54.3825 158.55 54.3823 158.55 54.3821 158.55C54.3819 158.55 54.3817 158.55 54.3814 158.55C54.3812 158.55 54.381 158.55 54.3808 158.55C54.3806 158.55 54.3804 158.55 54.3802 158.55C54.38 158.55 54.3798 158.55 54.3796 158.55C54.3794 158.55 54.3792 158.55 54.379 158.55C54.3788 158.55 54.3786 158.55 54.3784 158.55C54.3782 158.55 54.378 158.55 54.3778 158.55C54.3776 158.55 54.3773 158.55 54.3771 158.55C54.3769 158.55 54.3767 158.55 54.3765 158.55C54.3763 158.55 54.3761 158.55 54.3759 158.55C54.3757 158.55 54.3755 158.55 54.3753 158.55C54.3751 158.55 54.3749 158.55 54.3747 158.55C54.3745 158.55 54.3743 158.55 54.3741 158.55C54.3739 158.55 54.3737 158.55 54.3735 158.55C54.3733 158.55 54.373 158.55 54.3728 158.55C54.3726 158.55 54.3724 158.55 54.3722 158.55C54.372 158.55 54.3718 158.55 54.3716 158.55C54.3714 158.55 54.3712 158.55 54.371 158.55C54.3708 158.55 54.3706 158.55 54.3704 158.55C54.3702 158.55 54.37 158.55 54.3698 158.55C54.3696 158.55 54.3694 158.55 54.3692 158.55C54.369 158.55 54.3688 158.55 54.3686 158.55C54.3684 158.55 54.3681 158.55 54.3679 158.55C54.3677 158.55 54.3675 158.55 54.3673 158.55C54.3671 158.55 54.3669 158.55 54.3667 158.55C54.3665 158.55 54.3663 158.55 54.3661 158.55C54.3659 158.55 54.3657 158.55 54.3655 158.55C54.3653 158.55 54.3651 158.55 54.3649 158.55C54.3647 158.55 54.3645 158.55 54.3643 158.55C54.3641 158.55 54.3639 158.55 54.3637 158.55C54.3635 158.55 54.3633 158.55 54.3631 158.55C54.3629 158.55 54.3626 158.55 54.3624 158.55C54.3622 158.55 54.362 158.55 54.3618 158.55C54.3616 158.55 54.3614 158.55 54.3612 158.55C54.361 158.55 54.3608 158.55 54.3606 158.55C54.3604 158.55 54.3602 158.55 54.36 158.55C54.3598 158.55 54.3596 158.55 54.3594 158.55C54.3592 158.55 54.359 158.55 54.3588 158.55C54.3586 158.55 54.3584 158.55 54.3582 158.55C54.358 158.55 54.3578 158.55 54.3576 158.55C54.3574 158.55 54.3572 158.55 54.357 158.55C54.3568 158.55 54.3566 158.55 54.3563 158.55C54.3561 158.55 54.3559 158.55 54.3557 158.55C54.3555 158.55 54.3553 158.55 54.3551 158.55C54.3549 158.55 54.3547 158.55 54.3545 158.55C54.3543 158.55 54.3541 158.55 54.3539 158.55C54.3537 158.55 54.3535 158.55 54.3533 158.55C54.3531 158.55 54.3529 158.55 54.3527 158.55C54.3525 158.55 54.3523 158.55 54.3521 158.55C54.3519 158.55 54.3517 158.55 54.3515 158.55C54.3513 158.55 54.3511 158.55 54.3509 158.55C54.3507 158.55 54.3505 158.55 54.3503 158.55C54.3501 158.55 54.3499 158.55 54.3497 158.55C54.3495 158.55 54.3493 158.55 54.3491 158.55C54.3489 158.55 54.3487 158.55 54.3485 158.55C54.3483 158.55 54.348 158.55 54.3478 158.55C54.3476 158.55 54.3474 158.55 54.3472 158.55C54.347 158.55 54.3468 158.55 54.3466 158.55C54.3464 158.55 54.3462 158.55 54.346 158.55C54.3458 158.55 54.3456 158.55 54.3454 158.55C54.3452 158.55 54.345 158.55 54.3448 158.55C54.3446 158.55 54.3444 158.55 54.3442 158.55C54.344 158.55 54.3438 158.55 54.3436 158.55C54.3434 158.55 54.3432 158.55 54.343 158.55C54.3428 158.55 54.3426 158.55 54.3424 158.55C54.3422 158.55 54.342 158.55 54.3418 158.55C54.3416 158.55 54.3414 158.55 54.3412 158.55C54.341 158.55 54.3408 158.55 54.3406 158.55C54.3404 158.55 54.3402 158.55 54.34 158.55C54.3398 158.55 54.3396 158.55 54.3394 158.55C54.3392 158.55 54.339 158.55 54.3388 158.55C54.3386 158.55 54.3384 158.55 54.3382 158.55C54.338 158.55 54.3378 158.55 54.3376 158.55C54.3374 158.55 54.3372 158.55 54.337 158.55C54.3368 158.55 54.3366 158.55 54.3364 158.55C54.3362 158.55 54.336 158.55 54.3358 158.55C54.3356 158.55 54.3354 158.55 54.3352 158.55C54.335 158.55 54.3348 158.55 54.3346 158.55C54.3344 158.55 54.3342 158.55 54.334 158.55C54.3338 158.55 54.3336 158.55 54.3334 158.55C54.3332 158.55 54.333 158.55 54.3328 158.55C54.3326 158.55 54.3324 158.55 54.3322 158.55C54.332 158.55 54.3318 158.55 54.3316 158.55C54.3314 158.55 54.3312 158.55 54.331 158.55C54.3307 158.55 54.3306 158.55 54.3303 158.55C54.3302 158.55 54.3299 158.55 54.3298 158.55C54.3296 158.55 54.3293 158.55 54.3292 158.55C54.3289 158.55 54.3288 158.55 54.3285 158.55C54.3284 158.55 54.3282 158.55 54.3279 158.55C54.3278 158.55 54.3275 158.55 54.3274 158.55C54.3272 158.55 54.327 158.55 54.3268 158.55C54.3265 158.55 54.3264 158.55 54.3262 158.55C54.326 158.55 54.3258 158.55 54.3256 158.55C54.3254 158.55 54.3252 158.55 54.325 158.55C54.3248 158.55 54.3246 158.55 54.3244 158.55C54.3242 158.55 54.324 158.55 54.3238 158.55C54.3236 158.55 54.3234 158.55 54.3232 158.55C54.323 158.55 54.3228 158.55 54.3226 158.55C54.3224 158.55 54.3222 158.55 54.322 158.55C54.3218 158.55 54.3216 158.55 54.3214 158.55C54.3212 158.55 54.321 158.55 54.3208 158.55C54.3206 158.55 54.3204 158.55 54.3202 158.55C54.32 158.55 54.3198 158.55 54.3196 158.55C54.3194 158.55 54.3192 158.55 54.319 158.55C54.3188 158.55 54.3186 158.55 54.3184 158.55C54.3182 158.55 54.318 158.55 54.3178 158.55C54.3176 158.55 54.3174 158.55 54.3172 158.55C54.317 158.55 54.3168 158.55 54.3166 158.55C54.3164 158.55 54.3162 158.55 54.316 158.55C54.3158 158.55 54.3156 158.55 54.3154 158.55C54.3152 158.55 54.315 158.55 54.3148 158.55C54.3146 158.55 54.3144 158.55 54.3142 158.55C54.314 158.55 54.3138 158.55 54.3136 158.55C54.3134 158.55 54.3132 158.55 54.313 158.55C54.3128 158.55 54.3126 158.55 54.3124 158.55C54.3122 158.55 54.312 158.55 54.3118 158.55C54.3116 158.55 54.3114 158.55 54.3112 158.55C54.311 158.55 54.3108 158.55 54.3106 158.55C54.3104 158.55 54.3102 158.55 54.3101 158.55C54.3099 158.55 54.3097 158.55 54.3095 158.55C54.3093 158.55 54.3091 158.55 54.3089 158.55C54.3087 158.55 54.3085 158.55 54.3083 158.55C54.3081 158.55 54.3079 158.55 54.3077 158.55C54.3075 158.55 54.3073 158.55 54.3071 158.55C54.3069 158.55 54.3067 158.55 54.3065 158.55C54.3063 158.55 54.3061 158.55 54.3059 158.55C54.3057 158.55 54.3055 158.55 54.3053 158.55C54.3051 158.55 54.3049 158.55 54.3047 158.55C54.3045 158.55 54.3043 158.55 54.3041 158.55C54.3039 158.55 54.3037 158.55 54.3035 158.55C54.3033 158.55 54.3031 158.55 54.3029 158.55C54.3027 158.55 54.3026 158.55 54.3024 158.55C54.3022 158.55 54.302 158.55 54.3018 158.55C54.3016 158.55 54.3014 158.55 54.3012 158.55C54.301 158.55 54.3008 158.55 54.3006 158.55C54.3004 158.55 54.3002 158.55 54.3 158.55C54.2998 158.55 54.2996 158.55 54.2994 158.55C54.2992 158.55 54.299 158.55 54.2988 158.55C54.2986 158.55 54.2984 158.55 54.2982 158.55C54.298 158.55 54.2978 158.55 54.2976 158.55C54.2974 158.55 54.2972 158.55 54.297 158.55C54.2969 158.55 54.2967 158.55 54.2965 158.55C54.2963 158.55 54.2961 158.55 54.2959 158.55C54.2957 158.55 54.2955 158.55 54.2953 158.55C54.2951 158.55 54.2949 158.55 54.2947 158.55C54.2945 158.55 54.2943 158.55 54.2941 158.55C54.2939 158.55 54.2937 158.55 54.2935 158.55C54.2933 158.55 54.2931 158.55 54.2929 158.55C54.2927 158.55 54.2925 158.55 54.2923 158.55C54.2922 158.55 54.292 158.55 54.2918 158.55C54.2916 158.55 54.2914 158.55 54.2912 158.55C54.291 158.55 54.2908 158.55 54.2906 158.55C54.2904 158.55 54.2902 158.55 54.29 158.55V159.55ZM54.61 159.55V160.55C66.6032 160.55 124.577 160.26 149.055 160.14L149.05 159.14L149.045 158.14C124.563 158.26 66.5968 158.55 54.61 158.55V159.55ZM149.05 159.14L149.055 160.14C155.656 160.107 160.99 154.74 160.99 148.14H159.99H158.99C158.99 153.64 154.544 158.113 149.045 158.14L149.05 159.14ZM159.99 148.14H160.99V11H159.99H158.99V148.14H159.99ZM159.99 11H160.99C160.99 4.36772 155.622 -1 148.99 -1V0V1C154.518 1 158.99 5.47228 158.99 11H159.99ZM148.99 0V1H149V0V-1H148.99V0Z" fill="#FFF6EE" mask="url(#path-1-inside-1_17115_297)"/>
<path d="M89.0303 42.9099V90.0876C88.9178 90.0374 88.7974 89.9849 88.6719 89.9265L88.668 89.9246L88.252 89.7429C83.9786 87.9484 79.1793 88.1603 74.9707 90.0955V42.9099H89.0303Z" fill="#FFF6EE" stroke="#FFF6EE"/>
<path d="M82.0098 98.54C82.2975 98.54 82.5765 98.5583 82.8662 98.5957L82.877 98.5977C86.8351 99.0208 89.9295 102.378 89.9297 106.47C89.9297 110.434 87.0255 113.71 83.2451 114.295L82.877 114.343L82.8662 114.344C82.5765 114.381 82.2975 114.4 82.0098 114.4C77.6261 114.4 74.0801 110.853 74.0801 106.47C74.0802 102.087 77.6248 98.5502 82.0098 98.54Z" fill="#FFF6EE" stroke="#FFF6EE"/>
</g>
<defs>
<clipPath id="clip0_17115_297">
<rect width="160" height="197.46" fill="white"/>
</clipPath>
</defs>
</svg>
