<?xml version="1.0" encoding="UTF-8"?><svg id="Camada_2" xmlns="http://www.w3.org/2000/svg" viewBox="0 0 160 197.46"><defs><style>.cls-1{fill:#464a4d;}</style></defs><g id="Layer_2"><g id="Alerta_linha_preta"><path class="cls-1" d="M145.17,14.83v129.49c-26.15.13-79.18.39-90.55.39h-.33c-5.61,0-10.93,2.61-14.39,6.94l-25.08,25.44V14.83h130.34M149,0H11C4.92,0,0,4.92,0,11v175.44c0,6.64,5.43,11.02,11.08,11.02,2.73,0,5.51-1.02,7.75-3.3l32.39-32.86c.65-1.09,1.81-1.75,3.07-1.75h0c.1,0,.21,0,.33,0,11.99,0,69.96-.29,94.43-.41,6.05-.03,10.94-4.95,10.94-11V11c0-6.08-4.92-11-11-11h0Z"/><path class="cls-1" d="M88.46,90.38c.43.2.8.36,1.07.46v-48.43h-15.06v48.45c.2-.08.4-.16.6-.26,4.25-1.99,9.12-2.16,13.39-.22Z"/><path class="cls-1" d="M90.43,106.47c0,4.35-3.29,7.92-7.5,8.37-.31.04-.61.06-.92.06h0c-4.66,0-8.43-3.77-8.43-8.43s3.77-8.42,8.43-8.43h0c.31,0,.61.02.92.06,4.21.45,7.5,4.02,7.5,8.37Z"/></g></g></svg>