<svg width="236" height="215" viewBox="0 0 236 215" fill="none" xmlns="http://www.w3.org/2000/svg">
<g clip-path="url(#clip0_17115_303)">
<path d="M148.65 63.2C169.74 75.13 183.98 97.77 183.98 123.73V133.48" stroke="#191919" stroke-width="13.41" stroke-miterlimit="10"/>
<path d="M45.6507 133.48C45.2007 130.29 44.9707 127.04 44.9707 123.73C44.9707 96.3999 60.7507 72.7499 83.7007 61.3999" stroke="#191919" stroke-width="13.41" stroke-miterlimit="10"/>
<path d="M152.479 181.94C141.559 189.09 128.499 193.24 114.479 193.24C101.389 193.24 89.1492 189.62 78.6992 183.34" stroke="#191919" stroke-width="13.41" stroke-miterlimit="10"/>
<path d="M117.629 14.83C134.129 14.83 147.559 28.26 147.559 44.76C147.559 61.26 134.129 74.69 117.629 74.69C101.129 74.69 87.6991 61.26 87.6991 44.76C87.6991 28.26 101.129 14.83 117.629 14.83ZM117.629 0C92.9091 0 72.8691 20.04 72.8691 44.76C72.8691 69.48 92.9091 89.52 117.629 89.52C142.349 89.52 162.389 69.48 162.389 44.76C162.389 20.04 142.349 0 117.629 0Z" fill="#191919"/>
<path d="M190.49 140.3C206.99 140.3 220.42 153.73 220.42 170.23C220.42 186.73 206.99 200.16 190.49 200.16C173.99 200.16 160.56 186.73 160.56 170.23C160.56 153.73 173.99 140.3 190.49 140.3ZM190.49 125.47C165.77 125.47 145.73 145.51 145.73 170.23C145.73 194.95 165.77 214.99 190.49 214.99C215.21 214.99 235.25 194.95 235.25 170.23C235.25 145.51 215.21 125.47 190.49 125.47Z" fill="#191919"/>
<path d="M132.851 43.53C132.851 51.28 126.991 57.64 119.481 58.44C118.931 58.51 118.391 58.54 117.841 58.54H117.821C109.521 58.52 102.811 51.83 102.811 43.53" stroke="#191919" stroke-width="13" stroke-miterlimit="10"/>
<path d="M44.76 140.3C61.26 140.3 74.69 153.73 74.69 170.23C74.69 186.73 61.26 200.16 44.76 200.16C28.26 200.16 14.83 186.73 14.83 170.23C14.83 153.73 28.26 140.3 44.76 140.3ZM44.76 125.47C20.04 125.47 0 145.51 0 170.23C0 194.95 20.04 214.99 44.76 214.99C69.48 214.99 89.52 194.95 89.52 170.23C89.52 145.51 69.48 125.47 44.76 125.47Z" fill="#191919"/>
<path d="M29.9492 184C29.9492 176.25 35.8092 169.89 43.3192 169.09C43.8692 169.02 44.4092 168.99 44.9592 168.99H44.9792C53.2792 169.01 59.9892 175.7 59.9892 184" stroke="#191919" stroke-width="13" stroke-miterlimit="10"/>
<path d="M116.071 120.38C115.831 120.88 115.141 120.85 114.911 120.35C112.131 114.14 107.981 108.23 101.061 108.23C93.6506 108.23 87.6406 114.24 87.6406 121.65L87.8906 124.26C87.8906 124.26 88.6206 130.7 96.9806 137.96L114.741 151.85L132.501 137.96C140.861 130.7 141.591 124.26 141.591 124.26L141.841 121.67C141.841 114.26 135.821 107.82 128.421 108.25C120.821 108.69 117.681 117.01 116.081 120.38H116.071Z" stroke="#191919" stroke-width="13" stroke-miterlimit="10"/>
<path d="M205.719 177.37H175.689" stroke="#191919" stroke-width="13" stroke-miterlimit="10"/>
</g>
<defs>
<clipPath id="clip0_17115_303">
<rect width="235.25" height="214.99" fill="white"/>
</clipPath>
</defs>
</svg>
