<?xml version="1.0" encoding="UTF-8"?><svg id="Camada_2" xmlns="http://www.w3.org/2000/svg" viewBox="0 0 235.25 214.99"><defs><style>.cls-1{fill:#ede5d7;}.cls-2{fill:none;stroke:#ede5d7;stroke-miterlimit:10;stroke-width:13.41px;}</style></defs><g id="Layer_2"><g id="Autorregulação_branco"><path class="cls-2" d="M148.65,63.2c21.09,11.93,35.33,34.57,35.33,60.53v9.75"/><path class="cls-2" d="M45.65,133.48c-.45-3.19-.68-6.44-.68-9.75,0-27.33,15.78-50.98,38.73-62.33"/><path class="cls-2" d="M152.48,181.94c-10.92,7.15-23.98,11.3-38,11.3-13.09,0-25.33-3.62-35.78-9.9"/><path class="cls-1" d="M117.63,0c-24.72,0-44.76,20.04-44.76,44.76s20.04,44.76,44.76,44.76,44.76-20.04,44.76-44.76S142.35,0,117.63,0ZM120.12,64.4c-.7.08-1.49.13-2.27.13-11.61-.02-21.02-9.45-21.02-21.01h12c0,4.96,4.05,9,9.02,9.01.31,0,.62-.02.93-.06,4.64-.49,8.08-4.34,8.08-8.95h12c0,10.77-8.05,19.74-18.74,20.88Z"/><path class="cls-1" d="M44.76,125.47c-24.72,0-44.76,20.04-44.76,44.76s20.04,44.76,44.76,44.76,44.76-20.04,44.76-44.76-20.04-44.76-44.76-44.76ZM53.99,184c0-4.96-4.05-9-9.02-9.01-.31,0-.62.02-.93.06-4.64.49-8.08,4.34-8.08,8.95h-12c0-10.77,8.05-19.74,18.74-20.88.7-.08,1.49-.13,2.27-.13,11.61.02,21.02,9.45,21.02,21.01h-12Z"/><path class="cls-1" d="M118.29,118.76c-.3.64-1.19.6-1.48-.04-3.56-7.94-8.87-15.51-17.73-15.51-9.49,0-17.18,7.69-17.18,17.18l.32,3.34s.94,8.24,11.63,17.53l22.73,17.77,22.73-17.77c10.69-9.29,11.63-17.53,11.63-17.53l.32-3.31c0-9.49-7.71-17.72-17.18-17.18-9.73.56-13.74,11.21-15.8,15.52Z"/><path class="cls-1" d="M190.49,125.47c-24.72,0-44.76,20.04-44.76,44.76s20.04,44.76,44.76,44.76,44.76-20.04,44.76-44.76-20.04-44.76-44.76-44.76ZM205.72,183.37h-30.03v-12h30.03v12Z"/></g></g></svg>