<?xml version="1.0" encoding="UTF-8"?><svg id="Camada_2" xmlns="http://www.w3.org/2000/svg" viewBox="0 0 235.25 214.99"><defs><style>.cls-1{fill:#ebe4d7;}.cls-2{stroke-width:13px;}.cls-2,.cls-3{fill:none;stroke:#ebe4d7;stroke-miterlimit:10;}.cls-3{stroke-width:13.41px;}</style></defs><g id="Layer_2"><g id="Autorregulação_linha_branca"><path class="cls-3" d="M148.65,63.2c21.09,11.93,35.33,34.57,35.33,60.53v9.75"/><path class="cls-3" d="M45.65,133.48c-.45-3.19-.68-6.44-.68-9.75,0-27.33,15.78-50.98,38.73-62.33"/><path class="cls-3" d="M152.48,181.94c-10.92,7.15-23.98,11.3-38,11.3-13.09,0-25.33-3.62-35.78-9.9"/><path class="cls-1" d="M117.63,14.83c16.5,0,29.93,13.43,29.93,29.93s-13.43,29.93-29.93,29.93-29.93-13.43-29.93-29.93,13.43-29.93,29.93-29.93M117.63,0c-24.72,0-44.76,20.04-44.76,44.76s20.04,44.76,44.76,44.76,44.76-20.04,44.76-44.76S142.35,0,117.63,0h0Z"/><path class="cls-1" d="M190.49,140.3c16.5,0,29.93,13.43,29.93,29.93s-13.43,29.93-29.93,29.93-29.93-13.43-29.93-29.93,13.43-29.93,29.93-29.93M190.49,125.47c-24.72,0-44.76,20.04-44.76,44.76s20.04,44.76,44.76,44.76,44.76-20.04,44.76-44.76-20.04-44.76-44.76-44.76h0Z"/><path class="cls-2" d="M132.85,43.53c0,7.75-5.86,14.11-13.37,14.91-.55.07-1.09.1-1.64.1h-.02c-8.3-.02-15.01-6.71-15.01-15.01"/><path class="cls-1" d="M44.76,140.3c16.5,0,29.93,13.43,29.93,29.93s-13.43,29.93-29.93,29.93-29.93-13.43-29.93-29.93,13.43-29.93,29.93-29.93M44.76,125.47c-24.72,0-44.76,20.04-44.76,44.76s20.04,44.76,44.76,44.76,44.76-20.04,44.76-44.76-20.04-44.76-44.76-44.76h0Z"/><path class="cls-2" d="M29.95,184c0-7.75,5.86-14.11,13.37-14.91.55-.07,1.09-.1,1.64-.1h.02c8.3.02,15.01,6.71,15.01,15.01"/><path class="cls-2" d="M116.07,120.38c-.24.5-.93.47-1.16-.03-2.78-6.21-6.93-12.12-13.85-12.12-7.41,0-13.42,6.01-13.42,13.42l.25,2.61s.73,6.44,9.09,13.7l17.76,13.89,17.76-13.89c8.36-7.26,9.09-13.7,9.09-13.7l.25-2.59c0-7.41-6.02-13.85-13.42-13.42-7.6.44-10.74,8.76-12.34,12.13Z"/><line class="cls-2" x1="205.72" y1="177.37" x2="175.69" y2="177.37"/></g></g></svg>