<?xml version="1.0" encoding="UTF-8"?><svg id="Camada_2" xmlns="http://www.w3.org/2000/svg" viewBox="0 0 235.25 214.99"><defs><style>.cls-1{fill:#e53946;}.cls-1,.cls-2{stroke:#464a4d;stroke-miterlimit:10;stroke-width:13px;}.cls-3{fill:#464a4d;}.cls-2{fill:none;}.cls-4{fill:#f0b43d;}.cls-5{fill:#0c74b7;}.cls-6{fill:#f3802f;}</style></defs><g id="Layer_2"><g id="Autorregulação_cor"><path class="cls-3" d="M114.74,63.44c34.2,0,62.03,27.82,62.03,62.03s-27.82,62.03-62.03,62.03-62.03-27.82-62.03-62.03,27.82-62.03,62.03-62.03M114.74,48.61c-42.45,0-76.86,34.41-76.86,76.86s34.41,76.86,76.86,76.86,76.86-34.41,76.86-76.86-34.41-76.86-76.86-76.86h0Z"/><path class="cls-4" d="M117.63,82.1c-20.59,0-37.34-16.75-37.34-37.34S97.04,7.42,117.63,7.42s37.34,16.75,37.34,37.34-16.75,37.34-37.34,37.34Z"/><path class="cls-3" d="M117.63,14.83c16.5,0,29.93,13.43,29.93,29.93s-13.43,29.93-29.93,29.93-29.93-13.43-29.93-29.93,13.43-29.93,29.93-29.93M117.63,0c-24.72,0-44.76,20.04-44.76,44.76s20.04,44.76,44.76,44.76,44.76-20.04,44.76-44.76S142.35,0,117.63,0h0Z"/><path class="cls-6" d="M190.49,207.57c-20.59,0-37.34-16.75-37.34-37.34s16.75-37.34,37.34-37.34,37.34,16.75,37.34,37.34-16.75,37.34-37.34,37.34Z"/><path class="cls-3" d="M190.49,140.3c16.5,0,29.93,13.43,29.93,29.93s-13.43,29.93-29.93,29.93-29.93-13.43-29.93-29.93,13.43-29.93,29.93-29.93M190.49,125.47c-24.72,0-44.76,20.04-44.76,44.76s20.04,44.76,44.76,44.76,44.76-20.04,44.76-44.76-20.04-44.76-44.76-44.76h0Z"/><path class="cls-2" d="M132.85,43.53c0,7.75-5.86,14.11-13.37,14.91-.55.07-1.09.1-1.64.1h-.02c-8.3-.02-15.01-6.71-15.01-15.01"/><path class="cls-5" d="M44.76,207.57c-20.59,0-37.34-16.75-37.34-37.34s16.75-37.34,37.34-37.34,37.34,16.75,37.34,37.34-16.75,37.34-37.34,37.34Z"/><path class="cls-3" d="M44.76,140.3c16.5,0,29.93,13.43,29.93,29.93s-13.43,29.93-29.93,29.93-29.93-13.43-29.93-29.93,13.43-29.93,29.93-29.93M44.76,125.47c-24.72,0-44.76,20.04-44.76,44.76s20.04,44.76,44.76,44.76,44.76-20.04,44.76-44.76-20.04-44.76-44.76-44.76h0Z"/><path class="cls-2" d="M29.95,184c0-7.75,5.86-14.11,13.37-14.91.55-.07,1.09-.1,1.64-.1h.02c8.3.02,15.01,6.71,15.01,15.01"/><path class="cls-1" d="M116.07,120.38c-.24.5-.93.47-1.16-.03-2.78-6.21-6.93-12.12-13.85-12.12-7.41,0-13.42,6.01-13.42,13.42l.25,2.61s.73,6.44,9.09,13.7l17.76,13.89,17.76-13.89c8.36-7.26,9.09-13.7,9.09-13.7l.25-2.59c0-7.41-6.02-13.85-13.42-13.42-7.6.44-10.74,8.76-12.34,12.13Z"/><line class="cls-2" x1="205.72" y1="177.37" x2="175.69" y2="177.37"/></g></g></svg>