<?xml version="1.0" encoding="UTF-8"?><svg id="Camada_2" xmlns="http://www.w3.org/2000/svg" viewBox="0 0 186.45 195.13"><defs><style>.cls-1{stroke-width:14.83px;}.cls-1,.cls-2{fill:none;stroke:#ebe4d7;stroke-miterlimit:10;}.cls-2{stroke-width:14px;}</style></defs><g id="Layer_2"><g id="Brasil_linha_branca"><path class="cls-1" d="M150.64,59.75l22.72,3.49c3.25.42,5.68,3.19,5.68,6.47v28.18c0,1.5-.51,2.95-1.46,4.11l-15.97,19.69c-.79.98-1.28,2.16-1.42,3.41l-1.64,15.2c-.36,3.31-3.15,5.82-6.48,5.82h-12.39c-3.6,0-6.52,2.92-6.52,6.52v4.18c0,1.68-.65,3.29-1.81,4.51l-23.3,24.37c-1.87,1.96-4.77,2.56-7.26,1.49l-23.59-10.03c-3.64-1.55-5.07-5.95-3.04-9.35l7.11-11.89c1.03-1.72,1.21-3.82.49-5.69l-7.98-20.76c-.33-.86-.84-1.64-1.5-2.29l-25.22-24.97c-1.22-1.21-2.87-1.89-4.59-1.89H13.94c-3.6,0-6.52-2.92-6.52-6.52v-17.2c0-1.91.83-3.72,2.28-4.96l11.02-9.41c1.45-1.24,2.28-3.05,2.28-4.96v-10.41c0-3.6,2.92-6.52,6.52-6.52h15.77c3.6,0,6.52-2.92,6.52-6.52v-4.02c0-3.6,2.92-6.52,6.52-6.52h18.72c1.81,0,3.53.75,4.77,2.07l9.91,10.69"/><path class="cls-2" d="M123.87,7c-19.89,0-36.02,16.13-36.02,36.02h.01c-.63,29.37,28.81,54.02,34.92,58.81l.07.05c.61.47,1.46.47,2.06,0,5.97-4.67,35.62-29.39,34.98-58.86,0-19.89-16.13-36.02-36.02-36.02ZM124.15,53.75c-5.74,0-10.39-4.65-10.39-10.39s4.65-10.39,10.39-10.39,10.39,4.65,10.39,10.39-4.65,10.39-10.39,10.39Z"/></g></g></svg>