<?xml version="1.0" encoding="UTF-8"?><svg id="Camada_2" xmlns="http://www.w3.org/2000/svg" viewBox="0 0 187.18 195.41"><defs><style>.cls-1{fill:#6ec2a8;}.cls-2{fill:#e53946;stroke:#464a4d;stroke-miterlimit:10;stroke-width:14px;}.cls-3{fill:#464a4d;}</style></defs><g id="Layer_2"><g id="Brasil_cor"><path class="cls-1" d="M79.33,177.22l7.58-12.67c2.31-3.86,2.71-8.48,1.09-12.67l-8.71-22.64c-.74-1.93-1.86-3.64-3.33-5.1l-27.51-27.24c-2.73-2.71-6.37-4.2-10.22-4.2H7.42v-18.32l11.91-10.18c3.23-2.76,5.09-6.79,5.09-11.04v-11.05h16.9c8.01,0,14.53-6.52,14.53-14.53v-4.09h19.98l11.81,12.66c.74.8,1.58,1.51,2.49,2.12l29.2,50.82,32.61-25.76,27.84,3.64v30.36l-17.35,21.39c-1.77,2.18-2.86,4.81-3.16,7.6l-1.76,16.31h-13.24c-8.01,0-14.53,6.52-14.53,14.53v4.44l-25.19,26.34-25.21-10.72Z"/><path class="cls-3" d="M72.59,30.91l9.61,10.3c.71.76,1.46,1.46,2.25,2.1l24.15,42.03,8.56,14.9,13.49-10.66,23.41-18.49,18.29,2.39v21.23l-15.69,19.35c-2.67,3.29-4.32,7.26-4.77,11.47l-1.04,9.69h-6.58c-12.1,0-21.94,9.84-21.94,21.94v1.47l-19.59,20.49-12.66-5.39,3.21-5.37c3.49-5.83,4.09-12.81,1.65-19.14l-8.71-22.64c-1.12-2.92-2.82-5.52-5.04-7.72l-27.5-27.23c-4.14-4.09-9.62-6.35-15.44-6.35H14.83v-7.49l9.31-7.96c4.89-4.17,7.69-10.25,7.69-16.68v-3.63h9.48c10.97,0,20.08-8.09,21.69-18.61h9.59M75.95,16.08h-20.41c-3.93,0-7.11,3.18-7.11,7.11v4.39c0,3.93-3.18,7.11-7.11,7.11h-17.2c-3.93,0-7.11,3.18-7.11,7.11v11.35c0,2.08-.91,4.06-2.49,5.41l-12.02,10.27c-1.58,1.35-2.49,3.33-2.49,5.41v18.77c0,3.93,3.18,7.11,7.11,7.11h31.12c1.87,0,3.67.74,5,2.06l27.5,27.23c.72.71,1.27,1.56,1.63,2.5l8.71,22.64c.78,2.04.59,4.33-.54,6.2l-7.76,12.97c-2.22,3.7-.65,8.51,3.32,10.2l25.72,10.94c.9.38,1.84.57,2.78.57,1.9,0,3.77-.76,5.14-2.2l25.42-26.58c1.27-1.32,1.97-3.08,1.97-4.92v-4.56c0-3.93,3.18-7.11,7.11-7.11h13.52c3.63,0,6.68-2.74,7.07-6.35l1.79-16.58c.15-1.36.68-2.65,1.55-3.72l17.42-21.47c1.03-1.27,1.59-2.85,1.59-4.48v-30.74c0-3.57-2.65-6.59-6.19-7.05l-29.15-3.81c-.62-.08-1.22-.24-1.8-.48l-28.59,22.58-25.94-45.14c-.94-.39-1.79-.98-2.48-1.72l-11.9-12.75c-1.35-1.44-3.23-2.26-5.2-2.26h0Z"/><path class="cls-2" d="M124.23,7c-19.89,0-36.02,16.13-36.02,36.02h.01c-.63,29.37,28.81,54.02,34.92,58.81l.07.05c.61.47,1.46.47,2.06,0,5.97-4.67,35.62-29.39,34.98-58.86,0-19.89-16.13-36.02-36.02-36.02ZM124.52,53.75c-5.74,0-10.39-4.65-10.39-10.39s4.65-10.39,10.39-10.39,10.39,4.65,10.39,10.39-4.65,10.39-10.39,10.39Z"/></g></g></svg>