<svg width="187" height="196" viewBox="0 0 187 196" fill="none" xmlns="http://www.w3.org/2000/svg">
<g clip-path="url(#clip0_17115_316)">
<path d="M150.64 59.75L173.36 63.24C176.61 63.66 179.04 66.43 179.04 69.71V97.89C179.04 99.39 178.53 100.84 177.58 102L161.61 121.69C160.82 122.67 160.33 123.85 160.19 125.1L158.55 140.3C158.19 143.61 155.4 146.12 152.07 146.12H139.68C136.08 146.12 133.16 149.04 133.16 152.64V156.82C133.16 158.5 132.51 160.11 131.35 161.33L108.05 185.7C106.18 187.66 103.28 188.26 100.79 187.19L77.1999 177.16C73.5599 175.61 72.1299 171.21 74.1599 167.81L81.2699 155.92C82.2999 154.2 82.4799 152.1 81.7599 150.23L73.7799 129.47C73.4499 128.61 72.9399 127.83 72.2799 127.18L47.0599 102.21C45.8399 101 44.1899 100.32 42.4699 100.32H13.9399C10.3399 100.32 7.41992 97.4 7.41992 93.8V76.6C7.41992 74.69 8.24992 72.88 9.69992 71.64L20.7199 62.23C22.1699 60.99 22.9999 59.18 22.9999 57.27V46.86C22.9999 43.26 25.9199 40.34 29.5199 40.34H45.2899C48.8899 40.34 51.8099 37.42 51.8099 33.82V29.8C51.8099 26.2 54.7299 23.28 58.3299 23.28H77.0499C78.8599 23.28 80.5799 24.03 81.8199 25.35L91.7299 36.04" stroke="#191919" stroke-width="14.83" stroke-miterlimit="10"/>
<path d="M123.87 7C103.98 7 87.8496 23.13 87.8496 43.02H87.8596C87.2296 72.39 116.67 97.04 122.78 101.83L122.85 101.88C123.46 102.35 124.31 102.35 124.91 101.88C130.88 97.21 160.53 72.49 159.89 43.02C159.89 23.13 143.76 7 123.87 7ZM124.15 53.75C118.41 53.75 113.76 49.1 113.76 43.36C113.76 37.62 118.41 32.97 124.15 32.97C129.89 32.97 134.54 37.62 134.54 43.36C134.54 49.1 129.89 53.75 124.15 53.75Z" stroke="#191919" stroke-width="14" stroke-miterlimit="10"/>
</g>
<defs>
<clipPath id="clip0_17115_316">
<rect width="186.45" height="195.13" fill="white"/>
</clipPath>
</defs>
</svg>
