<?xml version="1.0" encoding="UTF-8"?><svg id="Camada_2" xmlns="http://www.w3.org/2000/svg" viewBox="0 0 187.04 179.23"><defs><style>.cls-1{fill:#464a4d;}</style></defs><g id="Layer_2"><g id="Brasil_branco"><path class="cls-1" d="M180.86,43.57l-17.09-2.63c-7.13,27.03-32.57,48.2-38.4,52.77-.7.55-1.67.55-2.38,0l-.08-.06c-7.03-5.52-40.91-33.88-40.18-67.68h-.01c0-6.32,1.42-12.31,3.95-17.67l-5.59-6.03c-1.34-1.44-3.23-2.26-5.2-2.26h-20.4c-3.92,0-7.11,3.18-7.11,7.11v4.39c0,3.92-3.18,7.11-7.11,7.11h-17.19c-3.92,0-7.11,3.18-7.11,7.11v11.34c0,2.08-.91,4.05-2.49,5.4l-12.01,10.26c-1.58,1.35-2.49,3.32-2.49,5.4v18.75c0,3.93,3.18,7.11,7.11,7.11h31.1c1.87,0,3.67.74,5,2.06l27.48,27.21c.71.71,1.27,1.56,1.63,2.5l8.7,22.62c.78,2.04.59,4.33-.53,6.2l-7.75,12.96c-2.21,3.7-.65,8.5,3.32,10.19l25.7,10.93c2.72,1.16,5.87.51,7.92-1.63l25.4-26.56c1.26-1.32,1.97-3.08,1.97-4.91v-4.56c0-3.92,3.18-7.11,7.11-7.11h13.5c3.63,0,6.68-2.74,7.07-6.35l1.78-16.57c.15-1.36.68-2.65,1.55-3.72l17.4-21.46c1.03-1.27,1.59-2.85,1.59-4.48v-30.71c0-3.57-2.65-6.58-6.19-7.05Z"/><path class="cls-1" d="M124.46,0c-16.07,0-29.1,13.03-29.1,29.1h0c-.51,23.73,23.28,43.64,28.21,47.52l.05.04c.49.38,1.18.38,1.67,0,4.82-3.78,28.78-23.75,28.26-47.56,0-16.07-13.03-29.1-29.1-29.1ZM124.69,37.78c-4.64,0-8.4-3.76-8.4-8.4s3.76-8.4,8.4-8.4,8.4,3.76,8.4,8.4-3.76,8.4-8.4,8.4Z"/></g></g></svg>