<?xml version="1.0" encoding="UTF-8"?><svg id="Camada_2" xmlns="http://www.w3.org/2000/svg" viewBox="0 0 167.63 179.66"><defs><style>.cls-1{fill:none;stroke:#464a4d;stroke-miterlimit:10;stroke-width:14.83px;}.cls-2{fill:#464a4d;}</style></defs><g id="Layer_2"><g id="Calendário_preto"><path class="cls-2" d="M0,75.83v92.83c0,6.08,4.92,11,11,11h145.63c6.08,0,11-4.92,11-11v-92.83H0ZM95.19,146.9h-14.83v-27.73c-2.12.89-4.39,1.49-6.78,1.75-.89.1-1.79.16-2.68.16l-.02-14.83c.33,0,.66-.02.97-.06h.11c4.79-.52,8.4-4.56,8.4-9.4h14.83v50.1Z"/><path class="cls-2" d="M156.63,12.03h-11.36v28.73h-42V12.03h-39.3v28.73H21.97V12.03h-10.97C4.92,12.03,0,16.96,0,23.03v37.96h167.63V23.03c0-6.08-4.92-11-11-11Z"/><line class="cls-1" x1="42.97" x2="42.97" y2="29.76"/><line class="cls-1" x1="124.27" x2="124.27" y2="29.76"/></g></g></svg>