<svg width="168" height="180" viewBox="0 0 168 180" fill="none" xmlns="http://www.w3.org/2000/svg">
<g clip-path="url(#clip0_17116_297)">
<path d="M152.8 26.8598V164.83H14.83V26.8598H152.8ZM156.63 12.0298H11C4.93 12.0298 0 16.9598 0 23.0298V168.66C0 174.74 4.93 179.66 11 179.66H156.63C162.71 179.66 167.63 174.74 167.63 168.66V23.0298C167.63 16.9498 162.71 12.0298 156.63 12.0298Z" fill="#FFF6EE"/>
<path d="M42.9707 0V40.76" stroke="#FFF6EE" stroke-width="14.83" stroke-miterlimit="10"/>
<path d="M124.27 0V40.76" stroke="#FFF6EE" stroke-width="14.83" stroke-miterlimit="10"/>
<path d="M161.031 68.4102H3.63086" stroke="#FFF6EE" stroke-width="14.83" stroke-miterlimit="10"/>
<path d="M87.7695 96.7998V146.9" stroke="#FFF6EE" stroke-width="14.83" stroke-miterlimit="10"/>
<path d="M87.7709 96.7998C87.7709 105.52 81.1809 112.67 72.7409 113.56C72.1309 113.63 71.5109 113.67 70.9009 113.67H70.8809" stroke="#FFF6EE" stroke-width="14.83" stroke-miterlimit="10"/>
</g>
<defs>
<clipPath id="clip0_17116_297">
<rect width="167.63" height="179.66" fill="white"/>
</clipPath>
</defs>
</svg>
