<?xml version="1.0" encoding="UTF-8"?><svg id="Camada_2" xmlns="http://www.w3.org/2000/svg" viewBox="0 0 167.63 179.66"><defs><style>.cls-1{fill:none;stroke:#464a4d;stroke-miterlimit:10;stroke-width:14.83px;}.cls-2{fill:#464a4d;}</style></defs><g id="Layer_2"><g id="Calendário_linha_preta"><path class="cls-2" d="M152.8,26.86v137.97H14.83V26.86h137.97M156.63,12.03H11C4.92,12.03,0,16.96,0,23.03v145.63c0,6.08,4.92,11,11,11h145.63c6.08,0,11-4.92,11-11V23.03c0-6.08-4.92-11-11-11h0Z"/><line class="cls-1" x1="42.97" x2="42.97" y2="40.76"/><line class="cls-1" x1="124.27" x2="124.27" y2="40.76"/><line class="cls-1" x1="161.03" y1="68.41" x2="3.63" y2="68.41"/><line class="cls-1" x1="87.77" y1="96.8" x2="87.77" y2="146.9"/><path class="cls-1" d="M87.77,96.8c0,8.72-6.59,15.87-15.03,16.76-.61.07-1.23.11-1.84.11h-.02"/></g></g></svg>