<?xml version="1.0" encoding="UTF-8"?><svg id="Camada_2" xmlns="http://www.w3.org/2000/svg" viewBox="0 0 207.3 165.43"><defs><style>.cls-1{fill:#464a4d;}</style></defs><g id="Layer_2"><g id="Conecte-se_preto"><g id="Conecte-se_linha_preta"><path class="cls-1" d="M68.22,98.3c0-29.2,24.45-52.68,53.99-51.09.42.02.83.06,1.25.1C121.42,19.93,97.86-1.44,69.63.08,43.55,1.48,22.6,22.55,21.35,48.64c-.21,4.47.15,8.83,1.01,13,.6,2.87-.18,5.85-2.2,7.98h0L2.75,86.79c-5.84,5.75-1.76,15.69,6.43,15.69h14.38l44.83-.13c-.1-1.34-.17-2.69-.17-4.05Z"/><path class="cls-1" d="M121.46,68.3c0-.82-.04-1.63-.1-2.43-.17-.01-.34-.03-.51-.04-18.7-1.16-34.23,13.66-34.23,32.11,0,.86.04,1.71.11,2.55h2.55c17.77,0,32.18-14.41,32.18-32.18Z"/></g><path class="cls-1" d="M204.57,149.84l-17.31-17.06h0c-2-2.12-2.78-5.08-2.18-7.93.86-4.14,1.22-8.47,1.01-12.92-1.23-25.51-21.4-46.18-46.74-48.17.09,1.27.16,2.55.16,3.84,0,28.08-22.77,50.85-50.85,50.85h-4.04c2.05,26.21,23.95,46.84,50.68,46.84l48.59.14h14.29c8.14,0,12.19-9.87,6.39-15.59Z"/></g></g></svg>