<svg width="231" height="180" viewBox="0 0 231 180" fill="none" xmlns="http://www.w3.org/2000/svg">
<g clip-path="url(#clip0_17115_332)">
<path d="M86.9906 14.83C112.681 14.83 133.581 35.73 133.581 61.43C133.581 87.13 112.681 108.03 86.9406 108.03L28.2906 108.2H20.3606L34.6206 94.15L34.8106 93.96L34.9906 93.77C40.7006 87.73 43.0806 79.21 41.3706 70.98C40.5706 67.11 40.2606 63.12 40.4506 59.1C41.0006 47.62 45.8006 36.78 53.9606 28.58C62.1206 20.37 72.9306 15.51 84.4006 14.9C85.2606 14.85 86.1406 14.83 86.9906 14.83ZM86.9806 0C85.8606 0 84.7306 0.03 83.5906 0.09C52.2806 1.77 27.1306 27.07 25.6306 58.4C25.3706 63.77 25.8006 69 26.8506 74.01C27.5706 77.45 26.6306 81.03 24.2106 83.59L3.30057 104.19C-3.70943 111.1 1.18057 123.02 11.0206 123.02H28.2906L86.9806 122.85C120.901 122.85 148.411 95.35 148.411 61.42C148.411 27.49 120.911 0 86.9806 0Z" fill="#191919"/>
<path d="M143.321 71.4101C144.181 71.4101 145.051 71.4301 145.911 71.4801C157.381 72.1001 168.191 76.9601 176.351 85.1601C184.511 93.3701 189.311 104.21 189.861 115.68C190.051 119.69 189.741 123.69 188.941 127.56C187.231 135.79 189.611 144.31 195.321 150.35L195.501 150.54L195.691 150.72L209.951 164.77H202.071L143.331 164.6C117.641 164.6 96.7306 143.7 96.7306 118C96.7306 92.3001 117.631 71.4001 143.331 71.4001M143.321 56.5801C109.391 56.5801 81.8906 84.0801 81.8906 118.01C81.8906 151.94 109.391 179.44 143.321 179.44L202.011 179.61H219.281C229.121 179.61 234.011 167.68 227.001 160.78L206.091 140.17C203.671 137.61 202.741 134.04 203.451 130.59C204.491 125.58 204.921 120.35 204.671 114.98C203.171 83.6601 178.021 58.3601 146.711 56.6801C145.571 56.6201 144.441 56.5901 143.321 56.5901V56.5801Z" fill="#191919"/>
<path d="M132.191 72.7501C128.011 89.4201 114.831 102.55 98.1206 106.67C102.301 90.0001 115.491 76.8601 132.191 72.7501ZM143.321 56.5801C109.391 56.5801 81.8906 84.0801 81.8906 118.01C81.8906 119.65 81.9706 121.27 82.1006 122.87H86.9806C120.901 122.86 148.411 95.3501 148.411 61.4301C148.411 59.8701 148.331 58.3201 148.221 56.7901C147.901 56.7601 147.571 56.7301 147.251 56.7101C145.941 56.6301 144.631 56.5901 143.331 56.5901L143.321 56.5801Z" fill="#191919"/>
</g>
<defs>
<clipPath id="clip0_17115_332">
<rect width="230.31" height="179.6" fill="white"/>
</clipPath>
</defs>
</svg>
