<?xml version="1.0" encoding="UTF-8"?><svg id="Camada_2" xmlns="http://www.w3.org/2000/svg" viewBox="0 0 230.31 179.6"><defs><style>.cls-1{fill:#ebe4d7;}</style></defs><g id="Layer_2"><g id="Conecte-se_linha_branca"><g id="Alerta_cor"><path class="cls-1" d="M86.99,14.83c25.69,0,46.59,20.9,46.59,46.6s-20.9,46.6-46.64,46.6l-58.65.17h-7.93l14.26-14.05.19-.19.18-.19c5.71-6.04,8.09-14.56,6.38-22.79-.8-3.87-1.11-7.86-.92-11.88.55-11.48,5.35-22.32,13.51-30.52,8.16-8.21,18.97-13.07,30.44-13.68.86-.05,1.74-.07,2.59-.07h0M86.98,0C85.86,0,84.73.03,83.59.09,52.28,1.77,27.13,27.07,25.63,58.4c-.26,5.37.17,10.6,1.22,15.61.72,3.44-.22,7.02-2.64,9.58L3.3,104.19c-7.01,6.91-2.12,18.83,7.72,18.83h17.27l58.69-.17c33.92,0,61.43-27.5,61.43-61.43S120.91,0,86.98,0h0Z"/></g><g id="Alerta_cor-2"><path class="cls-1" d="M143.32,71.41c.86,0,1.73.02,2.59.07,11.47.62,22.28,5.48,30.44,13.68,8.16,8.21,12.96,19.05,13.51,30.52.19,4.01-.12,8.01-.92,11.88-1.71,8.23.67,16.75,6.38,22.79l.18.19.19.18,14.26,14.05h-7.88l-58.74-.17c-25.69,0-46.6-20.9-46.6-46.6s20.9-46.6,46.6-46.6M143.32,56.58c-33.93,0-61.43,27.5-61.43,61.43s27.5,61.43,61.43,61.43l58.69.17h17.27c9.84,0,14.73-11.93,7.72-18.83l-20.91-20.61c-2.42-2.56-3.35-6.13-2.64-9.58,1.04-5.01,1.47-10.24,1.22-15.61-1.5-31.32-26.65-56.62-57.96-58.3-1.14-.06-2.27-.09-3.39-.09h0Z"/></g><path class="cls-1" d="M132.19,72.75c-4.18,16.67-17.36,29.8-34.07,33.92,4.18-16.67,17.37-29.81,34.07-33.92M143.32,56.58c-33.93,0-61.43,27.5-61.43,61.43,0,1.64.08,3.26.21,4.86h4.88c33.92-.01,61.43-27.52,61.43-61.44,0-1.56-.08-3.11-.19-4.64-.32-.03-.65-.06-.97-.08-1.31-.08-2.62-.12-3.92-.12h0Z"/></g></g></svg>