<?xml version="1.0" encoding="UTF-8"?><svg id="Camada_2" xmlns="http://www.w3.org/2000/svg" viewBox="0 0 180.47 180.47"><defs><style>.cls-1{fill:#6ec2a8;}.cls-1,.cls-2{stroke:#464a4d;stroke-miterlimit:10;stroke-width:14.83px;}.cls-2{fill:none;}</style></defs><g id="Layer_2"><g id="Credibilidade_cor"><path class="cls-1" d="M92.53,21.91l11.28-13.42c1.52-1.81,4.44-1.23,5.16,1.03l5.29,16.72c.56,1.78,2.59,2.62,4.24,1.76l15.56-8.08c2.1-1.09,4.58.56,4.37,2.92l-1.51,17.47c-.16,1.86,1.39,3.41,3.25,3.25l17.47-1.51c2.36-.2,4.01,2.27,2.92,4.37l-8.08,15.56c-.86,1.65-.02,3.68,1.76,4.24l16.72,5.29c2.26.71,2.84,3.63,1.03,5.16l-13.42,11.28c-1.43,1.2-1.43,3.39,0,4.59l13.42,11.28c1.81,1.52,1.23,4.44-1.03,5.16l-16.72,5.29c-1.78.56-2.62,2.59-1.76,4.24l8.08,15.56c1.09,2.1-.56,4.58-2.92,4.37l-17.47-1.51c-1.86-.16-3.41,1.39-3.25,3.25l1.51,17.47c.2,2.36-2.27,4.01-4.37,2.92l-15.56-8.08c-1.65-.86-3.68-.02-4.24,1.76l-5.29,16.72c-.71,2.26-3.63,2.84-5.16,1.03l-11.28-13.42c-1.2-1.43-3.39-1.43-4.59,0l-11.28,13.42c-1.52,1.81-4.44,1.23-5.16-1.03l-5.29-16.72c-.56-1.78-2.59-2.62-4.24-1.76l-15.56,8.08c-2.1,1.09-4.58-.56-4.37-2.92l1.51-17.47c.16-1.86-1.39-3.41-3.25-3.25l-17.47,1.51c-2.36.2-4.01-2.27-2.92-4.37l8.08-15.56c.86-1.65.02-3.68-1.76-4.24l-16.72-5.29c-2.26-.71-2.84-3.63-1.03-5.16l13.42-11.28c1.43-1.2,1.43-3.39,0-4.59l-13.42-11.28c-1.81-1.52-1.23-4.44,1.03-5.16l16.72-5.29c1.78-.56,2.62-2.59,1.76-4.24l-8.08-15.56c-1.09-2.1.56-4.58,2.92-4.37l17.47,1.51c1.86.16,3.41-1.39,3.25-3.25l-1.51-17.47c-.2-2.36,2.27-4.01,4.37-2.92l15.56,8.08c1.65.86,3.68.02,4.24-1.76l5.29-16.72c.71-2.26,3.63-2.84,5.16-1.03l11.28,13.42c1.2,1.43,3.39,1.43,4.59,0Z"/><polyline class="cls-2" points="117.95 71.77 82.86 108.7 62.52 89.48"/></g></g></svg>