<svg width="181" height="181" viewBox="0 0 181 181" fill="none" xmlns="http://www.w3.org/2000/svg">
<g clip-path="url(#clip0_17115_340)">
<path d="M92.5304 21.9102L103.81 8.49021C105.33 6.68021 108.25 7.26021 108.97 9.52021L114.26 26.2402C114.82 28.0202 116.85 28.8602 118.5 28.0002L134.06 19.9202C136.16 18.8302 138.64 20.4802 138.43 22.8402L136.92 40.3102C136.76 42.1702 138.31 43.7202 140.17 43.5602L157.64 42.0502C160 41.8502 161.65 44.3202 160.56 46.4202L152.48 61.9802C151.62 63.6302 152.46 65.6602 154.24 66.2202L170.96 71.5102C173.22 72.2202 173.8 75.1402 171.99 76.6702L158.57 87.9502C157.14 89.1502 157.14 91.3402 158.57 92.5402L171.99 103.82C173.8 105.34 173.22 108.26 170.96 108.98L154.24 114.27C152.46 114.83 151.62 116.86 152.48 118.51L160.56 134.07C161.65 136.17 160 138.65 157.64 138.44L140.17 136.93C138.31 136.77 136.76 138.32 136.92 140.18L138.43 157.65C138.63 160.01 136.16 161.66 134.06 160.57L118.5 152.49C116.85 151.63 114.82 152.47 114.26 154.25L108.97 170.97C108.26 173.23 105.34 173.81 103.81 172L92.5304 158.58C91.3304 157.15 89.1404 157.15 87.9404 158.58L76.6604 172C75.1404 173.81 72.2204 173.23 71.5004 170.97L66.2104 154.25C65.6504 152.47 63.6204 151.63 61.9704 152.49L46.4104 160.57C44.3104 161.66 41.8304 160.01 42.0404 157.65L43.5504 140.18C43.7104 138.32 42.1604 136.77 40.3004 136.93L22.8304 138.44C20.4704 138.64 18.8204 136.17 19.9104 134.07L27.9904 118.51C28.8504 116.86 28.0104 114.83 26.2304 114.27L9.51044 108.98C7.25044 108.27 6.67044 105.35 8.48044 103.82L21.9004 92.5402C23.3304 91.3402 23.3304 89.1502 21.9004 87.9502L8.48044 76.6702C6.67044 75.1502 7.25044 72.2302 9.51044 71.5102L26.2304 66.2202C28.0104 65.6602 28.8504 63.6302 27.9904 61.9802L19.9104 46.4202C18.8204 44.3202 20.4704 41.8402 22.8304 42.0502L40.3004 43.5602C42.1604 43.7202 43.7104 42.1702 43.5504 40.3102L42.0404 22.8402C41.8404 20.4802 44.3104 18.8302 46.4104 19.9202L61.9704 28.0002C63.6204 28.8602 65.6504 28.0202 66.2104 26.2402L71.5004 9.52021C72.2104 7.26021 75.1304 6.68021 76.6604 8.49021L87.9404 21.9102C89.1404 23.3402 91.3304 23.3402 92.5304 21.9102Z" fill="#6EC2A8" stroke="#191919" stroke-width="14.83" stroke-miterlimit="10"/>
<path d="M117.95 71.77L82.8595 108.7L62.5195 89.48" stroke="#191919" stroke-width="14.83" stroke-miterlimit="10"/>
</g>
<defs>
<clipPath id="clip0_17115_340">
<rect width="180.47" height="180.47" fill="white"/>
</clipPath>
</defs>
</svg>
