<?xml version="1.0" encoding="UTF-8"?><svg id="Camada_2" xmlns="http://www.w3.org/2000/svg" viewBox="0 0 181.09 181.09"><defs><style>.cls-1{fill:#464a4d;}</style></defs><g id="Layer_2"><path id="Credibilidade_preenchido_preto" class="cls-1" d="M178.03,100.3l-11.61-9.76,11.61-9.76c5.17-4.34,3.51-12.68-2.93-14.71l-14.46-4.57,6.99-13.46c3.11-5.99-1.61-13.05-8.33-12.47l-15.11,1.31,1.31-15.11c.58-6.72-6.48-11.44-12.47-8.33l-13.46,6.99-4.57-14.46c-2.03-6.43-10.37-8.09-14.71-2.93l-9.76,11.61-9.76-11.61c-4.34-5.17-12.68-3.51-14.71,2.93l-4.57,14.46-13.46-6.99c-5.99-3.11-13.05,1.61-12.47,8.33l1.31,15.11-15.11-1.31c-6.72-.58-11.44,6.48-8.33,12.47l6.99,13.46-14.46,4.57c-6.43,2.03-8.09,10.37-2.93,14.71l11.61,9.76-11.61,9.76c-5.17,4.34-3.51,12.68,2.93,14.71l14.46,4.57-6.99,13.46c-3.11,5.99,1.61,13.05,8.33,12.47l15.11-1.31-1.31,15.11c-.58,6.72,6.48,11.44,12.47,8.33l13.46-6.99,4.57,14.46c2.03,6.43,10.37,8.09,14.71,2.93l9.76-11.61,9.76,11.61c4.34,5.17,12.68,3.51,14.71-2.93l4.57-14.46,13.46,6.99c5.99,3.11,13.05-1.61,12.47-8.33l-1.31-15.11,15.11,1.31c6.72.58,11.44-6.48,8.33-12.47l-6.99-13.46,14.46-4.57c6.43-2.03,8.09-10.37,2.93-14.71ZM83.98,121.47l-27.5-26,10.9-11.53,16,15.13,32.08-33.77,11.5,10.93-42.98,45.24Z"/></g></svg>