<?xml version="1.0" encoding="UTF-8"?><svg id="Camada_2" xmlns="http://www.w3.org/2000/svg" viewBox="0 0 192.37 187.97"><defs><style>.cls-1{fill:#464a4d;}.cls-2{fill:none;stroke:#464a4d;stroke-miterlimit:10;stroke-width:13px;}.cls-3{fill:#0e74b6;}.cls-4{fill:#f48131;}</style></defs><g id="Layer_2"><g id="Cultura_cor"><path class="cls-3" d="M133.35,110.64c-28.46,0-51.61-23.15-51.61-51.61V10.74c0-1.83,1.49-3.33,3.33-3.33h96.57c1.83,0,3.33,1.49,3.33,3.33v48.29c0,28.46-23.16,51.61-51.61,51.61h0Z"/><path class="cls-1" d="M177.54,14.83v44.2c0,11.81-4.6,22.9-12.94,31.25-8.35,8.35-19.45,12.94-31.25,12.94-24.37,0-44.2-19.83-44.2-44.2V14.83h88.39M181.63,0h-96.57c-5.93,0-10.74,4.81-10.74,10.74v48.29c0,32.6,26.43,59.03,59.03,59.03h0c32.6,0,59.03-26.43,59.03-59.03V10.74c0-5.93-4.81-10.74-10.74-10.74h0Z"/><path class="cls-4" d="M69.84,180.55c-23.29,0-43.78-15.74-49.82-38.27l-12.5-46.64c-.47-1.77.58-3.6,2.35-4.07l93.28-24.99c.29-.08.58-.12.87-.12,1.5,0,2.82,1.01,3.21,2.47l12.5,46.64c3.57,13.32,1.74,27.23-5.16,39.16-6.89,11.94-18.02,20.48-31.34,24.05-4.39,1.18-8.9,1.77-13.39,1.77Z"/><path class="cls-1" d="M101.13,74.79l11.44,42.69c6.31,23.54-7.71,47.82-31.25,54.13-3.77,1.01-7.63,1.52-11.48,1.52-19.94,0-37.48-13.48-42.65-32.77l-11.44-42.69,85.38-22.88M104.03,59.04c-.92,0-1.86.12-2.79.37L7.96,84.41c-5.73,1.54-9.13,7.42-7.59,13.15l12.5,46.64c7.07,26.37,30.92,43.76,56.98,43.76,5.06,0,10.2-.66,15.31-2.03h0c31.49-8.44,50.18-40.8,41.74-72.29l-12.5-46.64c-1.29-4.8-5.63-7.96-10.37-7.96h0Z"/><path class="cls-2" d="M92.9,122.66c3.19,11.9-3.2,24.07-14.38,28.38-.81.33-1.64.6-2.48.83h-.03c-12.74,3.39-25.79-4.12-29.2-16.85"/><path class="cls-2" d="M155.21,85.3c0-13.19-10.66-23.82-23.84-23.84h-.03c-.87,0-1.74.05-2.61.16-.55.06-1.1.14-1.63.23-6.24,1.1-11.61,5.06-15.04,10.38l-.74,1.15"/></g></g></svg>