<?xml version="1.0" encoding="UTF-8"?><svg id="Camada_2" xmlns="http://www.w3.org/2000/svg" viewBox="0 0 158 157.97"><defs><style>.cls-1{fill:#464a4d;}</style></defs><g id="Layer_2"><g id="Cultura_preto"><path class="cls-1" d="M96.22,101.25l-8.81-32.89c-1.57-5.87-7.6-9.35-13.47-7.78L8.16,78.21c-5.87,1.57-9.35,7.6-7.78,13.47l8.81,32.89c6.44,24.03,31.14,38.29,55.17,31.85h0c24.03-6.44,38.29-31.14,31.85-55.17ZM61.08,134.42c-.72.29-1.55.57-2.39.79l-.1.03c-1.97.52-3.95.77-5.9.77-10.21,0-19.61-6.84-22.38-17.17l9.58-2.57c1.88,7.04,9.16,11.23,16.22,9.36.46-.12.9-.27,1.33-.44,6.37-2.45,9.8-9.22,8.04-15.77l9.58-2.57c3.07,11.47-2.94,23.32-13.99,27.57Z"/><path class="cls-1" d="M158,11c0-6.08-4.92-11-11-11h-66.78c-6.08,0-11,4.92-11,11v33.39c0,1.99.14,3.95.39,5.88l15.14-4.14c3.37-.9,6.81.46,8.72,3.15,3.65-3.84,8.62-6.44,14.27-7.04.78-.09,1.65-.15,2.51-.15,12.79.03,23.18,10.41,23.18,23.16h-9.92c0-7.28-5.94-13.22-13.25-13.24-.47,0-.94.03-1.4.08-6.03.64-10.69,5.18-11.65,10.94,2.36,10.49,5.54,24.66,5.65,25.22,1.25.08,4.26.77,10.76.53,24.52,0,44.39-19.88,44.39-44.39V11Z"/></g></g></svg>