<svg width="192" height="188" viewBox="0 0 192 188" fill="none" xmlns="http://www.w3.org/2000/svg">
<g clip-path="url(#clip0_17115_345)">
<path d="M82.8913 71.4202C81.8913 67.4102 81.3613 63.2202 81.3613 58.9002V16.7802C81.3613 11.6102 85.5513 7.41016 90.7313 7.41016H174.971C180.141 7.41016 184.341 11.6002 184.341 16.7802V58.9002C184.341 87.3402 161.291 110.39 132.851 110.39C126.811 110.39 122.101 109.65 121.931 109.62" stroke="#191919" stroke-width="14.83" stroke-miterlimit="10"/>
<path d="M101.131 74.6699L112.571 117.36C118.881 140.9 104.861 165.18 81.3206 171.49C77.5506 172.5 73.6906 173.01 69.8406 173.01C49.9006 173.01 32.3606 159.53 27.1906 140.24L15.7506 97.5499L101.131 74.6699ZM104.031 58.9199C103.111 58.9199 102.171 59.0399 101.241 59.2899L7.96061 84.2899C2.23061 85.8299 -1.16939 91.7099 0.370611 97.4399L12.8706 144.08C19.9406 170.45 43.7906 187.84 69.8506 187.84C74.9106 187.84 80.0506 187.18 85.1606 185.81C116.651 177.37 135.341 145.01 126.901 113.52L114.401 66.8799C113.111 62.0799 108.771 58.9199 104.031 58.9199Z" fill="#191919"/>
<path d="M92.9005 122.54C96.0905 134.44 89.7005 146.61 78.5205 150.92C77.7105 151.25 76.8805 151.52 76.0405 151.75H76.0105C63.2705 155.14 50.2205 147.63 46.8105 134.9" stroke="#191919" stroke-width="13" stroke-miterlimit="10"/>
<path d="M155.21 85.1803C155.21 71.9903 144.55 61.3603 131.37 61.3403H131.34C130.47 61.3403 129.6 61.3903 128.73 61.5003C128.18 61.5603 127.63 61.6403 127.1 61.7303C120.86 62.8303 115.49 66.7903 112.06 72.1103L111.32 73.2603" stroke="#191919" stroke-width="13" stroke-miterlimit="10"/>
</g>
<defs>
<clipPath id="clip0_17115_345">
<rect width="191.75" height="187.85" fill="white"/>
</clipPath>
</defs>
</svg>
