<svg width="171" height="171" viewBox="0 0 171 171" fill="none" xmlns="http://www.w3.org/2000/svg"><g clip-path="url(#clip0_17115_352)"><path d="M85.34 163.27C78.13 163.27 71.32 160.13 66.64 154.64L59.9 146.75L49.56 147.57C48.9 147.62 48.23 147.65 47.57 147.65C40.77 147.65 34.2 144.77 29.56 139.74C24.86 134.65 22.57 128.04 23.12 121.12L23.94 110.78L16.05 104.04C10.57 99.36 7.42 92.55 7.42 85.34C7.42 78.13 10.56 71.32 16.05 66.64L23.94 59.9L23.12 49.56C22.57 42.64 24.86 36.03 29.56 30.94C34.21 25.91 40.77 23.03 47.57 23.03C48.23 23.03 48.9 23.06 49.56 23.11L59.9 23.93L66.64 16.04C71.32 10.56 78.13 7.41 85.34 7.41C92.55 7.41 99.36 10.55 104.04 16.04L110.78 23.93L121.12 23.11C121.78 23.06 122.45 23.03 123.11 23.03C129.91 23.03 136.48 25.91 141.12 30.94C145.82 36.03 148.11 42.64 147.56 49.56L146.74 59.9L154.63 66.64C160.11 71.32 163.26 78.13 163.26 85.34C163.26 92.55 160.12 99.36 154.63 104.04L146.74 110.78L147.56 121.12C148.11 128.04 145.82 134.65 141.12 139.74C136.47 144.77 129.91 147.65 123.11 147.65C122.45 147.65 121.78 147.62 121.12 147.57L110.78 146.75L104.04 154.64C99.36 160.12 92.55 163.27 85.34 163.27Z" fill="#3398CB"/><path d="M85.34 14.83C90.45 14.83 95.09 16.97 98.4 20.85L102.68 25.87L107.59 31.62L115.13 31.02L121.7 30.5C122.17 30.46 122.64 30.44 123.11 30.44C127.92 30.44 132.38 32.4 135.68 35.97C138.96 39.52 140.56 44.14 140.18 48.97L139.66 55.54L139.06 63.08L144.81 67.99L149.83 72.27C153.72 75.59 155.85 80.22 155.85 85.33C155.85 90.44 153.71 95.08 149.83 98.39L144.81 102.67L139.06 107.58L139.66 115.12L140.18 121.69C140.56 126.52 138.96 131.14 135.68 134.69C132.39 138.26 127.92 140.22 123.11 140.22C122.65 140.22 122.17 140.2 121.7 140.16L115.13 139.64L107.59 139.04L102.68 144.79L98.4 149.81C95.08 153.69 90.45 155.83 85.34 155.83C80.23 155.83 75.59 153.69 72.28 149.81L68 144.79L63.09 139.04L55.55 139.64L48.98 140.16C48.51 140.2 48.04 140.22 47.57 140.22C42.76 140.22 38.3 138.26 35 134.69C31.72 131.14 30.12 126.52 30.5 121.69L31.02 115.12L31.62 107.58L25.87 102.67L20.85 98.39C16.97 95.08 14.83 90.44 14.83 85.33C14.83 80.22 16.97 75.58 20.85 72.27L25.87 67.99L31.62 63.08L31.02 55.54L30.5 48.97C30.12 44.14 31.72 39.52 35 35.97C38.29 32.4 42.76 30.44 47.57 30.44C48.03 30.44 48.51 30.46 48.98 30.5L55.55 31.02L63.09 31.62L68 25.87L72.28 20.85C75.6 16.97 80.23 14.83 85.34 14.83ZM85.34 0C76.36 0 67.39 3.74 61 11.23L56.72 16.25L50.15 15.73C49.28 15.66 48.43 15.63 47.57 15.63C29.12 15.63 14.24 31.4 15.72 50.16L16.24 56.73L11.22 61.01C-3.75 73.79 -3.75 96.92 11.22 109.69L16.24 113.97L15.72 120.54C14.24 139.29 29.12 155.07 47.57 155.07C48.42 155.07 49.28 155.04 50.15 154.97L56.72 154.45L61 159.47C67.39 166.96 76.36 170.7 85.34 170.7C94.32 170.7 103.29 166.96 109.68 159.47L113.96 154.45L120.53 154.97C121.4 155.04 122.25 155.07 123.11 155.07C141.56 155.07 156.44 139.3 154.96 120.54L154.44 113.97L159.46 109.69C174.43 96.92 174.43 73.78 159.46 61.01L154.44 56.73L154.96 50.16C156.44 31.41 141.56 15.63 123.11 15.63C122.26 15.63 121.4 15.66 120.53 15.73L113.96 16.25L109.68 11.23C103.29 3.74 94.32 0 85.34 0Z" fill="#191919"/><path d="M90.41 60.84L94.39 70.24C95.18 72.12 96.95 73.4 98.98 73.58L109.14 74.46C113.98 74.88 115.94 80.91 112.27 84.09L104.56 90.78C103.02 92.12 102.35 94.19 102.81 96.18L105.12 106.12C106.22 110.85 101.09 114.58 96.92 112.07L88.18 106.81C86.43 105.76 84.25 105.76 82.5 106.81L73.76 112.07C69.6 114.58 64.47 110.85 65.56 106.12L67.87 96.18C68.33 94.19 67.66 92.12 66.12 90.78L58.41 84.09C54.74 80.91 56.7 74.87 61.54 74.46L71.7 73.58C73.73 73.4 75.5 72.12 76.29 70.24L80.27 60.84C82.16 56.36 88.51 56.36 90.4 60.84H90.41Z" fill="#F4B63E" stroke="#191919" stroke-width="14" stroke-miterlimit="10"/></g><defs><clipPath id="clip0_17115_352"><rect width="170.69" height="170.69" fill="white"/></clipPath></defs></svg>