<?xml version="1.0" encoding="UTF-8"?><svg id="Camada_2" xmlns="http://www.w3.org/2000/svg" viewBox="0 0 170.69 170.69"><defs><style>.cls-1{fill:#464a4d;}</style></defs><g id="Layer_2"><g id="Estrela_preto"><path class="cls-1" d="M159.46,61l-5.02-4.28.52-6.57c1.55-19.62-14.81-35.98-34.42-34.42l-6.57.52-4.28-5.02c-12.78-14.97-35.91-14.97-48.68,0l-4.28,5.02-6.57-.52c-19.62-1.55-35.98,14.81-34.42,34.42l.52,6.57-5.02,4.28c-14.97,12.78-14.97,35.91,0,48.68l5.02,4.28-.52,6.57c-1.55,19.62,14.81,35.98,34.42,34.42l6.57-.52,4.28,5.02c12.78,14.97,35.91,14.97,48.68,0l4.28-5.02,6.57.52c19.62,1.55,35.98-14.81,34.42-34.42l-.52-6.57,5.02-4.28c14.97-12.77,14.97-35.91,0-48.68ZM114.08,86.55l-7.75,6.72c-.56.49-.81,1.24-.64,1.96l2.32,9.99c1.8,7.75-6.6,13.85-13.41,9.74l-8.78-5.29c-.63-.38-1.43-.38-2.06,0l-8.78,5.29c-6.81,4.1-15.21-2-13.41-9.74l2.32-9.99c.17-.72-.08-1.48-.64-1.96l-7.75-6.72c-6.01-5.21-2.8-15.08,5.12-15.77l10.22-.88c.74-.06,1.38-.53,1.67-1.21l4-9.44c3.1-7.32,13.48-7.32,16.58,0l4,9.44c.29.68.93,1.15,1.67,1.21l10.22.88c7.92.68,11.13,10.55,5.12,15.77Z"/></g></g></svg>