<svg width="171" height="171" viewBox="0 0 171 171" fill="none" xmlns="http://www.w3.org/2000/svg">
<g clip-path="url(#clip0_17115_352)">
<path d="M85.3399 163.27C78.1299 163.27 71.3199 160.13 66.6399 154.64L59.8999 146.75L49.5599 147.57C48.8999 147.62 48.2299 147.65 47.5699 147.65C40.7699 147.65 34.1999 144.77 29.5599 139.74C24.8599 134.65 22.5699 128.04 23.1199 121.12L23.9399 110.78L16.0499 104.04C10.5699 99.3602 7.41992 92.5501 7.41992 85.3401C7.41992 78.1301 10.5599 71.3202 16.0499 66.6402L23.9399 59.9002L23.1199 49.5602C22.5699 42.6402 24.8599 36.0302 29.5599 30.9402C34.2099 25.9102 40.7699 23.0302 47.5699 23.0302C48.2299 23.0302 48.8999 23.0602 49.5599 23.1102L59.8999 23.9302L66.6399 16.0402C71.3199 10.5602 78.1299 7.41016 85.3399 7.41016C92.5499 7.41016 99.3599 10.5502 104.04 16.0402L110.78 23.9302L121.12 23.1102C121.78 23.0602 122.45 23.0302 123.11 23.0302C129.91 23.0302 136.48 25.9102 141.12 30.9402C145.82 36.0302 148.11 42.6402 147.56 49.5602L146.74 59.9002L154.63 66.6402C160.11 71.3202 163.26 78.1301 163.26 85.3401C163.26 92.5501 160.12 99.3602 154.63 104.04L146.74 110.78L147.56 121.12C148.11 128.04 145.82 134.65 141.12 139.74C136.47 144.77 129.91 147.65 123.11 147.65C122.45 147.65 121.78 147.62 121.12 147.57L110.78 146.75L104.04 154.64C99.3599 160.12 92.5499 163.27 85.3399 163.27Z" fill="#3398CB"/>
<path d="M85.3397 14.83C90.4497 14.83 95.0897 16.97 98.3997 20.85L102.68 25.87L107.59 31.62L115.13 31.02L121.7 30.5C122.17 30.46 122.64 30.44 123.11 30.44C127.92 30.44 132.38 32.4 135.68 35.97C138.96 39.52 140.56 44.14 140.18 48.97L139.66 55.54L139.06 63.08L144.81 67.99L149.83 72.27C153.72 75.59 155.85 80.22 155.85 85.33C155.85 90.44 153.71 95.08 149.83 98.39L144.81 102.67L139.06 107.58L139.66 115.12L140.18 121.69C140.56 126.52 138.96 131.14 135.68 134.69C132.39 138.26 127.92 140.22 123.11 140.22C122.65 140.22 122.17 140.2 121.7 140.16L115.13 139.64L107.59 139.04L102.68 144.79L98.3997 149.81C95.0797 153.69 90.4497 155.83 85.3397 155.83C80.2297 155.83 75.5897 153.69 72.2797 149.81L67.9997 144.79L63.0897 139.04L55.5497 139.64L48.9797 140.16C48.5097 140.2 48.0397 140.22 47.5697 140.22C42.7597 140.22 38.2997 138.26 34.9997 134.69C31.7197 131.14 30.1197 126.52 30.4997 121.69L31.0197 115.12L31.6197 107.58L25.8697 102.67L20.8497 98.39C16.9697 95.08 14.8297 90.44 14.8297 85.33C14.8297 80.22 16.9697 75.58 20.8497 72.27L25.8697 67.99L31.6197 63.08L31.0197 55.54L30.4997 48.97C30.1197 44.14 31.7197 39.52 34.9997 35.97C38.2897 32.4 42.7597 30.44 47.5697 30.44C48.0297 30.44 48.5097 30.46 48.9797 30.5L55.5497 31.02L63.0897 31.62L67.9997 25.87L72.2797 20.85C75.5997 16.97 80.2297 14.83 85.3397 14.83ZM85.3397 0C76.3597 0 67.3897 3.74 60.9997 11.23L56.7197 16.25L50.1497 15.73C49.2797 15.66 48.4297 15.63 47.5697 15.63C29.1197 15.63 14.2397 31.4 15.7197 50.16L16.2397 56.73L11.2197 61.01C-3.75031 73.79 -3.75031 96.92 11.2197 109.69L16.2397 113.97L15.7197 120.54C14.2397 139.29 29.1197 155.07 47.5697 155.07C48.4197 155.07 49.2797 155.04 50.1497 154.97L56.7197 154.45L60.9997 159.47C67.3897 166.96 76.3597 170.7 85.3397 170.7C94.3197 170.7 103.29 166.96 109.68 159.47L113.96 154.45L120.53 154.97C121.4 155.04 122.25 155.07 123.11 155.07C141.56 155.07 156.44 139.3 154.96 120.54L154.44 113.97L159.46 109.69C174.43 96.92 174.43 73.78 159.46 61.01L154.44 56.73L154.96 50.16C156.44 31.41 141.56 15.63 123.11 15.63C122.26 15.63 121.4 15.66 120.53 15.73L113.96 16.25L109.68 11.23C103.29 3.74 94.3197 0 85.3397 0Z" fill="#191919"/>
<path d="M90.4089 60.84L94.3889 70.24C95.1789 72.12 96.9489 73.4 98.9789 73.58L109.139 74.46C113.979 74.88 115.939 80.91 112.269 84.09L104.559 90.78C103.019 92.12 102.349 94.19 102.809 96.18L105.119 106.12C106.219 110.85 101.089 114.58 96.9189 112.07L88.1789 106.81C86.4289 105.76 84.2489 105.76 82.4989 106.81L73.7589 112.07C69.5989 114.58 64.4689 110.85 65.5589 106.12L67.8689 96.18C68.3289 94.19 67.6589 92.12 66.1189 90.78L58.4089 84.09C54.7389 80.91 56.6989 74.87 61.5389 74.46L71.6989 73.58C73.7289 73.4 75.4989 72.12 76.2889 70.24L80.2689 60.84C82.1589 56.36 88.5089 56.36 90.3989 60.84H90.4089Z" fill="#F4B63E" stroke="#191919" stroke-width="14" stroke-miterlimit="10"/>
</g>
<defs>
<clipPath id="clip0_17115_352">
<rect width="170.69" height="170.69" fill="white"/>
</clipPath>
</defs>
</svg>
