<?xml version="1.0" encoding="UTF-8"?><svg id="Camada_2" xmlns="http://www.w3.org/2000/svg" viewBox="0 0 170.69 170.69"><defs><style>.cls-1{fill:none;stroke:#ebe4d7;stroke-miterlimit:10;stroke-width:14px;}.cls-2{fill:#ebe4d7;}</style></defs><g id="Layer_2"><g id="Estrela_linha_branca"><path class="cls-2" d="M85.34,14.83c5.11,0,9.75,2.14,13.06,6.02l4.28,5.02,4.91,5.75,7.54-.6,6.57-.52c.47-.04.94-.06,1.41-.06,4.81,0,9.27,1.96,12.57,5.53,3.28,3.55,4.88,8.17,4.5,13l-.52,6.57-.6,7.54,5.75,4.91,5.02,4.28c3.89,3.32,6.02,7.95,6.02,13.06s-2.14,9.75-6.02,13.06l-5.02,4.28-5.75,4.91.6,7.54.52,6.57c.38,4.83-1.22,9.45-4.5,13-3.29,3.57-7.76,5.53-12.57,5.53-.46,0-.94-.02-1.41-.06l-6.57-.52-7.54-.6-4.91,5.75-4.28,5.02c-3.32,3.88-7.95,6.02-13.06,6.02s-9.75-2.14-13.06-6.02l-4.28-5.02-4.91-5.75-7.54.6-6.57.52c-.47.04-.94.06-1.41.06-4.81,0-9.27-1.96-12.57-5.53-3.28-3.55-4.88-8.17-4.5-13l.52-6.57.6-7.54-5.75-4.91-5.02-4.28c-3.88-3.32-6.02-7.95-6.02-13.06,0-5.11,2.14-9.75,6.02-13.06l5.02-4.28,5.75-4.91-.6-7.54-.52-6.57c-.38-4.83,1.22-9.45,4.5-13,3.29-3.57,7.76-5.53,12.57-5.53.46,0,.94.02,1.41.06l6.57.52,7.54.6,4.91-5.75,4.28-5.02c3.32-3.88,7.95-6.02,13.06-6.02M85.34,0c-8.98,0-17.95,3.74-24.34,11.23l-4.28,5.02-6.57-.52c-.87-.07-1.72-.1-2.58-.1-18.45,0-33.33,15.77-31.85,34.53l.52,6.57-5.02,4.28c-14.97,12.78-14.97,35.91,0,48.68l5.02,4.28-.52,6.57c-1.48,18.75,13.4,34.53,31.85,34.53.85,0,1.71-.03,2.58-.1l6.57-.52,4.28,5.02c6.39,7.49,15.36,11.23,24.34,11.23s17.95-3.74,24.34-11.23l4.28-5.02,6.57.52c.87.07,1.72.1,2.58.1,18.45,0,33.33-15.77,31.85-34.53l-.52-6.57,5.02-4.28c14.97-12.77,14.97-35.91,0-48.68l-5.02-4.28.52-6.57c1.48-18.75-13.4-34.53-31.85-34.53-.85,0-1.71.03-2.58.1l-6.57.52-4.28-5.02c-6.39-7.49-15.36-11.23-24.34-11.23h0Z"/><path class="cls-1" d="M90.41,60.84l3.98,9.4c.79,1.88,2.56,3.16,4.59,3.34l10.16.88c4.84.42,6.8,6.45,3.13,9.63l-7.71,6.69c-1.54,1.34-2.21,3.41-1.75,5.4l2.31,9.94c1.1,4.73-4.03,8.46-8.2,5.95l-8.74-5.26c-1.75-1.05-3.93-1.05-5.68,0l-8.74,5.26c-4.16,2.51-9.29-1.22-8.2-5.95l2.31-9.94c.46-1.99-.21-4.06-1.75-5.4l-7.71-6.69c-3.67-3.18-1.71-9.22,3.13-9.63l10.16-.88c2.03-.18,3.8-1.46,4.59-3.34l3.98-9.4c1.89-4.48,8.24-4.48,10.13,0Z"/></g></g></svg>