<?xml version="1.0" encoding="UTF-8"?><svg id="Camada_2" xmlns="http://www.w3.org/2000/svg" viewBox="0 0 174.74 167.63"><defs><style>.cls-1{fill:none;stroke:#464a4d;stroke-miterlimit:10;stroke-width:14.83px;}.cls-2{fill:#464a4d;}</style></defs><g id="Layer_2"><g id="Hospedagem_linha_preta"><path class="cls-2" d="M159.78,74.95v41.49H14.83v-41.49h144.95M174.61,60.12H0v71.15h174.61V60.12h0Z"/><path class="cls-2" d="M159.78,14.83v45.31H14.83V14.83h144.95M163.61,0H11C4.92,0,0,4.93,0,11v63.97h174.61V11c0-6.07-4.92-11-11-11h0Z"/><path class="cls-1" d="M33.91,41.49h42.18c6.07,0,11,4.93,11,11v15.48H7.43c0-14.61,11.86-26.48,26.48-26.48Z"/><path class="cls-1" d="M98.09,41.49h42.75c14.61,0,26.48,11.86,26.48,26.48h-80.23v-15.48c0-6.07,4.93-11,11-11Z"/><line class="cls-1" x1="7.43" y1="124.72" x2="7.43" y2="167.63"/><line class="cls-1" x1="167.18" y1="124.72" x2="167.18" y2="167.63"/></g></g></svg>