<?xml version="1.0" encoding="UTF-8"?><svg id="Camada_2" xmlns="http://www.w3.org/2000/svg" viewBox="0 0 174.74 167.63"><defs><style>.cls-1{fill:none;}.cls-1,.cls-2{stroke:#464a4d;stroke-miterlimit:10;stroke-width:14.83px;}.cls-3{fill:#f4b63e;}.cls-2{fill:#ede5d8;}.cls-4{fill:#f58231;}.cls-5{fill:#464a4d;}</style></defs><g id="Layer_2"><g id="Hospedagem_cor"><rect class="cls-3" x="7.41" y="67.53" width="159.78" height="56.32"/><path class="cls-5" d="M159.78,74.95v41.49H14.83v-41.49h144.95M174.61,60.12H0v71.15h174.61V60.12h0Z"/><path class="cls-4" d="M7.41,60.55V11c0-1.98,1.61-3.58,3.58-3.58h152.61c1.98,0,3.58,1.61,3.58,3.58v49.55H7.41Z"/><path class="cls-5" d="M159.78,14.83v38.31H14.83V14.83h144.95M163.61,0H11C4.92,0,0,4.93,0,11v56.97h174.61V11c0-6.07-4.92-11-11-11h0Z"/><path class="cls-2" d="M33.91,41.49h42.18c6.07,0,11,4.93,11,11v15.48H7.43c0-14.61,11.86-26.48,26.48-26.48Z"/><path class="cls-2" d="M98.09,41.49h42.75c14.61,0,26.48,11.86,26.48,26.48h-80.23v-15.48c0-6.07,4.93-11,11-11Z"/><line class="cls-1" x1="7.43" y1="124.72" x2="7.43" y2="167.63"/><line class="cls-1" x1="167.18" y1="124.72" x2="167.18" y2="167.63"/></g></g></svg>