<?xml version="1.0" encoding="UTF-8"?><svg id="Camada_2" xmlns="http://www.w3.org/2000/svg" viewBox="0 0 174.61 167.63"><defs><style>.cls-1{fill:#464a4d;}</style></defs><g id="Layer_2"><path id="Hospedagem_preto" class="cls-1" d="M163.61,0H11C4.93,0,0,4.92,0,11v52.19h0v68.07h.02v36.36h14.83v-36.36h144.92v36.36h14.83v-36.36h.02V11c0-6.08-4.92-11-11-11ZM15.09,60.12h0c0-7.17,5.81-12.99,12.99-12.99,13.98,0,35.55,0,45.57,0,3.04,0,5.5,2.46,5.5,5.5v7.49H15.09ZM94.48,52.63c0-3.04,2.46-5.5,5.5-5.5,9.73,0,32.52,0,47.06,0,7.17,0,12.98,5.81,12.98,12.99h0s-65.54,0-65.54,0v-7.49Z"/></g></svg>