<?xml version="1.0" encoding="UTF-8"?><svg id="Camada_2" xmlns="http://www.w3.org/2000/svg" viewBox="0 0 230 115"><defs><style>.cls-1{fill:#f3b348;}.cls-2{fill:none;stroke:#464a4d;stroke-miterlimit:10;stroke-width:14.84px;}.cls-3{fill:#464a4d;}</style></defs><g id="Layer_2"><g id="Ingresso_cor"><path class="cls-1" d="M189.84,107.58c-2.61-6.17-8.39-10.7-15.44-11.46-.63-.08-1.34-.12-2.07-.12-7.84,0-14.59,4.78-17.49,11.58H11c-1.97,0-3.58-1.61-3.58-3.58v-5.64c6.81-2.89,11.59-9.64,11.59-17.49s-4.78-14.59-11.59-17.49v-11.03c3.1-1.32,5.85-3.45,7.89-6.22,3.63-4.93,4.65-11.19,2.79-17.18-1.68-5.38-5.65-9.55-10.68-11.62v-6.33c0-1.97,1.61-3.58,3.58-3.58h143.84c2.9,6.78,9.64,11.56,17.47,11.58.72,0,1.43-.04,2.13-.12,7.03-.77,12.8-5.29,15.4-11.45h29.16c1.97,0,3.58,1.61,3.58,3.58v5.91c-3.62,1.24-6.84,3.56-9.16,6.7-3.62,4.91-4.65,11.16-2.81,17.14,1.78,5.75,6.34,10.2,11.97,12.11v10.06c-6.14,2.11-10.98,7.27-12.4,13.74-1.25,5.75.11,11.62,3.74,16.12,2.3,2.85,5.3,4.93,8.67,6.08v5.14c0,1.97-1.61,3.58-3.58,3.58h-29.16Z"/><path class="cls-3" d="M211.52,14.84c-1.5,1.29-2.87,2.75-4.06,4.36-5.03,6.82-6.47,15.47-3.92,23.75,1.96,6.34,6.17,11.48,11.63,14.69v.6c-6.08,3.65-10.65,9.67-12.23,16.85-1.73,7.94.17,16.08,5.21,22.35.79.98,1.63,1.89,2.53,2.73h-16.45c-4.2-6.19-10.98-10.52-18.92-11.4-.98-.11-1.98-.17-2.96-.17-9.07,0-17.08,4.59-21.84,11.58H18.04c5.16-4.82,8.39-11.69,8.39-19.29,0-9.07-4.6-17.09-11.59-21.85v-2.3c2.46-1.67,4.65-3.75,6.45-6.19,5.04-6.85,6.47-15.51,3.89-23.81-1.48-4.74-4.22-8.8-7.8-11.88h133.12c4.76,6.97,12.77,11.56,21.85,11.58.98,0,1.96-.06,2.94-.17,7.95-.88,14.74-5.2,18.94-11.41h17.29M219,0h-35.08c0,5.98-4.52,10.89-10.31,11.5-.42.05-.84.08-1.26.08h-.01c-6.4-.01-11.58-5.17-11.58-11.58H11C4.92,0,0,4.92,0,11v12.29h.01c4.97,0,9.52,3.12,11,7.86,2.48,7.99-3.41,15.3-11,15.3h-.01v22.85c6.4,0,11.59,5.19,11.59,11.58s-5.19,11.58-11.59,11.58v11.55c0,6.08,4.92,11,11,11h149.75c0-6.39,5.19-11.58,11.58-11.58.43,0,.86.03,1.28.08,5.8.63,10.31,5.55,10.31,11.5h35.08c6.08,0,11-4.92,11-11v-11.63c-.42.05-.84.08-1.28.08-7.25,0-12.94-6.64-11.3-14.2,1.14-5.17,5.88-8.91,11.18-8.96.47,0,.93.03,1.39.08v-23c-.42.05-.84.08-1.27.08h-.01c-4.98,0-9.55-3.13-11.01-7.88-2.45-7.99,3.42-15.26,11.01-15.27h.01c.42,0,.84.03,1.27.08v-12.37c0-6.08-4.92-11-11-11h0Z"/><line class="cls-2" x1="173.01" y1="28.82" x2="173.01" y2="51.98"/><line class="cls-2" x1="173.01" y1="63.02" x2="173.01" y2="86.18"/></g></g></svg>