<?xml version="1.0" encoding="UTF-8"?><svg id="Camada_2" xmlns="http://www.w3.org/2000/svg" viewBox="0 0 230 115"><defs><style>.cls-1{fill:#464a4d;}</style></defs><g id="Layer_2"><g id="Ingresso_preto"><path class="cls-1" d="M228.72,23.29h.01c.42,0,.84.03,1.26.08v-12.37c0-6.08-4.92-11-11-11h-35.08c0,5.98-4.52,10.89-10.31,11.5-.42.05-.84.08-1.27.08h-.01c-6.4-.01-11.58-5.17-11.58-11.58H11C4.92,0,0,4.92,0,11v12.29h.01c4.97,0,9.52,3.12,11,7.86,2.48,7.99-3.41,15.3-11,15.3h-.01v22.85c6.4,0,11.59,5.19,11.59,11.58s-5.19,11.58-11.59,11.58v11.55c0,6.08,4.92,11,11,11h149.75c0-6.39,5.19-11.58,11.58-11.58.43,0,.86.03,1.28.08,5.8.63,10.31,5.55,10.31,11.5h35.08c6.08,0,11-4.92,11-11v-11.63c-.42.05-.84.08-1.28.08-7.25,0-12.94-6.64-11.3-14.2,1.14-5.17,5.88-8.91,11.18-8.96.47,0,.93.03,1.39.08v-23c-.42.05-.84.08-1.26.08h-.01c-4.98,0-9.54-3.13-11.01-7.88-2.45-7.99,3.42-15.26,11.01-15.27ZM178.13,86.18h-10.24v-23.16h10.24v23.16ZM178.13,51.98h-10.24v-23.16h10.24v23.16Z"/></g></g></svg>