<svg width="230" height="115" viewBox="0 0 230 115" fill="none" xmlns="http://www.w3.org/2000/svg">
<g clip-path="url(#clip0_17115_364)">
<path d="M211.52 14.84C210.02 16.13 208.65 17.59 207.46 19.2C202.43 26.02 200.99 34.67 203.54 42.95C205.5 49.29 209.71 54.43 215.17 57.64V58.24C209.09 61.89 204.52 67.91 202.94 75.09C201.21 83.03 203.11 91.17 208.15 97.44C208.94 98.42 209.78 99.33 210.68 100.17H194.23C190.03 93.98 183.25 89.65 175.31 88.77C174.33 88.66 173.33 88.6 172.35 88.6C163.28 88.6 155.27 93.19 150.51 100.18H18.04C23.2 95.36 26.43 88.49 26.43 80.89C26.43 71.82 21.83 63.8 14.84 59.04V56.74C17.3 55.07 19.49 52.99 21.29 50.55C26.33 43.7 27.76 35.04 25.18 26.74C23.7 22 20.96 17.94 17.38 14.86H150.5C155.26 21.83 163.27 26.42 172.35 26.44C173.33 26.44 174.31 26.38 175.29 26.27C183.24 25.39 190.03 21.07 194.23 14.86H211.52M219 0H183.92C183.92 5.98 179.4 10.89 173.61 11.5C173.19 11.55 172.77 11.58 172.35 11.58H172.34C165.94 11.57 160.76 6.41 160.76 0H11C4.92 0 0 4.92 0 11V23.29H0.01C4.98 23.29 9.53 26.41 11.01 31.15C13.49 39.14 7.6 46.45 0.01 46.45H0V69.3C6.4 69.3 11.59 74.49 11.59 80.88C11.59 87.27 6.4 92.46 0 92.46V104.01C0 110.09 4.92 115.01 11 115.01H160.75C160.75 108.62 165.94 103.43 172.33 103.43C172.76 103.43 173.19 103.46 173.61 103.51C179.41 104.14 183.92 109.06 183.92 115.01H219C225.08 115.01 230 110.09 230 104.01V92.38C229.58 92.43 229.16 92.46 228.72 92.46C221.47 92.46 215.78 85.82 217.42 78.26C218.56 73.09 223.3 69.35 228.6 69.3C229.07 69.3 229.53 69.33 229.99 69.38V46.38C229.57 46.43 229.15 46.46 228.72 46.46H228.71C223.73 46.46 219.16 43.33 217.7 38.58C215.25 30.59 221.12 23.32 228.71 23.31H228.72C229.14 23.31 229.56 23.34 229.99 23.39V11.02C229.99 4.94 225.07 0.02 218.99 0.02L219 0Z" fill="#191919"/>
<path d="M173.01 28.8198V51.9798" stroke="#191919" stroke-width="14.84" stroke-miterlimit="10"/>
<path d="M173.01 63.02V86.18" stroke="#191919" stroke-width="14.84" stroke-miterlimit="10"/>
</g>
<defs>
<clipPath id="clip0_17115_364">
<rect width="230" height="115" fill="white"/>
</clipPath>
</defs>
</svg>
