<svg width="230" height="115" viewBox="0 0 230 115" fill="none" xmlns="http://www.w3.org/2000/svg">
<g clip-path="url(#clip0_17115_358)">
<mask id="path-1-inside-1_17115_358" fill="white">
<path d="M211.52 14.84C210.02 16.13 208.65 17.59 207.46 19.2C202.43 26.02 200.99 34.67 203.54 42.95C205.5 49.29 209.71 54.43 215.17 57.64V58.24C209.09 61.89 204.52 67.91 202.94 75.09C201.21 83.03 203.11 91.17 208.15 97.44C208.94 98.42 209.78 99.33 210.68 100.17H194.23C190.03 93.98 183.25 89.65 175.31 88.77C174.33 88.66 173.33 88.6 172.35 88.6C163.28 88.6 155.27 93.19 150.51 100.18H18.04C23.2 95.36 26.43 88.49 26.43 80.89C26.43 71.82 21.83 63.8 14.84 59.04V56.74C17.3 55.07 19.49 52.99 21.29 50.55C26.33 43.7 27.76 35.03 25.18 26.74C23.7 22 20.96 17.94 17.38 14.85H150.5C155.26 21.82 163.27 26.41 172.35 26.43C173.33 26.43 174.31 26.37 175.29 26.26C183.24 25.38 190.03 21.06 194.23 14.85H211.52M219 0H183.92C183.92 5.98 179.4 10.89 173.61 11.5C173.19 11.55 172.77 11.58 172.34 11.58H172.33C165.93 11.57 160.75 6.41 160.75 0H11C4.92 0 0 4.92 0 11V23.29H0.01C4.98 23.29 9.53 26.41 11.01 31.15C13.49 39.14 7.6 46.45 0.01 46.45H0V69.3C6.4 69.3 11.59 74.49 11.59 80.88C11.59 87.27 6.4 92.46 0 92.46V104.01C0 110.09 4.92 115.01 11 115.01H160.75C160.75 108.62 165.94 103.43 172.33 103.43C172.76 103.43 173.19 103.46 173.61 103.51C179.41 104.14 183.92 109.06 183.92 115.01H219C225.08 115.01 230 110.09 230 104.01V92.38C229.58 92.43 229.16 92.46 228.72 92.46C221.48 92.46 215.78 85.82 217.42 78.26C218.56 73.09 223.3 69.35 228.6 69.3C229.07 69.3 229.53 69.33 229.99 69.38V46.38C229.57 46.43 229.15 46.46 228.73 46.46H228.72C223.74 46.46 219.18 43.33 217.71 38.58C215.26 30.59 221.13 23.32 228.72 23.31H228.73C229.15 23.31 229.57 23.34 229.99 23.39V11.02C229.99 4.94 225.07 0.02 218.99 0.02L219 0Z"/>
</mask>
<path d="M211.52 14.84C210.02 16.13 208.65 17.59 207.46 19.2C202.43 26.02 200.99 34.67 203.54 42.95C205.5 49.29 209.71 54.43 215.17 57.64V58.24C209.09 61.89 204.52 67.91 202.94 75.09C201.21 83.03 203.11 91.17 208.15 97.44C208.94 98.42 209.78 99.33 210.68 100.17H194.23C190.03 93.98 183.25 89.65 175.31 88.77C174.33 88.66 173.33 88.6 172.35 88.6C163.28 88.6 155.27 93.19 150.51 100.18H18.04C23.2 95.36 26.43 88.49 26.43 80.89C26.43 71.82 21.83 63.8 14.84 59.04V56.74C17.3 55.07 19.49 52.99 21.29 50.55C26.33 43.7 27.76 35.03 25.18 26.74C23.7 22 20.96 17.94 17.38 14.85H150.5C155.26 21.82 163.27 26.41 172.35 26.43C173.33 26.43 174.31 26.37 175.29 26.26C183.24 25.38 190.03 21.06 194.23 14.85H211.52M219 0H183.92C183.92 5.98 179.4 10.89 173.61 11.5C173.19 11.55 172.77 11.58 172.34 11.58H172.33C165.93 11.57 160.75 6.41 160.75 0H11C4.92 0 0 4.92 0 11V23.29H0.01C4.98 23.29 9.53 26.41 11.01 31.15C13.49 39.14 7.6 46.45 0.01 46.45H0V69.3C6.4 69.3 11.59 74.49 11.59 80.88C11.59 87.27 6.4 92.46 0 92.46V104.01C0 110.09 4.92 115.01 11 115.01H160.75C160.75 108.62 165.94 103.43 172.33 103.43C172.76 103.43 173.19 103.46 173.61 103.51C179.41 104.14 183.92 109.06 183.92 115.01H219C225.08 115.01 230 110.09 230 104.01V92.38C229.58 92.43 229.16 92.46 228.72 92.46C221.48 92.46 215.78 85.82 217.42 78.26C218.56 73.09 223.3 69.35 228.6 69.3C229.07 69.3 229.53 69.33 229.99 69.38V46.38C229.57 46.43 229.15 46.46 228.73 46.46H228.72C223.74 46.46 219.18 43.33 217.71 38.58C215.26 30.59 221.13 23.32 228.72 23.31H228.73C229.15 23.31 229.57 23.34 229.99 23.39V11.02C229.99 4.94 225.07 0.02 218.99 0.02L219 0Z" fill="#FFF6EE"/>
<path d="M207.46 19.2L206.656 18.6056L206.655 18.6064L207.46 19.2ZM203.54 42.95L202.584 43.2443L202.585 43.2454L203.54 42.95ZM215.17 57.64H216.17V57.0679L215.677 56.7779L215.17 57.64ZM215.17 58.24L215.685 59.0974L216.17 58.806V58.24H215.17ZM202.94 75.09L201.963 74.8751L201.963 74.8771L202.94 75.09ZM208.15 97.44L207.371 98.0665L207.371 98.0676L208.15 97.44ZM210.68 100.17V101.17H213.217L211.362 99.4389L210.68 100.17ZM194.23 100.17L193.402 100.731L193.7 101.17H194.23V100.17ZM175.31 88.77L175.198 89.7638L175.2 89.7639L175.31 88.77ZM150.51 100.18V101.18H151.039L151.337 100.743L150.51 100.18ZM18.04 100.18L17.3574 99.4492L15.5045 101.18H18.04V100.18ZM14.84 59.04H13.84V59.5689L14.2771 59.8666L14.84 59.04ZM14.84 56.74L14.2783 55.9126L13.84 56.2102V56.74H14.84ZM21.29 50.55L22.0947 51.1437L22.0955 51.1426L21.29 50.55ZM25.18 26.74L26.1348 26.4428L26.1346 26.442L25.18 26.74ZM17.38 14.85V13.85H14.691L16.7266 15.607L17.38 14.85ZM150.5 14.85L151.326 14.286L151.028 13.85H150.5V14.85ZM172.35 26.43L172.348 27.43H172.35V26.43ZM175.29 26.26L175.18 25.2661L175.178 25.2662L175.29 26.26ZM194.23 14.85V13.85H193.699L193.402 14.2898L194.23 14.85ZM219 0L219.895 0.447017L220.618 -1H219V0ZM183.92 0V-1H182.92V0H183.92ZM173.61 11.5L173.505 10.5054L173.492 10.507L173.61 11.5ZM172.33 11.58L172.328 12.58H172.33V11.58ZM160.75 0H161.75V-1H160.75V0ZM0 23.29H-1V24.29H0V23.29ZM11.01 31.15L11.9651 30.8536L11.9646 30.852L11.01 31.15ZM0 46.45V45.45H-1V46.45H0ZM0 69.3H-1V70.3H0V69.3ZM0 92.46V91.46H-1V92.46H0ZM160.75 115.01V116.01H161.75V115.01H160.75ZM173.61 103.51L173.492 104.503L173.502 104.504L173.61 103.51ZM183.92 115.01H182.92V116.01H183.92V115.01ZM230 92.38H231V91.2539L229.882 91.387L230 92.38ZM217.42 78.26L216.443 78.0447L216.443 78.048L217.42 78.26ZM228.6 69.3V68.3L228.591 68.3L228.6 69.3ZM229.99 69.38L229.882 70.3741L230.99 70.4946V69.38H229.99ZM229.99 46.38H230.99V45.2539L229.872 45.387L229.99 46.38ZM217.71 38.58L216.754 38.8732L216.755 38.8756L217.71 38.58ZM228.72 23.31V22.31H228.719L228.72 23.31ZM229.99 23.39L229.872 24.383L230.99 24.5161V23.39H229.99ZM218.99 0.02L218.095 -0.427017L217.372 1.02H218.99V0.02ZM211.52 14.84L210.868 14.0818C209.314 15.4186 207.892 16.9331 206.656 18.6056L207.46 19.2L208.264 19.7944C209.408 18.2469 210.726 16.8414 212.172 15.5982L211.52 14.84ZM207.46 19.2L206.655 18.6064C201.433 25.687 199.943 34.6675 202.584 43.2443L203.54 42.95L204.496 42.6557C202.037 34.6725 203.427 26.353 208.265 19.7936L207.46 19.2ZM203.54 42.95L202.585 43.2454C204.62 49.8296 208.994 55.1689 214.663 58.5021L215.17 57.64L215.677 56.7779C210.426 53.6911 206.38 48.7504 204.495 42.6546L203.54 42.95ZM215.17 57.64H214.17V58.24H215.17H216.17V57.64H215.17ZM215.17 58.24L214.655 57.3826C208.352 61.1665 203.606 67.4122 201.963 74.8751L202.94 75.09L203.917 75.3049C205.434 68.4077 209.828 62.6135 215.685 59.0974L215.17 58.24ZM202.94 75.09L201.963 74.8771C200.169 83.1093 202.139 91.5585 207.371 98.0665L208.15 97.44L208.929 96.8135C204.081 90.7815 202.251 82.9507 203.917 75.3029L202.94 75.09ZM208.15 97.44L207.371 98.0676C208.189 99.0819 209.061 100.027 209.998 100.901L210.68 100.17L211.362 99.4389C210.499 98.6331 209.691 97.7581 208.929 96.8124L208.15 97.44ZM210.68 100.17V99.17H194.23V100.17V101.17H210.68V100.17ZM194.23 100.17L195.057 99.6085C190.699 93.1846 183.661 88.6894 175.42 87.7761L175.31 88.77L175.2 89.7639C182.839 90.6106 189.361 94.7754 193.402 100.731L194.23 100.17ZM175.31 88.77L175.422 87.7762C174.407 87.6624 173.37 87.6 172.35 87.6V88.6V89.6C173.29 89.6 174.253 89.6576 175.198 89.7638L175.31 88.77ZM172.35 88.6V87.6C162.934 87.6 154.621 92.3662 149.683 99.6171L150.51 100.18L151.337 100.743C155.919 94.0138 163.626 89.6 172.35 89.6V88.6ZM150.51 100.18V99.18H18.04V100.18V101.18H150.51V100.18ZM18.04 100.18L18.7226 100.911C24.0762 95.91 27.43 88.779 27.43 80.89H26.43H25.43C25.43 88.201 22.3238 94.81 17.3574 99.4492L18.04 100.18ZM26.43 80.89H27.43C27.43 71.4739 22.6535 63.1509 15.4029 58.2134L14.84 59.04L14.2771 59.8666C21.0065 64.4491 25.43 72.1661 25.43 80.89H26.43ZM14.84 59.04H15.84V56.74H14.84H13.84V59.04H14.84ZM14.84 56.74L15.4017 57.5674C17.9528 55.8355 20.2257 53.6772 22.0947 51.1437L21.29 50.55L20.4853 49.9563C18.7543 52.3028 16.6472 54.3045 14.2783 55.9126L14.84 56.74ZM21.29 50.55L22.0955 51.1426C27.3273 44.0319 28.8075 35.0307 26.1348 26.4428L25.18 26.74L24.2252 27.0372C26.7125 35.0293 25.3327 43.3681 20.4845 49.9574L21.29 50.55ZM25.18 26.74L26.1346 26.442C24.5976 21.5196 21.7512 17.3019 18.0334 14.093L17.38 14.85L16.7266 15.607C20.1688 18.5781 22.8024 22.4804 24.2254 27.038L25.18 26.74ZM17.38 14.85V15.85H150.5V14.85V13.85H17.38V14.85ZM150.5 14.85L149.674 15.414C154.612 22.6444 162.924 27.4092 172.348 27.43L172.35 26.43L172.352 25.43C163.616 25.4108 155.908 20.9956 151.326 14.286L150.5 14.85ZM172.35 26.43V27.43C173.371 27.43 174.388 27.3675 175.402 27.2538L175.29 26.26L175.178 25.2662C174.232 25.3725 173.289 25.43 172.35 25.43V26.43ZM175.29 26.26L175.4 27.2539C183.649 26.3408 190.699 21.8563 195.058 15.4102L194.23 14.85L193.402 14.2898C189.361 20.2637 182.831 24.4192 175.18 25.2661L175.29 26.26ZM194.23 14.85V15.85H211.52V14.85V13.85H194.23V14.85ZM219 0V-1H183.92V0V1H219V0ZM183.92 0H182.92C182.92 5.46478 178.79 9.94875 173.505 10.5055L173.61 11.5L173.715 12.4945C180.01 11.8312 184.92 6.49522 184.92 0H183.92ZM173.61 11.5L173.492 10.507C173.103 10.5533 172.723 10.58 172.34 10.58V11.58V12.58C172.817 12.58 173.277 12.5467 173.728 12.493L173.61 11.5ZM172.34 11.58V10.58H172.33V11.58V12.58H172.34V11.58ZM172.33 11.58L172.332 10.58C166.481 10.5709 161.75 5.85573 161.75 0H160.75H159.75C159.75 6.96427 165.379 12.5691 172.328 12.58L172.33 11.58ZM160.75 0V-1H11V0V1H160.75V0ZM11 0V-1C4.36772 -1 -1 4.36772 -1 11H0H1C1 5.47228 5.47228 1 11 1V0ZM0 11H-1V23.29H0H1V11H0ZM0 23.29V24.29H0.01V23.29V22.29H0V23.29ZM0.01 23.29V24.29C4.57482 24.29 8.71521 27.1557 10.0554 31.448L11.01 31.15L11.9646 30.852C10.3448 25.6643 5.38518 22.29 0.01 22.29V23.29ZM11.01 31.15L10.0549 31.4464C12.3308 38.7786 6.9412 45.45 0.01 45.45V46.45V47.45C8.25881 47.45 14.6492 39.5014 11.9651 30.8536L11.01 31.15ZM0.01 46.45V45.45H0V46.45V47.45H0.01V46.45ZM0 46.45H-1V69.3H0H1V46.45H0ZM0 69.3V70.3C5.84828 70.3 10.59 75.0428 10.59 80.88H11.59H12.59C12.59 73.9371 6.95172 68.3 0 68.3V69.3ZM11.59 80.88H10.59C10.59 86.7171 5.84828 91.46 0 91.46V92.46V93.46C6.95172 93.46 12.59 87.8228 12.59 80.88H11.59ZM0 92.46H-1V104.01H0H1V92.46H0ZM0 104.01H-1C-1 110.642 4.36772 116.01 11 116.01V115.01V114.01C5.47228 114.01 1 109.538 1 104.01H0ZM11 115.01V116.01H160.75V115.01V114.01H11V115.01ZM160.75 115.01H161.75C161.75 109.172 166.492 104.43 172.33 104.43V103.43V102.43C165.388 102.43 159.75 108.068 159.75 115.01H160.75ZM172.33 103.43V104.43C172.714 104.43 173.104 104.457 173.492 104.503L173.61 103.51L173.728 102.517C173.276 102.463 172.806 102.43 172.33 102.43V103.43ZM173.61 103.51L173.502 104.504C178.8 105.08 182.92 109.576 182.92 115.01H183.92H184.92C184.92 108.544 180.02 103.2 173.718 102.516L173.61 103.51ZM183.92 115.01V116.01H219V115.01V114.01H183.92V115.01ZM219 115.01V116.01C225.632 116.01 231 110.642 231 104.01H230H229C229 109.538 224.528 114.01 219 114.01V115.01ZM230 104.01H231V92.38H230H229V104.01H230ZM230 92.38L229.882 91.387C229.494 91.4332 229.114 91.46 228.72 91.46V92.46V93.46C229.206 93.46 229.666 93.4268 230.118 93.373L230 92.38ZM228.72 92.46V91.46C222.106 91.46 216.895 85.3971 218.397 78.472L217.42 78.26L216.443 78.048C214.665 86.2429 220.854 93.46 228.72 93.46V92.46ZM217.42 78.26L218.397 78.4753C219.433 73.7738 223.761 70.3457 228.609 70.3L228.6 69.3L228.591 68.3C222.839 68.3543 217.687 72.4062 216.443 78.0447L217.42 78.26ZM228.6 69.3V70.3C229.027 70.3 229.451 70.3272 229.882 70.3741L229.99 69.38L230.098 68.3858C229.609 68.3327 229.113 68.3 228.6 68.3V69.3ZM229.99 69.38H230.99V46.38H229.99H228.99V69.38H229.99ZM229.99 46.38L229.872 45.387C229.482 45.4334 229.103 45.46 228.73 45.46V46.46V47.46C229.197 47.46 229.658 47.4266 230.108 47.373L229.99 46.38ZM228.73 46.46V45.46H228.72V46.46V47.46H228.73V46.46ZM228.72 46.46V45.46C224.145 45.46 219.996 42.5846 218.665 38.2844L217.71 38.58L216.755 38.8756C218.364 44.0754 223.335 47.46 228.72 47.46V46.46ZM217.71 38.58L218.666 38.2868C216.417 30.9537 221.788 24.3191 228.721 24.31L228.72 23.31L228.719 22.31C220.472 22.3209 214.103 30.2263 216.754 38.8732L217.71 38.58ZM228.72 23.31V24.31H228.73V23.31V22.31H228.72V23.31ZM228.73 23.31V24.31C229.103 24.31 229.482 24.3366 229.872 24.383L229.99 23.39L230.108 22.397C229.658 22.3434 229.197 22.31 228.73 22.31V23.31ZM229.99 23.39H230.99V11.02H229.99H228.99V23.39H229.99ZM229.99 11.02H230.99C230.99 4.38772 225.622 -0.98 218.99 -0.98V0.02V1.02C224.518 1.02 228.99 5.49229 228.99 11.02H229.99ZM218.99 0.02L219.885 0.467017L219.895 0.447017L219 0L218.105 -0.447017L218.095 -0.427017L218.99 0.02Z" fill="#FFF6EE" mask="url(#path-1-inside-1_17115_358)"/>
<path d="M173.01 28.8198V51.9798" stroke="#FFF6EE" stroke-width="14.84" stroke-miterlimit="10"/>
<path d="M173.01 63.02V86.18" stroke="#FFF6EE" stroke-width="14.84" stroke-miterlimit="10"/>
</g>
<defs>
<clipPath id="clip0_17115_358">
<rect width="230" height="115" fill="white"/>
</clipPath>
</defs>
</svg>
