<svg width="169" height="169" viewBox="0 0 169 169" fill="none" xmlns="http://www.w3.org/2000/svg">
<g clip-path="url(#clip0_17115_429)">
<path d="M136.82 14.83C146.29 14.83 153.99 22.53 153.99 32V136.82C153.99 146.29 146.29 153.99 136.82 153.99H32C22.53 153.99 14.83 146.29 14.83 136.82V32C14.83 22.53 22.53 14.83 32 14.83H136.82ZM136.82 0H32C14.33 0 0 14.33 0 32V136.82C0 154.49 14.33 168.82 32 168.82H136.82C154.49 168.82 168.82 154.49 168.82 136.82V32C168.82 14.33 154.49 0 136.82 0Z" fill="#191919"/>
<path d="M135.591 42.5399C135.591 47.6499 131.731 51.8399 126.781 52.3599C126.421 52.3999 126.061 52.4299 125.701 52.4299H125.691C120.221 52.4199 115.801 48.0099 115.801 42.5399C115.801 37.0699 120.221 32.6599 125.691 32.6499H125.701C126.061 32.6499 126.421 32.6699 126.781 32.7199C131.731 33.2399 135.591 37.4399 135.591 42.5399Z" fill="#191919"/>
<path d="M84.4296 63.8002C85.1196 63.8002 85.8296 63.8402 86.5296 63.9302H86.6396L86.7496 63.9502C97.2296 65.0602 105.14 73.9002 105.14 84.5102C105.14 95.1202 97.2296 103.96 86.7496 105.07H86.6396L86.5296 105.09C85.8296 105.17 85.1196 105.22 84.4196 105.22C72.9796 105.2 63.6796 95.9102 63.6796 84.5102C63.6796 73.1102 72.9796 63.8202 84.3896 63.8002H84.4296ZM84.4296 48.9702H84.3896C64.7396 49.0102 48.8496 64.8602 48.8496 84.5102C48.8496 104.16 64.7396 120.01 84.3896 120.05H84.4296C85.7196 120.05 87.0196 119.97 88.3096 119.81C106.08 117.93 119.97 102.86 119.97 84.5102C119.97 66.1602 106.08 51.0902 88.3096 49.2102C87.0196 49.0502 85.7196 48.9702 84.4296 48.9702Z" fill="#191919"/>
</g>
<defs>
<clipPath id="clip0_17115_429">
<rect width="168.82" height="168.82" fill="white"/>
</clipPath>
</defs>
</svg>
