<?xml version="1.0" encoding="UTF-8"?><svg id="Camada_2" xmlns="http://www.w3.org/2000/svg" viewBox="0 0 168.82 168.82"><defs><style>.cls-1{fill:#464a4d;}</style></defs><g id="Layer_2"><g id="Instagram_preto"><path class="cls-1" d="M86.75,63.95h-.11s-.11-.02-.11-.02c-.7-.08-1.41-.13-2.1-.13h-.04c-11.41.02-20.71,9.31-20.71,20.71s9.3,20.69,20.74,20.71c.7,0,1.41-.04,2.11-.13h.11s.11-.02.11-.02c10.48-1.11,18.39-9.95,18.39-20.56s-7.91-19.45-18.39-20.56Z"/><path class="cls-1" d="M136.82,0H32C14.33,0,0,14.33,0,32v104.82c0,17.67,14.33,32,32,32h104.82c17.67,0,32-14.33,32-32V32c0-17.67-14.33-32-32-32ZM88.31,119.81c-1.29.16-2.59.24-3.88.24h-.04c-19.65-.04-35.54-15.89-35.54-35.54s15.89-35.5,35.54-35.54h.04c1.29,0,2.59.08,3.88.24,17.77,1.88,31.66,16.95,31.66,35.3s-13.89,33.42-31.66,35.3ZM126.78,52.36c-.36.04-.72.07-1.08.07h-.01c-4.25,0-8.16-2.67-9.41-6.74-2.1-6.82,2.92-13.03,9.41-13.04h.01c.36,0,.72.02,1.08.07,4.95.52,8.81,4.72,8.81,9.82s-3.86,9.3-8.81,9.83Z"/></g></g></svg>