<svg width="169" height="169" viewBox="0 0 169 169" fill="none" xmlns="http://www.w3.org/2000/svg">
<g clip-path="url(#clip0_17115_442)">
<path d="M86.7497 63.9498H86.6397L86.5297 63.9298C85.8297 63.8498 85.1197 63.7998 84.4297 63.7998H84.3897C72.9797 63.8198 63.6797 73.1098 63.6797 84.5098C63.6797 95.9098 72.9797 105.2 84.4197 105.22C85.1197 105.22 85.8297 105.18 86.5297 105.09H86.6397L86.7497 105.07C97.2297 103.96 105.14 95.1198 105.14 84.5098C105.14 73.8998 97.2297 65.0598 86.7497 63.9498Z" fill="#FFF6EE"/>
<path d="M136.82 0H32C14.33 0 0 14.33 0 32V136.82C0 154.49 14.33 168.82 32 168.82H136.82C154.49 168.82 168.82 154.49 168.82 136.82V32C168.82 14.33 154.49 0 136.82 0ZM88.31 119.81C87.02 119.97 85.72 120.05 84.43 120.05H84.39C64.74 120.01 48.85 104.16 48.85 84.51C48.85 64.86 64.74 49.01 84.39 48.97H84.43C85.72 48.97 87.02 49.05 88.31 49.21C106.08 51.09 119.97 66.16 119.97 84.51C119.97 102.86 106.08 117.93 88.31 119.81ZM126.78 52.36C126.42 52.4 126.06 52.43 125.7 52.43H125.69C121.44 52.43 117.53 49.76 116.28 45.69C114.18 38.87 119.2 32.66 125.69 32.65H125.7C126.06 32.65 126.42 32.67 126.78 32.72C131.73 33.24 135.59 37.44 135.59 42.54C135.59 47.64 131.73 51.84 126.78 52.37V52.36Z" fill="#FFF6EE"/>
</g>
<defs>
<clipPath id="clip0_17115_442">
<rect width="168.82" height="168.82" fill="white"/>
</clipPath>
</defs>
</svg>
