<?xml version="1.0" encoding="UTF-8"?><svg id="Camada_2" xmlns="http://www.w3.org/2000/svg" viewBox="0 0 168.82 168.82"><defs><style>.cls-1{fill:#464a4d;}</style></defs><g id="Layer_2"><g id="Instagram_linha_preta"><path class="cls-1" d="M136.82,14.83c9.47,0,17.17,7.7,17.17,17.17v104.82c0,9.47-7.7,17.17-17.17,17.17H32c-9.47,0-17.17-7.7-17.17-17.17V32c0-9.47,7.7-17.17,17.17-17.17h104.82M136.82,0H32C14.33,0,0,14.33,0,32v104.82c0,17.67,14.33,32,32,32h104.82c17.67,0,32-14.33,32-32V32c0-17.67-14.33-32-32-32h0Z"/><path class="cls-1" d="M135.59,42.54c0,5.11-3.86,9.3-8.81,9.82-.36.04-.72.07-1.08.07h-.01c-5.47-.01-9.89-4.42-9.89-9.89s4.42-9.88,9.89-9.89h.01c.36,0,.72.02,1.08.07,4.95.52,8.81,4.72,8.81,9.82Z"/><path class="cls-1" d="M84.43,63.8c.69,0,1.4.04,2.1.13h.11s.11.02.11.02c10.48,1.11,18.39,9.95,18.39,20.56s-7.91,19.45-18.39,20.56h-.11s-.11.02-.11.02c-.7.08-1.41.13-2.11.13-11.44-.02-20.74-9.31-20.74-20.71s9.3-20.69,20.71-20.71h.04M84.43,48.97h-.04c-19.65.04-35.54,15.89-35.54,35.54s15.89,35.5,35.54,35.54h.04c1.29,0,2.59-.08,3.88-.24,17.77-1.88,31.66-16.95,31.66-35.3s-13.89-33.42-31.66-35.3c-1.29-.16-2.59-.24-3.88-.24h0Z"/></g></g></svg>