<?xml version="1.0" encoding="UTF-8"?><svg id="Camada_2" xmlns="http://www.w3.org/2000/svg" viewBox="0 0 168.82 168.82"><defs><style>.cls-1{fill:#ede5d7;}</style></defs><g id="Layer_2"><g id="Linkedin_preenchido_branco"><path class="cls-1" d="M136.82,0H32C14.33,0,0,14.33,0,32v104.82c0,17.67,14.33,32,32,32h104.82c17.67,0,32-14.33,32-32V32c0-17.67-14.33-32-32-32ZM60.33,124.37h-13.28V57.94c1.35.46,2.75.83,4.23.97.64.07,1.29.11,1.93.11h.02c2.24,0,5.13-.4,7.1-1.09v66.45ZM54.09,54.9c-.26.03-.51.05-.77.05h0c-3.88,0-7.01-3.13-7.01-7.01s3.13-7,7.01-7.01h0c.26,0,.51.02.77.05,3.51.37,6.25,3.34,6.25,6.97s-2.74,6.59-6.25,6.97ZM128.58,124.37h-13.15l-.03-39.46c0-8.67-7.02-15.7-15.66-15.7s-15.66,7.03-15.66,15.67v39.49h-13.15V57.92h13.15v2.81c4.51-2.94,9.88-4.66,15.66-4.66,15.88,0,28.81,12.93,28.81,28.81l.03,6.94v32.55Z"/></g></g></svg>