<svg width="169" height="169" viewBox="0 0 169 169" fill="none" xmlns="http://www.w3.org/2000/svg">
<g clip-path="url(#clip0_17115_447)">
<path d="M136.82 14.83C146.29 14.83 153.99 22.53 153.99 32V136.82C153.99 146.29 146.29 153.99 136.82 153.99H32C22.53 153.99 14.83 146.29 14.83 136.82V32C14.83 22.53 22.53 14.83 32 14.83H136.82ZM136.82 0H32C14.33 0 0 14.33 0 32V136.82C0 154.49 14.33 168.82 32 168.82H136.82C154.49 168.82 168.82 154.49 168.82 136.82V32C168.82 14.33 154.49 0 136.82 0Z" fill="#191919"/>
<path d="M128.55 84.8798C128.55 68.9898 115.63 56.0698 99.7397 56.0698C93.9697 56.0698 88.5997 57.7898 84.0797 60.7298V57.9198H70.9297V124.37H84.0797V84.8798C84.0797 76.2398 91.0997 69.2098 99.7397 69.2098C108.38 69.2098 115.4 76.2398 115.4 84.9098L115.43 124.37H128.58V91.8198L128.55 84.8798Z" fill="#191919"/>
<path d="M53.2405 59.0099H53.2205C52.5805 59.0099 51.9305 58.9699 51.2905 58.8999C49.8105 58.7599 48.4105 58.3899 47.0605 57.9299V124.37H60.3405V57.9199C58.3705 58.6099 55.4805 59.0099 53.2405 59.0099Z" fill="#191919"/>
<path d="M60.3308 47.9399C60.3308 51.5599 57.5908 54.5299 54.0808 54.9099C53.8208 54.9399 53.5708 54.9599 53.3108 54.9599C49.4308 54.9599 46.3008 51.8299 46.3008 47.9499C46.3008 44.0699 49.4308 40.9499 53.3108 40.9399C53.5708 40.9399 53.8208 40.9599 54.0808 40.9899C57.5908 41.3599 60.3308 44.3299 60.3308 47.9599V47.9399Z" fill="#191919"/>
</g>
<defs>
<clipPath id="clip0_17115_447">
<rect width="168.82" height="168.82" fill="white"/>
</clipPath>
</defs>
</svg>
