<?xml version="1.0" encoding="UTF-8"?><svg id="Camada_2" xmlns="http://www.w3.org/2000/svg" viewBox="0 0 168.82 168.82"><defs><style>.cls-1{fill:#ede5d7;}</style></defs><g id="Layer_2"><g id="Linkedin_linha_branca"><path class="cls-1" d="M136.82,14.83c9.47,0,17.17,7.7,17.17,17.17v104.82c0,9.47-7.7,17.17-17.17,17.17H32c-9.47,0-17.17-7.7-17.17-17.17V32c0-9.47,7.7-17.17,17.17-17.17h104.82M136.82,0H32C14.33,0,0,14.33,0,32v104.82c0,17.67,14.33,32,32,32h104.82c17.67,0,32-14.33,32-32V32c0-17.67-14.33-32-32-32h0Z"/><path class="cls-1" d="M128.55,84.88c0-15.89-12.92-28.81-28.81-28.81-5.77,0-11.14,1.72-15.66,4.66v-2.81h-13.15v66.45h13.15v-39.49c0-8.64,7.02-15.67,15.66-15.67s15.66,7.03,15.66,15.7l.03,39.46h13.15v-32.55l-.03-6.94Z"/><path class="cls-1" d="M53.24,59.01h-.02c-.64,0-1.29-.04-1.93-.11-1.48-.14-2.88-.51-4.23-.97v66.44h13.28V57.92c-1.97.69-4.86,1.09-7.1,1.09Z"/><path class="cls-1" d="M60.33,47.94c0,3.62-2.74,6.59-6.25,6.97-.26.03-.51.05-.77.05h0c-3.88,0-7.01-3.13-7.01-7.01s3.13-7,7.01-7.01h0c.26,0,.51.02.77.05,3.51.37,6.25,3.34,6.25,6.97Z"/></g></g></svg>