<svg width="169" height="169" viewBox="0 0 169 169" fill="none" xmlns="http://www.w3.org/2000/svg">
<g clip-path="url(#clip0_17115_413)">
<path d="M136.82 0H32C14.33 0 0 14.33 0 32V136.82C0 154.49 14.33 168.82 32 168.82H136.82C154.49 168.82 168.82 154.49 168.82 136.82V32C168.82 14.33 154.49 0 136.82 0ZM60.33 124.37H47.05V57.94C48.4 58.4 49.8 58.77 51.28 58.91C51.92 58.98 52.57 59.02 53.21 59.02H53.23C55.47 59.02 58.36 58.62 60.33 57.93V124.38V124.37ZM54.09 54.9C53.83 54.93 53.58 54.95 53.32 54.95C49.44 54.95 46.31 51.82 46.31 47.94C46.31 44.06 49.44 40.94 53.32 40.93C53.58 40.93 53.83 40.95 54.09 40.98C57.6 41.35 60.34 44.32 60.34 47.95C60.34 51.58 57.6 54.54 54.09 54.92V54.9ZM128.58 124.37H115.43L115.4 84.91C115.4 76.24 108.38 69.21 99.74 69.21C91.1 69.21 84.08 76.24 84.08 84.88V124.37H70.93V57.92H84.08V60.73C88.59 57.79 93.96 56.07 99.74 56.07C115.62 56.07 128.55 69 128.55 84.88L128.58 91.82V124.37Z" fill="#FFF6EE"/>
</g>
<defs>
<clipPath id="clip0_17115_413">
<rect width="168.82" height="168.82" fill="white"/>
</clipPath>
</defs>
</svg>
