<?xml version="1.0" encoding="UTF-8"?><svg id="Camada_2" xmlns="http://www.w3.org/2000/svg" viewBox="0 0 223.75 131.86"><defs><style>.cls-1{fill:#ebe4d7;}</style></defs><g id="Layer_2"><g id="Livro_branco"><path class="cls-1" d="M187.08,10.3c0-6.57-5.49-11.45-11.31-10.06l-57.6,15.22v116.4l64.24-19.57c2.76-.77,4.7-3.51,4.7-6.66l-.04-95.34ZM134.34,39.59l30.26-6.87c4-.91,7.97.59,8.87,4.59.91,3.99-1.59,6.97-5.59,7.87l-30.26,6.87c-.55.13-1.1.19-1.65.19-3.39,0-6.44-1.33-7.22-4.78-.91-3.99,1.59-6.97,5.59-7.87ZM134.42,63.02l30.26-6.87c3.99-.91,7.97.59,8.87,4.59.91,3.99-1.59,6.97-5.59,7.87l-30.26,6.87c-.55.13-1.1.19-1.65.19-3.39,0-6.44-1.33-7.22-4.78-.91-3.99,1.59-6.97,5.59-7.87ZM167.97,92.26l-30.26,6.87c-.55.13-1.1.19-1.65.19-3.39,0-6.44-1.33-7.22-4.78-.91-3.99,1.59-6.97,5.59-7.87l30.26-6.87c3.99-.91,7.97.59,8.87,4.59.91,3.99-1.59,6.97-5.59,7.87Z"/><g id="livro_linha_preta"><path class="cls-1" d="M22.63,30.76h-11.63c-6.08,0-11,4.92-11,11v79.11c0,6.08,4.92,11,11,11h11.63V30.76Z"/><path class="cls-1" d="M212.75,30.76h-12.83l.03,88.26c0,3.62-2.15,6.77-5.21,7.66l-17.95,4.98,35.91.16c6.09.03,11.05-4.91,11.05-11V41.76c0-6.08-4.92-11-11-11Z"/><line class="cls-1" x1="105.98" y1="130.11" x2="105.99" y2="130.12"/></g><path class="cls-1" d="M104.75,15.44s-37.29.05-57.97.07c-6.07,0-10.98,4.93-10.98,11v105.35h68.96V15.44ZM86.74,103.14h-30.72c-4.06,0-7.6-2.13-7.72-6.19-.13-4.2,3.24-6.64,7.41-6.64h30.72c4.06,0,7.6,2.13,7.72,6.19.13,4.2-3.24,6.64-7.41,6.64ZM86.74,80.08h-30.72c-4.06,0-7.6-2.13-7.72-6.19-.13-4.2,3.24-6.64,7.41-6.64h30.72c4.06,0,7.6,2.13,7.72,6.19.13,4.2-3.24,6.64-7.41,6.64ZM86.74,57.26h-30.72c-4.06,0-7.6-2.13-7.72-6.19-.13-4.2,3.24-6.64,7.41-6.64h30.72c4.06,0,7.6,2.13,7.72,6.19.13,4.2-3.24,6.64-7.41,6.64Z"/></g></g></svg>