<?xml version="1.0" encoding="UTF-8"?><svg id="Camada_2" xmlns="http://www.w3.org/2000/svg" viewBox="0 0 231.71 161.12"><defs><style>.cls-1{stroke-linecap:round;}.cls-1,.cls-2{fill:none;stroke:#ebe4d7;stroke-linejoin:round;stroke-width:14.83px;}</style></defs><g id="Layer_2"><g id="livro_linha_branca"><path class="cls-2" d="M199.54,38.06h13.75c6.08,0,11,4.92,11,11v93.64c0,6.08-4.92,11-11,11H18.42c-6.08,0-11-4.92-11-11V49.06c0-6.08,4.92-11,11-11h13.48"/><path class="cls-2" d="M115.85,22.8l69.83-15.15c6.38-1.38,12.42,3.48,12.42,10.01l.04,109.95c0,3.13-2.12,5.86-5.16,6.62l-74.94,18.94-2.18-1.72V22.8l-72.4.13c-6.05.01-10.95,4.9-10.98,10.95l-.58,116.48c0,1.85,1.53,3.35,3.41,3.35h77.13"/><line class="cls-1" x1="140.63" y1="60.24" x2="170.89" y2="53.37"/><line class="cls-1" x1="140.71" y1="83.67" x2="170.96" y2="76.8"/><line class="cls-1" x1="140.72" y1="107.32" x2="170.97" y2="100.45"/><line class="cls-1" x1="59.36" y1="65.27" x2="90.39" y2="65.27"/><line class="cls-1" x1="59.36" y1="88.08" x2="90.39" y2="88.08"/><line class="cls-1" x1="59.36" y1="111.15" x2="90.39" y2="111.15"/></g></g></svg>