<?xml version="1.0" encoding="UTF-8"?><svg id="Camada_2" xmlns="http://www.w3.org/2000/svg" viewBox="0 0 154.46 195.71"><defs><style>.cls-1{fill:#464a4d;}</style></defs><g id="Layer_2"><g id="Local_linha_preta"><path class="cls-1" d="M77.22,22.24c30.31,0,54.98,24.66,54.98,54.98v.32c.82,37.94-38.97,79.42-54.97,94.52-15.99-15.09-55.79-56.57-54.97-94.52l.07-3.4c1.6-28.89,25.61-51.9,54.89-51.9M76.53,104.1c1.28,0,2.58-.08,3.86-.24,13.67-1.72,24.41-12.47,26.14-26.14,1.09-8.65-1.57-17.35-7.31-23.85-5.74-6.51-14.01-10.24-22.68-10.24-1.28,0-2.58.08-3.86.24-13.67,1.72-24.42,12.47-26.14,26.14-1.09,8.65,1.57,17.35,7.31,23.85,5.74,6.51,14.01,10.24,22.68,10.24M77.22,7.42C38.67,7.42,7.42,38.67,7.42,77.22h.02c-.98,45.47,44.16,91.5,62.35,108.17,2.11,1.93,4.78,2.9,7.45,2.9s5.34-.97,7.45-2.9c18.19-16.67,63.33-62.72,62.35-108.17,0-38.55-31.25-69.81-69.81-69.81h0ZM76.53,89.27c-9.17,0-16.47-8.01-15.28-17.41.87-6.87,6.41-12.41,13.28-13.28.68-.09,1.34-.13,2-.13,9.17,0,16.47,8.01,15.28,17.41-.87,6.87-6.41,12.41-13.28,13.28-.68.09-1.34.13-2,.13h0Z"/></g></g></svg>