<?xml version="1.0" encoding="UTF-8"?><svg id="Camada_2" xmlns="http://www.w3.org/2000/svg" viewBox="0 0 188.89 174.89"><defs><style>.cls-1{fill:none;stroke:#464a4d;stroke-miterlimit:10;stroke-width:14.83px;}.cls-2{fill:#464a4d;}</style></defs><g id="Layer_2"><g id="Mala_linha_preta"><path class="cls-2" d="M174.06,45.59v114.47H14.83V45.59h159.23M177.89,30.76H11c-6.08,0-11,4.92-11,11v122.13c0,6.08,4.92,11,11,11h166.89c6.08,0,11-4.92,11-11V41.76c0-6.08-4.92-11-11-11h0Z"/><line class="cls-1" x1="40.2" y1="36.65" x2="40.2" y2="70.02"/><line class="cls-1" x1="40.2" y1="85.93" x2="40.2" y2="119.31"/><line class="cls-1" x1="40.2" y1="135.21" x2="40.2" y2="168.59"/><line class="cls-1" x1="148.05" y1="36.65" x2="148.05" y2="70.02"/><line class="cls-1" x1="148.05" y1="85.93" x2="148.05" y2="119.31"/><line class="cls-1" x1="148.05" y1="135.21" x2="148.05" y2="168.59"/><path class="cls-1" d="M67.83,31V13.65c0-3.44,2.62-6.24,5.86-6.24h38.42c3.24,0,5.86,2.79,5.86,6.24v17.35"/></g></g></svg>