<?xml version="1.0" encoding="UTF-8"?><svg id="Camada_2" xmlns="http://www.w3.org/2000/svg" viewBox="0 0 188.89 174.89"><defs><style>.cls-1{fill:#464a4d;}</style></defs><g id="Layer_2"><path id="Mala_preto" class="cls-1" d="M177.89,30.76h-52.5V13.65c0-7.53-5.96-13.65-13.28-13.65h-38.42c-7.32,0-13.28,6.12-13.28,13.65v17.1H11c-6.08,0-11,4.92-11,11v122.13c0,6.08,4.92,11,11,11h166.89c6.08,0,11-4.92,11-11V41.76c0-6.08-4.92-11-11-11ZM75.24,14.83h35.31v15.93h-35.31v-15.93ZM47.61,160.04h-14.83v-24.83h14.83v24.83ZM47.61,119.31h-14.83v-33.37h14.83v33.37ZM47.61,70.02h-14.83v-24.37h14.83v24.37ZM155.47,160.04h-14.83v-24.83h14.83v24.83ZM155.47,119.31h-14.83v-33.37h14.83v33.37ZM155.47,70.02h-14.83v-24.37h14.83v24.37Z"/></g></svg>