<?xml version="1.0" encoding="UTF-8"?><svg id="Camada_2" xmlns="http://www.w3.org/2000/svg" viewBox="0 0 196.27 194.41"><defs><style>.cls-1{fill:#464a4d;}</style></defs><g id="Layer_2"><g id="Oficina_preenchido_preto"><path class="cls-1" d="M196.27,125.39v50.98c0,9.97-8.1,18.04-18.07,18-22.85-.09-49.72-.3-49.72-.3v-20.02c-8.25,0-14.95-6.81-14.95-15.22s6.69-15.22,14.95-15.22v-18.27l13.46.05c0,2.22,1.9,5.49,3.87,7.74,8.3,9.45,23.4,9.43,31.28-.37,1.71-2.13,3.41-5.27,3.41-7.37h15.77Z"/><path class="cls-1" d="M110.83,194.41h-49.97c-9.97,0-18.03-8.1-18-18.06l.17-50.27h19.76c0-8.2,6.73-15.54,15.02-15.54s15.02,7.34,15.02,15.54h18.04s-.05,14.34-.05,14.34c-2.2,0-5.43,1.89-7.64,3.85-9.33,8.25-9.31,23.25.37,31.08,2.11,1.7,5.2,3.39,7.28,3.39v15.67Z"/><path class="cls-1" d="M128.53,41.83s25.58,0,49.73,0c9.95,0,18.01,8.07,18,18.01l-.04,49.78h-19.73c0,8.14-6.72,15.42-15,15.42-8.28,0-15-7.28-15-15.42h-18.01s.05-14.23.05-14.23c2.19,0,5.42-1.87,7.63-3.82,9.32-8.19,9.3-23.07-.37-30.84-2.1-1.69-5.19-3.36-7.26-3.36v-15.55Z"/><path class="cls-1" d="M0,69.73s0-30.57,0-51.73C0,8.05,8.07,0,18.01,0l51.77.04v20.31c8.38,0,14.18,6.91,14.18,15.44,0,8.53-5.8,15.44-14.18,15.44v18.54s-14.65-.05-14.65-.05c0-2.26-1.93-5.58-3.93-7.86-8.43-9.59-23.75-9.57-31.74.38-1.74,2.16-3.46,5.35-3.46,7.48H0Z"/></g></g></svg>