<svg width="227" height="223" viewBox="0 0 227 223" fill="none" xmlns="http://www.w3.org/2000/svg">
<g clip-path="url(#clip0_17115_370)">
<path d="M135.99 48.4397H208.05C214.24 48.4397 219.26 53.4597 219.26 59.6497V131.71H194.67C194.67 141.85 186.3 150.07 175.98 150.07C165.66 150.07 157.29 141.85 157.29 131.71H135.98V109.3C146.3 109.3 154.67 101.08 154.67 90.9397C154.67 80.7997 146.3 72.5797 135.98 72.5797V48.4297L135.99 48.4397Z" stroke="#191919" stroke-width="14.83" stroke-miterlimit="10"/>
<path d="M219.261 132.28V204.34C219.261 210.53 214.241 215.55 208.051 215.55L135.991 215.49V190.9C125.851 190.9 117.631 182.53 117.631 172.21C117.631 161.89 125.851 153.52 135.991 153.52V132.21L157.301 132.27C157.301 142.59 166.621 150.96 176.761 150.96C186.901 150.96 195.121 142.59 195.121 132.27H219.271L219.261 132.28Z" stroke="#191919" stroke-width="14.83" stroke-miterlimit="10"/>
<path d="M7.41992 91.6499V18.6299C7.41992 12.4399 12.4399 7.41992 18.6299 7.41992H92.5499V32.0099C102.69 32.0099 110.91 40.3799 110.91 50.6999C110.91 61.0199 102.69 69.3899 92.5499 69.3899V91.6599H68.2799C68.2799 81.3399 60.0599 72.9699 49.9199 72.9699C39.7799 72.9699 31.5599 81.3399 31.5599 91.6599H7.41992V91.6499Z" stroke="#191919" stroke-width="14.83" stroke-miterlimit="10"/>
<path d="M135.991 215.54H62.0007C55.8107 215.54 50.7907 210.52 50.7907 204.33L50.7207 132.34H75.3107C75.3107 122.2 83.6807 113.98 94.0007 113.98C104.321 113.98 112.691 122.2 112.691 132.34H135.931L136.001 154.68C125.681 154.68 117.311 162.9 117.311 173.04C117.311 183.18 125.681 191.4 136.001 191.4V215.55L135.991 215.54Z" stroke="#191919" stroke-width="14.83" stroke-miterlimit="10"/>
</g>
<defs>
<clipPath id="clip0_17115_370">
<rect width="226.68" height="222.96" fill="white"/>
</clipPath>
</defs>
</svg>
