<?xml version="1.0" encoding="UTF-8"?><svg id="Camada_2" xmlns="http://www.w3.org/2000/svg" viewBox="0 0 226.68 222.96"><defs><style>.cls-1{fill:none;stroke:#464a4d;stroke-miterlimit:10;stroke-width:14.83px;}</style></defs><g id="Layer_2"><g id="Oficina_linha_preta"><path class="cls-1" d="M135.99,48.44h72.06c6.19,0,11.21,5.02,11.21,11.21v72.06h-24.59c0,10.14-8.37,18.36-18.69,18.36s-18.69-8.22-18.69-18.36h-21.31v-22.41c10.32,0,18.69-8.22,18.69-18.36s-8.37-18.36-18.69-18.36v-24.15Z"/><path class="cls-1" d="M219.26,132.28v72.06c0,6.19-5.02,11.21-11.21,11.21l-72.06-.06v-24.59c-10.14,0-18.36-8.37-18.36-18.69s8.22-18.69,18.36-18.69v-21.31l21.31.06c0,10.32,9.32,18.69,19.46,18.69s18.36-8.37,18.36-18.69h24.15Z"/><path class="cls-1" d="M7.42,91.65V18.63c0-6.19,5.02-11.21,11.21-11.21h73.92v24.59c10.14,0,18.36,8.37,18.36,18.69s-8.22,18.69-18.36,18.69v22.27h-24.27c0-10.32-8.22-18.69-18.36-18.69s-18.36,8.37-18.36,18.69H7.42Z"/><path class="cls-1" d="M135.99,215.54H62c-6.19,0-11.21-5.02-11.21-11.21l-.07-71.99h24.59c0-10.14,8.37-18.36,18.69-18.36s18.69,8.22,18.69,18.36h23.24l.07,22.34c-10.32,0-18.69,8.22-18.69,18.36s8.37,18.36,18.69,18.36v24.15Z"/></g></g></svg>