<?xml version="1.0" encoding="UTF-8"?><svg id="Camada_2" xmlns="http://www.w3.org/2000/svg" viewBox="0 0 188.34 180.75"><defs><style>.cls-1{fill:#eb9d8a;}.cls-1,.cls-2,.cls-3,.cls-4,.cls-5{stroke:#464a4d;stroke-miterlimit:10;stroke-width:14.83px;}.cls-2{fill:#f5d1c7;}.cls-3{fill:#8d5f7a;}.cls-4{fill:#c67762;}.cls-5{fill:none;}</style></defs><g id="Layer_2"><g id="Pais_cor"><path class="cls-1" d="M91.26,112.7c-5.84-15.65-20.92-26.79-38.6-26.79h-4.05c-22.75,0-41.19,18.44-41.19,41.19v34.5c0,6.48,5.25,11.73,11.73,11.73h74.7"/><path class="cls-4" d="M94.49,173.33h74.7c6.48,0,11.73-5.25,11.73-11.73v-34.5c0-22.75-18.44-41.19-41.19-41.19h-4.05c-17.97,0-33.25,11.5-38.88,27.54"/><circle class="cls-2" cx="137.71" cy="35.25" r="27.83"/><path class="cls-3" d="M93.84,124.8h2.06c12.67,0,22.96,10.29,22.96,22.96v25.57h-47.88c-.05,0-.09-.04-.09-.09v-25.47c0-12.67,10.29-22.96,22.96-22.96Z"/><circle class="cls-2" cx="94.87" cy="95.77" r="16.34"/><path class="cls-2" d="M50.63,7.62h0c15.26,0,27.65,12.39,27.65,27.65v16.65c0,6.07-4.93,11-11,11h-33.3c-6.07,0-11-4.93-11-11v-16.65c0-15.26,12.39-27.65,27.65-27.65Z"/><line class="cls-5" x1="94.49" y1="111.61" x2="94.49" y2="121.49"/></g></g></svg>