<?xml version="1.0" encoding="UTF-8"?><svg id="Camada_2" xmlns="http://www.w3.org/2000/svg" viewBox="0 0 188.34 180.75"><defs><style>.cls-1{fill:none;stroke:#ebe4d7;stroke-miterlimit:10;stroke-width:14.83px;}</style></defs><g id="Layer_2"><g id="Pais_linha_branca"><path class="cls-1" d="M78.28,94.85c-7.03-5.6-15.94-8.94-25.63-8.94h-4.05c-22.75,0-41.19,18.44-41.19,41.19v34.5c0,6.48,5.25,11.73,11.73,11.73h74.7"/><path class="cls-1" d="M94.49,173.33h74.7c6.48,0,11.73-5.25,11.73-11.73v-34.5c0-22.75-18.44-41.19-41.19-41.19h-4.05c-9.77,0-18.75,3.4-25.81,9.09"/><circle class="cls-1" cx="137.71" cy="35.25" r="27.83"/><path class="cls-1" d="M93.84,124.8h2.06c12.67,0,22.96,10.29,22.96,22.96v25.57h-47.88c-.05,0-.09-.04-.09-.09v-25.47c0-12.67,10.29-22.96,22.96-22.96Z"/><circle class="cls-1" cx="94.87" cy="91.77" r="16.34"/><path class="cls-1" d="M50.63,7.62h0c15.26,0,27.65,12.39,27.65,27.65v16.65c0,6.07-4.93,11-11,11h-33.3c-6.07,0-11-4.93-11-11v-16.65c0-15.26,12.39-27.65,27.65-27.65Z"/><line class="cls-1" x1="94.49" y1="111.61" x2="94.49" y2="121.49"/></g></g></svg>