<svg width="189" height="181" viewBox="0 0 189 181" fill="none" xmlns="http://www.w3.org/2000/svg">
<g clip-path="url(#clip0_17115_377)">
<path d="M91.2599 112.7C85.4199 97.0501 70.3399 85.9102 52.6599 85.9102H48.6099C25.8599 85.9102 7.41992 104.35 7.41992 127.1V161.6C7.41992 168.08 12.6699 173.33 19.1499 173.33H93.8499" fill="#EB9D8A"/>
<path d="M91.2599 112.7C85.4199 97.0501 70.3399 85.9102 52.6599 85.9102H48.6099C25.8599 85.9102 7.41992 104.35 7.41992 127.1V161.6C7.41992 168.08 12.6699 173.33 19.1499 173.33H93.8499" stroke="#191919" stroke-width="14.83" stroke-miterlimit="10"/>
<path d="M94.4902 173.33H169.19C175.67 173.33 180.92 168.08 180.92 161.6V127.1C180.92 104.35 162.48 85.9102 139.73 85.9102H135.68C117.71 85.9102 102.43 97.4101 96.8002 113.45" fill="#C67762"/>
<path d="M94.4902 173.33H169.19C175.67 173.33 180.92 168.08 180.92 161.6V127.1C180.92 104.35 162.48 85.9102 139.73 85.9102H135.68C117.71 85.9102 102.43 97.4101 96.8002 113.45" stroke="#191919" stroke-width="14.83" stroke-miterlimit="10"/>
<path d="M137.711 63.0799C153.081 63.0799 165.541 50.62 165.541 35.2499C165.541 19.8798 153.081 7.41992 137.711 7.41992C122.341 7.41992 109.881 19.8798 109.881 35.2499C109.881 50.62 122.341 63.0799 137.711 63.0799Z" fill="#F5D1C7" stroke="#191919" stroke-width="14.83" stroke-miterlimit="10"/>
<path d="M93.8406 124.8H95.9006C108.571 124.8 118.861 135.09 118.861 147.76V173.33H70.9806C70.9306 173.33 70.8906 173.29 70.8906 173.24V147.77C70.8906 135.1 81.1806 124.81 93.8506 124.81L93.8406 124.8Z" fill="#8D5F7A" stroke="#191919" stroke-width="14.83" stroke-miterlimit="10"/>
<path d="M94.8693 112.11C103.894 112.11 111.209 104.794 111.209 95.7697C111.209 86.7454 103.894 79.4297 94.8693 79.4297C85.845 79.4297 78.5293 86.7454 78.5293 95.7697C78.5293 104.794 85.845 112.11 94.8693 112.11Z" fill="#F5D1C7" stroke="#191919" stroke-width="14.83" stroke-miterlimit="10"/>
<path d="M50.6305 7.62012C65.8905 7.62012 78.2805 20.0101 78.2805 35.2701V51.9201C78.2805 57.9901 73.3505 62.9201 67.2805 62.9201H33.9805C27.9105 62.9201 22.9805 57.9901 22.9805 51.9201V35.2701C22.9805 20.0101 35.3705 7.62012 50.6305 7.62012Z" fill="#F5D1C7" stroke="#191919" stroke-width="14.83" stroke-miterlimit="10"/>
<path d="M94.4902 111.61V121.49" stroke="#191919" stroke-width="14.83" stroke-miterlimit="10"/>
</g>
<defs>
<clipPath id="clip0_17115_377">
<rect width="188.34" height="180.75" fill="white"/>
</clipPath>
</defs>
</svg>
