<?xml version="1.0" encoding="UTF-8"?><svg id="Camada_2" xmlns="http://www.w3.org/2000/svg" viewBox="0 0 189.28 180.65"><defs><style>.cls-1{fill:#464a4d;}</style></defs><g id="Layer_2"><g id="Pais_preenchido_preto"><path class="cls-1" d="M94.66,131.35h1.18c9.19,0,16.64,7.46,16.64,16.64v32.66h-34.47v-32.66c0-9.19,7.46-16.64,16.64-16.64Z"/><circle class="cls-1" cx="136.66" cy="34.63" r="34.63"/><path class="cls-1" d="M51.69,0h0C70.59,0,85.94,15.35,85.94,34.25v16.69c0,9.69-7.87,17.56-17.56,17.56h-32.4c-10.23,0-18.54-8.31-18.54-18.54v-15.71C17.44,15.35,32.78,0,51.69,0Z"/><circle class="cls-1" cx="94.87" cy="90.18" r="11.68"/><path class="cls-1" d="M140.1,78.5c-14.94.13-16.85,1.53-23.36,3.83.01.4.02.78.02,1.17,1.02,2.82,1.5,5.83,1.39,8.91-.22,6.34-2.9,12.22-7.54,16.55-2.54,2.37-5.5,4.1-8.7,5.16v3.68c3.37.67,6.43,1.94,9.08,3.7,8.87,5.31,14.82,15.01,14.82,26.08v33.07h45.47c9.94,0,18-8.06,18-18v-39.84c0-25.32-23.28-44.53-49.18-44.31Z"/><path class="cls-1" d="M87.08,114.03c-3.09-1.07-5.95-2.77-8.41-5.07-4.64-4.33-7.32-10.21-7.54-16.55-.11-3.08.38-6.09,1.39-8.91,0-.39.01-.77.02-1.17-6.51-2.3-8.43-3.7-23.36-3.83-25.9-.22-49.18,18.99-49.18,44.31v39.84c0,9.94,8.06,18,18,18h45.47v-33.07c0-11.07,5.95-20.77,14.82-26.08,2.58-1.71,5.53-2.96,8.79-3.65v-3.83Z"/></g></g></svg>