<?xml version="1.0" encoding="UTF-8"?><svg id="Camada_2" xmlns="http://www.w3.org/2000/svg" viewBox="0 0 168.51 183.27"><defs><style>.cls-1{fill:none;stroke:#ebe4d7;stroke-linecap:round;stroke-linejoin:bevel;stroke-width:14.83px;}.cls-2{fill:#ebe4d7;}</style></defs><g id="Layer_2"><g id="Pin_branco"><line class="cls-1" x1="74.63" y1="103.11" x2="7.42" y2="175.85"/><path class="cls-2" d="M148.47,14.59c-24.42-21.41-61.57-18.98-82.98,5.44-21.41,24.42-18.98,61.57,5.44,82.98,24.42,21.41,61.57,18.98,82.98-5.44,21.41-24.42,18.98-61.57-5.44-82.98ZM132.05,81.6c-1.46,1.67-3.52,2.53-5.58,2.53-1.74,0-3.48-.61-4.89-1.84-3.08-2.7-3.39-7.38-.68-10.46,2.99-3.41,4.48-7.79,4.18-12.32s-2.34-8.68-5.75-11.67c-3.08-2.7-3.39-7.38-.69-10.46s7.39-3.39,10.46-.69c6.39,5.61,10.22,13.37,10.78,21.85.56,8.48-2.23,16.68-7.83,23.07Z"/></g></g></svg>