<?xml version="1.0" encoding="UTF-8"?><svg id="Camada_2" xmlns="http://www.w3.org/2000/svg" viewBox="0 0 168.51 183.27"><defs><style>.cls-1{fill:none;stroke:#464a4d;stroke-linecap:round;stroke-linejoin:bevel;stroke-width:14.83px;}.cls-2{fill:#464a4d;}.cls-3{fill:#e53946;}</style></defs><g id="Layer_2"><g id="Pin_cor"><path class="cls-3" d="M109.68,110.19c-12.46,0-24.48-4.53-33.86-12.75-10.32-9.05-16.5-21.58-17.4-35.27-.9-13.7,3.59-26.92,12.64-37.24,9.76-11.13,23.85-17.51,38.66-17.51,12.46,0,24.48,4.53,33.86,12.75,10.32,9.05,16.5,21.58,17.4,35.28s-3.59,26.92-12.64,37.24c-9.76,11.13-23.85,17.51-38.65,17.51h0Z"/><path class="cls-2" d="M109.73,14.83c10.66,0,20.95,3.88,28.97,10.91,18.23,15.99,20.05,43.83,4.07,62.06-8.35,9.52-20.41,14.98-33.08,14.98-10.66,0-20.95-3.88-28.97-10.91-18.23-15.99-20.05-43.83-4.07-62.06,8.35-9.52,20.41-14.98,33.08-14.98M109.73,0c-16.35,0-32.61,6.78-44.23,20.03-21.41,24.42-18.98,61.57,5.44,82.98,11.16,9.79,24.99,14.59,38.75,14.59,16.35,0,32.61-6.78,44.23-20.03,21.41-24.42,18.98-61.57-5.44-82.98C137.31,4.81,123.49,0,109.73,0h0Z"/><line class="cls-1" x1="74.63" y1="103.11" x2="7.42" y2="175.85"/><path class="cls-1" d="M126.48,76.71c8.89-10.14,7.88-25.56-2.26-34.46"/></g></g></svg>