<svg width="210" height="224" viewBox="0 0 210 224" fill="none" xmlns="http://www.w3.org/2000/svg">
<g clip-path="url(#clip0_17115_387)">
<path d="M107.65 215.65H17.5899C11.9699 215.65 7.41992 211.1 7.41992 205.48V71.5899C7.41992 65.9699 11.9699 61.4199 17.5899 61.4199H151.48C157.1 61.4199 161.65 65.9699 161.65 71.5899V98.9999" stroke="#191919" stroke-width="14.83" stroke-miterlimit="10"/>
<path d="M57.4805 79.4299V33.4699C57.4805 19.0799 69.1505 7.41992 83.5305 7.41992C97.9105 7.41992 109.58 19.0899 109.58 33.4699V79.4299" stroke="#191919" stroke-width="14.83" stroke-miterlimit="10"/>
<path d="M196.239 171.84H198.909C201.949 171.86 204.419 169.4 204.429 166.36L204.449 159.87C204.449 156.83 201.999 154.36 198.969 154.36H196.299C193.919 154.34 191.809 152.8 191.089 150.53C190.419 148.44 189.599 146.42 188.609 144.49C187.529 142.36 187.929 139.78 189.629 138.1L191.519 136.22C193.669 134.08 193.679 130.6 191.539 128.44L186.969 123.84C184.829 121.68 181.339 121.67 179.189 123.82L177.299 125.7C175.609 127.38 173.019 127.78 170.899 126.68C168.969 125.68 166.959 124.84 164.869 124.15C162.609 123.41 161.079 121.3 161.089 118.92V116.25C161.109 113.21 158.649 110.74 155.609 110.73L149.119 110.71C146.079 110.71 143.609 113.16 143.609 116.19V118.86C143.589 121.24 142.049 123.35 139.779 124.07C137.689 124.74 135.669 125.56 133.739 126.55C131.609 127.63 129.029 127.23 127.349 125.53L125.469 123.64C123.329 121.49 119.849 121.48 117.689 123.62L113.079 128.2C110.929 130.34 110.909 133.82 113.049 135.97L114.929 137.87C116.609 139.56 116.999 142.14 115.909 144.25C114.919 146.18 114.069 148.2 113.389 150.29C112.649 152.55 110.539 154.08 108.159 154.07H105.489C102.449 154.05 99.9792 156.51 99.9692 159.55L99.9492 166.04C99.9492 169.08 102.399 171.55 105.429 171.55H108.099C110.479 171.57 112.589 173.11 113.309 175.38C113.979 177.47 114.799 179.49 115.789 181.42C116.869 183.55 116.469 186.13 114.769 187.81L112.879 189.69C110.729 191.83 110.719 195.31 112.859 197.47L117.439 202.08C119.579 204.23 123.059 204.25 125.209 202.11L127.109 200.23C128.799 198.55 131.369 198.16 133.489 199.25C135.419 200.24 137.439 201.09 139.529 201.77C141.789 202.51 143.319 204.62 143.309 207V209.67C143.289 212.71 145.749 215.18 148.789 215.19L155.279 215.21C158.319 215.21 160.789 212.76 160.789 209.73V207.06C160.809 204.68 162.349 202.57 164.619 201.85C166.709 201.18 168.729 200.36 170.659 199.37C172.789 198.29 175.369 198.69 177.049 200.39L178.929 202.28C181.069 204.43 184.549 204.44 186.709 202.3L191.319 197.72C193.469 195.58 193.489 192.1 191.349 189.95L189.469 188.05C187.789 186.36 187.399 183.78 188.489 181.67C189.479 179.74 190.329 177.72 191.009 175.63C191.749 173.37 193.859 171.84 196.239 171.85V171.84Z" stroke="#191919" stroke-width="11" stroke-miterlimit="10"/>
<path d="M152.201 182.02C162.727 182.02 171.261 173.486 171.261 162.96C171.261 152.433 162.727 143.9 152.201 143.9C141.674 143.9 133.141 152.433 133.141 162.96C133.141 173.486 141.674 182.02 152.201 182.02Z" stroke="#191919" stroke-width="13" stroke-miterlimit="10"/>
</g>
<defs>
<clipPath id="clip0_17115_387">
<rect width="209.94" height="223.07" fill="white"/>
</clipPath>
</defs>
</svg>
