<?xml version="1.0" encoding="UTF-8"?><svg id="Camada_2" xmlns="http://www.w3.org/2000/svg" viewBox="0 0 209.94 223.07"><defs><style>.cls-1{stroke-width:14.83px;}.cls-1,.cls-2,.cls-3{fill:none;stroke:#464a4d;stroke-miterlimit:10;}.cls-2{stroke-width:11px;}.cls-3{stroke-width:13px;}</style></defs><g id="Layer_2"><path class="cls-1" d="M107.65,215.65H17.59c-5.62,0-10.17-4.55-10.17-10.17V71.59c0-5.62,4.55-10.17,10.17-10.17h133.89c5.62,0,10.17,4.55,10.17,10.17v27.41"/><path class="cls-1" d="M57.48,79.43v-45.96c0-14.39,11.67-26.05,26.05-26.05s26.05,11.67,26.05,26.05v45.96"/><path class="cls-2" d="M196.24,171.84h2.67c3.04.02,5.51-2.44,5.52-5.48l.02-6.49c0-3.04-2.45-5.51-5.48-5.51h-2.67c-2.38-.02-4.49-1.56-5.21-3.83-.67-2.09-1.49-4.11-2.48-6.04-1.08-2.13-.68-4.71,1.02-6.39l1.89-1.88c2.15-2.14,2.16-5.62.02-7.78l-4.57-4.6c-2.14-2.16-5.63-2.17-7.78-.02l-1.89,1.88c-1.69,1.68-4.28,2.08-6.4.98-1.93-1-3.94-1.84-6.03-2.53-2.26-.74-3.79-2.85-3.78-5.23v-2.67c.02-3.04-2.44-5.51-5.48-5.52l-6.49-.02c-3.04,0-5.51,2.45-5.51,5.48v2.67c-.02,2.38-1.56,4.49-3.83,5.21-2.09.67-4.11,1.49-6.04,2.48-2.13,1.08-4.71.68-6.39-1.02l-1.88-1.89c-2.14-2.15-5.62-2.16-7.78-.02l-4.61,4.58c-2.15,2.14-2.17,5.62-.03,7.77l1.88,1.9c1.68,1.69,2.07,4.27.98,6.38-.99,1.93-1.84,3.95-2.52,6.04-.74,2.26-2.85,3.79-5.23,3.78h-2.67c-3.04-.02-5.51,2.44-5.52,5.48l-.02,6.49c0,3.04,2.45,5.51,5.48,5.51h2.67c2.38.02,4.49,1.56,5.21,3.83.67,2.09,1.49,4.11,2.48,6.04,1.08,2.13.68,4.71-1.02,6.39l-1.89,1.88c-2.15,2.14-2.16,5.62-.02,7.78l4.58,4.61c2.14,2.15,5.62,2.17,7.77.03l1.9-1.88c1.69-1.68,4.26-2.07,6.38-.98,1.93.99,3.95,1.84,6.04,2.52,2.26.74,3.79,2.85,3.78,5.23v2.67c-.02,3.04,2.44,5.51,5.48,5.52l6.49.02c3.04,0,5.51-2.45,5.51-5.48v-2.67c.02-2.38,1.56-4.49,3.83-5.21,2.09-.67,4.11-1.49,6.04-2.48,2.13-1.08,4.71-.68,6.39,1.02l1.88,1.89c2.14,2.15,5.62,2.16,7.78.02l4.61-4.58c2.15-2.14,2.17-5.62.03-7.77l-1.88-1.9c-1.68-1.69-2.07-4.27-.98-6.38.99-1.93,1.84-3.95,2.52-6.04.74-2.26,2.85-3.79,5.23-3.78Z"/><circle class="cls-3" cx="152.2" cy="162.96" r="19.06"/></g></svg>