<?xml version="1.0" encoding="UTF-8"?><svg id="Camada_2" xmlns="http://www.w3.org/2000/svg" viewBox="0 0 196.87 223.07"><defs><style>.cls-1{fill:none;stroke:#ebe4d7;stroke-miterlimit:10;stroke-width:14.83px;}.cls-2{fill:#ebe4d7;}</style></defs><g id="Layer_2"><g id="Produtos_preenchido_branco"><g id="Produtos_linha_preta"><path class="cls-2" d="M152.34,149.9s-.1,0-.14,0c-3.44,0-6.67,1.32-9.13,3.73-2.49,2.44-3.89,5.71-3.92,9.19-.04,3.49,1.29,6.78,3.72,9.27,2.44,2.49,5.71,3.89,9.19,3.92,7.2.08,13.12-5.72,13.2-12.92.08-7.2-5.72-13.12-12.92-13.2Z"/><path class="cls-2" d="M192.09,154.7h-2.32c-2.07-.01-3.91-1.36-4.54-3.33-.58-1.82-1.3-3.58-2.16-5.25-.94-1.85-.59-4.1.88-5.56l1.64-1.64c1.87-1.86,1.88-4.89.02-6.77l-3.98-4c-1.86-1.88-4.9-1.88-6.77-.02l-1.64,1.63c-1.47,1.47-3.72,1.81-5.57.85-1.68-.87-3.43-1.6-5.25-2.2-1.97-.64-3.3-2.48-3.29-4.55v-2.32c.02-2.64-2.12-4.79-4.77-4.8l-5.65-.02c-2.64,0-4.79,2.13-4.8,4.77v2.32c-.01,2.07-1.36,3.91-3.33,4.54-1.82.58-3.58,1.3-5.25,2.16-1.85.94-4.1.59-5.56-.88l-1.64-1.64c-1.86-1.87-4.89-1.88-6.77-.02l-4.01,3.98c-1.87,1.86-1.88,4.89-.02,6.77l1.64,1.65c1.46,1.47,1.8,3.71.85,5.55-.86,1.68-1.6,3.44-2.19,5.26-.64,1.97-2.48,3.3-4.55,3.29h-2.32c-2.64-.02-4.79,2.12-4.8,4.77v5.65c-.02,2.64,2.11,4.79,4.76,4.8h2.32c2.07.01,3.91,1.36,4.54,3.33.58,1.82,1.3,3.58,2.16,5.25.94,1.85.59,4.1-.88,5.56l-1.64,1.64c-1.87,1.86-1.88,4.89-.02,6.77l3.98,4.01c1.86,1.87,4.89,1.88,6.77.02l1.65-1.64c1.47-1.46,3.71-1.8,5.55-.85,1.68.86,3.44,1.6,5.26,2.19,1.97.64,3.3,2.48,3.29,4.55v2.32c-.02,2.64,2.12,4.79,4.77,4.8l5.65.02c2.64,0,4.79-2.13,4.8-4.77v-2.32c.01-2.07,1.36-3.91,3.33-4.54,1.82-.58,3.58-1.3,5.25-2.16,1.85-.94,4.1-.59,5.56.88l1.64,1.64c1.86,1.87,4.89,1.88,6.77.02l4.01-3.98c1.87-1.86,1.88-4.89.02-6.77l-1.64-1.65c-1.46-1.47-1.8-3.71-.85-5.55.86-1.68,1.6-3.44,2.19-5.26.64-1.97,2.48-3.3,4.55-3.29h2.32c2.64.02,4.79-2.12,4.8-4.77v-5.65c.02-2.64-2.11-4.79-4.76-4.8ZM152.2,188.02c-.09,0-.18,0-.27,0-6.69-.07-12.96-2.75-17.64-7.53-4.68-4.78-7.22-11.1-7.15-17.8s2.75-12.96,7.53-17.64c4.78-4.68,11.11-7.22,17.8-7.15,6.69.07,12.96,2.75,17.64,7.53,4.68,4.78,7.22,11.1,7.15,17.8-.15,13.72-11.36,24.79-25.06,24.79Z"/><path class="cls-2" d="M169.06,118.78v-47.19c0-9.7-7.89-17.59-17.59-17.59h-23.89v25.42h-36v-25.42h-16.11v25.42h-36v-25.42h-21.89c-9.7,0-17.59,7.89-17.59,17.59v133.89c0,9.7,7.89,17.59,17.59,17.59h137.72v-1.36h-.05l-6.49-.02c-6.62-.02-11.99-5.42-11.97-12.04v-1.94c-1.92-.66-3.81-1.45-5.63-2.36l-1.38,1.37c-4.69,4.65-12.3,4.63-16.96-.06l-4.58-4.61c-4.66-4.69-4.64-12.3.05-16.97l1.37-1.36c-.9-1.83-1.67-3.73-2.32-5.66h-1.94c-6.61-.03-11.98-5.42-11.96-12.04l.02-6.49c0-3.21,1.26-6.22,3.54-8.48,2.26-2.25,5.27-3.49,8.46-3.49h1.98c.66-1.92,1.45-3.81,2.36-5.63l-1.37-1.38c-4.66-4.69-4.63-12.3.06-16.96l4.6-4.58c4.69-4.66,12.3-4.64,16.97.05l1.36,1.37c1.83-.9,3.73-1.67,5.66-2.32v-1.93c.03-6.61,5.41-11.96,12.01-11.96h.03l6.49.02c3.21,0,6.22,1.27,8.48,3.54s3.5,5.29,3.49,8.5v1.94c.49.17.98.38,1.48.57Z"/></g><path class="cls-1" d="M57.48,70.43v-36.96c0-14.39,11.67-26.05,26.05-26.05s26.05,11.67,26.05,26.05v36.96"/></g></g></svg>