<?xml version="1.0" encoding="UTF-8"?><svg id="Camada_2" xmlns="http://www.w3.org/2000/svg" viewBox="0 0 215.38 194.67"><defs><style>.cls-1{fill:#464a4d;}</style></defs><g id="Layer_2"><g id="Profissionais_preenchido_preto"><circle class="cls-1" cx="55.38" cy="45.03" r="33.38"/><circle class="cls-1" cx="141.87" cy="35.26" r="35.26"/><path class="cls-1" d="M80.72,188.54c-4.44.17-4.1-7.8-4.21-18v-71.04c0-3.81,1.19-7.34,3.21-10.24H18c-9.94,0-18,8.06-18,18v63.29c0,9.94,8.06,18,18,18h62.72Z"/><path class="cls-1" d="M130.19,179.8l.64-8.05-6.14-5.24c-7.41-6.32-7.41-17.76,0-24.08l6.14-5.24-.64-8.05c-.77-9.71,7.32-17.8,17.03-17.03l8.05.64,5.24-6.14c6.32-7.41,17.64-6.61,25.09-.34,5.36,4.51,5.19,5.27,5.19,5.27h5.93v-12.03c0-9.94-8.06-18-18-18h-68.65c-9.94,0-18,8.06-18,18v71.04c0,9.94,8.06,18,18,18h21.97c-1.39-2.57-2.1-5.57-1.85-8.74Z"/><path class="cls-1" d="M211.14,144.66l-4.69-4,.49-6.15c.59-7.41-5.59-13.59-13.01-13.01l-6.15.49-4-4.69c-4.83-5.66-13.57-5.66-18.4,0l-4,4.69-6.15-.49c-7.41-.59-13.59,5.59-13.01,13.01l.49,6.15-4.69,4c-5.66,4.83-5.66,13.57,0,18.4l4.69,4-.49,6.15c-.59,7.41,5.59,13.59,13.01,13.01l6.15-.49,4,4.69c4.83,5.66,13.57,5.66,18.4,0l4-4.69,6.15.49c7.41.59,13.59-5.59,13.01-13.01l-.49-6.15,4.69-4c5.66-4.83,5.66-13.57,0-18.4ZM170.97,172.73l-15.86-14.99,8.24-8.72,7.16,6.77,15.74-16.57,8.7,8.27-23.98,25.24Z"/></g></g></svg>