<svg width="226" height="206" viewBox="0 0 226 206" fill="none" xmlns="http://www.w3.org/2000/svg">
<g clip-path="url(#clip0_17115_403)">
<path d="M91.6199 94.6201H18.4199C12.3399 94.6201 7.41992 99.5401 7.41992 105.62V167.09C7.41992 173.17 12.3399 178.09 18.4199 178.09H97.6299" stroke="#191919" stroke-width="14.83" stroke-miterlimit="10"/>
<path d="M186.919 112.42V97.8101C186.919 91.7301 181.999 86.8101 175.919 86.8101H95.4395C89.3595 86.8101 84.4395 91.7301 84.4395 97.8101V167.08C84.4395 173.16 89.3595 178.08 95.4395 178.08H133.609" stroke="#191919" stroke-width="14.83" stroke-miterlimit="10"/>
<path d="M53.6794 72.5399C68.3536 72.5399 80.2494 60.6441 80.2494 45.9699C80.2494 31.2957 68.3536 19.3999 53.6794 19.3999C39.0052 19.3999 27.1094 31.2957 27.1094 45.9699C27.1094 60.6441 39.0052 72.5399 53.6794 72.5399Z" stroke="#191919" stroke-width="14.83" stroke-miterlimit="10"/>
<path d="M135.68 64.9399C151.564 64.9399 164.44 52.0636 164.44 36.1799C164.44 20.2962 151.564 7.41992 135.68 7.41992C119.796 7.41992 106.92 20.2962 106.92 36.1799C106.92 52.0636 119.796 64.9399 135.68 64.9399Z" stroke="#191919" stroke-width="14.83" stroke-miterlimit="10"/>
<path d="M182.851 110.78L187.371 116.07L194.311 115.52C202.681 114.86 209.651 121.83 208.991 130.2L208.441 137.14L213.731 141.66C220.111 147.11 220.111 156.97 213.731 162.42L208.441 166.94L208.991 173.88C209.651 182.25 202.681 189.22 194.311 188.56L187.371 188.01L182.851 193.3C177.401 199.68 167.541 199.68 162.091 193.3L157.571 188.01L150.631 188.56C142.261 189.22 135.291 182.25 135.951 173.88L136.501 166.94L131.211 162.42C124.831 156.97 124.831 147.11 131.211 141.66L136.501 137.14L135.951 130.2C135.291 121.83 142.261 114.86 150.631 115.52L157.571 116.07L162.091 110.78C167.541 104.4 177.401 104.4 182.851 110.78Z" stroke="#191919" stroke-width="14.83" stroke-miterlimit="10"/>
<path d="M189.53 141.92L169.67 162.82L158.16 151.94" stroke="#191919" stroke-width="14.83" stroke-miterlimit="10"/>
</g>
<defs>
<clipPath id="clip0_17115_403">
<rect width="225.94" height="205.5" fill="white"/>
</clipPath>
</defs>
</svg>
