<?xml version="1.0" encoding="UTF-8"?><svg id="Camada_2" xmlns="http://www.w3.org/2000/svg" viewBox="0 0 225.94 205.5"><defs><style>.cls-1{fill:none;stroke:#ebe4d7;stroke-miterlimit:10;stroke-width:14.83px;}</style></defs><g id="Layer_2"><g id="Profissionais_linha_branca"><path class="cls-1" d="M91.62,94.62H19.69c-6.78,0-12.28,5.5-12.28,12.28v58.91c0,6.78,5.5,12.28,12.28,12.28h77.93"/><path class="cls-1" d="M186.92,112.42v-13.33c0-6.78-5.5-12.28-12.28-12.28h-77.93c-6.78,0-12.28,5.5-12.28,12.28v66.71c0,6.78,5.5,12.28,12.28,12.28h36.89"/><circle class="cls-1" cx="53.68" cy="45.97" r="26.57"/><circle class="cls-1" cx="135.68" cy="36.18" r="28.76"/><g id="Estrela_cor"><path class="cls-1" d="M182.85,110.78l4.52,5.29,6.94-.55c8.37-.66,15.34,6.31,14.68,14.68l-.55,6.94,5.29,4.52c6.38,5.45,6.38,15.31,0,20.76l-5.29,4.52.55,6.94c.66,8.37-6.31,15.34-14.68,14.68l-6.94-.55-4.52,5.29c-5.45,6.38-15.31,6.38-20.76,0l-4.52-5.29-6.94.55c-8.37.66-15.34-6.31-14.68-14.68l.55-6.94-5.29-4.52c-6.38-5.45-6.38-15.31,0-20.76l5.29-4.52-.55-6.94c-.66-8.37,6.31-15.34,14.68-14.68l6.94.55,4.52-5.29c5.45-6.38,15.31-6.38,20.76,0Z"/></g><polyline class="cls-1" points="189.53 141.92 169.67 162.82 158.16 151.94"/></g></g></svg>