<?xml version="1.0" encoding="UTF-8"?><svg id="Camada_2" xmlns="http://www.w3.org/2000/svg" viewBox="0 0 225.94 205.5"><defs><style>.cls-1{fill:#f5d1c7;}.cls-1,.cls-2,.cls-3,.cls-4,.cls-5{stroke:#464a4d;stroke-miterlimit:10;stroke-width:14.83px;}.cls-2{fill:#0c74b7;}.cls-3{fill:none;}.cls-4{fill:#3398cb;}.cls-5{fill:#f2b53d;}</style></defs><g id="Layer_2"><g id="Profissionais_cor"><rect class="cls-2" x="7.42" y="94.62" width="102.48" height="83.47" rx="11" ry="11"/><rect class="cls-4" x="84.44" y="86.82" width="102.48" height="91.27" rx="11" ry="11"/><circle class="cls-1" cx="53.68" cy="45.97" r="26.57"/><circle class="cls-1" cx="135.68" cy="36.18" r="28.76"/><g id="Estrela_cor"><path class="cls-5" d="M182.85,110.78l4.52,5.29,6.94-.55c8.37-.66,15.34,6.31,14.68,14.68l-.55,6.94,5.29,4.52c6.38,5.45,6.38,15.31,0,20.76l-5.29,4.52.55,6.94c.66,8.37-6.31,15.34-14.68,14.68l-6.94-.55-4.52,5.29c-5.45,6.38-15.31,6.38-20.76,0l-4.52-5.29-6.94.55c-8.37.66-15.34-6.31-14.68-14.68l.55-6.94-5.29-4.52c-6.38-5.45-6.38-15.31,0-20.76l5.29-4.52-.55-6.94c-.66-8.37,6.31-15.34,14.68-14.68l6.94.55,4.52-5.29c5.45-6.38,15.31-6.38,20.76,0Z"/></g><polyline class="cls-3" points="189.53 141.92 169.67 162.82 158.16 151.94"/></g></g></svg>