<?xml version="1.0" encoding="UTF-8"?><svg id="Camada_2" xmlns="http://www.w3.org/2000/svg" viewBox="0 0 197.26 180.18"><defs><style>.cls-1{stroke-width:14.83px;}.cls-1,.cls-2{fill:none;stroke:#464a4d;stroke-miterlimit:10;}.cls-3{fill:#464a4d;}.cls-2{stroke-width:12px;}</style></defs><g id="Layer_2"><g id="Programação_linha_preta"><g id="Calendário_cor"><path class="cls-1" d="M160.61,93.71V29.68c0-5.58-4.52-10.11-10.11-10.11H17.52c-5.58,0-10.11,4.52-10.11,10.11v132.98c0,5.58,4.52,10.11,10.11,10.11h132.98"/></g><rect class="cls-2" x="38.08" y="65.41" width="18.53" height="18.53" rx="5" ry="5"/><rect class="cls-2" x="38.08" y="108.64" width="18.53" height="18.53" rx="5" ry="5"/><path class="cls-3" d="M150.94,101.86c17.36,0,31.49,14.13,31.49,31.49s-14.13,31.49-31.49,31.49-31.49-14.13-31.49-31.49,14.13-31.49,31.49-31.49M150.94,87.03c-25.58,0-46.32,20.74-46.32,46.32s20.74,46.32,46.32,46.32,46.32-20.74,46.32-46.32-20.74-46.32-46.32-46.32h0Z"/><polyline class="cls-2" points="171.94 139 148.48 138.94 148.48 114.24"/><line class="cls-1" x1="34.03" y1="0" x2="34.03" y2="33.59"/><line class="cls-1" x1="82.34" y1="0" x2="82.34" y2="33.59"/><line class="cls-1" x1="130.65" y1="0" x2="130.65" y2="33.59"/></g></g></svg>