<?xml version="1.0" encoding="UTF-8"?><svg id="Camada_2" xmlns="http://www.w3.org/2000/svg" viewBox="0 0 196.71 179.66"><defs><style>.cls-1{stroke-width:14.83px;}.cls-1,.cls-2,.cls-3{stroke:#464a4d;stroke-miterlimit:10;}.cls-1,.cls-3{fill:none;}.cls-2,.cls-3{stroke-width:12px;}.cls-2,.cls-4{fill:#ede5d8;}.cls-5{fill:#464a4d;}.cls-6{fill:#f48131;}</style></defs><g id="Layer_2"><g id="Programação_cor"><g id="Calendário_cor"><rect class="cls-6" x="7.41" y="20.33" width="151.92" height="151.91" rx="3.58" ry="3.58"/><path class="cls-5" d="M151.91,27.75v137.08H14.83V27.75h137.08M155.74,12.92H11C4.92,12.92,0,17.84,0,23.92v144.74c0,6.08,4.92,11,11,11h144.74c6.08,0,11-4.92,11-11V23.92c0-6.07-4.92-11-11-11h0Z"/></g><rect class="cls-2" x="37.53" y="65.41" width="18.53" height="18.53" rx="5" ry="5"/><rect class="cls-2" x="37.53" y="108.64" width="18.53" height="18.53" rx="5" ry="5"/><path class="cls-4" d="M150.39,172.25c-21.45,0-38.9-17.45-38.9-38.9s17.45-38.9,38.9-38.9,38.9,17.45,38.9,38.9-17.45,38.9-38.9,38.9Z"/><path class="cls-5" d="M150.39,101.86c17.36,0,31.49,14.13,31.49,31.49s-14.13,31.49-31.49,31.49-31.49-14.13-31.49-31.49,14.13-31.49,31.49-31.49M150.39,87.03c-25.58,0-46.32,20.74-46.32,46.32s20.74,46.32,46.32,46.32,46.32-20.74,46.32-46.32-20.74-46.32-46.32-46.32h0Z"/><polyline class="cls-3" points="171.39 139 147.94 138.94 147.94 114.24"/><line class="cls-1" x1="33.48" y1="0" x2="33.48" y2="33.59"/><line class="cls-1" x1="81.79" y1="0" x2="81.79" y2="33.59"/><line class="cls-1" x1="130.1" y1="0" x2="130.1" y2="33.59"/></g></g></svg>