<?xml version="1.0" encoding="UTF-8"?><svg id="Camada_2" xmlns="http://www.w3.org/2000/svg" viewBox="0 0 182.62 179.66"><defs><style>.cls-1{fill:none;stroke:#ebe4d7;stroke-miterlimit:10;stroke-width:14.83px;}.cls-2{fill:#ebe4d7;}</style></defs><g id="Layer_2"><g id="Programação_preenchido_branco"><g id="Programação_linha_preta"><path class="cls-2" d="M146.92,87.19c7.39-.61,14.44.54,20.81,3.05V29.93c0-9.68-7.65-17.55-17.23-17.96v21.61h-38V11.93h-10.31v21.65h-38V11.93h-10.31v21.65H15.88V12.07C6.94,13.12,0,20.71,0,29.93v131.73c0,9.94,8.06,18,18,18h132.79c-26.66,0-48.06-22.52-46.21-49.58,1.55-22.65,19.7-41.04,42.33-42.9ZM31.98,70.4c0-6.08,4.92-11,11-11h8.43c6.07,0,11,4.92,11,11v8.43c0,6.08-4.93,11-11,11h-8.43c-6.08,0-11-4.92-11-11v-8.43ZM62.41,122.34c0,6.08-4.93,11-11,11h-8.43c-6.08,0-11-4.92-11-11v-8.43c0-6.07,4.92-11,11-11h8.43c6.07,0,11,4.93,11,11v8.43Z"/><path class="cls-2" d="M151.14,101.96c-17.39,0-31.49,14.1-31.49,31.49s14.1,31.49,31.49,31.49,31.49-14.1,31.49-31.49-14.1-31.49-31.49-31.49ZM171.78,144.5l-28.94-.07v-30.19h11v19.22l17.97.05-.03,11Z"/></g><line class="cls-1" x1="33.88" y1="0" x2="33.88" y2="24.59"/><line class="cls-1" x1="82.19" y1="0" x2="82.19" y2="24.59"/><line class="cls-1" x1="130.5" y1="0" x2="130.5" y2="24.59"/></g></g></svg>