<svg width="198" height="181" viewBox="0 0 198 181" fill="none" xmlns="http://www.w3.org/2000/svg">
<g clip-path="url(#clip0_17115_417)">
<path d="M160.61 93.7098V29.6798C160.61 24.0998 156.09 19.5698 150.5 19.5698H17.5202C11.9402 19.5698 7.41016 24.0898 7.41016 29.6798V162.66C7.41016 168.24 11.9302 172.77 17.5202 172.77H150.5" stroke="#191919" stroke-width="14.83" stroke-miterlimit="10"/>
<path d="M51.6101 65.4102H43.0801C40.3187 65.4102 38.0801 67.6487 38.0801 70.4102V78.9402C38.0801 81.7016 40.3187 83.9402 43.0801 83.9402H51.6101C54.3715 83.9402 56.6101 81.7016 56.6101 78.9402V70.4102C56.6101 67.6487 54.3715 65.4102 51.6101 65.4102Z" stroke="#191919" stroke-width="12" stroke-miterlimit="10"/>
<path d="M51.6101 108.64H43.0801C40.3187 108.64 38.0801 110.879 38.0801 113.64V122.17C38.0801 124.932 40.3187 127.17 43.0801 127.17H51.6101C54.3715 127.17 56.6101 124.932 56.6101 122.17V113.64C56.6101 110.879 54.3715 108.64 51.6101 108.64Z" stroke="#191919" stroke-width="12" stroke-miterlimit="10"/>
<path d="M150.941 101.86C168.301 101.86 182.431 115.99 182.431 133.35C182.431 150.71 168.301 164.84 150.941 164.84C133.581 164.84 119.451 150.71 119.451 133.35C119.451 115.99 133.581 101.86 150.941 101.86ZM150.941 87.0298C125.361 87.0298 104.621 107.77 104.621 133.35C104.621 158.93 125.361 179.67 150.941 179.67C176.521 179.67 197.261 158.93 197.261 133.35C197.261 107.77 176.521 87.0298 150.941 87.0298Z" fill="#191919"/>
<path d="M171.94 139L148.48 138.94V114.24" stroke="#191919" stroke-width="12" stroke-miterlimit="10"/>
<path d="M34.0293 0V33.59" stroke="#191919" stroke-width="14.83" stroke-miterlimit="10"/>
<path d="M82.3398 0V33.59" stroke="#191919" stroke-width="14.83" stroke-miterlimit="10"/>
<path d="M130.65 0V33.59" stroke="#191919" stroke-width="14.83" stroke-miterlimit="10"/>
</g>
<defs>
<clipPath id="clip0_17115_417">
<rect width="197.26" height="180.18" fill="white"/>
</clipPath>
</defs>
</svg>
