<?xml version="1.0" encoding="UTF-8"?><svg id="Camada_2" xmlns="http://www.w3.org/2000/svg" viewBox="0 0 119.66 168"><defs><style>.cls-1{fill:#1275b6;}.cls-2{fill:#464a4d;}</style></defs><g id="Layer_2"><g id="Seis_cor"><path class="cls-1" d="M59.83,161c-13.81,0-26.88-5.32-36.79-14.98-9.88-9.63-15.55-22.51-15.96-36.27l-.07-49.78C7,30.76,30.7,7,59.83,7c16.46,0,31.69,7.49,41.78,20.55l4.28,5.54-27.41,21.18-4.28-5.54c-3.48-4.5-8.72-7.08-14.37-7.08-9.56,0-17.42,7.47-18.13,16.91,5.78-2.12,11.9-3.22,18.13-3.22,29.13,0,52.83,23.7,52.83,52.83s-23.7,52.83-52.83,52.83ZM59.83,89.98c-10.03,0-18.18,8.16-18.18,18.18s8.16,18.19,18.18,18.19,18.19-8.16,18.19-18.19-8.16-18.18-18.19-18.18Z"/><path class="cls-2" d="M59.83,14c14.28,0,27.49,6.5,36.24,17.83l-16.34,12.62c-4.81-6.23-12.07-9.8-19.91-9.8-13.89,0-25.18,11.35-25.18,25.31v9.96c7.23-4.78,15.88-7.58,25.18-7.58,25.27,0,45.83,20.56,45.83,45.83s-20.56,45.83-45.83,45.83-45.03-19.83-45.76-44.46l-.07-49.59c0-25.34,20.56-45.96,45.83-45.96M59.83,133.35c13.89,0,25.19-11.3,25.19-25.19s-11.3-25.18-25.19-25.18-25.18,11.3-25.18,25.18,11.3,25.19,25.18,25.19M59.83,0C26.84,0,0,26.9,0,59.96l.07,49.6v.2s0,.2,0,.2c.46,15.58,6.89,30.17,18.08,41.08,11.23,10.94,26.03,16.96,41.68,16.96,32.99,0,59.83-26.84,59.83-59.83,0-22.7-12.71-42.49-31.39-52.63l.02-.02,16.34-12.62,11.08-8.56-8.56-11.08C95.73,8.48,78.48,0,59.83,0h0ZM59.83,119.35c-6.17,0-11.18-5.02-11.18-11.19s5.02-11.18,11.18-11.18,11.19,5.02,11.19,11.18-5.02,11.19-11.19,11.19h0Z"/></g></g></svg>