<?xml version="1.0" encoding="UTF-8"?><svg id="Camada_2" xmlns="http://www.w3.org/2000/svg" viewBox="0 0 91.66 140"><defs><style>.cls-1{fill:#464a4d;}</style></defs><g id="Layer_2"><g id="Seis_preenchido_preto"><path class="cls-1" d="M82.07,17.83C73.32,6.5,60.11,0,45.83,0,20.56,0,0,20.62,0,45.96l.07,49.59c.73,24.63,20.95,44.46,45.76,44.46s45.83-20.56,45.83-45.83-20.56-45.83-45.83-45.83c-9.3,0-17.95,2.8-25.18,7.58v-9.96c0-13.96,11.3-25.31,25.18-25.31,7.84,0,15.09,3.57,19.91,9.8l16.34-12.62ZM45.83,119.35c-13.89,0-25.18-11.3-25.18-25.19s11.3-25.18,25.18-25.18,25.19,11.3,25.19,25.18-11.3,25.19-25.19,25.19Z"/></g></g></svg>