<?xml version="1.0" encoding="UTF-8"?><svg id="Camada_2" xmlns="http://www.w3.org/2000/svg" viewBox="0 0 122.41 125.88"><defs><style>.cls-1{fill:#ede5d7;}</style></defs><g id="Layer_2"><g id="Seta_preenchido_branco"><path class="cls-1" d="M24.21,10.4C24.21,4.71,28.83.08,34.53.08l77.75-.08c4.9.08,9.92,4.63,9.86,9.53l.28,75.32c.02,5.92-4.76,10.73-10.68,10.73h0c-5.89,0-10.66-4.76-10.68-10.65-.03-11.97-.06-39.51.03-46.66L20.49,122.22c-4.5,4.68-11.92,4.9-16.68.49h0c-4.88-4.52-5.11-12.17-.49-16.97L83.91,20.67l-49.36.06c-5.71,0-10.34-4.62-10.34-10.33h0Z"/></g></g></svg>