<?xml version="1.0" encoding="UTF-8"?><svg id="Camada_2" xmlns="http://www.w3.org/2000/svg" viewBox="0 0 152.07 155.54"><defs><style>.cls-1{fill:#464a4d;}.cls-2{fill:#f48131;}</style></defs><g id="Layer_2"><g id="Seta_cor"><path class="cls-1" d="M127.1,14.83c4.9.08,9.92,4.63,9.86,9.53l.28,75.32c.03,5.92-4.76,10.73-10.68,10.73s-10.66-4.76-10.68-10.65c-.03-11.97-.06-39.51.03-46.66l-80.6,83.96c-2.33,2.43-5.46,3.66-8.59,3.66-2.9,0-5.8-1.05-8.09-3.17h0c-4.88-4.52-5.1-12.17-.49-16.97L98.74,35.5l-49.36.06h-.02c-5.7,0-10.32-4.62-10.32-10.32s4.62-10.32,10.31-10.33l77.75-.08M127.21,0h-.12L49.34.08c-13.86.02-25.13,11.3-25.13,25.16s11.28,25.15,25.15,25.15l14.86-.02L7.41,110.34C2.43,115.55-.2,122.38.01,129.59c.21,7.23,3.25,13.91,8.55,18.83,4.96,4.6,11.41,7.13,18.17,7.13,7.24,0,14.27-3,19.29-8.22l55.01-57.31c0,3.68.01,7.05.02,9.78.04,14.03,11.48,25.44,25.51,25.44,6.83,0,13.25-2.67,18.08-7.51,4.82-4.84,7.46-11.27,7.43-18.11l-.28-75.22C151.87,11.59,140.48.21,127.34,0h-.12Z"/><path class="cls-2" d="M39.04,25.23c0-5.7,4.62-10.32,10.31-10.33l77.75-.08c4.9.08,9.92,4.63,9.86,9.53l.28,75.32c.02,5.92-4.76,10.73-10.68,10.73h0c-5.89,0-10.66-4.76-10.68-10.65-.03-11.97-.06-39.51.03-46.66l-80.6,83.96c-4.5,4.68-11.92,4.9-16.68.49h0c-4.88-4.52-5.11-12.17-.49-16.97L98.74,35.5l-49.36.06c-5.71,0-10.34-4.62-10.34-10.33h0Z"/></g></g></svg>