<?xml version="1.0" encoding="UTF-8"?><svg id="Camada_2" xmlns="http://www.w3.org/2000/svg" viewBox="0 0 189.03 199.81"><defs><style>.cls-1{fill:#464a4d;}</style></defs><g id="Layer_2"><g id="Violão_preenchido_preto"><g id="Violão_linha_preta"><path class="cls-1" d="M88.64,84.72s-.02,0-.03,0c.01,0,.02,0,.03,0Z"/><path class="cls-1" d="M90.51,84.64s.08,0,.12,0c-.04,0-.08,0-.12,0Z"/><path class="cls-1" d="M78.49,106.23c.11,3.24,1.48,6.25,3.86,8.46,4.9,4.57,12.61,4.3,17.17-.6,4.57-4.9,4.3-12.61-.6-17.18-2.34-2.18-5.31-3.26-8.28-3.26-3.26,0-6.5,1.3-8.89,3.86-2.21,2.37-3.37,5.47-3.26,8.71Z"/><path class="cls-1" d="M98.76,86.29c-.22-.09-.43-.19-.65-.27.22.08.43.18.65.27Z"/><path class="cls-1" d="M100.66,87.19c-.23-.12-.46-.26-.69-.38.23.11.46.25.69.38Z"/><path class="cls-1" d="M167.89,46.3l-55.9,60.54h0c-.15,5.05-2.05,10.06-5.75,14.03h0c-4.24,4.55-10,6.85-15.78,6.85-5.27,0-10.55-1.91-14.7-5.78-4.21-3.93-6.64-9.26-6.85-15.02-.2-5.76,1.85-11.25,5.78-15.46,3.31-3.55,7.55-5.7,11.99-6.49l55.87-60.51c-20.85-9.31-44.5-5.07-59.29,10.79-7.67,8.22-12.23,18.33-12.86,28.46-.21,3.45-1.15,5.93-2.78,7.36-1.93,1.7-5.16,2.42-9.6,2.13-.51-.03-.99-.06-1.58-.03-15.44.91-29.78,8.09-40.4,20.23C5.7,105.24,0,120.47,0,136.29c0,35.02,28.49,63.52,63.52,63.52,18.82,0,37.42-8.33,49.77-22.29,10.61-12,15.48-26.86,13.73-41.88-.07-3,.78-9.65,9.45-10.73,11.15-1.39,21.68-7.65,29.64-17.63,13.52-16.95,14.22-41.42,1.79-60.98ZM67.5,149.29l-17.63-16.44,8.01-8.51,17.63,16.44-8.01,8.51Z"/></g><path class="cls-1" d="M105.18,90.4c2.06,1.92,3.65,4.16,4.78,6.57L189.03,11.33l-12.27-11.33-79.23,85.81c2.77.95,5.38,2.47,7.66,4.59Z"/></g></g></svg>