<svg width="200" height="211" viewBox="0 0 200 211" fill="none" xmlns="http://www.w3.org/2000/svg">
<g clip-path="url(#clip0_17115_435)">
<path d="M56.9292 92.1302C29.1992 93.7602 7.94922 118.85 7.94922 147.31C7.94922 178 32.8292 202.88 63.5192 202.88C94.2092 202.88 122.829 177.77 119.089 147.31C119.039 146.9 118.269 130.18 135.489 128.04C144.969 126.86 153.529 121.32 159.899 113.34C173.459 96.3402 171.219 70.2702 154.799 53.5302C135.869 34.2302 105.969 33.5902 89.0892 51.6902C82.8792 58.3502 78.8892 66.5502 78.3492 75.2202C77.1392 95.0102 58.0992 92.0602 56.9292 92.1302Z" fill="#F4B63E" stroke="#191919" stroke-width="15.9" stroke-miterlimit="10"/>
<path d="M83.6797 108.84L176.83 7.95011C178.54 6.11011 181.43 6.00011 183.27 7.72011L191.56 15.4501C193.39 17.1601 193.5 20.0301 191.79 21.8701L98.6297 122.77" fill="#4DAA90"/>
<path d="M83.6797 108.84L176.83 7.95011C178.54 6.11011 181.43 6.00011 183.27 7.72011L191.56 15.4501C193.39 17.1601 193.5 20.0301 191.79 21.8701L98.6297 122.77" stroke="#191919" stroke-width="13" stroke-miterlimit="10"/>
<path d="M90.4684 132.77C99.0675 132.77 106.038 125.799 106.038 117.2C106.038 108.601 99.0675 101.63 90.4684 101.63C81.8694 101.63 74.8984 108.601 74.8984 117.2C74.8984 125.799 81.8694 132.77 90.4684 132.77Z" fill="#F48131" stroke="#191919" stroke-width="12" stroke-miterlimit="10"/>
<path d="M54.2988 139.13L71.9288 155.57" stroke="#191919" stroke-width="13" stroke-linejoin="bevel"/>
</g>
<defs>
<clipPath id="clip0_17115_435">
<rect width="199.5" height="210.83" fill="white"/>
</clipPath>
</defs>
</svg>
