<?xml version="1.0" encoding="UTF-8"?><svg id="Camada_2" xmlns="http://www.w3.org/2000/svg" viewBox="0 0 199.5 210.83"><defs><style>.cls-1{stroke-linejoin:bevel;}.cls-1,.cls-2,.cls-3,.cls-4{fill:none;stroke:#464a4d;}.cls-1,.cls-3{stroke-width:13px;}.cls-2{stroke-width:15.9px;}.cls-2,.cls-3,.cls-4{stroke-miterlimit:10;}.cls-4{stroke-width:12px;}</style></defs><g id="Layer_2"><g id="Violão_linha_preta"><path class="cls-2" d="M140.58,43.32c-17.54-8.42-38.42-5.64-51.49,8.38-6.21,6.66-10.2,14.86-10.74,23.53-1.21,19.79-20.25,16.84-21.42,16.91-27.73,1.63-48.98,26.72-48.98,55.18,0,30.69,24.88,55.57,55.57,55.57s59.31-25.11,55.57-55.57c-.05-.41-.82-17.13,16.4-19.27,9.48-1.18,18.04-6.72,24.41-14.7,11.58-14.51,11.64-35.64,1.19-51.93"/><path class="cls-3" d="M91.73,100.12L176.83,7.95c1.71-1.84,4.6-1.95,6.44-.23l8.29,7.73c1.83,1.71,1.94,4.58.23,6.42l-84.73,91.77"/><circle class="cls-4" cx="90.47" cy="117.2" r="15.57"/><line class="cls-1" x1="54.3" y1="139.13" x2="71.93" y2="155.57"/></g></g></svg>