<?xml version="1.0" encoding="UTF-8"?><svg id="Camada_2" xmlns="http://www.w3.org/2000/svg" viewBox="0 0 199.5 210.83"><defs><style>.cls-1{fill:#f4b63e;stroke-width:15.9px;}.cls-1,.cls-2,.cls-3,.cls-4{stroke:#464a4d;}.cls-1,.cls-3,.cls-4{stroke-miterlimit:10;}.cls-2{fill:none;stroke-linejoin:bevel;}.cls-2,.cls-4{stroke-width:13px;}.cls-3{fill:#f48131;stroke-width:12px;}.cls-4{fill:#4daa90;}</style></defs><g id="Layer_2"><g id="Violão_cor"><path class="cls-1" d="M56.93,92.13c-27.73,1.63-48.98,26.72-48.98,55.18,0,30.69,24.88,55.57,55.57,55.57s59.31-25.11,55.57-55.57c-.05-.41-.82-17.13,16.4-19.27,9.48-1.18,18.04-6.72,24.41-14.7,13.56-17,11.32-43.07-5.1-59.81-18.93-19.3-48.83-19.94-65.71-1.84-6.21,6.66-10.2,14.86-10.74,23.53-1.21,19.79-20.25,16.84-21.42,16.91Z"/><path class="cls-4" d="M83.68,108.84L176.83,7.95c1.71-1.84,4.6-1.95,6.44-.23l8.29,7.73c1.83,1.71,1.94,4.58.23,6.42l-93.16,100.9"/><circle class="cls-3" cx="90.47" cy="117.2" r="15.57"/><line class="cls-2" x1="54.3" y1="139.13" x2="71.93" y2="155.57"/></g></g></svg>